<?xml version="1.0" encoding="UTF-8"?>
<svg id="Layer_1" xmlns="http://www.w3.org/2000/svg" version="1.1" viewBox="0 0 2469.4 2000.14">
  <!-- Generator: Adobe Illustrator 29.1.0, SVG Export Plug-In . SVG Version: 2.1.0 Build 142)  -->
  <path d="M837.7,739.14c51.2,17,120.1,3.7,197.8-22.1,5.7-45.4,55.8-407.9,211.7-486.7,133.2-67.2,270.8,60.6,353.8,163.4-41.7-72.5-94.2-161.9-130-215.9C1393.3,61.14,1311.5,2.94,1220.5.14c-190.1-5.9-325.7,169.7-489.7,449.3-7.5,48.3-28.7,244.5,106.8,289.7h.1Z" fill="#b8b8b8"/>
  <path d="M1932.4,796.14c-46.2-148.2-181.8-292.5-423.5-253.2-94.6,15.4-198,57.4-298,97.9-140.4,56.9-273.1,110.6-361,81.4-124.3-41.4-126.2-197.8-119.3-273.6-18.2,31.4-36.7,64-55.7,97.7-161.1,285.5-199.3,481.2-110.2,565.7,113.3,107.7,412.4,14.7,636.3-127.3,240.2-152.4,426.1-199.1,537.5-135.2,78,44.7,117.3,143.6,114.2,286.4,89.2-50.9,124.4-197.1,79.9-339.7l-.2-.1Z" fill="#a9a9aa"/>
  <path d="M327.3,1813.04l-22-57.7H118.4l-22,59c-8.6,23-15.9,38.5-22,46.6s-16,12.1-29.8,12.1-22.1-4.3-31.1-12.9-13.5-18.3-13.5-29.2,1-12.8,3.1-19.5,5.5-16,10.4-27.9l117.6-298.7c3.4-8.6,7.4-18.9,12.1-30.9,4.7-12,9.7-22,15.1-30,5.3-8,12.3-14.4,21-19.3s19.4-7.3,32.2-7.3,23.8,2.4,32.5,7.3,15.7,11.3,21,19c5.3,7.7,9.8,16,13.5,24.9s8.3,20.8,14,35.6l120.1,296.8c9.4,22.6,14.1,39,14.1,49.2s-4.5,20.5-13.3,29.3c-8.9,8.9-19.6,13.3-32.2,13.3s-13.6-1.3-18.8-3.9c-5.2-2.6-9.6-6.2-13.2-10.7s-7.4-11.4-11.4-20.7c-4.1-9.3-7.6-17.5-10.5-24.6v.2ZM142.9,1685.34h137.4l-69.3-189.8-68.1,189.8h0Z" fill="#b8b8b8"/>
  <path d="M765,1760.94c0,23.6-5.7,43.9-17.3,60.7-11.5,16.8-28.5,29.6-51,38.3-22.5,8.7-49.8,13-82,13s-57.1-4.7-79.1-14.1-38.2-21.2-48.6-35.3c-10.5-14.1-15.7-28.3-15.7-42.5s3.3-17.5,10-24.2,15.2-10,25.4-10,15.9,2.2,20.7,6.6,9.4,10.6,13.8,18.5c8.8,15.3,19.3,26.7,31.5,34.2s28.9,11.3,50,11.3,31.2-3.8,42.2-11.5c11-7.6,16.5-16.4,16.5-26.2,0-15-5.7-26-17.1-32.9-11.4-6.9-30.2-13.5-56.3-19.8-29.5-7.3-53.5-15-72-23.1-18.5-8-33.3-18.7-44.4-31.8-11.1-13.2-16.6-29.4-16.6-48.6s5.1-33.3,15.4-48.6c10.2-15.3,25.4-27.5,45.4-36.6s44.1-13.7,72.3-13.7,42.1,2.3,59.8,6.9,32.4,10.8,44.2,18.5,20.8,16.3,27,25.7c6.2,9.4,9.3,18.6,9.3,27.6s-3.3,17.9-9.9,24.2c-6.6,6.3-16,9.4-28.1,9.4s-16.3-2.5-22.4-7.5c-6.2-5-13.2-12.5-21.2-22.6-6.5-8.4-14.1-15-22.9-20.1-8.8-5-20.7-7.5-35.8-7.5s-28.3,3.3-38.6,9.9-15.4,14.8-15.4,24.6,3.8,16.3,11.3,22.1c7.5,5.7,17.7,10.5,30.4,14.3,12.8,3.8,30.3,8.4,52.7,13.8,26.6,6.5,48.2,14.2,65.1,23.2,16.8,9,29.6,19.6,38.3,31.8,8.7,12.3,13,26.2,13,41.9l.1.1Z" fill="#b8b8b8"/>
  <path d="M1113.2,1760.94c0,23.6-5.8,43.9-17.3,60.7-11.5,16.8-28.5,29.6-51,38.3-22.5,8.7-49.8,13-82,13s-57.1-4.7-79.1-14.1-38.2-21.2-48.6-35.3c-10.5-14.1-15.7-28.3-15.7-42.5s3.3-17.5,10-24.2,15.2-10,25.4-10,15.9,2.2,20.7,6.6,9.4,10.6,13.8,18.5c8.8,15.3,19.3,26.7,31.5,34.2s28.9,11.3,50,11.3,31.2-3.8,42.2-11.5c11-7.6,16.5-16.4,16.5-26.2,0-15-5.7-26-17.1-32.9-11.4-6.9-30.2-13.5-56.3-19.8-29.5-7.3-53.5-15-72-23.1-18.5-8-33.3-18.7-44.4-31.8-11.1-13.2-16.6-29.4-16.6-48.6s5.1-33.3,15.4-48.6c10.2-15.3,25.4-27.5,45.3-36.6,20-9.1,44.1-13.7,72.3-13.7s42.1,2.3,59.8,6.9c17.7,4.6,32.4,10.8,44.2,18.5,11.8,7.7,20.8,16.3,27,25.7,6.2,9.4,9.2,18.6,9.2,27.6s-3.3,17.9-9.9,24.2c-6.6,6.3-15.9,9.4-28.1,9.4s-16.3-2.5-22.4-7.5c-6.2-5-13.2-12.5-21.2-22.6-6.5-8.4-14.1-15-22.9-20.1-8.8-5-20.7-7.5-35.8-7.5s-28.3,3.3-38.6,9.9c-10.2,6.6-15.4,14.8-15.4,24.6s3.8,16.3,11.3,22.1c7.5,5.7,17.7,10.5,30.4,14.3,12.8,3.8,30.3,8.4,52.7,13.8,26.5,6.5,48.2,14.2,65.1,23.2,16.8,9,29.6,19.6,38.3,31.8,8.7,12.3,13,26.2,13,41.9l.3.1Z" fill="#b8b8b8"/>
  <path d="M1424.8,1719.84h-167.5c.2,19.4,4.1,36.6,11.8,51.4,7.7,14.9,17.8,26,30.4,33.6,12.7,7.5,26.6,11.3,41.9,11.3s19.6-1.2,28.1-3.6,16.7-6.2,24.6-11.3c7.9-5.1,15.2-10.6,22-16.5,6.7-5.8,15.4-13.8,26-23.8,4.4-3.8,10.7-5.6,18.8-5.6s15.9,2.4,21.3,7.2c5.5,4.8,8.2,11.6,8.2,20.4s-3,16.8-9.1,27.1c-6.1,10.3-15.2,20.3-27.5,29.8-12.2,9.5-27.6,17.4-46.1,23.7-18.5,6.3-39.8,9.4-63.8,9.4-55,0-97.8-15.7-128.3-47.1-30.6-31.4-45.8-73.9-45.8-127.7s3.8-48.8,11.3-70.4,18.5-40.2,32.9-55.7,32.2-27.3,53.3-35.6c21.1-8.3,44.5-12.4,70.3-12.4s62.2,7.1,86.1,21.2,41.9,32.4,53.8,54.8,17.9,45.2,17.9,68.4-6.2,35.5-18.5,41.9-29.7,9.5-52.1,9.5h0ZM1257.2,1671.24h155.3c-2.1-29.3-10-51.2-23.7-65.7s-31.7-21.8-54.1-21.8-38.8,7.4-52.5,22.1-22,36.5-24.9,65.4h-.1Z" fill="#b8b8b8"/>
  <path d="M1572.2,1532.24h9.4v-51.4c0-13.8.4-24.6,1.1-32.5s2.8-14.6,6.1-20.2c3.3-5.9,8.2-10.6,14.4-14.3,6.3-3.7,13.3-5.5,21-5.5s20.7,4.1,29.5,12.2c5.8,5.4,9.6,12.1,11.1,19.9,1.6,7.8,2.4,19,2.4,33.4v58.3h31.4c12.1,0,21.4,2.9,27.8,8.6,6.4,5.8,9.6,13.1,9.6,22.1s-4.5,19.6-13.6,24.2-22.1,6.9-39.1,6.9h-16v157.5c0,13.4.5,23.7,1.4,30.9.9,7.2,3.4,13.1,7.5,17.6s10.7,6.8,19.9,6.8,11.8-.9,20.4-2.7c8.6-1.8,15.3-2.7,20.1-2.7,6.9,0,13.1,2.8,18.7,8.3,5.5,5.5,8.3,12.4,8.3,20.5,0,13.8-7.5,24.4-22.6,31.7-15.1,7.3-36.7,11-64.9,11s-47.1-4.5-60.9-13.5-22.9-21.4-27.2-37.3c-4.3-15.9-6.4-37.1-6.4-63.7v-164.4h-11.3c-12.3,0-21.8-2.9-28.2-8.8-6.5-5.9-9.7-13.3-9.7-22.3s3.4-16.4,10.2-22.1c6.8-5.8,16.7-8.6,29.7-8.6l-.1.1Z" fill="#b8b8b8"/>
  <path d="M1838.3,1484.84c-11.9,0-22.1-3.7-30.6-11s-12.7-17.7-12.7-31.1,4.3-22.1,13-30,18.8-11.8,30.3-11.8,20.9,3.5,29.5,10.7c8.6,7.1,12.9,17.5,12.9,31.1s-4.2,23.5-12.6,30.9-18.3,11.1-29.8,11.1v.1ZM1880.6,1573.34v247.5c0,17.2-4.1,30.1-12.2,38.9-8.2,8.8-18.5,13.2-31.1,13.2s-22.8-4.5-30.6-13.5c-7.8-9-11.8-21.9-11.8-38.6v-245c0-16.9,3.9-29.7,11.8-38.3,7.8-8.6,18-12.9,30.6-12.9s22.9,4.3,31.1,12.9,12.2,20.5,12.2,35.8Z" fill="#b8b8b8"/>
  <path d="M1962.2,1532.24h20.4v-25.7c0-26.8,3.4-48.1,10.2-63.8,6.8-15.8,18.3-27.3,34.5-34.5s38.4-10.8,66.7-10.8c50,0,75,12.2,75,36.7s-2.6,14.8-7.8,20.4c-5.2,5.7-11.4,8.5-18.5,8.5s-9.1-.6-17.2-1.9c-8.2-1.2-15.1-1.9-20.7-1.9-15.5,0-25.4,4.6-29.8,13.7-4.4,9.1-6.6,22.1-6.6,39.1v20.4h21c32.6,0,48.9,9.8,48.9,29.5s-4.4,22.9-13,26.7c-8.7,3.8-20.7,5.6-35.9,5.6h-21v226.8c0,17-4,29.9-12.1,38.7-8.1,8.9-18.5,13.3-31.2,13.3s-22.2-4.4-30.3-13.3c-8.1-8.9-12.1-21.8-12.1-38.7v-226.8h-23.5c-12.7,0-22.6-2.9-29.5-8.6-6.9-5.8-10.3-13.2-10.3-22.4,0-20.5,14.3-30.8,43-30.8l-.2-.2Z" fill="#b8b8b8"/>
  <path d="M2262.2,1883.64l7.8-19.1-105.4-265.4c-6.5-15.3-9.7-26.3-9.7-33.3s1.9-14.1,5.6-20.4c3.8-6.3,8.9-11.3,15.5-15.1,6.6-3.8,13.4-5.6,20.6-5.6,12.3,0,21.7,3.9,27.9,11.8,6.3,7.8,11.8,19.1,16.6,33.7l72.5,210.8,68.7-196.1c5.4-15.9,10.4-28.4,14.8-37.3,4.4-9,9-15.1,14-18.2,4.9-3.1,11.9-4.7,20.9-4.7s12.7,1.7,18.7,5.2c5.9,3.5,10.6,8.1,13.8,14s4.9,12,4.9,18.5c-.8,4-2.2,9.6-4.1,16.9-1.9,7.3-4.2,14.8-6.9,22.3l-111.7,292.4c-9.6,25.7-19,45.9-28.2,60.6s-21.4,25.9-36.6,33.7c-15.2,7.8-35.6,11.8-61.3,11.8s-43.9-2.7-56.5-8.2c-12.6-5.4-18.8-15.4-18.8-29.8s3-17.4,8.9-22.7c5.9-5.3,14.8-8,26.5-8s9.1.6,13.5,1.9c5.4,1.3,10.1,1.9,14.1,1.9,9.8,0,17.6-1.5,23.2-4.4,5.6-2.9,10.7-8,15.2-15.2s9.7-17.9,15.6-31.9l-.1-.1Z" fill="#b8b8b8"/>
</svg>