<svg width="136" height="28" viewBox="0 0 136 28" fill="none" xmlns="http://www.w3.org/2000/svg">
<path d="M7.0388 17.4535C8.14599 17.8211 9.63593 17.5335 11.3162 16.9756C11.4394 15.9939 12.5228 8.15489 15.8941 6.45086C18.7745 4.99768 21.7501 7.76132 23.545 9.98434C22.6432 8.41655 21.5079 6.4833 20.7337 5.31556C19.0535 2.79195 17.2846 1.53339 15.3168 1.47284C11.2059 1.34526 8.27357 5.14256 4.72712 11.1888C4.56493 12.2333 4.10648 16.4761 7.03664 17.4535H7.0388Z" fill="#B8B8B8"/>
<path d="M30.7114 18.686C29.7124 15.4812 26.78 12.3607 21.5533 13.2106C19.5076 13.5436 17.2716 14.4519 15.1092 15.3277C12.0731 16.5581 9.20345 17.7194 7.30263 17.0879C4.61468 16.1927 4.57359 12.8105 4.7228 11.1714C4.32923 11.8504 3.92918 12.5554 3.51831 13.2841C0.0345594 19.458 -0.791506 23.6899 1.13526 25.5172C3.58534 27.8462 10.0533 25.8351 14.8951 22.7644C20.0893 19.4688 24.1094 18.4589 26.5184 19.8407C28.2051 20.8074 29.055 22.9461 28.9879 26.0341C30.9168 24.9334 31.678 21.7718 30.7157 18.6881L30.7114 18.686Z" fill="#A9A9AA"/>
<path d="M51.955 20.4781L51.093 18.2175H43.7705L42.9086 20.529C42.5716 21.4302 42.2856 22.0374 42.0466 22.3548C41.8076 22.6721 41.4198 22.8289 40.8791 22.8289C40.3384 22.8289 40.0132 22.6604 39.6606 22.3234C39.308 21.9865 39.1317 21.6065 39.1317 21.1794C39.1317 20.7524 39.1709 20.6779 39.2532 20.4154C39.3354 20.1529 39.4686 19.7886 39.6606 19.3223L44.2681 7.61957C44.4013 7.28263 44.558 6.87908 44.7421 6.40894C44.9263 5.93879 45.1222 5.547 45.3337 5.23357C45.5414 4.92013 45.8156 4.66939 46.1565 4.47741C46.4973 4.28544 46.9166 4.19141 47.4181 4.19141C47.9195 4.19141 48.3505 4.28544 48.6914 4.47741C49.0322 4.66939 49.3065 4.92014 49.5141 5.22182C49.7218 5.52349 49.8981 5.84868 50.043 6.19737C50.188 6.54607 50.3682 7.0123 50.5916 7.59214L55.2969 19.2205C55.6652 20.1059 55.8494 20.7484 55.8494 21.1481C55.8494 21.5477 55.6731 21.9512 55.3283 22.296C54.9796 22.6447 54.5604 22.8171 54.0667 22.8171C53.5731 22.8171 53.5339 22.7662 53.3302 22.6643C53.1264 22.5624 52.954 22.4214 52.813 22.2451C52.672 22.0688 52.5231 21.7984 52.3664 21.4341C52.2057 21.0697 52.0686 20.7484 51.955 20.4703V20.4781ZM44.7304 15.475H50.1136L47.3985 8.03879L44.7304 15.475Z" fill="#B8B8B8"/>
<path d="M69.1036 18.4372C69.1036 19.3618 68.8803 20.1572 68.4258 20.8154C67.9753 21.4736 67.3092 21.9751 66.4277 22.3159C65.5462 22.6568 64.4766 22.8252 63.215 22.8252C61.9535 22.8252 60.9779 22.6411 60.116 22.2728C59.254 21.9045 58.6193 21.4422 58.2119 20.8898C57.8005 20.3374 57.5968 19.781 57.5968 19.2247C57.5968 18.6683 57.726 18.5391 57.9885 18.2766C58.251 18.0141 58.5841 17.8848 58.9837 17.8848C59.3833 17.8848 59.6066 17.971 59.7947 18.1433C59.9828 18.3157 60.163 18.5586 60.3354 18.8682C60.6801 19.4676 61.0915 19.9142 61.5695 20.2081C62.0475 20.5019 62.7018 20.6508 63.5285 20.6508C64.3551 20.6508 64.7508 20.5019 65.1818 20.2002C65.6128 19.9025 65.8283 19.5577 65.8283 19.1738C65.8283 18.5861 65.6049 18.1551 65.1583 17.8848C64.7117 17.6144 63.9751 17.3559 62.9525 17.109C61.7967 16.823 60.8564 16.5213 60.1316 16.204C59.4068 15.8906 58.827 15.4713 58.3921 14.9581C57.9572 14.4409 57.7417 13.8062 57.7417 13.054C57.7417 12.3018 57.9415 11.7493 58.3451 11.1499C58.7447 10.5505 59.3402 10.0725 60.1238 9.71595C60.9074 9.35942 61.8516 9.1792 62.9564 9.1792C64.0613 9.1792 64.6059 9.26931 65.2993 9.44954C65.9928 9.62976 66.5687 9.87267 67.0311 10.1743C67.4934 10.476 67.846 10.813 68.0889 11.1812C68.3318 11.5495 68.4533 11.91 68.4533 12.2626C68.4533 12.6152 68.324 12.9639 68.0654 13.2107C67.8068 13.4575 67.4385 13.579 66.9645 13.579C66.4904 13.579 66.3258 13.481 66.0868 13.2852C65.8439 13.0893 65.5697 12.7954 65.2562 12.3997C65.0016 12.0706 64.7038 11.812 64.3591 11.6122C64.0143 11.4163 63.548 11.3184 62.9564 11.3184C62.3648 11.3184 61.8477 11.4477 61.4441 11.7062C61.0406 11.9648 60.8408 12.2861 60.8408 12.67C60.8408 13.054 60.9897 13.3087 61.2835 13.5359C61.5773 13.7592 61.977 13.9473 62.4745 14.0962C62.976 14.245 63.6617 14.4253 64.5393 14.6368C65.5814 14.8915 66.4277 15.1932 67.0898 15.5458C67.748 15.8984 68.2495 16.3137 68.5904 16.7917C68.9312 17.2736 69.0997 17.8182 69.0997 18.4333L69.1036 18.4372Z" fill="#B8B8B8"/>
<path d="M82.7457 18.4372C82.7457 19.3618 82.5185 20.1572 82.0679 20.8154C81.6174 21.4736 80.9513 21.9751 80.0698 22.3159C79.1883 22.6568 78.1187 22.8252 76.8571 22.8252C75.5956 22.8252 74.62 22.6411 73.7581 22.2728C72.8961 21.9045 72.2614 21.4422 71.854 20.8898C71.4426 20.3374 71.2389 19.781 71.2389 19.2247C71.2389 18.6683 71.3682 18.5391 71.6307 18.2766C71.8932 18.0141 72.2262 17.8848 72.6258 17.8848C73.0254 17.8848 73.2487 17.971 73.4368 18.1433C73.6249 18.3157 73.8051 18.5586 73.9775 18.8682C74.3223 19.4676 74.7336 19.9142 75.2116 20.2081C75.6896 20.5019 76.3439 20.6508 77.1706 20.6508C77.9972 20.6508 78.3929 20.5019 78.8239 20.2002C79.2549 19.9025 79.4704 19.5577 79.4704 19.1738C79.4704 18.5861 79.2471 18.1551 78.8004 17.8848C78.3538 17.6144 77.6172 17.3559 76.5946 17.109C75.4389 16.823 74.4986 16.5213 73.7737 16.204C73.0489 15.8906 72.4691 15.4713 72.0342 14.9581C71.5993 14.4409 71.3838 13.8062 71.3838 13.054C71.3838 12.3018 71.5836 11.7493 71.9872 11.1499C72.3868 10.5505 72.9823 10.0725 73.762 9.71595C74.5456 9.35942 75.4898 9.1792 76.5946 9.1792C77.6995 9.1792 78.2441 9.26931 78.9375 9.44954C79.631 9.62976 80.2069 9.87267 80.6692 10.1743C81.1316 10.476 81.4842 10.813 81.7271 11.1812C81.97 11.5495 82.0875 11.91 82.0875 12.2626C82.0875 12.6152 81.9582 12.9639 81.6997 13.2107C81.4411 13.4575 81.0767 13.579 80.5987 13.579C80.1207 13.579 79.9601 13.481 79.7211 13.2852C79.4782 13.0893 79.204 12.7954 78.8905 12.3997C78.6359 12.0706 78.3381 11.812 77.9933 11.6122C77.6486 11.4163 77.1823 11.3184 76.5907 11.3184C75.9991 11.3184 75.482 11.4477 75.0784 11.7062C74.6788 11.9648 74.4751 12.2861 74.4751 12.67C74.4751 13.054 74.6239 13.3087 74.9178 13.5359C75.2116 13.7592 75.6112 13.9473 76.1088 14.0962C76.6103 14.245 77.2959 14.4253 78.1735 14.6368C79.2118 14.8915 80.062 15.1932 80.7241 15.5458C81.3823 15.8984 81.8838 16.3137 82.2247 16.7917C82.5655 17.2736 82.734 17.8182 82.734 18.4333L82.7457 18.4372Z" fill="#B8B8B8"/>
<path d="M94.9539 16.827H88.3914C88.3993 17.5871 88.5521 18.261 88.8537 18.8408C89.1554 19.4246 89.5511 19.8595 90.0448 20.1572C90.5424 20.4511 91.0869 20.5999 91.6864 20.5999C92.2858 20.5999 92.4543 20.5529 92.7873 20.4589C93.1203 20.3649 93.4416 20.216 93.7511 20.0162C94.0606 19.8164 94.3466 19.6009 94.613 19.3697C94.8755 19.1425 95.2164 18.829 95.6317 18.4373C95.8041 18.2884 96.0509 18.2179 96.3683 18.2179C96.6856 18.2179 96.9912 18.3119 97.2028 18.4999C97.4183 18.688 97.524 18.9544 97.524 19.2992C97.524 19.644 97.4065 19.9574 97.1675 20.361C96.9285 20.7645 96.572 21.1563 96.0901 21.5285C95.6121 21.9007 95.0088 22.2102 94.2839 22.457C93.5591 22.7039 92.7246 22.8253 91.7843 22.8253C89.6295 22.8253 87.9526 22.2102 86.7577 20.98C85.5588 19.7498 84.9633 18.0847 84.9633 15.9768C84.9633 13.869 85.1121 14.0649 85.406 13.2186C85.6998 12.3724 86.1308 11.6436 86.695 11.0364C87.2592 10.4291 87.9565 9.96676 88.7832 9.64158C89.6099 9.31639 90.5267 9.15576 91.5375 9.15576C92.5483 9.15576 93.9744 9.43393 94.9108 9.98635C95.8472 10.5388 96.5524 11.2558 97.0186 12.1334C97.4849 13.011 97.7199 13.9043 97.7199 14.8132C97.7199 15.7222 97.477 16.2041 96.9951 16.4548C96.5132 16.7055 95.8315 16.827 94.9539 16.827ZM88.3875 14.9229H94.472C94.3897 13.775 94.0802 12.9169 93.5435 12.3488C93.0067 11.7808 92.3015 11.4947 91.4239 11.4947C90.5463 11.4947 89.9037 11.7847 89.367 12.3606C88.8302 12.9365 88.505 13.7906 88.3914 14.9229H88.3875Z" fill="#B8B8B8"/>
<path d="M100.729 9.47684H101.097V7.46304C101.097 6.92237 101.113 6.49923 101.14 6.18972C101.168 5.8802 101.25 5.61771 101.379 5.3983C101.509 5.16715 101.701 4.98301 101.943 4.83804C102.19 4.69308 102.465 4.62256 102.766 4.62256C103.068 4.62256 103.577 4.7832 103.922 5.10055C104.149 5.31211 104.298 5.57461 104.357 5.8802C104.42 6.1858 104.451 6.6246 104.451 7.18878V9.47292H105.681C106.155 9.47292 106.52 9.58654 106.77 9.80986C107.021 10.0371 107.146 10.3231 107.146 10.6757C107.146 11.0283 106.97 11.4436 106.614 11.6238C106.257 11.8041 105.748 11.8942 105.082 11.8942H104.455V18.0649C104.455 18.5899 104.474 18.9934 104.51 19.2755C104.545 19.5576 104.643 19.7887 104.804 19.965C104.964 20.1414 105.223 20.2315 105.583 20.2315C105.944 20.2315 106.045 20.1962 106.382 20.1257C106.719 20.0552 106.982 20.0199 107.17 20.0199C107.44 20.0199 107.683 20.1296 107.903 20.3451C108.118 20.5606 108.228 20.8309 108.228 21.1483C108.228 21.6889 107.934 22.1042 107.342 22.3902C106.751 22.6762 105.904 22.8212 104.8 22.8212C103.695 22.8212 102.954 22.6449 102.414 22.2923C101.873 21.9397 101.516 21.4539 101.348 20.8309C101.179 20.208 101.097 19.3774 101.097 18.3352V11.8942H100.654C100.173 11.8942 99.8004 11.7806 99.5496 11.5494C99.2949 11.3182 99.1696 11.0283 99.1696 10.6757C99.1696 10.3231 99.3028 10.0332 99.5692 9.80986C99.8356 9.58262 100.223 9.47292 100.733 9.47292L100.729 9.47684Z" fill="#B8B8B8"/>
<path d="M111.154 7.61964C110.688 7.61964 110.289 7.47467 109.956 7.18867C109.623 6.90266 109.458 6.4952 109.458 5.9702C109.458 5.4452 109.626 5.10435 109.967 4.79483C110.308 4.48532 110.704 4.33252 111.154 4.33252C111.605 4.33252 111.973 4.46965 112.31 4.75174C112.647 5.02991 112.816 5.43737 112.816 5.9702C112.816 6.50304 112.651 6.89091 112.322 7.18083C111.993 7.47076 111.605 7.61572 111.154 7.61572V7.61964ZM112.812 11.087V20.7838C112.812 21.4577 112.651 21.9631 112.334 22.3078C112.012 22.6526 111.609 22.825 111.115 22.825C110.622 22.825 110.222 22.6487 109.916 22.2961C109.611 21.9435 109.454 21.4381 109.454 20.7838V11.1849C109.454 10.5228 109.607 10.0213 109.916 9.68437C110.222 9.34743 110.622 9.17896 111.115 9.17896C111.609 9.17896 112.012 9.34743 112.334 9.68437C112.655 10.0213 112.812 10.4875 112.812 11.087Z" fill="#B8B8B8"/>
<path d="M116.009 9.47713H116.808V8.47023C116.808 7.42024 116.941 6.58572 117.208 5.97061C117.474 5.35158 117.925 4.90102 118.559 4.61894C119.194 4.33685 120.064 4.1958 121.172 4.1958C123.131 4.1958 124.111 4.67379 124.111 5.63367C124.111 6.59356 124.009 6.21352 123.805 6.43292C123.602 6.65624 123.359 6.76595 123.081 6.76595C122.802 6.76595 122.724 6.74244 122.407 6.69151C122.085 6.64449 121.815 6.61706 121.596 6.61706C120.988 6.61706 120.6 6.79729 120.428 7.15381C120.256 7.51034 120.17 8.01967 120.17 8.68572V9.48496H120.992C122.269 9.48496 122.908 9.86892 122.908 10.6407C122.908 11.4126 122.736 11.5379 122.399 11.6868C122.058 11.8357 121.588 11.9062 120.992 11.9062H120.17V20.792C120.17 21.4581 120.013 21.9635 119.695 22.3082C119.378 22.6569 118.971 22.8293 118.473 22.8293C117.975 22.8293 117.603 22.6569 117.286 22.3082C116.969 21.9596 116.812 21.4541 116.812 20.792V11.9062H115.891C115.394 11.9062 115.006 11.7926 114.735 11.5693C114.465 11.3421 114.332 11.0521 114.332 10.6917C114.332 9.88851 114.892 9.48496 116.017 9.48496L116.009 9.47713Z" fill="#B8B8B8"/>
<path d="M127.762 23.244L128.068 22.4956L123.939 12.0975C123.684 11.4981 123.559 11.0671 123.559 10.7929C123.559 10.5186 123.633 10.2404 123.778 9.99362C123.927 9.74679 124.127 9.5509 124.385 9.40202C124.644 9.25314 124.91 9.18262 125.192 9.18262C125.674 9.18262 126.042 9.33542 126.285 9.64493C126.532 9.95053 126.748 10.3932 126.936 10.9653L129.776 19.2242L132.468 11.5412C132.679 10.9182 132.875 10.4285 133.048 10.0798C133.22 9.72721 133.4 9.48821 133.596 9.36676C133.788 9.2453 134.062 9.18262 134.415 9.18262C134.768 9.18262 134.913 9.24922 135.148 9.38635C135.379 9.52347 135.563 9.7037 135.688 9.93485C135.814 10.166 135.88 10.405 135.88 10.6597C135.849 10.8164 135.794 11.0358 135.72 11.3218C135.645 11.6078 135.555 11.9016 135.449 12.1955L131.073 23.6514C130.697 24.6583 130.329 25.4497 129.968 26.0257C129.608 26.6016 129.13 27.0404 128.534 27.346C127.939 27.6516 127.139 27.8083 126.133 27.8083C125.126 27.8083 124.413 27.7025 123.919 27.487C123.425 27.2755 123.182 26.8837 123.182 26.3195C123.182 25.7553 123.3 25.6378 123.531 25.4301C123.762 25.2225 124.111 25.1167 124.569 25.1167C125.028 25.1167 124.926 25.1402 125.098 25.1911C125.31 25.2421 125.494 25.2656 125.651 25.2656C126.035 25.2656 126.34 25.2068 126.56 25.0932C126.779 24.9796 126.979 24.7798 127.155 24.4977C127.331 24.2156 127.535 23.7964 127.766 23.2479L127.762 23.244Z" fill="#B8B8B8"/>
</svg>
