<?xml version="1.0" encoding="UTF-8"?>
<svg id="Layer_1" xmlns="http://www.w3.org/2000/svg" viewBox="0 0 145 34" preserveAspectRatio="xMidYMid meet">
  <!-- Generator: Adobe Illustrator 29.6.1, SVG Export Plug-In . SVG Version: 2.1.1 Build 9) -->
  <path d="M34.7,23.7h-3.4l-1.3-3.5h-6.1l-1.3,3.5h-3.3l6-15.3h3.3l6.1,15.3ZM29,17.6l-2.1-5.7-2.1,5.7h4.2Z" fill="#c7c7c7"/>
  <path d="M38.6,23.7l-4.5-11.1h3.1l2.1,5.7.6,1.9c.2-.5.3-.8.3-.9,0-.3.2-.6.3-.9l2.1-5.7h3l-4.4,11.1h-2.6Z" fill="#c7c7c7"/>
  <path d="M49.6,16l-2.7-.5c.3-1.1.8-1.9,1.5-2.4.7-.5,1.8-.8,3.3-.8s2.3.2,2.9.5c.6.3,1.1.7,1.4,1.2.3.5.4,1.4.4,2.6v3.4c0,1,0,1.7.1,2.2,0,.5.3,1,.5,1.5h-2.9c0-.2-.2-.5-.3-.9,0-.2,0-.3-.1-.3-.5.5-1,.9-1.6,1.1-.6.2-1.2.4-1.8.4-1.1,0-2-.3-2.7-.9-.7-.6-1-1.4-1-2.3s.1-1.2.4-1.7c.3-.5.7-.9,1.3-1.1.5-.3,1.3-.5,2.3-.7,1.4-.3,2.3-.5,2.9-.7v-.3c0-.6-.1-1-.4-1.2s-.8-.4-1.6-.4-.9.1-1.2.3c-.3.2-.5.6-.7,1.1ZM53.6,18.4c-.4.1-1,.3-1.8.4s-1.3.3-1.6.5c-.4.3-.6.6-.6,1s.2.8.5,1.1c.3.3.7.4,1.2.4s1-.2,1.5-.5c.4-.3.6-.6.7-1,0-.3.1-.7.1-1.4v-.6Z" fill="#c7c7c7"/>
  <path d="M64.4,12.6v2.3h-2v4.5c0,.9,0,1.4,0,1.6,0,.2.1.3.3.4.1,0,.3.1.5.1s.7,0,1.2-.3l.3,2.3c-.7.3-1.5.4-2.3.4s-1,0-1.4-.3-.7-.4-.9-.7c-.2-.3-.3-.7-.4-1.1,0-.3,0-1,0-2.1v-4.8h-1.3v-2.3h1.3v-2.2l2.9-1.7v3.9h2Z" fill="#c7c7c7"/>
  <path d="M68.6,16l-2.7-.5c.3-1.1.8-1.9,1.5-2.4.7-.5,1.8-.8,3.3-.8s2.3.2,2.9.5c.6.3,1.1.7,1.4,1.2s.4,1.4.4,2.6v3.4c0,1,0,1.7.1,2.2,0,.5.3,1,.5,1.5h-2.9c0-.2-.2-.5-.3-.9,0-.2,0-.3-.1-.3-.5.5-1,.9-1.6,1.1-.6.2-1.2.4-1.8.4-1.1,0-2-.3-2.7-.9-.7-.6-1-1.4-1-2.3s.1-1.2.4-1.7c.3-.5.7-.9,1.3-1.1.5-.3,1.3-.5,2.3-.7,1.4-.3,2.3-.5,2.9-.7v-.3c0-.6-.1-1-.4-1.2s-.8-.4-1.6-.4-.9.1-1.2.3c-.3.2-.5.6-.7,1.1ZM72.6,18.4c-.4.1-1,.3-1.8.4-.8.2-1.3.3-1.6.5-.4.3-.6.6-.6,1s.2.8.5,1.1c.3.3.7.4,1.2.4s1-.2,1.5-.5c.4-.3.6-.6.7-1,0-.3.1-.7.1-1.4v-.6Z" fill="#c7c7c7"/>
  <path d="M81.2,23.7h-2.9v-11.1h2.7v1.6c.5-.7.9-1.2,1.3-1.5.4-.2.8-.4,1.3-.4s1.3.2,1.9.6l-.9,2.6c-.5-.3-1-.5-1.4-.5s-.8.1-1,.3c-.3.2-.5.6-.7,1.2-.2.6-.2,1.8-.2,3.7v3.4Z" fill="#c7c7c7"/>
  <path d="M90.1,23.7v-12.7h-4.5v-2.6h12.2v2.6h-4.5v12.7h-3.1Z" fill="#c7c7c7"/>
  <path d="M100.3,16l-2.7-.5c.3-1.1.8-1.9,1.5-2.4.7-.5,1.8-.8,3.3-.8s2.3.2,2.9.5c.6.3,1.1.7,1.4,1.2s.4,1.4.4,2.6v3.4c0,1,0,1.7.1,2.2,0,.5.3,1,.5,1.5h-2.9c0-.2-.2-.5-.3-.9,0-.2,0-.3-.1-.3-.5.5-1,.9-1.6,1.1-.6.2-1.2.4-1.8.4-1.1,0-2-.3-2.7-.9-.7-.6-1-1.4-1-2.3s.2-1.2.4-1.7c.3-.5.7-.9,1.3-1.1.5-.3,1.3-.5,2.3-.7,1.4-.3,2.3-.5,2.9-.7v-.3c0-.6-.1-1-.4-1.2s-.8-.4-1.6-.4-.9.1-1.2.3c-.3.2-.5.6-.7,1.1ZM104.3,18.4c-.4.1-1,.3-1.8.4s-1.3.3-1.6.5c-.4.3-.6.6-.6,1s.2.8.5,1.1c.3.3.7.4,1.2.4s1-.2,1.5-.5c.4-.3.6-.6.7-1,0-.3.1-.7.1-1.4v-.6Z" fill="#c7c7c7"/>
  <path d="M110,23.7v-15.3h2.9v15.3h-2.9Z" fill="#c7c7c7"/>
  <path d="M115.9,23.7v-15.3h2.9v8.1l3.4-3.9h3.6l-3.8,4.1,4.1,7h-3.2l-2.8-5-1.4,1.4v3.5h-2.9Z" fill="#c7c7c7"/>
</svg>
