<?xml version="1.0" encoding="utf-8"?>
<!-- Generator: Adobe Illustrator 24.0.1, SVG Export Plug-In . SVG Version: 6.00 Build 0)  -->
<svg version="1.1" id="Layer_1" xmlns="http://www.w3.org/2000/svg" xmlns:xlink="http://www.w3.org/1999/xlink" x="0px" y="0px"
	 viewBox="0 0 1201.5 295.1" style="enable-background:new 0 0 1201.5 295.1;" xml:space="preserve">
<style type="text/css">
	.st0{fill:#FFFFFF;}
	.st1{display:none;}
	.st2{display:inline;opacity:0.4;fill:#5492CE;enable-background:new    ;}
</style>
<g id="Layer_1_1_">
	<g id="Ebene_2">
		<g id="Ebene_3">
			<path class="st0" d="M446.6,216.3c24.1,0,36.8-10.8,36.8-29.2c0-18.4-13-29.5-36.8-29.5h-47.2v58.6H446.6z M399.4,126.8h46.4
				c20.4,0,31.7-9.4,31.7-26.1S467,76.4,446,76.4h-46.7L399.4,126.8z M523.1,190.2c0,35.1-24.1,56.6-62.3,56.6H359.6V45.8h95.7
				c35.4,0,60.6,18.9,60.6,51.8c0.8,20-12,37.9-31.2,43.6c24.6,7.6,37.8,23.8,37.8,49"/>
			<rect x="548.7" y="45.8" class="st0" width="36.8" height="36.8"/>
			<rect x="548.7" y="102.1" class="st0" width="36.8" height="144.7"/>
			<path class="st0" d="M701.8,244.9c-10.5,3.6-21.5,5.4-32.6,5.4c-28.3,0-41.1-13.3-41.1-40.8v-79.3h-25.8v-27.8h25.8v-45H665v45
				h34.6v28.3H665v74.8c0,9.9,4.2,13.3,14.4,13.3c6.1-0.3,12.2-1.4,18.1-3.1L701.8,244.9z"/>
			<path class="st0" d="M811.5,216.3c24.1,0,36.8-10.8,36.8-29.2c0-18.4-13-29.5-36.8-29.5h-47.2v58.6H811.5z M764.3,126.8h46.5
				c20.4,0,31.7-9.4,31.7-26.1s-10.8-24.4-31.5-24.4h-46.7L764.3,126.8z M888.3,190.2c0,35.1-24.1,56.6-62.3,56.6H724.5V45.8h95.7
				c35.4,0,60.6,18.9,60.6,51.8c0.8,20-12,37.9-31.2,43.6c24.6,7.6,38.2,23.8,38.2,49"/>
			<path class="st0" d="M942.7,174.4c0,28.3,15,45.9,37.8,45.9s37.8-17.8,37.8-45.9c0-28-15-45.9-37.8-45.9S942.7,147.4,942.7,174.4
				 M1056,174.4c0,45.9-31.4,77-75.5,77c-44.1,0-75.5-31.2-75.5-77c0-45.9,31.4-77,75.5-77C1024.6,97.3,1056,128.5,1056,174.4"/>
			<polygon class="st0" points="1161.1,246.9 1128.5,197.3 1095.7,246.9 1056,246.9 1108.1,171 1060.8,102.1 1100.8,102.1 
				1129.1,144.6 1156.9,102.1 1196.4,102.1 1149.8,169.6 1201.5,246.9 			"/>
		</g>
	</g>
</g>
<g id="Layer_2_1_">
	<g>
		<polygon class="st0" points="0,223.2 0,154.6 55.4,130.7 55.4,24 110.4,0 110.4,175.2 		"/>
		<polygon class="st0" points="248.4,223.8 248.4,155.3 193,131.3 193,24.6 137.9,0.6 137.9,175.7 		"/>
		<polygon class="st0" points="124.4,199.2 14.2,247.4 124.3,295.1 234.8,247.1 		"/>
	</g>
</g>
<g id="Layer_3" class="st1">
	<rect x="-55.4" y="0.5" class="st2" width="681.6" height="45.3"/>
	<rect x="-55.4" y="246.9" class="st2" width="681.6" height="45.3"/>
</g>
</svg>
