<svg viewBox="0 0 180 44" fill="none" xmlns="http://www.w3.org/2000/svg">
<g clip-path="url(#clip0_3575_3429)">
<path d="M66.9055 32.2505C70.516 32.2505 72.4186 30.6402 72.4186 27.8967C72.4186 25.1532 70.4711 23.4982 66.9055 23.4982H59.8344V32.2356H66.9055V32.2505ZM59.8344 18.9059H66.7857C69.8419 18.9059 71.5347 17.5043 71.5347 15.0143C71.5347 12.5243 69.9617 11.3911 66.8156 11.3911H59.8194L59.8344 18.9059ZM78.3662 28.3589C78.3662 33.5924 74.7557 36.7981 69.0329 36.7981H53.8718V6.82861H68.2089C73.5123 6.82861 77.2876 9.64664 77.2876 14.5521C77.4074 17.5341 75.4898 20.2031 72.6134 21.0529C76.2988 22.1861 78.2763 24.6016 78.2763 28.3589" fill="black"/>
<path d="M66.9055 32.2505C70.516 32.2505 72.4186 30.6402 72.4186 27.8967C72.4186 25.1532 70.4711 23.4982 66.9055 23.4982H59.8344V32.2356H66.9055V32.2505ZM59.8344 18.9059H66.7857C69.8419 18.9059 71.5347 17.5043 71.5347 15.0143C71.5347 12.5243 69.9617 11.3911 66.8156 11.3911H59.8194L59.8344 18.9059ZM78.3662 28.3589C78.3662 33.5924 74.7557 36.7981 69.0329 36.7981H53.8718V6.82861H68.2089C73.5123 6.82861 77.2876 9.64664 77.2876 14.5521C77.4074 17.5341 75.4898 20.2031 72.6134 21.0529C76.2988 22.1861 78.2763 24.6016 78.2763 28.3589" fill="#B8B8B8"/>
<path d="M87.7143 6.82861H82.2012V12.3156H87.7143V6.82861Z" fill="black"/>
<path d="M87.7143 6.82861H82.2012V12.3156H87.7143V6.82861Z" fill="#B8B8B8"/>
<path d="M87.7143 15.2231H82.2012V36.7982H87.7143V15.2231Z" fill="black"/>
<path d="M87.7143 15.2231H82.2012V36.7982H87.7143V15.2231Z" fill="#B8B8B8"/>
<path d="M105.382 36.856C103.809 37.3928 102.161 37.6612 100.498 37.6612C96.2586 37.6612 94.341 35.6781 94.341 31.5778V19.754H90.4758V15.609H94.341V8.89941H99.8691V15.609H105.053V19.8286H99.8691V30.9814C99.8691 32.4575 100.498 32.9645 102.026 32.9645C102.94 32.9198 103.854 32.7557 104.738 32.5023L105.382 36.856Z" fill="black"/>
<path d="M105.382 36.856C103.809 37.3928 102.161 37.6612 100.498 37.6612C96.2586 37.6612 94.341 35.6781 94.341 31.5778V19.754H90.4758V15.609H94.341V8.89941H99.8691V15.609H105.053V19.8286H99.8691V30.9814C99.8691 32.4575 100.498 32.9645 102.026 32.9645C102.94 32.9198 103.854 32.7557 104.738 32.5023L105.382 36.856Z" fill="#B8B8B8"/>
<path d="M121.572 32.2505C125.183 32.2505 127.085 30.6402 127.085 27.8967C127.085 25.1532 125.138 23.4982 121.572 23.4982H114.501V32.2356H121.572V32.2505ZM114.501 18.9059H121.467C124.523 18.9059 126.216 17.5043 126.216 15.0143C126.216 12.5243 124.598 11.3762 121.497 11.3762H114.501V18.9059ZM133.078 28.3589C133.078 33.5924 129.467 36.7981 123.744 36.7981H108.538V6.82861H122.875C128.179 6.82861 131.954 9.64664 131.954 14.5521C132.074 17.5341 130.156 20.2031 127.28 21.0529C130.965 22.1861 133.003 24.6016 133.003 28.3589" fill="black"/>
<path d="M121.572 32.2505C125.183 32.2505 127.085 30.6402 127.085 27.8967C127.085 25.1532 125.138 23.4982 121.572 23.4982H114.501V32.2356H121.572V32.2505ZM114.501 18.9059H121.467C124.523 18.9059 126.216 17.5043 126.216 15.0143C126.216 12.5243 124.598 11.3762 121.497 11.3762H114.501V18.9059ZM133.078 28.3589C133.078 33.5924 129.467 36.7981 123.744 36.7981H108.538V6.82861H122.875C128.179 6.82861 131.954 9.64664 131.954 14.5521C132.074 17.5341 130.156 20.2031 127.28 21.0529C130.965 22.1861 133.003 24.6016 133.003 28.3589" fill="#B8B8B8"/>
<path d="M141.228 26.0038C141.228 30.2234 143.475 32.8476 146.891 32.8476C150.307 32.8476 152.554 30.1936 152.554 26.0038C152.554 21.829 150.307 19.1601 146.891 19.1601C143.475 19.1601 141.228 21.9781 141.228 26.0038ZM158.202 26.0038C158.202 32.8476 153.498 37.4847 146.891 37.4847C140.284 37.4847 135.58 32.8327 135.58 26.0038C135.58 19.1601 140.284 14.523 146.891 14.523C153.498 14.5081 158.202 19.1601 158.202 26.0038Z" fill="black"/>
<path d="M141.228 26.0038C141.228 30.2234 143.475 32.8476 146.891 32.8476C150.307 32.8476 152.554 30.1936 152.554 26.0038C152.554 21.829 150.307 19.1601 146.891 19.1601C143.475 19.1601 141.228 21.9781 141.228 26.0038ZM158.202 26.0038C158.202 32.8476 153.498 37.4847 146.891 37.4847C140.284 37.4847 135.58 32.8327 135.58 26.0038C135.58 19.1601 140.284 14.523 146.891 14.523C153.498 14.5081 158.202 19.1601 158.202 26.0038Z" fill="#B8B8B8"/>
<path d="M173.947 36.8131L169.063 29.4177L164.149 36.8131H158.202L166.007 25.4963L158.921 15.2231H164.913L169.153 21.56L173.318 15.2231H179.235L172.254 25.2875L179.999 36.8131H173.947Z" fill="black"/>
<path d="M173.947 36.8131L169.063 29.4177L164.149 36.8131H158.202L166.007 25.4963L158.921 15.2231H164.913L169.153 21.56L173.318 15.2231H179.235L172.254 25.2875L179.999 36.8131H173.947Z" fill="#B8B8B8"/>
<path d="M0 33.2796V23.0512L8.29962 19.4876V3.57845L16.5393 0V26.1227L0 33.2796Z" fill="black"/>
<path d="M0 33.2796V23.0512L8.29962 19.4876V3.57845L16.5393 0V26.1227L0 33.2796Z" fill="#B8B8B8"/>
<path d="M37.2135 33.3684V23.1549L28.9139 19.5765V3.66732L20.6592 0.0888672V26.1966L37.2135 33.3684Z" fill="black"/>
<path d="M37.2135 33.3684V23.1549L28.9139 19.5765V3.66732L20.6592 0.0888672V26.1966L37.2135 33.3684Z" fill="#B8B8B8"/>
<path d="M18.6366 29.7012L2.1272 36.8879L18.6216 44.0001L35.1759 36.8432L18.6366 29.7012Z" fill="black"/>
<path d="M18.6366 29.7012L2.1272 36.8879L18.6216 44.0001L35.1759 36.8432L18.6366 29.7012Z" fill="#B8B8B8"/>
</g>
<defs>
<clipPath id="clip0_3575_3429">
<rect width="180" height="44" fill="white"/>
</clipPath>
</defs>
</svg>
