<?xml version="1.0" encoding="UTF-8"?>
<svg id="Layer_1" xmlns="http://www.w3.org/2000/svg" version="1.1" viewBox="0 0 108 25.63">
  <!-- Generator: Adobe Illustrator 29.6.1, SVG Export Plug-In . SVG Version: 2.1.1 Build 9)  -->
  <path d="M5.98,3.1h2.69c-.01,3.72.08,7.43.04,11.15.07.68.96.7,1.07.04,0-3.71,0-7.42-.04-11.12l.09-.06c1.99.12,4.19.62,5.27,2.45.63,1.08.84,2.64.59,3.85-.34,1.64-1.6,3.14-3.26,3.52l-.04.13s.06.05.11.06c.33.09.69.14,1.03.25,3.07.98,3.92,3.96,3.1,6.88s-4.01,3.89-6.8,4.14c-.02-1.06.02-2.12,0-3.18,0-.1-.04-.19-.05-.29-.01-.51.07-1.28,0-1.75-.08-.51-.99-.55-1.06.17-.12,1.14.02,2.71.04,3.88,0,.3.03.75,0,1.03,0,.06,0,.11-.07.15h-2.75l-.04-10.72c-.15-1.2-1.8-1.24-2-.04.05,3.48-.07,6.97,0,10.45,0,.12.08.25-.02.32h-1.15c-.08,0-.34-.09-.43-.12-.5-.2-.65-.68-.7-1.18V4.44c.04-.5.16-.99.67-1.21.07-.03.41-.13.46-.13h1.92l.06.06v7.76s.09.2.11.23c.24.36.85.35,1.08-.03.02-.03.09-.2.09-.21V3.1Z" fill="#c7c7c7"/>
  <path d="M95.04,19.88h-3.18v-5.45c0-.52-.91-1.07-1.43-1.03-.61.04-1.47.87-1.47,1.45v5.04h-3.18v-5.45c0-.52-.91-1.07-1.43-1.03-.61.04-1.47.87-1.47,1.45v5.04h-3.18v-8.98h3.04l.07.83c1.63-1.42,4.17-1.3,5.53.41,1.54-1.91,5.09-1.95,6.24.39.12.25.45,1.13.45,1.34v6.01Z" fill="#c7c7c7"/>
  <path d="M61.89,19.88h-3.18v-5.45c0-.52-.91-1.07-1.43-1.03-.61.04-1.47.87-1.47,1.45v5.04h-3.18v-5.45c0-.51-.91-1.07-1.43-1.03-.67.05-1.47.8-1.47,1.45v5.04h-3.18v-8.98h3.04l.07.83c1.63-1.42,4.17-1.3,5.53.41,1.54-1.91,5.09-1.95,6.24.39.12.25.45,1.13.45,1.34v6.01Z" fill="#c7c7c7"/>
  <path d="M25.56,7.59v4c3.36-2.21,7.19.23,6.91,4.22-.25,3.61-4.2,5.51-7.05,3.24v.83h-3.04V7.59h3.18ZM27.04,13.29c-2.06.33-2.01,3.9,0,4.22,2.99.47,2.99-4.69,0-4.22Z" fill="#c7c7c7"/>
  <path d="M67.8,10.81c3.19-.32,6.08,1.54,5.83,5-.41,5.7-10.09,5.6-10.23-.27-.06-2.63,1.85-4.47,4.4-4.73ZM68.07,13.29c-2.26.46-1.89,4.63.79,4.24,2.43-.36,2.01-4.82-.79-4.24Z" fill="#c7c7c7"/>
  <path d="M106.37,16.15h-6.49c.38,1.86,2.99,1.75,4.19.7l1.57,1.72c-2.63,2.77-8.59,1.55-8.95-2.62-.61-7.03,10.54-6.85,9.67.2ZM103.47,14.5c-.5-1.99-3.3-2.05-3.73,0h3.73Z" fill="#c7c7c7"/>
  <path d="M42.69,8.84v2.35h2.07v2.35h-2.07v3.52c0,.58,1.52.53,1.93.35l.69,2.2c-1.62.71-4.38.65-5.36-1.05-.08-.15-.43-1.13-.43-1.22v-3.8h-1.24v-2.35h1.24v-2.35h3.18Z" fill="#c7c7c7"/>
  <rect x="33.99" y="10.91" width="3.18" height="8.98" fill="#c7c7c7"/>
  <path d="M75.94,16.33c2.77-.45,3.03,3.43.64,3.69-2.53.27-2.88-3.32-.64-3.69Z" fill="#c7c7c7"/>
  <path d="M35.05,6.66c3.34-.62,3.26,3.75.14,3.25-1.96-.32-1.94-2.92-.14-3.25Z" fill="#c7c7c7"/>
</svg>