<?xml version="1.0" encoding="UTF-8"?>
<svg id="Layer_2" xmlns="http://www.w3.org/2000/svg" version="1.1" viewBox="0 0 1218.9 326">
  <!-- Generator: Adobe Illustrator 29.6.1, SVG Export Plug-In . SVG Version: 2.1.1 Build 9)  -->
  <g id="Layer_1-2">
    <g>
      <g>
        <path d="M649,236.3c.7-12.8-1.1-28.7.9-44.4,4.7-37.7,37.1-70.2,74.9-75.3,49.5-6.6,92.3,24,101.8,72.9,1,5.4,1.4,10.9,1.4,16.4,0,24.1,0,48.3,0,72.5,0,13.9-11.9,22.7-24.2,18.2-7.3-2.6-11.6-9.3-11.6-18,0-24.1,0-48.3,0-72.5,0-28.1-20.5-51.8-47-54.4-29.4-2.9-54,15.1-59.7,43.9-.8,3.9-.9,7.9-.9,11.9,0,24,0,48,0,72,0,9.7-6.7,17.2-15.8,18.1-9,.9-17.4-5-19.2-13.8-.6-2.7-.4-5.6-.4-8.5,0-12,0-24,0-38.9h0Z" fill="#c7c7c7"/>
        <path d="M607.5,218.7v59.9c0,10.9-6.8,18.6-16.4,18.7-9.8.2-17-7.7-17.1-18.7-.2-31.8-.3-63.6-.5-95.4,0-9-.4-18-.2-26.9,0-3.6-1.3-4-4.3-3.9-9,.2-18,.1-27,0-10.9,0-18.7-7.2-18.8-17.2-.1-10.1,7.8-17.5,18.9-17.5,9,0,18-.2,27,0,3.4,0,4.1-1.1,4-4.2-.3-22.3-.5-44.6-.5-66.9,0-11.9,9.1-19.4,20.4-17.2,7.7,1.5,13,8.2,13.1,16.6.1,14.5,0,29,.2,43.4,0,8.2.4,16.3.2,24.5,0,3.3,1.1,3.8,4,3.8,8.8-.2,17.7,0,26.5,0,10.5,0,18,7.2,18.1,17.2,0,9.9-7.5,17.3-17.9,17.4-8.8.1-17.7.2-26.5,0-3.2,0-3.8.9-3.8,3.9.1,20.8,0,41.6,0,62.4h.7,0Z" fill="#c7c7c7"/>
        <path d="M510,207.7c0,23.1,0,46.3,0,69.4,0,14.4-13.6,23.2-25.9,17-6.5-3.3-9.8-8.9-9.9-16.1,0-46.9-.1-93.9,0-140.8,0-10.5,7.9-18.1,18-18,10.2,0,17.7,7.6,17.8,18.2.1,23.5,0,46.9,0,70.4h0Z" fill="#c7c7c7"/>
        <path d="M494.5,50.5c10,0,17.6,7.7,17.6,17.7s-7.8,17.7-17.7,17.8c-10.1,0-18.2-8.1-18-18,.2-10,8-17.5,18-17.4Z" fill="#c7c7c7"/>
        <path d="M1217.9,190.6c-9.3-56.3-67.4-89.5-120.5-68.9-7.4,2.9-14.2,6.9-21.3,11.7V48.8c0-2.3,0-4.6-.7-6.9-2.8-8.4-11-13.5-19.9-12.1-8.5,1.3-14.7,8.5-14.7,17.5,0,50.3,0,100.6,0,150.9,0,7.7,0,15.3,1.5,22.9,7.6,41.1,44,72.3,84.7,72.7,44.8.5,81-28,90.3-70.8.3-1.5-.2-3.4,1.7-4.3v-26c-1.1-.3-.9-1.2-1-2h0ZM1129.8,258.6c-28,0-52.3-21.9-53.6-50.7-1.5-34.6,25.5-57,53.8-57,29.8,0,53.8,24.5,53.7,54.2,0,29.3-24.5,53.5-53.9,53.5Z" fill="#c7c7c7"/>
        <path d="M454.2,195.6c-5-53.6-58.5-91-110.6-77.2-11.2,3-21.4,7.8-31.6,15v-6.5c0-26.3,0-52.6,0-78.9,0-9-4-15.4-11.3-18.2-12.4-4.9-24.5,4.1-24.5,18.2,0,47.8,0,95.6,0,143.4,0,7.1,0,14.3.6,21.4,3.2,41.6,37.7,76.7,79.4,80.7,56.9,5.4,103.2-40.8,97.9-97.8h0ZM365.7,258.6c-28.8,0-53-23.9-53.9-51.5-.9-28.8,21.4-55.7,53.8-56.2,29.3-.4,54.3,24.9,54,54.1-.3,29.6-24.4,53.6-53.8,53.6h0Z" fill="#c7c7c7"/>
        <path d="M936.2,114.5c-50.2,0-91.3,40.5-91.3,90.2,0,50.9,40.3,91.8,90.8,91.8,50.3,0,91.3-40.7,91.3-90.8,0-50.5-40.4-91.2-90.8-91.3h0ZM937.3,260.7c-31.6.2-56.5-23.9-56.8-55.2-.3-29.8,24.7-55.2,54.6-55.4,31-.3,56.2,24.4,56.3,55.2.1,29.9-24.5,55.1-54.1,55.4h0Z" fill="#c7c7c7"/>
      </g>
      <g>
        <path d="M206.1,244.6c-4.6-10.1-11.7-18-20.8-24.4,1-.8,1.9-1.5,2.8-2.2,18.6-14.7,26.4-34,21.8-57.1-4.6-23.4-19.4-38.9-42.7-44.4-23.9-5.7-44.1,1.9-59.4,21.3-1.8,2.3-2.4,2.6-4.3,0-9.2-12.2-21.3-19.8-36.5-22.3-.8-.1-1.8,0-2.2-1.1.9-.1,1.9-.2,2.7-.4,26.5-4.8,46.2-27.3,47.2-54,1.1-27.3-16.6-51.2-42.9-58.1C69.1,1.3,66,1.5,63.3,0h-.7C59.4.6,56.3.6,53.1,0h-.7c-2.7.7-5.6.3-8.3,1C25.3,5.8,12,17.1,4.1,34.7c-2.4,5.4-3.5,11.1-4.1,17v1.4c.6,3.2.6,6.3,0,9.5v1.4c.8,2.7.5,5.6,1.2,8.3,6.2,21.7,20.4,35.6,42,41.8,1.4.4,2.8.9,3.9.8-16.3,3.1-29.5,11.7-38.7,26.1C3.5,148.6.6,157,0,166.1v1.4c.6,3.2.6,6.4,0,9.5v1.4c.8,3.4.6,6.9,1.7,10.3,4.1,13.1,11.6,23.7,23,31.6-2.6,2.1-5.3,3.9-7.6,6.3C7.4,236.3,1.1,248,0,262v1.4c.6,3.2.6,6.4,0,9.5v1.4c.2.2.3.4.3.6,1.1,16.8,9.4,29.7,22.2,39.8,8.7,6.9,18.7,10.7,29.9,11.3h2c2-.5,4.1-.5,6.1,0h2c3.6-.8,7.4-.6,11-1.7,12.2-3.6,22.3-10.4,30.2-20.4,2-2.6,2.1-2.6,4.1.1,4.2,5.7,9.7,10.1,15.6,13.9,7.6,4.8,16,7.3,24.9,8h2c2-.5,4.1-.5,6.1,0h2c.4-1,1.3-.6,2-.7,38.5-4.7,61.4-45.4,45.5-80.7h0ZM105.4,236.9c-4-6.5-9.2-12.1-16.3-16.3,11.6-7.5,16.3-17,16.3-17,4.8,6.8,10.5,12.3,17,16.3-6.9,4.3-12.4,10.1-17,17Z" fill="#c7c7c7"/>
        <path d="M0,53.1c1.1,3.2,1.1,6.3,0,9.5v-9.5Z" fill="#c7c7c7"/>
        <path d="M0,167.4c1.1,3.2,1.1,6.4,0,9.5v-9.5Z" fill="#c7c7c7"/>
        <path d="M62.6,0c-3.2,1.1-6.4,1.1-9.5,0h9.5Z" fill="#c7c7c7"/>
        <path d="M0,263.4c1.1,3.2,1.1,6.4,0,9.5v-9.5Z" fill="#c7c7c7"/>
        <path d="M54.5,326c2-1.1,4.1-1.1,6.1,0h-6.1Z" fill="#c7c7c7"/>
        <path d="M150.5,326c2-1.1,4.1-1.1,6.1,0h-6.1Z" fill="#c7c7c7"/>
        <path d="M49.7,228.7c-7.7-.3-14.3-3.6-20.9-7.1-1.9-1-1.3-2.2.2-2.9,5.6-2.9,11.3-5.7,17.7-6.3,1.2-.1,2.4-.4,3.6-.7,1.2-.8,2.8.2,4.1-.7h6.8c1,.8,2.4-.1,3.4.7,8.1.4,15.2,3.6,22.2,7.4,1.9,1.1,1.2,1.6-.2,2.4-8.6,5.1-17.8,7.9-27.8,7.9h-5.8c-1-.8-2.4.1-3.4-.7h0Z" fill="#c7c7c7"/>
        <path d="M150.5,211h6.8c1,.8,2.4-.1,3.4.7,8.5,1,16.5,3.2,23.6,8.4-15.4,12.2-45,12.7-60.8,0,7.1-5.1,15.1-7.4,23.6-8.4,1-.8,2.4.1,3.4-.7h0Z" fill="#c7c7c7"/>
        <path d="M114.4,179c-.4,8.2-3.7,15.6-7.6,22.6-1.3,2.3-2.1-.1-2.7-1-3.3-5.7-5.6-11.8-6.6-18.4-1.6-10.1-.9-20,2.6-29.7,1.2-3.2,2.8-6.2,4.4-9.2.6-1.2,1.5-2.1,2.6-.1,4,6.9,6.8,14.2,7.4,22.3.9,1.5-.2,3.3.7,4.7v4.1c-.9,1.5.2,3.3-.7,4.8h0Z" fill="#c7c7c7"/>
        <path d="M114.4,275c-.6,7.7-3.1,14.7-6.8,21.4-1.4,2.6-2.3,2.5-3.7,0-6.1-11.1-8.3-22.9-6.7-35.5,1-8,3.4-15.3,7.7-22.1.2-.3.3-.6.7-1.2,5,7.9,8.2,15.7,8.7,24.6.8,1.3-.2,2.8.7,4.1v4.1c-.9,1.5.2,3.2-.7,4.7h0Z" fill="#c7c7c7"/>
        <path d="M115.1,170.1c-1.3-1.4-.4-3.2-.7-4.7,1.3,1.4.4,3.2.7,4.7Z" fill="#c7c7c7"/>
        <path d="M114.4,179c.2-1.6-.6-3.3.7-4.8-.2,1.6.6,3.3-.7,4.8Z" fill="#c7c7c7"/>
        <path d="M114.4,275c.2-1.6-.6-3.3.7-4.7-.2,1.6.6,3.3-.7,4.7Z" fill="#c7c7c7"/>
        <path d="M54.5,211c-1.2,1.2-2.7.5-4.1.7,1.2-1.2,2.7-.5,4.1-.7Z" fill="#c7c7c7"/>
        <path d="M115.1,266.1c-1.2-1.2-.4-2.7-.7-4.1,1.2,1.2.5,2.7.7,4.1Z" fill="#c7c7c7"/>
        <path d="M61.9,115c-.6,0-1.8,0-1.8-.2,0-.8.7-.4,1-.4.3,0,.6.1.9.2,0,.2,0,.3-.2.4h0Z" fill="#c7c7c7"/>
        <path d="M64.7,211.7c-1.2-.2-2.4.5-3.4-.7,1.2.2,2.5-.5,3.4.7Z" fill="#c7c7c7"/>
        <path d="M150.5,211c-.9,1.1-2.3.5-3.4.7.9-1.1,2.2-.5,3.4-.7Z" fill="#c7c7c7"/>
        <path d="M160.7,211.7c-1.1-.2-2.4.5-3.4-.7,1.1.1,2.4-.5,3.4.7Z" fill="#c7c7c7"/>
        <path d="M49.7,228.7c1.1.2,2.4-.5,3.4.7-1.1-.1-2.4.5-3.4-.7Z" fill="#c7c7c7"/>
      </g>
    </g>
  </g>
</svg>