<?xml version="1.0" encoding="UTF-8"?>
<svg id="Layer_1" xmlns="http://www.w3.org/2000/svg" version="1.1" viewBox="0 0 108 29">
  <!-- Generator: Adobe Illustrator 29.6.1, SVG Export Plug-In . SVG Version: 2.1.1 Build 9)  -->
  <path d="M14.19.77l-.69,4h2.06l.69-4h2.52l-.69,4.12c2.79.28,5.69,1.09,5.36,4.5-.17,1.73-1.23,3.34-2.85,4.02,3.21.82,3.4,3.58,2.29,6.29-1.38,3.38-4.92,4.15-8.24,4.29l-.69,4.23h-2.52l.69-4.12c-.4,0-.8.01-1.2,0-.27,0-.71-.3-.84.08l-.71,4.04h-2.52l.69-4.23H2.53v-.23l1.02-2.81c1.03-.27,2.51.47,2.92-.85l2-11.39c.11-.41-.49-1.08-.86-1.08h-2.23l.47-2.73h5.13s.69-4.13.69-4.13h2.52ZM12.25,12.78h2.8c.26,0,1.24-.29,1.54-.4,2.1-.78,2.92-3.49.4-4.28-1.2-.38-2.72-.25-3.95-.16l-.79,4.85ZM10.76,20.91h3.26c1.61,0,4.14-1.06,4.29-2.92.25-3.03-4.74-2.56-6.63-2.57l-.92,5.49Z" fill="#c7c7c7"/>
  <polygon points="105.47 9.24 105.47 12.44 100.78 12.44 100.78 23.77 97.24 23.77 97.24 12.44 92.43 12.44 92.43 9.24 105.47 9.24" fill="#c7c7c7"/>
  <path d="M75.73,8.78l-4.04,3.87c-4-2.82-9.99,2.05-6.76,6.3,3.47,4.56,10.71.71,8.3-4.71l2.46-2.36c.17-.03,1.7,1.66,1.93,1.94.28.34,1.34,1.57,1.46,1.86s.13.75.09,1.06c-.15,1.21-3.68,4.53-4.77,5.29-1.01.72-3.33,1.97-4.55,1.97h-8.86l2.17-2.12c-1.07-.96-2.16-1.88-3.08-2.98-1.8-2.14-2.03-2.45-.23-4.68,2.67-3.31,6.61-6.23,11.09-5.15.27.06,1.33.51,1.41.5.18-.03.73-.78.82-.78h2.57Z" fill="#c7c7c7"/>
  <path d="M89.91,13.81c-1.62-1.13-3.92-2.26-5.91-1.51-1.18.45-1.23,1.54-.03,2.02,2.83,1.14,8.24.08,8.11,5.02s-6.65,5.25-10.06,3.91c-.46-.18-2.64-1.33-2.81-1.65-.09-.17-.01-.17.06-.29.54-.86,1.35-1.59,1.89-2.46,1.62,1.5,4.29,2.64,6.46,1.77,1.09-.44,1.25-1.56.2-2.14-2.29-1.25-7.48-.05-8.06-4.07-.94-6.5,8.54-6.4,11.97-3.29l-1.83,2.69Z" fill="#c7c7c7"/>
  <path d="M53.26,9.24c5.98.63,5.51,9.38-.46,9.38h-3.49v5.15h-3.55v-14.53h7.49ZM49.31,15.53h3.49s.5-.28.57-.34c.78-.67.69-2-.18-2.57-.09-.06-.58-.29-.62-.29h-3.26v3.2Z" fill="#c7c7c7"/>
  <polygon points="44.28 9.24 44.28 12.44 39.59 12.44 39.59 23.59 39.42 23.77 35.93 23.77 35.93 12.44 31.24 12.44 31.24 9.24 44.28 9.24" fill="#c7c7c7"/>
  <polygon points="29.75 9.24 29.75 23.77 26.26 23.77 26.09 23.59 26.09 9.24 29.75 9.24" fill="#c7c7c7"/>
  <path d="M72.3,15.19c1.44,5.59-7.43,6.3-6.92.69l1.26.33,2.17,2.07c.19,0,2.32-2.26,2.69-2.57.11-.1.71-.59.8-.51Z" fill="#c7c7c7"/>
  <path d="M69.73,13.01c.13.02,1.08.42,1.08.51l-2,1.87-.6-.62c.16-.56-.02-1.21-.48-1.59-.02-.03.27-.17.29-.17.5,0,1.26-.07,1.72,0Z" fill="#c7c7c7"/>
</svg>