<?xml version="1.0" encoding="UTF-8"?>
<svg id="Layer_1" xmlns="http://www.w3.org/2000/svg" version="1.1" viewBox="0 0 223.4 44">
  <!-- Generator: Adobe Illustrator 29.6.1, SVG Export Plug-In . SVG Version: 2.1.1 Build 9)  -->
  <path d="M76.7,24.7c0,4.3-3.4,5.6-8.2,5.6h-5.8V10.8h5.1c5,0,8.1,1.4,8.1,5s-1.7,3.8-3.6,4.2c2.2.4,4.4,1.5,4.4,4.7ZM66.5,18.8h2.3c2,0,3.3-.9,3.3-2.7s-1.4-2.5-3.9-2.5h-1.7v5.3ZM72.9,24.5c0-2.3-1.7-3.1-3.8-3.1h-2.6v6.1h2.2c2.5,0,4.2-.5,4.2-3h0Z" fill="#b8b8b8"/>
  <path d="M84.2,27.8c.3,0,.6,0,.8-.1l.7,2.5c-.8.3-1.7.5-2.6.5-2.2,0-3.5-1.3-3.5-3.8V9.4l3.6-.4v17.6c0,.8.3,1.2.9,1.2Z" fill="#b8b8b8"/>
  <path d="M101.4,22.8c0,4.7-2.6,7.9-7,7.9s-7-3-7-7.9,2.6-7.9,7-7.9,7,3,7,7.9ZM91.2,22.8c0,3.6,1.1,5.1,3.2,5.1s3.2-1.6,3.2-5.1-1.1-5.1-3.2-5.1-3.3,1.6-3.3,5.1h0Z" fill="#b8b8b8"/>
  <path d="M115.1,16.7l-1.6,2.2c-.8-.7-1.9-1.1-3-1.1-2.1,0-3.4,1.5-3.4,5.1s1.3,4.9,3.4,4.9c1.1,0,2.1-.4,3-1.2l1.7,2.3c-1.4,1.1-3.1,1.7-4.8,1.7-4.3,0-7-3-7-7.7s2.7-8,7-8c1.8,0,3.5.6,4.8,1.8Z" fill="#b8b8b8"/>
  <path d="M117.6,30.3V9.4l3.6-.4v21.3h-3.6ZM130.6,30.3h-4.1l-5.1-8.2,5-6.8h3.8l-5,6.6,5.5,8.3Z" fill="#b8b8b8"/>
  <path d="M143.3,16.7l-1.4,2.2c-1.1-.8-2.3-1.2-3.7-1.3-1.5,0-2.3.6-2.3,1.5s.6,1.4,3.1,2.1c3,.8,4.8,2.1,4.8,4.7s-2.9,4.7-6.3,4.7c-2.2,0-4.3-.7-5.9-2.1l1.8-2.1c1.1.9,2.5,1.5,4,1.5,1.6,0,2.7-.7,2.7-1.7s-.6-1.7-3.4-2.5c-3.1-.8-4.4-2.3-4.4-4.5s2.3-4.3,5.8-4.3c1.9,0,3.8.6,5.3,1.8Z" fill="#b8b8b8"/>
  <path d="M152,30.7c-2.9,0-4.5-1.7-4.5-4.9v-7.9h-2.3v-2.6h2.3v-3.3l3.6-.4v3.7h3.5l-.4,2.6h-3.1v7.8c0,1.5.5,2.1,1.6,2.1.6,0,1.2-.2,1.7-.6l1.3,2.3c-1.1.8-2.4,1.2-3.7,1.2Z" fill="#b8b8b8"/>
  <path d="M166.8,15.2l-.6,3.5c-.4-.1-.9-.2-1.3-.2-1.8,0-2.7,1.3-3.3,3.8v7.9h-3.6v-14.9h3.1l.3,2.9c.7-2.1,2.1-3.3,3.9-3.3.5,0,1,0,1.5.2Z" fill="#b8b8b8"/>
  <path d="M181,23.9h-9.3c.3,3,1.7,4,3.7,4,1.4,0,2.6-.5,3.7-1.3l1.5,2.1c-1.5,1.3-3.5,2-5.5,2-4.6,0-7.1-3.1-7.1-7.8s2.4-8,6.6-8,6.6,2.8,6.6,7.5c0,.5,0,1.1-.1,1.5ZM177.6,21.5c0-2.4-.9-3.9-2.9-3.9s-2.8,1.1-2.9,4.1h5.9v-.2h0Z" fill="#b8b8b8"/>
  <path d="M196.5,28.3l-.8,2.4c-1.6-.1-2.7-.7-3.3-2.2-1,1.5-2.7,2.3-4.5,2.2-3,0-4.8-1.9-4.8-4.6s2.4-5,6.8-5h1.9v-.8c0-2-.9-2.6-2.8-2.6-1.3,0-2.7.3-3.9.8l-.8-2.5c1.7-.7,3.6-1,5.4-1.1,4,0,5.7,1.8,5.7,5.1v6.3c0,1.2.4,1.6,1.1,1.9ZM191.9,26.3v-3h-1.5c-2.3,0-3.5.8-3.5,2.6s.7,2.3,2.1,2.3c1.2,0,2.4-.7,2.9-1.8h0Z" fill="#b8b8b8"/>
  <path d="M219.3,19.5v10.8h-3.6v-10.2c0-1.9-.7-2.4-1.6-2.4s-2,.9-2.8,2.3v10.4h-3.6v-10.2c0-1.9-.8-2.4-1.6-2.4-1.3,0-2,.9-2.9,2.3v10.4h-3.6v-14.9h3.1l.3,2c.9-1.5,2.6-2.4,4.3-2.3,1.6,0,3.1,1,3.6,2.5,1.1-1.5,2.5-2.5,4.5-2.5,2.4,0,4,1.7,4,4.5Z" fill="#b8b8b8"/>
  <path d="M39.7,13.5c.8,1.1,1.5,2.4,1.9,3.7l1.7-.6c-.5-1.5-1.3-2.9-2.2-4.2l-1.4,1.1Z" fill="#b8b8b8"/>
  <path d="M27.9,5.4c-.5,0-.9,0-1.4,0v1.8c.8,0,1.5,0,2.2,0,.7,0,1.4.2,2.1.3l.5-1.7c-.8-.2-1.6-.3-2.3-.4-.3,0-.7,0-1,0Z" fill="#b8b8b8"/>
  <path d="M11,30.4c-.7-1.5-1.2-3-1.5-4.6l-1.9.3c.3,1.8.9,3.6,1.7,5.2l1.7-.9Z" fill="#b8b8b8"/>
  <path d="M10,12.2l1.7.9c.8-1.4,1.9-2.7,3-3.8l-1.3-1.4c-1.3,1.3-2.5,2.7-3.4,4.3Z" fill="#b8b8b8"/>
  <path d="M7.6,18.4l1.9.3c.3-1.6.9-3.2,1.6-4.6l-1.7-.9c-.9,1.6-1.5,3.4-1.8,5.2Z" fill="#b8b8b8"/>
  <path d="M19.9,3.8l.8,1.8c1.5-.6,3.1-1,4.8-1.1v-1.9c-2,.2-3.8.6-5.5,1.3Z" fill="#b8b8b8"/>
  <path d="M14.3,7.2l1.3,1.4c1.2-1.1,2.6-1.9,4.1-2.6l-.8-1.8c-1.7.8-3.3,1.8-4.7,3Z" fill="#b8b8b8"/>
  <path d="M42.6,35.3l-1.5-1.2c-1.1,1.2-2.3,2.3-3.6,3.3l1,1.6c1.5-1,2.9-2.3,4.1-3.7Z" fill="#b8b8b8"/>
  <path d="M19.3,38.7c-1.5-.7-2.8-1.6-4.1-2.7l-1.3,1.4c1.4,1.2,2.9,2.3,4.6,3.1l.8-1.7Z" fill="#b8b8b8"/>
  <path d="M47.2,24.3c.2-2.6,0-5.2-.8-7.7l-1.8.6c1,3.5,1,7.3-.1,10.7l1.8.6c.5-1.4.8-2.9.9-4.3Z" fill="#b8b8b8"/>
  <path d="M36.1,37l-1-1.5c-1.2.7-2.5,1.3-3.8,1.6l.4,1.8c1.5-.4,3-1.1,4.4-1.9Z" fill="#b8b8b8"/>
  <path d="M12.4,24.3c-.1-1.1-.2-2.3,0-3.4,0-.3,0-.5,0-.8l-1.8-.3c0,.3,0,.6-.1.9-.1,1.3-.1,2.6,0,3.8l1.8-.3Z" fill="#b8b8b8"/>
  <path d="M32.4,5c1.6.5,3.1,1.1,4.5,2l1.1-1.6c-1.6-1-3.3-1.7-5-2.3l-.5,1.9Z" fill="#b8b8b8"/>
  <path d="M24.6,42.3l.2-1.9c-1.5-.2-3.1-.6-4.5-1.2l-.8,1.8c1.6.7,3.4,1.1,5.1,1.4Z" fill="#b8b8b8"/>
  <path d="M15.3,34.5l1.2-1.3c-1-1-1.8-2.1-2.5-3.3l-1.6.8c.8,1.4,1.8,2.6,2.9,3.8Z" fill="#b8b8b8"/>
  <path d="M38.9,6l-1.1,1.6c1.3.9,2.5,2.1,3.6,3.4l1.5-1.2c-1.2-1.4-2.5-2.7-4-3.8Z" fill="#b8b8b8"/>
  <path d="M40.7,32.6c.9-1.3,1.7-2.7,2.3-4.2l-1.7-.6c-.5,1.3-1.2,2.5-2,3.6l1.4,1.1Z" fill="#b8b8b8"/>
  <path d="M42.1,18.1l-1.7.6c.5,1.6.6,3.4.5,5,0,.9-.3,1.9-.5,2.8l1.7.6c.3-1,.5-2.1.6-3.2.2-1.9,0-3.9-.6-5.8Z" fill="#b8b8b8"/>
  <path d="M25.1,37.7l.2-1.8c-1.1-.2-2.1-.4-3.1-.8l-.7,1.6c1.2.5,2.4.8,3.7,1Z" fill="#b8b8b8"/>
  <path d="M37.5,18.6l1.6-.5c-.4-1-.9-2-1.5-2.9l-1.4,1c.5.8.9,1.6,1.3,2.4Z" fill="#b8b8b8"/>
  <path d="M27.7,9.8h-.9v1.7c1,0,1.9,0,2.8.3l.4-1.6c-.5-.1-1.1-.2-1.6-.3-.2,0-.5,0-.8,0Z" fill="#b8b8b8"/>
  <path d="M14,14.4l1.6.9c.6-1,1.3-1.9,2.1-2.7l-1.2-1.3c-1,.9-1.8,2-2.5,3.1Z" fill="#b8b8b8"/>
  <path d="M31.3,9.4c1.1.3,2.1.8,3.1,1.4l1-1.5c-1.1-.7-2.4-1.2-3.7-1.6l-.5,1.7Z" fill="#b8b8b8"/>
  <path d="M37.8,13.7l1.4-1.1c-.8-1-1.8-2-2.9-2.8l-1,1.5c.9.7,1.8,1.5,2.5,2.3Z" fill="#b8b8b8"/>
  <path d="M35.9,28.7l1.3,1.1c.6-.9,1.2-1.8,1.6-2.9l-1.6-.6c-.3.8-.8,1.6-1.3,2.4Z" fill="#b8b8b8"/>
  <path d="M18.3,32.7l-1.2,1.3c1,.9,2.1,1.6,3.3,2.2l.7-1.6c-1-.5-2-1.2-2.8-1.9Z" fill="#b8b8b8"/>
  <path d="M16.7,23.6c0-.8,0-1.5,0-2.3,0-.1,0-.3,0-.4l-1.7-.3c0,.2,0,.4,0,.5,0,.9,0,1.8,0,2.7l1.7-.3Z" fill="#b8b8b8"/>
  <path d="M13.9,25.1l-1.8.3c.3,1.3.7,2.6,1.3,3.8l1.6-.8c-.5-1-.9-2.1-1.1-3.3Z" fill="#b8b8b8"/>
  <path d="M35.1,33.6l1,1.5c1.1-.8,2.1-1.7,3-2.7l-1.4-1.1c-.7.9-1.6,1.6-2.5,2.3Z" fill="#b8b8b8"/>
  <path d="M15.1,16.3l-1.6-.9c-.6,1.2-1.1,2.5-1.3,3.8l1.8.3c.2-1.1.6-2.2,1.1-3.2Z" fill="#b8b8b8"/>
  <path d="M30.2,32.9l.4,1.6c1.1-.3,2.1-.7,3-1.3l-.9-1.4c-.8.5-1.6.8-2.5,1.1Z" fill="#b8b8b8"/>
  <path d="M17.9,27.9l-1.5.8c.5.9,1.2,1.8,2,2.6l1.2-1.2c-.6-.6-1.2-1.4-1.7-2.1Z" fill="#b8b8b8"/>
  <path d="M26.8,36.1c-.2,0-.3,0-.5,0l-.2,1.8c1.4.1,2.8,0,4.2-.3l-.4-1.8c-1,.2-2.1.3-3.2.3Z" fill="#b8b8b8"/>
  <path d="M17.3,10.6l1.2,1.3c.9-.7,1.8-1.4,2.9-1.8l-.7-1.7c-1.2.6-2.3,1.3-3.4,2.2Z" fill="#b8b8b8"/>
  <path d="M21.7,8l.7,1.7c1.1-.4,2.2-.7,3.3-.8v-1.8c-1.5.2-2.8.5-4,1Z" fill="#b8b8b8"/>
  <path d="M26.3,42.4c1.7,0,3.4,0,5.1-.4l-.4-1.8c-1.4.3-2.9.4-4.4.4-.2,0-.4,0-.6,0l-.2,1.9c.2,0,.4,0,.5,0h0Z" fill="#b8b8b8"/>
</svg>