<svg viewBox="0 0 174 44" fill="none" xmlns="http://www.w3.org/2000/svg">
<g clip-path="url(#clip0_3575_3465)">
<path fill-rule="evenodd" clip-rule="evenodd" d="M37.5466 33.6575C37.9522 34.0342 38.4592 34.2225 39.0676 34.2225H50.2795C52.3943 34.2225 54.263 33.7879 55.8854 32.9188C57.5368 32.0496 58.8258 30.8618 59.753 29.3553C60.6803 27.8199 61.1437 26.0526 61.1437 24.0536C61.1437 21.8518 60.5499 20.0555 59.3619 18.6649C58.2033 17.2743 56.6676 16.3328 54.7555 15.8402C56.088 15.2029 57.1456 14.3048 57.9279 13.1459C58.7389 11.9581 59.1447 10.6254 59.1447 9.14789C59.1447 7.40962 58.7248 5.87418 57.8844 4.54148C57.0441 3.2088 55.8854 2.16584 54.4079 1.41259C52.9593 0.659338 51.3079 0.282715 49.4538 0.282715H38.9807C38.4013 0.282715 37.9088 0.471028 37.5032 0.847653C37.1266 1.22428 36.9382 1.71679 36.9382 2.32518V32.18C36.9382 32.7594 37.141 33.252 37.5466 33.6575ZM50.2795 30.3983H41.0232V18.1434H50.2795C51.6411 18.1434 52.8289 18.3752 53.8429 18.8388C54.8859 19.3023 55.6969 19.9686 56.2765 20.8378C56.8849 21.7069 57.1891 22.7789 57.1891 24.0536C57.1891 25.4152 56.8849 26.5741 56.2765 27.5301C55.6969 28.4572 54.8859 29.167 53.8429 29.6595C52.8289 30.152 51.6411 30.3983 50.2795 30.3983ZM49.4538 14.3192H41.0232V4.10691H49.4538C51.1341 4.10691 52.5103 4.52699 53.5822 5.36716C54.6833 6.20733 55.2335 7.46758 55.2335 9.14789C55.2335 10.8283 54.6833 12.1175 53.5822 13.0155C52.5103 13.8847 51.1341 14.3192 49.4538 14.3192ZM69.6574 19.4471V32.2669C69.6574 32.8753 69.4836 33.3533 69.1359 33.701C68.8171 34.0486 68.3249 34.2225 67.6584 34.2225C67.05 34.2225 66.572 34.0631 66.2243 33.7444C65.8767 33.3968 65.7028 32.9043 65.7028 32.2669V12.4071C65.7028 11.7988 65.8767 11.3207 66.2243 10.9731C66.572 10.6254 67.05 10.4516 67.6584 10.4516C68.3249 10.4516 68.8171 10.6254 69.1359 10.9731C69.4836 11.2918 69.6574 11.7698 69.6574 12.4071V13.6255C70.3967 12.7343 71.2805 11.995 72.3083 11.4076C73.7277 10.5965 75.2921 10.1909 77.0016 10.1909C78.5948 10.1909 79.7828 10.4371 80.5651 10.9296C81.3761 11.4221 81.6803 12.045 81.4776 12.7983C81.3907 13.2328 81.2169 13.5515 80.9562 13.7543C80.6954 13.9281 80.3912 14.0296 80.0436 14.0585C79.6959 14.0585 79.3195 14.0296 78.9137 13.9716C77.1466 13.6819 75.5675 13.7254 74.1769 14.102C72.7863 14.4786 71.6852 15.1305 70.8742 16.0575C70.0632 16.9846 69.6574 18.1145 69.6574 19.4471ZM87.1536 34.2225C86.5452 34.2225 86.0526 34.0342 85.6761 33.6575C85.2997 33.2809 85.1112 32.8029 85.1112 32.2234V12.4506C85.1112 11.8422 85.2997 11.3642 85.6761 11.0165C86.0526 10.6399 86.5452 10.4516 87.1536 10.4516C87.7332 10.4516 88.2113 10.6399 88.5877 11.0165C88.9642 11.3642 89.1527 11.8422 89.1527 12.4506V32.2234C89.1527 32.8029 88.9642 33.2809 88.5877 33.6575C88.2113 34.0342 87.7332 34.2225 87.1536 34.2225ZM114.483 33.701C114.888 34.0776 115.38 34.2659 115.96 34.2659C116.51 34.2659 116.974 34.0776 117.351 33.701C117.756 33.2954 117.959 32.8174 117.959 32.2669V21.3158C117.959 18.9402 117.496 16.9267 116.568 15.2753C115.641 13.6239 114.381 12.3782 112.788 11.538C111.194 10.6689 109.383 10.2343 107.356 10.2343C105.444 10.2343 103.72 10.6544 102.184 11.4946C101.257 11.9845 100.445 12.5908 99.7507 13.3133V12.4506C99.7507 11.8422 99.5622 11.3642 99.1857 11.0165C98.8381 10.6399 98.3601 10.4516 97.7517 10.4516C97.1721 10.4516 96.694 10.6399 96.3176 11.0165C95.9411 11.3642 95.7527 11.8422 95.7527 12.4506V32.2669C95.7527 32.8463 95.9411 33.3244 96.3176 33.701C96.694 34.0776 97.1721 34.2659 97.7517 34.2659C98.3601 34.2659 98.8381 34.0776 99.1857 33.701C99.5622 33.3244 99.7507 32.8463 99.7507 32.2669V19.7513C99.7507 18.6215 100.055 17.622 100.663 16.7528C101.3 15.8837 102.141 15.1884 103.184 14.6669C104.227 14.1454 105.4 13.8847 106.704 13.8847C108.094 13.8847 109.326 14.1599 110.398 14.7104C111.469 15.2318 112.324 16.0431 112.962 17.1439C113.599 18.2159 113.918 19.6065 113.918 21.3158V32.2669C113.918 32.8174 114.106 33.2954 114.483 33.701ZM133.677 34.3963C131.446 34.3963 129.476 33.8893 127.767 32.8753C126.087 31.8323 124.754 30.4128 123.769 28.6165C122.813 26.7913 122.335 24.7054 122.335 22.3588C122.335 19.9831 122.841 17.8972 123.856 16.101C124.899 14.2758 126.318 12.8562 128.114 11.8422C129.94 10.7992 132.011 10.2778 134.329 10.2778C136.675 10.2778 138.747 10.7992 140.543 11.8422C142.339 12.8562 143.744 14.2758 144.758 16.101C145.801 17.8972 146.337 19.9831 146.366 22.3588V31.5281C146.366 33.8458 145.845 35.9318 144.802 37.7859C143.788 39.6691 142.368 41.1611 140.543 42.262C138.747 43.3629 136.675 43.9133 134.329 43.9133C132.185 43.9133 130.215 43.4933 128.419 42.6531C126.652 41.8419 125.174 40.6686 123.986 39.1331C123.638 38.6985 123.493 38.235 123.551 37.7425C123.638 37.2789 123.899 36.9023 124.334 36.6126C124.797 36.2939 125.29 36.178 125.811 36.2649C126.333 36.3808 126.753 36.6416 127.071 37.0471C127.882 38.0612 128.897 38.8579 130.113 39.4373C131.359 40.0167 132.793 40.3064 134.416 40.3064C135.893 40.3064 137.24 39.9443 138.457 39.22C139.674 38.5247 140.645 37.4962 141.369 36.1346C142.093 34.8019 142.455 33.194 142.455 31.3109V29.2475C141.604 30.7895 140.46 32.0133 139.022 32.9188C137.458 33.9038 135.676 34.3963 133.677 34.3963ZM134.329 30.8328C135.922 30.8328 137.327 30.4707 138.544 29.7464C139.761 29.0221 140.717 28.0226 141.412 26.7479C142.107 25.4732 142.455 24.0101 142.455 22.3588C142.455 20.7074 142.107 19.2444 141.412 17.9696C140.717 16.6659 139.761 15.652 138.544 14.9276C137.327 14.2034 135.922 13.8412 134.329 13.8412C132.764 13.8412 131.359 14.2034 130.113 14.9276C128.897 15.652 127.941 16.6659 127.245 17.9696C126.55 19.2444 126.202 20.7074 126.202 22.3588C126.202 24.0101 126.55 25.4732 127.245 26.7479C127.941 28.0226 128.897 29.0221 130.113 29.7464C131.359 30.4707 132.764 30.8328 134.329 30.8328ZM169.91 33.701C170.316 34.0776 170.809 34.2659 171.388 34.2659C171.938 34.2659 172.402 34.0776 172.778 33.701C173.184 33.2954 173.387 32.8174 173.387 32.2669V21.3158C173.387 18.9402 172.923 16.9267 171.996 15.2753C171.069 13.6239 169.809 12.3782 168.215 11.538C166.622 10.6689 164.811 10.2343 162.783 10.2343C160.871 10.2343 159.147 10.6544 157.612 11.4946C156.685 11.9845 155.874 12.5908 155.178 13.3133V12.4506C155.178 11.8422 154.99 11.3642 154.613 11.0165C154.266 10.6399 153.788 10.4516 153.179 10.4516C152.6 10.4516 152.122 10.6399 151.745 11.0165C151.369 11.3642 151.18 11.8422 151.18 12.4506V32.2669C151.18 32.8463 151.369 33.3244 151.745 33.701C152.122 34.0776 152.6 34.2659 153.179 34.2659C153.788 34.2659 154.266 34.0776 154.613 33.701C154.99 33.3244 155.178 32.8463 155.178 32.2669V19.7513C155.178 18.6215 155.482 17.622 156.091 16.7528C156.729 15.8837 157.568 15.1884 158.611 14.6669C159.654 14.1454 160.828 13.8847 162.131 13.8847C163.522 13.8847 164.753 14.1599 165.825 14.7104C166.897 15.2318 167.752 16.0431 168.389 17.1439C169.027 18.2159 169.345 19.6065 169.345 21.3158V32.2669C169.345 32.8174 169.534 33.2954 169.91 33.701Z" fill="#B8B8B8"/>
<path d="M90.1728 2.71605C90.1728 4.21608 88.9566 5.4321 87.4568 5.4321C85.957 5.4321 84.7407 4.21608 84.7407 2.71605C84.7407 1.21602 85.957 0 87.4568 0C88.9566 0 90.1728 1.21602 90.1728 2.71605Z" fill="#B8B8B8"/>
<path d="M155.358 2.71605C155.358 4.21608 154.142 5.4321 152.642 5.4321C151.142 5.4321 149.926 4.21608 149.926 2.71605C149.926 1.21602 151.142 0 152.642 0C154.142 0 155.358 1.21602 155.358 2.71605Z" fill="#B8B8B8"/>
<path d="M8.3612 30.7869C8.84357 30.573 9.32317 30.3467 9.80293 30.1235C11.4014 29.3762 12.9453 28.4784 14.4196 27.4392V27.4144L14.4328 27.4392C15.9792 26.33 17.4349 25.0567 18.7818 23.6356C19.8764 22.4267 20.8623 20.9697 21.3816 19.2957C21.8998 17.6084 21.8352 15.7513 21.2014 14.1189C19.8975 10.6686 17.0141 8.48949 14.4222 6.49309L14.3878 6.55507L14.4196 6.48993C14.242 6.36277 14.0645 6.23577 13.8896 6.1117C12.289 5.05772 10.6225 4.14692 8.90457 3.38701C8.5335 3.21654 8.15717 3.04913 7.77817 2.9003C7.56882 2.8166 7.15804 2.59026 6.98313 2.80731C6.80821 3.02427 7.00964 3.34358 7.19248 3.50476C7.90007 4.12473 8.6315 4.67035 9.22789 5.44225C9.82417 6.21409 10.3092 7.11935 10.272 8.17628C10.2377 9.16513 9.74204 10.0579 9.17226 10.7523C7.95053 12.2186 6.38951 13.254 4.83401 14.1188C4.05489 14.559 3.26774 14.9805 2.46209 15.3587C2.00895 15.5664 1.55309 15.7679 1.10257 15.9787C0.765965 16.143 2.38523e-08 16.4282 0 16.9738C-1.35531e-08 17.2838 0.318045 17.5225 0.530033 17.6527C1.24031 18.1145 2.06188 18.375 2.80914 18.7532C3.6784 19.1902 4.53971 19.6335 5.38253 20.1357C6.88252 21.0316 8.53638 22.1165 9.55648 23.7316C10.0865 24.5655 10.4099 25.5389 10.182 26.5773C9.95405 27.6157 9.36038 28.4031 8.71646 29.0821C8.38743 29.4079 8.04331 29.712 7.6855 29.9933C7.50265 30.1483 7.31182 30.3033 7.13159 30.4583C6.95146 30.6133 6.7156 31.1744 7.15549 31.2334C7.52384 31.255 8.0325 30.9233 8.3612 30.7869Z" fill="#B8B8B8"/>
</g>
<defs>
<clipPath id="clip0_3575_3465">
<rect width="173.827" height="44" fill="white"/>
</clipPath>
</defs>
</svg>
