<?xml version="1.0" encoding="UTF-8"?>
<svg id="Layer_1" xmlns="http://www.w3.org/2000/svg" version="1.1" viewBox="0 0 68.6 31.93">
  <!-- Generator: Adobe Illustrator 29.6.1, SVG Export Plug-In . SVG Version: 2.1.1 Build 9)  -->
  <path d="M18.76,25.54c2.79-.33,4.59-2.63,3.34-5.38-1.15-2.54-4.7-2.27-6.99-2.17-.23,0-.29.15-.51-.17l2.39-2.71c4.17-.44,4.93-5.74.67-6.72l1.95-2.66c3.35,1.26,4.82,5.19,3.4,8.44-.32.72-.88,1.14-1.1,1.87,4.93,1.99,5.21,8.76.62,11.41-.47.27-2.11.99-2.58.99h-2.46v1.87h-3.4c-.03-.48.04-.97,0-1.45-.03-.31.15-.43-.26-.42-.98.01-.49,1.2-.59,1.87h-3.23v-1.87h-5.43l5.6-5.77v2.89c2.71-.23,5.93.31,8.58,0Z" fill="#c7c7c7"/>
  <path d="M59.57,14.73c10.98-.55,11.57,14.84,1.31,15.57-11.07.79-11.79-15.04-1.31-15.57ZM57.3,25.98c2.38,1.92,6.52.96,7.02-2.26,1.15-7.3-8.56-7.51-8.46-1.15.02,1.09.57,2.71,1.44,3.4Z" fill="#c7c7c7"/>
  <polygon points="13.24 13.99 16.98 13.99 .92 31.15 .67 31.07 9.67 17.73 5.26 17.73 21.99 .41 13.24 13.99" fill="#c7c7c7"/>
  <path d="M33.62,15.18v1.7s2.55-1.61,2.55-1.61c1.8-.69,3.45-.67,5.3-.21.35.09,1.32.27,1.33.71l-1.22,2.79c-2.38-.35-5.3-.87-7.18,1.06-.6.62-1.29,2.11-1.29,2.95v7.39h-3.74v-14.78h4.25Z" fill="#c7c7c7"/>
  <rect x="45.85" y="15.18" width="3.91" height="14.78" fill="#c7c7c7"/>
  <path d="M13.41,3.46v1.87h2.72c.07.3-.12.34-.25.51-.22.29-2.37,2.55-2.55,2.55h-3.14v3.31l-3.06,3.14v-6.45c-.7-.1-1.67.26-2.21-.25v-2.8h5.1v-1.87h3.4Z" fill="#c7c7c7"/>
  <path d="M47.85,9.11c3.09-.17,2.97,5.03-.48,4.3-2.43-.51-2.03-4.17.48-4.3Z" fill="#c7c7c7"/>
</svg>