<?xml version="1.0" encoding="UTF-8"?>
<svg id="Layer_1" xmlns="http://www.w3.org/2000/svg" version="1.1" viewBox="0 0 145 34">
  <!-- Generator: Adobe Illustrator 29.6.1, SVG Export Plug-In . SVG Version: 2.1.1 Build 9)  -->
  <g id="HEhTiH.tif">
    <g>
      <path d="M80,8.9c.5,0,1.6.6,2,.9,1.9,1.4,1.4,4.9-.9,5.6s-.2,0-.2.3c3.6.4,3.9,5.2.9,6.7s-1.5.6-1.6.6h-7.6v-14.1h7.4ZM75.6,14.7h2.8s.7-.2.8-.3c1.4-.8,1.1-2.8-.5-3.1s-1.9-.2-2.9-.1l-.2.2v3.4ZM75.6,20.7h3.5s.7-.3.8-.3c1.1-.7,1-2.4,0-3.1s-2.9-.5-3.7-.4-.2,0-.3,0l-.2.2v3.7Z" fill="#c7c7c7"/>
      <path d="M54.5,8.9c.2,0,1.1.3,1.4.4,2.5,1.1,2.6,4.6.2,5.9s-.6,0-.5.4c3.6.5,3.9,5.3.8,6.8s-1.5.5-1.7.5h-7.4v-14.1h7.3ZM50.3,14.7h2.8c0,0,.8-.4.9-.4,1.1-.7.8-2.7-.6-3s-.9-.2-.9-.2h-2.3v3.6ZM50.3,20.7h3.5c.1,0,.9-.4,1-.5.9-.9.6-2.4-.5-3s-1.4-.3-1.9-.4-1.4,0-2.2,0v3.9Z" fill="#c7c7c7"/>
      <path d="M104,8.9c.4,0,1.5.5,1.9.8,1.9,1.3,1.9,4.3-.2,5.5s-.5.2-.8.3c.4.3.9.3,1.3.6,2.3,1.3,2.2,4.7,0,6.1s-1.7.8-2.1.8h-7.4v-14.1h7.3ZM99.7,14.7h2.8c0,0,.8-.4.9-.4,1.1-.7.8-2.7-.6-3s-.9-.2-.9-.2h-2.3v3.6ZM99.7,20.7h3.4c.2,0,1.1-.5,1.2-.7.9-1.2.2-2.6-1.2-3s-1-.2-1-.2h-2.4v3.9Z" fill="#c7c7c7"/>
      <path d="M10.9,9.2v-1.7s1.1,0,1.1,0v1.7s1.3,0,1.3,0v-1.7c0,0,1.2,0,1.2,0v1.6c2.5.2,4.3,1.7,3.7,4.3s-.7,1.3-1.1,1.6l-1,.6c1.4,0,2.7,1.3,2.9,2.7.3,2.8-1.9,4.3-4.4,4.3v1.7s-1.1,0-1.1,0v-1.7s-1.3,0-1.3,0v1.7c0,0-1.2,0-1.2,0v-1.7s-2.5,0-2.5,0v-13.5h2.5ZM11.3,14.9h2s.8-.2.9-.2c1.4-.4,1.7-2.2.5-3s-.6-.3-.7-.3h-2.7v3.4ZM11.3,20.5h2.8s.6-.2.7-.2c1.4-.6,1.4-2.6,0-3.2s-.7-.2-.7-.2h-2.8v3.7Z" fill="#8c8c8c"/>
      <path d="M45.3,13.9h-3c-.2-2.3-3.1-3.4-5-2.1s-2.4,6.6,0,8.3,4.9.3,5.1-2.1h3c-.3,4.4-5,6.2-8.9,4.8-4-1.4-4.8-6.8-3.4-10.4,2.3-5.7,11.8-5,12.3,1.4Z" fill="#8c8c8c"/>
      <path d="M87.6,12.4l2.4,8.1,2.4-8.1h2.8s.3.2.2.3l-3.7,10.8c-.4,1-1.2,2.1-2.2,2.6s-1,.3-1,.3h-2.7v-2.2c1.2,0,2.3,0,2.6-1.3l-3.7-10.3c-.1,0,.1-.3.1-.3h2.9Z" fill="#c7c7c7"/>
      <polygon points="31.8 8.9 31.8 11.4 27.7 11.4 27.7 23 24.6 23 24.6 11.4 20.6 11.4 20.6 8.9 31.8 8.9" fill="#8c8c8c"/>
      <path d="M68.7,9.9v2.5c.4,0,1.8-.1,2,.1s.1,1.6,0,1.9c0,.6-1.6.2-2.1.3v4.9c0,0,.3,1,.3,1,.4.4,1.3.3,1.8.3v2c0,0-.2.2-.3.2-.5,0-1.6,0-2.1,0-1,0-1.9-.5-2.3-1.4s-.2-.7-.2-.7v-6.3h-1.5v-2.1c0-.3,1.2-.2,1.5-.2v-2.5h2.9Z" fill="#c7c7c7"/>
      <path d="M118.2,9.9v2.5h1.9v2.3h-1.9v5.2s.3.7.4.8c.4.3,1.1.3,1.6.3v2.2h-2.7c-.3,0-1.1-.4-1.3-.6s-.8-1.1-.8-1.4v-6.4h-1.5v-2.1c0-.3,1.2-.2,1.5-.2v-2.5h2.9Z" fill="#c7c7c7"/>
      <path d="M130.9,8.9c.3.9.6,1.9,1,2.8s.2.8.5.9l1.4-3.7h2.8v7.1l-.2.2c-.3,0-1.9.1-1.9-.2v-3.7l-1.6,3.9c-.3,0-1.1.1-1.2-.1l-1.5-3.6v3.5l-.2.2c-.3,0-1.9.1-1.9-.2v-7.1h2.8Z" fill="#c7c7c7"/>
      <polygon points="63 23 60 23 60 12.6 60.2 12.4 62.8 12.4 63 12.6 63 23" fill="#c7c7c7"/>
      <polygon points="112.5 23 109.4 23 109.4 12.6 109.6 12.4 112.3 12.4 112.5 12.6 112.5 23" fill="#c7c7c7"/>
      <polygon points="127.3 8.9 127.3 10.9 125.2 10.9 125.2 16.2 123.1 16.2 122.9 16 122.9 10.9 120.9 10.9 120.9 8.9 127.3 8.9" fill="#c7c7c7"/>
      <path d="M112.2,8.6c.4.4.4.9.3,1.4-.2,1.5-2.4,1.6-3,.3s1.4-3,2.7-1.8Z" fill="#c7c7c7"/>
      <path d="M60.3,10.7c-.4-.4-.4-1.3-.2-1.8,1-1.7,3.8-.4,2.8,1.5s-1.9,1-2.6.3Z" fill="#c7c7c7"/>
    </g>
  </g>
</svg>