<svg width="257" height="46" viewBox="0 0 257 46" fill="none" xmlns="http://www.w3.org/2000/svg">
<path d="M32.1677 32.3301C29.7568 34.7871 26.3984 36.3111 22.6847 36.3111C15.3468 36.3111 9.3979 30.3622 9.3979 23.0243C9.3979 15.6865 15.3468 9.7375 22.6847 9.7375C26.2243 9.7375 29.441 11.1219 31.8225 13.3799L38.356 6.8463C34.3022 2.91795 28.7754 0.5 22.6847 0.5C10.2447 0.5 0.1604 10.5843 0.1604 23.0243C0.1604 35.4643 10.2447 45.5486 22.6847 45.5486C28.8619 45.5486 34.4591 43.0618 38.5281 39.0338C38.6466 38.9052 38.7635 38.7741 38.8789 38.642L32.1677 32.3301Z" fill="#B8B8B8"/>
<path d="M26.4903 28.3402H24.7697L22.7409 22.4593L20.7121 28.3402H18.9915L15.9227 19.2878H18.0413L19.9032 25.3741L21.9191 19.2621H23.6141L25.63 25.3741L27.4919 19.2878H29.5591L26.4903 28.3402ZM22.7354 12.3442C16.8928 12.3442 12.1565 17.0805 12.1565 22.9231C12.1565 28.7656 16.8928 33.5019 22.7354 33.5019C28.5779 33.5019 33.3142 28.7656 33.3142 22.9231C33.3142 17.0805 28.5779 12.3442 22.7354 12.3442Z" fill="#B8B8B8"/>
<path d="M68.077 33.3105C68.077 33.6616 68.0664 33.9599 68.0455 34.2054C68.0243 34.4511 67.9928 34.6617 67.9507 34.837C67.9086 35.0127 67.8523 35.1634 67.7821 35.2897C67.7118 35.416 67.5997 35.5603 67.4453 35.7214C67.2907 35.8829 66.9926 36.0899 66.5504 36.3426C66.1082 36.5952 65.5677 36.8374 64.9292 37.069C64.2903 37.3005 63.5604 37.4934 62.7393 37.6481C61.9181 37.8024 61.0301 37.8797 60.0757 37.8797C58.2086 37.8797 56.5242 37.5919 55.0224 37.0164C53.5201 36.4409 52.243 35.5813 51.1902 34.4371C50.1374 33.2931 49.33 31.8649 48.7686 30.1522C48.207 28.4396 47.9265 26.4463 47.9265 24.1723C47.9265 21.8561 48.2351 19.7998 48.8528 18.0029C49.4704 16.2062 50.3338 14.6971 51.4429 13.4758C52.5514 12.2546 53.8818 11.3282 55.433 10.6964C56.9838 10.0648 58.693 9.74902 60.56 9.74902C61.318 9.74902 62.0478 9.81204 62.7498 9.93847C63.4516 10.0648 64.1007 10.2299 64.6975 10.4333C65.294 10.6369 65.8308 10.8721 66.3084 11.1387C66.7854 11.4055 67.1189 11.6335 67.3085 11.823C67.4979 12.0124 67.6276 12.1703 67.6979 12.2967C67.7681 12.423 67.8244 12.5846 67.8663 12.7809C67.9086 12.9776 67.9401 13.2093 67.9613 13.4758C67.9822 13.7426 67.9928 14.0726 67.9928 14.4654C67.9928 14.8866 67.9786 15.2445 67.9507 15.5394C67.9223 15.8341 67.8733 16.0729 67.8033 16.2552C67.7329 16.4378 67.6487 16.571 67.5507 16.6553C67.4522 16.7395 67.3401 16.7816 67.2138 16.7816C67.0031 16.7816 66.7362 16.6589 66.4136 16.4131C66.0904 16.1676 65.6731 15.894 65.1607 15.5919C64.6482 15.2903 64.0375 15.0165 63.3288 14.7708C62.6199 14.5253 61.774 14.4023 60.7917 14.4023C59.7106 14.4023 58.7456 14.6234 57.8965 15.0655C57.0471 15.5077 56.3241 16.1394 55.7277 16.9606C55.131 17.7817 54.6781 18.775 54.3695 19.94C54.0607 21.1053 53.9063 22.4177 53.9063 23.8774C53.9063 25.4776 54.0712 26.8642 54.4011 28.036C54.7309 29.2083 55.2013 30.1732 55.8119 30.9312C56.4226 31.6891 57.1595 32.2545 58.0228 32.6262C58.8861 32.9984 59.8579 33.1841 60.9391 33.1841C61.9215 33.1841 62.7709 33.0684 63.4867 32.8367C64.2027 32.6051 64.8166 32.3492 65.3293 32.0683C65.8415 31.7876 66.2626 31.5349 66.5925 31.3102C66.9222 31.0858 67.1786 30.9734 67.361 30.9734C67.5012 30.9734 67.6137 31.0016 67.6979 31.0576C67.7821 31.1139 67.8523 31.226 67.9086 31.3944C67.9644 31.5629 68.0067 31.7981 68.0349 32.0997C68.0629 32.4018 68.077 32.8052 68.077 33.3105Z" fill="#B8B8B8"/>
<path d="M82.5426 28.7411H80.5213C79.6649 28.7411 78.9349 28.8042 78.3314 28.9305C77.7276 29.057 77.2366 29.2464 76.8575 29.499C76.4785 29.7518 76.2012 30.0571 76.0258 30.415C75.8501 30.7731 75.7627 31.1835 75.7627 31.6468C75.7627 32.4331 76.0118 33.0505 76.5101 33.4997C77.0081 33.9492 77.6997 34.1736 78.584 34.1736C79.3279 34.1736 80.0123 33.9839 80.6371 33.605C81.2615 33.2259 81.8968 32.6716 82.5426 31.9416V28.7411ZM87.7434 36.7844C87.7434 36.9812 87.673 37.1355 87.5328 37.2477C87.3923 37.3602 87.1713 37.4405 86.8696 37.4898C86.5676 37.5387 86.1221 37.5636 85.5325 37.5636C84.9009 37.5636 84.4409 37.5387 84.1535 37.4898C83.8655 37.4405 83.6619 37.3602 83.5428 37.2477C83.4233 37.1355 83.3638 36.9812 83.3638 36.7844V35.2894C82.5916 36.1179 81.7109 36.7634 80.7213 37.2266C79.7317 37.6897 78.633 37.9214 77.426 37.9214C76.4291 37.9214 75.5132 37.7915 74.6782 37.5319C73.8428 37.2724 73.1201 36.8865 72.5095 36.3738C71.8988 35.8616 71.425 35.2263 71.0881 34.4683C70.7513 33.7102 70.5828 32.8258 70.5828 31.8152C70.5828 30.7203 70.7966 29.7696 71.2251 28.9622C71.6531 28.1551 72.2916 27.4882 73.1411 26.9618C73.9903 26.4354 75.0467 26.0459 76.3101 25.7932C77.5734 25.5406 79.0401 25.4143 80.7107 25.4143H82.5426V24.2772C82.5426 23.6876 82.4827 23.1718 82.3637 22.7296C82.2441 22.2874 82.0478 21.9189 81.7742 21.6242C81.5002 21.3294 81.1351 21.112 80.679 20.9714C80.223 20.8313 79.658 20.7609 78.9841 20.7609C78.0997 20.7609 77.3102 20.8592 76.6153 21.0557C75.9205 21.2524 75.3063 21.4698 74.7729 21.7084C74.2394 21.9472 73.7938 22.1647 73.436 22.3612C73.0779 22.5579 72.7864 22.6559 72.5621 22.6559C72.4075 22.6559 72.2705 22.6069 72.1515 22.5086C72.032 22.4105 71.9337 22.27 71.8568 22.0873C71.7794 21.9051 71.7199 21.6805 71.6776 21.4136C71.6357 21.1472 71.6146 20.8524 71.6146 20.5293C71.6146 20.0943 71.6494 19.7502 71.7199 19.4975C71.7899 19.2449 71.9232 19.017 72.1199 18.8132C72.3163 18.6099 72.6602 18.3852 73.1517 18.1395C73.6428 17.8939 74.2183 17.6657 74.8782 17.4551C75.5379 17.2446 76.2575 17.0727 77.0365 16.9392C77.8156 16.8061 78.619 16.7393 79.4475 16.7393C80.9212 16.7393 82.181 16.8832 83.2269 17.1708C84.2725 17.4587 85.1324 17.9009 85.8063 18.4973C86.4802 19.0942 86.9712 19.8627 87.2802 20.803C87.5887 21.7436 87.7434 22.8595 87.7434 24.1509V36.7844Z" fill="#B8B8B8"/>
<path d="M110.484 36.7429C110.484 36.8833 110.445 37.006 110.368 37.1112C110.291 37.2166 110.15 37.3008 109.947 37.3641C109.743 37.4271 109.466 37.4762 109.115 37.5113C108.764 37.5463 108.308 37.5641 107.747 37.5641C107.171 37.5641 106.704 37.5498 106.346 37.5218C105.989 37.4935 105.694 37.4483 105.462 37.3852C105.23 37.3219 105.051 37.2344 104.925 37.1219C104.799 37.0098 104.686 36.8623 104.588 36.6797L98.3346 26.7833V36.7218C98.3346 36.8623 98.2925 36.9851 98.2083 37.0902C98.124 37.1954 97.98 37.2834 97.7767 37.3534C97.5729 37.4239 97.3029 37.4762 96.966 37.5113C96.629 37.5463 96.2008 37.5641 95.6817 37.5641C95.162 37.5641 94.734 37.5463 94.3972 37.5113C94.0603 37.4762 93.7899 37.4239 93.5865 37.3534C93.3829 37.2834 93.2391 37.1954 93.1549 37.0902C93.0707 36.9851 93.0286 36.8623 93.0286 36.7218V9.03335C93.0286 8.89301 93.0707 8.76671 93.1549 8.65431C93.2391 8.54205 93.3829 8.44732 93.5865 8.36987C93.7899 8.29296 94.0603 8.23318 94.3972 8.19094C94.734 8.14898 95.162 8.12793 95.6817 8.12793C96.2008 8.12793 96.629 8.14898 96.966 8.19094C97.3029 8.23318 97.5729 8.29296 97.7767 8.36987C97.98 8.44732 98.124 8.54205 98.2083 8.65431C98.2925 8.76671 98.3346 8.89301 98.3346 9.03335V25.52L103.893 18.0453C104.006 17.8767 104.132 17.7294 104.272 17.603C104.413 17.4767 104.599 17.3786 104.83 17.3083C105.062 17.2381 105.35 17.1856 105.694 17.1504C106.038 17.1154 106.476 17.0976 107.01 17.0976C107.529 17.0976 107.968 17.1154 108.326 17.1504C108.684 17.1856 108.971 17.2381 109.189 17.3083C109.406 17.3786 109.557 17.4663 109.642 17.5714C109.726 17.6766 109.768 17.8067 109.768 17.9611C109.768 18.1714 109.715 18.3962 109.61 18.6348C109.505 18.8735 109.347 19.1262 109.136 19.3927L103.641 25.6253L110 35.4584C110.168 35.7393 110.291 35.9816 110.368 36.1849C110.445 36.3885 110.484 36.5745 110.484 36.7429Z" fill="#B8B8B8"/>
<path d="M124.76 25.2664C124.802 23.7786 124.504 22.6099 123.865 21.7607C123.226 20.9115 122.24 20.4866 120.907 20.4866C120.233 20.4866 119.647 20.613 119.149 20.8658C118.65 21.1184 118.236 21.4588 117.906 21.8868C117.576 22.3152 117.324 22.8206 117.148 23.4028C116.973 23.9856 116.871 24.6067 116.843 25.2664H124.76ZM129.897 26.7823C129.897 27.4282 129.754 27.9056 129.466 28.2142C129.178 28.5232 128.782 28.6774 128.276 28.6774H116.843C116.843 29.4776 116.938 30.204 117.127 30.8568C117.317 31.5095 117.618 32.0642 118.033 32.5201C118.446 32.9765 118.98 33.3239 119.633 33.5624C120.286 33.8012 121.068 33.9204 121.981 33.9204C122.907 33.9204 123.721 33.854 124.423 33.7203C125.125 33.5871 125.732 33.4396 126.244 33.2782C126.757 33.117 127.181 32.9696 127.518 32.836C127.855 32.7027 128.129 32.6359 128.339 32.6359C128.466 32.6359 128.571 32.6606 128.655 32.7096C128.739 32.759 128.81 32.8465 128.866 32.9728C128.922 33.0991 128.961 33.2782 128.982 33.5098C129.003 33.7414 129.013 34.0329 129.013 34.3835C129.013 34.6925 129.006 34.9557 128.992 35.1732C128.978 35.3909 128.957 35.5768 128.929 35.7312C128.901 35.8857 128.859 36.0154 128.803 36.1206C128.746 36.226 128.673 36.328 128.582 36.426C128.49 36.5245 128.241 36.6577 127.834 36.8261C127.427 36.9945 126.908 37.1598 126.276 37.3209C125.644 37.4821 124.921 37.6226 124.107 37.742C123.293 37.8611 122.423 37.9209 121.496 37.9209C119.826 37.9209 118.362 37.7104 117.106 37.2893C115.85 36.8682 114.8 36.2296 113.958 35.3732C113.116 34.5172 112.488 33.4361 112.074 32.1306C111.659 30.8251 111.453 29.2952 111.453 27.5405C111.453 25.8701 111.67 24.3645 112.105 23.0239C112.54 21.6835 113.172 20.5465 114 19.6129C114.828 18.6795 115.835 17.9671 117.022 17.4757C118.208 16.9845 119.545 16.7388 121.033 16.7388C122.605 16.7388 123.949 16.9703 125.065 17.4336C126.181 17.8968 127.097 18.5391 127.813 19.3602C128.529 20.1812 129.055 21.1536 129.392 22.2764C129.729 23.3996 129.897 24.6209 129.897 25.9401V26.7823Z" fill="#B8B8B8"/>
<path d="M172.998 36.0264C172.914 36.3634 172.798 36.6338 172.651 36.8371C172.504 37.0407 172.282 37.195 171.988 37.3002C171.693 37.4056 171.314 37.4756 170.851 37.5108C170.387 37.5458 169.798 37.5636 169.082 37.5636C168.282 37.5636 167.64 37.5458 167.155 37.5108C166.671 37.4756 166.288 37.4056 166.008 37.3002C165.727 37.195 165.524 37.0407 165.397 36.8371C165.271 36.6338 165.172 36.3634 165.102 36.0264L160.744 18.7606H160.702L156.575 36.0264C156.504 36.3496 156.406 36.6127 156.28 36.8161C156.154 37.0197 155.954 37.1776 155.68 37.2897C155.406 37.4022 155.034 37.4756 154.564 37.5108C154.093 37.5458 153.472 37.5636 152.7 37.5636C151.886 37.5636 151.237 37.5458 150.753 37.5108C150.269 37.4756 149.886 37.4056 149.605 37.3002C149.324 37.195 149.121 37.0407 148.994 36.8371C148.868 36.6338 148.763 36.3634 148.679 36.0264L142.488 12.2543C142.362 11.749 142.292 11.3525 142.278 11.0646C142.264 10.777 142.344 10.556 142.52 10.4014C142.695 10.247 142.983 10.1523 143.383 10.1171C143.783 10.0823 144.341 10.0645 145.057 10.0645C145.717 10.0645 146.24 10.075 146.626 10.096C147.012 10.1171 147.303 10.1665 147.5 10.2435C147.696 10.3207 147.829 10.433 147.9 10.5803C147.97 10.7278 148.026 10.9351 148.068 11.2014L152.848 32.068H152.869L157.838 11.3489C157.894 11.0824 157.968 10.8645 158.059 10.6961C158.15 10.5277 158.304 10.398 158.522 10.3067C158.74 10.2154 159.038 10.1523 159.417 10.1171C159.796 10.0823 160.302 10.0645 160.933 10.0645C161.607 10.0645 162.144 10.0786 162.544 10.1066C162.944 10.1349 163.253 10.1945 163.471 10.2855C163.688 10.377 163.846 10.5066 163.944 10.675C164.042 10.8436 164.12 11.0682 164.176 11.3489L169.313 32.068H169.356L174.135 11.2646C174.177 11.0403 174.233 10.8471 174.304 10.6856C174.374 10.5244 174.507 10.398 174.704 10.3067C174.9 10.2154 175.181 10.1523 175.546 10.1171C175.911 10.0823 176.423 10.0645 177.083 10.0645C177.701 10.0645 178.181 10.0823 178.526 10.1171C178.869 10.1523 179.118 10.247 179.273 10.4014C179.427 10.556 179.494 10.7841 179.473 11.0856C179.452 11.3876 179.378 11.7982 179.252 12.3175L172.998 36.0264Z" fill="#B8B8B8"/>
<path d="M192.328 28.7411H190.307C189.451 28.7411 188.72 28.8042 188.117 28.9305C187.513 29.057 187.022 29.2464 186.643 29.499C186.264 29.7518 185.987 30.0571 185.811 30.415C185.636 30.7731 185.548 31.1835 185.548 31.6468C185.548 32.4331 185.797 33.0505 186.296 33.4997C186.794 33.9492 187.485 34.1736 188.37 34.1736C189.114 34.1736 189.798 33.9839 190.423 33.605C191.047 33.2259 191.682 32.6716 192.328 31.9416V28.7411ZM197.529 36.7844C197.529 36.9812 197.459 37.1355 197.318 37.2477C197.178 37.3602 196.957 37.4405 196.655 37.4898C196.353 37.5387 195.908 37.5636 195.318 37.5636C194.687 37.5636 194.226 37.5387 193.939 37.4898C193.651 37.4405 193.447 37.3602 193.328 37.2477C193.209 37.1355 193.149 36.9812 193.149 36.7844V35.2894C192.377 36.1179 191.497 36.7634 190.507 37.2266C189.517 37.6897 188.419 37.9214 187.212 37.9214C186.215 37.9214 185.299 37.7915 184.464 37.5319C183.628 37.2724 182.906 36.8865 182.295 36.3738C181.684 35.8616 181.211 35.2263 180.874 34.4683C180.537 33.7102 180.368 32.8258 180.368 31.8152C180.368 30.7203 180.582 29.7696 181.011 28.9622C181.439 28.1551 182.077 27.4882 182.927 26.9618C183.776 26.4354 184.832 26.0459 186.096 25.7932C187.359 25.5406 188.826 25.4143 190.496 25.4143H192.328V24.2772C192.328 23.6876 192.268 23.1718 192.149 22.7296C192.03 22.2874 191.833 21.9189 191.56 21.6242C191.286 21.3294 190.921 21.112 190.465 20.9714C190.008 20.8313 189.443 20.7609 188.77 20.7609C187.885 20.7609 187.096 20.8592 186.401 21.0557C185.706 21.2524 185.092 21.4698 184.559 21.7084C184.025 21.9472 183.579 22.1647 183.221 22.3612C182.863 22.5579 182.572 22.6559 182.348 22.6559C182.193 22.6559 182.056 22.6069 181.937 22.5086C181.818 22.4105 181.719 22.27 181.642 22.0873C181.565 21.9051 181.505 21.6805 181.463 21.4136C181.421 21.1472 181.4 20.8524 181.4 20.5293C181.4 20.0943 181.435 19.7502 181.505 19.4975C181.575 19.2449 181.709 19.017 181.905 18.8132C182.102 18.6099 182.446 18.3852 182.937 18.1395C183.428 17.8939 184.004 17.6657 184.664 17.4551C185.324 17.2446 186.043 17.0727 186.822 16.9392C187.601 16.8061 188.405 16.7393 189.233 16.7393C190.707 16.7393 191.967 16.8832 193.013 17.1708C194.058 17.4587 194.918 17.9009 195.592 18.4973C196.266 19.0942 196.757 19.8627 197.066 20.803C197.374 21.7436 197.529 22.8595 197.529 24.1509V36.7844Z" fill="#B8B8B8"/>
<path d="M208.12 36.7208C208.12 36.8613 208.077 36.9841 207.993 37.0892C207.909 37.1946 207.765 37.2824 207.561 37.3526C207.358 37.4229 207.088 37.4753 206.751 37.5105C206.414 37.5453 205.986 37.5631 205.466 37.5631C204.947 37.5631 204.519 37.5453 204.182 37.5105C203.845 37.4753 203.575 37.4229 203.371 37.3526C203.168 37.2824 203.024 37.1946 202.94 37.0892C202.855 36.9841 202.813 36.8613 202.813 36.7208V9.03237C202.813 8.89217 202.855 8.76574 202.94 8.65334C203.024 8.54107 203.168 8.44635 203.371 8.36903C203.575 8.29198 203.845 8.2322 204.182 8.1901C204.519 8.148 204.947 8.12695 205.466 8.12695C205.986 8.12695 206.414 8.148 206.751 8.1901C207.088 8.2322 207.358 8.29198 207.561 8.36903C207.765 8.44635 207.909 8.54107 207.993 8.65334C208.077 8.76574 208.12 8.89217 208.12 9.03237V36.7208Z" fill="#B8B8B8"/>
<path d="M218.712 36.7208C218.712 36.8613 218.67 36.9841 218.585 37.0892C218.501 37.1946 218.357 37.2824 218.154 37.3526C217.95 37.4229 217.68 37.4753 217.343 37.5105C217.006 37.5453 216.578 37.5631 216.059 37.5631C215.539 37.5631 215.111 37.5453 214.774 37.5105C214.437 37.4753 214.167 37.4229 213.964 37.3526C213.76 37.2824 213.616 37.1946 213.532 37.0892C213.448 36.9841 213.406 36.8613 213.406 36.7208V9.03237C213.406 8.89217 213.448 8.76574 213.532 8.65334C213.616 8.54107 213.76 8.44635 213.964 8.36903C214.167 8.29198 214.437 8.2322 214.774 8.1901C215.111 8.148 215.539 8.12695 216.059 8.12695C216.578 8.12695 217.006 8.148 217.343 8.1901C217.68 8.2322 217.95 8.29198 218.154 8.36903C218.357 8.44635 218.501 8.54107 218.585 8.65334C218.67 8.76574 218.712 8.89217 218.712 9.03237V36.7208Z" fill="#B8B8B8"/>
<path d="M236.209 25.2664C236.251 23.7786 235.953 22.6099 235.314 21.7607C234.675 20.9115 233.689 20.4866 232.356 20.4866C231.682 20.4866 231.096 20.613 230.598 20.8658C230.099 21.1184 229.685 21.4588 229.355 21.8868C229.025 22.3152 228.773 22.8206 228.597 23.4028C228.422 23.9856 228.32 24.6067 228.292 25.2664H236.209ZM241.346 26.7823C241.346 27.4282 241.202 27.9056 240.915 28.2142C240.627 28.5232 240.231 28.6774 239.725 28.6774H228.292C228.292 29.4776 228.387 30.204 228.576 30.8568C228.766 31.5095 229.067 32.0642 229.482 32.5201C229.895 32.9765 230.429 33.3239 231.082 33.5624C231.734 33.8012 232.517 33.9204 233.43 33.9204C234.356 33.9204 235.17 33.854 235.872 33.7203C236.574 33.5871 237.181 33.4396 237.693 33.2782C238.206 33.117 238.63 32.9696 238.967 32.836C239.304 32.7027 239.578 32.6359 239.788 32.6359C239.915 32.6359 240.02 32.6606 240.104 32.7096C240.188 32.759 240.259 32.8465 240.315 32.9728C240.371 33.0991 240.41 33.2782 240.431 33.5098C240.452 33.7414 240.462 34.0329 240.462 34.3835C240.462 34.6925 240.455 34.9557 240.441 35.1732C240.427 35.3909 240.406 35.5768 240.378 35.7312C240.35 35.8857 240.308 36.0154 240.252 36.1206C240.195 36.226 240.122 36.328 240.031 36.426C239.939 36.5245 239.69 36.6577 239.283 36.8261C238.876 36.9945 238.357 37.1598 237.725 37.3209C237.093 37.4821 236.37 37.6226 235.556 37.742C234.742 37.8611 233.872 37.9209 232.945 37.9209C231.275 37.9209 229.811 37.7104 228.555 37.2893C227.299 36.8682 226.249 36.2296 225.407 35.3732C224.565 34.5172 223.937 33.4361 223.523 32.1306C223.108 30.8251 222.902 29.2952 222.902 27.5405C222.902 25.8701 223.119 24.3645 223.554 23.0239C223.989 21.6835 224.621 20.5465 225.449 19.6129C226.277 18.6795 227.284 17.9671 228.471 17.4757C229.657 16.9845 230.994 16.7388 232.482 16.7388C234.054 16.7388 235.398 16.9703 236.514 17.4336C237.63 17.8968 238.546 18.5391 239.262 19.3602C239.978 20.1812 240.504 21.1536 240.841 22.2764C241.178 23.3996 241.346 24.6209 241.346 25.9401V26.7823Z" fill="#B8B8B8"/>
<path d="M256.528 34.8678C256.528 35.4855 256.489 35.9594 256.412 36.2889C256.334 36.6191 256.233 36.8505 256.106 36.984C255.98 37.1174 255.794 37.2366 255.548 37.3418C255.303 37.4471 255.015 37.5381 254.685 37.6155C254.355 37.6925 253.997 37.7524 253.611 37.7944C253.225 37.8366 252.836 37.8577 252.443 37.8577C251.39 37.8577 250.477 37.7241 249.705 37.4576C248.933 37.1911 248.295 36.7806 247.789 36.2258C247.284 35.6715 246.912 34.973 246.673 34.1308C246.435 33.2885 246.315 32.292 246.315 31.1409V21.5182H244.062C243.796 21.5182 243.592 21.3535 243.452 21.0234C243.311 20.6938 243.241 20.1427 243.241 19.3704C243.241 18.9636 243.259 18.6198 243.294 18.3389C243.329 18.0582 243.381 17.837 243.452 17.6755C243.522 17.5144 243.61 17.3985 243.715 17.3282C243.82 17.258 243.943 17.2228 244.083 17.2228H246.315V13.0328C246.315 12.8926 246.354 12.7662 246.431 12.6538C246.508 12.5415 246.649 12.4468 246.852 12.3695C247.056 12.2924 247.329 12.2361 247.674 12.2011C248.017 12.1661 248.442 12.1484 248.947 12.1484C249.467 12.1484 249.898 12.1661 250.242 12.2011C250.586 12.2361 250.856 12.2924 251.053 12.3695C251.249 12.4468 251.39 12.5415 251.474 12.6538C251.558 12.7662 251.6 12.8926 251.6 13.0328V17.2228H255.685C255.826 17.2228 255.948 17.258 256.054 17.3282C256.159 17.3985 256.247 17.5144 256.317 17.6755C256.387 17.837 256.44 18.0582 256.475 18.3389C256.51 18.6198 256.528 18.9636 256.528 19.3704C256.528 20.1427 256.457 20.6938 256.317 21.0234C256.177 21.3535 255.973 21.5182 255.706 21.5182H251.6V30.3407C251.6 31.3655 251.762 32.134 252.085 32.6463C252.408 33.159 252.983 33.4148 253.811 33.4148C254.092 33.4148 254.345 33.3905 254.569 33.3413C254.794 33.2921 254.994 33.2359 255.169 33.1727C255.345 33.1096 255.492 33.0537 255.612 33.0042C255.731 32.9552 255.84 32.9306 255.938 32.9306C256.022 32.9306 256.103 32.9552 256.18 33.0042C256.257 33.0537 256.317 33.1517 256.359 33.299C256.401 33.4465 256.44 33.6465 256.475 33.8991C256.51 34.1518 256.528 34.475 256.528 34.8678Z" fill="#B8B8B8"/>
</svg>
