<svg width="3923" height="1223" viewBox="0 0 3923 1223" fill="none" xmlns="http://www.w3.org/2000/svg">
<path d="M639.024 444.978C629.689 468.267 596.712 468.267 587.378 444.978L432.545 58.6875C427.196 45.3434 433.035 30.3573 446.606 25.6042C476.309 15.2004 533.368 0 613.203 0C693.036 0 750.094 15.2003 779.796 25.6041C793.366 30.3573 799.205 45.3431 793.857 58.687L639.024 444.978Z" fill="#c7c7c7"/>
<path d="M748.671 513.148C725.598 523.017 702.28 499.705 712.152 476.638L875.885 94.0333C881.541 80.8165 896.269 74.3476 909.227 80.5801C937.589 94.2219 988.687 123.81 1045.14 180.247C1101.59 236.684 1131.18 287.768 1144.83 316.122C1151.06 329.076 1144.59 343.801 1131.37 349.455L748.671 513.148Z" fill="#c7c7c7"/>
<path d="M777.98 638.864C754.684 629.531 754.684 596.563 777.98 587.231L1164.37 432.436C1177.71 427.089 1192.7 432.927 1197.46 446.494C1207.86 476.19 1223.07 533.235 1223.07 613.049C1223.07 692.863 1207.86 749.906 1197.46 779.601C1192.7 793.168 1177.71 799.005 1164.37 793.658L777.98 638.864Z" fill="#c7c7c7"/>
<path d="M709.768 748.479C699.897 725.412 723.215 702.1 746.288 711.969L1128.99 875.661C1142.21 881.316 1148.68 896.041 1142.44 908.995C1128.8 937.35 1099.2 988.435 1042.75 1044.87C986.301 1101.31 935.205 1130.9 906.843 1144.54C893.886 1150.77 879.158 1144.3 873.502 1131.08L709.768 748.479Z" fill="#c7c7c7"/>
<path d="M474.398 709.614C497.471 699.745 520.788 723.057 510.917 746.124L347.184 1128.73C341.528 1141.95 326.799 1148.41 313.842 1142.18C285.48 1128.54 234.382 1098.95 177.931 1042.51C121.479 986.077 91.8848 934.994 78.2403 906.639C72.0065 893.685 78.477 878.961 91.6969 873.306L474.398 709.614Z" fill="#c7c7c7"/>
<path d="M445.089 583.898C468.384 593.23 468.384 626.198 445.089 635.531L58.7022 790.325C45.3547 795.672 30.3649 789.835 25.6106 776.267C15.2042 746.571 -6.72951e-06 689.527 0 609.713C6.72949e-06 529.899 15.2041 472.856 25.6105 443.161C30.3649 429.594 45.3545 423.756 58.7017 429.103L445.089 583.898Z" fill="#c7c7c7"/>
<path d="M513.3 474.282C523.172 497.349 499.854 520.661 476.781 510.792L94.0808 347.1C80.8607 341.445 74.3902 326.721 80.6242 313.766C94.2694 285.411 123.865 234.326 180.316 177.889C236.768 121.452 287.864 91.8652 316.225 78.2241C329.183 71.9918 343.911 78.4607 349.567 91.6773L513.3 474.282Z" fill="#c7c7c7"/>
<path d="M1698.08 410.53H1806.84C1805.39 441.903 1796.9 469.561 1781.36 493.504C1765.82 517.446 1744.28 536.126 1716.73 549.542C1689.38 562.751 1657.06 569.356 1619.78 569.356C1589.53 569.356 1562.5 564.299 1538.67 554.186C1515.06 544.072 1494.96 529.521 1478.39 510.532C1462.03 491.543 1449.49 468.529 1440.79 441.49C1432.3 414.452 1428.05 384.007 1428.05 350.158V325.699C1428.05 291.849 1432.51 261.405 1441.41 234.366C1450.53 207.121 1463.37 184.004 1479.95 165.015C1496.73 145.82 1516.82 131.165 1540.23 121.052C1563.64 110.938 1589.64 105.881 1618.22 105.881C1657.58 105.881 1690.83 112.899 1717.97 126.934C1745.11 140.969 1766.13 160.268 1781.05 184.83C1795.96 209.185 1804.77 236.946 1807.46 268.113H1698.7C1698.29 251.188 1695.39 237.049 1690 225.697C1684.62 214.139 1676.12 205.47 1664.52 199.691C1652.92 193.911 1637.49 191.022 1618.22 191.022C1604.76 191.022 1593.05 193.499 1583.11 198.452C1573.17 203.406 1564.88 211.249 1558.25 221.982C1551.62 232.715 1546.65 246.647 1543.34 263.778C1540.23 280.703 1538.67 301.137 1538.67 325.08V350.158C1538.67 374.1 1540.12 394.534 1543.02 411.459C1545.92 428.384 1550.59 442.213 1557.01 452.946C1563.43 463.679 1571.72 471.625 1581.87 476.785C1592.22 481.739 1604.86 484.216 1619.78 484.216C1636.35 484.216 1650.33 481.635 1661.73 476.475C1673.12 471.109 1681.92 463.059 1688.14 452.326C1694.35 441.387 1697.67 427.455 1698.08 410.53Z" fill="#c7c7c7"/>
<path d="M2157.35 479.571V563.164H1928.65V479.571H2157.35ZM1967.49 112.383V563.164H1858.42V112.383H1967.49Z" fill="#c7c7c7"/>
<path d="M2441.36 112.383H2550.43V406.815C2550.43 441.903 2543.08 471.625 2528.37 495.98C2513.66 520.129 2493.05 538.396 2466.53 550.78C2440.02 563.164 2408.84 569.356 2373 569.356C2337.58 569.356 2306.4 563.164 2279.47 550.78C2252.75 538.396 2231.82 520.129 2216.7 495.98C2201.79 471.625 2194.33 441.903 2194.33 406.815V112.383H2303.71V406.815C2303.71 425.391 2306.4 440.562 2311.79 452.326C2317.17 463.885 2325.04 472.347 2335.4 477.714C2345.76 483.08 2358.29 485.764 2373 485.764C2387.92 485.764 2400.45 483.08 2410.6 477.714C2420.75 472.347 2428.42 463.885 2433.59 452.326C2438.77 440.562 2441.36 425.391 2441.36 406.815V112.383Z" fill="#c7c7c7"/>
<path d="M2803.68 371.52H2687.15L2686.53 300.312H2781C2797.98 300.312 2811.55 298.454 2821.7 294.739C2831.85 290.817 2839.21 285.141 2843.77 277.711C2848.53 270.28 2850.91 260.992 2850.91 249.846C2850.91 237.049 2848.53 226.729 2843.77 218.886C2839 211.043 2831.44 205.367 2821.08 201.858C2810.93 198.143 2797.78 196.285 2781.62 196.285H2728.17V563.164H2619.1V112.383H2781.62C2809.58 112.383 2834.55 114.963 2856.51 120.123C2878.46 125.077 2897.11 132.713 2912.44 143.033C2927.98 153.354 2939.78 166.357 2947.86 182.043C2955.94 197.524 2959.98 215.79 2959.98 236.843C2959.98 255.213 2956.05 272.447 2948.17 288.547C2940.3 304.646 2927.15 317.753 2908.71 327.866C2890.48 337.773 2865.52 342.934 2833.82 343.346L2803.68 371.52ZM2799.33 563.164H2660.74L2698.03 479.571H2799.33C2814.25 479.571 2826.16 477.301 2835.07 472.76C2844.18 468.013 2850.71 461.821 2854.64 454.184C2858.78 446.341 2860.86 437.672 2860.86 428.177C2860.86 416.619 2858.89 406.608 2854.95 398.146C2851.22 389.684 2845.22 383.182 2836.93 378.641C2828.64 373.894 2817.56 371.52 2803.68 371.52H2712.01L2712.64 300.312H2822.32L2847.81 328.795C2878.05 327.557 2901.98 331.788 2919.59 341.489C2937.4 351.19 2950.14 363.987 2957.81 379.879C2965.47 395.772 2969.3 412.388 2969.3 429.725C2969.3 459.241 2962.88 483.906 2950.04 503.72C2937.4 523.535 2918.45 538.396 2893.17 548.303C2867.9 558.211 2836.62 563.164 2799.33 563.164Z" fill="#c7c7c7"/>
<path d="M1823.62 896.813V915.079C1823.62 949.548 1818.75 980.508 1809.01 1007.96C1799.49 1035.2 1785.92 1058.53 1768.31 1077.93C1750.7 1097.13 1729.88 1111.88 1705.85 1122.2C1681.82 1132.32 1655.3 1137.37 1626.3 1137.37C1597.09 1137.37 1570.37 1132.32 1546.13 1122.2C1522.1 1111.88 1501.18 1097.13 1483.36 1077.93C1465.76 1058.53 1452.08 1035.2 1442.35 1007.96C1432.82 980.508 1428.05 949.548 1428.05 915.079V896.813C1428.05 862.343 1432.82 831.383 1442.35 803.932C1452.08 776.48 1465.65 753.157 1483.05 733.962C1500.66 714.56 1521.48 699.802 1545.51 689.688C1569.75 679.368 1596.47 674.208 1625.68 674.208C1654.68 674.208 1681.2 679.368 1705.23 689.688C1729.47 699.802 1750.39 714.56 1768 733.962C1785.61 753.157 1799.28 776.48 1809.01 803.932C1818.75 831.383 1823.62 862.343 1823.62 896.813ZM1713 915.079V896.193C1713 873.902 1711.03 854.294 1707.09 837.369C1703.36 820.237 1697.77 805.893 1690.31 794.334C1682.86 782.776 1673.64 774.107 1662.66 768.327C1651.89 762.342 1639.56 759.349 1625.68 759.349C1611.18 759.349 1598.54 762.342 1587.77 768.327C1577 774.107 1567.99 782.776 1560.74 794.334C1553.49 805.893 1548 820.237 1544.27 837.369C1540.75 854.294 1538.99 873.902 1538.99 896.193V915.079C1538.99 937.164 1540.75 956.772 1544.27 973.903C1548 990.828 1553.49 1005.17 1560.74 1016.94C1568.19 1028.7 1577.31 1037.58 1588.08 1043.56C1599.06 1049.55 1611.8 1052.54 1626.3 1052.54C1640.18 1052.54 1652.51 1049.55 1663.28 1043.56C1674.05 1037.58 1683.06 1028.7 1690.31 1016.94C1697.77 1005.17 1703.36 990.828 1707.09 973.903C1711.03 956.772 1713 937.164 1713 915.079Z" fill="#c7c7c7"/>
<path d="M1880.17 680.4H2058.23C2093.03 680.4 2123.27 685.56 2148.96 695.88C2174.65 706.2 2194.43 721.474 2208.31 741.702C2222.4 761.929 2229.44 786.904 2229.44 816.625C2229.44 842.426 2225.4 863.995 2217.32 881.332C2209.24 898.67 2197.95 913.015 2183.45 924.367C2169.16 935.513 2152.48 944.698 2133.42 951.922L2097.69 972.046H1948.22L1947.6 888.144H2058.23C2072.1 888.144 2083.6 885.667 2092.72 880.713C2101.83 875.76 2108.67 868.742 2113.23 859.66C2117.99 850.372 2120.37 839.33 2120.37 826.533C2120.37 813.529 2117.99 802.384 2113.23 793.096C2108.46 783.808 2101.42 776.687 2092.1 771.733C2082.98 766.779 2071.69 764.303 2058.23 764.303H1989.24V1131.18H1880.17V680.4ZM2127.83 1131.18L2027.77 931.798L2143.37 931.178L2244.67 1126.54V1131.18H2127.83Z" fill="#c7c7c7"/>
<path d="M2487.04 775.139L2376.73 1131.18H2259.58L2425.83 680.4H2500.09L2487.04 775.139ZM2578.4 1131.18L2467.78 775.139L2453.48 680.4H2528.68L2695.86 1131.18H2578.4ZM2574.05 963.067V1046.97H2341.93V963.067H2574.05Z" fill="#c7c7c7"/>
<path d="M3106.96 680.4V1131.18H2998.2L2838.17 850.682V1131.18H2729.1V680.4H2838.17L2998.2 960.9V680.4H3106.96Z" fill="#c7c7c7"/>
<path d="M3546.03 890.311V1075.45C3538.36 1083.92 3526.56 1093 3510.61 1102.7C3494.86 1112.19 3474.97 1120.35 3450.94 1127.16C3426.91 1133.97 3398.64 1137.37 3366.11 1137.37C3336.08 1137.37 3308.83 1132.63 3284.39 1123.13C3259.94 1113.43 3238.92 1099.29 3221.31 1080.72C3203.91 1061.93 3190.44 1039.02 3180.91 1011.98C3171.59 984.74 3166.93 953.573 3166.93 918.485V893.407C3166.93 858.319 3171.7 827.152 3181.22 799.907C3190.75 772.662 3204.12 749.751 3221.31 731.175C3238.71 712.393 3259.12 698.151 3282.52 688.45C3306.14 678.749 3332.04 673.899 3360.21 673.899C3401.85 673.899 3435.72 680.504 3461.82 693.713C3487.92 706.717 3507.71 724.777 3521.17 747.894C3534.64 770.804 3542.82 797.327 3545.72 827.462H3441C3438.93 812.601 3434.99 800.01 3429.19 789.69C3423.6 779.164 3415.52 771.217 3404.95 765.851C3394.39 760.278 3380.72 757.491 3363.94 757.491C3350.89 757.491 3338.98 760.278 3328.2 765.851C3317.64 771.423 3308.63 779.886 3301.17 791.238C3293.71 802.384 3287.91 816.419 3283.77 833.344C3279.83 850.269 3277.86 870.084 3277.86 892.788V918.485C3277.86 940.982 3279.73 960.694 3283.46 977.619C3287.39 994.544 3293.19 1008.68 3300.86 1020.03C3308.73 1031.18 3318.67 1039.64 3330.69 1045.42C3342.91 1050.99 3357.31 1053.78 3373.88 1053.78C3385.48 1053.78 3395.43 1052.85 3403.71 1050.99C3412 1048.93 3418.83 1046.45 3424.22 1043.56C3429.81 1040.47 3434.06 1037.58 3436.96 1034.9V964.925H3361.14V890.311H3546.03Z" fill="#c7c7c7"/>
<path d="M3921.09 1047.59V1131.18H3679.96V1047.59H3921.09ZM3718.8 680.4V1131.18H3609.73V680.4H3718.8ZM3890.01 859.351V940.157H3679.96V859.351H3890.01ZM3922.02 680.4V764.303H3679.96V680.4H3922.02Z" fill="#c7c7c7"/>
</svg>
