<svg width="154" height="28" viewBox="0 0 154 28" fill="none" xmlns="http://www.w3.org/2000/svg">
<path d="M0.564667 17.238H3.75387L8.11096 10.3805V5.37206L0.564667 17.238ZM12.4381 1.01497H9.15905V10.5901L8.91949 10.9719L5.86504 15.7707L4.93672 17.2455H8.12593L12.4531 10.4329V1.01497H12.4381ZM13.9054 17.0434L13.5236 17.6348V27.0003H16.8027V17.4851L20.9651 10.9719H17.7759L13.8905 17.0434H13.9054ZM16.8102 1.01497H13.5311V10.5751L13.2915 10.9569L9.43605 17.0284L9.18151 17.4401V26.9853H12.4606V17.4701L16.8176 10.6425V1V1.01497H16.8102ZM25.3222 10.9719H22.133L17.8508 17.6797V22.6582L25.3222 10.9869V10.9719Z" fill="#B8B8B8"/>
<path fill-rule="evenodd" clip-rule="evenodd" d="M39.3936 9.74622C39.8529 9.95499 40.2392 10.2368 40.5314 10.6126L40.5419 10.5917L40.521 10.55L42.9114 8.5771C42.5983 8.20131 42.2538 7.87771 41.878 7.60631C41.4918 7.34534 41.0951 7.13657 40.6671 6.96955C40.26 6.82341 39.8425 6.69815 39.3936 6.63552C39.2742 6.61222 39.2109 6.59217 39.1578 6.57537C39.0207 6.53196 38.9521 6.51025 38.1619 6.51025C37.0658 6.51025 36.0428 6.70859 35.1138 7.04262C34.1848 7.37666 33.381 7.88815 32.7025 8.54578C32.024 9.18254 31.4916 9.96543 31.1158 10.8945C30.7505 11.8235 30.5626 12.8465 30.5626 13.9843C30.5626 15.1221 30.74 16.1451 31.1158 17.0741C31.4916 18.0032 32.024 18.786 32.7025 19.4437C33.381 20.0804 34.1848 20.5919 35.1138 20.926C36.0428 21.2913 37.2015 21.4583 38.1619 21.4583C39.1222 21.4583 40.0721 21.2704 40.9803 20.8633C41.8885 20.4667 42.6505 19.8508 43.2455 19.0053L40.6671 17.0532C40.3435 17.5334 39.9469 17.8988 39.4563 18.1702C38.9761 18.452 38.3184 18.5773 37.7652 18.5773C37.212 18.5773 36.69 18.4729 36.1994 18.2432C35.7297 18.0136 35.3017 17.7004 34.9468 17.2933C34.5919 16.8862 34.31 16.406 34.1013 15.8528C33.9134 15.31 33.809 14.6628 33.809 14.0156C33.809 13.3684 33.9134 12.7734 34.1013 12.1993C34.31 11.646 34.5919 11.1659 34.9468 10.7588C35.3121 10.3412 35.7506 10.0176 36.2412 9.78798C36.7527 9.55833 37.2955 9.45394 37.8696 9.45394C38.4437 9.45394 38.9448 9.55833 39.3936 9.74622ZM47.9115 14.0156C47.9115 12.8778 48.0994 11.8548 48.4648 10.9258C48.8406 9.99676 49.3729 9.21386 50.0514 8.57711C50.7299 7.91948 51.5337 7.40799 52.4627 7.07395C53.3918 6.73992 54.4148 6.54158 55.5108 6.54158C56.6069 6.54158 57.6299 6.7086 58.5589 7.07395C59.4879 7.40799 60.2917 7.91948 60.9702 8.57711C61.6487 9.21386 62.1811 9.99676 62.536 10.9258C62.9118 11.8548 63.1101 12.8778 63.1101 14.0156C63.1101 15.1534 62.9222 16.1764 62.536 17.1054C62.1602 18.0345 61.6487 18.8174 60.9702 19.475C60.2917 20.1118 59.4879 20.6128 58.5589 20.9573C57.6299 21.2913 56.6069 21.4897 55.5108 21.4897C54.4148 21.4897 53.3918 21.3226 52.4627 20.9573C51.5337 20.6233 50.7299 20.1118 50.0514 19.475C49.3729 18.8174 48.8406 18.0345 48.4648 17.1054C48.089 16.1764 47.9115 15.1534 47.9115 14.0156ZM51.1579 14.0156C51.1579 14.6941 51.2623 15.31 51.4502 15.8528C51.659 16.4061 51.9617 16.8862 52.3375 17.2933C52.7133 17.7004 53.183 18.0136 53.7154 18.2433C54.2686 18.4729 54.8532 18.5773 55.5317 18.5773C56.2102 18.5773 56.8052 18.4729 57.3271 18.2433C57.8804 18.0136 58.3397 17.69 58.7259 17.2933C59.1017 16.8654 59.4044 16.4061 59.5923 15.8528C59.8011 15.2787 59.9055 14.6628 59.9055 14.0156C59.9055 13.3684 59.8011 12.7421 59.5923 12.1993C59.4044 11.6252 59.1017 11.1659 58.7259 10.7588C58.3501 10.3308 57.8804 10.0176 57.3271 9.78799C56.7948 9.55834 56.2102 9.45395 55.5317 9.45395C54.8532 9.45395 54.2582 9.55834 53.7154 9.78799C53.183 10.0176 52.7237 10.3412 52.3375 10.7588C51.9617 11.1659 51.659 11.6461 51.4502 12.1993C51.2623 12.7734 51.1579 13.3684 51.1579 14.0156ZM109.76 10.9258C109.395 11.8548 109.207 12.8778 109.207 14.0156C109.207 15.1534 109.384 16.1764 109.76 17.1054C110.136 18.0345 110.668 18.8174 111.347 19.475C112.025 20.1118 112.829 20.6233 113.758 20.9573C114.687 21.3226 115.71 21.4897 116.806 21.4897C117.902 21.4897 118.925 21.2913 119.854 20.9573C120.783 20.6128 121.587 20.1118 122.266 19.475C122.944 18.8174 123.456 18.0345 123.832 17.1054C124.218 16.1764 124.406 15.1534 124.406 14.0156C124.406 12.8778 124.207 11.8548 123.832 10.9258C123.477 9.99676 122.944 9.21386 122.266 8.57711C121.587 7.91948 120.783 7.40799 119.854 7.07395C118.925 6.7086 117.902 6.54158 116.806 6.54158C115.71 6.54158 114.687 6.73992 113.758 7.07395C112.829 7.40799 112.025 7.91948 111.347 8.57711C110.668 9.21386 110.136 9.99676 109.76 10.9258ZM112.714 15.8528C112.527 15.31 112.422 14.6941 112.422 14.0156C112.422 13.3684 112.527 12.7734 112.714 12.1993C112.923 11.6461 113.226 11.1659 113.602 10.7588C113.988 10.3412 114.447 10.0176 114.98 9.78799C115.522 9.55834 116.117 9.45395 116.796 9.45395C117.474 9.45395 118.059 9.55834 118.591 9.78799C119.145 10.0176 119.614 10.3308 119.99 10.7588C120.366 11.1659 120.669 11.6252 120.857 12.1993C121.065 12.7421 121.17 13.3684 121.17 14.0156C121.17 14.6628 121.065 15.2787 120.857 15.8528C120.669 16.4061 120.366 16.8654 119.99 17.2933C119.604 17.69 119.145 18.0136 118.591 18.2433C118.069 18.4729 117.474 18.5773 116.796 18.5773C116.117 18.5773 115.533 18.4729 114.98 18.2433C114.447 18.0136 113.977 17.7004 113.602 17.2933C113.226 16.8862 112.923 16.4061 112.714 15.8528ZM130.711 6.88646H133.821V18.2123H139.573V21.1143H130.731V6.91778L130.711 6.8969V6.88646ZM146.306 9.66313H142.308V6.88646H153.435V9.66313H149.416V21.0934H146.306V9.66313ZM93.0377 6.88646H93.0481H98.2883C98.9041 6.88646 99.52 6.92822 100.105 7.0326C100.72 7.11611 101.295 7.28313 101.775 7.56497C102.265 7.8155 102.662 8.18085 102.965 8.64015C103.257 9.10988 103.435 9.7362 103.435 10.4982C103.435 11.2602 103.205 11.9805 102.756 12.5129C102.307 13.0452 101.743 13.4001 101.002 13.6298V13.6716C101.472 13.7342 101.89 13.8594 102.255 14.0787C102.631 14.2666 102.975 14.5275 103.226 14.8198C103.497 15.1121 103.716 15.4566 103.862 15.8532C104.009 16.2499 104.071 16.6779 104.071 17.1476C104.071 17.8887 103.904 18.5255 103.581 19.0266C103.267 19.5172 102.86 19.9138 102.349 20.2374C101.837 20.5506 101.274 20.7698 100.637 20.8951C100.021 21.0203 99.3843 21.083 98.7789 21.083H93.0063V6.88646H93.0377ZM96.1484 12.5651H98.3927C98.6223 12.5651 98.8624 12.5442 99.092 12.4816C99.3217 12.4189 99.5409 12.3354 99.7288 12.231C99.9167 12.1058 100.063 11.9596 100.178 11.7404C100.303 11.5525 100.345 11.2916 100.345 11.0201C100.345 10.7487 100.282 10.4878 100.157 10.2999C100.032 10.112 99.8854 9.94497 99.6662 9.83015C99.4783 9.72576 99.2382 9.64225 98.9877 9.62137C98.7371 9.55874 98.4762 9.53787 98.2465 9.53787H96.1275V12.5651H96.1484ZM96.1588 18.442H98.9459C99.1756 18.442 99.4365 18.4211 99.6662 18.3585C99.9167 18.2959 100.157 18.2123 100.345 18.0871C100.533 17.9618 100.7 17.7739 100.835 17.5547C100.971 17.3355 101.023 17.085 101.023 16.7718C101.023 16.4587 100.94 16.1768 100.773 15.968C100.606 15.7593 100.418 15.5923 100.157 15.4774C99.8958 15.3626 99.6244 15.2895 99.3321 15.2687C99.0398 15.2269 98.758 15.206 98.5075 15.206H96.1588V18.442ZM67.5466 6.88646H67.5361H67.5257L71.6907 21.083H74.3525L77.4632 11.2394H77.505L80.6157 21.083H83.3924L87.5156 6.88646H84.3632L81.9936 16.2394H81.9518L79.029 6.88646H76.148L73.2043 15.9889H73.1625L70.9182 6.88646H67.5466Z" fill="#B8B8B8"/>
</svg>
