<?xml version="1.0" encoding="UTF-8"?>
<svg id="Layer_1" xmlns="http://www.w3.org/2000/svg" version="1.1" viewBox="0 0 1621.4 433.9">
  <!-- Generator: Adobe Illustrator 29.1.0, SVG Export Plug-In . SVG Version: 2.1.0 Build 142)  -->
  <defs>
    <style>
      .st0 {
        fill: #b8b8b8;
      }
    </style>
  </defs>
  <path class="st0" d="M1527.4,176.4h-38.5v-26.6h106.6v26.6h-38.5v109.5h-29.8v-109.5h.2Z"/>
  <path class="st0" d="M1377.8,149.8h29.8v108.5h55.1v27.8h-84.7v-136l-.2-.2Z"/>
  <path class="st0" d="M1171.8,218.1c0-10.9,1.8-20.7,5.3-29.6,3.6-8.9,8.7-16.4,15.2-22.5,6.5-6.3,14.2-11.2,23.1-14.4s18.7-5.1,29.2-5.1,20.3,1.6,29.2,5.1c8.9,3.2,16.6,8.1,23.1,14.4,6.5,6.1,11.6,13.6,15,22.5,3.6,8.9,5.5,18.7,5.5,29.6s-1.8,20.7-5.5,29.6c-3.6,8.9-8.5,16.4-15,22.7-6.5,6.1-14.2,10.9-23.1,14.2-8.9,3.2-18.7,5.1-29.2,5.1s-20.3-1.6-29.2-5.1c-8.9-3.2-16.6-8.1-23.1-14.2-6.5-6.3-11.6-13.8-15.2-22.7s-5.3-18.7-5.3-29.6ZM1202.6,218.1c0,6.5,1,12.4,2.8,17.6,2,5.3,4.9,9.9,8.5,13.8,3.6,3.9,8.1,6.9,13.2,9.1,5.3,2.2,10.9,3.2,17.4,3.2s12.2-1,17.2-3.2c5.3-2.2,9.7-5.3,13.4-9.1,3.6-4.1,6.5-8.5,8.3-13.8,2-5.5,3-11.4,3-17.6s-1-12.2-3-17.4c-1.8-5.5-4.7-9.9-8.3-13.8-3.6-4.1-8.1-7.1-13.4-9.3-5.1-2.2-10.7-3.2-17.2-3.2s-12.2,1-17.4,3.2c-5.1,2.2-9.5,5.3-13.2,9.3-3.6,3.9-6.5,8.5-8.5,13.8-1.8,5.5-2.8,11.2-2.8,17.4Z"/>
  <path class="st0" d="M1016.9,149.8h50.3c5.9,0,11.8.4,17.4,1.4,5.9.8,11.4,2.4,16,5.1,4.7,2.4,8.5,5.9,11.4,10.3,2.8,4.5,4.5,10.5,4.5,17.8s-2.2,14.2-6.5,19.3c-4.3,5.1-9.7,8.5-16.8,10.7v.4c4.5.6,8.5,1.8,12,3.9,3.6,1.8,6.9,4.3,9.3,7.1,2.6,2.8,4.7,6.1,6.1,9.9s2,7.9,2,12.4c0,7.1-1.6,13.2-4.7,18-3,4.7-6.9,8.5-11.8,11.6-4.9,3-10.3,5.1-16.4,6.3-5.9,1.2-12,1.8-17.8,1.8h-55.3v-136h.4ZM1046.7,204.2h21.5c2.2,0,4.5-.2,6.7-.8,2.2-.6,4.3-1.4,6.1-2.4,1.8-1.2,3.2-2.6,4.3-4.7,1.2-1.8,1.6-4.3,1.6-6.9s-.6-5.1-1.8-6.9c-1.2-1.8-2.6-3.4-4.7-4.5-1.8-1-4.1-1.8-6.5-2-2.4-.6-4.9-.8-7.1-.8h-20.3v29h.2ZM1046.7,260.5h26.8c2.2,0,4.7-.2,6.9-.8,2.4-.6,4.7-1.4,6.5-2.6s3.4-3,4.7-5.1,1.8-4.5,1.8-7.5-.8-5.7-2.4-7.7-3.4-3.6-5.9-4.7-5.1-1.8-7.9-2c-2.8-.4-5.5-.6-7.9-.6h-22.5v31h0Z"/>
  <path class="st0" d="M772.6,149.8h32.4l21.5,87.2h.4l28.2-87.2h27.6l28,89.6h.4l22.7-89.6h30.2l-39.5,136h-26.6l-29.8-94.3h-.4l-29.8,94.3h-25.5l-39.9-136h.2Z"/>
  <path class="st0" d="M584.6,218.1c0-10.9,1.8-20.7,5.3-29.6,3.6-8.9,8.7-16.4,15.2-22.5,6.5-6.3,14.2-11.2,23.1-14.4s18.7-5.1,29.2-5.1,20.3,1.6,29.2,5.1c8.9,3.2,16.6,8.1,23.1,14.4,6.5,6.1,11.6,13.6,15,22.5,3.6,8.9,5.5,18.7,5.5,29.6s-1.8,20.7-5.5,29.6c-3.6,8.9-8.5,16.4-15,22.7-6.5,6.1-14.2,10.9-23.1,14.2-8.9,3.2-18.7,5.1-29.2,5.1s-20.3-1.6-29.2-5.1c-8.9-3.2-16.6-8.1-23.1-14.2-6.5-6.3-11.6-13.8-15.2-22.7-3.6-8.9-5.3-18.7-5.3-29.6ZM615.7,218.1c0,6.5,1,12.4,2.8,17.6,2,5.3,4.9,9.9,8.5,13.8,3.6,3.9,8.1,6.9,13.2,9.1,5.3,2.2,10.9,3.2,17.4,3.2s12.2-1,17.2-3.2c5.3-2.2,9.7-5.3,13.4-9.1,3.6-4.1,6.5-8.5,8.3-13.8,2-5.5,3-11.4,3-17.6s-1-12.2-3-17.4c-1.8-5.5-4.7-9.9-8.3-13.8-3.6-4.1-8.1-7.1-13.4-9.3-5.1-2.2-10.7-3.2-17.2-3.2s-12.2,1-17.4,3.2c-5.1,2.2-9.5,5.3-13.2,9.3-3.6,3.9-6.5,8.5-8.5,13.8-1.8,5.5-2.8,11.2-2.8,17.4Z"/>
  <path class="st0" d="M513.9,185.5c-2.8-3.6-6.5-6.3-10.9-8.3-4.3-1.8-9.1-2.8-14.6-2.8s-10.7,1-15.6,3.2c-4.7,2.2-8.9,5.3-12.4,9.3-3.4,3.9-6.1,8.5-8.1,13.8-1.8,5.5-2.8,11.2-2.8,17.4s1,12.4,2.8,17.6c2,5.3,4.7,9.9,8.1,13.8,3.4,3.9,7.5,6.9,12,9.1,4.7,2.2,9.7,3.2,15,3.2s11.6-1.2,16.2-3.9c4.7-2.6,8.5-6.1,11.6-10.7l24.7,18.7c-5.7,8.1-13,14-21.7,17.8-8.7,3.9-17.8,5.7-27,5.7s-20.3-1.6-29.2-5.1c-8.9-3.2-16.6-8.1-23.1-14.2-6.5-6.3-11.6-13.8-15.2-22.7s-5.3-18.7-5.3-29.6,1.8-20.7,5.3-29.6c3.6-8.9,8.7-16.4,15.2-22.5,6.5-6.3,14.2-11.2,23.1-14.4s18.7-5.1,29.2-5.1,7.7.4,11.8,1.2c4.3.6,8.3,1.8,12.2,3.2,4.1,1.6,7.9,3.6,11.6,6.1,3.6,2.6,6.9,5.7,9.9,9.3l-22.9,18.9.2.4Z"/>
  <path class="st0" d="M22.4,260.3h42.6l58.2-91.6v-66.9L22.4,260.3ZM181,43.6h-43.8v127.9l-3.2,5.1h0l-40.8,64.1h0l-12.4,19.7h42.6l57.8-91V43.6h-.2ZM200.6,257.7h0l-5.1,7.9v125.1h43.8v-127.1l55.6-87h-42.6l-51.9,81.1h.2ZM239.4,43.6h-43.8v127.7l-3.2,5.1h0l-51.5,81.1h0l-3.4,5.5v127.5h43.8v-127.1l58.2-91.2V43.4v.2ZM353.1,176.6h-42.6l-57.2,89.6v66.5l99.8-155.9v-.2Z"/>
</svg>