<?xml version="1.0" encoding="UTF-8"?>
<svg id="Layer_1" xmlns="http://www.w3.org/2000/svg" version="1.1" viewBox="0 0 782 278">
  <!-- Generator: Adobe Illustrator 29.1.0, SVG Export Plug-In . SVG Version: 2.1.0 Build 142)  -->
  <defs>
    <style>
      .st0 {
        fill: #b8b8b8;
      }
    </style>
  </defs>
  <path class="st0" d="M744.3,122.5h-19v-13.1h52.6v13.1h-19v54h-14.7v-54Z"/>
  <path class="st0" d="M670.5,109.4h14.7v53.5h27.2v13.7h-41.8v-67.1Z"/>
  <path class="st0" d="M568.9,143.1c0-5.4.9-10.2,2.6-14.6,1.8-4.4,4.3-8.1,7.5-11.1,3.2-3.1,7-5.5,11.4-7.1,4.4-1.6,9.2-2.5,14.4-2.5s10,.8,14.4,2.5c4.4,1.6,8.2,4,11.4,7.1,3.2,3,5.7,6.7,7.4,11.1,1.8,4.4,2.7,9.2,2.7,14.6s-.9,10.2-2.7,14.6c-1.8,4.4-4.2,8.1-7.4,11.2-3.2,3-7,5.4-11.4,7-4.4,1.6-9.2,2.5-14.4,2.5s-10-.8-14.4-2.5c-4.4-1.6-8.2-4-11.4-7-3.2-3.1-5.7-6.8-7.5-11.2-1.8-4.4-2.6-9.2-2.6-14.6ZM584.1,143.1c0,3.2.5,6.1,1.4,8.7,1,2.6,2.4,4.9,4.2,6.8,1.8,1.9,4,3.4,6.5,4.5,2.6,1.1,5.4,1.6,8.6,1.6s6-.5,8.5-1.6c2.6-1.1,4.8-2.6,6.6-4.5,1.8-2,3.2-4.2,4.1-6.8,1-2.7,1.5-5.6,1.5-8.7s-.5-6-1.5-8.6c-.9-2.7-2.3-4.9-4.1-6.8-1.8-2-4-3.5-6.6-4.6-2.5-1.1-5.3-1.6-8.5-1.6s-6,.5-8.6,1.6c-2.5,1.1-4.7,2.6-6.5,4.6-1.8,1.9-3.2,4.2-4.2,6.8-.9,2.7-1.4,5.5-1.4,8.6Z"/>
  <path class="st0" d="M492.5,109.4h24.8c2.9,0,5.8.2,8.6.7,2.9.4,5.6,1.2,7.9,2.5,2.3,1.2,4.2,2.9,5.6,5.1,1.4,2.2,2.2,5.2,2.2,8.8s-1.1,7-3.2,9.5c-2.1,2.5-4.8,4.2-8.3,5.3v.2c2.2.3,4.2.9,5.9,1.9,1.8.9,3.4,2.1,4.6,3.5,1.3,1.4,2.3,3,3,4.9.7,1.9,1,3.9,1,6.1,0,3.5-.8,6.5-2.3,8.9-1.5,2.3-3.4,4.2-5.8,5.7-2.4,1.5-5.1,2.5-8.1,3.1-2.9.6-5.9.9-8.8.9h-27.3v-67.1ZM507.2,136.2h10.6c1.1,0,2.2-.1,3.3-.4,1.1-.3,2.1-.7,3-1.2.9-.6,1.6-1.3,2.1-2.3.6-.9.8-2.1.8-3.4s-.3-2.5-.9-3.4c-.6-.9-1.3-1.7-2.3-2.2-.9-.5-2-.9-3.2-1-1.2-.3-2.4-.4-3.5-.4h-10v14.3ZM507.2,164h13.2c1.1,0,2.3-.1,3.4-.4,1.2-.3,2.3-.7,3.2-1.3s1.7-1.5,2.3-2.5c.6-1,.9-2.2.9-3.7s-.4-2.8-1.2-3.8c-.8-1-1.7-1.8-2.9-2.3-1.2-.5-2.5-.9-3.9-1-1.4-.2-2.7-.3-3.9-.3h-11.1v15.3Z"/>
  <path class="st0" d="M372,109.4h16l10.6,43h.2l13.9-43h13.6l13.8,44.2h.2l11.2-44.2h14.9l-19.5,67.1h-13.1l-14.7-46.5h-.2l-14.7,46.5h-12.6l-19.7-67.1Z"/>
  <path class="st0" d="M279.3,143.1c0-5.4.9-10.2,2.6-14.6,1.8-4.4,4.3-8.1,7.5-11.1,3.2-3.1,7-5.5,11.4-7.1,4.4-1.6,9.2-2.5,14.4-2.5s10,.8,14.4,2.5c4.4,1.6,8.2,4,11.4,7.1,3.2,3,5.7,6.7,7.4,11.1,1.8,4.4,2.7,9.2,2.7,14.6s-.9,10.2-2.7,14.6c-1.8,4.4-4.2,8.1-7.4,11.2-3.2,3-7,5.4-11.4,7-4.4,1.6-9.2,2.5-14.4,2.5s-10-.8-14.4-2.5c-4.4-1.6-8.2-4-11.4-7-3.2-3.1-5.7-6.8-7.5-11.2-1.8-4.4-2.6-9.2-2.6-14.6ZM294.6,143.1c0,3.2.5,6.1,1.4,8.7,1,2.6,2.4,4.9,4.2,6.8,1.8,1.9,4,3.4,6.5,4.5,2.6,1.1,5.4,1.6,8.6,1.6s6-.5,8.5-1.6c2.6-1.1,4.8-2.6,6.6-4.5,1.8-2,3.2-4.2,4.1-6.8,1-2.7,1.5-5.6,1.5-8.7s-.5-6-1.5-8.6c-.9-2.7-2.3-4.9-4.1-6.8-1.8-2-4-3.5-6.6-4.6-2.5-1.1-5.3-1.6-8.5-1.6s-6,.5-8.6,1.6c-2.5,1.1-4.7,2.6-6.5,4.6-1.8,1.9-3.2,4.2-4.2,6.8-.9,2.7-1.4,5.5-1.4,8.6Z"/>
  <path class="st0" d="M244.4,127c-1.4-1.8-3.2-3.1-5.4-4.1-2.1-.9-4.5-1.4-7.2-1.4s-5.3.5-7.7,1.6c-2.3,1.1-4.4,2.6-6.1,4.6-1.7,1.9-3,4.2-4,6.8-.9,2.7-1.4,5.5-1.4,8.6s.5,6.1,1.4,8.7c1,2.6,2.3,4.9,4,6.8,1.7,1.9,3.7,3.4,5.9,4.5,2.3,1.1,4.8,1.6,7.4,1.6s5.7-.6,8-1.9c2.3-1.3,4.2-3,5.7-5.3l12.2,9.2c-2.8,4-6.4,6.9-10.7,8.8-4.3,1.9-8.8,2.8-13.3,2.8s-10-.8-14.4-2.5c-4.4-1.6-8.2-4-11.4-7-3.2-3.1-5.7-6.8-7.5-11.2-1.8-4.4-2.6-9.2-2.6-14.6s.9-10.2,2.6-14.6c1.8-4.4,4.3-8.1,7.5-11.1,3.2-3.1,7-5.5,11.4-7.1,4.4-1.6,9.2-2.5,14.4-2.5s3.8.2,5.8.6c2.1.3,4.1.9,6,1.6,2,.8,3.9,1.8,5.7,3,1.8,1.3,3.4,2.8,4.9,4.6l-11.3,9.3Z"/>
  <path class="st0" d="M2,163.9h21l28.7-45.2v-33L2,163.9ZM80.2,57h-21.6v63.1l-1.6,2.5h0l-20.1,31.6h0l-6.1,9.7h21l28.5-44.9v-62ZM89.9,162.6h0l-2.5,3.9v61.7h21.6v-62.7l27.4-42.9h-21l-25.6,40ZM109,57h-21.6v63l-1.6,2.5h0l-25.4,40h0l-1.7,2.7v62.9h21.6v-62.7l28.7-45v-63.5ZM165.1,122.6h-21l-28.2,44.2v32.8l49.2-76.9Z"/>
</svg>