<?xml version="1.0" encoding="UTF-8"?>
<svg id="Layer_1" xmlns="http://www.w3.org/2000/svg" width="108" height="29" xmlns:xlink="http://www.w3.org/1999/xlink" version="1.1" viewBox="0 0 108 29">
  <!-- Generator: Adobe Illustrator 30.0.0, SVG Export Plug-In . SVG Version: 2.1.1 Build 123)  -->
  <defs>
    <mask id="mask" x="29.72" y=".86" width="74.81" height="27.5" maskUnits="userSpaceOnUse">
      <g id="path-5-inside-1_115_141" data-name="path-5-inside-1_115_14">
        <path d="M35.63,12.4c.68-1.05,1.54-1.87,2.56-2.46,1.02-.61,2.16-.92,3.42-.92v6.18h-1.61c-1.46,0-2.55.32-3.28.96-.73.61-1.09,1.71-1.09,3.28v8.85h-5.84V9.23h5.84v3.18ZM47.34,7.24c-1.02,0-1.87-.3-2.53-.89-.64-.61-.96-1.37-.96-2.25s.32-1.66.96-2.25c.66-.61,1.5-.92,2.53-.92s1.82.31,2.46.92c.66.59.99,1.34.99,2.25s-.33,1.64-.99,2.25c-.64.59-1.46.89-2.46.89ZM50.24,9.23v19.06h-5.84V9.23h5.84ZM66.09,9.02c2.23,0,4.01.73,5.33,2.19,1.34,1.43,2.02,3.42,2.02,5.94v11.14h-5.81v-10.35c0-1.28-.33-2.27-.99-2.97s-1.55-1.06-2.66-1.06-2,.35-2.66,1.06-.99,1.7-.99,2.97v10.35h-5.84V9.23h5.84v2.53c.59-.84,1.39-1.5,2.39-1.98,1-.5,2.13-.75,3.38-.75ZM89.14,28.29l-5.81-7.99v7.99h-5.84V3.01h5.84v13.97l5.77-7.76h7.21l-7.93,9.57,7.99,9.5h-7.24ZM104.45,3.01v25.28h-5.84V3.01h5.84Z" fill="#fff"/>
      </g>
    </mask>
  </defs>
  <g id="path-5-inside-1_115_14">
    <path d="M35.63,12.4c.68-1.05,1.54-1.87,2.56-2.46,1.02-.61,2.16-.92,3.42-.92v6.18h-1.61c-1.46,0-2.55.32-3.28.96-.73.61-1.09,1.71-1.09,3.28v8.85h-5.84V9.23h5.84v3.18ZM47.34,7.24c-1.02,0-1.87-.3-2.53-.89-.64-.61-.96-1.37-.96-2.25s.32-1.66.96-2.25c.66-.61,1.5-.92,2.53-.92s1.82.31,2.46.92c.66.59.99,1.34.99,2.25s-.33,1.64-.99,2.25c-.64.59-1.46.89-2.46.89ZM50.24,9.23v19.06h-5.84V9.23h5.84ZM66.09,9.02c2.23,0,4.01.73,5.33,2.19,1.34,1.43,2.02,3.42,2.02,5.94v11.14h-5.81v-10.35c0-1.28-.33-2.27-.99-2.97s-1.55-1.06-2.66-1.06-2,.35-2.66,1.06-.99,1.7-.99,2.97v10.35h-5.84V9.23h5.84v2.53c.59-.84,1.39-1.5,2.39-1.98,1-.5,2.13-.75,3.38-.75ZM89.14,28.29l-5.81-7.99v7.99h-5.84V3.01h5.84v13.97l5.77-7.76h7.21l-7.93,9.57,7.99,9.5h-7.24ZM104.45,3.01v25.28h-5.84V3.01h5.84Z" fill="#c7c7c7"/>
  </g>
  <path d="M5.59,20.28c-.88-1.66-1.32-3.56-1.32-5.69s.44-4.07,1.32-5.76c.9-1.66,2.17-2.97,3.8-3.91.21-.12.43-.23.64-.33V1.43c0-.29.23-.52.52-.52l2.91-.09c.29,0,.87.32.87.61v2.12c.23-.01.47-.02.71-.02.6,0,1.19.04,1.75.11V1.43c0-.29.23-.52.52-.52l2.64-.09c.29,0,1.14.32,1.14.61v3.71c.26.17.52.35.77.54,1.68,1.33,2.82,3.1,3.41,5.29.09.32-.16.62-.49.62h-5.84c-.2,0-.49-.3-.59-.47-.37-.68-.68-1.07-1.29-1.45-.67-.43-1.21-.6-2.11-.6-1.39,0-2.51.49-3.34,1.48-.82,1.01-1.23,2.35-1.23,4.03s.41,2.99,1.23,3.97c.84,1.01,1.95,1.51,3.34,1.51.9,0,1.69-.22,2.36-.65.61-.38,1.1-.91,1.48-1.59.1-.18.28-.29.48-.29h5c.33,0,1.08.7.99,1.02-.59,2.19-2.38,4.19-4.18,5.4v3.84c0,.29-.23.52-.52.52h-3.51c-.29,0-.61-.23-.61-.52v-2.31c-.68.06-1.54.06-2.11,0v2.31c0,.29-.23.52-.52.52h-3.44c-.52,0-.75-.52-.75-.81l.15-3.06c-1.64-.92-3.28-2.48-4.18-4.17Z" fill="#c7c7c7"/>
  <path d="M4.82,20.27c-.88-1.66-1.32-3.56-1.32-5.7s.44-4.08,1.32-5.76c.9-1.66,2.17-2.97,3.81-3.91.21-.12.43-.23.64-.33V1.4c0-.29.23-.52.52-.52h3.26c.29,0,.52.23.52.52v2.12c.23-.01.47-.02.71-.02.6,0,1.19.04,1.75.11V1.4c0-.29.23-.52.52-.52h3.26c.29,0,.52.23.52.52v3.72c.26.17.52.35.77.54,1.68,1.33,2.82,3.1,3.41,5.29.09.32-.16.62-.49.62h-5.51c-.2,0-.38-.12-.48-.29-.37-.68-.87-1.21-1.48-1.59-.68-.43-1.46-.65-2.36-.65-1.39,0-2.51.49-3.34,1.48-.82,1.01-1.23,2.35-1.23,4.04s.41,2.99,1.23,3.98c.84,1.01,1.95,1.51,3.34,1.51.9,0,1.69-.22,2.36-.65.61-.38,1.1-.91,1.48-1.59.1-.18.28-.29.48-.29h5.51c.33,0,.58.3.49.62-.59,2.19-2.38,4.59-4.18,5.8v3.85c0,.29-.23.52-.52.52h-3.26c-.29,0-.52-.23-.52-.52v-2.3c-.68.06-1.89.05-2.45,0v2.31c0,.29-.23.52-.52.52h-3.26c-.29,0-.52-.23-.52-.52v-3.27c-1.64-.92-3.55-2.57-4.45-4.26Z" fill="#c7c7c7"/>
  <path d="M13.05,1.02v-.2h-3.27v.2h3.27ZM13.37,1.34v2.33h.21c.23-.02.46-.03.7-.03v-.2c-.24,0-.47,0-.71.02V1.34c0-.29-.23-.52-.52-.52v.2c.18,0,.32.15.32.32ZM19.81,1.02v-.2h-3.27v.2h3.27ZM20.14,1.34v3.83l.09.06c.26.16.51.34.75.53,1.65,1.31,2.77,3.04,3.35,5.2.05.19-.09.38-.3.38h-5.52c-.12,0-.24-.07-.31-.19-.39-.71-.9-1.26-1.55-1.66h0c-.71-.45-1.54-.68-2.47-.68-1.45,0-2.62.52-3.5,1.55h0s0,0,0,0c-.86,1.05-1.27,2.45-1.27,4.17s.42,3.08,1.28,4.11h0s0,0,0,0c.88,1.06,2.05,1.58,3.5,1.58.93,0,1.76-.22,2.47-.68.64-.4,1.16-.95,1.55-1.66.07-.12.29-.19.42-.19l.19-.12.13-.07h-.4c-.19,0-.41.12-.51.28h0c-.37.68-.85,1.2-1.45,1.58l-.03.02c-.67.43-1.44.64-2.33.65h-.04c-1.39,0-2.51-.5-3.35-1.51-.82-.99-1.23-2.32-1.23-3.98,0-1.69.41-3.04,1.23-4.05.84-.99,1.96-1.48,3.35-1.48.89,0,1.67.21,2.34.63l.03.02c.6.37,1.09.89,1.46,1.56l.02.03c.1.17.27.29.47.29h0s5.52,0,5.52,0c.33,0,.58-.31.49-.62v-.05c-.61-2.18-1.74-3.93-3.42-5.25l-.05-.04c-.23-.18-.47-.35-.72-.51V1.34c0-.29-.23-.52-.52-.52v.2c.18,0,.32.15.32.32ZM16.03,1.34v2.21c-.56-.07-1.15-.11-1.75-.11v.2c.6,0,1.17.04,1.73.11l.22.03V1.34c0-.18.15-.32.32-.32v-.2h-.01c-.28,0-.51.24-.51.52ZM24.03,17.7v-.2h-5.09l-.13.07-.19.12h5.41ZM20.14,27.79c0,.18-.15.32-.32.32h-3.27c-.18,0-.32-.15-.32-.32v-2.52l-.21.02c-.67.06-1.87.04-2.42,0l-.21-.02v2.53c0,.18-.15.32-.32.32h-3.27c-.18,0-.32-.15-.32-.32v-3.39l-.1-.06c-1.62-.92-3.5-2.54-4.38-4.19h0c-.86-1.64-1.3-3.51-1.3-5.62s.43-4.03,1.3-5.68c.88-1.63,2.13-2.92,3.74-3.84.21-.12.42-.23.63-.33l.11-.05V1.34c0-.18.15-.32.32-.32v-.2c-.28,0-.51.23-.52.51h0v3.17c-.21.1-.41.2-.61.31l-.04.02c-1.63.94-2.89,2.23-3.79,3.88l-.02.04c-.88,1.69-1.32,3.61-1.32,5.78,0,2.12.43,4.02,1.3,5.67l.02.04c.9,1.69,2.82,3.34,4.46,4.26v3.28c0,.29.23.52.52.52h3.27c.29,0,.52-.23.52-.52v-2.32c.57.06,1.78.07,2.46.01v2.31c0,.28.23.51.51.52h.01s3.27,0,3.27,0c.29,0,.52-.23.52-.52v-3.86c1.8-1.21,3.6-3.61,4.19-5.81.09-.32-.16-.62-.49-.62v.2c.21,0,.35.19.3.38-.58,2.15-2.34,4.51-4.11,5.7l-.09.06v3.96Z" fill="#c7c7c7"/>
  <path d="M35.63,12.4c.68-1.05,1.54-1.87,2.56-2.46,1.02-.61,2.16-.92,3.42-.92v6.18h-1.61c-1.46,0-2.55.32-3.28.96-.73.61-1.09,1.71-1.09,3.28v8.85h-5.84V9.23h5.84v3.18ZM47.34,7.24c-1.02,0-1.87-.3-2.53-.89-.64-.61-.96-1.37-.96-2.25s.32-1.66.96-2.25c.66-.61,1.5-.92,2.53-.92s1.82.31,2.46.92c.66.59.99,1.34.99,2.25s-.33,1.64-.99,2.25c-.64.59-1.46.89-2.46.89ZM50.24,9.23v19.06h-5.84V9.23h5.84ZM66.09,9.02c2.23,0,4.01.73,5.33,2.19,1.34,1.43,2.02,3.42,2.02,5.94v11.14h-5.81v-10.35c0-1.28-.33-2.27-.99-2.97s-1.55-1.06-2.66-1.06-2,.35-2.66,1.06-.99,1.7-.99,2.97v10.35h-5.84V9.23h5.84v2.53c.59-.84,1.39-1.5,2.39-1.98,1-.5,2.13-.75,3.38-.75ZM89.14,28.29l-5.81-7.99v7.99h-5.84V3.01h5.84v13.97l5.77-7.76h7.21l-7.93,9.57,7.99,9.5h-7.24ZM104.45,3.01v25.28h-5.84V3.01h5.84Z" fill="#c7c7c7"/>
  <g mask="url(#mask)">
    <path d="M35.63,12.4h-.07v.23l.13-.19-.06-.04ZM38.19,9.94l.03.06h0s0,0,0,0l-.04-.06ZM41.6,9.02h.07v-.07h-.07v.07ZM41.6,15.2v.07h.07v-.07h-.07ZM36.72,16.16l.04.05h0s0,0,0,0l-.05-.05ZM35.63,28.29v.07h.07v-.07h-.07ZM29.78,28.29h-.07v.07h.07v-.07ZM29.78,9.23v-.07h-.07v.07h.07ZM35.63,9.23h.07v-.07h-.07v.07ZM35.63,12.4l.06.04c.68-1.04,1.52-1.85,2.54-2.44l-.03-.06-.03-.06c-1.03.6-1.9,1.43-2.59,2.48l.06.04ZM38.19,9.94l.04.06c1.01-.61,2.14-.91,3.38-.91v-.14c-1.26,0-2.42.31-3.45.93l.04.06ZM41.6,9.02h-.07v6.18h.14v-6.18h-.07ZM41.6,15.2v-.07h-1.61v.14h1.61v-.07ZM40,15.2v-.07c-1.47,0-2.58.32-3.32.97l.04.05.05.05c.71-.62,1.79-.94,3.23-.94v-.07ZM36.72,16.16l-.04-.05c-.75.63-1.12,1.75-1.12,3.33h.14c0-1.56.36-2.63,1.07-3.23l-.04-.05ZM35.63,19.44h-.07v8.85h.14v-8.85h-.07ZM35.63,28.29v-.07h-5.84v.14h5.84v-.07ZM29.78,28.29h.07V9.23h-.14v19.06h.07ZM29.78,9.23v.07h5.84v-.14h-5.84v.07ZM35.63,9.23h-.07v3.18h.14v-3.18h-.07ZM44.81,6.36l-.05.05h0s0,0,0,0l.05-.05ZM44.81,1.85l.05.05h0s-.05-.05-.05-.05ZM49.79,1.85l-.05.05h0s0,0,0,0l.05-.05ZM49.79,6.36l.05.05h0s-.05-.05-.05-.05ZM50.24,9.23h.07v-.07h-.07v.07ZM50.24,28.29v.07h.07v-.07h-.07ZM44.4,28.29h-.07v.07h.07v-.07ZM44.4,9.23v-.07h-.07v.07h.07ZM47.34,7.24v-.07c-1.01,0-1.84-.29-2.48-.87l-.05.05-.05.05c.67.61,1.53.91,2.57.91v-.07ZM44.81,6.36l.05-.05c-.62-.6-.94-1.34-.94-2.21h-.14c0,.91.33,1.68.98,2.3l.05-.05ZM43.85,4.1h.07c0-.89.31-1.63.93-2.2l-.05-.05-.05-.05c-.65.61-.98,1.38-.98,2.3h.07ZM44.81,1.85l.05.05c.65-.6,1.47-.9,2.48-.9v-.14c-1.04,0-1.9.31-2.57.94l.05.05ZM47.34.92v.07c.99,0,1.79.3,2.41.9l.05-.05.05-.05c-.65-.63-1.49-.94-2.51-.94v.07ZM49.79,1.85l-.05.05c.65.58.97,1.31.97,2.2h.14c0-.93-.34-1.7-1.01-2.31l-.05.05ZM50.79,4.1h-.07c0,.87-.32,1.6-.97,2.2l.05.05.05.05c.67-.63,1.01-1.4,1.01-2.3h-.07ZM49.79,6.36l-.05-.05c-.62.58-1.43.87-2.41.87v.14c1.02,0,1.85-.3,2.51-.91l-.05-.05ZM50.24,9.23h-.07v19.06h.14V9.23h-.07ZM50.24,28.29v-.07h-5.84v.14h5.84v-.07ZM44.4,28.29h.07V9.23h-.14v19.06h.07ZM44.4,9.23v.07h5.84v-.14h-5.84v.07ZM71.42,11.21l-.05.05h0s0,0,0,0l.05-.05ZM73.43,28.29v.07h.07v-.07h-.07ZM67.63,28.29h-.07v.07h.07v-.07ZM66.63,14.96l-.05.05.05-.05ZM61.31,14.96l.05.05-.05-.05ZM60.31,28.29v.07h.07v-.07h-.07ZM54.47,28.29h-.07v.07h.07v-.07ZM54.47,9.23v-.07h-.07v.07h.07ZM60.31,9.23h.07v-.07h-.07v.07ZM60.31,11.75h-.07v.22l.12-.18-.06-.04ZM62.71,9.77l.03.06h0s0,0,0,0l-.03-.06ZM66.09,9.02v.07c2.22,0,3.97.72,5.28,2.16l.05-.05.05-.05c-1.34-1.47-3.13-2.21-5.38-2.21v.07ZM71.42,11.21l-.05.05c1.33,1.42,2,3.38,2,5.9h.14c0-2.54-.68-4.54-2.03-5.99l-.05.05ZM73.43,17.15h-.07v11.14h.14v-11.14h-.07ZM73.43,28.29v-.07h-5.81v.14h5.81v-.07ZM67.63,28.29h.07v-10.35h-.14v10.35h.07ZM67.63,17.94h.07c0-1.29-.33-2.3-1.01-3.02l-.05.05-.05.05c.65.69.97,1.66.97,2.93h.07ZM66.63,14.96l.05-.05c-.68-.72-1.58-1.08-2.71-1.08v.14c1.1,0,1.97.35,2.61,1.04l.05-.05ZM63.97,13.91v-.07c-1.13,0-2.04.36-2.71,1.08l.05.05.05.05c.65-.69,1.51-1.04,2.61-1.04v-.07ZM61.31,14.96l-.05-.05c-.68.72-1.01,1.73-1.01,3.02h.14c0-1.26.33-2.24.97-2.93l-.05-.05ZM60.31,17.94h-.07v10.35h.14v-10.35h-.07ZM60.31,28.29v-.07h-5.84v.14h5.84v-.07ZM54.47,28.29h.07V9.23h-.14v19.06h.07ZM54.47,9.23v.07h5.84v-.14h-5.84v.07ZM60.31,9.23h-.07v2.53h.14v-2.53h-.07ZM60.31,11.75l.06.04c.58-.83,1.37-1.49,2.36-1.96l-.03-.06-.03-.06c-1.01.48-1.82,1.15-2.42,2l.06.04ZM62.71,9.77l.03.06c.99-.5,2.11-.74,3.35-.74v-.14c-1.26,0-2.4.25-3.41.76l.03.06ZM89.14,28.29l-.06.04.02.03h.03v-.07ZM83.33,20.29l.06-.04-.12-.17v.21h.07ZM83.33,28.29v.07h.07v-.07h-.07ZM77.49,28.29h-.07v.07h.07v-.07ZM77.49,3.01v-.07h-.07v.07h.07ZM83.33,3.01h.07v-.07h-.07v.07ZM83.33,16.98h-.07v.21l.12-.17-.05-.04ZM89.11,9.23v-.07h-.03l-.02.03.05.04ZM96.32,9.23l.05.04.09-.11h-.15v.07ZM88.39,18.79l-.05-.04-.04.04.04.04.05-.04ZM96.39,28.29v.07h.15l-.09-.11-.05.04ZM89.14,28.29l.06-.04-5.81-7.99-.06.04-.06.04,5.81,7.99.06-.04ZM83.33,20.29h-.07v7.99h.14v-7.99h-.07ZM83.33,28.29v-.07h-5.84v.14h5.84v-.07ZM77.49,28.29h.07V3.01h-.14v25.28h.07ZM77.49,3.01v.07h5.84v-.14h-5.84v.07ZM83.33,3.01h-.07v13.97h.14V3.01h-.07ZM83.33,16.98l.05.04,5.77-7.76-.05-.04-.05-.04-5.77,7.76.05.04ZM89.11,9.23v.07h7.21v-.14h-7.21v.07ZM96.32,9.23l-.05-.04-7.93,9.57.05.04.05.04,7.93-9.57-.05-.04ZM88.39,18.79l-.05.04,7.99,9.5.05-.04.05-.04-7.99-9.5-.05.04ZM96.39,28.29v-.07h-7.24v.14h7.24v-.07ZM104.45,3.01h.07v-.07h-.07v.07ZM104.45,28.29v.07h.07v-.07h-.07ZM98.61,28.29h-.07v.07h.07v-.07ZM98.61,3.01v-.07h-.07v.07h.07ZM104.45,3.01h-.07v25.28h.14V3.01h-.07ZM104.45,28.29v-.07h-5.84v.14h5.84v-.07ZM98.61,28.29h.07V3.01h-.14v25.28h.07ZM98.61,3.01v.07h5.84v-.14h-5.84v.07Z" fill="#c7c7c7"/>
  </g>
</svg>