<svg width="246" height="44" viewBox="0 0 246 44" fill="none" xmlns="http://www.w3.org/2000/svg">
<path d="M96.6728 14.9727L96.4694 14.9714C95.8884 14.9647 95.2874 14.958 94.7198 15.0999C93.4562 15.4145 92.6035 16.2806 92.1858 17.674C91.4964 19.9751 90.8084 22.2762 90.1204 24.5772L88.8661 28.7697L87.1875 23.1556C86.4472 20.6765 85.7056 18.1974 84.9667 15.717C84.7887 15.12 84.5799 14.9553 83.9962 14.9527C83.7821 14.9513 83.5665 14.9513 83.3524 14.9527C81.6216 14.9661 80.291 15.9646 79.793 17.6218L76.4532 28.7564C76.4479 28.739 76.4425 28.7202 76.4371 28.7015L75.464 25.4339C74.6876 22.8263 73.9099 20.2174 73.1308 17.6111C72.7386 16.2993 71.8604 15.4265 70.5901 15.0879C70.1618 14.9741 69.7093 14.9674 69.2716 14.962C69.1779 14.9607 69.0855 14.9594 68.9932 14.958C68.5728 14.9473 68.2917 15.045 68.1311 15.2552C67.9691 15.468 67.949 15.7719 68.0722 16.1842C68.9597 19.1706 69.8485 22.1544 70.7387 25.1394L73.4293 34.171C73.8429 35.5578 74.7264 36.4225 76.053 36.7438C76.488 36.8482 76.9431 36.8536 77.3835 36.8589C77.4719 36.8603 77.5602 36.8603 77.6486 36.8629C77.7102 36.8643 77.7677 36.8643 77.8226 36.8643C78.5843 36.8643 78.7181 36.7251 78.9591 35.9139C79.6404 33.6302 80.3204 31.3466 80.9991 29.0629L82.2922 24.7178C82.402 24.3483 82.5157 23.9789 82.6389 23.5773L82.6603 23.5077L83.7191 27.0644C84.4246 29.4324 85.1287 31.8003 85.8368 34.167C86.2545 35.5605 87.1353 36.4279 88.4551 36.7451C88.8848 36.8482 89.3359 36.8536 89.771 36.8589L89.9089 36.8603C91.0199 36.875 91.1042 36.8134 91.4242 35.7412L91.4309 35.7184C92.5727 31.8793 93.7158 28.0415 94.859 24.2038L96.5443 18.5468C96.792 17.7169 97.0383 16.8883 97.2792 16.057C97.3702 15.7451 97.3314 15.4346 97.1748 15.2257C97.0583 15.0624 96.879 14.9741 96.6728 14.9727Z" fill="black"/>
<path d="M96.6728 14.9727L96.4694 14.9714C95.8884 14.9647 95.2874 14.958 94.7198 15.0999C93.4562 15.4145 92.6035 16.2806 92.1858 17.674C91.4964 19.9751 90.8084 22.2762 90.1204 24.5772L88.8661 28.7697L87.1875 23.1556C86.4472 20.6765 85.7056 18.1974 84.9667 15.717C84.7887 15.12 84.5799 14.9553 83.9962 14.9527C83.7821 14.9513 83.5665 14.9513 83.3524 14.9527C81.6216 14.9661 80.291 15.9646 79.793 17.6218L76.4532 28.7564C76.4479 28.739 76.4425 28.7202 76.4371 28.7015L75.464 25.4339C74.6876 22.8263 73.9099 20.2174 73.1308 17.6111C72.7386 16.2993 71.8604 15.4265 70.5901 15.0879C70.1618 14.9741 69.7093 14.9674 69.2716 14.962C69.1779 14.9607 69.0855 14.9594 68.9932 14.958C68.5728 14.9473 68.2917 15.045 68.1311 15.2552C67.9691 15.468 67.949 15.7719 68.0722 16.1842C68.9597 19.1706 69.8485 22.1544 70.7387 25.1394L73.4293 34.171C73.8429 35.5578 74.7264 36.4225 76.053 36.7438C76.488 36.8482 76.9431 36.8536 77.3835 36.8589C77.4719 36.8603 77.5602 36.8603 77.6486 36.8629C77.7102 36.8643 77.7677 36.8643 77.8226 36.8643C78.5843 36.8643 78.7181 36.7251 78.9591 35.9139C79.6404 33.6302 80.3204 31.3466 80.9991 29.0629L82.2922 24.7178C82.402 24.3483 82.5157 23.9789 82.6389 23.5773L82.6603 23.5077L83.7191 27.0644C84.4246 29.4324 85.1287 31.8003 85.8368 34.167C86.2545 35.5605 87.1353 36.4279 88.4551 36.7451C88.8848 36.8482 89.3359 36.8536 89.771 36.8589L89.9089 36.8603C91.0199 36.875 91.1042 36.8134 91.4242 35.7412L91.4309 35.7184C92.5727 31.8793 93.7158 28.0415 94.859 24.2038L96.5443 18.5468C96.792 17.7169 97.0383 16.8883 97.2792 16.057C97.3702 15.7451 97.3314 15.4346 97.1748 15.2257C97.0583 15.0624 96.879 14.9741 96.6728 14.9727Z" fill="white" fill-opacity="0.72"/>
<path d="M118.389 7.63826C117.954 7.58472 117.674 7.63693 117.479 7.80961C117.283 7.98229 117.198 8.25536 117.198 8.69442L117.196 16.8907C117.196 16.8974 117.196 16.9041 117.196 16.9108C112.371 12.9967 105.433 13.5067 101.244 18.145C99.3032 20.2934 98.2283 23.0389 98.2149 25.8741C98.2029 28.6945 99.2376 31.4279 101.13 33.5724C103.041 35.7369 105.393 37.0287 108.119 37.4128C108.727 37.4985 109.324 37.5414 109.91 37.5414C112.693 37.5414 115.235 36.5802 117.49 34.6727C117.52 34.7383 117.551 34.8039 117.586 34.8668C118.27 36.1331 119.334 36.8038 120.748 36.86C121.267 36.8814 121.595 36.5735 121.622 36.0381C121.627 35.9417 121.626 35.844 121.624 35.7476L121.623 15.0394C121.623 14.6606 121.624 14.2804 121.626 13.9016C121.628 13.0248 121.633 12.1172 121.618 11.2244C121.59 9.34231 120.262 7.8685 118.389 7.63826ZM117.008 25.9116C117.01 27.8298 116.265 29.6342 114.907 30.9929C113.551 32.3516 111.748 33.0985 109.83 33.0985H109.829C105.878 33.0972 102.663 29.8805 102.66 25.9276C102.659 24.0188 103.411 22.2157 104.779 20.849C106.142 19.4876 107.937 18.738 109.837 18.738C109.841 18.738 109.843 18.738 109.847 18.738C113.79 18.7433 117.002 21.9627 117.008 25.9116Z" fill="black"/>
<path d="M118.389 7.63826C117.954 7.58472 117.674 7.63693 117.479 7.80961C117.283 7.98229 117.198 8.25536 117.198 8.69442L117.196 16.8907C117.196 16.8974 117.196 16.9041 117.196 16.9108C112.371 12.9967 105.433 13.5067 101.244 18.145C99.3032 20.2934 98.2283 23.0389 98.2149 25.8741C98.2029 28.6945 99.2376 31.4279 101.13 33.5724C103.041 35.7369 105.393 37.0287 108.119 37.4128C108.727 37.4985 109.324 37.5414 109.91 37.5414C112.693 37.5414 115.235 36.5802 117.49 34.6727C117.52 34.7383 117.551 34.8039 117.586 34.8668C118.27 36.1331 119.334 36.8038 120.748 36.86C121.267 36.8814 121.595 36.5735 121.622 36.0381C121.627 35.9417 121.626 35.844 121.624 35.7476L121.623 15.0394C121.623 14.6606 121.624 14.2804 121.626 13.9016C121.628 13.0248 121.633 12.1172 121.618 11.2244C121.59 9.34231 120.262 7.8685 118.389 7.63826ZM117.008 25.9116C117.01 27.8298 116.265 29.6342 114.907 30.9929C113.551 32.3516 111.748 33.0985 109.83 33.0985H109.829C105.878 33.0972 102.663 29.8805 102.66 25.9276C102.659 24.0188 103.411 22.2157 104.779 20.849C106.142 19.4876 107.937 18.738 109.837 18.738C109.841 18.738 109.843 18.738 109.847 18.738C113.79 18.7433 117.002 21.9627 117.008 25.9116Z" fill="white" fill-opacity="0.72"/>
<path d="M20.7005 12.1808C21.9347 12.7644 22.9159 13.7403 23.8944 14.7737C25.162 16.1123 26.9397 16.3412 28.5326 15.3733C28.803 15.2087 28.9597 15.0267 29.0079 14.8165C29.0547 14.6117 28.9998 14.3908 28.8392 14.1405L28.7468 13.9973C28.459 13.5488 28.1619 13.0843 27.8299 12.6546C24.4686 8.30552 18.8318 5.91343 13.3569 6.55462C6.3426 7.37653 0.516995 13.7108 0.0364358 20.7278C-0.0666367 22.2337 0.0538405 23.749 0.336286 25.2295C1.67891 32.2398 8.13633 37.5045 15.3755 37.5045C15.4157 37.5045 15.4558 37.5045 15.496 37.5045C18.3231 37.5045 20.8946 36.8004 23.3522 35.3547C25.6279 34.0161 27.4832 32.1554 28.8686 29.8236C29.1149 29.41 29.0547 29.011 28.7067 28.7567C27.3159 27.7367 25.2905 27.8036 24.1942 28.9066C24.0095 29.0927 23.8261 29.2828 23.6467 29.4742C20.3886 32.9278 16.0247 33.9438 11.357 32.3335C9.74266 31.7766 8.3398 30.695 6.8071 28.8277C3.32003 24.5776 4.06028 18.4521 6.74552 15.2141C10.2861 10.9479 15.6325 9.78602 20.7005 12.1808Z" fill="black"/>
<path d="M20.7005 12.1808C21.9347 12.7644 22.9159 13.7403 23.8944 14.7737C25.162 16.1123 26.9397 16.3412 28.5326 15.3733C28.803 15.2087 28.9597 15.0267 29.0079 14.8165C29.0547 14.6117 28.9998 14.3908 28.8392 14.1405L28.7468 13.9973C28.459 13.5488 28.1619 13.0843 27.8299 12.6546C24.4686 8.30552 18.8318 5.91343 13.3569 6.55462C6.3426 7.37653 0.516995 13.7108 0.0364358 20.7278C-0.0666367 22.2337 0.0538405 23.749 0.336286 25.2295C1.67891 32.2398 8.13633 37.5045 15.3755 37.5045C15.4157 37.5045 15.4558 37.5045 15.496 37.5045C18.3231 37.5045 20.8946 36.8004 23.3522 35.3547C25.6279 34.0161 27.4832 32.1554 28.8686 29.8236C29.1149 29.41 29.0547 29.011 28.7067 28.7567C27.3159 27.7367 25.2905 27.8036 24.1942 28.9066C24.0095 29.0927 23.8261 29.2828 23.6467 29.4742C20.3886 32.9278 16.0247 33.9438 11.357 32.3335C9.74266 31.7766 8.3398 30.695 6.8071 28.8277C3.32003 24.5776 4.06028 18.4521 6.74552 15.2141C10.2861 10.9479 15.6325 9.78602 20.7005 12.1808Z" fill="white" fill-opacity="0.72"/>
<path d="M43.1448 14.9645C42.8958 14.9632 42.6455 14.9645 42.3965 14.9672C41.9776 14.9712 41.5425 14.9752 41.1195 14.9592C39.3137 14.8949 37.7422 15.3032 36.3193 16.2068C36.2631 16.1345 36.2082 16.0662 36.1426 16.002C35.4291 15.3166 34.5885 14.9686 33.6421 14.9659C33.6407 14.9659 33.6407 14.9659 33.6394 14.9659C33.1602 14.9659 32.8469 15.255 32.8001 15.7396C32.792 15.8293 32.792 15.9176 32.7934 16.002V16.0783V35.749V35.8093C32.7934 35.8628 32.7934 35.9164 32.7947 35.9686C32.8054 36.2885 32.9005 36.5281 33.0772 36.6807C33.211 36.7972 33.3851 36.8547 33.5925 36.8547C33.6381 36.8547 33.6836 36.8521 33.7318 36.8467C34.1788 36.7958 34.6915 36.7249 35.1279 36.5174C36.5375 35.8468 37.2536 34.6982 37.255 33.104C37.259 29.2863 37.2603 26.0736 37.2536 22.8047C37.2509 21.9119 37.5053 21.177 38.03 20.5559C38.6511 19.821 39.5025 19.4515 40.7099 19.3886C42.517 19.2963 44.0149 17.7314 44.0497 15.9016C44.0551 15.587 43.9828 15.3581 43.8288 15.1988C43.6762 15.0449 43.4514 14.9672 43.1448 14.9645Z" fill="black"/>
<path d="M43.1448 14.9645C42.8958 14.9632 42.6455 14.9645 42.3965 14.9672C41.9776 14.9712 41.5425 14.9752 41.1195 14.9592C39.3137 14.8949 37.7422 15.3032 36.3193 16.2068C36.2631 16.1345 36.2082 16.0662 36.1426 16.002C35.4291 15.3166 34.5885 14.9686 33.6421 14.9659C33.6407 14.9659 33.6407 14.9659 33.6394 14.9659C33.1602 14.9659 32.8469 15.255 32.8001 15.7396C32.792 15.8293 32.792 15.9176 32.7934 16.002V16.0783V35.749V35.8093C32.7934 35.8628 32.7934 35.9164 32.7947 35.9686C32.8054 36.2885 32.9005 36.5281 33.0772 36.6807C33.211 36.7972 33.3851 36.8547 33.5925 36.8547C33.6381 36.8547 33.6836 36.8521 33.7318 36.8467C34.1788 36.7958 34.6915 36.7249 35.1279 36.5174C36.5375 35.8468 37.2536 34.6982 37.255 33.104C37.259 29.2863 37.2603 26.0736 37.2536 22.8047C37.2509 21.9119 37.5053 21.177 38.03 20.5559C38.6511 19.821 39.5025 19.4515 40.7099 19.3886C42.517 19.2963 44.0149 17.7314 44.0497 15.9016C44.0551 15.587 43.9828 15.3581 43.8288 15.1988C43.6762 15.0449 43.4514 14.9672 43.1448 14.9645Z" fill="white" fill-opacity="0.72"/>
<path d="M170.138 15.8767C165.491 13.1031 159.456 14.0334 155.788 18.088C153.348 20.7867 152.354 23.9458 152.834 27.477C153.289 30.8208 154.968 33.5208 157.826 35.5033C159.741 36.8325 162.029 37.5286 164.355 37.5286C165.2 37.5286 166.05 37.4362 166.889 37.2501C170.035 36.5487 172.753 34.5743 174.345 31.8301C174.636 31.3308 174.537 30.9226 174.054 30.6174C172.458 29.6081 170.731 29.7807 169.316 31.0912C167.785 32.5101 165.843 33.2156 163.848 33.0791C161.859 32.9425 160.037 31.9814 158.72 30.3737C158.167 29.6991 157.774 28.9682 157.519 28.1436H162.734C166.805 28.1436 170.876 28.1436 174.948 28.1436C175.691 28.1436 175.968 27.8705 175.969 27.1357C175.969 27.0098 175.971 26.884 175.972 26.7582C175.975 26.4008 175.977 26.0313 175.963 25.6659C175.779 21.3663 173.821 18.0733 170.138 15.8767ZM163.772 18.7386C167.693 18.4374 170.506 21.3502 171.146 23.6847H157.554C158.076 21.4881 160.678 18.9755 163.772 18.7386Z" fill="black"/>
<path d="M170.138 15.8767C165.491 13.1031 159.456 14.0334 155.788 18.088C153.348 20.7867 152.354 23.9458 152.834 27.477C153.289 30.8208 154.968 33.5208 157.826 35.5033C159.741 36.8325 162.029 37.5286 164.355 37.5286C165.2 37.5286 166.05 37.4362 166.889 37.2501C170.035 36.5487 172.753 34.5743 174.345 31.8301C174.636 31.3308 174.537 30.9226 174.054 30.6174C172.458 29.6081 170.731 29.7807 169.316 31.0912C167.785 32.5101 165.843 33.2156 163.848 33.0791C161.859 32.9425 160.037 31.9814 158.72 30.3737C158.167 29.6991 157.774 28.9682 157.519 28.1436H162.734C166.805 28.1436 170.876 28.1436 174.948 28.1436C175.691 28.1436 175.968 27.8705 175.969 27.1357C175.969 27.0098 175.971 26.884 175.972 26.7582C175.975 26.4008 175.977 26.0313 175.963 25.6659C175.779 21.3663 173.821 18.0733 170.138 15.8767ZM163.772 18.7386C167.693 18.4374 170.506 21.3502 171.146 23.6847H157.554C158.076 21.4881 160.678 18.9755 163.772 18.7386Z" fill="white" fill-opacity="0.72"/>
<path d="M149.656 7.33874C149.486 7.18213 149.243 7.12189 148.886 7.14866C146.891 7.30127 145.492 8.8005 145.484 10.795C145.476 12.8377 145.477 14.9153 145.478 16.9245C145.48 17.7933 145.48 18.6633 145.48 19.5321V19.7717H131.309V16.5002C131.309 15.9272 131.311 15.3557 131.311 14.7827C131.313 13.499 131.315 12.1711 131.305 10.8646C131.29 8.89019 129.992 7.40434 128.072 7.16741C127.587 7.10717 127.309 7.15268 127.117 7.32268C126.878 7.53284 126.846 7.90631 126.846 8.24364V35.7332L126.845 35.8122C126.844 35.8858 126.844 35.9594 126.849 36.0317C126.868 36.2981 126.975 36.5243 127.15 36.6676C127.28 36.7733 127.439 36.8282 127.615 36.8282C127.652 36.8282 127.691 36.8255 127.731 36.8202L127.75 36.8175C128.228 36.7546 128.72 36.689 129.161 36.4882C130.588 35.8376 131.311 34.6824 131.309 33.0574C131.307 31.0481 131.307 29.0402 131.308 27.031V24.236H145.478L145.477 27.0751C145.476 29.1045 145.474 31.1351 145.481 33.1644C145.488 35.084 146.806 36.5765 148.69 36.7934C149.047 36.8349 149.41 36.8443 149.641 36.6381C149.872 36.432 149.904 36.0719 149.904 35.7118V14.1348C149.904 12.1162 149.904 10.0976 149.902 8.079C149.904 7.73096 149.825 7.49536 149.656 7.33874Z" fill="black"/>
<path d="M149.656 7.33874C149.486 7.18213 149.243 7.12189 148.886 7.14866C146.891 7.30127 145.492 8.8005 145.484 10.795C145.476 12.8377 145.477 14.9153 145.478 16.9245C145.48 17.7933 145.48 18.6633 145.48 19.5321V19.7717H131.309V16.5002C131.309 15.9272 131.311 15.3557 131.311 14.7827C131.313 13.499 131.315 12.1711 131.305 10.8646C131.29 8.89019 129.992 7.40434 128.072 7.16741C127.587 7.10717 127.309 7.15268 127.117 7.32268C126.878 7.53284 126.846 7.90631 126.846 8.24364V35.7332L126.845 35.8122C126.844 35.8858 126.844 35.9594 126.849 36.0317C126.868 36.2981 126.975 36.5243 127.15 36.6676C127.28 36.7733 127.439 36.8282 127.615 36.8282C127.652 36.8282 127.691 36.8255 127.731 36.8202L127.75 36.8175C128.228 36.7546 128.72 36.689 129.161 36.4882C130.588 35.8376 131.311 34.6824 131.309 33.0574C131.307 31.0481 131.307 29.0402 131.308 27.031V24.236H145.478L145.477 27.0751C145.476 29.1045 145.474 31.1351 145.481 33.1644C145.488 35.084 146.806 36.5765 148.69 36.7934C149.047 36.8349 149.41 36.8443 149.641 36.6381C149.872 36.432 149.904 36.0719 149.904 35.7118V14.1348C149.904 12.1162 149.904 10.0976 149.902 8.079C149.904 7.73096 149.825 7.49536 149.656 7.33874Z" fill="white" fill-opacity="0.72"/>
<path d="M200.814 24.3877C200.418 21.325 198.837 18.5943 196.36 16.6961C193.884 14.798 190.833 13.9814 187.772 14.3951C184.522 14.8355 181.589 16.6399 179.727 19.3479C177.884 22.0291 177.252 25.373 177.993 28.5227C178.877 32.2721 181.412 35.2478 184.951 36.6855C186.373 37.2624 187.849 37.5489 189.317 37.5489C191.47 37.5489 193.603 36.9331 195.506 35.7204C195.858 35.4955 196.201 35.2452 196.533 35.0029C196.639 34.9266 196.744 34.8489 196.85 34.7726C196.852 34.7767 196.854 34.7807 196.856 34.7833C197.416 35.9506 198.363 36.6386 199.669 36.8314C200.134 36.8997 200.432 36.8515 200.637 36.6735C200.842 36.4968 200.934 36.209 200.934 35.7418L200.936 33.4287C200.937 31.0326 200.938 28.5535 200.93 26.1159C200.928 25.5456 200.889 24.9647 200.814 24.3877ZM196.471 25.9151C196.471 29.8667 193.264 33.0847 189.322 33.09C189.319 33.09 189.317 33.09 189.313 33.09C187.401 33.09 185.601 32.3431 184.243 30.9871C182.882 29.627 182.132 27.8226 182.134 25.9044C182.134 23.9929 182.885 22.1911 184.249 20.8311C185.61 19.4737 187.409 18.7268 189.318 18.7268C189.323 18.7268 189.329 18.7268 189.334 18.7268C193.269 18.7348 196.473 21.9595 196.471 25.9151Z" fill="black"/>
<path d="M200.814 24.3877C200.418 21.325 198.837 18.5943 196.36 16.6961C193.884 14.798 190.833 13.9814 187.772 14.3951C184.522 14.8355 181.589 16.6399 179.727 19.3479C177.884 22.0291 177.252 25.373 177.993 28.5227C178.877 32.2721 181.412 35.2478 184.951 36.6855C186.373 37.2624 187.849 37.5489 189.317 37.5489C191.47 37.5489 193.603 36.9331 195.506 35.7204C195.858 35.4955 196.201 35.2452 196.533 35.0029C196.639 34.9266 196.744 34.8489 196.85 34.7726C196.852 34.7767 196.854 34.7807 196.856 34.7833C197.416 35.9506 198.363 36.6386 199.669 36.8314C200.134 36.8997 200.432 36.8515 200.637 36.6735C200.842 36.4968 200.934 36.209 200.934 35.7418L200.936 33.4287C200.937 31.0326 200.938 28.5535 200.93 26.1159C200.928 25.5456 200.889 24.9647 200.814 24.3877ZM196.471 25.9151C196.471 29.8667 193.264 33.0847 189.322 33.09C189.319 33.09 189.317 33.09 189.313 33.09C187.401 33.09 185.601 32.3431 184.243 30.9871C182.882 29.627 182.132 27.8226 182.134 25.9044C182.134 23.9929 182.885 22.1911 184.249 20.8311C185.61 19.4737 187.409 18.7268 189.318 18.7268C189.323 18.7268 189.329 18.7268 189.334 18.7268C193.269 18.7348 196.473 21.9595 196.471 25.9151Z" fill="white" fill-opacity="0.72"/>
<path d="M245.988 24.0888C245.97 21.3152 244.901 18.9191 242.807 16.9661C239.766 14.1283 235.397 13.4924 231.677 15.3491C231.379 15.4976 231.096 15.665 230.794 15.843C230.74 15.8751 230.683 15.9086 230.627 15.9407V15.8082C230.626 15.3156 230.628 14.823 230.63 14.329C230.634 13.2234 230.639 12.0788 230.603 10.9544C230.544 9.14597 228.93 7.61326 227.078 7.60791C227.077 7.60791 227.076 7.60791 227.074 7.60791C226.524 7.60791 226.219 7.89839 226.192 8.4499C226.188 8.52352 226.19 8.59848 226.19 8.6721L226.191 35.7347V35.8029C226.19 35.9154 226.19 36.0318 226.204 36.1496C226.258 36.5593 226.526 36.8136 226.939 36.847C226.987 36.8511 227.037 36.8524 227.088 36.8524C227.21 36.8524 227.341 36.8417 227.48 36.8189C229.382 36.5164 230.618 35.0654 230.626 33.1217C230.632 31.6118 230.631 30.1018 230.63 28.5919C230.628 27.6053 230.628 26.6201 230.63 25.6336C230.63 25.4943 230.63 25.3551 230.628 25.2159C230.626 24.7126 230.623 24.1932 230.663 23.6886C230.811 21.8065 231.93 20.1694 233.655 19.3073C235.371 18.4506 237.34 18.5403 238.921 19.5456C240.657 20.6513 241.541 22.2536 241.543 24.3124C241.545 25.2976 241.543 26.2814 241.542 27.2667C241.539 29.2906 241.537 31.3829 241.564 33.4416C241.588 35.2447 243.175 36.8056 245.031 36.8497C245.356 36.8578 245.593 36.7841 245.755 36.6262C245.914 36.4709 245.992 36.2407 245.992 35.9261C245.992 34.8512 245.993 33.7776 245.994 32.7027C246.001 29.881 246.005 26.9615 245.988 24.0888Z" fill="black"/>
<path d="M245.988 24.0888C245.97 21.3152 244.901 18.9191 242.807 16.9661C239.766 14.1283 235.397 13.4924 231.677 15.3491C231.379 15.4976 231.096 15.665 230.794 15.843C230.74 15.8751 230.683 15.9086 230.627 15.9407V15.8082C230.626 15.3156 230.628 14.823 230.63 14.329C230.634 13.2234 230.639 12.0788 230.603 10.9544C230.544 9.14597 228.93 7.61326 227.078 7.60791C227.077 7.60791 227.076 7.60791 227.074 7.60791C226.524 7.60791 226.219 7.89839 226.192 8.4499C226.188 8.52352 226.19 8.59848 226.19 8.6721L226.191 35.7347V35.8029C226.19 35.9154 226.19 36.0318 226.204 36.1496C226.258 36.5593 226.526 36.8136 226.939 36.847C226.987 36.8511 227.037 36.8524 227.088 36.8524C227.21 36.8524 227.341 36.8417 227.48 36.8189C229.382 36.5164 230.618 35.0654 230.626 33.1217C230.632 31.6118 230.631 30.1018 230.63 28.5919C230.628 27.6053 230.628 26.6201 230.63 25.6336C230.63 25.4943 230.63 25.3551 230.628 25.2159C230.626 24.7126 230.623 24.1932 230.663 23.6886C230.811 21.8065 231.93 20.1694 233.655 19.3073C235.371 18.4506 237.34 18.5403 238.921 19.5456C240.657 20.6513 241.541 22.2536 241.543 24.3124C241.545 25.2976 241.543 26.2814 241.542 27.2667C241.539 29.2906 241.537 31.3829 241.564 33.4416C241.588 35.2447 243.175 36.8056 245.031 36.8497C245.356 36.8578 245.593 36.7841 245.755 36.6262C245.914 36.4709 245.992 36.2407 245.992 35.9261C245.992 34.8512 245.993 33.7776 245.994 32.7027C246.001 29.881 246.005 26.9615 245.988 24.0888Z" fill="white" fill-opacity="0.72"/>
<path d="M223.544 14.9393C222.817 14.9353 222.091 14.9366 221.364 14.9366H220.124V12.9849C220.124 11.5018 220.124 10.0172 220.123 8.53406C220.123 8.2128 220.044 7.97988 219.885 7.82461C219.724 7.66933 219.491 7.59838 219.167 7.60775C217.391 7.65996 215.892 9.03337 215.755 10.7321C215.681 11.6423 215.687 12.5686 215.692 13.4655C215.695 13.8644 215.697 14.2646 215.692 14.6622C215.691 14.7505 215.691 14.8376 215.692 14.9353H215.19C214.661 14.9339 214.146 14.9339 213.632 14.938C213.106 14.9433 212.787 15.2445 212.779 15.7438C212.765 16.6581 212.765 17.6071 212.778 18.5656C212.785 19.0689 213.101 19.3727 213.623 19.3808C214.034 19.3861 214.445 19.3848 214.855 19.3848L215.691 19.3835V28.9505C215.691 29.3761 215.689 29.8018 215.688 30.2262C215.685 31.1873 215.683 32.1805 215.693 33.159C215.715 35.1094 217.004 36.5725 218.899 36.8014C219.032 36.8174 219.148 36.8255 219.253 36.8255C219.529 36.8255 219.712 36.7679 219.851 36.6434C220.089 36.4333 220.122 36.0598 220.122 35.7225V19.3808H220.253C220.46 19.3821 220.652 19.3821 220.843 19.3794C222.815 19.3473 224.354 17.836 224.424 15.8629C224.435 15.5631 224.362 15.3315 224.211 15.1735C224.062 15.0209 223.837 14.9406 223.544 14.9393Z" fill="black"/>
<path d="M223.544 14.9393C222.817 14.9353 222.091 14.9366 221.364 14.9366H220.124V12.9849C220.124 11.5018 220.124 10.0172 220.123 8.53406C220.123 8.2128 220.044 7.97988 219.885 7.82461C219.724 7.66933 219.491 7.59838 219.167 7.60775C217.391 7.65996 215.892 9.03337 215.755 10.7321C215.681 11.6423 215.687 12.5686 215.692 13.4655C215.695 13.8644 215.697 14.2646 215.692 14.6622C215.691 14.7505 215.691 14.8376 215.692 14.9353H215.19C214.661 14.9339 214.146 14.9339 213.632 14.938C213.106 14.9433 212.787 15.2445 212.779 15.7438C212.765 16.6581 212.765 17.6071 212.778 18.5656C212.785 19.0689 213.101 19.3727 213.623 19.3808C214.034 19.3861 214.445 19.3848 214.855 19.3848L215.691 19.3835V28.9505C215.691 29.3761 215.689 29.8018 215.688 30.2262C215.685 31.1873 215.683 32.1805 215.693 33.159C215.715 35.1094 217.004 36.5725 218.899 36.8014C219.032 36.8174 219.148 36.8255 219.253 36.8255C219.529 36.8255 219.712 36.7679 219.851 36.6434C220.089 36.4333 220.122 36.0598 220.122 35.7225V19.3808H220.253C220.46 19.3821 220.652 19.3821 220.843 19.3794C222.815 19.3473 224.354 17.836 224.424 15.8629C224.435 15.5631 224.362 15.3315 224.211 15.1735C224.062 15.0209 223.837 14.9406 223.544 14.9393Z" fill="white" fill-opacity="0.72"/>
<path d="M206.227 7.65505C205.887 7.6015 205.505 7.57339 205.258 7.78489C205.013 7.99371 204.981 8.36316 204.981 8.69782V23.3435C204.981 26.5187 204.981 29.6952 204.981 32.8703V32.9225C204.981 33.1193 204.981 33.3228 204.995 33.5249C205.127 35.3066 206.618 36.7657 208.391 36.8487C208.429 36.85 208.464 36.8513 208.499 36.8513C208.804 36.8513 209.018 36.7844 209.165 36.6439C209.33 36.4859 209.407 36.2423 209.407 35.8755V31.928C209.409 25.0676 209.409 18.2059 209.406 11.3456C209.405 9.35105 208.216 7.97096 206.227 7.65505Z" fill="black"/>
<path d="M206.227 7.65505C205.887 7.6015 205.505 7.57339 205.258 7.78489C205.013 7.99371 204.981 8.36316 204.981 8.69782V23.3435C204.981 26.5187 204.981 29.6952 204.981 32.8703V32.9225C204.981 33.1193 204.981 33.3228 204.995 33.5249C205.127 35.3066 206.618 36.7657 208.391 36.8487C208.429 36.85 208.464 36.8513 208.499 36.8513C208.804 36.8513 209.018 36.7844 209.165 36.6439C209.33 36.4859 209.407 36.2423 209.407 35.8755V31.928C209.409 25.0676 209.409 18.2059 209.406 11.3456C209.405 9.35105 208.216 7.97096 206.227 7.65505Z" fill="white" fill-opacity="0.72"/>
<path d="M55.867 14.2956C52.7762 14.2769 49.85 15.4897 47.6426 17.689C45.4272 19.8883 44.2118 22.8118 44.2078 25.9094C44.2078 29.0042 45.4205 31.9157 47.6199 34.111C49.8192 36.3063 52.7387 37.5151 55.8376 37.5151C55.8376 37.5151 55.8376 37.5151 55.8416 37.5151C62.2307 37.511 67.4325 32.3119 67.4406 25.9241C67.4419 19.5403 62.2548 14.3224 55.867 14.2956ZM61.631 24.8117C61.619 25.1745 61.5588 25.5265 61.4396 25.8679C61.3633 26.0861 61.283 26.3042 61.1759 26.5064C61.0233 26.8049 60.8587 27.0994 60.6713 27.3791C60.255 28.011 59.761 28.5839 59.2443 29.1354C58.7169 29.6976 58.1654 30.233 57.5764 30.735C57.0865 31.1513 56.5899 31.5543 56.0919 31.9625C56.0611 31.9893 56.0236 32.0121 55.9848 32.0388C55.8697 32.1191 55.7519 32.1071 55.6448 32.0241C55.3503 31.7912 55.0518 31.5609 54.7613 31.32C54.4093 31.0295 54.0612 30.731 53.7212 30.4245C53.4227 30.1527 53.1363 29.873 52.8458 29.5905C52.2795 29.0323 51.7588 28.4353 51.2769 27.8035C50.9945 27.4327 50.7335 27.0458 50.5233 26.6295C50.3667 26.3123 50.2328 25.991 50.1405 25.6497C50.0561 25.3284 50.0066 24.9991 50.0146 24.643C50.0026 24.3258 50.0535 23.9925 50.1405 23.6712C50.2435 23.2844 50.4042 22.9216 50.6344 22.5883C50.8258 22.3165 51.048 22.0676 51.3157 21.8695C51.637 21.6285 51.9931 21.4598 52.3786 21.3527C52.7079 21.2604 53.0399 21.2376 53.3772 21.2577C53.6878 21.2724 53.9889 21.346 54.2794 21.4598C54.6997 21.6205 55.0679 21.8614 55.369 22.1867C55.515 22.3433 55.6328 22.516 55.7626 22.6847C55.8081 22.7462 55.8389 22.7502 55.8817 22.6847C56.0839 22.3741 56.3221 22.1064 56.6166 21.8815C56.9071 21.6593 57.2284 21.4946 57.5764 21.3835C57.99 21.2577 58.4104 21.2189 58.8387 21.2684C59.1145 21.3032 59.3782 21.3675 59.6338 21.4705C60.0354 21.6352 60.3875 21.8721 60.69 22.1854C60.9002 22.4036 61.0769 22.6525 61.2134 22.9203C61.3165 23.1224 61.3928 23.3406 61.4704 23.5588C61.6083 23.967 61.6471 24.3874 61.631 24.8117Z" fill="black"/>
<path d="M55.867 14.2956C52.7762 14.2769 49.85 15.4897 47.6426 17.689C45.4272 19.8883 44.2118 22.8118 44.2078 25.9094C44.2078 29.0042 45.4205 31.9157 47.6199 34.111C49.8192 36.3063 52.7387 37.5151 55.8376 37.5151C55.8376 37.5151 55.8376 37.5151 55.8416 37.5151C62.2307 37.511 67.4325 32.3119 67.4406 25.9241C67.4419 19.5403 62.2548 14.3224 55.867 14.2956ZM61.631 24.8117C61.619 25.1745 61.5588 25.5265 61.4396 25.8679C61.3633 26.0861 61.283 26.3042 61.1759 26.5064C61.0233 26.8049 60.8587 27.0994 60.6713 27.3791C60.255 28.011 59.761 28.5839 59.2443 29.1354C58.7169 29.6976 58.1654 30.233 57.5764 30.735C57.0865 31.1513 56.5899 31.5543 56.0919 31.9625C56.0611 31.9893 56.0236 32.0121 55.9848 32.0388C55.8697 32.1191 55.7519 32.1071 55.6448 32.0241C55.3503 31.7912 55.0518 31.5609 54.7613 31.32C54.4093 31.0295 54.0612 30.731 53.7212 30.4245C53.4227 30.1527 53.1363 29.873 52.8458 29.5905C52.2795 29.0323 51.7588 28.4353 51.2769 27.8035C50.9945 27.4327 50.7335 27.0458 50.5233 26.6295C50.3667 26.3123 50.2328 25.991 50.1405 25.6497C50.0561 25.3284 50.0066 24.9991 50.0146 24.643C50.0026 24.3258 50.0535 23.9925 50.1405 23.6712C50.2435 23.2844 50.4042 22.9216 50.6344 22.5883C50.8258 22.3165 51.048 22.0676 51.3157 21.8695C51.637 21.6285 51.9931 21.4598 52.3786 21.3527C52.7079 21.2604 53.0399 21.2376 53.3772 21.2577C53.6878 21.2724 53.9889 21.346 54.2794 21.4598C54.6997 21.6205 55.0679 21.8614 55.369 22.1867C55.515 22.3433 55.6328 22.516 55.7626 22.6847C55.8081 22.7462 55.8389 22.7502 55.8817 22.6847C56.0839 22.3741 56.3221 22.1064 56.6166 21.8815C56.9071 21.6593 57.2284 21.4946 57.5764 21.3835C57.99 21.2577 58.4104 21.2189 58.8387 21.2684C59.1145 21.3032 59.3782 21.3675 59.6338 21.4705C60.0354 21.6352 60.3875 21.8721 60.69 22.1854C60.9002 22.4036 61.0769 22.6525 61.2134 22.9203C61.3165 23.1224 61.3928 23.3406 61.4704 23.5588C61.6083 23.967 61.6471 24.3874 61.631 24.8117Z" fill="white" fill-opacity="0.44"/>
</svg>
