<svg width="152" height="28" viewBox="0 0 152 28" fill="none" xmlns="http://www.w3.org/2000/svg">
<path fill-rule="evenodd" clip-rule="evenodd" d="M16.1842 0.015625C17.7616 0.015625 19.2668 0.268005 20.682 0.727698C16.7791 9.60607 9.65836 16.7719 0.680832 20.828V0.015625H16.1842ZM0.680786 27.9844V25.1361L3.22262 23.9373C12.6779 19.4936 20.1321 11.8501 24.2603 2.46692C27.9919 4.99073 30.4346 9.20908 30.4346 13.9953C30.4346 21.7199 24.053 27.9844 16.1841 27.9844H0.680786Z" fill="#B8B8B8"/>
<path fill-rule="evenodd" clip-rule="evenodd" d="M40.4346 22.3489H47.0698V22.3671C48.8198 22.3671 50.3328 22.039 51.627 21.3646C52.9212 20.6901 53.9056 19.7058 54.6165 18.448C55.3274 17.172 55.6737 15.659 55.6737 13.8908C55.6737 12.1227 55.3274 10.6097 54.6165 9.35193C53.9056 8.07593 52.903 7.10981 51.6088 6.43535C50.3327 5.76089 48.7833 5.41455 47.0152 5.41455H40.4346V22.3489ZM46.9058 18.448H45.1194L45.1011 18.4298V9.29724H46.7599C47.6531 9.29724 48.4187 9.42484 49.0385 9.69827C49.6765 9.9717 50.1322 10.4456 50.4604 11.1019C50.7885 11.7763 50.9525 12.6878 50.9525 13.8726C50.9525 15.0575 50.8067 15.9871 50.4786 16.6434C50.1687 17.3178 49.6948 17.7735 49.0932 18.047C48.4917 18.3204 47.7625 18.448 46.9058 18.448ZM60.5408 21.8014C61.5434 22.33 62.7282 22.5852 64.1136 22.5852L64.0771 22.567C65.2802 22.567 66.3192 22.3847 67.2124 22.0383C68.1056 21.6738 68.8348 21.1634 69.3816 20.5254C69.9285 19.8691 70.2748 19.1035 70.4207 18.2286H66.1734C66.0823 18.4655 65.9364 18.6843 65.7542 18.8483C65.5536 19.0124 65.3349 19.14 65.0615 19.2311C64.8063 19.3223 64.5146 19.3587 64.1865 19.3587C63.7126 19.3587 63.3298 19.2676 63.0016 19.0853C62.6735 18.903 62.4365 18.666 62.2543 18.3379C62.0902 18.0098 61.9991 17.6452 61.9991 17.2442V14.5281C61.9991 14.1636 62.1084 13.8355 62.2907 13.562C62.4912 13.2886 62.7464 13.0699 63.0563 12.924C63.3662 12.76 63.7126 12.6871 64.0954 12.6871C64.4782 12.6871 64.8245 12.76 65.1344 12.924C65.4443 13.0881 65.6812 13.3068 65.8635 13.5803C66.0458 13.8537 66.1552 14.1818 66.1552 14.5464H62.0173V17.0619H70.4389V16.0047C70.4389 15.0021 70.2931 14.0907 69.9832 13.2886C69.6915 12.4683 69.254 11.7939 68.689 11.2288C68.1421 10.6637 67.4494 10.2262 66.6656 9.93455C65.8635 9.62466 64.9886 9.47883 64.0042 9.47883C62.6735 9.47883 61.5069 9.75226 60.5226 10.2991C59.5382 10.846 58.7908 11.6116 58.244 12.5959C57.7154 13.5803 57.4419 14.674 57.4419 16.0411C57.4419 17.4083 57.7154 18.5749 58.244 19.5592C58.7726 20.5254 59.5382 21.2727 60.5408 21.8014ZM74.6861 9.64271L76.5819 13.5801L78.5688 9.64271H83.1806L79.7172 15.9863L83.3629 22.348H78.7693L76.5819 18.3195L74.4491 22.348H69.8008L73.483 15.9863L70.0378 9.64271H74.6861ZM84.3109 5.41476V9.11517H89.506V22.3491H94.1178V9.11517H99.313V5.41476H84.3109ZM99.7869 22.3488V22.3305H104.399V15.7136C104.399 15.2396 104.508 14.8204 104.709 14.4558C104.927 14.0912 105.201 13.8178 105.565 13.6173C105.948 13.4168 106.349 13.3074 106.805 13.3074C107.06 13.3074 107.352 13.3256 107.68 13.3621C108.026 13.4168 108.3 13.4714 108.537 13.5444V9.64345C108.354 9.58876 108.154 9.5523 107.953 9.51584C107.753 9.46116 107.552 9.46116 107.352 9.46116C106.659 9.46116 106.058 9.66167 105.547 10.0809C105.037 10.5002 104.672 11.1564 104.435 12.0496H104.308V9.64345H99.7869V22.3305H99.7504L99.7869 22.3488ZM110.906 22.1483C111.544 22.4217 112.273 22.5493 113.094 22.5493C113.659 22.5493 114.169 22.4764 114.643 22.3488C115.117 22.2212 115.536 22.0024 115.901 21.7108C116.284 21.4191 116.594 21.0363 116.849 20.5624H116.958V22.3488H121.315V13.6537C121.315 13.0522 121.169 12.5236 120.896 12.0132C120.622 11.5028 120.221 11.0653 119.711 10.6825C119.2 10.2997 118.562 9.98979 117.833 9.78927C117.086 9.57053 116.266 9.46116 115.336 9.46116C114.042 9.46116 112.966 9.66167 112.109 10.0627C111.253 10.4455 110.596 10.9741 110.141 11.6304C109.703 12.2866 109.448 12.9975 109.393 13.7631H113.677C113.732 13.3621 113.896 13.0704 114.169 12.8881C114.461 12.6876 114.825 12.5965 115.263 12.5965C115.682 12.5965 116.01 12.6876 116.266 12.8699C116.521 13.0522 116.648 13.3074 116.648 13.6355V13.672C116.648 13.9089 116.557 14.1094 116.357 14.2553C116.156 14.4011 115.828 14.5105 115.391 14.6016C114.953 14.6745 114.37 14.7474 113.641 14.8021C112.966 14.8568 112.346 14.9662 111.763 15.1302C111.18 15.2943 110.688 15.5313 110.25 15.8412C109.831 16.1693 109.485 16.5703 109.248 17.0625C109.011 17.5547 108.883 18.1562 108.883 18.8489C108.883 19.6874 109.065 20.3801 109.43 20.9269C109.776 21.4738 110.268 21.8748 110.906 22.1483ZM115.609 19.4504C115.299 19.5963 114.953 19.6692 114.607 19.6692H114.589C114.206 19.6692 113.878 19.578 113.622 19.3957C113.367 19.2135 113.24 18.94 113.24 18.5937C113.24 18.3749 113.294 18.1744 113.404 17.9921C113.513 17.8099 113.695 17.664 113.914 17.5364C114.151 17.4088 114.443 17.3177 114.807 17.263C114.892 17.2461 114.977 17.2331 115.059 17.2203C115.155 17.2057 115.248 17.1914 115.336 17.1719C115.518 17.1354 115.682 17.0989 115.828 17.0625C115.936 17.0384 116.036 17.0065 116.129 16.977C116.176 16.9618 116.222 16.9473 116.266 16.9349C116.323 16.9132 116.378 16.8944 116.432 16.8761L116.432 16.8761C116.513 16.8484 116.59 16.822 116.667 16.7891V17.8463C116.667 18.2291 116.575 18.5572 116.375 18.8307C116.174 19.1041 115.919 19.3046 115.609 19.4504ZM128.187 22.5132C127.257 22.5132 126.419 22.2762 125.635 21.8023C124.87 21.3283 124.25 20.6174 123.776 19.6513C123.32 18.6852 123.083 17.4639 123.083 16.0056C123.083 14.5473 123.32 13.2348 123.812 12.2687C124.304 11.3026 124.924 10.6099 125.708 10.1542C126.492 9.69848 127.294 9.47974 128.151 9.47974C128.789 9.47974 129.354 9.58911 129.828 9.80785C130.302 10.0266 130.721 10.3183 131.049 10.6828C131.377 11.0474 131.614 11.4302 131.796 11.8677H131.869V5.41476H136.518V22.3491H131.906V20.2711H131.796C131.614 20.7085 131.359 21.0913 131.013 21.4377C130.684 21.7658 130.283 22.0392 129.791 22.2397C129.317 22.4403 128.789 22.5314 128.169 22.5314L128.187 22.5132ZM129.901 19.0133C130.32 19.0133 130.684 18.8857 130.994 18.6487C131.304 18.3935 131.541 18.0472 131.705 17.6097C131.869 17.154 131.96 16.6253 131.96 16.0056C131.96 15.3858 131.869 14.8389 131.705 14.4015C131.541 13.9457 131.304 13.5994 130.994 13.3624C130.684 13.1255 130.32 12.9979 129.901 12.9979C129.481 12.9979 129.117 13.1255 128.807 13.3624C128.515 13.5994 128.278 13.9457 128.114 14.4015C127.95 14.8572 127.877 15.3858 127.877 16.0056C127.877 16.6253 127.95 17.1722 128.114 17.6279C128.278 18.0654 128.515 18.4117 128.807 18.6669C129.117 18.9039 129.481 19.0315 129.901 19.0315V19.0133ZM141.421 21.8014C142.419 22.3277 143.598 22.583 144.976 22.5852C144.97 22.5852 144.964 22.5852 144.957 22.5852H144.994C144.988 22.5852 144.982 22.5852 144.976 22.5852C146.171 22.5833 147.204 22.4011 148.093 22.0566C148.986 21.692 149.715 21.1816 150.262 20.5436C150.809 19.8874 151.155 19.1218 151.301 18.2468H147.054C146.963 18.4838 146.817 18.7025 146.634 18.8666C146.434 19.0306 146.215 19.1582 145.942 19.2494C145.687 19.3405 145.395 19.377 145.067 19.377C144.593 19.377 144.21 19.2858 143.882 19.1035C143.554 18.9212 143.317 18.6843 143.135 18.3562C142.97 18.028 142.879 17.6635 142.879 17.2624V14.5464C142.879 14.1818 142.989 13.8537 143.171 13.5803C143.371 13.3068 143.627 13.0881 143.937 12.9423C144.246 12.7782 144.593 12.7053 144.976 12.7053C145.358 12.7053 145.705 12.7782 146.015 12.9423C146.325 13.1063 146.561 13.3251 146.744 13.5985C146.926 13.8719 147.035 14.1818 147.035 14.5281H142.898V17.0619H151.319V16.0047C151.319 15.0021 151.173 14.0907 150.863 13.2886C150.572 12.4683 150.134 11.7939 149.569 11.2288C149.022 10.6637 148.33 10.2262 147.546 9.93455C146.744 9.62466 145.869 9.47883 144.884 9.47883C143.554 9.47883 142.387 9.75226 141.403 10.2991C140.418 10.846 139.671 11.6116 139.124 12.5959C138.596 13.5803 138.322 14.674 138.322 16.0411C138.322 17.4083 138.596 18.5749 139.124 19.5592C139.653 20.5254 140.418 21.2727 141.421 21.8014Z" fill="#B8B8B8"/>
</svg>
