<?xml version="1.0" encoding="UTF-8"?>
<svg id="Layer_1" xmlns="http://www.w3.org/2000/svg" version="1.1" viewBox="0 0 99.81 31.03">
  <!-- Generator: Adobe Illustrator 29.1.0, SVG Export Plug-In . SVG Version: 2.1.0 Build 142)  -->
  <path d="M0,27.87v3.16h17.2c8.73,0,15.81-6.95,15.81-15.52,0-5.31-2.71-9.99-6.85-12.79C21.58,13.13,13.31,21.61,2.82,26.54l-2.82,1.33Z" fill="#b8b8b8"/>
  <path d="M22.19.79c-1.57-.51-3.24-.79-4.99-.79H0v23.09C9.96,18.59,17.86,10.64,22.19.79Z" fill="#b8b8b8"/>
  <path d="M42.61,19.94h-3.64v-9.29h3.61c.97,0,1.82.19,2.52.56.71.37,1.26.9,1.65,1.6.39.69.58,1.52.58,2.49s-.19,1.8-.58,2.5c-.39.69-.93,1.23-1.64,1.6-.71.37-1.54.55-2.5.55ZM41.54,17.8h.98c.47,0,.87-.07,1.2-.22.33-.15.59-.4.76-.77.18-.36.26-.87.26-1.52s-.09-1.15-.27-1.52c-.18-.36-.43-.62-.78-.77-.34-.15-.76-.22-1.25-.22h-.91v5.01Z" fill="#b8b8b8"/>
  <path d="M51.96,20.07c-.76,0-1.41-.14-1.96-.43-.55-.29-.97-.7-1.26-1.23-.29-.54-.44-1.18-.44-1.93s.15-1.35.44-1.89c.3-.54.71-.96,1.25-1.26.54-.3,1.18-.45,1.91-.45.54,0,1.02.08,1.46.25.43.16.81.4,1.11.71.31.31.55.68.71,1.13.17.44.25.94.25,1.49v.58h-4.62v-1.38h2.27c0-.2-.06-.38-.16-.53-.1-.15-.23-.27-.4-.36-.17-.09-.36-.13-.57-.13s-.4.04-.57.13c-.17.08-.31.2-.42.35-.1.15-.16.33-.16.53v1.49c0,.22.05.42.14.6.1.18.23.31.41.41.18.1.39.15.65.15.18,0,.34-.02.48-.07.15-.05.27-.12.38-.21.1-.09.18-.21.23-.34h2.33c-.08.48-.27.9-.57,1.26-.3.35-.7.63-1.19.83-.49.19-1.06.29-1.72.29Z" fill="#b8b8b8"/>
  <path d="M57.76,12.97l1.04,2.16,1.09-2.16h2.53l-1.9,3.48,2,3.49h-2.52l-1.2-2.21-1.17,2.21h-2.55l2.02-3.49-1.89-3.48h2.55Z" fill="#b8b8b8"/>
  <path d="M63.04,12.68v-2.03h8.23v2.03h-2.85v7.26h-2.53v-7.26h-2.85Z" fill="#b8b8b8"/>
  <path d="M71.53,19.94v-6.97h2.48v1.32h.07c.13-.49.33-.85.61-1.08.28-.23.61-.34.99-.34.11,0,.22,0,.33.03.11.02.22.04.32.07v2.14c-.13-.04-.28-.07-.47-.1-.18-.02-.34-.03-.48-.03-.25,0-.47.06-.68.17-.2.11-.35.26-.47.46-.11.2-.17.43-.17.69v3.63h-2.55Z" fill="#b8b8b8"/>
  <path d="M78.83,20.05c-.45,0-.85-.07-1.2-.22-.35-.15-.62-.37-.81-.67-.2-.3-.3-.68-.3-1.14,0-.38.07-.71.2-.98.13-.27.32-.49.55-.67.24-.17.51-.3.83-.39.32-.09.66-.15,1.03-.18.4-.03.72-.07.96-.11.24-.05.42-.11.53-.19.11-.08.16-.19.16-.32v-.02c0-.18-.07-.32-.21-.42-.14-.1-.32-.15-.55-.15-.24,0-.44.05-.6.16-.15.1-.24.26-.27.48h-2.35c.03-.42.17-.81.41-1.17.25-.36.61-.65,1.08-.86.47-.22,1.06-.33,1.77-.33.51,0,.96.06,1.37.18.4.11.75.28,1.03.49.28.21.5.45.65.73.15.28.23.57.23.9v4.77h-2.39v-.98h-.06c-.14.26-.31.47-.52.63-.2.16-.43.28-.69.35-.26.07-.54.11-.85.11ZM79.66,18.47c.19,0,.38-.04.55-.12.17-.08.31-.19.42-.34.11-.15.16-.33.16-.54v-.58c-.07.03-.14.05-.22.08-.07.02-.15.05-.24.07-.08.02-.17.04-.27.06-.09.02-.19.03-.29.05-.2.03-.36.08-.49.15-.12.07-.22.15-.28.25-.06.1-.09.21-.09.33,0,.19.07.34.21.44.14.1.32.15.53.15Z" fill="#b8b8b8"/>
  <path d="M87.11,20.03c-.51,0-.97-.13-1.4-.39-.42-.26-.76-.65-1.02-1.18-.25-.53-.38-1.2-.38-2s.13-1.52.4-2.05c.27-.53.61-.91,1.04-1.16.43-.25.87-.37,1.34-.37.35,0,.66.06.92.18.26.12.49.28.67.48.18.2.31.41.41.65h.04v-3.54h2.55v9.29h-2.53v-1.14h-.06c-.1.24-.24.45-.43.64-.18.18-.4.33-.67.44-.26.11-.55.16-.89.16ZM88.05,18.11c.23,0,.43-.07.6-.2.17-.14.3-.33.39-.57.09-.25.14-.54.14-.88s-.05-.64-.14-.88c-.09-.25-.22-.44-.39-.57-.17-.13-.37-.2-.6-.2s-.43.07-.6.2c-.16.13-.29.32-.38.57-.09.25-.13.54-.13.88s.04.64.13.89c.09.24.22.43.38.57.17.13.37.2.6.2Z" fill="#b8b8b8"/>
  <path d="M96.33,20.07c-.76,0-1.41-.14-1.96-.43-.55-.29-.97-.7-1.26-1.23-.29-.54-.44-1.18-.44-1.93s.15-1.35.44-1.89c.3-.54.71-.96,1.25-1.26.54-.3,1.18-.45,1.91-.45.54,0,1.02.08,1.46.25.43.16.81.4,1.11.71.31.31.55.68.71,1.13.17.44.25.94.25,1.49v.58h-4.62v-1.39h2.27c0-.19-.06-.36-.16-.51-.1-.15-.23-.27-.4-.36-.17-.09-.36-.13-.57-.13s-.4.04-.57.13c-.17.08-.31.2-.42.35-.1.15-.16.33-.16.53v1.49c0,.22.05.42.14.6.1.18.23.31.41.41.18.1.39.15.65.15.18,0,.34-.02.48-.07.15-.05.27-.12.38-.21.1-.09.18-.21.23-.34h2.33c-.08.48-.27.9-.57,1.26-.3.35-.7.63-1.19.83-.49.19-1.06.29-1.72.29Z" fill="#b8b8b8"/>
</svg>