<svg width="140" height="28" viewBox="0 0 140 28" fill="none" xmlns="http://www.w3.org/2000/svg">
<path fill-rule="evenodd" clip-rule="evenodd" d="M12.0854 3.28857C13.2936 3.28857 14.4465 3.48188 15.5304 3.83398C12.5411 10.6343 7.08698 16.1229 0.210704 19.2297V3.28857H12.0854ZM0.210632 24.7112V22.5295L2.15753 21.6113C9.39972 18.2077 15.1092 12.3532 18.2712 5.16623C21.1294 7.09932 23.0004 10.3303 23.0004 13.9963C23.0004 19.913 18.1124 24.7112 12.0853 24.7112H0.210632Z" fill="#B8B8B8"/>
<path fill-rule="evenodd" clip-rule="evenodd" d="M33.0004 22.0403H39.3905V22.0579C41.0758 22.0579 42.5329 21.7419 43.7793 21.0923C45.0257 20.4428 45.9737 19.4948 46.6584 18.2835C47.343 17.0546 47.6766 15.5975 47.6766 13.8947C47.6766 12.1918 47.343 10.7347 46.6584 9.52339C45.9737 8.29452 45.0082 7.36409 43.7618 6.71454C42.5329 6.065 41.0407 5.73145 39.3378 5.73145H33.0004V22.0403ZM39.2325 18.2835H37.5121L37.4945 18.2659V9.47073H39.0921C39.9523 9.47073 40.6896 9.59361 41.2865 9.85694C41.9009 10.1203 42.3398 10.5767 42.6558 11.2087C42.9718 11.8582 43.1298 12.736 43.1298 13.8771C43.1298 15.0182 42.9893 15.9135 42.6733 16.5455C42.3749 17.1951 41.9185 17.6339 41.3391 17.8973C40.7598 18.1606 40.0576 18.2835 39.2325 18.2835ZM52.3639 21.5134C53.3294 22.0225 54.4705 22.2682 55.8047 22.2682L55.7696 22.2507C56.9282 22.2507 57.9289 22.0751 58.7891 21.7416C59.6493 21.3905 60.3515 20.8989 60.8782 20.2845C61.4048 19.6525 61.7384 18.9152 61.8788 18.0725H57.7885C57.7007 18.3007 57.5602 18.5114 57.3847 18.6694C57.1916 18.8274 56.9809 18.9503 56.7176 19.0381C56.4718 19.1258 56.1909 19.161 55.8749 19.161C55.4185 19.161 55.0498 19.0732 54.7338 18.8976C54.4178 18.7221 54.1896 18.4939 54.0141 18.1779C53.8561 17.8619 53.7683 17.5108 53.7683 17.1245V14.5088C53.7683 14.1577 53.8736 13.8417 54.0492 13.5784C54.2423 13.315 54.4881 13.1044 54.7865 12.9639C55.0849 12.8059 55.4185 12.7357 55.7871 12.7357C56.1558 12.7357 56.4894 12.8059 56.7878 12.9639C57.0862 13.1219 57.3145 13.3326 57.49 13.5959C57.6656 13.8593 57.7709 14.1752 57.7709 14.5264H53.7858V16.949H61.8964V15.9308C61.8964 14.9652 61.7559 14.0875 61.4575 13.315C61.1766 12.5251 60.7553 11.8755 60.2111 11.3313C59.6844 10.7871 59.0173 10.3657 58.2624 10.0849C57.49 9.78642 56.6474 9.64598 55.6994 9.64598C54.4178 9.64598 53.2943 9.90931 52.3463 10.436C51.3983 10.9626 50.6786 11.7 50.1519 12.6479C49.6428 13.5959 49.3795 14.6492 49.3795 15.9659C49.3795 17.2825 49.6428 18.4061 50.1519 19.3541C50.661 20.2845 51.3983 21.0043 52.3639 21.5134ZM65.9867 9.80351L67.8125 13.5955L69.726 9.80351H74.1675L70.832 15.9128L74.3431 22.0396H69.9191L67.8125 18.1598L65.7585 22.0396H61.2819L64.8281 15.9128L61.5101 9.80351H65.9867ZM75.256 5.73165V9.29538H80.2593V22.0405H84.7007V9.29538H89.704V5.73165H75.256ZM90.1604 22.0402V22.0226H94.6019V15.6501C94.6019 15.1936 94.7072 14.7898 94.9003 14.4387C95.111 14.0876 95.3743 13.8243 95.7254 13.6312C96.0941 13.4381 96.4803 13.3328 96.9192 13.3328C97.165 13.3328 97.4459 13.3503 97.7619 13.3854C98.0954 13.4381 98.3587 13.4907 98.587 13.561V9.80414C98.4114 9.75147 98.2183 9.71636 98.0252 9.68125C97.8321 9.62858 97.639 9.62858 97.4459 9.62858C96.7788 9.62858 96.1994 9.82169 95.7079 10.2255C95.2163 10.6292 94.8652 11.2612 94.637 12.1214H94.5141V9.80414H90.1604V22.0226H90.1253L90.1604 22.0402ZM100.869 21.8471C101.484 22.1104 102.186 22.2333 102.976 22.2333C103.52 22.2333 104.012 22.1631 104.468 22.0402C104.924 21.9173 105.328 21.7066 105.679 21.4257C106.048 21.1449 106.346 20.7762 106.592 20.3198H106.697V22.0402H110.893V13.6663C110.893 13.087 110.753 12.5779 110.489 12.0863C110.226 11.5948 109.84 11.1734 109.348 10.8048C108.857 10.4361 108.242 10.1377 107.54 9.94458C106.82 9.73391 106.03 9.62858 105.135 9.62858C103.889 9.62858 102.853 9.82169 102.028 10.2079C101.203 10.5766 100.571 11.0857 100.132 11.7177C99.7105 12.3497 99.4647 13.0343 99.4121 13.7716H103.538C103.59 13.3854 103.748 13.1045 104.012 12.929C104.292 12.7359 104.644 12.6481 105.065 12.6481C105.469 12.6481 105.785 12.7359 106.03 12.9114C106.276 13.087 106.399 13.3328 106.399 13.6487V13.6839C106.399 13.9121 106.311 14.1052 106.118 14.2456C105.925 14.3861 105.609 14.4914 105.188 14.5792C104.766 14.6494 104.205 14.7196 103.502 14.7723C102.853 14.825 102.256 14.9303 101.694 15.0883C101.132 15.2463 100.658 15.4745 100.237 15.7729C99.8334 16.0889 99.4998 16.4752 99.2716 16.9491C99.0434 17.4231 98.9205 18.0025 98.9205 18.6696C98.9205 19.4771 99.0961 20.1442 99.4472 20.6709C99.7807 21.1975 100.255 21.5837 100.869 21.8471ZM105.398 19.2489C105.1 19.3893 104.766 19.4596 104.433 19.4596H104.415C104.047 19.4596 103.731 19.3718 103.485 19.1962C103.239 19.0207 103.116 18.7573 103.116 18.4238C103.116 18.2131 103.169 18.02 103.274 17.8445C103.38 17.6689 103.555 17.5285 103.766 17.4056C103.994 17.2827 104.275 17.1949 104.626 17.1423C104.707 17.1259 104.789 17.1134 104.869 17.1012C104.961 17.0871 105.05 17.0733 105.135 17.0545C105.311 17.0194 105.469 16.9843 105.609 16.9491C105.713 16.926 105.81 16.8953 105.898 16.8669L105.899 16.8669L105.899 16.8669C105.945 16.8522 105.989 16.8382 106.03 16.8263C106.086 16.8054 106.139 16.7872 106.19 16.7697C106.268 16.743 106.342 16.7176 106.417 16.6858V17.704C106.417 18.0727 106.329 18.3887 106.136 18.652C105.943 18.9153 105.697 19.1084 105.398 19.2489ZM117.512 22.1985C116.616 22.1985 115.809 21.9703 115.054 21.5139C114.317 21.0574 113.72 20.3728 113.263 19.4423C112.824 18.5119 112.596 17.3357 112.596 15.9313C112.596 14.5269 112.824 13.2629 113.298 12.3324C113.772 11.402 114.369 10.7349 115.124 10.296C115.879 9.85715 116.651 9.64648 117.477 9.64648C118.091 9.64648 118.635 9.75182 119.092 9.96248C119.548 10.1731 119.952 10.454 120.268 10.8051C120.584 11.1562 120.812 11.5249 120.988 11.9462H121.058V5.73165H125.534V22.0405H121.093V20.0392H120.988C120.812 20.4606 120.566 20.8292 120.233 21.1628C119.917 21.4788 119.53 21.7421 119.056 21.9352C118.6 22.1283 118.091 22.2161 117.494 22.2161L117.512 22.1985ZM119.162 18.8279C119.566 18.8279 119.917 18.705 120.215 18.4768C120.514 18.231 120.742 17.8975 120.9 17.4762C121.058 17.0373 121.146 16.5282 121.146 15.9313C121.146 15.3344 121.058 14.8077 120.9 14.3864C120.742 13.9475 120.514 13.614 120.215 13.3858C119.917 13.1575 119.566 13.0347 119.162 13.0347C118.758 13.0347 118.407 13.1575 118.109 13.3858C117.828 13.614 117.599 13.9475 117.441 14.3864C117.283 14.8253 117.213 15.3344 117.213 15.9313C117.213 16.5282 117.283 17.0548 117.441 17.4937C117.599 17.915 117.828 18.2486 118.109 18.4944C118.407 18.7226 118.758 18.8455 119.162 18.8455V18.8279ZM130.257 21.5134C131.218 22.0203 132.354 22.2661 133.68 22.2682C133.674 22.2682 133.668 22.2682 133.662 22.2682H133.698C133.692 22.2682 133.686 22.2682 133.68 22.2682C134.831 22.2664 135.826 22.091 136.682 21.7591C137.542 21.408 138.244 20.9165 138.771 20.3021C139.298 19.6701 139.631 18.9327 139.772 18.0901H135.681C135.594 18.3183 135.453 18.529 135.278 18.687C135.084 18.845 134.874 18.9678 134.61 19.0556C134.365 19.1434 134.084 19.1785 133.768 19.1785C133.311 19.1785 132.943 19.0907 132.627 18.9152C132.311 18.7396 132.083 18.5114 131.907 18.1954C131.749 17.8794 131.661 17.5283 131.661 17.1421V14.5264C131.661 14.1752 131.767 13.8593 131.942 13.5959C132.135 13.3326 132.381 13.1219 132.679 12.9815C132.978 12.8235 133.311 12.7533 133.68 12.7533C134.049 12.7533 134.382 12.8235 134.681 12.9815C134.979 13.1395 135.207 13.3502 135.383 13.6135C135.558 13.8768 135.664 14.1752 135.664 14.5088H131.679V16.949H139.789V15.9308C139.789 14.9652 139.649 14.0875 139.35 13.315C139.07 12.5251 138.648 11.8755 138.104 11.3313C137.577 10.7871 136.91 10.3657 136.155 10.0849C135.383 9.78642 134.54 9.64598 133.592 9.64598C132.311 9.64598 131.187 9.90931 130.239 10.436C129.291 10.9626 128.571 11.7 128.045 12.6479C127.536 13.5959 127.272 14.6492 127.272 15.9659C127.272 17.2825 127.536 18.4061 128.045 19.3541C128.554 20.2845 129.291 21.0043 130.257 21.5134Z" fill="#B8B8B8"/>
</svg>
