<?xml version="1.0" encoding="UTF-8"?>
<svg id="Layer_1" xmlns="http://www.w3.org/2000/svg" version="1.1" viewBox="0 0 100 32">
  <!-- Generator: Adobe Illustrator 29.1.0, SVG Export Plug-In . SVG Version: 2.1.0 Build 142)  -->
  <defs>
    <style>
      .st0 {
        fill: #b8b8b8;
      }
    </style>
  </defs>
  <path class="st0" d="M0,27.9v3.2h17.2c8.7,0,15.8-6.9,15.8-15.5s-2.7-10-6.9-12.8C21.6,13.1,13.3,21.6,2.8,26.5l-2.8,1.3Z"/>
  <path class="st0" d="M22.2.8c-1.6-.5-3.2-.8-5-.8H0v23.1C10,18.6,17.9,10.6,22.2.8Z"/>
  <path class="st0" d="M42.6,19.9h-3.6v-9.3h3.6c1,0,1.8.2,2.5.6.7.4,1.3.9,1.6,1.6.4.7.6,1.5.6,2.5s-.2,1.8-.6,2.5c-.4.7-.9,1.2-1.6,1.6-.7.4-1.5.6-2.5.6ZM41.5,17.8h1c.5,0,.9,0,1.2-.2.3-.1.6-.4.8-.8.2-.4.3-.9.3-1.5s0-1.2-.3-1.5c-.2-.4-.4-.6-.8-.8-.3-.1-.8-.2-1.2-.2h-.9v5Z"/>
  <path class="st0" d="M52,20.1c-.8,0-1.4-.1-2-.4-.5-.3-1-.7-1.3-1.2-.3-.5-.4-1.2-.4-1.9s.1-1.3.4-1.9c.3-.5.7-1,1.3-1.3.5-.3,1.2-.4,1.9-.4s1,0,1.5.2c.4.2.8.4,1.1.7.3.3.5.7.7,1.1.2.4.2.9.2,1.5v.6h-4.6v-1.4h2.3c0-.2,0-.4-.2-.5,0-.2-.2-.3-.4-.4-.2,0-.4-.1-.6-.1s-.4,0-.6.1c-.2,0-.3.2-.4.4-.1.2-.2.3-.2.5v1.5c0,.2,0,.4.1.6,0,.2.2.3.4.4.2,0,.4.1.6.1s.3,0,.5,0c.1,0,.3-.1.4-.2.1,0,.2-.2.2-.3h2.3c0,.5-.3.9-.6,1.3-.3.4-.7.6-1.2.8-.5.2-1.1.3-1.7.3Z"/>
  <path class="st0" d="M57.8,13l1,2.2,1.1-2.2h2.5l-1.9,3.5,2,3.5h-2.5l-1.2-2.2-1.2,2.2h-2.6l2-3.5-1.9-3.5h2.6Z"/>
  <path class="st0" d="M63,12.7v-2h8.2v2h-2.8v7.3h-2.5v-7.3h-2.8Z"/>
  <path class="st0" d="M71.5,19.9v-7h2.5v1.3h0c.1-.5.3-.8.6-1.1.3-.2.6-.3,1-.3s.2,0,.3,0c.1,0,.2,0,.3,0v2.1c-.1,0-.3,0-.5,0-.2,0-.3,0-.5,0-.2,0-.5,0-.7.2-.2.1-.4.3-.5.5-.1.2-.2.4-.2.7v3.6h-2.6Z"/>
  <path class="st0" d="M78.8,20.1c-.5,0-.9,0-1.2-.2-.3-.1-.6-.4-.8-.7-.2-.3-.3-.7-.3-1.1s0-.7.2-1c.1-.3.3-.5.6-.7.2-.2.5-.3.8-.4.3,0,.7-.1,1-.2.4,0,.7,0,1-.1.2,0,.4-.1.5-.2.1,0,.2-.2.2-.3h0c0-.2,0-.3-.2-.4-.1,0-.3-.1-.5-.1s-.4,0-.6.2c-.2.1-.2.3-.3.5h-2.3c0-.4.2-.8.4-1.2.2-.4.6-.6,1.1-.9.5-.2,1.1-.3,1.8-.3s1,0,1.4.2c.4.1.7.3,1,.5.3.2.5.4.6.7.2.3.2.6.2.9v4.8h-2.4v-1h0c-.1.3-.3.5-.5.6-.2.2-.4.3-.7.3-.3,0-.5.1-.8.1ZM79.7,18.5c.2,0,.4,0,.5-.1.2,0,.3-.2.4-.3.1-.1.2-.3.2-.5v-.6c0,0-.1,0-.2,0,0,0-.2,0-.2,0,0,0-.2,0-.3,0,0,0-.2,0-.3,0-.2,0-.4,0-.5.1-.1,0-.2.1-.3.2,0,0,0,.2,0,.3,0,.2,0,.3.2.4.1.1.3.2.5.2Z"/>
  <path class="st0" d="M87.1,20c-.5,0-1-.1-1.4-.4-.4-.3-.8-.7-1-1.2-.3-.5-.4-1.2-.4-2s.1-1.5.4-2.1c.3-.5.6-.9,1-1.2.4-.2.9-.4,1.3-.4s.7,0,.9.2c.3.1.5.3.7.5.2.2.3.4.4.6h0v-3.5h2.6v9.3h-2.5v-1.1h0c0,.2-.2.4-.4.6-.2.2-.4.3-.7.4-.3.1-.6.2-.9.2ZM88.1,18.1c.2,0,.4,0,.6-.2.2-.1.3-.3.4-.6,0-.2.1-.5.1-.9s0-.6-.1-.9c0-.2-.2-.4-.4-.6-.2-.1-.4-.2-.6-.2s-.4,0-.6.2c-.2.1-.3.3-.4.6,0,.2-.1.5-.1.9s0,.6.1.9c0,.2.2.4.4.6.2.1.4.2.6.2Z"/>
  <path class="st0" d="M96.3,20.1c-.8,0-1.4-.1-2-.4-.5-.3-1-.7-1.3-1.2-.3-.5-.4-1.2-.4-1.9s.1-1.3.4-1.9c.3-.5.7-1,1.3-1.3.5-.3,1.2-.4,1.9-.4s1,0,1.5.2c.4.2.8.4,1.1.7.3.3.5.7.7,1.1.2.4.2.9.2,1.5v.6h-4.6v-1.4h2.3c0-.2,0-.4-.2-.5,0-.2-.2-.3-.4-.4-.2,0-.4-.1-.6-.1s-.4,0-.6.1c-.2,0-.3.2-.4.4-.1.2-.2.3-.2.5v1.5c0,.2,0,.4.1.6,0,.2.2.3.4.4.2,0,.4.1.6.1s.3,0,.5,0c.1,0,.3-.1.4-.2.1,0,.2-.2.2-.3h2.3c0,.5-.3.9-.6,1.3-.3.4-.7.6-1.2.8-.5.2-1.1.3-1.7.3Z"/>
</svg>