<?xml version="1.0" encoding="UTF-8"?>
<svg id="Layer_1" xmlns="http://www.w3.org/2000/svg" width="155.156" height="77.93" version="1.1" viewBox="0 0 155.156 77.93">
  <!-- Generator: Adobe Illustrator 29.6.1, SVG Export Plug-In . SVG Version: 2.1.1 Build 9)  -->
  <path d="M72.437,18.444c.183,3.456-.007,7.188,0,10.681.006,3.101.098,6.248,0,9.346-.038,1.186.123,2.532,0,3.672-.055.507-.498,2.467-.668,3.004-.086.274-.489.947-.668,1.335-1.079,2.348-3.111,4.695-5.34,6.008-10.521,6.197-23.071-3.248-20.204-15.031,1.943-7.988,10.595-12.117,18.202-9.335.586.214,3.105,1.926,3.336,1.667-.003-1.839.005-3.686.016-5.53.004-.732-.348-.766-.348-.811,0-.149.329-.653.337-1.151.04-2.492-1.06-8.411,2.493-8.492,2.727-.062,2.745,2.751,2.845,4.636ZM63.425,47.482c5.193-3.628,4.537-11.54-1.335-14.019-4.441-1.875-9.618-.017-11.114,4.74-2.367,7.52,5.85,13.89,12.45,9.279Z" fill="#c7c7c7"/>
  <path d="M21.703,29.792v-13.518c0-2.491,4.923-3.661,5.347-.006-.786,8.451,1.044,18.792-.035,27.014-1.695,12.925-21.243,15.282-26.012,2.704-4.946-13.044,9.426-23.822,20.7-16.194ZM11.602,32.876c-7.458,1.253-8.613,13.119-.577,15.772,12.68,4.186,15.198-18.228.577-15.772Z" fill="#c7c7c7"/>
  <path d="M150.874,22.783c-.071-.248-.496-.935-.668-1.335-.554-1.295-1.247-2.498-2.003-3.672-.764-1.187-1.147-1.609-2.003-2.67-.65-.806-1.396-1.501-2.003-2.336l-.984-1.191c-1.014-.302-1.327-.922-2.02-1.48-1.282-1.031-1.997-1.47-3.338-2.336-.916-.592-1.463-.848-2.336-1.335-1.069-.596-1.741-1.1-3.004-1.669-2.202-.992-3.392-1.342-5.674-2.003-2.531-.733-3.338-.934-6.008-1.335-.646-.097-2.056-.604-2.67-.668,8.968-1.109,19.339-1.396,27.881,1.992,9.94,3.942,12.049,11.937,4.829,20.037Z" fill="#b7b7b7"/>
  <path d="M96.469,36.468l-.137,1.337-11.545,11.347c-.193-.725-1.775-1.843-2.592-1.941-4.01-.485-4.359,5.263-1.748,5.947-1.136,1.256-2.168,3.074-4.005,3.004-2.089-3.217-3.638-6.246-5.34-9.68.178-.388.581-1.062.668-1.335-.141.775.506,3.452,1.667,2.853l17.692-17.873c1.123,2.039,3.73,4.55,5.34,6.342Z" fill="#6a6a6a"/>
  <path d="M99.806,42.81l-1.335.599-18.024,18.092c-1.61-1.918-2.653-3.258-4.005-5.34,1.837.07,2.87-1.748,4.005-3.004,2.685.703,5.093-1.168,4.339-4.005l11.545-11.347.137-1.337c1.894,2.107,4.32,3.027,3.338,6.342Z" fill="#686868"/>
  <path d="M35.629,27.52c2.315-.512,3.249,1.032,3.447,3.09.648,6.728-.5,14.513-.038,21.357-.532,3.472-4.945,3.309-5.337.373-.912-6.834.731-15.675,0-22.731-.033-.942,1.065-1.898,1.927-2.088Z" fill="#c7c7c7"/>
  <path d="M89.793,24.786c.093,1.907.402,3.645,1.335,5.34l-17.692,17.873c-1.161.599-1.809-2.078-1.667-2.853.17-.537.613-2.497.668-3.004l.673.84c3.167-2.876,6.019-6.522,9.341-9.184.281-.225,1.132-.297,1.564-.771,1.18-1.293.916-4.038-.563-4.903,1.241-1.491,4.849-4.001,5.694-5.488.347-.611.592-1.91.982-2.857-.372,1.645-.416,3.328-.334,5.007Z" fill="#6b6b6b"/>
  <path d="M76.442,56.161c1.353,2.083,2.395,3.422,4.005,5.34,1.351,1.61,2.156,2.514,3.672,4.005.224.22.44.453.668.668-.215-.028-.456.033-.668,0-.109-.017-.226.019-.334,0-7.467-1.347-14.64-7.012-18.024-13.685,2.229-1.313,4.261-3.66,5.34-6.008,1.702,3.433,3.251,6.463,5.34,9.68Z" fill="#7e7e7e"/>
  <path d="M148.204,17.776c.755,1.174,1.449,2.377,2.003,3.672-.654-.007-.928.449-1.34.828-3.527,3.243-7.115,6.795-10.508,10.187-.154.154-1.167.86-.501,1.001-2.884,2.319-7.422,5.761-8.344,9.346-.374,1.453-.538,2.105.668,3.338v.668c-2.081-1.538-4.514-3.049-5.34-5.674.616.518.761.036,1.168-.323,2.548-2.243,4.964-4.951,7.352-7.345,3.233-3.242,6.324-6.654,9.488-9.87,1.831-1.861,4.471-3.236,5.356-5.826Z" fill="#707070"/>
  <path d="M151.208,26.121c.035,1.274.246,3.881-.316,4.858-6.004,5.85-12.188,11.578-17.708,17.839-1.185-.667-1.929-1.208-3.004-2.003v-.668c2.895-2.867,6.012-5.591,8.895-8.461,3.898-3.882,7.577-8.529,12.133-11.565Z" fill="#757575"/>
  <path d="M148.204,17.776c-.885,2.59-3.525,3.965-5.356,5.826-3.165,3.216-6.255,6.628-9.488,9.87-2.388,2.395-4.804,5.103-7.352,7.345-.408.359-.552.84-1.168.323-.189-.601-.326-.467-.087-1.222.715-2.257,3.279-4.768,4.491-6.89,1.123-1.966,1.902-4.098,2.605-6.24-.033.601-.01,1.051-.148,1.678-.079.36-1.456,2.797-.358,2.324l14.036-13.667.821-2.017c.856,1.062,1.239,1.483,2.003,2.67Z" fill="#727272"/>
  <path d="M123.504,58.497c-1.86-1.16-2.78-1.594-5.086-1.245-1.391.21-4.202,1.735-4.593,3.248-.394.055-.735.289-1.001.334-2.301.386-3.802.777-6.008,1.335-1.866.472-3.82.81-5.674,1.335l-.666-.165,1.337-1.667-.671-.17c.1-.01,1.668-.492,1.914-.591,3.722-1.495,7.518-7.942,10.626-8.402,2.64-.391,5.332,1.747,7.313,3.325.769.613,2.155,1.743,2.51,2.664Z" fill="#5e5e5e"/>
  <path d="M118.164.754c.614.064,2.024.57,2.67.668-.711.103-1.36.947-1.872,1.462-5.015,5.042-10.083,10.065-14.968,15.245-.234.254-.529.29-.851.316-1.44.116-3.457-1.071-4.673-1.335l1.979-.526c4.29-4.915,9.473-9.027,13.882-13.822.379-.412.835-.686.828-1.34.589-.12,1.242-.185,1.669-.668.439.037.898-.045,1.335,0Z" fill="#818181"/>
  <path d="M89.459,15.774c-1.052.031-2.11-.053-3.165.007-4.882,4.054-9.331,8.825-13.858,13.344-.007-3.493.183-7.225,0-10.681.48-.129,1.021-.869,1.335-1.001.944-.397,4.332-1.456,5.34-1.669.446-.094,1.861-.293,2.336-.334,1.893-.162,4.229-.026,6.18-.006.564.006,1.484-.213,1.831.34Z" fill="#6f6f6f"/>
  <path d="M125.173,61.167l-16.021,16.689c-1.205-.069-1.819-.131-3.004-.334l-.621-1.1c5.242-5.366,10.511-10.765,15.641-16.256,1.385.16,2.741.417,4.005,1.001Z" fill="#717171"/>
  <path d="M150.207,36.802c-.513.178-.929.476-1.34.826-2.621,2.233-9.644,8.943-11.531,11.514-.395.538-.662.684-.146,1.345-1.96-.395-2.369-.748-4.005-1.669,5.521-6.261,11.704-11.989,17.708-17.839.561-.977.351-3.584.316-4.858-.003-.111.006-.223,0-.334.954,3.677.126,7.487-1.001,11.015Z" fill="#727272"/>
  <path d="M146.201,15.106l-.821,2.017-14.036,13.667c-1.099.472.278-1.965.358-2.324.138-.627.115-1.077.148-1.678.035-.642.102-1.763,0-2.336l12.35-11.682c.607.836,1.353,1.531,2.003,2.336Z" fill="#737373"/>
  <path d="M135.52,6.428c-.094.648-.47,1.145-.876,1.628-2.886,3.437-7.195,6.676-10.269,10.05.278.96-.388.55-1.539,1.006-1.297.513-2.024,1.233-3.338,1.669s-2.952.562-4.339.668v-.334c.882-.09,1.092-.222,1.793-.727,1.687-1.216,4.548-4.187,6.222-5.777,3.283-3.118,6.405-6.413,9.341-9.851,1.263.569,1.935,1.073,3.004,1.669Z" fill="#7a7a7a"/>
  <path d="M112.824,60.834c-4.401,5.159-8.516,10.646-14.019,14.686-.084.046-.244-.045-.334,0-.789-.347-1.632-.978-2.336-1.335-.521-.62-.029-.759.323-1.168,2.832-3.287,6.556-6.273,9.53-9.508.379-.412.836-.686.828-1.34,2.206-.558,3.707-.949,6.008-1.335Z" fill="#727272"/>
  <path d="M94.132,58.163l-8.009,7.845,4.337.165c-2.337.195-3.214.317-5.674,0-.227-.215-.444-.447-.668-.668,1.124-7.73,8.177-13.038,13.017-18.691-1.386,2.784-3.84,5.104-3.682,8.495.02.438.498,2.553.678,2.854Z" fill="#626262"/>
  <path d="M101.141,61.501l.671.17-1.337,1.667.666.165c-.485.137-1.513.858-2.003,1.001-2.012.587-4.286,1.343-6.342,1.669-.697.11-1.591-.062-2.336,0l-4.337-.165,8.009-7.845c1.116,1.862,4.834,3.547,7.009,3.338Z" fill="#606060"/>
  <path d="M150.874,23.117c.249,1.036.276,1.629.334,2.67.006.111-.003.223,0,.334-4.556,3.036-8.235,7.684-12.133,11.565-2.883,2.871-6,5.595-8.895,8.461-1.205-1.232-1.041-1.884-.668-3.338l.673.84c3.358-3.861,7.939-7.305,11.183-11.18.268-.32,1.24-1.306.495-1.676,2.215-1.788,4.874-3.837,6.892-5.791.618-.598.95-1.842,2.12-1.886Z" fill="#777"/>
  <path d="M141.195,10.099c.693.557,1.006,1.177,2.02,1.48l.984,1.191-12.35,11.682c-.045-.252-1.532-3.193-1.669-3.338l11.015-11.015Z" fill="#757575"/>
  <path d="M84.786,66.174c1.626,1.539,2.824,2.648,4.673,4.005,1.028.755,1.926,1.333,3.004,2.003,1.365.848,2.286,1.3,3.672,2.003.704.357,1.547.988,2.336,1.335-3.709,1.857-7.263,1.832-10.793-.387-1.572-.988-3.908-3.696-3.893-5.621,0-.044.324-.379.346-.81.042-.841-.043-1.689-.012-2.528.211.033.453-.028.668,0Z" fill="#d4d4d4"/>
  <path d="M104.145,1.421c.303.014.922-.159,1,.165-1.28,1.583-3.532,2.776-4.004,4.841-3.691,2.118-7.559,5.297-9.346,9.346-.771.05-1.562-.023-2.336,0-.347-.553-1.267-.334-1.831-.34-1.95-.02-4.287-.156-6.18.006.363-.562,1.373-.325,2.003-.334.859-.012,3.85.174,4.27-.072.095-.056.418-.798.718-1.106,3.545-3.637,7.43-6.965,10.914-10.623.098-.103,1.039-1.151.452-1.216,1.595-.329,2.569-.75,4.339-.668Z" fill="#9f9f9f"/>
  <path d="M121.168,60.166c-5.13,5.492-10.399,10.891-15.641,16.256l.621,1.1c-1.741-.298-2.414-.548-4.005-1.001l15.688-16.355c1.287-.057,1.991-.156,3.338,0Z" fill="#747474"/>
  <path d="M99.806,42.81c-.594,2.005-1.479,2.614-2.67,4.005-4.84,5.653-11.893,10.961-13.017,18.691-1.516-1.491-2.32-2.396-3.672-4.005l18.024-18.092,1.335-.599Z" fill="#666"/>
  <path d="M117.83,60.166l-15.688,16.355c-1.016-.289-2.336-.176-3.338-1.001,5.503-4.04,9.618-9.528,14.019-14.686.266-.045.608-.278,1.001-.334,1.402-.197,2.593-.272,4.005-.334Z" fill="#767676"/>
  <path d="M141.195,10.099l-11.015,11.015c-.134-.141-3.147-1.964-3.338-2.003l3.018-2.489c2.348-3.126,6.159-5.416,7.997-8.859,1.341.866,2.055,1.305,3.338,2.336Z" fill="#777"/>
  <path d="M126.508,62.169c.732,1.623-1.965,3.137-2.803,4.04-3.42,3.686-6.926,7.294-10.432,10.896-.38.39-.668.497-1.118.751-1.443.12-1.725.073-3.004,0l16.021-16.689c.486.225.944.636,1.335,1.001Z" fill="#6f6f6f"/>
  <path d="M137.189,50.486c-.516-.662-.249-.807.146-1.345,1.887-2.571,8.91-9.281,11.531-11.514.411-.35.827-.648,1.34-.826-1.28,4.003-5.608,12.907-9.994,13.869-1.495.328-1.794.064-3.024-.184Z" fill="#6f6f6f"/>
  <path d="M128.177,65.506c.264,1.174-.264.833-.67,1.157-2.621,2.095-6.796,6.162-9.02,8.689-.359.407-.84.552-.323,1.168-2.408.832-3.392,1.117-6.008,1.335.45-.254.738-.361,1.118-.751,3.506-3.602,7.012-7.21,10.432-10.896.838-.903,3.535-2.417,2.803-4.04h.334c.903,1.536.998,1.514,1.335,3.338Z" fill="#6e6e6e"/>
  <path d="M103.144,18.778c1.527.035,4.281.975,6.008,1.335,1.92.4,3.869,1.22,6.008,1.001v.334c-1.07.081-1.759-.475-1.759.887l-4.916,4.787c-2.639-2.617-4.843-5.538-8.011-7.677.264.06.905.336.958.294.51-.403-.181-1.005,1.712-.962Z" fill="#646464"/>
  <path d="M89.459,5.427c.511.252-.66,1.486-.83,1.674-1.739,1.928-5.928,6.48-7.825,7.86-.603.439-1.165.395-1.692.813-1.009.213-4.396,1.272-5.34,1.669,3.728-5.732,9.504-9.353,15.688-12.016Z" fill="#a5a5a5"/>
  <path d="M137.857,7.763c-1.838,3.443-5.649,5.733-7.997,8.859l-3.018,2.489c-1.112-.226-2.802.159-4.005,0,1.151-.456,1.817-.045,1.539-1.006,3.074-3.373,7.383-6.613,10.269-10.05.406-.483.782-.98.876-1.628.874.487,1.42.743,2.336,1.335Z" fill="#797979"/>
  <path d="M96.135,3.09c-.821.867-1.656,2.062-2.453,2.887-2.066,2.135-6.396,6.725-8.54,8.315-.561.416-1.13.465-1.69.814-.63.009-1.64-.228-2.003.334-.476.041-1.891.24-2.336.334.527-.418,1.089-.374,1.692-.813,1.898-1.38,6.086-5.933,7.825-7.86.169-.188,1.341-1.421.83-1.674,2.379-1.025,4.174-1.616,6.676-2.336Z" fill="#a3a3a3"/>
  <path d="M119.499,20.78l-7.353,8.862c-1.01.504-2.948-1.812-3.662-2.52l4.916-4.787c0-1.362.689-.806,1.759-.887,1.387-.105,3.024-.231,4.339-.668Z" fill="#626262"/>
  <path d="M99.806,2.089c.586.065-.355,1.113-.452,1.216-3.485,3.658-7.37,6.986-10.914,10.623-.3.308-.624,1.05-.718,1.106-.42.246-3.411.06-4.27.072.559-.349,1.129-.398,1.69-.814,2.144-1.59,6.475-6.18,8.54-8.315.798-.825,1.632-2.02,2.453-2.887,1.273-.367,2.344-.728,3.672-1.001Z" fill="#a1a1a1"/>
  <path d="M128.177,65.506c.023.125.345.371.361.821.189,5.498-5.986,8.679-10.374,10.194-.518-.616-.036-.761.323-1.168,2.225-2.527,6.4-6.594,9.02-8.689.406-.324.934.017.67-1.157Z" fill="#6b6b6b"/>
  <path d="M92.463,16.107c.943-.011,3.317.448,4.339.668.559.12,1.122.215,1.669.334,1.215.264,3.233,1.451,4.673,1.335v.334c-1.893-.043-1.203.559-1.712.962-.053.042-.694-.234-.958-.294-1.012-.231-2.012-.849-2.857-.979-3.996-.619-6.743,2.933-7.824,6.32-.082-1.678-.038-3.362.334-5.007.605-1.47.646-3.653,2.336-3.672Z" fill="#666"/>
  <path d="M35.967,16.177c2.607-.256,4.548,3.185,2.279,5.291-4.103,3.807-7.663-4.763-2.279-5.291Z" fill="#c7c7c7"/>
  <path d="M123.504,58.497c1.855,1.157,2.235,1.795,3.338,3.672h-.334c-.392-.365-.849-.777-1.335-1.001-1.265-.585-2.62-.841-4.005-1.001-1.347-.156-2.051-.057-3.338,0-1.412.062-2.604.136-4.005.334.391-1.513,3.202-3.037,4.593-3.248,2.306-.349,3.227.085,5.086,1.245Z" fill="#606060"/>
  <path d="M150.207,21.448c.171.401.597,1.088.668,1.335.029.102-.026.228,0,.334-1.17.044-1.502,1.288-2.12,1.886-2.018,1.954-4.677,4.003-6.892,5.791-1.161.937-2.876,1.762-4.005,2.67-.666-.141.347-.847.501-1.001,3.394-3.392,6.981-6.943,10.508-10.187.412-.379.686-.836,1.34-.828Z" fill="#6f6f6f"/>
  <path d="M106.482,1.088c.556-.007,1.113,0,1.669,0,.778.001,1.559,0,2.336,0-.399.501-.73,1.088-1.001,1.669-1.858.594-2.952,1.234-4.673,2.003-1.233.551-2.49.991-3.672,1.669.472-2.065,2.724-3.258,4.004-4.841-.078-.324-.697-.151-1-.165.456-.581,1.604-.325,2.336-.334Z" fill="#9c9c9c"/>
  <path d="M66.762,23.451c0,.044.352.078.348.811-.011,1.843-.019,3.69-.016,5.53-.231.259-2.75-1.453-3.336-1.667l3.004-4.673Z" fill="#7a7a7a"/>
  <path d="M116.829.754c-.427.483-1.08.548-1.669.668-1.533.311-2.526.581-4.005,1.001-.551.157-1.219.19-1.669.334.272-.581.603-1.168,1.001-1.669.062-.078.329-.109.334-.334,2.12-.069,3.745-.189,6.008,0Z" fill="#999"/>
  <path d="M83.785,69.512v-3.338c.108.019.225-.017.334,0-.031.839.054,1.687.012,2.528-.022.431-.346.766-.346.81Z" fill="#dadada"/>
  <path d="M110.821.754c-.005.225-.271.255-.334.334-.778,0-1.559.001-2.336,0v-.334c.888-.018,1.783.029,2.67,0Z" fill="#a0a0a0"/>
  <path d="M108.151.754v.334c-.556,0-1.113-.007-1.669,0,.281-.534,1.134-.323,1.669-.334Z" fill="#999"/>
  <path d="M89.459,15.774c.775-.023,1.565.05,2.336,0,.22-.014.45.024.668,0v.334c-1.691.019-1.732,2.202-2.336,3.672-.39.947-.634,2.246-.982,2.857-.845,1.487-4.453,3.996-5.694,5.488-2.653-1.552-5.669,1.31-4.339,4.339-2.399,1.719-4.07,4.634-6.676,6.008.098-3.097.006-6.245,0-9.346,4.527-4.518,8.976-9.289,13.858-13.344,1.054-.061,2.113.024,3.165-.007Z" fill="#6d6d6d"/>
  <path d="M63.425,47.482c-1.926-4.479-1.221-9.275-1.335-14.019,5.872,2.479,6.528,10.39,1.335,14.019Z" fill="#7e7e7e"/>
  <path d="M79.112,32.463c.473,1.078,2.256,1.55,3.338,1.335-3.321,2.663-6.174,6.309-9.341,9.184l-.673-.84c.123-1.139-.038-2.486,0-3.672,2.605-1.374,4.276-4.289,6.676-6.008Z" fill="#6c6c6c"/>
  <path d="M120.834,1.421c2.67.401,3.477.602,6.008,1.335-.46,2.723-3.353,4.203-5.182,5.999-2.907,2.854-7.861,8.811-10.82,10.876-.591.413-.922.617-1.688.481-1.727-.36-4.481-1.3-6.008-1.335v-.334c.322-.026.616-.061.851-.316,4.885-5.179,9.953-10.203,14.968-15.245.512-.515,1.16-1.359,1.872-1.462Z" fill="#7e7e7e"/>
  <path d="M132.516,4.759c-2.936,3.438-6.059,6.733-9.341,9.851-1.674,1.59-4.535,4.562-6.222,5.777-.701.505-.911.636-1.793.727-2.139.219-4.088-.602-6.008-1.001.766.136,1.097-.068,1.688-.481,2.959-2.065,7.913-8.022,10.82-10.876,1.829-1.796,4.722-3.276,5.182-5.999,2.282.661,3.472,1.011,5.674,2.003Z" fill="#7c7c7c"/>
  <path d="M84.786,49.151c.754,2.837-1.654,4.708-4.339,4.005-2.611-.684-2.262-6.432,1.748-5.947.817.099,2.399,1.216,2.592,1.941Z" fill="#b7b7b7"/>
  <path d="M83.451,28.123c1.479.865,1.743,3.61.563,4.903-.433.474-1.284.546-1.564.771-1.081.215-2.865-.257-3.338-1.335-1.33-3.029,1.686-5.891,4.339-4.339Z" fill="#b7b7b7"/>
  <path d="M141.862,30.794c.745.37-.227,1.356-.495,1.676-3.244,3.875-7.824,7.319-11.183,11.18l-.673-.84c.922-3.585,5.46-7.027,8.344-9.346,1.13-.908,2.844-1.733,4.005-2.67Z" fill="#787878"/>
  <path d="M106.816,62.169c.007.654-.449.928-.828,1.34-2.974,3.234-6.698,6.22-9.53,9.508-.352.409-.844.548-.323,1.168-1.386-.703-2.306-1.155-3.672-2.003,1.964-2.068,4.757-4.136,6.523-6.325.312-.387.919-1.012.152-1.352.49-.143,1.518-.864,2.003-1.001,1.854-.525,3.808-.863,5.674-1.335Z" fill="#747474"/>
  <path d="M115.16,1.421c.007.654-.449.928-.828,1.34-4.409,4.795-9.592,8.907-13.882,13.822l-1.979.526c-.546-.119-1.11-.214-1.669-.334l14.352-14.352c1.48-.421,2.472-.69,4.005-1.001Z" fill="#828282"/>
  <path d="M90.461,66.174c.745-.062,1.639.11,2.336,0l-2.51,2.665-.828,1.34c-1.848-1.358-3.046-2.467-4.673-4.005,2.461.317,3.337.195,5.674,0Z" fill="#797979"/>
  <path d="M99.139,64.505c.767.34.16.965-.152,1.352-1.766,2.19-4.56,4.258-6.523,6.325-1.078-.67-1.976-1.248-3.004-2.003l.828-1.34,2.51-2.665c2.055-.326,4.33-1.081,6.342-1.669Z" fill="#767676"/>
  <path d="M104.813,4.759c-3.149,2.903-6.369,7.271-9.677,9.849-1.138.887-1.219,1.003-2.673,1.165-.218.024-.448-.014-.668,0,1.786-4.049,5.654-7.228,9.346-9.346,1.181-.678,2.439-1.118,3.672-1.669Z" fill="#858585"/>
  <path d="M111.155,2.423l-14.352,14.352c-1.022-.219-3.396-.678-4.339-.668v-.334c1.454-.162,1.535-.278,2.673-1.165,3.307-2.578,6.528-6.946,9.677-9.849,1.721-.769,2.815-1.409,4.673-2.003.45-.144,1.118-.177,1.669-.334Z" fill="#838383"/>
</svg>