<svg width="237" height="44" viewBox="0 0 237 44" fill="none" xmlns="http://www.w3.org/2000/svg">
<g clip-path="url(#clip0_4082_5650)">
<path d="M69.548 34.258C66.1052 34.258 63.3027 33.2007 61.1405 31.0892C58.9783 28.9776 57.8972 26.1632 57.8972 22.6489V22.0414C57.8972 19.6826 58.3529 17.574 59.2642 15.7156C60.1756 13.8572 61.4651 12.4247 63.1359 11.421C64.8067 10.4174 66.7127 9.91406 68.8511 9.91406C72.0616 9.91406 74.5901 10.9267 76.4337 12.9518C78.2772 14.977 79.2004 17.848 79.2004 21.5649V24.1261H64.2527C64.4553 25.6599 65.0658 26.8899 66.0873 27.8132C67.1059 28.7394 68.3984 29.201 69.959 29.201C72.3743 29.201 74.2596 28.3254 75.6206 26.5772L78.7001 30.026C77.759 31.3572 76.4873 32.3966 74.882 33.1412C73.2767 33.8857 71.4958 34.258 69.545 34.258H69.548ZM68.8303 14.9681C67.5854 14.9681 66.5787 15.391 65.8044 16.2338C65.0301 17.0767 64.5357 18.2829 64.3183 19.8524H73.0385V19.3491C73.0087 17.9553 72.6335 16.8771 71.9097 16.1147C71.186 15.3523 70.1585 14.9711 68.8273 14.9711L68.8303 14.9681Z" fill="#B8B8B8"/>
<path d="M88.9334 33.8233H82.6404V0.5H88.9334V33.8233Z" fill="#B8B8B8"/>
<path d="M102.419 24.948L106.758 10.3458H113.483L104.045 37.4654L103.523 38.7014C102.121 41.769 99.8066 43.2998 96.5812 43.2998C95.6699 43.2998 94.7437 43.1628 93.8055 42.8888V38.1385L94.7585 38.1593C95.9439 38.1593 96.8314 37.9777 97.4181 37.6173C98.0048 37.254 98.4634 36.6553 98.797 35.8155L99.5356 33.8826L91.3127 10.3428H98.0614L102.422 24.945L102.419 24.948Z" fill="#B8B8B8"/>
<path d="M128.225 27.3366C128.225 26.5682 127.847 25.9666 127.087 25.5258C126.328 25.0851 125.11 24.6919 123.433 24.3435C117.849 23.173 115.058 20.7994 115.058 17.2285C115.058 15.1467 115.922 13.4045 117.652 12.0107C119.38 10.6139 121.64 9.91699 124.431 9.91699C127.409 9.91699 129.791 10.6169 131.578 12.0226C133.365 13.4253 134.259 15.248 134.259 17.4876H127.99C127.99 16.5912 127.701 15.8496 127.12 15.2629C126.542 14.6762 125.637 14.3843 124.407 14.3843C123.35 14.3843 122.534 14.6226 121.956 15.0991C121.378 15.5756 121.089 16.1832 121.089 16.9218C121.089 17.6157 121.417 18.1756 122.075 18.6045C122.733 19.0303 123.844 19.3996 125.405 19.7094C126.965 20.0191 128.284 20.3705 129.354 20.7607C132.665 21.9758 134.321 24.0784 134.321 27.0745C134.321 29.2159 133.404 30.9462 131.566 32.2715C129.729 33.5938 127.358 34.258 124.451 34.258C122.486 34.258 120.738 33.9065 119.213 33.2066C117.685 32.5068 116.491 31.5448 115.621 30.3207C114.751 29.0967 114.32 27.7774 114.32 26.3597H120.264C120.321 27.4736 120.735 28.3283 121.5 28.921C122.265 29.5137 123.293 29.8085 124.58 29.8085C125.78 29.8085 126.688 29.5822 127.302 29.1265C127.915 28.6708 128.225 28.0752 128.225 27.3366Z" fill="#B8B8B8"/>
<path d="M137.868 4.27391C137.868 3.33278 138.184 2.55844 138.813 1.95089C139.441 1.34333 140.299 1.03955 141.383 1.03955C142.467 1.03955 143.307 1.34333 143.941 1.95089C144.578 2.55844 144.897 3.33278 144.897 4.27391C144.897 5.21503 144.575 6.01021 143.932 6.61777C143.289 7.22532 142.437 7.5291 141.383 7.5291C140.328 7.5291 139.477 7.22532 138.833 6.61777C138.19 6.01021 137.868 5.22992 137.868 4.27391ZM144.531 33.8238H138.238V10.3495H144.531V33.8238Z" fill="#B8B8B8"/>
<path d="M163.308 31.4379C161.76 33.3172 159.618 34.2583 156.887 34.2583C154.371 34.2583 152.45 33.5346 151.128 32.0901C149.805 30.6427 149.129 28.5252 149.099 25.7317V10.3492H155.369V25.5321C155.369 27.9802 156.482 29.2013 158.71 29.2013C160.938 29.2013 162.296 28.4627 163.091 26.9855V10.3462H169.381V33.8205H163.481L163.308 31.4349V31.4379Z" fill="#B8B8B8"/>
<path d="M179.546 10.3489L179.742 12.9727C181.404 10.9326 183.653 9.91406 186.488 9.91406C189.511 9.91406 191.587 11.1054 192.715 13.4939C194.365 11.1083 196.715 9.91406 199.765 9.91406C202.311 9.91406 204.205 10.6556 205.45 12.1358C206.695 13.619 207.315 15.8497 207.315 18.8279V33.8202H201.022V18.8487C201.022 17.5175 200.763 16.5466 200.241 15.9301C199.72 15.3166 198.8 15.0068 197.487 15.0068C195.607 15.0068 194.303 15.9033 193.582 17.6962L193.603 33.8172H187.334V18.8696C187.334 17.5085 187.066 16.5257 186.533 15.9182C186 15.3106 185.085 15.0068 183.799 15.0068C182.021 15.0068 180.731 15.7454 179.936 17.2196V33.8172H173.667V10.3429H179.546V10.3489Z" fill="#B8B8B8"/>
<path d="M215.564 33.8145H214.45V19.5488H215.564V33.8145Z" fill="#B8B8B8"/>
<path d="M224.928 33.8142C224.818 33.4985 224.746 33.0309 224.713 32.4115C224.323 32.9208 223.826 33.3109 223.221 33.5879C222.617 33.8648 221.979 34.0018 221.303 34.0018C220.338 34.0018 219.555 33.7338 218.959 33.1947C218.361 32.6557 218.063 31.9737 218.063 31.1517C218.063 30.1748 218.471 29.4005 219.284 28.8287C220.097 28.2598 221.232 27.9739 222.688 27.9739H224.704V26.8303C224.704 26.1125 224.484 25.5467 224.04 25.1357C223.597 24.7247 222.953 24.5192 222.104 24.5192C221.33 24.5192 220.69 24.7187 220.181 25.1148C219.671 25.5109 219.418 25.9875 219.418 26.5444L218.304 26.5354C218.304 25.7373 218.677 25.0434 219.418 24.4596C220.16 23.8729 221.074 23.5811 222.158 23.5811C223.242 23.5811 224.162 23.861 224.809 24.4209C225.455 24.9808 225.788 25.7641 225.806 26.7648V31.521C225.806 32.4919 225.908 33.2216 226.113 33.704V33.8142H224.925H224.928ZM221.434 33.0161C222.176 33.0161 222.84 32.8374 223.427 32.477C224.013 32.1166 224.436 31.6371 224.704 31.0385V28.8287H222.718C221.61 28.8406 220.743 29.0431 220.118 29.4362C219.493 29.8294 219.18 30.3684 219.18 31.0564C219.18 31.6193 219.388 32.0869 219.808 32.4591C220.228 32.8314 220.77 33.0161 221.437 33.0161H221.434Z" fill="#B8B8B8"/>
<path d="M236.864 28.8915C236.864 30.458 236.519 31.7 235.825 32.6202C235.131 33.5405 234.199 33.9992 233.028 33.9992C231.629 33.9992 230.571 33.478 229.851 32.4386L229.803 33.8145H228.764V19.5488H229.869V25.2253C230.574 24.1293 231.62 23.5813 233.008 23.5813C234.196 23.5813 235.137 24.034 235.828 24.9424C236.519 25.8507 236.864 27.1105 236.864 28.7277V28.8945V28.8915ZM235.748 28.6979C235.748 27.3726 235.491 26.3481 234.976 25.6273C234.461 24.9066 233.737 24.5463 232.802 24.5463C232.09 24.5463 231.486 24.722 230.991 25.0704C230.497 25.4189 230.122 25.9341 229.869 26.6072V31.1401C230.426 32.4028 231.411 33.0342 232.823 33.0342C233.74 33.0342 234.455 32.6709 234.973 31.9472C235.491 31.2234 235.748 30.1394 235.748 28.6949V28.6979Z" fill="#B8B8B8"/>
<path d="M25.2769 1.61981L12.2114 14.6853C11.9642 14.9325 11.6307 15.0695 11.2852 15.0695H1.48387C0.900137 15.0695 0.608272 14.3636 1.01927 13.9496L11.8272 3.14168L14.0847 0.884187C14.3319 0.636996 14.6655 0.5 15.011 0.5H24.8123C25.396 0.5 25.6879 1.20584 25.2769 1.61981Z" fill="#B8B8B8"/>
<path d="M43.6285 19.3226V29.1209C43.6285 29.4694 43.4915 29.8029 43.2443 30.0472L30.1818 43.1096C29.7679 43.5236 29.062 43.2288 29.062 42.645V32.8467C29.062 32.4982 29.199 32.1647 29.4462 31.9205L42.5086 18.858C42.9226 18.444 43.6285 18.7389 43.6285 19.3226Z" fill="#B8B8B8"/>
<path d="M43.6286 1.15521V7.64475C43.6286 7.9932 43.4916 8.32676 43.2444 8.57098L36.7489 15.0665L29.0621 22.7533L19.8951 31.9172C19.648 32.1644 19.3144 32.3014 18.9689 32.3014H12.4824C12.119 32.3014 11.8271 32.0066 11.8271 31.6462V25.1299C11.8271 24.7814 11.9641 24.4479 12.2113 24.2037L35.5308 0.884187C35.778 0.636996 36.1115 0.5 36.457 0.5H42.9704C43.3337 0.5 43.6256 0.794843 43.6256 1.15521H43.6286Z" fill="#B8B8B8"/>
</g>
<defs>
<clipPath id="clip0_4082_5650">
<rect width="236.173" height="42.8864" fill="white" transform="translate(0.827148 0.5)"/>
</clipPath>
</defs>
</svg>
