<?xml version="1.0" encoding="UTF-8"?>
<svg id="Layer_1" xmlns="http://www.w3.org/2000/svg" version="1.1" viewBox="0 0 145 34">
  <!-- Generator: Adobe Illustrator 29.6.1, SVG Export Plug-In . SVG Version: 2.1.1 Build 9)  -->
  <g id="RgrcUz.tif">
    <path d="M83.8,25.8h-4.5v-9.5c0-.2-.2-1-.3-1.2-.9-2.1-4.1-1.9-4.8.3s-.2.9-.2,1v9.4h-4.5v-9.6c0-.4-.5-1.5-.8-1.8-.9-.9-2.8-.8-3.7,0s-.8,1.2-.8,1.6v9.8h-4.6v-15.8h.1c0-.1,4.3-.1,4.3-.1h.1v2.1c.7-.6,1.2-1.3,2.1-1.8,2.5-1.3,5.7-.6,7.1,1.9,2.4-3.3,8.6-3.6,10.1.7s.4,1.4.4,1.8v11.2Z" fill="#d2d2d2"/>
    <path d="M95.2,9.7c6-.4,10.6,4.9,8.8,10.8-2.2,7.2-13,7.8-16.1,1s1.4-11.3,7.2-11.7ZM95.3,13.5c-5.7.5-4.4,10.1,1.7,8.6s3.7-9.2-1.7-8.6Z" fill="#d2d2d2"/>
    <path d="M46.8,9.7c11.8-.8,12.3,16.5.6,16.6-11,0-11.6-15.8-.6-16.6ZM46.9,13.5c-5.6.5-4.4,10,1.6,8.7s3.8-9.2-1.6-8.7Z" fill="#d2d2d2"/>
    <path d="M19.4,19.4h-11.1c.6,3.8,5.3,3.9,7.7,1.6l2.6,2.2c-1,1.1-2.1,2-3.5,2.5-4.3,1.4-9.5-.5-10.8-5.1s2.8-12.3,9.4-10.8c4.4,1,6,5.4,5.7,9.6ZM15.1,16.6c-.5-4.5-6.2-4.4-6.8,0h6.8Z" fill="#d2d2d2"/>
    <path d="M141.5,19.4h-11.1c.4,3,3.8,3.9,6.3,2.6s.9-.7,1.4-1l2.6,2.2c-.9,1-2,2-3.4,2.4-4.4,1.5-9.6-.4-11-5s2.4-11.9,8.9-10.9,6.6,5.2,6.3,9.7ZM137.1,16.6c-.5-4.5-6.2-4.4-6.8,0h6.8Z" fill="#d2d2d2"/>
    <path d="M122.5,25.8h-4.5v-9.5c0-.2-.3-1-.4-1.2-.9-1.8-3.6-1.8-4.7-.3s-.5,1.1-.5,1.2v9.7h-4.6v-15.8h.1c0-.1,4.3-.1,4.3-.1h.1v2.2l1.3-1.4c3.1-2.6,8.7-.5,8.7,3.7v11.3Z" fill="#d2d2d2"/>
    <path d="M25.7,9.9l3.5,10.6,3.7-10.6h4.5l-6.2,15.9c0,0-.2,0-.3,0-.4,0-3.7,0-3.8,0l-6.2-16h4.8Z" fill="#d2d2d2"/>
  </g>
</svg>