<svg width="106" height="45" viewBox="0 0 106 45" fill="none" xmlns="http://www.w3.org/2000/svg">
<path fill-rule="evenodd" clip-rule="evenodd" d="M7.36087 5.86965C5.40774 6.51435 4.2733 7.23335 2.95746 8.66079C1.57974 10.1554 0.651306 12.0006 0.287969 13.9649C0.111854 14.9187 0 19.5339 0 25.864C0 36.0676 0.0079331 36.2199 0.594983 37.3649C1.92669 39.9619 5.49923 40.2057 7.25324 37.8192C7.7279 37.1734 7.81861 36.5745 7.93311 33.3238V29.5076L10.7097 29.4413C13.5561 29.299 14.209 29.0362 15.1091 27.6709C15.7827 26.6496 15.7615 24.55 15.0666 23.41C14.2685 22.1011 12.7469 21.5209 10.093 21.514L7.89001 21.5082L7.97754 18.1805L8.0348 16.0098C8.05428 15.2713 8.37784 14.5737 8.92898 14.0817V14.0817C10.1639 12.979 11.7817 13.1705 12.693 14.0817C13.43 14.8187 13.4863 15.309 13.4863 16.2192C13.4863 18.6071 15.1192 20.2878 17.4394 20.2878C20.6663 20.2878 22.1125 17.4047 21.0095 13.1705C20.2204 10.1411 17.6736 7.23124 14.8619 6.14652C12.7496 5.33179 9.36953 5.20697 7.36087 5.86965ZM86.4762 5.82576C85.9701 6.08834 85.2857 6.70739 84.9557 7.20162V7.20162C84.5643 7.78748 84.3554 8.47623 84.3554 9.1808V22.4337V35.6867C84.3554 36.3912 84.5643 37.08 84.9557 37.6658V37.6658C85.8056 38.938 87.0989 39.5449 88.6721 39.4093C90.1659 39.2805 91.1808 38.6194 91.8252 37.3556C92.2245 36.5726 92.2877 35.6434 92.288 30.5519C92.2885 24.0161 92.4081 23.4381 93.8847 22.8264C95.0109 22.3599 96.4397 22.7455 97.1552 23.7086C97.6722 24.4046 97.7185 24.8843 97.8417 30.8484C97.9544 36.2913 98.0406 37.3363 98.4221 37.8753C100.009 40.1172 103.654 40.0378 105.166 37.7288C105.595 37.0722 105.491 36.2606 105.487 29.9371C105.484 23.217 105.232 22.5596 104.644 21.0957C103.873 19.1737 103.065 17.9465 101.463 16.7356C99.5042 15.2551 97.8637 14.765 94.8668 14.765H92.2885L92.288 11.5918C92.2877 8.0978 91.9789 7.05645 90.6554 6.08649C89.6545 5.35294 87.6307 5.22654 86.4762 5.82576ZM45.3401 15.0017C39.1549 16.5043 35.1426 22.7421 36.2266 29.1692C37.0326 33.9484 40.5686 37.9237 45.0865 39.1305C49.4413 40.2938 52.354 38.9015 52.3559 35.6556C52.3572 33.2846 51.0866 31.9199 48.6236 31.6464C46.8794 31.4529 45.5257 30.7431 44.7702 29.6256C42.7404 26.6229 44.9384 22.5546 48.5818 22.5702C49.7411 22.5755 51.4253 23.4558 52.1528 24.4374C52.9614 25.5282 53.1389 26.8882 53.1455 32.045C53.1526 37.5098 53.8277 38.2689 55.0151 38.9362C56.8799 39.9841 59.2722 39.7303 60.3638 37.9268C60.8232 37.1676 60.9509 36.1749 60.9311 30.7635C60.9118 25.5009 60.8462 24.6227 60.3638 23.1615C58.3044 16.9215 51.8551 13.4188 45.3401 15.0017Z" fill="black"/>
<path fill-rule="evenodd" clip-rule="evenodd" d="M7.36087 5.86965C5.40774 6.51435 4.2733 7.23335 2.95746 8.66079C1.57974 10.1554 0.651306 12.0006 0.287969 13.9649C0.111854 14.9187 0 19.5339 0 25.864C0 36.0676 0.0079331 36.2199 0.594983 37.3649C1.92669 39.9619 5.49923 40.2057 7.25324 37.8192C7.7279 37.1734 7.81861 36.5745 7.93311 33.3238V29.5076L10.7097 29.4413C13.5561 29.299 14.209 29.0362 15.1091 27.6709C15.7827 26.6496 15.7615 24.55 15.0666 23.41C14.2685 22.1011 12.7469 21.5209 10.093 21.514L7.89001 21.5082L7.97754 18.1805L8.0348 16.0098C8.05428 15.2713 8.37784 14.5737 8.92898 14.0817V14.0817C10.1639 12.979 11.7817 13.1705 12.693 14.0817C13.43 14.8187 13.4863 15.309 13.4863 16.2192C13.4863 18.6071 15.1192 20.2878 17.4394 20.2878C20.6663 20.2878 22.1125 17.4047 21.0095 13.1705C20.2204 10.1411 17.6736 7.23124 14.8619 6.14652C12.7496 5.33179 9.36953 5.20697 7.36087 5.86965ZM86.4762 5.82576C85.9701 6.08834 85.2857 6.70739 84.9557 7.20162V7.20162C84.5643 7.78748 84.3554 8.47623 84.3554 9.1808V22.4337V35.6867C84.3554 36.3912 84.5643 37.08 84.9557 37.6658V37.6658C85.8056 38.938 87.0989 39.5449 88.6721 39.4093C90.1659 39.2805 91.1808 38.6194 91.8252 37.3556C92.2245 36.5726 92.2877 35.6434 92.288 30.5519C92.2885 24.0161 92.4081 23.4381 93.8847 22.8264C95.0109 22.3599 96.4397 22.7455 97.1552 23.7086C97.6722 24.4046 97.7185 24.8843 97.8417 30.8484C97.9544 36.2913 98.0406 37.3363 98.4221 37.8753C100.009 40.1172 103.654 40.0378 105.166 37.7288C105.595 37.0722 105.491 36.2606 105.487 29.9371C105.484 23.217 105.232 22.5596 104.644 21.0957C103.873 19.1737 103.065 17.9465 101.463 16.7356C99.5042 15.2551 97.8637 14.765 94.8668 14.765H92.2885L92.288 11.5918C92.2877 8.0978 91.9789 7.05645 90.6554 6.08649C89.6545 5.35294 87.6307 5.22654 86.4762 5.82576ZM45.3401 15.0017C39.1549 16.5043 35.1426 22.7421 36.2266 29.1692C37.0326 33.9484 40.5686 37.9237 45.0865 39.1305C49.4413 40.2938 52.354 38.9015 52.3559 35.6556C52.3572 33.2846 51.0866 31.9199 48.6236 31.6464C46.8794 31.4529 45.5257 30.7431 44.7702 29.6256C42.7404 26.6229 44.9384 22.5546 48.5818 22.5702C49.7411 22.5755 51.4253 23.4558 52.1528 24.4374C52.9614 25.5282 53.1389 26.8882 53.1455 32.045C53.1526 37.5098 53.8277 38.2689 55.0151 38.9362C56.8799 39.9841 59.2722 39.7303 60.3638 37.9268C60.8232 37.1676 60.9509 36.1749 60.9311 30.7635C60.9118 25.5009 60.8462 24.6227 60.3638 23.1615C58.3044 16.9215 51.8551 13.4188 45.3401 15.0017Z" fill="white" fill-opacity="0.72"/>
<rect x="24.3281" y="5.44385" width="7.93311" height="34.1124" rx="3.96656" fill="black"/>
<rect x="24.3281" y="5.44385" width="7.93311" height="34.1124" rx="3.96656" fill="white" fill-opacity="0.72"/>
<path fill-rule="evenodd" clip-rule="evenodd" d="M69.7849 14.2548C71.5462 14.7347 72.585 16.5517 72.1051 18.313L70.6805 23.5411H73.9942C75.1076 23.5411 76.1462 24.1016 76.7573 25.0322C77.3684 25.9629 77.4699 27.1387 77.0274 28.1603L72.9556 37.5614C72.23 39.2366 70.2838 40.0064 68.6087 39.2808C66.9335 38.5553 66.1637 36.6091 66.8892 34.9339L68.9604 30.152H66.3538C65.3237 30.152 64.3525 29.6718 63.7272 28.8533C63.1018 28.0347 62.8938 26.9714 63.1646 25.9776L65.7267 16.575C66.2066 14.8136 68.0236 13.7749 69.7849 14.2548Z" fill="black"/>
<path fill-rule="evenodd" clip-rule="evenodd" d="M69.7849 14.2548C71.5462 14.7347 72.585 16.5517 72.1051 18.313L70.6805 23.5411H73.9942C75.1076 23.5411 76.1462 24.1016 76.7573 25.0322C77.3684 25.9629 77.4699 27.1387 77.0274 28.1603L72.9556 37.5614C72.23 39.2366 70.2838 40.0064 68.6087 39.2808C66.9335 38.5553 66.1637 36.6091 66.8892 34.9339L68.9604 30.152H66.3538C65.3237 30.152 64.3525 29.6718 63.7272 28.8533C63.1018 28.0347 62.8938 26.9714 63.1646 25.9776L65.7267 16.575C66.2066 14.8136 68.0236 13.7749 69.7849 14.2548Z" fill="white" fill-opacity="0.44"/>
<path fill-rule="evenodd" clip-rule="evenodd" d="M71.3757 13.3959C73.1371 13.8759 74.1758 15.6928 73.6959 17.4541L72.2713 22.6822H75.5851C76.6984 22.6822 77.737 23.2427 78.3481 24.1734C78.9592 25.104 79.0607 26.2798 78.6182 27.3014L74.5464 36.7025C73.8208 38.3777 71.8747 39.1475 70.1995 38.4219C68.5243 37.6964 67.7545 35.7502 68.4801 34.075L70.5512 29.2931H67.9447C66.9146 29.2931 65.9434 28.8129 65.318 27.9944C64.6927 27.1758 64.4847 26.1125 64.7555 25.1187L67.3175 15.7161C67.7975 13.9548 69.6144 12.916 71.3757 13.3959Z" fill="black"/>
<path fill-rule="evenodd" clip-rule="evenodd" d="M71.3757 13.3959C73.1371 13.8759 74.1758 15.6928 73.6959 17.4541L72.2713 22.6822H75.5851C76.6984 22.6822 77.737 23.2427 78.3481 24.1734C78.9592 25.104 79.0607 26.2798 78.6182 27.3014L74.5464 36.7025C73.8208 38.3777 71.8747 39.1475 70.1995 38.4219C68.5243 37.6964 67.7545 35.7502 68.4801 34.075L70.5512 29.2931H67.9447C66.9146 29.2931 65.9434 28.8129 65.318 27.9944C64.6927 27.1758 64.4847 26.1125 64.7555 25.1187L67.3175 15.7161C67.7975 13.9548 69.6144 12.916 71.3757 13.3959Z" fill="white" fill-opacity="0.72"/>
<path fill-rule="evenodd" clip-rule="evenodd" d="M73.2517 12.4804C75.013 12.9603 76.0518 14.7772 75.5719 16.5386L74.1473 21.7667H77.461C78.5744 21.7667 79.613 22.3272 80.2241 23.2578C80.8352 24.1885 80.9367 25.3643 80.4942 26.3859L76.4224 35.787C75.6968 37.4622 73.7506 38.232 72.0755 37.5064C70.4003 36.7809 69.6305 34.8347 70.356 33.1595L72.4272 28.3776H69.8206C68.7905 28.3776 67.8193 27.8974 67.194 27.0788C66.5686 26.2603 66.3606 25.197 66.6314 24.2032L69.1935 14.8006C69.6734 13.0392 71.4903 12.0004 73.2517 12.4804Z" fill="black"/>
<path fill-rule="evenodd" clip-rule="evenodd" d="M73.2517 12.4804C75.013 12.9603 76.0518 14.7772 75.5719 16.5386L74.1473 21.7667H77.461C78.5744 21.7667 79.613 22.3272 80.2241 23.2578C80.8352 24.1885 80.9367 25.3643 80.4942 26.3859L76.4224 35.787C75.6968 37.4622 73.7506 38.232 72.0755 37.5064C70.4003 36.7809 69.6305 34.8347 70.356 33.1595L72.4272 28.3776H69.8206C68.7905 28.3776 67.8193 27.8974 67.194 27.0788C66.5686 26.2603 66.3606 25.197 66.6314 24.2032L69.1935 14.8006C69.6734 13.0392 71.4903 12.0004 73.2517 12.4804Z" fill="white" fill-opacity="0.84"/>
</svg>
