<?xml version="1.0" encoding="UTF-8"?>
<svg id="Layer_1" xmlns="http://www.w3.org/2000/svg" width="108" height="29" version="1.1" viewBox="0 0 108 29">
  <!-- Generator: Adobe Illustrator 30.0.0, SVG Export Plug-In . SVG Version: 2.1.1 Build 123)  -->
  <path d="M19.78,27.81h-.98l-.84-.12c-3-.54-5.37-3.02-5.83-6.02-2.95-.48-5.37-2.7-6-5.63l-.16-1.05c.02-.32-.02-.66,0-.97s.1-.75.17-1.08c.62-2.89,3.05-5.14,5.98-5.58.68-4.12,4.57-6.86,8.71-6,2.9.61,5.17,3.05,5.62,5.98,2.79.46,5.13,2.47,5.89,5.2,1.19,4.24-1.61,8.44-5.89,9.13-.45,2.93-2.69,5.33-5.59,5.97-.33.07-.76.15-1.08.17ZM18.66,9.17v-1.46l-.05-.05h-1.3l-.05.05v1.46h-2.02v1.77h.9v7.04h-.9v1.77h2.02v1.57l.05.05h1.3l.05-.05v-1.57h.76v1.57l.05.05h1.3l.05-.05v-1.61c1.86.02,3.48-1.36,3.32-3.3-.09-1.11-.94-2.12-2.02-2.37l.48-.3c2.09-1.58.67-4.59-1.78-4.54v-1.5l-.05-.05h-1.3l-.05.05v1.46h-.76Z" fill="#c7c7c7"/>
  <path d="M45.87,10.4v-1.12h2.71v10.45c-.11,1.46-.88,2.75-2.14,3.49-2.77,1.61-7.69.99-8.26-2.71h2.67c.1.42.33.76.68,1,1.22.85,3.53.54,4.16-.92.06-.13.19-.52.19-.64v-1.79c-1.52,1.85-4.69,1.66-6.43.24-2.3-1.89-2.27-6.25-.02-8.18,1.69-1.44,4.94-1.61,6.45.18ZM42.94,11.28c-3.48.21-3.42,5.83-.05,6.06,3.99.27,3.99-6.29.05-6.06Z" fill="#c7c7c7"/>
  <path d="M78.9,4.95v15.06h-2.75v-1.3c-1.49,2.03-4.95,1.83-6.72.31-2.48-2.13-2.43-6.87.18-8.88,1.72-1.32,4.87-1.51,6.38.23.06.07.09.17.16.22v-5.63h2.75ZM72.9,11.42c-3.55.33-3.46,6.79.71,6.45,3.55-.29,3.5-6.84-.71-6.45Z" fill="#c7c7c7"/>
  <path d="M82.7,15.2c.03.93.5,1.84,1.3,2.33,1.2.72,3.36.52,3.79-1.03h2.67c-.32,2.1-2.1,3.43-4.14,3.65-4.3.47-7.26-2.98-6.12-7.16,1.59-5.85,10.88-4.96,10.44,1.77,0,.13-.03.36-.09.45h-7.86ZM87.8,13.25c0-1.8-2.04-2.43-3.51-1.87-.82.31-1.29,1.04-1.47,1.87h4.99Z" fill="#c7c7c7"/>
  <path d="M59.28,20.01h-2.67v-1.34c-.94,1.41-2.81,1.77-4.38,1.36-1.66-.43-2.61-1.76-2.41-3.47.34-3.05,4.4-3.06,6.7-3.3.13-.01.1-.23.09-.34-.15-2.34-3.95-2.29-4.08.02h-2.67c.28-2.08,1.99-3.55,4.03-3.79,2.5-.29,5.14.9,5.4,3.63v7.24ZM56.55,15.18c-.8.15-1.65.17-2.45.33-.73.14-1.59.44-1.65,1.31-.1,1.45,1.89,1.54,2.83,1.02.73-.4,1.17-1.19,1.29-2,.01-.1.09-.64-.01-.65Z" fill="#c7c7c7"/>
  <path d="M102.03,20.01h-2.71v-6.7c0-.88-.89-1.75-1.75-1.82-2.09-.19-2.9,1.58-3.02,3.37v5.15s-2.71,0-2.71,0v-10.72h2.71v1.37c.58-.73,1.43-1.23,2.35-1.43,2.59-.56,4.96.78,5.13,3.54v7.24Z" fill="#c7c7c7"/>
  <path d="M67.77,11.88c-.8-.32-1.85-.4-2.63.03-1.22.68-1.61,2.11-1.71,3.42v4.68h-2.71v-10.72h2.71v1.41c.91-1.33,2.83-1.97,4.34-1.35v2.55Z" fill="#c7c7c7"/>
  <path d="M18.19,17.98v-2.96h2.55c.08,0,.38.11.46.15,1.15.5,1.22,2.01.12,2.6-.12.06-.47.21-.58.21h-2.55Z" fill="#c7c7c7"/>
  <path d="M18.19,13.36v-2.42h2.33c.4,0,1.03.53,1.09.93.1.59-.14,1.11-.69,1.35-.08.03-.38.14-.44.14h-2.29Z" fill="#c7c7c7"/>
</svg>