<?xml version="1.0" encoding="utf-8"?>
<!-- Generator: Adobe Illustrator 24.2.0, SVG Export Plug-In . SVG Version: 6.00 Build 0)  -->
<svg version="1.1" id="Layer_1" xmlns="http://www.w3.org/2000/svg" xmlns:xlink="http://www.w3.org/1999/xlink" x="0px" y="0px"
	 viewBox="0 0 2007.5 1008.5" style="enable-background:new 0 0 2007.5 1008.5;" xml:space="preserve">
<style type="text/css">
	.st0{fill:#FFFFFF;}
</style>
<g>
	<g>
		<path class="st0" d="M370,528.2V328.5h231.6V287H328.5v200.2c0,40.2,28.3,72.8,65.2,102.7C379.1,571.3,370,551,370,528.2z"/>
		<path class="st0" d="M548.1,369H410.4v200.2c0,64.3,72.6,109.2,136.5,154.8c64-45.5,136.5-90.4,136.5-154.8V369H548.1z
			 M642.7,569.2c0,35.8-47.4,70.8-95.6,104.6c-48.1-33.9-95.6-68.8-95.6-104.6V409.9h191.2V569.2z"/>
	</g>
	<g>
		<path class="st0" d="M837.7,415.5c3.7,3.3,5.6,8.2,5.6,14.8c0,9.2-3.3,15.7-9.7,19.6c-6.5,3.9-15.5,5.8-27.2,5.8h-26.6v-88.3h23.1
			c24.3,0,36.5,7.5,36.5,22.5c0.2,4.7-1.5,9.3-4.7,12.7c-3.1,3.3-7.2,5.5-11.6,6.3C828.4,409.8,833.5,412.1,837.7,415.5z
			 M796.6,403.8h10.3c4,0.2,7.9-0.9,11.1-3.1c2.8-2.2,4.3-5.7,4.1-9.3c0.3-3.5-1.3-7-4.3-8.9c-4.2-2-8.8-2.8-13.4-2.5h-7.9
			L796.6,403.8L796.6,403.8z M820.7,440.3c3.3-1.9,4.9-5.4,4.9-10.6c0.4-4.2-1.4-8.3-4.7-10.8c-3.8-2.4-8.2-3.6-12.7-3.3h-11.6v27.6
			h9.8C811.3,443.4,816.2,442.5,820.7,440.3L820.7,440.3z"/>
		<path class="st0" d="M874.1,443.3c0.7,0.9,1.8,1.3,2.9,1.2c1.3,0,2.6-0.2,3.8-0.6l3.5,11.5c-3.7,1.5-7.6,2.3-11.6,2.3
			c-4.4,0.3-8.6-1.3-11.7-4.4c-3-3.6-4.4-8.2-4.1-12.8v-79.3l16.4-1.8v80C873.1,440.7,873.4,442.1,874.1,443.3z"/>
		<path class="st0" d="M944.8,395.8c5.6,6.3,8.4,15,8.4,26.1c0.1,6.4-1.2,12.8-3.8,18.7c-2.4,5.2-6.2,9.5-11,12.6
			c-5.1,3.1-11,4.6-17,4.5c-10,0-17.8-3.1-23.4-9.5c-5.6-6.3-8.5-15.1-8.5-26.3c-0.1-6.4,1.2-12.8,3.8-18.6c2.4-5.2,6.2-9.5,11-12.5
			c5.2-3.1,11.1-4.6,17.1-4.5C931.4,386.3,939.2,389.4,944.8,395.8z M906.7,421.9c0,8,1.2,13.9,3.6,17.8c2.4,3.7,6.5,5.9,10.9,5.7
			c4.4,0.2,8.6-2,10.9-5.8c2.4-3.8,3.7-9.7,3.7-17.6s-1.2-13.8-3.7-17.6c-2.3-3.7-6.4-5.9-10.8-5.7
			C911.6,398.7,906.7,406.4,906.7,421.9L906.7,421.9L906.7,421.9z"/>
		<path class="st0" d="M1007.6,388.1c3.7,1.4,7.1,3.4,10,6l-7.4,10c-2-1.6-4.2-2.8-6.5-3.8c-2.2-0.8-4.6-1.2-7-1.2
			c-10.2,0-15.2,7.7-15.2,23.1c0,7.8,1.3,13.5,4,16.9s6.9,5.3,11.3,5.1c2.3,0,4.6-0.4,6.7-1.2c2.4-1.1,4.6-2.4,6.7-4l7.6,10.7
			c-6.1,5.1-13.9,7.9-21.8,7.8c-5.9,0.1-11.7-1.3-16.9-4.3c-4.8-2.9-8.6-7.1-11-12.2c-2.7-5.9-4-12.2-3.8-18.7
			c-0.1-6.5,1.2-13,3.8-18.9c2.3-5.2,6.1-9.6,11-12.7c5-3.1,10.8-4.7,16.7-4.5C999.8,386.2,1003.8,386.8,1007.6,388.1z"/>
		<path class="st0" d="M1029.6,455.7V361l16.4-1.8v96.5H1029.6z M1088.6,455.7h-18.7l-23.3-36.9l22.6-30.7h17.2l-22.5,29.8
			L1088.6,455.7z"/>
		<path class="st0" d="M1143.1,394.2l-6.4,9.8c-4.8-3.6-10.6-5.6-16.6-5.7c-2.7-0.2-5.5,0.5-7.8,1.9c-1.7,1-2.8,2.9-2.7,4.9
			c0,1.4,0.4,2.7,1.1,3.8c1.1,1.3,2.6,2.3,4.2,2.9c2.9,1.2,5.8,2.2,8.9,3c6,1.3,11.5,3.9,16.3,7.8c3.6,3.5,5.6,8.5,5.3,13.6
			c0.2,6.3-2.9,12.3-8.2,15.7c-6,4-13.1,6-20.3,5.7c-5.2,0.1-10.4-0.8-15.2-2.5c-4.3-1.6-8.4-3.9-11.8-7l8.3-9.3
			c5.1,4.3,11.5,6.7,18.2,6.8c3.1,0.1,6.1-0.6,8.8-2.2c2-1.2,3.3-3.4,3.3-5.8c0.1-1.7-0.3-3.3-1.2-4.8c-1.1-1.4-2.6-2.5-4.3-3.1
			c-3.2-1.3-6.5-2.4-9.8-3.3c-5.7-1.2-11-3.9-15.2-7.9c-3.3-3.4-5-8-4.9-12.7c-0.1-3.7,1.1-7.2,3.3-10.2c2.4-3.1,5.5-5.6,9.2-7
			c4.3-1.8,8.9-2.6,13.6-2.5C1127.7,385.9,1136.3,388.8,1143.1,394.2z"/>
		<path class="st0" d="M1189.2,456.3c-2.9,0.8-5.9,1.3-9,1.3c-5.7,0.4-11.2-1.7-15.2-5.7c-3.5-3.7-5.1-9.2-5.1-16.4v-35.6h-10.6V388
			h10.6v-14.9l16.4-1.9V388h15.7l-1.6,11.8h-14.1v35.3c-0.2,2.5,0.4,5,1.7,7.1c1.4,1.6,3.4,2.4,5.4,2.2c2.9-0.1,5.6-1,8-2.5
			l5.8,10.6C1194.8,454.2,1192.1,455.5,1189.2,456.3z"/>
		<path class="st0" d="M1246.6,387.2l-2.8,15.8c-2-0.5-4-0.8-6-0.8c-3.6-0.2-7.1,1.4-9.4,4.3c-2.8,3.9-4.7,8.5-5.5,13.2v35.9h-16.4
			V388h14.2l1.5,13.3c1.3-4.3,3.7-8.2,7-11.2c2.9-2.5,6.7-3.9,10.6-3.9C1242.1,386.2,1244.4,386.5,1246.6,387.2z"/>
		<path class="st0" d="M1310.6,426.9h-42.4c0.6,6.6,2.3,11.2,5.1,14c3.1,2.9,7.2,4.4,11.4,4.2c2.9,0,5.7-0.5,8.4-1.5
			c3-1.2,5.8-2.7,8.4-4.5l6.8,9.3c-7,5.9-15.9,9.1-25,9.1c-10.3,0-18.3-3.1-23.8-9.4c-5.6-6.3-8.4-14.9-8.4-25.8
			c-0.1-6.4,1.1-12.7,3.6-18.6c2.1-5.2,5.7-9.7,10.3-12.9c4.7-3.2,10.4-4.8,16.1-4.7c9.5,0,16.8,3,22,9s7.8,14.4,7.8,25.1
			C1311,421.1,1311,423.3,1310.6,426.9z M1294.8,415.5c0-11.9-4.4-17.8-13.2-17.8c-3.7-0.2-7.2,1.5-9.4,4.4c-2.3,2.9-3.6,7.6-4,14.1
			h26.6V415.5L1294.8,415.5z"/>
		<path class="st0" d="M1377.2,443.5c0.9,1.4,2.3,2.4,3.9,2.9l-3.5,10.9c-3.3-0.2-6.5-1.1-9.4-2.7c-2.6-1.7-4.5-4.2-5.6-7.1
			c-2.1,3.3-5.1,5.9-8.6,7.6c-3.6,1.7-7.6,2.6-11.6,2.5c-5.9,0.3-11.6-1.8-16-5.8c-4-4-6.1-9.4-5.9-15.1c-0.4-6.6,2.6-12.9,8-16.8
			c5.3-3.9,12.9-5.8,22.9-5.8h8.4v-3.8c0.4-3.3-0.7-6.7-3-9.1c-2.8-2-6.2-2.9-9.7-2.5c-6.1,0.2-12.2,1.4-17.9,3.6l-3.8-11.1
			c7.8-3.1,16.1-4.8,24.5-4.9c17.3,0,25.9,7.7,26,23.2v28.4C1375.8,439.8,1376.3,441.8,1377.2,443.5z M1359.8,437.3v-13.8h-6.8
			c-10.5,0-15.8,3.9-15.8,11.8c-0.2,2.8,0.7,5.5,2.4,7.6c1.9,1.9,4.5,2.9,7.2,2.7C1352.4,445.7,1357.5,442.4,1359.8,437.3
			L1359.8,437.3z"/>
		<path class="st0" d="M1480.5,391.6c3.4,4.2,5.2,9.6,4.9,15v48.9H1469v-46.4c0-7.2-2.5-10.9-7.4-10.8c-2.5,0-4.9,0.9-6.8,2.5
			c-2.4,2.2-4.4,4.8-5.9,7.6v47.1h-16.4v-46.4c0-7.2-2.5-10.9-7.4-10.8c-2.6,0-5,0.9-7,2.5c-2.4,2.2-4.3,4.8-5.9,7.6v47.1h-16.4V388
			h14.2l1.3,8.8c4.3-6.7,11.6-10.7,19.6-10.7c3.6-0.1,7.2,0.9,10.2,2.9c3,2.1,5.2,5,6.3,8.4c2.3-3.4,5.3-6.3,8.8-8.5
			c3.5-2,7.4-3,11.4-2.9C1472.4,385.9,1477.2,387.9,1480.5,391.6z"/>
	</g>
	<g>
		<g>
			<path class="st0" d="M1282,623.7h-0.3H1282z"/>
			<polygon class="st0" points="1293.6,553.2 1293.8,553.2 1293.8,553.2 			"/>
			<polygon class="st0" points="1293.5,666.3 1214.1,666.3 1213.5,666.3 1213.5,665.7 1213.5,623.7 1213.5,623.1 1214.1,623.1 
				1281.7,623.1 1281.7,594.3 1214.1,594.3 1213.5,594.3 1213.5,593.7 1213.5,553.2 1213.5,552.6 1214.1,552.6 1293.5,552.6 
				1293.5,523.7 1181,523.7 1181,695.1 1293.5,695.1 			"/>
			<polygon class="st0" points="1181,523.1 1180.7,523.1 1180.7,523.1 			"/>
		</g>
		<g>
			<path class="st0" d="M1470.1,623.7h-0.3H1470.1z"/>
			<polygon class="st0" points="1481.8,553.2 1482,553.2 1482,553.2 			"/>
			<polygon class="st0" points="1481.7,666.3 1402.2,666.3 1401.6,666.3 1401.6,665.7 1401.6,623.7 1401.6,623.1 1402.2,623.1 
				1469.8,623.1 1469.8,594.3 1402.2,594.3 1401.6,594.3 1401.6,593.7 1401.6,553.2 1401.6,552.6 1402.2,552.6 1481.7,552.6 
				1481.7,523.7 1369.1,523.7 1369.1,695.1 1481.7,695.1 			"/>
			<polygon class="st0" points="1369.1,523.1 1368.8,523.1 1368.8,523.1 			"/>
		</g>
		<g>
			<polygon class="st0" points="1679,694.4 1679,523.7 1646.5,523.7 1646.5,614.7 1646.5,616.1 1645.5,615.2 1548.1,524.5 
				1548.1,695.1 1580.6,695.1 1580.6,603.9 1580.6,602.5 1581.6,603.4 			"/>
			<polygon class="st0" points="1646.3,523.1 1646.2,523.1 1646.2,523.1 			"/>
			<polygon class="st0" points="1580.7,695.7 1580.9,695.7 1580.9,695.7 			"/>
		</g>
		<g>
			<path class="st0" d="M834.3,694.6c2.1,0.5,4.3,0.9,6.6,1.2l0.5,0.1c3.5,0.5,6.5,0.7,9.4,0.7c2.5,0,5.1-0.1,7.8-0.4
				c0.1,0,0.2,0,0.3,0s0.2,0,0.2,0c0.2,0,0.3,0,0.4-0.1c0.2,0,0.4-0.1,0.6-0.1c17.8-1.5,32.8-8.2,44.4-19.9
				c11.7-11.8,16.3-26.4,16.3-52.2v-24.6h-64v26.9H888h0.6v0.6v6.5c0,10.2-2.7,18.1-7.9,23.5c-6.7,6.9-14.6,8.8-20.8,9.8
				c-2.5,0.4-4.9,0.6-7.3,0.6c-21.3,0-42.7-17.9-42.7-57.9c0-28.9,12.8-58.2,41.5-58.2c2,0,4.1,0.2,6.3,0.4
				c11.7,1.9,25.3,9.7,29.8,22.7l27.3-16c-3.2-6.3-18.2-31.8-55.3-35.6l-0.5-0.1l0,0h-0.1c-2.9-0.3-5.5-0.4-8-0.4
				c-5.5,0-11.1,0.7-16.5,2l-0.8,0.2l-0.4,0.1c-1.1,0.3-2.1,0.6-3.1,0.9c-33.3,9.5-53.6,41.8-52.8,84.3c0,43,20.7,75.3,54.1,84.3
				v0.3h0.1l0,0l0.1-0.3C832.4,694.2,833.4,694.4,834.3,694.6z"/>
		</g>
		<path class="st0" d="M1074.3,695.1h36.7l-43.3-71.8l1.2-0.3c3.8-0.8,7.1-1.7,10.2-2.6c19.4-7,31-23.7,31-44.6
			c0-30.7-22.7-52.1-55.3-52.1h-67v171.4h32V626h13.9L1074.3,695.1z M1020,552.1h32.8c15,0,25.5,9.8,25.5,23.8s-10.5,23.8-25.5,23.8
			H1020V552.1z"/>
	</g>
</g>
</svg>
