<svg viewBox="0 0 136 44" fill="none" xmlns="http://www.w3.org/2000/svg">
<g clip-path="url(#clip0_3575_3507)">
<path d="M97.1624 38.1904H89.1679H89.1075V38.13V33.9012V33.8408H89.1679H95.9743V30.941H89.1679H89.1075V30.8806V26.8028V26.7424H89.1679H97.1624V23.8325H85.8352V41.0902H97.1624V38.1904Z" fill="#B8B8B8"/>
<path d="M116.112 38.1904H108.107H108.047V38.13V33.9012V33.8408H108.107H114.914V30.941H108.107H108.047V30.8806V26.8028V26.7424H108.107H116.112V23.8325H104.774V41.0902H116.112V38.1904Z" fill="#B8B8B8"/>
<path d="M135.977 41.0197V23.8325H132.705V32.995V33.1359L132.604 33.0453L122.797 23.9131V41.0902H126.069V31.9076V31.7666L126.17 31.8572L135.977 41.0197Z" fill="#B8B8B8"/>
<path d="M50.9272 41.0398C51.1387 41.0902 51.3602 41.1304 51.5918 41.1606L51.6421 41.1707C51.9945 41.221 52.2966 41.2412 52.5885 41.2412C52.8403 41.2412 53.102 41.2311 53.3739 41.2009C53.384 41.2009 53.394 41.2009 53.4041 41.2009C53.4142 41.2009 53.4242 41.2009 53.4242 41.2009C53.4444 41.2009 53.4544 41.2009 53.4645 41.1908C53.4847 41.1908 53.5048 41.1808 53.5249 41.1808C55.3171 41.0297 56.8274 40.3551 57.9954 39.1771C59.1734 37.989 59.6366 36.519 59.6366 33.9213V31.4444H53.1927V34.1529H56.3341H56.3945V34.2133V34.8677C56.3945 35.8947 56.1226 36.6902 55.5991 37.2339C54.9245 37.9286 54.1291 38.1199 53.5048 38.2206C53.2531 38.2609 53.0114 38.281 52.7698 38.281C50.6252 38.281 48.4705 36.4787 48.4705 32.4513C48.4705 29.5414 49.7593 26.5913 52.649 26.5913C52.8503 26.5913 53.0618 26.6114 53.2833 26.6316C54.4613 26.8229 55.8307 27.6082 56.2837 28.9172L59.0325 27.3062C58.7103 26.6718 57.2 24.1043 53.4645 23.7217L53.4142 23.7117H53.4041C53.1121 23.6815 52.8503 23.6714 52.5986 23.6714C52.0448 23.6714 51.481 23.7419 50.9373 23.8728L50.8567 23.8929L50.8165 23.903C50.7057 23.9332 50.605 23.9634 50.5043 23.9936C47.1515 24.9501 45.1075 28.2023 45.1881 32.4815C45.1881 36.811 47.2723 40.0632 50.6352 40.9693V40.9995H50.6453L50.6554 40.9693C50.7359 40.9995 50.8366 41.0197 50.9272 41.0398Z" fill="#B8B8B8"/>
<path d="M75.092 41.0902H78.7871L74.4274 33.8609L74.5482 33.8307C74.9309 33.7501 75.2631 33.6595 75.5752 33.5689C77.5286 32.8641 78.6965 31.1826 78.6965 29.0783C78.6965 25.9872 76.4109 23.8325 73.1286 23.8325H66.3826V41.0902H69.6045V34.1327H71.0041L75.092 41.0902ZM69.6247 26.692H72.9272C74.4375 26.692 75.4947 27.6787 75.4947 29.0884C75.4947 30.498 74.4375 31.4847 72.9272 31.4847H69.6247V26.692Z" fill="#B8B8B8"/>
<path d="M51.2697 12.9382C51.6422 13.2705 51.8335 13.7639 51.8335 14.4284C51.8335 15.3547 51.5013 16.0092 50.8569 16.4019C50.2024 16.7945 49.2962 16.9858 48.1182 16.9858H45.4399V8.09521H47.7658C50.2125 8.09521 51.4409 8.85036 51.4409 10.3607C51.461 10.8339 51.2898 11.297 50.9676 11.6394C50.6555 11.9716 50.2427 12.1932 49.7997 12.2737C50.3333 12.3643 50.8468 12.5959 51.2697 12.9382ZM47.1315 11.7602H48.1685C48.5713 11.7803 48.964 11.6696 49.2862 11.4481C49.5681 11.2266 49.7191 10.8742 49.699 10.5117C49.7292 10.1593 49.5681 9.80689 49.266 9.61558C48.8431 9.41421 48.38 9.33366 47.9168 9.36387H47.1214L47.1315 11.7602ZM49.558 15.4353C49.8903 15.244 50.0514 14.8916 50.0514 14.368C50.0917 13.9451 49.9104 13.5323 49.5782 13.2806C49.1956 13.0389 48.7525 12.9181 48.2994 12.9483H47.1315V15.7273H48.1182C48.6116 15.7474 49.1049 15.6568 49.558 15.4353Z" fill="#B8B8B8"/>
<path d="M54.9345 15.7371C55.005 15.8278 55.1158 15.868 55.2265 15.858C55.3574 15.858 55.4883 15.8378 55.6091 15.7976L55.9615 16.9555C55.589 17.1065 55.1963 17.187 54.7936 17.187C54.3506 17.2172 53.9277 17.0561 53.6155 16.744C53.3135 16.3815 53.1725 15.9184 53.2027 15.4552V7.47079L54.854 7.28955V15.3445C54.8339 15.4754 54.8641 15.6163 54.9345 15.7371Z" fill="#B8B8B8"/>
<path d="M62.0531 10.9546C62.617 11.5889 62.8989 12.4649 62.8989 13.5825C62.909 14.2269 62.7781 14.8713 62.5163 15.4653C62.2746 15.9889 61.892 16.4218 61.4087 16.734C60.8952 17.0461 60.3012 17.1971 59.6971 17.187C58.6902 17.187 57.9048 16.8749 57.341 16.2305C56.7771 15.5962 56.4852 14.7102 56.4852 13.5825C56.4751 12.9381 56.606 12.2937 56.8678 11.7097C57.1094 11.1861 57.492 10.7532 57.9753 10.4511C58.4989 10.139 59.0929 9.98796 59.6971 9.99803C60.7039 9.99803 61.4893 10.3102 62.0531 10.9546ZM58.217 13.5825C58.217 14.388 58.3378 14.982 58.5794 15.3747C58.8211 15.7472 59.2339 15.9687 59.6769 15.9486C60.1199 15.9687 60.5428 15.7472 60.7744 15.3646C61.016 14.982 61.1469 14.388 61.1469 13.5925C61.1469 12.7971 61.0261 12.2031 60.7744 11.8205C60.5428 11.4479 60.13 11.2264 59.687 11.2465C58.7103 11.2465 58.217 12.0218 58.217 13.5825Z" fill="#B8B8B8"/>
<path d="M68.3761 10.1793C68.7487 10.3203 69.091 10.5216 69.383 10.7834L68.6379 11.7903C68.4366 11.6292 68.2151 11.5084 67.9835 11.4077C67.762 11.3271 67.5203 11.2869 67.2787 11.2869C66.2517 11.2869 65.7482 12.0622 65.7482 13.6127C65.7482 14.3981 65.8791 14.972 66.151 15.3143C66.4228 15.6567 66.8457 15.848 67.2887 15.8278C67.5203 15.8278 67.7519 15.7876 67.9633 15.707C68.205 15.5962 68.4265 15.4654 68.6379 15.3043L69.4031 16.3816C68.789 16.8951 68.0036 17.177 67.2082 17.167C66.6141 17.177 66.0301 17.0361 65.5066 16.734C65.0233 16.442 64.6407 16.0191 64.399 15.5056C64.1272 14.9116 63.9963 14.2773 64.0164 13.6228C64.0064 12.9683 64.1372 12.3139 64.399 11.7198C64.6306 11.1962 65.0132 10.7532 65.5066 10.4411C66.01 10.129 66.594 9.96787 67.188 9.98801C67.5908 9.98801 67.9935 10.0484 68.3761 10.1793Z" fill="#B8B8B8"/>
<path d="M70.5913 16.9858V7.45077L72.2426 7.26953V16.9858H70.5913ZM76.5318 16.9858H74.649L72.303 13.2704L74.5785 10.1794H76.3103L74.0449 13.1798L76.5318 16.9858Z" fill="#B8B8B8"/>
<path d="M82.0191 10.7936L81.3747 11.7803C80.8914 11.4178 80.3074 11.2165 79.7033 11.2064C79.4315 11.1863 79.1496 11.2567 78.918 11.3977C78.7468 11.4984 78.636 11.6897 78.6461 11.8911C78.6461 12.032 78.6864 12.1629 78.7569 12.2737C78.8676 12.4046 79.0187 12.5053 79.1798 12.5657C79.4718 12.6865 79.7637 12.7872 80.0759 12.8677C80.68 12.9986 81.2338 13.2604 81.7171 13.6531C82.0795 14.0055 82.2809 14.5089 82.2507 15.0224C82.2708 15.6567 81.9587 16.2609 81.4251 16.6032C80.8209 17.0059 80.1061 17.2073 79.3811 17.1771C78.8576 17.1872 78.334 17.0966 77.8507 16.9254C77.4177 16.7643 77.0049 16.5327 76.6626 16.2206L77.4983 15.2842C78.0118 15.7172 78.6562 15.9588 79.3308 15.9689C79.6429 15.9789 79.945 15.9085 80.2168 15.7474C80.4182 15.6265 80.5491 15.405 80.5491 15.1634C80.5592 14.9922 80.5189 14.8311 80.4283 14.6801C80.3175 14.5391 80.1665 14.4284 79.9953 14.368C79.6731 14.2371 79.3409 14.1263 79.0086 14.0357C78.4347 13.9149 77.901 13.643 77.4782 13.2403C77.1459 12.8979 76.9747 12.4348 76.9848 11.9615C76.9747 11.589 77.0955 11.2366 77.3171 10.9345C77.5587 10.6224 77.8708 10.3707 78.2434 10.2297C78.6763 10.0485 79.1395 9.96796 79.6127 9.97803C80.4685 9.95789 81.3344 10.2499 82.0191 10.7936Z" fill="#B8B8B8"/>
<path d="M86.6609 17.0464C86.3689 17.127 86.0669 17.1773 85.7548 17.1773C85.1808 17.2176 84.6271 17.0062 84.2243 16.6034C83.8719 16.2309 83.7108 15.6771 83.7108 14.9522V11.3677H82.6436V10.1696H83.7108V8.66933L85.3621 8.47803V10.1696H86.9429L86.7818 11.3577H85.3621V14.9119C85.342 15.1636 85.4024 15.4153 85.5333 15.6268C85.6742 15.7879 85.8756 15.8684 86.077 15.8483C86.369 15.8382 86.6408 15.7476 86.8825 15.5966L87.4664 16.6638C87.2248 16.835 86.9529 16.9659 86.6609 17.0464Z" fill="#B8B8B8"/>
<path d="M92.4404 10.089L92.1584 11.6798C91.9571 11.6295 91.7557 11.5993 91.5543 11.5993C91.1919 11.5791 90.8394 11.7402 90.6079 12.0322C90.3259 12.4249 90.1346 12.8881 90.0541 13.3613V16.9759H88.4028V10.1695H89.8326L89.9836 11.5086C90.1145 11.0757 90.3561 10.683 90.6884 10.381C90.9804 10.1292 91.363 9.98828 91.7557 9.98828C91.9873 9.98828 92.2188 10.0185 92.4404 10.089Z" fill="#B8B8B8"/>
<path d="M98.8842 14.086H94.6151C94.6756 14.7505 94.8467 15.2137 95.1287 15.4956C95.4408 15.7876 95.8536 15.9386 96.2765 15.9185C96.5685 15.9185 96.8504 15.8681 97.1222 15.7675C97.4243 15.6466 97.7062 15.4956 97.968 15.3144L98.6527 16.2508C97.9479 16.8448 97.0518 17.167 96.1355 17.167C95.0984 17.167 94.2929 16.8549 93.7392 16.2205C93.1753 15.5862 92.8934 14.7203 92.8934 13.6228C92.8833 12.9784 93.0042 12.3441 93.2559 11.7501C93.4673 11.2265 93.8298 10.7734 94.2929 10.4512C94.7662 10.129 95.3401 9.96791 95.914 9.97798C96.8705 9.97798 97.6055 10.28 98.1291 10.8842C98.6527 11.4883 98.9145 12.334 98.9145 13.4114C98.9245 13.502 98.9245 13.7235 98.8842 14.086ZM97.2934 12.9382C97.2934 11.74 96.8504 11.1459 95.9643 11.1459C95.5918 11.1258 95.2394 11.297 95.0179 11.589C94.7863 11.881 94.6554 12.3542 94.6151 13.0086H97.2934V12.9382Z" fill="#B8B8B8"/>
<path d="M105.59 15.7573C105.681 15.8983 105.822 15.999 105.983 16.0493L105.63 17.1468C105.298 17.1267 104.976 17.036 104.684 16.8749C104.422 16.7038 104.231 16.4521 104.12 16.1601C103.908 16.4923 103.606 16.7541 103.254 16.9253C102.892 17.0964 102.489 17.1871 102.086 17.177C101.492 17.2072 100.918 16.9958 100.475 16.593C100.072 16.1903 99.8609 15.6466 99.881 15.0726C99.8407 14.4081 100.143 13.7738 100.687 13.3811C101.22 12.9884 101.985 12.7971 102.992 12.7971H103.838V12.4145C103.878 12.0823 103.768 11.7399 103.536 11.4983C103.254 11.2969 102.912 11.2063 102.559 11.2466C101.945 11.2667 101.331 11.3875 100.757 11.609L100.374 10.4914C101.16 10.1793 101.995 10.0081 102.841 9.99805C104.583 9.99805 105.449 10.7733 105.459 12.334V15.1935C105.449 15.3848 105.499 15.5861 105.59 15.7573ZM103.838 15.1331V13.7436H103.153C102.096 13.7436 101.562 14.1363 101.562 14.9317C101.542 15.2136 101.633 15.4855 101.804 15.6969C101.995 15.8882 102.257 15.9889 102.529 15.9688C103.093 15.9788 103.606 15.6466 103.838 15.1331Z" fill="#B8B8B8"/>
<path d="M115.991 10.5318C116.333 10.9547 116.514 11.4984 116.484 12.0421V16.9657H114.833V12.2938C114.833 11.5689 114.581 11.1963 114.088 11.2064C113.836 11.2064 113.594 11.297 113.403 11.4581C113.162 11.6796 112.96 11.9414 112.809 12.2233V16.9657H111.158V12.2938C111.158 11.5689 110.906 11.1963 110.413 11.2064C110.151 11.2064 109.909 11.297 109.708 11.4581C109.466 11.6796 109.275 11.9414 109.114 12.2233V16.9657H107.463V10.1693H108.892L109.023 11.0554C109.456 10.3808 110.191 9.97804 110.997 9.97804C111.359 9.96797 111.722 10.0687 112.024 10.27C112.326 10.4815 112.547 10.7735 112.658 11.1158C112.89 10.7735 113.192 10.4815 113.544 10.26C113.897 10.0586 114.289 9.9579 114.692 9.96797C115.175 9.9579 115.659 10.1593 115.991 10.5318Z" fill="#B8B8B8"/>
<path d="M22.1106 8.25635H8.24609V28.4138C8.24609 34.8879 15.5559 39.4088 21.9898 44.0001C28.4337 39.4188 35.7335 34.898 35.7335 28.4138V8.25635H22.1106ZM31.6356 28.4138C31.6356 32.0184 26.863 35.5424 22.0099 38.9456C17.1669 35.5323 12.3843 32.0184 12.3843 28.4138V12.3744H31.6356V28.4138Z" fill="#B8B8B8"/>
<path d="M4.17849 24.2856V4.17849H27.4975V0H0V20.1574C0 24.205 2.84943 27.4874 6.56476 30.4979C5.09474 28.6252 4.17849 26.5812 4.17849 24.2856Z" fill="#B8B8B8"/>
</g>
<defs>
<clipPath id="clip0_3575_3507">
<rect width="136" height="44" fill="white"/>
</clipPath>
</defs>
</svg>
