<?xml version="1.0" encoding="UTF-8"?>
<svg id="Layer_1" xmlns="http://www.w3.org/2000/svg" version="1.1" viewBox="0 0 105.72 20.18">
  <!-- Generator: Adobe Illustrator 29.6.1, SVG Export Plug-In . SVG Version: 2.1.1 Build 9)  -->
  <path d="M10.05.9c1.2-.15,2.23.12,3.14.9,1.81,1.54,3.43,3.63,5.22,5.23,3.49,4.65-2.72,7.76-5.22,10.87-2.63,2.23-6.55.22-6.2-3.24.22-2.15,2.42-2.56,2.15-5.26-.23-2.34-2.73-2.66-2.06-5.69.3-1.36,1.57-2.63,2.97-2.81Z" fill="#c7c7c7"/>
  <path d="M34.78,8.24h-2.53c-.15-.15-.14-.37-.24-.55-.79-1.42-3.29-1.43-4.37-.35-1.13,1.13-1.26,3.81-.28,5.07,1.34,1.72,4.94,1.4,5.12-1.08h-2.96v-2.1h5.26v6.31h-2.1l-.13-.92c-1.8,1.59-4.79,1.44-6.57-.1-2.11-1.82-2.37-5.52-.91-7.81,2.35-3.66,9.04-3.18,9.71,1.53Z" fill="#c7c7c7"/>
  <path d="M72.5,15.54h-2.3v-4.63c0-.11-.19-.47-.27-.58-.47-.58-1.57-.51-1.99.09-.12.17-.3.69-.3.88v4.24h-2.3v-4.7c0-.34-.55-.83-.89-.88-.75-.12-1.35.19-1.56.93-.02.08-.11.5-.11.55v4.11h-2.3v-7.43h2.14l.2.72c1.19-1.4,3.47-1.35,4.47.26,1.09-1.8,4.29-1.68,5.04.35.03.08.18.57.18.6v5.49Z" fill="#c7c7c7"/>
  <path d="M58.83,15.54h-2.3v-4.63c0-.12-.21-.51-.3-.62-.48-.54-1.56-.46-1.96.13-.12.17-.3.76-.3.95v4.17h-2.3v-4.7c0-.2-.3-.59-.48-.7-.76-.49-1.78-.1-1.99.8-.02.1-.09.55-.09.63v3.98h-2.23v-7.43h2.07l.2.72c1.19-1.4,3.47-1.35,4.47.26,1.12-1.82,4.31-1.68,5.06.4.04.1.17.49.17.56v5.49Z" fill="#c7c7c7"/>
  <path d="M4.14,6.42c1.37-.16,2.35.75,3.17,1.72,1.46,1.72.41,3.39-1.05,4.6-1.11.92-2.44.92-3.55,0s-2.07-2.07-1.61-3.65c.29-1,1.98-2.55,3.04-2.68Z" fill="#c7c7c7"/>
  <path d="M87.15,15.54h-1.48l-1.02-2.66h-4.54s-.91,2.66-.91,2.66h-1.58l4.04-10.78c.44.06,1.04-.07,1.45,0,.07.01.13.03.16.1l3.88,10.67ZM84.19,11.59l-1.81-5.06-1.81,5.06h3.61Z" fill="#c7c7c7"/>
  <path d="M89.78,14.42v4.4h-1.38v-10.58h1.25l.16,1.25c.67-1.33,2.32-1.7,3.68-1.31,2.98.86,3.12,6.05.39,7.28-1.39.63-3.26.29-4.1-1.04ZM93.7,9.91c-.55-.53-1.43-.69-2.16-.53-2.53.56-2.36,5.42.9,5.11,2.11-.2,2.56-3.31,1.26-4.58Z" fill="#c7c7c7"/>
  <path d="M98.65,8.24l.07,1.25c.5-.64,1-1.16,1.83-1.36,5.47-1.3,5.87,8.47.14,7.57-.58-.09-1.18-.43-1.58-.86-.13-.14-.19-.32-.33-.43v4.4h-1.38v-10.58h1.25ZM100.94,9.31c-2.92.2-2.79,4.92-.15,5.17,3.52.34,3.43-5.4.15-5.17Z" fill="#c7c7c7"/>
  <path d="M41.61,8.04v2.17c-.92.04-2-.04-2.54.84-.09.14-.29.63-.29.77v3.71h-2.3v-7.43h2.17c.03.29.03.61.07.89.01.09.04.19.13.1.45-1.08,1.71-1.25,2.76-1.05Z" fill="#c7c7c7"/>
  <rect x="42.79" y="8.11" width="2.3" height="7.43" fill="#c7c7c7"/>
  <path d="M43.63,4.31c1.62-.28,2.21,1.87.83,2.47-1.84.8-2.6-2.17-.83-2.47Z" fill="#c7c7c7"/>
</svg>