<svg width="121" height="28" viewBox="0 0 121 28" fill="none" xmlns="http://www.w3.org/2000/svg">
<g clip-path="url(#clip0_4753_2778)">
<path fill-rule="evenodd" clip-rule="evenodd" d="M20.2396 5.48757C20.2437 4.5763 19.5084 3.83423 18.5971 3.8301C18.5082 3.82969 18.4208 3.83633 18.3356 3.8495L15.5926 3.99422C14.6826 4.04223 13.9839 4.81885 14.0319 5.72886C14.0606 6.274 14.3509 6.74334 14.7746 7.02174L0.771049 21.2644C0.132161 21.9142 0.141002 22.9589 0.790797 23.5977C1.44059 24.2366 2.48528 24.2278 3.12417 23.578L17.1886 9.27349C17.4808 9.72693 17.9893 10.0282 18.569 10.0308C19.4802 10.0349 20.2223 9.29955 20.2264 8.38829L20.2396 5.48757ZM4.91595 4.45345C5.5723 5.0856 5.59192 6.13014 4.95977 6.78649L3.13604 8.68005C2.50389 9.3364 1.45935 9.35602 0.803 8.72387C0.146647 8.09172 0.127027 7.04718 0.759177 6.39083L2.58291 4.49728C3.21506 3.84092 4.2596 3.8213 4.91595 4.45345ZM12.0787 4.47077C12.7255 5.1127 12.7294 6.15742 12.0875 6.80421L2.82111 16.1406C2.17918 16.7874 1.13446 16.7914 0.487677 16.1494C-0.159111 15.5075 -0.163046 14.4628 0.478888 13.816L9.74524 4.47956C10.3872 3.83277 11.4319 3.82884 12.0787 4.47077ZM19.7044 14.3462C20.3463 13.6994 20.3424 12.6547 19.6956 12.0128C19.0488 11.3708 18.0041 11.3748 17.3622 12.0216L8.09583 21.358C7.4539 22.0048 7.45783 23.0495 8.10462 23.6914C8.75141 24.3333 9.79612 24.3294 10.4381 23.6826L19.7044 14.3462ZM20.3416 21.6722C20.9738 21.0159 20.9541 19.9713 20.2978 19.3392C19.6414 18.707 18.5969 18.7267 17.9647 19.383L16.141 21.2766C15.5089 21.9329 15.5285 22.9775 16.1848 23.6096C16.8412 24.2418 17.8857 24.2221 18.5179 23.5658L20.3416 21.6722Z" fill="#B8B8B8"/>
<path d="M30.9357 24.1315V5.22461H26.8032V24.1315H30.9357Z" fill="#B8B8B8"/>
<path d="M42.1987 9.95068C39.6051 9.95068 38.0935 11.8958 37.6873 12.8685V10.0854H33.7441V24.1313H37.6873V15.8389C37.8239 14.9484 38.7692 13.22 40.7398 13.22C42.144 13.22 43.2513 13.9484 43.2513 15.8936V24.1313H47.1964V15.6768C47.1964 11.4096 45.0891 9.95068 42.1987 9.95068Z" fill="#B8B8B8"/>
<path d="M58.8106 24.1314L64.2123 10.0854H60.2693L56.6486 20.1883L53.0024 10.0854H49.0593L54.4613 24.1314H58.8106Z" fill="#B8B8B8"/>
<path d="M79.0422 17.622C79.0422 11.9505 75.828 9.95068 72.3437 9.95068C69.1018 9.95068 65.4006 11.9505 65.4006 17.1904C65.4006 22.3483 69.129 24.3207 72.3165 24.3207C75.7204 24.3207 77.8531 22.942 78.6634 20.1062H75.234C74.828 20.9167 74.0171 21.403 72.5328 21.403C70.6154 21.403 69.5078 20.5124 69.2089 18.3505H79.015C79.0422 18.1083 79.0422 17.8915 79.0422 17.622ZM69.2366 15.921C69.5333 13.8684 70.6154 12.8685 72.3437 12.8685C74.2068 12.8685 75.234 14.0832 75.2867 15.921H69.2366Z" fill="#B8B8B8"/>
<path d="M88.9528 9.95134C86.9821 9.95134 85.5783 11.0586 85.1174 11.8692V5.06299H81.1738V24.132H85.1174V21.9974C85.1174 22.3216 86.1718 24.3214 88.8729 24.3214C91.492 24.3214 95.1382 22.3763 95.1382 17.109C95.1382 11.9512 91.5191 9.95134 88.9528 9.95134ZM88.0897 21.1342C86.3614 21.1342 84.9549 19.8373 84.9549 17.109C84.9549 14.4081 86.3614 13.1386 88.0897 13.1386C89.8979 13.1386 91.3295 14.3279 91.3295 17.109C91.3295 19.9175 89.8979 21.1342 88.0897 21.1342Z" fill="#B8B8B8"/>
<path d="M97.2732 4.98096V7.98075H101.216V4.98096H97.2732ZM97.2732 10.0861V24.132H101.216V10.0861H97.2732Z" fill="#B8B8B8"/>
<path d="M110.723 21.2416C109.588 21.2416 109.211 20.6753 109.211 19.8101V13.1661H112.047V10.0862H109.211V6.57471H105.266V10.0862H102.944V13.1661H105.266V20.2417C105.266 23.6185 107.184 24.2942 109.616 24.2942C110.668 24.2942 111.588 24.1321 112.182 23.8899V21.0522C111.588 21.1889 111.129 21.2416 110.723 21.2416Z" fill="#B8B8B8"/>
<mask id="mask0_4753_2778" style="mask-type:luminance" maskUnits="userSpaceOnUse" x="113" y="3" width="3" height="5">
<path d="M113.522 3.67871H115.989V7.42845H113.522V3.67871Z" fill="white"/>
</mask>
<g mask="url(#mask0_4753_2778)">
<path d="M114.706 7.41966C114.494 7.41966 114.277 7.3767 114.077 7.29858C113.87 7.22827 113.695 7.09352 113.56 6.90408C113.519 6.84548 113.529 6.76346 113.582 6.71659L113.931 6.41192C113.962 6.38653 114 6.37482 114.039 6.38068C114.076 6.38653 114.111 6.40802 114.13 6.44121C114.197 6.54277 114.271 6.60917 114.37 6.65409C114.476 6.70292 114.58 6.72636 114.693 6.72636C114.748 6.72636 114.81 6.71268 114.859 6.69315C114.937 6.66581 114.984 6.64628 115.015 6.61308C115.023 6.60527 115.033 6.59941 115.041 6.59355C115.08 6.57011 115.105 6.53887 115.144 6.47442C115.166 6.43536 115.178 6.37872 115.178 6.31036C115.178 6.201 115.136 6.15218 115.105 6.12483C115.033 6.06234 114.953 6.01742 114.853 5.98422C114.732 5.9432 114.613 5.90219 114.478 5.86118C114.304 5.8065 114.173 5.744 114.066 5.66393C113.943 5.59167 113.837 5.4823 113.732 5.31825C113.726 5.31044 113.722 5.30067 113.718 5.2909C113.658 5.12881 113.629 4.94327 113.629 4.74407C113.629 4.61517 113.668 4.49213 113.705 4.38863C113.75 4.26754 113.822 4.15231 113.924 4.0488C114.021 3.94725 114.162 3.85546 114.306 3.79687C114.48 3.72461 114.66 3.68945 114.855 3.68945C115.021 3.68945 115.191 3.71289 115.386 3.76367C115.581 3.83007 115.739 3.94334 115.874 4.1152C115.919 4.17184 115.913 4.25387 115.863 4.30465L115.511 4.63665C115.482 4.664 115.443 4.67766 115.404 4.67376C115.364 4.6679 115.33 4.64642 115.308 4.61127C115.269 4.55072 115.206 4.49604 115.124 4.44721C115.054 4.4062 114.956 4.38277 114.855 4.38277C114.744 4.38277 114.673 4.39449 114.619 4.42378L114.582 4.44136C114.535 4.46674 114.492 4.48627 114.478 4.50776C114.474 4.51362 114.468 4.51752 114.464 4.52338C114.429 4.55853 114.41 4.59564 114.388 4.63861C114.379 4.68157 114.369 4.72258 114.369 4.75774C114.369 4.82609 114.382 4.91789 114.443 4.96866C114.507 5.0253 114.589 5.08779 114.695 5.1249C114.816 5.16591 114.935 5.20692 115.068 5.24794C115.208 5.2909 115.355 5.33582 115.478 5.4159C115.611 5.49207 115.718 5.58776 115.81 5.71275C115.912 5.85142 115.959 6.03109 115.959 6.2674C115.959 6.4588 115.922 6.63066 115.847 6.76541C115.788 6.90408 115.689 7.03493 115.568 7.12867C115.462 7.22046 115.326 7.29858 115.175 7.3435C115.015 7.39428 114.857 7.41966 114.706 7.41966Z" fill="#B8B8B8"/>
</g>
<mask id="mask1_4753_2778" style="mask-type:luminance" maskUnits="userSpaceOnUse" x="116" y="3" width="5" height="5">
<path d="M116.486 3.67969H120.269V7.36693H116.486V3.67969Z" fill="white"/>
</mask>
<g mask="url(#mask1_4753_2778)">
<path d="M120.137 7.3352H119.705C119.631 7.3352 119.571 7.27271 119.571 7.19654V5.16348L118.738 7.24927C118.719 7.30201 118.668 7.3352 118.613 7.3352H118.33C118.278 7.3352 118.227 7.30201 118.207 7.24927L117.375 5.16348V7.19654C117.375 7.27271 117.315 7.3352 117.241 7.3352H116.809C116.735 7.3352 116.674 7.27271 116.674 7.19654V3.91161C116.674 3.83349 116.735 3.77295 116.809 3.77295H117.455C117.51 3.77295 117.559 3.80615 117.58 3.85693L118.473 6.06185L119.366 3.85693C119.387 3.80615 119.436 3.77295 119.491 3.77295H120.137C120.211 3.77295 120.272 3.83349 120.272 3.91161V7.19654C120.272 7.27271 120.211 7.3352 120.137 7.3352Z" fill="#B8B8B8"/>
</g>
</g>
<defs>
<clipPath id="clip0_4753_2778">
<rect width="120.269" height="20.6427" fill="white" transform="translate(0 3.67871)"/>
</clipPath>
</defs>
</svg>
