<svg width="122" height="22" viewBox="0 0 122 22" fill="none" xmlns="http://www.w3.org/2000/svg">
<g clip-path="url(#clip0_4508_60522)">
<mask id="mask0_4508_60522" style="mask-type:luminance" maskUnits="userSpaceOnUse" x="16" y="15" width="6" height="7">
<path d="M16.6419 15.6821H21.8154V21.1193H16.6419V15.6821Z" fill="white"/>
</mask>
<g mask="url(#mask0_4508_60522)">
<path d="M17.1946 18.1454L19.1672 16.1436C19.3156 16.001 19.4835 15.8897 19.673 15.8136C19.8644 15.7374 20.0616 15.7003 20.2647 15.7022C20.4698 15.7042 20.667 15.7452 20.8545 15.8253C21.044 15.9073 21.21 16.0206 21.3545 16.1671C21.499 16.3135 21.6104 16.4815 21.6904 16.6729C21.7685 16.8643 21.8096 17.0634 21.8115 17.2724C21.8135 17.4794 21.7783 17.6787 21.7022 17.872C21.626 18.0654 21.5186 18.2353 21.376 18.3856L19.4054 20.3875C19.257 20.53 19.089 20.6394 18.8977 20.7175C18.7082 20.7937 18.511 20.8308 18.3059 20.8288C18.1028 20.8269 17.9055 20.7859 17.7161 20.7038C17.5286 20.6238 17.3626 20.5105 17.2181 20.3641C17.0735 20.2175 16.9603 20.0476 16.8822 19.8563C16.8021 19.6649 16.7611 19.4657 16.7591 19.2586C16.7572 19.0516 16.7943 18.8524 16.8704 18.6591C16.9447 18.4657 17.054 18.2938 17.1946 18.1454Z" fill="#B8B8B8"/>
</g>
<mask id="mask1_4508_60522" style="mask-type:luminance" maskUnits="userSpaceOnUse" x="1" y="0" width="6" height="7">
<path d="M1.22311 0.870117H6.39661V6.30722H1.22311V0.870117Z" fill="white"/>
</mask>
<g mask="url(#mask1_4508_60522)">
<path d="M1.7747 3.33389L3.74722 1.33207C3.89565 1.18951 4.06361 1.07818 4.25304 1.00202C4.44444 0.925852 4.64169 0.888745 4.84481 0.890698C5.04987 0.892652 5.24712 0.933664 5.4346 1.01374C5.62405 1.09576 5.79005 1.20903 5.93457 1.35551C6.07909 1.50198 6.19041 1.66994 6.27048 1.86133C6.34861 2.05273 6.38964 2.25193 6.3916 2.4609C6.3935 2.66792 6.35837 2.86713 6.2822 3.06047C6.20604 3.25382 6.09862 3.42373 5.95605 3.57411L3.98548 5.57592C3.83706 5.71849 3.6691 5.82786 3.47771 5.90597C3.28827 5.98216 3.09102 6.01923 2.88595 6.01727C2.68284 6.01537 2.48559 5.97434 2.29615 5.89232C2.10867 5.81224 1.94266 5.69896 1.79814 5.55249C1.65362 5.40601 1.54034 5.2361 1.46222 5.04471C1.38215 4.85332 1.34114 4.65411 1.33918 4.4471C1.33723 4.24008 1.37434 4.04087 1.45051 3.84752C1.52472 3.65418 1.63409 3.48232 1.7747 3.33389Z" fill="#B8B8B8"/>
</g>
<mask id="mask2_4508_60522" style="mask-type:luminance" maskUnits="userSpaceOnUse" x="8" y="8" width="14" height="14">
<path d="M8.72195 8.30762H21.2211V21.1192H8.72195V8.30762Z" fill="white"/>
</mask>
<g mask="url(#mask2_4508_60522)">
<path d="M20.6948 11.2115L11.4317 20.6171C11.2853 20.7596 11.1154 20.871 10.9259 20.9471C10.7365 21.0233 10.5392 21.0604 10.3342 21.0585C10.1291 21.0565 9.93383 21.0155 9.74437 20.9335C9.55687 20.8534 9.38893 20.7401 9.24442 20.5937C9.0999 20.4472 8.9886 20.2773 8.90849 20.0859C8.83039 19.8964 8.78935 19.6953 8.7874 19.4883C8.78544 19.2812 8.82256 19.0821 8.8968 18.8887C8.97294 18.6954 9.08034 18.5235 9.22295 18.3751L18.484 8.96947C18.6324 8.82495 18.8004 8.71555 18.9918 8.63941C19.1812 8.56321 19.3785 8.52419 19.5835 8.5281C19.7866 8.53006 19.9839 8.57104 20.1733 8.65109C20.3608 8.7312 20.5269 8.84446 20.6714 8.99093C20.8159 9.13741 20.9292 9.3073 21.0073 9.49872C21.0874 9.69013 21.1283 9.88932 21.1303 10.0963C21.1323 10.3034 21.0951 10.5045 21.019 10.6979C20.9448 10.8892 20.8354 11.0611 20.6948 11.2115Z" fill="#B8B8B8"/>
</g>
<mask id="mask3_4508_60522" style="mask-type:luminance" maskUnits="userSpaceOnUse" x="1" y="0" width="13" height="14">
<path d="M1.22311 0.870117H13.7222V13.8067H1.22311V0.870117Z" fill="white"/>
</mask>
<g mask="url(#mask3_4508_60522)">
<path d="M1.74569 10.7777L11.0068 1.38188C11.1552 1.23736 11.3231 1.12799 11.5126 1.04987C11.704 0.973703 11.9013 0.936597 12.1044 0.93855C12.3094 0.940503 12.5066 0.98347 12.6941 1.06354C12.8836 1.14361 13.0496 1.25689 13.1941 1.40336C13.3386 1.54983 13.45 1.71974 13.53 1.91114C13.6081 2.10253 13.6492 2.30174 13.6511 2.50875C13.6531 2.71577 13.6179 2.91693 13.5418 3.10832C13.4656 3.30167 13.3582 3.47353 13.2156 3.62196L3.95452 13.0197C3.80805 13.174 3.64009 13.2932 3.44674 13.3771C3.25339 13.4611 3.05224 13.5041 2.84327 13.5061C2.63234 13.51 2.43119 13.4709 2.23589 13.3889C2.04254 13.3088 1.87068 13.1935 1.72225 13.0432C1.57382 12.8928 1.46055 12.719 1.38048 12.5217C1.3004 12.3245 1.26134 12.1194 1.26525 11.9046C1.2672 11.6917 1.31017 11.4886 1.39219 11.2933C1.47617 11.0961 1.59335 10.9262 1.74569 10.7777Z" fill="#B8B8B8"/>
</g>
<mask id="mask4_4508_60522" style="mask-type:luminance" maskUnits="userSpaceOnUse" x="1" y="0" width="21" height="22">
<path d="M1.22311 0.870117H21.2217V21.1187H1.22311V0.870117Z" fill="white"/>
</mask>
<g mask="url(#mask4_4508_60522)">
<path d="M21.1837 2.73704V5.22515C21.1837 5.39115 21.1583 5.55325 21.1056 5.70949C21.0528 5.86574 20.9766 6.01025 20.877 6.14112C20.7755 6.27194 20.6583 6.38325 20.5216 6.47504C20.3868 6.56684 20.2384 6.63325 20.0802 6.67429C19.922 6.71526 19.7619 6.73092 19.5998 6.71918C19.4357 6.70554 19.2795 6.66646 19.1291 6.602C18.9807 6.53754 18.844 6.44966 18.7229 6.33836C18.6018 6.22705 18.5002 6.09813 18.4221 5.95362L4.08131 20.4799C3.93484 20.6225 3.76493 20.7338 3.57549 20.81C3.38605 20.8862 3.1888 20.9233 2.98373 20.9214C2.77867 20.9194 2.58337 20.8784 2.39393 20.7983C2.20644 20.7162 2.03849 20.603 1.89396 20.4565C1.74944 20.31 1.63812 20.1401 1.56 19.9507C1.47993 19.7593 1.43892 19.5601 1.43696 19.3511C1.43501 19.1441 1.47212 18.9449 1.54633 18.7516C1.6225 18.5582 1.72991 18.3864 1.87248 18.2379L16.1371 3.77408C15.9789 3.70767 15.8364 3.61588 15.7114 3.4987C15.5844 3.38348 15.4809 3.24872 15.3989 3.09443C15.3188 2.9421 15.2661 2.78 15.2427 2.60814C15.2173 2.43628 15.2211 2.26637 15.2544 2.09451C15.2895 1.9246 15.3501 1.7664 15.4379 1.61798C15.5278 1.46955 15.6371 1.34065 15.77 1.23128C15.9028 1.12192 16.0512 1.03794 16.2113 0.97935C16.3735 0.922711 16.5394 0.895369 16.7093 0.895369H19.4299C19.551 0.877792 19.674 0.873886 19.797 0.885605C19.92 0.897323 20.0392 0.922711 20.1563 0.963725C20.2716 1.00279 20.3829 1.05747 20.4864 1.12387C20.5919 1.19222 20.6857 1.27035 20.7716 1.36018C20.8575 1.45002 20.9317 1.54962 20.9942 1.65704C21.0567 1.76445 21.1056 1.87773 21.1407 1.99881C21.1778 2.11794 21.1992 2.23903 21.2051 2.36402C21.2129 2.48901 21.2051 2.614 21.1837 2.73704Z" fill="#B8B8B8"/>
</g>
<path d="M31.1964 21.1262V2.21924H27.0639V21.1262H31.1964Z" fill="#B8B8B8"/>
<path d="M42.4592 6.94531C39.8656 6.94531 38.354 8.89046 37.9478 9.86309V7.08004H34.0047V21.126H37.9478V12.8336C38.0845 11.943 39.0297 10.2146 41.0003 10.2146C42.4045 10.2146 43.5119 10.9431 43.5119 12.8883V21.126H47.4569V12.6715C47.4569 8.4042 45.3496 6.94531 42.4592 6.94531Z" fill="#B8B8B8"/>
<path d="M59.0712 21.126L64.473 7.08008H60.5299L56.9092 17.1829L53.2631 7.08008H49.3199L54.7219 21.126H59.0712Z" fill="#B8B8B8"/>
<path d="M79.3028 14.6167C79.3028 8.94513 76.0886 6.94531 72.6043 6.94531C69.3624 6.94531 65.6612 8.94513 65.6612 14.185C65.6612 19.3429 69.3895 21.3154 72.5771 21.3154C75.981 21.3154 78.1136 19.9366 78.924 17.1008H75.4945C75.0886 17.9113 74.2777 18.3977 72.7934 18.3977C70.876 18.3977 69.7683 17.507 69.4694 15.3451H79.2756C79.3028 15.1029 79.3028 14.8862 79.3028 14.6167ZM69.4971 12.9156C69.7939 10.863 70.876 9.86309 72.6043 9.86309C74.4673 9.86309 75.4945 11.0778 75.5473 12.9156H69.4971Z" fill="#B8B8B8"/>
<path d="M89.2135 6.94597C87.2428 6.94597 85.839 8.05328 85.3781 8.86378V2.05762H81.4346V21.1266H85.3781V18.992C85.3781 19.3162 86.4325 21.316 89.1336 21.316C91.7527 21.316 95.399 19.3709 95.399 14.1037C95.399 8.94579 91.7799 6.94597 89.2135 6.94597ZM88.3505 18.1288C86.6222 18.1288 85.2156 16.832 85.2156 14.1037C85.2156 11.4027 86.6222 10.1332 88.3505 10.1332C90.1586 10.1332 91.5902 11.3226 91.5902 14.1037C91.5902 16.9121 90.1586 18.1288 88.3505 18.1288Z" fill="#B8B8B8"/>
<path d="M97.5337 1.97559V4.97538H101.477V1.97559H97.5337ZM97.5337 7.08073V21.1266H101.477V7.08073H97.5337Z" fill="#B8B8B8"/>
<path d="M110.984 18.2363C109.849 18.2363 109.472 17.6699 109.472 16.8048V10.1607H112.308V7.08084H109.472V3.56934H105.527V7.08084H103.205V10.1607H105.527V17.2364C105.527 20.6131 107.445 21.2888 109.876 21.2888C110.929 21.2888 111.849 21.1267 112.442 20.8845V18.0469C111.849 18.1836 111.39 18.2363 110.984 18.2363Z" fill="#B8B8B8"/>
<mask id="mask5_4508_60522" style="mask-type:luminance" maskUnits="userSpaceOnUse" x="113" y="0" width="4" height="5">
<path d="M113.782 0.67334H116.249V4.42308H113.782V0.67334Z" fill="white"/>
</mask>
<g mask="url(#mask5_4508_60522)">
<path d="M114.967 4.41429C114.754 4.41429 114.537 4.37133 114.338 4.29321C114.131 4.2229 113.955 4.08814 113.821 3.89871C113.78 3.84011 113.79 3.75809 113.842 3.71122L114.192 3.40655C114.223 3.38116 114.26 3.36945 114.299 3.3753C114.336 3.38116 114.371 3.40265 114.391 3.43584C114.458 3.5374 114.532 3.6038 114.631 3.64872C114.736 3.69754 114.84 3.72098 114.953 3.72098C115.008 3.72098 115.071 3.70731 115.12 3.68778C115.198 3.66044 115.245 3.64091 115.276 3.60771C115.284 3.5999 115.293 3.59404 115.301 3.58818C115.34 3.56474 115.366 3.5335 115.404 3.46905C115.426 3.42998 115.438 3.37335 115.438 3.30499C115.438 3.19563 115.397 3.14681 115.366 3.11946C115.293 3.05697 115.213 3.01205 115.114 2.97885C114.992 2.93783 114.873 2.89682 114.739 2.85581C114.565 2.80112 114.434 2.73863 114.327 2.65856C114.203 2.58629 114.098 2.47693 113.992 2.31288C113.987 2.30507 113.983 2.2953 113.979 2.28553C113.918 2.12344 113.889 1.9379 113.889 1.7387C113.889 1.6098 113.928 1.48676 113.965 1.38326C114.01 1.26217 114.083 1.14694 114.184 1.04343C114.281 0.941877 114.422 0.850086 114.567 0.791497C114.741 0.719236 114.92 0.684082 115.116 0.684082C115.282 0.684082 115.452 0.707518 115.647 0.758296C115.842 0.824697 116 0.937971 116.135 1.10983C116.18 1.16647 116.174 1.2485 116.123 1.29928L115.772 1.63128C115.742 1.65862 115.703 1.67229 115.664 1.66839C115.625 1.66253 115.59 1.64105 115.568 1.6059C115.529 1.54535 115.467 1.49066 115.385 1.44184C115.315 1.40083 115.217 1.3774 115.116 1.3774C115.004 1.3774 114.934 1.38911 114.879 1.41841L114.842 1.43598C114.795 1.46137 114.752 1.4809 114.739 1.50239C114.735 1.50825 114.729 1.51215 114.725 1.51801C114.69 1.55316 114.67 1.59027 114.649 1.63324C114.639 1.6762 114.629 1.71721 114.629 1.75237C114.629 1.82072 114.643 1.91252 114.703 1.96329C114.768 2.01993 114.85 2.08242 114.955 2.11953C115.077 2.16054 115.196 2.20155 115.328 2.24257C115.469 2.28553 115.616 2.33045 115.739 2.41052C115.871 2.48669 115.979 2.58239 116.071 2.70738C116.172 2.84604 116.219 3.02572 116.219 3.26203C116.219 3.45343 116.182 3.62529 116.108 3.76004C116.049 3.89871 115.949 4.02956 115.828 4.1233C115.723 4.21509 115.586 4.29321 115.436 4.33813C115.276 4.38891 115.117 4.41429 114.967 4.41429Z" fill="#B8B8B8"/>
</g>
<mask id="mask6_4508_60522" style="mask-type:luminance" maskUnits="userSpaceOnUse" x="116" y="0" width="5" height="5">
<path d="M116.746 0.674316H120.529V4.36156H116.746V0.674316Z" fill="white"/>
</mask>
<g mask="url(#mask6_4508_60522)">
<path d="M120.397 4.32983H119.966C119.891 4.32983 119.831 4.26733 119.831 4.19117V2.15811L118.999 4.2439C118.979 4.29663 118.929 4.32983 118.874 4.32983H118.591C118.538 4.32983 118.488 4.29663 118.468 4.2439L117.636 2.15811V4.19117C117.636 4.26733 117.575 4.32983 117.501 4.32983H117.07C116.995 4.32983 116.935 4.26733 116.935 4.19117V0.90624C116.935 0.828121 116.995 0.767578 117.07 0.767578H117.716C117.771 0.767578 117.82 0.800778 117.841 0.851556L118.733 3.05648L119.626 0.851556C119.647 0.800778 119.696 0.767578 119.751 0.767578H120.397C120.472 0.767578 120.532 0.828121 120.532 0.90624V4.19117C120.532 4.26733 120.472 4.32983 120.397 4.32983Z" fill="#B8B8B8"/>
</g>
</g>
<defs>
<clipPath id="clip0_4508_60522">
<rect width="120.111" height="21.1961" fill="white" transform="translate(0.944489 0.401855)"/>
</clipPath>
</defs>
</svg>
