<svg width="221" height="39" viewBox="0 0 221 39" fill="none" xmlns="http://www.w3.org/2000/svg">
<mask id="mask0_3702_4808" style="mask-type:luminance" maskUnits="userSpaceOnUse" x="28" y="28" width="11" height="11">
<path d="M28.8806 28.1147H38.3996V38.1189H28.8806V28.1147Z" fill="white"/>
</mask>
<g mask="url(#mask0_3702_4808)">
<path d="M29.8974 32.6459L33.5268 28.9626C33.7999 28.7003 34.1089 28.4955 34.4575 28.3554C34.8096 28.2152 35.1726 28.1469 35.5463 28.1505C35.9236 28.1541 36.2865 28.2296 36.6315 28.3769C36.9801 28.5278 37.2855 28.7363 37.5514 29.0058C37.8173 29.2753 38.0222 29.5843 38.1695 29.9365C38.3132 30.2886 38.3887 30.6551 38.3923 31.0396C38.3959 31.4205 38.3312 31.7871 38.1911 32.1428C38.0509 32.4986 37.8533 32.8112 37.591 33.0879L33.9652 36.7712C33.6921 37.0335 33.383 37.2347 33.0309 37.3785C32.6823 37.5186 32.3194 37.5869 31.9421 37.5833C31.5684 37.5797 31.2054 37.5042 30.8569 37.3533C30.5119 37.206 30.2065 36.9976 29.9405 36.7281C29.6746 36.4585 29.4662 36.1459 29.3225 35.7938C29.1751 35.4416 29.0997 35.0751 29.0961 34.6942C29.0925 34.3133 29.1608 33.9467 29.3009 33.591C29.4375 33.2352 29.6387 32.919 29.8974 32.6459Z" fill="#B8B8B8"/>
</g>
<mask id="mask1_3702_4808" style="mask-type:luminance" maskUnits="userSpaceOnUse" x="0" y="0" width="11" height="11">
<path d="M0.510254 0.861816H10.0293V10.8659H0.510254V0.861816Z" fill="white"/>
</mask>
<g mask="url(#mask1_3702_4808)">
<path d="M1.52718 5.39347L5.15655 1.7102C5.42965 1.44788 5.73868 1.24305 6.08724 1.10291C6.4394 0.962766 6.80234 0.894491 7.17606 0.898084C7.55337 0.901678 7.9163 0.97714 8.26127 1.12447C8.60984 1.27539 8.91528 1.48381 9.18119 1.75332C9.44711 2.02283 9.65193 2.33186 9.79926 2.68402C9.943 3.03618 10.0185 3.40271 10.0221 3.7872C10.0256 4.16811 9.96097 4.53464 9.82082 4.89039C9.68068 5.24614 9.48304 5.55877 9.22072 5.83546L5.59494 9.51873C5.32184 9.78105 5.01281 9.98228 4.66065 10.126C4.31209 10.2662 3.94915 10.3344 3.57184 10.3308C3.19812 10.3273 2.83519 10.2518 2.48663 10.1009C2.14166 9.95354 1.83621 9.74512 1.5703 9.47561C1.30439 9.2061 1.09597 8.89347 0.952229 8.54132C0.804899 8.18916 0.729436 7.82263 0.725843 7.44173C0.722249 7.06082 0.790524 6.69429 0.930669 6.33854C1.06722 5.98279 1.26845 5.66657 1.52718 5.39347Z" fill="#B8B8B8"/>
</g>
<mask id="mask2_3702_4808" style="mask-type:luminance" maskUnits="userSpaceOnUse" x="14" y="14" width="24" height="25">
<path d="M14.3091 14.5459H37.3071V38.1188H14.3091V14.5459Z" fill="white"/>
</mask>
<g mask="url(#mask2_3702_4808)">
<path d="M36.3407 19.889L19.297 37.195C19.0275 37.4573 18.7149 37.6622 18.3663 37.8023C18.0178 37.9425 17.6548 38.0107 17.2775 38.0071C16.9002 38.0035 16.5409 37.9281 16.1923 37.7772C15.8473 37.6298 15.5383 37.4214 15.2724 37.1519C15.0065 36.8824 14.8017 36.5698 14.6543 36.2176C14.5106 35.869 14.4351 35.4989 14.4315 35.118C14.4279 34.7371 14.4962 34.3706 14.6328 34.0148C14.7729 33.6591 14.9705 33.3429 15.2329 33.0698L32.2729 15.7638C32.546 15.4979 32.8551 15.2966 33.2072 15.1565C33.5558 15.0163 33.9187 14.9445 34.296 14.9517C34.6697 14.9553 35.0327 15.0307 35.3812 15.178C35.7262 15.3254 36.0317 15.5338 36.2976 15.8033C36.5635 16.0728 36.7719 16.3854 36.9156 16.7376C37.063 17.0898 37.1384 17.4563 37.142 17.8372C37.1456 18.2181 37.0773 18.5882 36.9372 18.944C36.8007 19.2961 36.5994 19.6123 36.3407 19.889Z" fill="#B8B8B8"/>
</g>
<mask id="mask3_3702_4808" style="mask-type:luminance" maskUnits="userSpaceOnUse" x="0" y="0" width="24" height="25">
<path d="M0.510254 0.861816H23.5082V24.6647H0.510254V0.861816Z" fill="white"/>
</mask>
<g mask="url(#mask3_3702_4808)">
<path d="M1.47322 19.0912L18.5133 1.80315C18.7864 1.53723 19.0954 1.336 19.444 1.19227C19.7961 1.05212 20.1591 0.983845 20.5328 0.987439C20.9101 0.991033 21.273 1.07009 21.618 1.21742C21.9666 1.36475 22.272 1.57317 22.5379 1.84268C22.8038 2.11218 23.0087 2.42481 23.156 2.77697C23.2997 3.12913 23.3752 3.49566 23.3788 3.87656C23.3824 4.25746 23.3177 4.62759 23.1776 4.97974C23.0374 5.33549 22.8398 5.65172 22.5775 5.92482L5.53739 23.2164C5.26789 23.5003 4.95885 23.7195 4.6031 23.874C4.24735 24.0285 3.87723 24.1076 3.49273 24.1112C3.10464 24.1184 2.73452 24.0465 2.37517 23.8956C2.01942 23.7482 1.7032 23.5362 1.4301 23.2595C1.157 22.9828 0.948579 22.663 0.801248 22.3001C0.653918 21.9372 0.582048 21.5598 0.589236 21.1646C0.592829 20.7729 0.671884 20.3992 0.822809 20.0398C0.977326 19.6769 1.19293 19.3643 1.47322 19.0912Z" fill="#B8B8B8"/>
</g>
<mask id="mask4_3702_4808" style="mask-type:luminance" maskUnits="userSpaceOnUse" x="0" y="0" width="38" height="39">
<path d="M0.510254 0.861816H37.307V38.1185H0.510254V0.861816Z" fill="white"/>
</mask>
<g mask="url(#mask4_3702_4808)">
<path d="M37.2352 4.29781V8.87584C37.2352 9.18128 37.1885 9.47953 37.0915 9.76701C36.9944 10.0545 36.8543 10.3204 36.671 10.5612C36.4842 10.8019 36.2686 11.0067 36.017 11.1756C35.7691 11.3445 35.496 11.4667 35.2049 11.5422C34.9138 11.6176 34.6192 11.6464 34.3209 11.6248C34.0191 11.5997 33.7316 11.5278 33.4549 11.4092C33.1818 11.2906 32.9303 11.1289 32.7075 10.9241C32.4847 10.7193 32.2978 10.4821 32.1541 10.2162L5.7675 36.9441C5.49799 37.2065 5.18536 37.4113 4.8368 37.5514C4.48824 37.6916 4.1253 37.7599 3.74799 37.7563C3.37068 37.7527 3.01134 37.6772 2.66277 37.5299C2.3178 37.3789 2.00877 37.1705 1.74285 36.901C1.47694 36.6315 1.27211 36.3189 1.12838 35.9703C0.981046 35.6182 0.905584 35.2516 0.90199 34.8671C0.898397 34.4862 0.966673 34.1197 1.10322 33.764C1.24337 33.4082 1.44101 33.092 1.70333 32.8189L27.9498 6.20592C27.6587 6.08374 27.3964 5.91485 27.1664 5.69924C26.9328 5.48723 26.7424 5.23928 26.5914 4.9554C26.4441 4.67511 26.3471 4.37686 26.304 4.06064C26.2573 3.74442 26.2644 3.43179 26.3255 3.11557C26.3902 2.80294 26.5016 2.51187 26.6633 2.23877C26.8286 1.96567 27.0298 1.7285 27.2742 1.52727C27.5186 1.32604 27.7917 1.17152 28.0863 1.06372C28.3846 0.959506 28.69 0.909198 29.0026 0.909198H34.0083C34.2311 0.876857 34.4575 0.86967 34.6839 0.891231C34.9102 0.912792 35.1294 0.959506 35.345 1.03497C35.5571 1.10684 35.7619 1.20745 35.9523 1.32963C36.1464 1.4554 36.3189 1.59914 36.477 1.76443C36.6351 1.92973 36.7716 2.113 36.8866 2.31064C37.0016 2.50827 37.0915 2.7167 37.1561 2.93949C37.2244 3.15869 37.2639 3.38148 37.2747 3.61146C37.2891 3.84144 37.2747 4.07142 37.2352 4.29781Z" fill="#B8B8B8"/>
</g>
<path d="M55.6623 38.1323V3.34424H48.0586V38.1323H55.6623Z" fill="#B8B8B8"/>
<path d="M76.3869 12.0391C71.6148 12.0391 68.8335 15.6181 68.0861 17.4077V12.287H60.8309V38.131H68.0861V22.8733C68.3376 21.2347 70.0768 18.0545 73.7026 18.0545C76.2863 18.0545 78.3238 19.3948 78.3238 22.9739V38.131H85.5825V22.575C85.5825 14.7234 81.7052 12.0391 76.3869 12.0391Z" fill="#B8B8B8"/>
<path d="M106.952 38.1316L116.891 12.2876H109.636L102.974 30.8764L96.2652 12.2876H89.01L98.9494 38.1316H106.952Z" fill="#B8B8B8"/>
<path d="M144.176 26.1541C144.176 15.7187 138.262 12.0391 131.851 12.0391C125.886 12.0391 119.076 15.7187 119.076 25.3599C119.076 34.8502 125.936 38.4795 131.801 38.4795C138.064 38.4795 141.988 35.9426 143.479 30.7249H137.169C136.422 32.2162 134.93 33.111 132.199 33.111C128.671 33.111 126.633 31.4723 126.083 27.4944H144.126C144.176 27.0488 144.176 26.65 144.176 26.1541ZM126.134 23.0242C126.68 19.2475 128.671 17.4077 131.851 17.4077C135.279 17.4077 137.169 19.6428 137.266 23.0242H126.134Z" fill="#B8B8B8"/>
<path d="M162.413 12.0403C158.787 12.0403 156.204 14.0777 155.356 15.569V3.0459H148.1V38.1322H155.356V34.2046C155.356 34.8011 157.296 38.4807 162.266 38.4807C167.085 38.4807 173.794 34.9017 173.794 25.2102C173.794 15.7199 167.135 12.0403 162.413 12.0403ZM160.825 32.6163C157.645 32.6163 155.057 30.2302 155.057 25.2102C155.057 20.2405 157.645 17.9047 160.825 17.9047C164.152 17.9047 166.786 20.0931 166.786 25.2102C166.786 30.3776 164.152 32.6163 160.825 32.6163Z" fill="#B8B8B8"/>
<path d="M177.72 2.89502V8.41453H184.975V2.89502H177.72ZM177.72 12.2883V38.1322H184.975V12.2883H177.72Z" fill="#B8B8B8"/>
<path d="M202.47 32.8133C200.382 32.8133 199.689 31.7712 199.689 30.1794V17.9545H204.906V12.2877H199.689V5.82666H192.43V12.2877H188.157V17.9545H192.43V30.9735C192.43 37.1866 195.959 38.4299 200.433 38.4299C202.369 38.4299 204.062 38.1316 205.154 37.686V32.4648C204.062 32.7163 203.217 32.8133 202.47 32.8133Z" fill="#B8B8B8"/>
<mask id="mask5_3702_4808" style="mask-type:luminance" maskUnits="userSpaceOnUse" x="207" y="0" width="6" height="8">
<path d="M207.618 0.5H212.157V7.39939H207.618V0.5Z" fill="white"/>
</mask>
<g mask="url(#mask5_3702_4808)">
<path d="M209.799 7.38152C209.408 7.38152 209.009 7.30247 208.642 7.15873C208.261 7.02937 207.938 6.78142 207.69 6.43286C207.615 6.32505 207.633 6.17413 207.73 6.08789L208.373 5.52731C208.43 5.4806 208.499 5.45904 208.571 5.46982C208.639 5.4806 208.703 5.52013 208.739 5.58121C208.862 5.76807 208.998 5.89025 209.181 5.9729C209.375 6.06273 209.566 6.10586 209.774 6.10586C209.875 6.10586 209.99 6.0807 210.08 6.04477C210.224 5.99446 210.31 5.95852 210.367 5.89744C210.382 5.88306 210.4 5.87228 210.414 5.8615C210.486 5.81838 210.533 5.76089 210.604 5.6423C210.644 5.57043 210.666 5.46622 210.666 5.34045C210.666 5.13922 210.59 5.04939 210.533 4.99908C210.4 4.88409 210.252 4.80144 210.069 4.74035C209.846 4.66489 209.627 4.58943 209.379 4.51396C209.059 4.41335 208.818 4.29836 208.621 4.15103C208.394 4.01807 208.2 3.81684 208.006 3.51499C207.996 3.50062 207.988 3.48265 207.981 3.46468C207.87 3.16643 207.816 2.82505 207.816 2.45852C207.816 2.22135 207.888 1.99497 207.956 1.80452C208.039 1.58172 208.172 1.36971 208.359 1.17926C208.538 0.9924 208.797 0.823508 209.063 0.715705C209.383 0.582748 209.713 0.518066 210.073 0.518066C210.378 0.518066 210.691 0.561187 211.05 0.654617C211.409 0.776793 211.7 0.985213 211.948 1.30143C212.031 1.40564 212.02 1.55657 211.927 1.65L211.28 2.26088C211.226 2.31119 211.154 2.33634 211.082 2.32916C211.01 2.31838 210.946 2.27885 210.906 2.21417C210.834 2.10277 210.719 2.00215 210.568 1.91232C210.439 1.83686 210.259 1.79374 210.073 1.79374C209.868 1.79374 209.738 1.8153 209.638 1.8692L209.57 1.90154C209.483 1.94825 209.404 1.98419 209.379 2.02372C209.372 2.0345 209.361 2.04168 209.354 2.05246C209.289 2.11714 209.253 2.18542 209.214 2.26448C209.196 2.34353 209.178 2.41899 209.178 2.48367C209.178 2.60944 209.203 2.77834 209.314 2.87177C209.433 2.97597 209.584 3.09096 209.778 3.15924C210.001 3.2347 210.22 3.31016 210.464 3.38563C210.723 3.46468 210.993 3.54733 211.219 3.69466C211.463 3.83481 211.661 4.01088 211.83 4.24086C212.017 4.496 212.103 4.82659 212.103 5.2614C212.103 5.61356 212.035 5.92978 211.898 6.17772C211.79 6.43286 211.607 6.67362 211.384 6.8461C211.19 7.01499 210.939 7.15873 210.662 7.24138C210.367 7.33481 210.076 7.38152 209.799 7.38152Z" fill="#B8B8B8"/>
</g>
<mask id="mask6_3702_4808" style="mask-type:luminance" maskUnits="userSpaceOnUse" x="213" y="0" width="8" height="8">
<path d="M213.076 0.5H220.037V7.2844H213.076V0.5Z" fill="white"/>
</mask>
<g mask="url(#mask6_3702_4808)">
<path d="M219.789 7.22727H218.995C218.858 7.22727 218.747 7.11228 218.747 6.97214V3.23138L217.216 7.06916C217.18 7.16619 217.087 7.22727 216.986 7.22727H216.465C216.368 7.22727 216.275 7.16619 216.239 7.06916L214.708 3.23138V6.97214C214.708 7.11228 214.596 7.22727 214.46 7.22727H213.666C213.529 7.22727 213.418 7.11228 213.418 6.97214V0.927985C213.418 0.784248 213.529 0.672852 213.666 0.672852H214.855C214.956 0.672852 215.046 0.733939 215.085 0.827369L216.727 4.88435L218.37 0.827369C218.409 0.733939 218.499 0.672852 218.6 0.672852H219.789C219.926 0.672852 220.037 0.784248 220.037 0.927985V6.97214C220.037 7.11228 219.926 7.22727 219.789 7.22727Z" fill="#B8B8B8"/>
</g>
</svg>
