<svg width="115" height="29" viewBox="0 0 115 29" fill="none" xmlns="http://www.w3.org/2000/svg">
<g clip-path="url(#clip0_4508_60084)">
<path d="M20.6609 24.4957H10.2109L20.6609 14.0903V24.4957Z" fill="#B8B8B8"/>
<path d="M20.6615 24.4953L15.4365 19.2586L16.3865 18.3745L20.6615 24.4953Z" fill="#B8B8B8"/>
<path d="M20.6613 24.4957H-0.0351562V3.61694L20.7291 24.4957H20.6613Z" fill="#B8B8B8"/>
<path d="M113.897 10.2817V13.5462C113.558 13.5462 113.354 13.4782 113.083 13.4782C111.726 13.4782 110.64 13.8862 109.894 14.7023C109.147 15.5184 108.74 16.6066 108.74 18.1028V25.3117H105.279V10.2817H108.604V12.594C109.554 11.0978 111.319 10.2817 113.897 10.2817Z" fill="#B8B8B8"/>
<path d="M102.904 18.8507H91.5037C91.7073 19.9389 92.1823 20.755 93.0644 21.4351C93.8787 22.0471 94.9644 22.3872 96.1858 22.3872C97.4073 22.3872 99.1037 21.8431 100.122 20.755L102.089 22.7272C101.411 23.5433 100.529 24.2234 99.5109 24.6315C98.493 25.0395 97.4073 25.2436 96.1858 25.2436C94.9644 25.2436 93.2001 24.9035 91.9787 24.2914C90.7573 23.6794 89.8073 22.7952 89.1287 21.6391C88.4501 20.4829 88.1787 19.1908 88.1787 17.7626C88.1787 16.3344 88.518 15.0422 89.1287 13.9541C89.8073 12.7979 90.6894 11.9138 91.843 11.3017C92.9966 10.6897 94.2858 10.3496 95.7108 10.3496C97.1358 10.3496 98.4251 10.6897 99.5109 11.3017C100.597 11.9138 101.479 12.7979 102.089 13.9541C102.7 15.1102 103.039 16.4024 103.039 17.8986C103.039 19.3948 103.039 18.5107 103.039 18.9187L102.904 18.8507ZM92.8608 14.0221C92.1144 14.7022 91.6394 15.5183 91.5037 16.6064H99.7144C99.5787 15.5183 99.1716 14.7022 98.3573 14.0221C97.6109 13.342 96.6609 13.07 95.5751 13.07C94.4894 13.07 93.6073 13.41 92.8608 14.0221Z" fill="#B8B8B8"/>
<path d="M88.3145 10.2817L81.8681 25.3117H78.5431L72.0967 10.2817H75.6252L80.3074 21.2992L85.1253 10.2817H88.3145Z" fill="#B8B8B8"/>
<path d="M72.3686 18.8507H60.9686C61.1721 19.9389 61.6471 20.755 62.5293 21.4351C63.3436 22.0471 64.4293 22.3872 65.6507 22.3872C66.8721 22.3872 68.5686 21.8431 69.5864 20.755L71.5543 22.7272C70.8757 23.5433 69.9936 24.2234 68.9757 24.6315C67.9578 25.0395 66.8721 25.2436 65.6507 25.2436C64.4293 25.2436 62.665 24.9035 61.4436 24.2914C60.2221 23.6794 59.2721 22.7952 58.5936 21.6391C57.915 20.4829 57.6436 19.1908 57.6436 17.7626C57.6436 16.3344 57.9828 15.0422 58.5936 13.9541C59.2721 12.7979 60.1543 11.9138 61.3078 11.3017C62.4614 10.6897 63.7507 10.3496 65.1757 10.3496C66.6007 10.3496 67.89 10.6897 68.9757 11.3017C70.0614 11.9138 70.9436 12.7979 71.5543 13.9541C72.165 15.1102 72.5043 16.4024 72.5043 17.8986C72.5043 19.3948 72.5043 18.5107 72.5043 18.9187L72.3686 18.8507ZM62.3257 14.0221C61.5793 14.7022 61.1043 15.5183 60.9686 16.6064H69.1793C69.0436 15.5183 68.6364 14.7022 67.8221 14.0221C67.0757 13.342 66.1257 13.07 65.04 13.07C63.9543 13.07 63.0721 13.41 62.3257 14.0221Z" fill="#B8B8B8"/>
<path d="M51.0615 4.70459H54.4544V25.2433H51.0615V4.70459Z" fill="#B8B8B8"/>
<path d="M44.0039 10.2817H48.211L38.9825 19.667L36.8789 17.5587L44.0039 10.3497V10.2817Z" fill="#B8B8B8"/>
<path d="M36.9473 17.4222L39.0508 15.314L48.8901 25.2433H44.683L36.9473 17.4222Z" fill="#B8B8B8"/>
<path d="M37.4222 4.70435H34.0293V25.243H37.4222V4.70435Z" fill="#B8B8B8"/>
</g>
<defs>
<clipPath id="clip0_4508_60084">
<rect width="114" height="28" fill="white" transform="translate(0.323242 0.523926)"/>
</clipPath>
</defs>
</svg>
