<svg width="203" height="46" viewBox="0 0 203 46" fill="none" xmlns="http://www.w3.org/2000/svg">
<path d="M44.6291 11.882C43.497 9.7027 41.911 7.79195 39.9783 6.27904C41.4167 6.47886 42.7787 7.04876 43.9314 7.93322C43.2809 6.44774 42.3446 5.10521 41.1759 3.98208C40.0072 2.85907 38.6291 1.9774 37.1202 1.3878C35.6113 0.798085 34.0012 0.511734 32.382 0.545093C30.7626 0.578564 29.1656 0.931073 27.6823 1.58258C26.199 2.23398 24.8584 3.17172 23.7368 4.34209C22.6154 5.51234 21.7352 6.89249 21.1463 8.40349C20.5574 9.9145 20.2715 11.5269 20.3049 13.1486C20.3383 14.7703 20.6903 16.3695 21.3408 17.855C21.6041 18.4503 21.8588 19.0484 22.1235 19.6437C23.4129 22.5522 24.9103 25.3969 25.7199 28.4755C26.3639 30.9233 26.5691 33.5186 25.8615 36.0586C25.2953 38.0713 24.1517 40.0486 22.3613 40.9373C22.0907 41.0731 21.8059 41.1781 21.5121 41.2505C21.2337 41.3159 20.9488 41.3492 20.6629 41.3497C21.0405 37.2528 20.5177 33.1226 19.1313 29.2496C17.7449 25.3765 15.5285 21.8545 12.6377 18.9307C12.9218 16.9518 12.4342 14.9393 11.2761 13.3107L8.56151 17.03C7.31156 16.9675 6.0616 17.1533 4.88363 17.5769C3.70576 18.0004 2.62316 18.6532 1.6984 19.4977C1.06682 19.781 0.49143 20.1762 0 20.6643L1.49321 20.4601L1.66302 20.7436L0.635501 22.1511C0.757966 22.3582 0.893081 22.5575 1.04029 22.7478C1.36 23.1698 1.78314 23.5018 2.26886 23.7116C3.71774 24.3641 5.26703 24.7643 6.85035 24.8952C6.48139 25.7456 6.15541 26.6102 5.87231 27.489C6.94517 27.0141 8.35912 26.8143 9.50419 26.7633L11.2705 22.3439C11.7998 22.9462 12.2966 23.5699 12.7637 24.2205L10.7822 26.759C11.7388 26.7838 12.689 26.9221 13.6129 27.1715C14.0753 27.2923 14.5205 27.4713 14.9377 27.7045C15.2902 27.91 15.7869 28.2813 15.7869 28.7803C14.5768 30.4371 11.947 31.2167 10.4086 31.5669C10.2761 31.5954 10.1531 31.6571 10.0509 31.7461C9.94871 31.8351 9.87069 31.9485 9.82412 32.0759C9.77744 32.2031 9.76378 32.3403 9.78427 32.4743C9.80486 32.6084 9.85893 32.735 9.94143 32.8424C10.0984 33.0513 10.3066 33.2159 10.5458 33.3201C10.7871 33.4282 11.0384 33.5123 11.2959 33.5711C12.7905 33.8988 14.3444 33.8319 15.8053 33.3769C15.7883 33.5909 15.7671 33.802 15.7445 34.019C15.6356 35.0432 15.2856 36.027 14.7231 36.8895C14.1607 37.7519 13.4018 38.4684 12.509 38.9798L10.1906 40.3094L7.87508 38.9854C6.9764 38.4826 6.21597 37.7648 5.66141 36.8962C5.61898 36.8324 5.5779 36.7673 5.53827 36.702C5.64786 38.9205 6.02186 41.1179 6.65221 43.2476H4.60276C4.39264 43.2476 4.18454 43.2891 3.99032 43.3697C3.79621 43.4503 3.6199 43.5684 3.47135 43.7173C3.32281 43.866 3.20504 44.0428 3.12466 44.2373C3.0444 44.4318 3.00321 44.6402 3.00343 44.8507V45.4573H10.1523C10.566 44.6811 11.1998 44.0448 11.974 43.6288C12.4371 43.3735 12.9583 43.2422 13.487 43.2476H14.5018C14.2917 43.2476 14.0836 43.2891 13.8894 43.3697C13.6952 43.4503 13.5189 43.5684 13.3704 43.7173C13.2218 43.866 13.104 44.0428 13.0238 44.2373C12.9434 44.4318 12.9022 44.6402 12.9024 44.8507V45.4573H20.677C21.631 45.4564 22.5824 45.3576 23.5162 45.1624C24.7412 44.8964 25.9267 44.4729 27.0433 43.9024C29.3942 42.7295 31.4254 41.0022 32.9623 38.8692C35.425 35.3939 36.2998 30.9007 36.1823 26.5195C36.0209 20.5098 33.9913 14.7069 30.7134 9.87924C33.5596 11.4959 35.8839 13.8954 37.411 16.7937C38.938 19.6919 39.604 22.9677 39.3301 26.2332C41.4731 24.5835 43.1074 22.3613 44.0449 19.8224C44.9824 17.2835 45.1849 14.5311 44.6291 11.882ZM6.56579 21.0724C6.30743 21.0724 6.05488 20.9957 5.84007 20.852C5.62525 20.7082 5.45778 20.5039 5.35894 20.2649C5.25998 20.0258 5.23412 19.7627 5.28461 19.5089C5.33498 19.2551 5.45935 19.0221 5.64215 18.8392C5.82484 18.6561 6.05757 18.5315 6.31101 18.4811C6.56445 18.4306 6.82707 18.4565 7.06573 18.5555C7.3045 18.6546 7.50847 18.8223 7.65209 19.0374C7.7956 19.2525 7.87217 19.5054 7.87217 19.7641C7.87183 20.1111 7.73414 20.4436 7.48921 20.6889C7.24428 20.9342 6.91226 21.0721 6.56579 21.0724Z" fill="black"/>
<path d="M44.6291 11.882C43.497 9.7027 41.911 7.79195 39.9783 6.27904C41.4167 6.47886 42.7787 7.04876 43.9314 7.93322C43.2809 6.44774 42.3446 5.10521 41.1759 3.98208C40.0072 2.85907 38.6291 1.9774 37.1202 1.3878C35.6113 0.798085 34.0012 0.511734 32.382 0.545093C30.7626 0.578564 29.1656 0.931073 27.6823 1.58258C26.199 2.23398 24.8584 3.17172 23.7368 4.34209C22.6154 5.51234 21.7352 6.89249 21.1463 8.40349C20.5574 9.9145 20.2715 11.5269 20.3049 13.1486C20.3383 14.7703 20.6903 16.3695 21.3408 17.855C21.6041 18.4503 21.8588 19.0484 22.1235 19.6437C23.4129 22.5522 24.9103 25.3969 25.7199 28.4755C26.3639 30.9233 26.5691 33.5186 25.8615 36.0586C25.2953 38.0713 24.1517 40.0486 22.3613 40.9373C22.0907 41.0731 21.8059 41.1781 21.5121 41.2505C21.2337 41.3159 20.9488 41.3492 20.6629 41.3497C21.0405 37.2528 20.5177 33.1226 19.1313 29.2496C17.7449 25.3765 15.5285 21.8545 12.6377 18.9307C12.9218 16.9518 12.4342 14.9393 11.2761 13.3107L8.56151 17.03C7.31156 16.9675 6.0616 17.1533 4.88363 17.5769C3.70576 18.0004 2.62316 18.6532 1.6984 19.4977C1.06682 19.781 0.49143 20.1762 0 20.6643L1.49321 20.4601L1.66302 20.7436L0.635501 22.1511C0.757966 22.3582 0.893081 22.5575 1.04029 22.7478C1.36 23.1698 1.78314 23.5018 2.26886 23.7116C3.71774 24.3641 5.26703 24.7643 6.85035 24.8952C6.48139 25.7456 6.15541 26.6102 5.87231 27.489C6.94517 27.0141 8.35912 26.8143 9.50419 26.7633L11.2705 22.3439C11.7998 22.9462 12.2966 23.5699 12.7637 24.2205L10.7822 26.759C11.7388 26.7838 12.689 26.9221 13.6129 27.1715C14.0753 27.2923 14.5205 27.4713 14.9377 27.7045C15.2902 27.91 15.7869 28.2813 15.7869 28.7803C14.5768 30.4371 11.947 31.2167 10.4086 31.5669C10.2761 31.5954 10.1531 31.6571 10.0509 31.7461C9.94871 31.8351 9.87069 31.9485 9.82412 32.0759C9.77744 32.2031 9.76378 32.3403 9.78427 32.4743C9.80486 32.6084 9.85893 32.735 9.94143 32.8424C10.0984 33.0513 10.3066 33.2159 10.5458 33.3201C10.7871 33.4282 11.0384 33.5123 11.2959 33.5711C12.7905 33.8988 14.3444 33.8319 15.8053 33.3769C15.7883 33.5909 15.7671 33.802 15.7445 34.019C15.6356 35.0432 15.2856 36.027 14.7231 36.8895C14.1607 37.7519 13.4018 38.4684 12.509 38.9798L10.1906 40.3094L7.87508 38.9854C6.9764 38.4826 6.21597 37.7648 5.66141 36.8962C5.61898 36.8324 5.5779 36.7673 5.53827 36.702C5.64786 38.9205 6.02186 41.1179 6.65221 43.2476H4.60276C4.39264 43.2476 4.18454 43.2891 3.99032 43.3697C3.79621 43.4503 3.6199 43.5684 3.47135 43.7173C3.32281 43.866 3.20504 44.0428 3.12466 44.2373C3.0444 44.4318 3.00321 44.6402 3.00343 44.8507V45.4573H10.1523C10.566 44.6811 11.1998 44.0448 11.974 43.6288C12.4371 43.3735 12.9583 43.2422 13.487 43.2476H14.5018C14.2917 43.2476 14.0836 43.2891 13.8894 43.3697C13.6952 43.4503 13.5189 43.5684 13.3704 43.7173C13.2218 43.866 13.104 44.0428 13.0238 44.2373C12.9434 44.4318 12.9022 44.6402 12.9024 44.8507V45.4573H20.677C21.631 45.4564 22.5824 45.3576 23.5162 45.1624C24.7412 44.8964 25.9267 44.4729 27.0433 43.9024C29.3942 42.7295 31.4254 41.0022 32.9623 38.8692C35.425 35.3939 36.2998 30.9007 36.1823 26.5195C36.0209 20.5098 33.9913 14.7069 30.7134 9.87924C33.5596 11.4959 35.8839 13.8954 37.411 16.7937C38.938 19.6919 39.604 22.9677 39.3301 26.2332C41.4731 24.5835 43.1074 22.3613 44.0449 19.8224C44.9824 17.2835 45.1849 14.5311 44.6291 11.882ZM6.56579 21.0724C6.30743 21.0724 6.05488 20.9957 5.84007 20.852C5.62525 20.7082 5.45778 20.5039 5.35894 20.2649C5.25998 20.0258 5.23412 19.7627 5.28461 19.5089C5.33498 19.2551 5.45935 19.0221 5.64215 18.8392C5.82484 18.6561 6.05757 18.5315 6.31101 18.4811C6.56445 18.4306 6.82707 18.4565 7.06573 18.5555C7.3045 18.6546 7.50847 18.8223 7.65209 19.0374C7.7956 19.2525 7.87217 19.5054 7.87217 19.7641C7.87183 20.1111 7.73414 20.4436 7.48921 20.6889C7.24428 20.9342 6.91226 21.0721 6.56579 21.0724Z" fill="white" fill-opacity="0.72"/>
<path d="M4.51212 30.1028C4.61018 30.2234 4.72067 30.3331 4.8419 30.4303C5.15456 30.6851 5.50024 30.8963 5.86954 31.0582C6.23514 31.2243 6.61385 31.3598 7.00173 31.4635C7.16438 31.5083 7.3089 31.6032 7.41469 31.7347C7.52047 31.8663 7.58238 32.0278 7.59145 32.1965C7.60051 32.3651 7.55641 32.5325 7.46528 32.6746C7.37416 32.8168 7.24073 32.9266 7.0839 32.9886C6.37586 33.2715 5.62483 33.4316 4.86317 33.462C4.58387 33.4745 4.30569 33.4194 4.05214 33.3016C3.79848 33.1839 3.57683 33.0069 3.40578 32.7854C3.23473 32.5639 3.11932 32.3046 3.06928 32.0292C3.01913 31.7538 3.03592 31.4703 3.11798 31.2027C3.37556 30.3629 3.88199 29.6214 4.57021 29.0767C4.54279 29.4197 4.52354 29.7618 4.51212 30.1028Z" fill="black"/>
<path d="M4.51212 30.1028C4.61018 30.2234 4.72067 30.3331 4.8419 30.4303C5.15456 30.6851 5.50024 30.8963 5.86954 31.0582C6.23514 31.2243 6.61385 31.3598 7.00173 31.4635C7.16438 31.5083 7.3089 31.6032 7.41469 31.7347C7.52047 31.8663 7.58238 32.0278 7.59145 32.1965C7.60051 32.3651 7.55641 32.5325 7.46528 32.6746C7.37416 32.8168 7.24073 32.9266 7.0839 32.9886C6.37586 33.2715 5.62483 33.4316 4.86317 33.462C4.58387 33.4745 4.30569 33.4194 4.05214 33.3016C3.79848 33.1839 3.57683 33.0069 3.40578 32.7854C3.23473 32.5639 3.11932 32.3046 3.06928 32.0292C3.01913 31.7538 3.03592 31.4703 3.11798 31.2027C3.37556 30.3629 3.88199 29.6214 4.57021 29.0767C4.54279 29.4197 4.52354 29.7618 4.51212 30.1028Z" fill="white" fill-opacity="0.72"/>
<path d="M192.408 11.5396V7.01331H190.666V5.80029H195.656V7.01331H193.914V11.5396H192.408Z" fill="black"/>
<path d="M192.408 11.5396V7.01331H190.666V5.80029H195.656V7.01331H193.914V11.5396H192.408Z" fill="white" fill-opacity="0.72"/>
<path d="M196.883 11.5396V5.80029H198.185L200.066 10.0091H199.797L201.669 5.80029H202.98V11.5396H201.621V8.0227H201.971L200.343 11.5396H199.496L197.86 8.0227H198.234V11.5396H196.883Z" fill="black"/>
<path d="M196.883 11.5396V5.80029H198.185L200.066 10.0091H199.797L201.669 5.80029H202.98V11.5396H201.621V8.0227H201.971L200.343 11.5396H199.496L197.86 8.0227H198.234V11.5396H196.883Z" fill="white" fill-opacity="0.72"/>
<g clip-path="url(#clip0_3592_3512)">
<path d="M70.9527 39.9829L63.4057 30.073V39.9829H57.9358V17.5396H63.4057V27.3995L70.8901 17.5523H77.3174L68.6179 28.5465L77.6372 39.993L70.9527 39.9829Z" fill="black"/>
<path d="M70.9527 39.9829L63.4057 30.073V39.9829H57.9358V17.5396H63.4057V27.3995L70.8901 17.5523H77.3174L68.6179 28.5465L77.6372 39.993L70.9527 39.9829Z" fill="white" fill-opacity="0.72"/>
<path d="M87.9341 17.5396V30.9676C87.9341 32.3104 88.2676 33.3439 88.934 34.0684C89.6007 34.7932 90.5666 35.1521 91.8314 35.1454C93.1115 35.1454 94.0923 34.7831 94.7739 34.0586C95.4554 33.3339 95.7963 32.3003 95.7963 30.9576V17.5396H101.266V30.9353C101.266 32.9342 100.839 34.6282 99.9861 36.0175C99.1666 37.3696 97.9728 38.4554 96.5487 39.1434C95.0469 39.8596 93.4004 40.2204 91.7364 40.1978C90.0937 40.2276 88.4669 39.8716 86.9867 39.1583C85.5984 38.4707 84.448 37.3828 83.6844 36.035C82.8744 34.6392 82.4695 32.9392 82.4695 30.9353V17.5396H87.9341Z" fill="black"/>
<path d="M87.9341 17.5396V30.9676C87.9341 32.3104 88.2676 33.3439 88.934 34.0684C89.6007 34.7932 90.5666 35.1521 91.8314 35.1454C93.1115 35.1454 94.0923 34.7831 94.7739 34.0586C95.4554 33.3339 95.7963 32.3003 95.7963 30.9576V17.5396H101.266V30.9353C101.266 32.9342 100.839 34.6282 99.9861 36.0175C99.1666 37.3696 97.9728 38.4554 96.5487 39.1434C95.0469 39.8596 93.4004 40.2204 91.7364 40.1978C90.0937 40.2276 88.4669 39.8716 86.9867 39.1583C85.5984 38.4707 84.448 37.3828 83.6844 36.035C82.8744 34.6392 82.4695 32.9392 82.4695 30.9353V17.5396H87.9341Z" fill="white" fill-opacity="0.72"/>
<path d="M133.959 17.5396V39.9829H128.49V26.5224L123.467 39.9829H119.055L114 26.49V39.9829H108.533V17.5396H114.993L121.295 33.0767L127.53 17.5396H133.959Z" fill="black"/>
<path d="M133.959 17.5396V39.9829H128.49V26.5224L123.467 39.9829H119.055L114 26.49V39.9829H108.533V17.5396H114.993L121.295 33.0767L127.53 17.5396H133.959Z" fill="white" fill-opacity="0.72"/>
<path d="M146.714 17.5396V30.9676C146.714 32.3104 147.047 33.3439 147.713 34.0684C148.38 34.7932 149.347 35.1521 150.616 35.1454C151.896 35.1454 152.877 34.7831 153.558 34.0586C154.24 33.3339 154.581 32.3003 154.581 30.9576V17.5396H160.05V30.9353C160.05 32.9342 159.624 34.6282 158.77 36.0175C157.951 37.3696 156.757 38.4554 155.333 39.1434C153.831 39.8601 152.185 40.2209 150.521 40.1978C148.878 40.2271 147.251 39.8711 145.771 39.1583C144.379 38.47 143.226 37.3792 142.461 36.0275C141.65 34.6315 141.244 32.9318 141.244 30.9276V17.5396H146.714Z" fill="black"/>
<path d="M146.714 17.5396V30.9676C146.714 32.3104 147.047 33.3439 147.713 34.0684C148.38 34.7932 149.347 35.1521 150.616 35.1454C151.896 35.1454 152.877 34.7831 153.558 34.0586C154.24 33.3339 154.581 32.3003 154.581 30.9576V17.5396H160.05V30.9353C160.05 32.9342 159.624 34.6282 158.77 36.0175C157.951 37.3696 156.757 38.4554 155.333 39.1434C153.831 39.8601 152.185 40.2209 150.521 40.1978C148.878 40.2271 147.251 39.8711 145.771 39.1583C144.379 38.47 143.226 37.3792 142.461 36.0275C141.65 34.6315 141.244 32.9318 141.244 30.9276V17.5396H146.714Z" fill="white" fill-opacity="0.72"/>
<path d="M172.787 35.7627H181.019V39.9829H167.317V17.5396H172.787V35.7627Z" fill="black"/>
<path d="M172.787 35.7627H181.019V39.9829H167.317V17.5396H172.787V35.7627Z" fill="white" fill-opacity="0.72"/>
<path d="M202.98 17.5396L195.208 32.5642V39.9829H189.738V32.5642L181.969 17.5396H188.179L192.528 26.9398L196.845 17.5396H202.98Z" fill="black"/>
<path d="M202.98 17.5396L195.208 32.5642V39.9829H189.738V32.5642L181.969 17.5396H188.179L192.528 26.9398L196.845 17.5396H202.98Z" fill="white" fill-opacity="0.72"/>
</g>
<defs>
<clipPath id="clip0_3592_3512">
<rect width="145.044" height="22.66" fill="white" transform="translate(57.9358 17.5396)"/>
</clipPath>
</defs>
</svg>
