<?xml version="1.0" encoding="UTF-8"?>
<svg id="Layer_1" xmlns="http://www.w3.org/2000/svg" version="1.1" viewBox="0 0 1920 1080">
  <!-- Generator: Adobe Illustrator 29.1.0, SVG Export Plug-In . SVG Version: 2.1.0 Build 142)  -->
  <defs>
    <style>
      .st0 {
        fill: #b6b6b6;
      }

      .st1 {
        fill: #b8b8b8;
      }

      .st2 {
        fill: #b8b8b8;
      }
    </style>
  </defs>
  <polygon class="st2" points="806.6 444.7 863.8 551 863.8 444.7 902.5 444.7 902.5 602.3 857.3 602.3 799.3 496 799.3 602.3 760.5 602.3 760.5 444.7 806.6 444.7"/>
  <polygon class="st2" points="1070.3 444.7 1127.4 551 1127.4 444.7 1166.1 444.7 1166.1 602.3 1121 602.3 1062.9 496 1062.9 602.3 1024.2 602.3 1024.2 444.7 1070.3 444.7"/>
  <polygon class="st2" points="471.1 444.7 471.1 505.2 531.9 505.2 531.9 444.7 572.5 444.7 572.5 602.3 531.9 602.3 531.9 536.4 471.1 536.4 471.1 602.3 430.6 602.3 430.6 444.7 471.1 444.7"/>
  <path class="st2" d="M388.1,452.1v33c-49-27.1-110.2-20.4-103.2,48.5,3.6,36,37.7,52.5,70,38.5v-30.2h-24v-27.5h62.7v76c-56.2,30.6-145.2,19.7-151.2-56.7-7-88.1,76.4-108.8,145.7-81.6Z"/>
  <path class="st2" d="M1569.9,604.1l57.4-157.4,46.9-.4,61.7,157.7h-42.4l-10.4-29.1-63.6.8-9,28.2h-40.6ZM1673.1,545.5c-6.5-17.3-10.8-39.6-18.3-56s-1.2-4.3-3.8-4.5l-20.3,60.5h42.4Z"/>
  <path class="st2" d="M1341.3,541.9l7.5,2.9c-1.7,8.4,2.6,43.2-1.9,47.6s-15.2,6.3-18.5,7.3c-68.8,20.5-137.3-5.9-131-86.2,5.9-74,88.7-84.9,145.7-61.3v33c-49.8-27.6-111.3-19.7-103,50.2,3.6,29.9,27.1,44.1,56,41.4,2.6-.2,10.5-1.5,12-2.7,4.1-3.1.7-25.8,1.8-32.1,9.7.9,21.3-.1,31.3,0Z"/>
  <path class="st2" d="M1448.2,446.6c35.4,3.6,94.3-11.5,119.8,19.3,18.5,22.3,12.9,60.6-13,75-4.3,2.4-20.7,8.4-24.8,8.4h-41.5v55h-40.6l.4-55.5c3.8-9.9,32.4-32.8,32-40.7s-2.9-6.4-3.9-6.4h-28.6v-55ZM1519.2,475.9c-8.7-1.5-21.2,1.1-30.4,0v44h30.4c1.5,0,10.5-5.1,12-6.9,10.7-12.2,4.5-34.2-12-37.1Z"/>
  <polygon class="st2" points="1874 446.6 1815.1 537.3 1815.1 604.1 1774.5 604.1 1774.5 539.1 1713.7 446.6 1757 446.6 1793.9 501.5 1830.7 446.6 1874 446.6"/>
  <polygon class="st2" points="740.3 444.7 740.3 475.9 686.8 475.9 686.8 602.3 646.2 602.3 646.2 475.9 594.6 475.9 594.6 444.7 740.3 444.7"/>
  <polygon class="st2" points="72.9 444.7 72.9 571.2 144.8 571.2 144.8 602.3 32.3 602.3 32.3 444.7 72.9 444.7"/>
  <rect class="st2" x="170.6" y="444.7" width="40.6" height="157.6"/>
  <rect class="st2" x="943.1" y="444.7" width="40.6" height="157.6"/>
  <path class="st2" d="M1446.3,505.2c8.7.1,20.6-1.1,28.6,0,5.7.8,1.9,6-.1,9.1-5.5,8.2-22.8,26.3-30.3,34.9s-1.6-.3-1.8,0c-.2-3.5-1.3-6.4-5.5-4.6-19.8,8.6-37.1,23.7-57.2,32.1,3.4-7.8,8.6-19.6,11.1-27.5s3.5-4.7,0-9.2c.2-.1-.5-2.9,1.8-4.5,14.7-10.4,36.3-15.8,48-30.3,1.8,0,3.7,0,5.5,0Z"/>
  <path class="st2" d="M1442.7,549.2c-29.6,33.7-59.1,67.6-89.6,100.6l-4.4-.7c-.3-2.9,0-5.5.9-8.3,5.4-18.9,22.1-45.1,30.5-64.1,20.1-8.4,37.4-23.5,57.2-32.1,4.2-1.8,5.3,1.1,5.5,4.6Z"/>
  <path class="st2" d="M1392.9,479.6c-2,8-4.5,10.3-7.4,16.5-2.5-3.8-10.3.9-13.3,2.4-14.4,7.2-38.3,20.5-51.9,29s-11.3,8.1-12.2,12.6h-3.7c-2.4-2.5-2.2-4.1-1.8-7.3,2.7-4.1,10.9-12.5,14.7-16.5,4.5-4.7,12.6-11.6,18.4-16.5,8.5-7,47.7-35.7,56.2-34.9,2.3.2,3.2,1.2,4.5,2.8-3.1,3.6-2.6,8-3.6,11.9Z"/>
  <path class="st2" d="M1385.5,496c-2.1,4.5-2.9,4.4,1.8,7.3s5,1.6,9.2,1.8c0,4.5-7.8,7.9-11.2,9.9-12.8,7.7-29,13.6-38.6,24.9-12.9,0-25.8,0-38.7,0,.9-4.5,8.7-10.3,12.2-12.6,13.6-8.6,37.5-21.9,51.9-29,2.9-1.5,10.8-6.2,13.3-2.4Z"/>
  <path class="st2" d="M1392.9,479.6c1-3.9.6-8.4,3.6-11.9-1.4-1.7-2.2-2.6-4.5-2.8-8.6-.8-47.8,27.9-56.2,34.9l78.7-87.7,3.3-.3,2.5,4.2-27.4,63.6Z"/>
  <path class="st1" d="M1317.3,516.2c-3.9,4-12.1,12.4-14.7,16.5-2.2,3.4-2.3,4.9-1.8,9.2h-14.7v-27.5l31.3,1.8Z"/>
  <path class="st2" d="M1440.8,505.2c-11.7,14.4-33.3,19.9-48,30.3-2.3,1.6-1.6,4.4-1.8,4.5-1.8,1.2-38.1,0-44.2,0,9.5-11.3,25.8-17.1,38.6-24.9,3.4-2,11.3-5.4,11.2-9.9,14.2.9,29.8-.1,44.2,0Z"/>
  <path class="st0" d="M1446.3,505.2c-1.8,0-3.7,0-5.5,0-14.4-.1-30.1.9-44.2,0-4.2-.3-4.9.8-9.2-1.8l59,1.8Z"/>
</svg>