<?xml version="1.0" encoding="UTF-8"?>
<svg id="Layer_1" xmlns="http://www.w3.org/2000/svg" version="1.1" viewBox="0 0 1841.7 238">
  <!-- Generator: Adobe Illustrator 29.1.0, SVG Export Plug-In . SVG Version: 2.1.0 Build 142)  -->
  <polygon points="774.3 32.9 831.5 139.2 831.5 32.9 870.2 32.9 870.2 190.5 825 190.5 767 84.2 767 190.5 728.2 190.5 728.2 32.9 774.3 32.9" fill="#b8b8b8"/>
  <polygon points="1038 32.9 1095.1 139.2 1095.1 32.9 1133.8 32.9 1133.8 190.5 1088.7 190.5 1030.6 84.2 1030.6 190.5 991.9 190.5 991.9 32.9 1038 32.9" fill="#b8b8b8"/>
  <polygon points="438.8 32.9 438.8 93.4 499.6 93.4 499.6 32.9 540.2 32.9 540.2 190.5 499.6 190.5 499.6 124.6 438.8 124.6 438.8 190.5 398.3 190.5 398.3 32.9 438.8 32.9" fill="#b8b8b8"/>
  <path d="M355.8,40.3v33c-49-27.1-110.2-20.4-103.2,48.5,3.6,36,37.7,52.5,70,38.5v-30.2h-24v-27.5h62.7v76c-56.2,30.6-145.2,19.7-151.2-56.7-7-88.1,76.4-108.8,145.7-81.6h0Z" fill="#b8b8b8"/>
  <path d="M1537.6,192.3l57.4-157.4,46.9-.4,61.7,157.7h-42.4l-10.4-29.1-63.6.8-9,28.2h-40.6v.2ZM1640.8,133.7c-6.5-17.3-10.8-39.6-18.3-56s-1.2-4.3-3.8-4.5l-20.3,60.5h42.4Z" fill="#b8b8b8"/>
  <path d="M1309,130.1l7.5,2.9c-1.7,8.4,2.6,43.2-1.9,47.6s-15.2,6.3-18.5,7.3c-68.8,20.5-137.3-5.9-131-86.2,5.9-74,88.7-84.9,145.7-61.3v33c-49.8-27.6-111.3-19.7-103,50.2,3.6,29.9,27.1,44.1,56,41.4,2.6-.2,10.5-1.5,12-2.7,4.1-3.1.7-25.8,1.8-32.1,9.7.9,21.3-.1,31.3,0l.1-.1Z" fill="#b8b8b8"/>
  <path d="M1415.9,34.8c35.4,3.6,94.3-11.5,119.8,19.3,18.5,22.3,12.9,60.6-13,75-4.3,2.4-20.7,8.4-24.8,8.4h-41.5v55h-40.6l.4-55.5c3.8-9.9,32.4-32.8,32-40.7s-2.9-6.4-3.9-6.4h-28.6v-55l.2-.1ZM1486.9,64.1c-8.7-1.5-21.2,1.1-30.4,0v44h30.4c1.5,0,10.5-5.1,12-6.9,10.7-12.2,4.5-34.2-12-37.1Z" fill="#b8b8b8"/>
  <polygon points="1841.7 34.8 1782.8 125.5 1782.8 192.3 1742.2 192.3 1742.2 127.3 1681.4 34.8 1724.7 34.8 1761.6 89.7 1798.4 34.8 1841.7 34.8" fill="#b8b8b8"/>
  <polygon points="708 32.9 708 64.1 654.5 64.1 654.5 190.5 613.9 190.5 613.9 64.1 562.3 64.1 562.3 32.9 708 32.9" fill="#b8b8b8"/>
  <polygon points="40.6 32.9 40.6 159.4 112.5 159.4 112.5 190.5 0 190.5 0 32.9 40.6 32.9" fill="#b8b8b8"/>
  <rect x="138.3" y="32.9" width="40.6" height="157.6" fill="#b8b8b8"/>
  <rect x="910.8" y="32.9" width="40.6" height="157.6" fill="#b8b8b8"/>
  <path d="M1414,93.4c8.7.1,20.6-1.1,28.6,0,5.7.8,1.9,6-.1,9.1-5.5,8.2-22.8,26.3-30.3,34.9s-1.6-.3-1.8,0c-.2-3.5-1.3-6.4-5.5-4.6-19.8,8.6-37.1,23.7-57.2,32.1,3.4-7.8,8.6-19.6,11.1-27.5s3.5-4.7,0-9.2c.2-.1-.5-2.9,1.8-4.5,14.7-10.4,36.3-15.8,48-30.3h5.5-.1Z" fill="#b8b8b8"/>
  <path d="M1410.4,137.4c-29.6,33.7-59.1,67.6-89.6,100.6l-4.4-.7c-.3-2.9,0-5.5.9-8.3,5.4-18.9,22.1-45.1,30.5-64.1,20.1-8.4,37.4-23.5,57.2-32.1,4.2-1.8,5.3,1.1,5.5,4.6h-.1Z" fill="#b8b8b8"/>
  <path d="M1360.6,67.8c-2,8-4.5,10.3-7.4,16.5-2.5-3.8-10.3.9-13.3,2.4-14.4,7.2-38.3,20.5-51.9,29s-11.3,8.1-12.2,12.6h-3.7c-2.4-2.5-2.2-4.1-1.8-7.3,2.7-4.1,10.9-12.5,14.7-16.5,4.5-4.7,12.6-11.6,18.4-16.5,8.5-7,47.7-35.7,56.2-34.9,2.3.2,3.2,1.2,4.5,2.8-3.1,3.6-2.6,8-3.6,11.9h.1Z" fill="#b8b8b8"/>
  <path d="M1353.2,84.2c-2.1,4.5-2.9,4.4,1.8,7.3s5,1.6,9.2,1.8c0,4.5-7.8,7.9-11.2,9.9-12.8,7.7-29,13.6-38.6,24.9h-38.7c.9-4.5,8.7-10.3,12.2-12.6,13.6-8.6,37.5-21.9,51.9-29,2.9-1.5,10.8-6.2,13.3-2.4l.1.1Z" fill="#b8b8b8"/>
  <path d="M1360.6,67.8c1-3.9.6-8.4,3.6-11.9-1.4-1.7-2.2-2.6-4.5-2.8-8.6-.8-47.8,27.9-56.2,34.9L1382.2.3l3.3-.3,2.5,4.2-27.4,63.6h0Z" fill="#b8b8b8"/>
  <path d="M1285,104.4c-3.9,4-12.1,12.4-14.7,16.5-2.2,3.4-2.3,4.9-1.8,9.2h-14.7v-27.5l31.3,1.8h-.1Z" fill="#b8b8b8"/>
  <path d="M1408.5,93.4c-11.7,14.4-33.3,19.9-48,30.3-2.3,1.6-1.6,4.4-1.8,4.5-1.8,1.2-38.1,0-44.2,0,9.5-11.3,25.8-17.1,38.6-24.9,3.4-2,11.3-5.4,11.2-9.9,14.2.9,29.8-.1,44.2,0h0Z" fill="#b8b8b8"/>
  <path d="M1414,93.4h-5.5c-14.4-.1-30.1.9-44.2,0-4.2-.3-4.9.8-9.2-1.8l59,1.8h-.1Z" fill="#b6b6b6"/>
</svg>