<svg width="168" height="28" viewBox="0 0 168 28" fill="none" xmlns="http://www.w3.org/2000/svg">
<g clip-path="url(#clip0_4748_18554)">
<path d="M70.6316 6.14551L75.8494 15.8422V6.14551H79.3796V20.5218H75.2565L69.9657 10.8251V20.5218H66.4264V6.14551H70.6316Z" fill="#B8B8B8"/>
<path d="M94.6863 6.14551L99.895 15.8422V6.14551H103.425V20.5218H99.3112L94.0113 10.8251V20.5218H90.4811V6.14551H94.6863Z" fill="#B8B8B8"/>
<path d="M40.0274 6.14551V11.6643H45.5736V6.14551H49.2771V20.5218H45.5736V14.5104H40.0274V20.5218H36.333V6.14551H40.0274Z" fill="#B8B8B8"/>
<path d="M32.4563 6.82092V9.83118C27.9866 7.35912 22.4039 7.97029 23.0424 14.2553C23.3708 17.5393 26.4814 19.0444 29.4278 17.7673V15.0125H27.2386V12.5039H32.958V19.4366C27.8315 22.228 19.7129 21.2337 19.1656 14.2645C18.527 6.22799 26.1348 4.33974 32.4563 6.82092Z" fill="#B8B8B8"/>
<path d="M140.26 20.686L145.496 6.32799L149.774 6.2915L155.402 20.6769H151.535L150.586 18.0224L144.784 18.0954L143.963 20.6678H140.26V20.686ZM149.674 15.3405C149.081 13.7624 148.688 11.7282 148.004 10.2322C147.32 8.7362 147.895 9.83996 147.658 9.82172L145.806 15.3405H149.674Z" fill="#B8B8B8"/>
<path d="M119.407 15.0134L120.091 15.278C119.936 16.0442 120.328 19.2187 119.918 19.62C119.507 20.0214 118.531 20.1947 118.23 20.2859C111.954 22.156 105.706 19.7477 106.28 12.4228C106.819 5.67251 114.372 4.67821 119.571 6.831V9.84126C115.028 7.32359 109.418 8.04423 110.176 14.4205C110.504 17.148 112.648 18.4433 115.284 18.197C115.521 18.1788 116.242 18.0602 116.379 17.9507C116.753 17.6679 116.442 15.5972 116.543 15.0226C117.428 15.1047 118.486 15.0134 119.398 15.0226L119.407 15.0134Z" fill="#B8B8B8"/>
<path d="M129.158 6.3193C132.388 6.64769 137.76 5.27027 140.087 8.07984C141.774 10.114 141.263 13.6078 138.901 14.9213C138.508 15.1403 137.012 15.6876 136.638 15.6876H132.853V20.7047H129.149L129.186 15.642C129.532 14.7389 132.141 12.65 132.105 11.9293C132.068 11.2087 131.84 11.3455 131.749 11.3455H129.14V6.32842L129.158 6.3193ZM135.635 8.99204C134.841 8.85521 133.701 9.09238 132.862 8.99204V13.0057H135.635C135.772 13.0057 136.593 12.5405 136.73 12.3763C137.706 11.2634 137.14 9.25658 135.635 8.99204Z" fill="#B8B8B8"/>
<path d="M168 6.31885L162.627 14.5925V20.686H158.923V14.7567L153.377 6.31885H157.327L160.693 11.3268L164.05 6.31885H168Z" fill="#B8B8B8"/>
<path d="M64.5837 6.14551V8.99157H59.7035V20.5218H55.9999V8.99157H51.293V6.14551H64.5837Z" fill="#B8B8B8"/>
<path d="M3.70353 6.14551V17.6848H10.2622V20.5218H0V6.14551H3.70353Z" fill="#B8B8B8"/>
<path d="M16.3193 6.14551H12.6157V20.5218H16.3193V6.14551Z" fill="#B8B8B8"/>
<path d="M86.7867 6.14551H83.0831V20.5218H86.7867V6.14551Z" fill="#B8B8B8"/>
<path d="M128.985 11.6647C129.779 11.6738 130.864 11.5644 131.594 11.6647C132.114 11.7377 131.767 12.212 131.585 12.4948C131.083 13.2428 129.505 14.8939 128.821 15.6784C128.137 16.4629 128.675 15.651 128.657 15.6784C128.639 15.3591 128.538 15.0946 128.155 15.2588C126.349 16.0433 124.771 17.4207 122.937 18.1869C123.247 17.4754 123.722 16.399 123.95 15.6784C124.178 14.9577 124.269 15.2497 123.95 14.8392C123.968 14.83 123.904 14.5746 124.114 14.4287C125.455 13.48 127.425 12.9874 128.493 11.6647H128.994H128.985Z" fill="#B8B8B8"/>
<path d="M128.657 15.6793C125.956 18.7534 123.265 21.8457 120.483 24.856L120.082 24.7921C120.055 24.5276 120.082 24.2904 120.164 24.035C120.657 22.311 122.18 19.921 122.946 18.1878C124.78 17.4216 126.358 16.0442 128.164 15.2597C128.547 15.0955 128.647 15.36 128.666 15.6793H128.657Z" fill="#B8B8B8"/>
<path d="M124.114 9.33022C123.932 10.06 123.703 10.2698 123.439 10.8354C123.211 10.4887 122.499 10.9174 122.226 11.0543C120.912 11.7111 118.732 12.9243 117.491 13.6997C116.251 14.475 116.461 14.4385 116.379 14.849H116.041C115.822 14.621 115.84 14.475 115.877 14.1831C116.123 13.8091 116.871 13.0429 117.218 12.678C117.628 12.2493 118.367 11.6198 118.896 11.1729C119.672 10.5343 123.247 7.91631 124.023 7.98929C124.233 8.00753 124.315 8.09875 124.433 8.24471C124.15 8.5731 124.196 8.97447 124.105 9.33022H124.114Z" fill="#B8B8B8"/>
<path d="M123.439 10.826C123.247 11.2364 123.174 11.2273 123.603 11.4919C124.032 11.7564 124.059 11.6378 124.442 11.6561C124.442 12.0665 123.731 12.3767 123.421 12.5591C122.253 13.2615 120.775 13.7997 119.899 14.8305H116.369C116.451 14.42 117.163 13.8909 117.482 13.6811C118.723 12.8966 120.903 11.6834 122.216 11.0358C122.481 10.8989 123.202 10.4702 123.43 10.8168L123.439 10.826Z" fill="#B8B8B8"/>
<path d="M124.114 9.32973C124.205 8.97398 124.169 8.56349 124.442 8.24422C124.314 8.08914 124.242 8.00704 124.032 7.9888C123.247 7.91582 119.671 10.5338 118.905 11.1724L126.084 3.17239L126.385 3.14502L126.613 3.52814L124.114 9.32973Z" fill="#B8B8B8"/>
<path d="M117.218 12.6681C116.862 13.033 116.114 13.7992 115.877 14.1732C115.676 14.4834 115.667 14.6202 115.713 15.0125H114.372V12.5039L117.227 12.6681H117.218Z" fill="#B8B8B8"/>
<path d="M128.483 11.6647C127.416 12.9783 125.446 13.48 124.105 14.4287C123.895 14.5746 123.959 14.83 123.941 14.8392C123.777 14.9486 120.465 14.8392 119.909 14.8392C120.775 13.8084 122.262 13.2793 123.43 12.5678C123.74 12.3854 124.461 12.0752 124.452 11.6647C125.747 11.7468 127.17 11.6556 128.483 11.6647Z" fill="#B8B8B8"/>
<path d="M128.985 11.6647H128.483C127.17 11.6556 125.737 11.7468 124.451 11.6647C124.068 11.6373 124.004 11.7377 123.612 11.5005L128.994 11.6647H128.985Z" fill="#B6B6B6"/>
</g>
<defs>
<clipPath id="clip0_4748_18554">
<rect width="168" height="21.7104" fill="white" transform="translate(0.00012207 3.14502)"/>
</clipPath>
</defs>
</svg>
