<?xml version="1.0" encoding="utf-8"?>
<!-- Generator: Adobe Illustrator 25.2.3, SVG Export Plug-In . SVG Version: 6.00 Build 0)  -->
<svg version="1.1" id="Ebene_1" xmlns="http://www.w3.org/2000/svg" xmlns:xlink="http://www.w3.org/1999/xlink" x="0px" y="0px"
	 viewBox="0 0 688.16 397.24" style="enable-background:new 0 0 688.16 397.24;" xml:space="preserve">
<style type="text/css">
	.st0{fill:#B8B8B8;}
</style>
<g>
	<path class="st0" d="M640.67,107.32h-31.42v9.92c-15.36-9.85-33.68-15.49-53.33-15.24c-52.98,0.68-96.1,45.01-95.38,97.99
		c0.72,52.76,43.71,95.3,96.64,95.3c19.18,0,37.04-5.61,52.07-15.24v9.79h54.76V130.66C664.01,117.77,653.56,107.32,640.67,107.32z
		 M564.4,243.46c-24.75,0-44.82-20.06-44.82-44.82s20.06-44.82,44.82-44.82s44.82,20.06,44.82,44.82S589.15,243.46,564.4,243.46z"/>
	<path class="st0" d="M345.99,102c-19.66-0.25-37.97,5.4-53.33,15.25v-9.93h-54.76v266.48h31.42c12.89,0,23.34-10.45,23.34-23.34
		v-70.42c15.04,9.64,32.9,15.26,52.09,15.26c52.93,0,95.92-42.55,96.64-95.31C442.1,147,398.97,102.67,345.99,102z M337.52,243.46
		c-24.75,0-44.82-20.06-44.82-44.82s20.06-44.82,44.82-44.82s44.82,20.06,44.82,44.82S362.27,243.46,337.52,243.46z"/>
	<path class="st0" d="M176.71,107.32h-31.42v182.6h54.76V130.66C200.05,117.77,189.6,107.32,176.71,107.32z"/>
	<path class="st0" d="M172.66,23.44c-17.89,0-32.85,14.97-32.85,32.85c0,17.89,14.97,32.85,32.85,32.85
		c17.89,0,32.86-14.97,32.86-32.85C205.52,38.41,190.55,23.44,172.66,23.44z"/>
	<path class="st0" d="M78.86,205.3V46.78c0-12.89-10.45-23.34-23.34-23.34H24.01V205.3c0,46.66,38.04,84.62,84.8,84.62v-54.85
		C92.29,235.07,78.86,221.72,78.86,205.3z"/>
</g>
</svg>
