<?xml version="1.0" encoding="UTF-8"?>
<svg id="Layer_1" xmlns="http://www.w3.org/2000/svg" width="108" height="29" version="1.1" viewBox="0 0 108 29">
  <!-- Generator: Adobe Illustrator 29.6.1, SVG Export Plug-In . SVG Version: 2.1.1 Build 9)  -->
  <path d="M50.66,13.27c.67-.71.7-2.09,1.09-3.16,3.09-8.45,15.49-8.39,18.42,0,2.97,8.51-3.11,17.41-12.51,14.57-4.36-1.32-5.55-4.44-6.51-8.42-.07-.3-.1-.62-.49-.67-.68,12.8-18.97,12.79-19.84-.12-.97-14.33,18.47-15.99,19.84-2.2ZM40.55,8.7c-5.38.34-5.33,12.07.71,11.53,4.92-.43,5.07-11.9-.71-11.53ZM60.64,8.69c-5.01.39-4.94,10.19-.93,11.36,6.82,1.99,7.17-11.84.93-11.36ZM29.8,10.31c0-.19-.45-1.68-.57-2-1.72-4.78-7.23-5.12-11.41-3.54-.5.19-1.43.97-1.79.95-.22-.01-1.2-.86-1.68-1.07-3.45-1.5-8.77-.43-12.36.39v19.57h5.66v-15.71c1.91.15,3.91-.7,4.87,1.44.11.26.54,1.62.54,1.78v12.49h5.66l-.23-15.16c1.44-.62,4.03-1.12,4.97.5.11.19.66,1.81.66,1.91v12.75h5.66v-14.29ZM106.01,16.36h-13.13c.97,4.89,7.34,4.32,10.95,2.84l.91,4.73c-7.68,2.8-17.22,1.22-17.78-8.47-.44-7.62,5.53-13.55,13.18-11.13,3.01.95,5.86,4.59,5.86,7.78v4.25ZM100.35,12.5c.18-5.3-7.19-5.18-7.47,0h7.47ZM71.25,4.26v4.89h8.5c-1.75,2.15-3.6,4.24-5.25,6.46-2.08,2.8-4.47,5.21-3.76,8.99h16.74v-4.51l-.39-.39h-9.4c2.92-4.02,6.14-7.82,9.53-11.46v-3.99h-15.96Z" fill="#c7c7c7"/>
</svg>