<?xml version="1.0" encoding="UTF-8"?>
<svg id="Layer_1" xmlns="http://www.w3.org/2000/svg" version="1.1" viewBox="0 0 145 25.9">
  <!-- Generator: Adobe Illustrator 29.6.1, SVG Export Plug-In . SVG Version: 2.1.1 Build 9)  -->
  <path d="M140.5,8.3h-3.5v5.1c0,1,0,1.6.3,2.1.3.5.8.8,1.3.8.6,0,1.3,0,2,0v2.2c-.9.2-2.3.3-3.1,0-1.1-.3-1.9-.8-2.3-1.7-.5-.9-.5-2-.5-3.3v-5.3h-2.5v-2h2.5v-3.4h2.5v3.4h3.5v2Z" fill="#c7c7c7"/>
  <path d="M126.2,8.3c-1,0-1.9.4-2.5,1.2-.3.4-.5,1-.6,1.5h6.2c-.1-.6-.3-1.1-.6-1.5-.6-.8-1.5-1.2-2.5-1.2ZM123,13c0,.8.3,1.6.7,2.2.6.8,1.5,1.2,2.5,1.2s1.9-.4,2.5-1.2c.1-.2.2-.3.3-.5l2.5,1.1c-.2.4-.4.7-.7,1-1.1,1.3-2.8,2-4.5,2-1.7,0-3.4-.7-4.5-2-1-1.3-1.4-2.8-1.4-4.4,0-1.6.4-3.2,1.4-4.4,1.1-1.3,2.7-2,4.5-2s3.4.7,4.4,2c1,1.2,1.4,2.8,1.4,4.4s0,.5,0,.7h-9Z" fill="#c7c7c7"/>
  <rect x="116.6" y="1.9" width="2.5" height="16.6" fill="#c7c7c7"/>
  <rect x="112.2" y="1.9" width="2.5" height="16.6" fill="#c7c7c7"/>
  <path d="M108,12.4c-.4,0-1.2.2-2.5.5-1.6.3-3.2.6-3.2,1.9,0,.9.7,1.7,1.8,1.7,1.4,0,3.1-.7,3.6-2.3.3-.7.3-1.3.3-1.8ZM102.5,9.6l-2.3-1.1c0-.1.2-.3.3-.4,1.1-1.5,2.7-2.1,4.5-2.1s3.9.8,4.9,2.5c.4.8.5,1.6.5,2.3v7.6h-2.2v-2.2c-.3.8-1.1,1.5-1.7,1.8-.9.5-1.9.7-2.9.7-1.2,0-2.4-.6-3-1.5-.5-.8-.8-1.4-.8-2.4s.7-2.5,1.8-3.2c1.3-.7,2.4-.8,4.1-1.1l2.1-.3c-.1-.6-.4-1.1-.9-1.4-.5-.4-1.3-.6-2-.5-.9,0-1.7.3-2.2.9,0,.1-.2.2-.3.4Z" fill="#c7c7c7"/>
  <polygon points="97.7 6.3 100.1 6.3 96.5 18.4 94.1 18.4 91.8 10.3 89.4 18.4 87.2 18.4 83.5 6.2 86 6.3 88.4 14.3 90.8 6.3 92.9 6.3 95.3 14.3 97.7 6.3" fill="#c7c7c7"/>
  <path d="M81.6,7.1c1.5,1.3,1.7,3.1,1.7,5.2v6h-2.5v-6c0-1.4-.2-2.6-1-3.3-.5-.5-1.2-.7-2-.7-.6,0-1.2.2-1.6.6-.5.4-.8,1-.9,1.8-.1.6-.2,1.5-.2,2.4v5.3h-2.5V6.3h2.2v1h0c.9-.9,2.1-1.3,3.3-1.4,1.2,0,2.6.4,3.5,1.2Z" fill="#c7c7c7"/>
  <path d="M65.5,8.3c-1,0-1.9.4-2.5,1.2-.3.4-.5,1-.6,1.5h6.2c-.1-.6-.3-1.1-.6-1.5-.6-.8-1.5-1.2-2.5-1.2ZM62.3,13c0,.8.3,1.6.7,2.2.6.8,1.5,1.2,2.5,1.2s1.9-.4,2.5-1.2c.1-.2.2-.3.3-.5l2.5,1.1c-.2.4-.4.7-.7,1-1.1,1.3-2.8,2-4.5,2-1.7,0-3.4-.7-4.5-2-1-1.3-1.4-2.8-1.4-4.4,0-1.6.4-3.2,1.4-4.4,1.1-1.3,2.7-2,4.5-2s3.4.7,4.4,2c1,1.2,1.4,2.8,1.4,4.4s0,.5,0,.7h-9Z" fill="#c7c7c7"/>
  <path d="M55.8,15.3c.5-.7.7-1.8.7-2.9s-.2-2.2-.7-2.9c-.6-.9-1.5-1.2-2.5-1.2s-1.8.3-2.3,1c-.6.8-.9,1.9-.9,3.1s.3,2.3.9,3.1c.6.7,1.4,1.1,2.4,1.1s1.9-.4,2.5-1.2ZM57.7,7.9c.9,1.2,1.3,2.8,1.3,4.5s-.4,3.2-1.3,4.5c-1,1.3-2.5,2-4.1,2s-2.5-.4-3.4-1.1v6h-2.5V6.3h2.2v1c.9-.9,2.2-1.4,3.6-1.4s3.2.7,4.2,1.9Z" fill="#c7c7c7"/>
  <path d="M43.1,15.2c.6-.8.8-1.8.8-2.9s-.2-2.1-.8-2.9-1.5-1.1-2.5-1.1-1.9.4-2.5,1.1c-.6.8-.8,1.8-.8,2.9s.2,2.1.8,2.9c.5.8,1.5,1.2,2.5,1.2s1.9-.4,2.5-1.2ZM40.7,18.8c-1.7,0-3.4-.7-4.5-2-1-1.3-1.4-2.8-1.4-4.4s.5-3.2,1.4-4.4c1.1-1.3,2.7-2,4.5-2s3.4.7,4.4,2c1,1.3,1.4,2.8,1.4,4.4s-.4,3.1-1.4,4.4c-1.1,1.4-2.7,2-4.4,2Z" fill="#c7c7c7"/>
  <path d="M11.2,17.6l2.6-1.5-.8-1.3c-.4,0-.8-.3-1.1-.6h0c-.3-.5-.3-1,0-1.4l-.5-.8-2.6,1.5.5.9c.4,0,.8.2,1,.6.3.4.3.9,0,1.3l.8,1.4ZM17.6,6.9l-2.6,1.5.8,1.3c.4,0,.8.3,1.1.6h0c.3.5.3,1,0,1.4l.5.8,2.6-1.5-.5-.9c-.4,0-.8-.2-1-.6-.3-.4-.3-.9,0-1.3l-.8-1.4Z" fill="#c7c7c7" fill-rule="evenodd" opacity=".5"/>
  <path d="M10.8,14.1c1.1-.6,1.5-2.1.9-3.2l-2.8-4.8c-.6-1.1-2.1-1.5-3.2-.9-1.1.6-1.5,2.1-.9,3.2l2.8,4.8c.6,1.1,2.1,1.5,3.2.9ZM15.5,17.5c0,1.5-1.2,2.6-2.6,2.6s-2.6-1.2-2.6-2.6h0c0-1.5,1.2-2.7,2.6-2.7s2.6,1.2,2.6,2.6h0ZM18,10.5c-1.1.6-1.5,2.1-.9,3.2l2.8,4.8c.6,1.1,2.1,1.5,3.2.9s1.5-2.1.9-3.2l-2.8-4.8c-.6-1.1-2.1-1.5-3.2-.9ZM24.2,10.1c0-1.5,1.2-2.6,2.6-2.6s2.6,1.2,2.6,2.6h0c0,1.5-1.2,2.7-2.6,2.7s-2.6-1.2-2.6-2.6h0ZM13.3,7.1c0-1.5,1.2-2.6,2.6-2.6s2.6,1.2,2.6,2.6h0c0,1.5-1.2,2.7-2.6,2.7s-2.6-1.2-2.6-2.6h0Z" fill="#c7c7c7" fill-rule="evenodd"/>
</svg>