<svg width="128" height="28" viewBox="0 0 128 28" fill="none" xmlns="http://www.w3.org/2000/svg">
<path d="M10.9663 27.9661V16.7246H0.5C5.27121 11.0299 9.8758 5.53111 14.4804 0.0341797L14.6951 0.0970229V11.0151H25.1596C20.3717 16.7338 15.7579 22.2419 10.9682 27.9643L10.9663 27.9661Z" fill="#B8B8B8"/>
<path fill-rule="evenodd" clip-rule="evenodd" d="M110.681 3.81494H106.916V23.8605H110.696C110.696 23.1631 110.698 22.4693 110.701 21.7782V21.778V21.7778C110.708 19.9906 110.715 18.2214 110.675 16.4533C110.658 15.717 110.912 15.239 111.453 14.8206C113.804 13.0021 116.452 12.094 119.434 12.2249C122.015 12.3383 123.41 13.6332 123.544 16.209C123.62 17.6603 123.621 19.1161 123.622 20.5718C123.622 21.2003 123.622 21.8288 123.629 22.4569C123.631 22.7633 123.63 23.0696 123.629 23.3848C123.629 23.5458 123.629 23.709 123.629 23.8757H127.38C127.39 23.8527 127.4 23.8333 127.408 23.8163C127.423 23.7857 127.435 23.7627 127.435 23.7401C127.438 22.8642 127.453 21.9878 127.467 21.1115L127.467 21.11C127.5 19.1036 127.533 17.0975 127.432 15.0976C127.266 11.8474 125.558 9.87349 122.525 9.25174C118.902 8.50962 115.442 9.06241 112.215 10.909C111.883 11.0993 111.565 11.3142 111.218 11.5482C111.047 11.6634 110.87 11.7833 110.681 11.907V3.81494ZM84.1859 18.7439H87.9831C88.0953 20.0213 89.0162 20.4923 90.0891 20.7529C92.0758 21.2367 94.107 21.2145 96.1301 21.1619C97.3128 21.1304 98.4955 21.0053 99.6712 20.8604C100.177 20.7973 100.639 20.5507 100.772 19.9593C100.978 19.0431 100.672 18.488 99.6747 18.3349C98.6994 18.1857 97.7166 18.0901 96.7334 17.9944C96.2064 17.9432 95.6792 17.8919 95.153 17.8323C92.7969 17.567 90.442 17.2994 88.0894 17.0072C87.7852 16.9696 87.4878 16.8479 87.1956 16.7284L87.1955 16.7284C87.1431 16.7069 87.0908 16.6856 87.0387 16.6648C85.7859 16.1634 84.976 15.3091 84.8474 13.9055C84.7048 12.3464 85.2343 11.1146 86.5993 10.2989C87.8837 9.53102 89.3212 9.25054 90.7774 9.12081C93.7307 8.85785 96.6875 8.80994 99.6257 9.31598C100.804 9.51934 101.939 9.8641 102.875 10.6623C103.762 11.4196 104.137 12.4014 104.132 13.5911H100.35C100.229 12.6912 99.5357 12.3605 98.7655 12.2471C97.6517 12.0835 96.5228 11.9537 95.3996 11.9456C93.7483 11.9339 92.0945 12.0227 90.4443 12.1139C90.0096 12.1384 89.5433 12.2588 89.1693 12.4726C88.9157 12.6176 88.6527 13.0067 88.6609 13.2791C88.6679 13.5514 88.9566 13.9733 89.209 14.0539C89.9617 14.2947 90.7517 14.4665 91.5382 14.5471C92.5467 14.6494 93.5574 14.732 94.568 14.8147C95.8659 14.9207 97.1639 15.0268 98.457 15.1747C99.7051 15.3173 100.96 15.5557 102.163 15.9191C103.703 16.3843 104.58 17.4712 104.637 19.1483C104.697 20.8698 104.163 22.3166 102.53 23.04C101.499 23.497 100.355 23.8149 99.2341 23.9329C95.7199 24.3034 92.1962 24.3361 88.7217 23.5402C87.179 23.1873 85.7555 22.5667 84.8474 21.1549C84.3835 20.4338 84.2023 19.6321 84.1848 18.7416L84.1859 18.7439ZM78.082 15.4635C78.0668 14.4129 77.632 13.6801 76.8326 13.1507C75.8953 12.5301 74.8271 12.3232 73.7356 12.2145C70.8103 11.9224 67.9481 12.2987 65.1269 13.0689C64.9264 13.1233 64.7259 13.1755 64.4991 13.2345L64.4935 13.236C64.3089 12.8715 64.1277 12.5131 63.945 12.1519L63.9429 12.1477L63.9406 12.1433C63.6632 11.5945 63.3823 11.0392 63.0817 10.4463C63.4245 10.3559 63.7623 10.263 64.0972 10.171C64.823 9.97145 65.5353 9.77565 66.2559 9.61651C69.5376 8.89192 72.8462 8.66168 76.1676 9.31499C78.3134 9.73806 80.2055 10.6461 81.1416 12.7627C81.5577 13.7023 81.8323 14.7717 81.8732 15.7954C81.9496 17.6816 81.9398 19.5714 81.9299 21.4614V21.4614V21.4615V21.4615C81.926 22.2017 81.9222 22.9418 81.9235 23.6818C81.9235 23.7179 81.9134 23.7534 81.9009 23.7976L81.9009 23.7976C81.8943 23.8209 81.8871 23.8465 81.8802 23.8758H78.1135V22.0842C78.021 22.1187 77.9368 22.1495 77.8582 22.1782L77.8582 22.1782L77.8582 22.1783L77.8578 22.1784C77.6944 22.2381 77.5558 22.2888 77.4193 22.3448C74.4122 23.5837 71.2941 24.2825 68.0335 24.1259C66.9559 24.0745 65.8585 23.9016 64.8254 23.5989C63.0186 23.0694 62.0135 21.7909 61.8767 19.8871C61.7447 18.0382 62.4775 16.6299 64.0891 15.7043C65.883 14.6735 67.8733 14.4351 69.8858 14.3509C72.4944 14.2422 75.0515 14.5917 77.556 15.3291C77.6539 15.3576 77.7533 15.3821 77.8742 15.4118L77.8743 15.4118L77.8744 15.4119L77.8745 15.4119L77.875 15.412C77.9373 15.4273 78.0054 15.4441 78.082 15.4635ZM70.6158 17.0466H70.6158C70.1014 17.0579 69.5867 17.0691 69.09 17.171C68.1889 17.3545 67.2808 17.6081 66.4475 17.9891C65.7954 18.2871 65.6049 18.9778 65.7112 19.6942C65.8176 20.4106 66.2594 20.8454 66.9501 20.9997C67.4409 21.1084 67.9435 21.1948 68.4448 21.2241C71.6295 21.404 74.6553 20.6771 77.6285 19.6159C78.1241 19.4391 78.1052 19.1343 78.086 18.8234C78.0788 18.7068 78.0715 18.5894 78.0913 18.4776C78.1568 18.1015 77.9147 18.032 77.6578 17.9582C77.6306 17.9503 77.6032 17.9425 77.5759 17.9342C75.5295 17.3101 73.4282 17.0869 71.2988 17.0249L71.3 17.0237C71.0731 17.0367 70.8445 17.0417 70.6158 17.0466ZM38.9421 14.8241H51.9813V18.1116H38.9351V23.8605H34.9767V6.3241H53.4924V9.61984H38.9421V14.8241ZM59.5778 3.81599H55.8368V23.8662H59.5778V3.81599Z" fill="#B8B8B8"/>
</svg>
