<?xml version="1.0" encoding="UTF-8"?>
<svg xmlns="http://www.w3.org/2000/svg" version="1.1" viewBox="0 0 1134 225">
  <defs>
    <style>
      .cls-1 {
        fill: #b8b8b8;
      }
    </style>
  </defs>
  <!-- Generator: Adobe Illustrator 28.7.3, SVG Export Plug-In . SVG Version: 1.2.0 Build 164)  -->
  <g>
    <g id="Layer_1">
      <g>
        <path class="cls-1" d="M687.06,123.68c-.13-8.99-3.85-15.26-10.69-19.79-8.02-5.31-17.16-7.08-26.5-8.01-25.03-2.5-49.52.72-73.66,7.31-1.73.47-3.46.92-5.42,1.43-3.99-7.88-7.8-15.43-12.08-23.87,9.29-2.45,18.15-5.11,27.16-7.1,28.08-6.2,56.39-8.17,84.81-2.58,18.36,3.62,34.55,11.39,42.56,29.5,3.56,8.04,5.91,17.19,6.26,25.95.91,22.46.39,44.98.43,67.48,0,.47-.2.93-.37,1.66h-32.23v-15.33c-2.44.91-4.21,1.52-5.94,2.23-25.73,10.6-52.41,16.58-80.31,15.24-9.22-.44-18.61-1.92-27.45-4.51-15.46-4.53-24.06-15.47-25.23-31.76-1.13-15.82,5.14-27.87,18.93-35.79,15.35-8.82,32.38-10.86,49.6-11.58,22.32-.93,44.2,2.06,65.63,8.37,1.27.37,2.57.66,4.5,1.15ZM629.03,137.03c-6.31.36-12.77,0-18.91,1.26-7.71,1.57-15.48,3.74-22.61,7-5.58,2.55-7.21,8.46-6.3,14.59.91,6.13,4.69,9.85,10.6,11.17,4.2.93,8.5,1.67,12.79,1.92,27.25,1.54,53.14-4.68,78.58-13.76,5.83-2.08,3.34-6.23,3.96-9.74.62-3.56-1.98-3.91-4.41-4.65-17.51-5.34-35.49-7.25-53.71-7.78Z"/>
        <path class="cls-1" d="M739.29,151.75h32.49c.96,10.93,8.84,14.96,18.02,17.19,17,4.14,34.38,3.95,51.69,3.5,10.12-.27,20.24-1.34,30.3-2.58,4.33-.54,8.28-2.65,9.42-7.71,1.76-7.84-.86-12.59-9.39-13.9-12.82-1.96-25.79-2.84-38.69-4.3-20.16-2.27-40.31-4.56-60.44-7.06-3.07-.38-6.06-1.76-8.99-2.93-10.72-4.29-17.65-11.6-18.75-23.61-1.22-13.34,3.31-23.88,14.99-30.86,10.99-6.57,23.29-8.97,35.75-10.08,25.27-2.25,50.57-2.66,75.71,1.67,10.08,1.74,19.79,4.69,27.8,11.52,7.59,6.48,10.8,14.88,10.76,25.06h-32.36c-1.04-7.7-6.97-10.53-13.56-11.5-9.53-1.4-19.19-2.51-28.8-2.58-14.13-.1-28.28.66-42.4,1.44-3.72.21-7.71,1.24-10.91,3.07-2.17,1.24-4.42,4.57-4.35,6.9.06,2.33,2.53,5.94,4.69,6.63,6.44,2.06,13.2,3.53,19.93,4.22,19.71,2,39.52,3.12,59.2,5.37,10.68,1.22,21.42,3.26,31.71,6.37,13.18,3.98,20.68,13.28,21.17,27.63.51,14.73-4.06,27.11-18.03,33.3-8.82,3.91-18.61,6.63-28.2,7.64-30.07,3.17-60.22,3.45-89.95-3.36-13.2-3.02-25.38-8.33-33.15-20.41-3.97-6.17-5.52-13.03-5.67-20.65Z"/>
        <path class="cls-1" d="M933.77,24.01h32.22v69.24c4.91-3.21,8.89-6.11,13.13-8.54,27.61-15.8,57.22-20.53,88.22-14.18,25.95,5.32,40.56,22.21,41.98,50.02,1.25,24.59.12,49.29.03,73.95,0,.3-.24.61-.47,1.16h-32.1c0-4.22.03-8.18,0-12.14-.18-17.82.21-35.68-.72-53.46-1.15-22.04-13.09-33.12-35.17-34.09-25.52-1.12-48.17,6.65-68.29,22.21-4.63,3.58-6.8,7.67-6.66,13.97.48,20.98.18,41.98.18,63.38h-32.34V24.01Z"/>
        <path class="cls-1" d="M352.16,118.21h111.57v28.13h-111.63v49.19h-33.87V45.48h158.43v28.2h-124.5v44.53Z"/>
        <path class="cls-1" d="M89.14,198.1v-60.82h-56.53c25.77-30.81,50.64-60.56,75.51-90.3l1.16.34v59.07h56.52c-25.86,30.94-50.78,60.74-76.65,91.7Z"/>
        <path class="cls-1" d="M496.72,24.02h32.01v171.56h-32.01V24.02Z"/>
      </g>
    </g>
  </g>
</svg>