<svg width="110" height="28" viewBox="0 0 110 28" fill="none" xmlns="http://www.w3.org/2000/svg">
<path d="M10.409 26.5719V16.4523H0.987335C5.28234 11.326 9.42735 6.37603 13.5724 1.42773L13.7657 1.48431V11.3127H23.1857C18.8757 16.4606 14.7224 21.4189 10.4107 26.5702L10.409 26.5719Z" fill="#B8B8B8"/>
<path fill-rule="evenodd" clip-rule="evenodd" d="M95.1952 5.6333H92.1027V22.1012H95.2077C95.2077 21.5282 95.21 20.9583 95.2122 20.3905C95.218 18.9222 95.2237 17.4686 95.1904 16.016C95.177 15.4111 95.3853 15.0184 95.8299 14.6747C97.7616 13.1808 99.9363 12.4348 102.387 12.5423C104.506 12.6354 105.653 13.6992 105.763 15.8153C105.826 17.0076 105.826 18.2035 105.827 19.3993V19.4017C105.827 19.9173 105.827 20.4329 105.832 20.9481C105.834 21.1993 105.834 21.4505 105.833 21.7089V21.7096V21.7104C105.833 21.8426 105.832 21.9767 105.832 22.1137H108.914C108.922 22.0948 108.93 22.0789 108.937 22.0649C108.95 22.0397 108.959 22.0208 108.959 22.0023C108.962 21.2823 108.974 20.5619 108.986 19.8416V19.8414V19.8412C109.013 18.193 109.04 16.5451 108.957 14.9022C108.82 12.2322 107.417 10.6105 104.926 10.0998C101.95 9.49008 99.1067 9.94422 96.4559 11.4612C96.1831 11.6175 95.9215 11.7941 95.6368 11.9863C95.4966 12.081 95.3508 12.1794 95.1952 12.2811V5.6333ZM73.4293 17.8974H76.5487C76.6409 18.9468 77.3975 19.3338 78.2789 19.5479C79.9111 19.9454 81.5797 19.9271 83.2417 19.8839C84.2133 19.858 85.185 19.7553 86.1508 19.6362C86.5666 19.5844 86.9458 19.3818 87.0553 18.896C87.2243 18.1432 86.9727 17.6872 86.1537 17.5614C85.3524 17.4389 84.5451 17.3603 83.7374 17.2817L83.7374 17.2817C83.3044 17.2396 82.8713 17.1975 82.439 17.1486C80.5034 16.9306 78.5688 16.7107 76.6361 16.4707C76.3862 16.4398 76.1419 16.3399 75.9019 16.2417L75.9017 16.2416L75.9015 16.2416C75.8585 16.224 75.8157 16.2065 75.773 16.1894C74.7437 15.7775 74.0784 15.0757 73.9727 13.9226C73.8556 12.6418 74.2905 11.6298 75.412 10.9597C76.4671 10.3289 77.6481 10.0984 78.8444 9.99186C81.2706 9.77583 83.6997 9.73647 86.1134 10.1522C87.0812 10.3193 88.0135 10.6025 88.7825 11.2583C89.5112 11.8804 89.8194 12.6869 89.8156 13.6643H86.7087C86.6088 12.925 86.0395 12.6533 85.4067 12.5602C84.4918 12.4258 83.5643 12.3192 82.6416 12.3125C81.285 12.3029 79.9264 12.3758 78.5707 12.4507C78.2136 12.4709 77.8305 12.5698 77.5232 12.7455C77.3149 12.8645 77.0989 13.1842 77.1056 13.4079C77.1114 13.6317 77.3485 13.9783 77.5559 14.0445C78.1742 14.2423 78.8232 14.3834 79.4694 14.4497C80.2978 14.5337 81.1281 14.6016 81.9584 14.6695L81.9584 14.6695L81.9585 14.6695C83.0248 14.7566 84.091 14.8438 85.1533 14.9653C86.1787 15.0824 87.2098 15.2783 88.1978 15.5768C89.4632 15.959 90.1833 16.8519 90.2304 18.2296C90.2793 19.6439 89.8406 20.8325 88.4993 21.4268C87.6525 21.8022 86.7125 22.0634 85.7918 22.1604C82.9047 22.4647 80.0099 22.4916 77.1555 21.8378C75.8882 21.5478 74.7188 21.038 73.9727 19.8782C73.5916 19.2858 73.4428 18.6271 73.4284 17.8955L73.4293 17.8974ZM68.4147 15.203C68.4023 14.3398 68.0451 13.7379 67.3884 13.3029C66.6184 12.7931 65.7408 12.6232 64.8441 12.5339C62.4409 12.2938 60.0896 12.603 57.7719 13.2357C57.6072 13.2805 57.4424 13.3233 57.2562 13.3718L57.2515 13.373C57.0999 13.0737 56.951 12.7793 56.801 12.4826L56.7989 12.4784C56.5705 12.0266 56.3393 11.5694 56.0917 11.0812C56.3733 11.0069 56.6508 10.9307 56.926 10.855C57.5223 10.6911 58.1074 10.5303 58.6993 10.3995C61.3954 9.80426 64.1134 9.61512 66.8421 10.1518C68.6049 10.4994 70.1593 11.2454 70.9283 12.9842C71.2701 13.7561 71.4958 14.6346 71.5294 15.4757C71.5921 17.0252 71.584 18.5777 71.5759 20.1303V20.1303V20.1304V20.1304C71.5727 20.7385 71.5696 21.3466 71.5706 21.9545C71.5706 21.9841 71.5624 22.0133 71.5521 22.0497C71.5467 22.0687 71.5407 22.0898 71.5351 22.1139H68.4407V20.642C68.3647 20.6704 68.2955 20.6957 68.2311 20.7192L68.2309 20.7193C68.0966 20.7684 67.9826 20.8101 67.8704 20.8561C65.4 21.8739 62.8384 22.448 60.1597 22.3194C59.2745 22.2771 58.3729 22.135 57.5242 21.8863C56.0398 21.4514 55.2141 20.401 55.1018 18.837C54.9933 17.3181 55.5953 16.1612 56.9193 15.4008C58.3931 14.5539 60.0281 14.3581 61.6815 14.289C63.8244 14.1997 65.9252 14.4867 67.9827 15.0926C68.0631 15.116 68.1448 15.1361 68.2443 15.1606C68.2957 15.1732 68.3517 15.187 68.4147 15.203ZM62.2812 16.5036L62.2811 16.5036C61.8585 16.5128 61.4357 16.522 61.0276 16.6057C60.2874 16.7565 59.5414 16.9648 58.8568 17.2778C58.3211 17.5226 58.1646 18.0901 58.2519 18.6786C58.3393 19.2672 58.7022 19.6243 59.2697 19.751C59.6729 19.8403 60.0858 19.9114 60.4976 19.9354C63.114 20.0832 65.5997 19.4861 68.0422 18.6143C68.4494 18.469 68.4339 18.2186 68.4181 17.9632C68.4122 17.8674 68.4062 17.771 68.4224 17.6791C68.4762 17.3701 68.2774 17.313 68.0663 17.2524C68.0439 17.246 68.0214 17.2395 67.999 17.2327C66.3179 16.72 64.5916 16.5366 62.8422 16.4857L62.8432 16.4847C62.6568 16.4954 62.4691 16.4995 62.2813 16.5035L62.2813 16.5036L62.2812 16.5036ZM36.2605 14.6779H46.9725V17.3787H36.2547V22.1015H33.0028V7.69499H48.2139V10.4025H36.2605V14.6779ZM53.2132 5.63421H50.1399V22.1059H53.2132V5.63421Z" fill="#B8B8B8"/>
</svg>
