<svg xmlns="http://www.w3.org/2000/svg" viewBox="0 0 10794.14 1118.02"><defs><style>.cls-1{fill:#fff;}</style></defs><g id="Capa_2" data-name="Capa 2"><g id="Layer_1" data-name="Layer 1"><path class="cls-1" d="M1108,88.62A88.63,88.63,0,1,1,1019.39,0,88.6,88.6,0,0,1,1108,88.62"/><path class="cls-1" d="M3581.33,88.62A88.61,88.61,0,1,1,3492.71,0a88.61,88.61,0,0,1,88.62,88.62"/><path class="cls-1" d="M1420.27,730.88c0-217,141.59-381,358.55-381,84.51,0,155.83,24.47,207.79,64.18,63.17,47.88,99.83,119.17,109,200.66H1915.3c-9.16-65.19-60.12-115.11-137.56-115.11-118.12,0-174.12,98.84-174.12,231.25,0,133.45,67.2,230.22,175.2,230.22,80.45,0,133.42-51,141.57-121.24h180.3a287.08,287.08,0,0,1-87.63,186.43c-56,54-130.38,82.5-233.25,82.5-213.91,0-359.54-159.92-359.54-377.91"/><path class="cls-1" d="M0,364.17H328c88.62,0,153.86,24.45,198.66,67.23,46.87,43.82,73.38,106,73.38,179.29C600,750.22,503.25,849,353.5,849H183.33V1092.5H0ZM316.78,706.42c65.23,0,101.89-38.69,101.89-96.74S381,516,316.78,516H183.33V706.42Z"/><rect class="cls-1" x="929.23" y="364.17" width="180.3" height="728.33"/><path class="cls-1" d="M2411.4,364.17h181.31l216,365.69c11.19,20.36,49.91,92.71,49.91,92.71h2.06s-2.06-87.61-2.06-113.07V364.17h176.19V1092.5H2853.48l-213.9-360.6c-12.21-19.35-52-97.8-52-97.8h-2s2,93.72,2,119.19V1092.5H2411.4Z"/><rect class="cls-1" x="3402.57" y="364.17" width="180.3" height="728.33"/><path class="cls-1" d="M3893.58,730.88c0-217,141.6-381,358.55-381,84.52,0,155.85,24.47,207.82,64.18,63.17,47.88,99.82,119.17,109,200.66H4388.61c-9.14-65.19-60.11-115.11-137.53-115.11-118.12,0-174.15,98.84-174.15,231.25,0,133.45,67.23,230.22,175.2,230.22,80.48,0,133.45-51,141.58-121.24H4574a287.12,287.12,0,0,1-87.63,186.43c-56,54-130.4,82.5-233.26,82.5-213.92,0-359.56-159.92-359.56-377.91"/><path class="cls-1" d="M5842.39,607.42a134,134,0,0,0-57.12-56.09q-37.23-19.41-87.56-19.39-87,0-139.43,57.14t-52.42,152.56q0,101.68,55,158.83t151.5,57.12q66,0,111.65-33.54t66.58-96.47H5663.12V695.49h390V862.2q-19.91,67.09-67.6,124.77t-121.1,93.29q-73.41,35.65-165.66,35.65-109.05,0-194.48-47.72T5371.12,935.56q-47.71-84.91-47.7-193.92t47.7-194.5Q5418.84,461.7,5503.75,414t194-47.69q132.1,0,222.81,64t120,177.19Z"/><path class="cls-1" d="M6769.22,1110.67,6616.14,832.82h-43v277.85H6393.88v-736h300.91q87,0,148.35,30.39t91.74,83.37q30.39,52.94,30.38,117.94,0,73.39-41.4,131.06t-122.15,81.78l169.85,291.46ZM6573.15,706h111.13q49.28,0,73.92-24.12t24.63-68.14q0-41.93-24.63-66.06t-73.92-24.11H6573.15Z"/><path class="cls-1" d="M7476.37,1069.78Q7389.88,1021.57,7339,935t-50.85-194.47q0-108,50.85-194t137.33-134.2q86.54-48.21,190.3-48.23T7857,412.4q86.52,48.26,136.3,134.2t49.8,194q0,108-50.31,194.47t-136.31,134.74q-86,48.21-189.77,48.24T7476.37,1069.78Zm331.32-174q52.92-58.74,52.94-155.18,0-97.52-52.94-155.7t-141-58.17q-89.13,0-142.06,57.66t-52.94,156.21q0,97.54,52.94,155.69t142.06,58.2Q7754.74,954.46,7807.69,895.75Z"/><path class="cls-1" d="M8560,374.67V815q0,66,32.49,101.71t95.42,35.64q62.91,0,96.46-35.64T8817.87,815V374.67h179.27V814q0,98.52-41.94,166.69T8842.5,1083.4Q8771.73,1118,8684.72,1118T8529,1084q-68.72-34.11-108.52-102.79T8380.65,814V374.67Z"/><path class="cls-1" d="M9895.66,728.5q-29.4,53-90.2,85.47t-151,32.51H9543.36v264.19H9364.09v-736h290.4q88.08,0,148.87,30.39t91.23,83.88Q9925,542.42,9925,611.61,9925,675.57,9895.66,728.5Zm-178.24-48.73q25.13-24.1,25.17-68.16t-25.17-68.14q-25.2-24.11-76.54-24.12h-97.52V703.86h97.52Q9692.25,703.86,9717.42,679.77Z"/><path class="cls-1" d="M10381,1091.82q-63.93-26.25-102.22-77.62t-40.37-123.69h190.83q4.14,40.85,28.3,62.36t62.92,21.52q39.8,0,62.88-18.39t23.06-50.8q0-27.3-18.33-45.1t-45.1-29.38q-26.67-11.51-76-26.2-71.3-22-116.4-44t-77.56-65q-32.51-43-32.52-112.19,0-102.74,74.43-160.93t194-58.2q121.6,0,196.07,58.2t79.67,162h-194q-2.11-35.65-26.2-56.1t-61.85-20.44q-32.57,0-52.45,17.28t-19.93,49.81q0,35.69,33.55,55.57t104.89,43q71.22,24.1,115.83,46.13t77.06,63.95q32.49,42,32.51,108,0,62.94-32,114.29t-92.77,81.78q-60.84,30.38-143.63,30.41Q10445,1118,10381,1091.82Z"/></g></g></svg>