<svg viewBox="0 0 416 44" fill="none" xmlns="http://www.w3.org/2000/svg">
<path d="M42.647 3.48746C42.6471 4.17734 42.4471 4.85175 42.0722 5.42539C41.6974 5.99904 41.1646 6.44614 40.5412 6.71017C39.9178 6.97419 39.2318 7.04327 38.57 6.90868C37.9083 6.77408 37.3004 6.44184 36.8233 5.954C36.3462 5.46615 36.0213 4.8446 35.8897 4.16796C35.7581 3.49132 35.8258 2.78999 36.0841 2.15265C36.3424 1.51532 36.7798 0.970627 37.3409 0.587454C37.902 0.204281 38.5616 -0.000155584 39.2364 8.88389e-08C39.6843 -5.16131e-05 40.1279 0.0901217 40.5417 0.265369C40.9556 0.440617 41.3316 0.697506 41.6483 1.02136C41.965 1.34522 42.2163 1.7297 42.3876 2.15283C42.559 2.57597 42.6471 3.02948 42.647 3.48746Z" fill="black"/>
<path d="M42.647 3.48746C42.6471 4.17734 42.4471 4.85175 42.0722 5.42539C41.6974 5.99904 41.1646 6.44614 40.5412 6.71017C39.9178 6.97419 39.2318 7.04327 38.57 6.90868C37.9083 6.77408 37.3004 6.44184 36.8233 5.954C36.3462 5.46615 36.0213 4.8446 35.8897 4.16796C35.7581 3.49132 35.8258 2.78999 36.0841 2.15265C36.3424 1.51532 36.7798 0.970627 37.3409 0.587454C37.902 0.204281 38.5616 -0.000155584 39.2364 8.88389e-08C39.6843 -5.16131e-05 40.1279 0.0901217 40.5417 0.265369C40.9556 0.440617 41.3316 0.697506 41.6483 1.02136C41.965 1.34522 42.2163 1.7297 42.3876 2.15283C42.559 2.57597 42.6471 3.02948 42.647 3.48746Z" fill="#B8B8B8"/>
<path d="M137.847 3.48746C137.847 4.1771 137.647 4.85123 137.272 5.42462C136.898 5.998 136.365 6.44489 135.742 6.70877C135.119 6.97265 134.433 7.04167 133.771 6.90711C133.11 6.77255 132.502 6.44044 132.025 5.95279C131.548 5.46514 131.223 4.84384 131.092 4.16745C130.96 3.49107 131.028 2.78997 131.286 2.1528C131.544 1.51564 131.981 0.971034 132.542 0.58784C133.102 0.204647 133.762 7.78556e-05 134.436 2.22103e-08C134.884 -5.16672e-05 135.328 0.0901188 135.742 0.265362C136.156 0.440605 136.532 0.697487 136.848 1.02134C137.165 1.34519 137.416 1.72966 137.588 2.1528C137.759 2.57595 137.847 3.02946 137.847 3.48746Z" fill="black"/>
<path d="M137.847 3.48746C137.847 4.1771 137.647 4.85123 137.272 5.42462C136.898 5.998 136.365 6.44489 135.742 6.70877C135.119 6.97265 134.433 7.04167 133.771 6.90711C133.11 6.77255 132.502 6.44044 132.025 5.95279C131.548 5.46514 131.223 4.84384 131.092 4.16745C130.96 3.49107 131.028 2.78997 131.286 2.1528C131.544 1.51564 131.981 0.971034 132.542 0.58784C133.102 0.204647 133.762 7.78556e-05 134.436 2.22103e-08C134.884 -5.16672e-05 135.328 0.0901188 135.742 0.265362C136.156 0.440605 136.532 0.697487 136.848 1.02134C137.165 1.34519 137.416 1.72966 137.588 2.1528C137.759 2.57595 137.847 3.02946 137.847 3.48746Z" fill="#B8B8B8"/>
<path d="M54.667 28.762C54.667 20.2224 60.1168 13.7686 68.4677 13.7686C71.7205 13.7686 74.4657 14.7315 76.4656 16.2942C78.8971 18.1784 80.3081 20.9839 80.6611 24.1908H73.7209C73.3683 21.6254 71.4068 19.6609 68.4261 19.6609C63.8797 19.6609 61.7242 23.5505 61.7242 28.7612C61.7242 34.0129 64.3107 37.8211 68.4677 37.8211C71.5643 37.8211 73.6031 35.8141 73.9168 33.0499H80.8566C80.6587 35.8379 79.457 38.4518 77.4837 40.3865C75.3282 42.5116 72.4653 43.6331 68.5058 43.6331C60.2723 43.6331 54.667 37.3398 54.667 28.7612" fill="black"/>
<path d="M54.667 28.762C54.667 20.2224 60.1168 13.7686 68.4677 13.7686C71.7205 13.7686 74.4657 14.7315 76.4656 16.2942C78.8971 18.1784 80.3081 20.9839 80.6611 24.1908H73.7209C73.3683 21.6254 71.4068 19.6609 68.4261 19.6609C63.8797 19.6609 61.7242 23.5505 61.7242 28.7612C61.7242 34.0129 64.3107 37.8211 68.4677 37.8211C71.5643 37.8211 73.6031 35.8141 73.9168 33.0499H80.8566C80.6587 35.8379 79.457 38.4518 77.4837 40.3865C75.3282 42.5116 72.4653 43.6331 68.5058 43.6331C60.2723 43.6331 54.667 37.3398 54.667 28.7612" fill="#B8B8B8"/>
<path d="M0 14.3311H12.6248C16.0359 14.3311 18.547 15.2932 20.2713 16.9768C22.0754 18.7012 23.0958 21.1482 23.0958 24.0323C23.0942 29.5233 19.3703 33.4105 13.6063 33.4105H7.05644V42.993H0V14.3311ZM12.193 27.7996C14.7037 27.7996 16.1148 26.277 16.1148 23.9926C16.1148 21.7082 14.6648 20.306 12.193 20.306H7.05644V27.7996H12.193Z" fill="black"/>
<path d="M0 14.3311H12.6248C16.0359 14.3311 18.547 15.2932 20.2713 16.9768C22.0754 18.7012 23.0958 21.1482 23.0958 24.0323C23.0942 29.5233 19.3703 33.4105 13.6063 33.4105H7.05644V42.993H0V14.3311ZM12.193 27.7996C14.7037 27.7996 16.1148 26.277 16.1148 23.9926C16.1148 21.7082 14.6648 20.306 12.193 20.306H7.05644V27.7996H12.193Z" fill="#B8B8B8"/>
<path d="M42.7062 14.3311H35.7664V42.993H42.7062V14.3311Z" fill="black"/>
<path d="M42.7062 14.3311H35.7664V42.993H42.7062V14.3311Z" fill="#B8B8B8"/>
<path d="M92.8152 14.3311H99.7939L108.108 28.722C108.538 29.5233 110.029 32.3704 110.029 32.3704H110.108C110.108 32.3704 110.029 28.9227 110.029 27.9208V14.3311H116.81V42.993H109.831L101.598 28.8023C101.128 28.0408 99.5964 24.9536 99.5964 24.9536H99.5194C99.5194 24.9536 99.5964 28.6418 99.5964 29.6441V42.993H92.8152V14.3311Z" fill="black"/>
<path d="M92.8152 14.3311H99.7939L108.108 28.722C108.538 29.5233 110.029 32.3704 110.029 32.3704H110.108C110.108 32.3704 110.029 28.9227 110.029 27.9208V14.3311H116.81V42.993H109.831L101.598 28.8023C101.128 28.0408 99.5964 24.9536 99.5964 24.9536H99.5194C99.5194 24.9536 99.5964 28.6418 99.5964 29.6441V42.993H92.8152V14.3311Z" fill="#B8B8B8"/>
<path d="M137.905 14.3311H130.965V42.993H137.905V14.3311Z" fill="black"/>
<path d="M137.905 14.3311H130.965V42.993H137.905V14.3311Z" fill="#B8B8B8"/>
<path d="M149.864 28.762C149.864 20.2224 155.315 13.7686 163.665 13.7686C166.918 13.7686 169.664 14.7315 171.664 16.2942C174.096 18.1784 175.506 20.9839 175.86 24.1908H168.918C168.567 21.6254 166.605 19.6609 163.625 19.6609C159.078 19.6609 156.922 23.5505 156.922 28.7612C156.922 34.0129 159.509 37.8211 163.665 37.8211C166.763 37.8211 168.802 35.8141 169.115 33.0499H176.054C175.856 35.8378 174.654 38.4517 172.681 40.3865C170.526 42.5116 167.662 43.6331 163.703 43.6331C155.469 43.6331 149.863 37.3398 149.863 28.7612" fill="black"/>
<path d="M149.864 28.762C149.864 20.2224 155.315 13.7686 163.665 13.7686C166.918 13.7686 169.664 14.7315 171.664 16.2942C174.096 18.1784 175.506 20.9839 175.86 24.1908H168.918C168.567 21.6254 166.605 19.6609 163.625 19.6609C159.078 19.6609 156.922 23.5505 156.922 28.7612C156.922 34.0129 159.509 37.8211 163.665 37.8211C166.763 37.8211 168.802 35.8141 169.115 33.0499H176.054C175.856 35.8378 174.654 38.4517 172.681 40.3865C170.526 42.5116 167.662 43.6331 163.703 43.6331C155.469 43.6331 149.863 37.3398 149.863 28.7612" fill="#B8B8B8"/>
<path d="M224.875 23.9034C224.38 22.9558 223.613 22.1857 222.677 21.6961C221.722 21.1869 220.598 20.9325 219.307 20.9331C217.074 20.9331 215.285 21.6826 213.94 23.1817C212.595 24.6808 211.922 26.682 211.922 29.1854C211.922 31.853 212.628 33.9365 214.039 35.4358C215.451 36.9352 217.394 37.6844 219.871 37.6836C221.564 37.6836 222.997 37.2437 224.168 36.3637C225.339 35.4838 226.194 34.2184 226.731 32.5674H217.975V27.3692H232.987V33.9298C232.476 35.6899 231.608 37.3266 230.385 38.8398C229.161 40.3531 227.607 41.5768 225.723 42.5111C223.84 43.4464 221.714 43.914 219.347 43.914C216.549 43.914 214.054 43.288 211.862 42.0361C209.669 40.7841 207.961 39.0443 206.736 36.8167C205.512 34.5891 204.9 32.0453 204.9 29.1854C204.9 26.3255 205.512 23.7741 206.736 21.5312C207.961 19.2897 209.662 17.5432 211.841 16.2918C214.02 15.0404 216.509 14.4148 219.308 14.415C222.698 14.415 225.557 15.2546 227.884 16.9336C230.212 18.6127 231.752 20.937 232.503 23.9066L224.875 23.9034Z" fill="black"/>
<path d="M224.875 23.9034C224.38 22.9558 223.613 22.1857 222.677 21.6961C221.722 21.1869 220.598 20.9325 219.307 20.9331C217.074 20.9331 215.285 21.6826 213.94 23.1817C212.595 24.6808 211.922 26.682 211.922 29.1854C211.922 31.853 212.628 33.9365 214.039 35.4358C215.451 36.9352 217.394 37.6844 219.871 37.6836C221.564 37.6836 222.997 37.2437 224.168 36.3637C225.339 35.4838 226.194 34.2184 226.731 32.5674H217.975V27.3692H232.987V33.9298C232.476 35.6899 231.608 37.3266 230.385 38.8398C229.161 40.3531 227.607 41.5768 225.723 42.5111C223.84 43.4464 221.714 43.914 219.347 43.914C216.549 43.914 214.054 43.288 211.862 42.0361C209.669 40.7841 207.961 39.0443 206.736 36.8167C205.512 34.5891 204.9 32.0453 204.9 29.1854C204.9 26.3255 205.512 23.7741 206.736 21.5312C207.961 19.2897 209.662 17.5432 211.841 16.2918C214.02 15.0404 216.509 14.4148 219.308 14.415C222.698 14.415 225.557 15.2546 227.884 16.9336C230.212 18.6127 231.752 20.937 232.503 23.9066L224.875 23.9034Z" fill="#B8B8B8"/>
<path d="M260.55 43.7084L254.658 32.7742H253.003V43.7084H246.103V14.7446H257.685C259.917 14.7446 261.821 15.1433 263.395 15.9406C264.969 16.7379 266.146 17.8315 266.926 19.2214C267.706 20.6103 268.096 22.1574 268.095 23.8627C268.095 25.7881 267.564 27.5073 266.502 29.0203C265.44 30.5333 263.872 31.6061 261.8 32.2386L268.338 43.7084H260.55ZM253.003 27.7834H257.28C258.545 27.7834 259.493 27.467 260.126 26.8342C260.758 26.2015 261.074 25.3076 261.074 24.1527C261.074 23.0527 260.758 22.1861 260.126 21.5531C259.494 20.92 258.545 20.6038 257.28 20.6043H253.003V27.7834Z" fill="black"/>
<path d="M260.55 43.7084L254.658 32.7742H253.003V43.7084H246.103V14.7446H257.685C259.917 14.7446 261.821 15.1433 263.395 15.9406C264.969 16.7379 266.146 17.8315 266.926 19.2214C267.706 20.6103 268.096 22.1574 268.095 23.8627C268.095 25.7881 267.564 27.5073 266.502 29.0203C265.44 30.5333 263.872 31.6061 261.8 32.2386L268.338 43.7084H260.55ZM253.003 27.7834H257.28C258.545 27.7834 259.493 27.467 260.126 26.8342C260.758 26.2015 261.074 25.3076 261.074 24.1527C261.074 23.0527 260.758 22.1861 260.126 21.5531C259.494 20.92 258.545 20.6038 257.28 20.6043H253.003V27.7834Z" fill="#B8B8B8"/>
<path d="M287.768 42.0992C285.549 40.8344 283.787 39.0664 282.481 36.7952C281.175 34.524 280.523 31.973 280.524 29.1422C280.524 26.3088 281.176 23.764 282.481 21.5078C283.786 19.2515 285.548 17.4911 287.767 16.2266C289.987 14.9618 292.429 14.3291 295.092 14.3286C297.754 14.3281 300.196 14.9617 302.419 16.2294C304.639 17.4955 306.388 19.2559 307.665 21.5105C308.943 23.7652 309.581 26.31 309.582 29.145C309.582 31.9784 308.936 34.5294 307.646 36.798C306.355 39.0665 304.606 40.834 302.399 42.1004C300.192 43.3652 297.757 43.998 295.095 43.9988C292.432 43.9996 289.99 43.3664 287.768 42.0992ZM300.521 35.2518C301.879 33.7107 302.558 31.6751 302.559 29.145C302.559 26.5865 301.879 24.5441 300.521 23.0177C299.163 21.4914 297.353 20.7283 295.094 20.7286C292.807 20.7286 290.984 21.4849 289.626 22.9977C288.268 24.5104 287.588 26.5595 287.588 29.145C287.588 31.704 288.267 33.7463 289.626 35.2719C290.984 36.7974 292.807 37.5609 295.094 37.5622C297.353 37.5614 299.162 36.7909 300.521 35.2506V35.2518Z" fill="black"/>
<path d="M287.768 42.0992C285.549 40.8344 283.787 39.0664 282.481 36.7952C281.175 34.524 280.523 31.973 280.524 29.1422C280.524 26.3088 281.176 23.764 282.481 21.5078C283.786 19.2515 285.548 17.4911 287.767 16.2266C289.987 14.9618 292.429 14.3291 295.092 14.3286C297.754 14.3281 300.196 14.9617 302.419 16.2294C304.639 17.4955 306.388 19.2559 307.665 21.5105C308.943 23.7652 309.581 26.31 309.582 29.145C309.582 31.9784 308.936 34.5294 307.646 36.798C306.355 39.0665 304.606 40.834 302.399 42.1004C300.192 43.3652 297.757 43.998 295.095 43.9988C292.432 43.9996 289.99 43.3664 287.768 42.0992ZM300.521 35.2518C301.879 33.7107 302.558 31.6751 302.559 29.145C302.559 26.5865 301.879 24.5441 300.521 23.0177C299.163 21.4914 297.353 20.7283 295.094 20.7286C292.807 20.7286 290.984 21.4849 289.626 22.9977C288.268 24.5104 287.588 26.5595 287.588 29.145C287.588 31.704 288.267 33.7463 289.626 35.2719C290.984 36.7974 292.807 37.5609 295.094 37.5622C297.353 37.5614 299.162 36.7909 300.521 35.2506V35.2518Z" fill="#B8B8B8"/>
<path d="M329.477 14.7446V32.0729C329.477 33.8044 329.894 35.1386 330.728 36.0755C331.561 37.0124 332.786 37.4799 334.401 37.478C336.015 37.478 337.252 37.0105 338.113 36.0755C338.974 35.1405 339.404 33.8063 339.403 32.0729V14.7446H346.303V32.0336C346.303 34.6183 345.765 36.8048 344.689 38.5933C343.612 40.3818 342.166 41.7291 340.351 42.6352C338.535 43.543 336.51 43.9968 334.278 43.9968C332.045 43.9968 330.047 43.5508 328.284 42.6588C326.521 41.764 325.128 40.4156 324.107 38.6138C323.086 36.8119 322.575 34.6185 322.574 32.0336V14.7446H329.477Z" fill="black"/>
<path d="M329.477 14.7446V32.0729C329.477 33.8044 329.894 35.1386 330.728 36.0755C331.561 37.0124 332.786 37.4799 334.401 37.478C336.015 37.478 337.252 37.0105 338.113 36.0755C338.974 35.1405 339.404 33.8063 339.403 32.0729V14.7446H346.303V32.0336C346.303 34.6183 345.765 36.8048 344.689 38.5933C343.612 40.3818 342.166 41.7291 340.351 42.6352C338.535 43.543 336.51 43.9968 334.278 43.9968C332.045 43.9968 330.047 43.5508 328.284 42.6588C326.521 41.764 325.128 40.4156 324.107 38.6138C323.086 36.8119 322.575 34.6185 322.574 32.0336V14.7446H329.477Z" fill="#B8B8B8"/>
<path d="M380.887 28.6689C380.132 30.0594 378.975 31.1805 377.415 32.0324C375.855 32.8842 373.918 33.3107 371.603 33.3117H367.327V43.7084H360.427V14.7446H371.604C373.864 14.7446 375.774 15.1433 377.334 15.9406C378.894 16.7379 380.065 17.8382 380.846 19.2415C381.626 20.6446 382.016 22.2537 382.016 24.0689C382.016 25.7469 381.64 27.2802 380.887 28.6689ZM374.026 26.7512C374.671 26.1189 374.994 25.2248 374.995 24.0689C374.996 22.913 374.673 22.0192 374.026 21.3874C373.38 20.7549 372.398 20.4385 371.08 20.4382H367.327V27.6992H371.08C372.398 27.6992 373.38 27.3832 374.026 26.7512Z" fill="black"/>
<path d="M380.887 28.6689C380.132 30.0594 378.975 31.1805 377.415 32.0324C375.855 32.8842 373.918 33.3107 371.603 33.3117H367.327V43.7084H360.427V14.7446H371.604C373.864 14.7446 375.774 15.1433 377.334 15.9406C378.894 16.7379 380.065 17.8382 380.846 19.2415C381.626 20.6446 382.016 22.2537 382.016 24.0689C382.016 25.7469 381.64 27.2802 380.887 28.6689ZM374.026 26.7512C374.671 26.1189 374.994 25.2248 374.995 24.0689C374.996 22.913 374.673 22.0192 374.026 21.3874C373.38 20.7549 372.398 20.4385 371.08 20.4382H367.327V27.6992H371.08C372.398 27.6992 373.38 27.3832 374.026 26.7512Z" fill="#B8B8B8"/>
<path d="M399.568 42.9665C397.928 42.2778 396.616 41.2596 395.634 39.9119C394.651 38.5642 394.133 36.9417 394.08 35.0444H401.425C401.531 36.1161 401.895 36.9341 402.514 37.4984C403.134 38.0627 403.942 38.345 404.936 38.3453C405.958 38.3453 406.764 38.1041 407.357 37.6216C407.949 37.1391 408.245 36.4728 408.244 35.6225C408.244 34.9062 408.009 34.3146 407.539 33.8476C407.068 33.3807 406.49 32.9953 405.803 32.6915C405.118 32.3895 404.143 32.0458 402.877 31.6604C401.048 31.0832 399.554 30.5061 398.397 29.9289C397.24 29.3517 396.245 28.4991 395.412 27.3709C394.578 26.2428 394.16 24.7712 394.16 22.9559C394.16 20.2605 395.115 18.1495 397.025 16.6229C398.935 15.0962 401.424 14.3328 404.492 14.3325C407.612 14.3325 410.128 15.096 412.039 16.6229C413.95 18.1498 414.972 20.2748 415.105 22.998H407.638C407.584 22.0628 407.248 21.3268 406.63 20.7903C406.012 20.2538 405.218 19.9857 404.249 19.986C403.413 19.986 402.741 20.2126 402.23 20.666C401.72 21.1193 401.465 21.7727 401.463 22.6262C401.463 23.5625 401.894 24.2914 402.755 24.813C403.616 25.3346 404.961 25.8986 406.792 26.5052C408.619 27.1374 410.106 27.7426 411.25 28.3205C412.395 28.8985 413.384 29.7374 414.216 30.8371C415.05 31.939 415.467 33.3557 415.468 35.0873C415.468 36.7385 415.057 38.2377 414.236 39.5849C413.415 40.9321 412.225 42.0049 410.665 42.8032C409.104 43.6002 407.261 43.9991 405.137 43.9999C403.067 43.9978 401.211 43.6534 399.568 42.9665Z" fill="black"/>
<path d="M399.568 42.9665C397.928 42.2778 396.616 41.2596 395.634 39.9119C394.651 38.5642 394.133 36.9417 394.08 35.0444H401.425C401.531 36.1161 401.895 36.9341 402.514 37.4984C403.134 38.0627 403.942 38.345 404.936 38.3453C405.958 38.3453 406.764 38.1041 407.357 37.6216C407.949 37.1391 408.245 36.4728 408.244 35.6225C408.244 34.9062 408.009 34.3146 407.539 33.8476C407.068 33.3807 406.49 32.9953 405.803 32.6915C405.118 32.3895 404.143 32.0458 402.877 31.6604C401.048 31.0832 399.554 30.5061 398.397 29.9289C397.24 29.3517 396.245 28.4991 395.412 27.3709C394.578 26.2428 394.16 24.7712 394.16 22.9559C394.16 20.2605 395.115 18.1495 397.025 16.6229C398.935 15.0962 401.424 14.3328 404.492 14.3325C407.612 14.3325 410.128 15.096 412.039 16.6229C413.95 18.1498 414.972 20.2748 415.105 22.998H407.638C407.584 22.0628 407.248 21.3268 406.63 20.7903C406.012 20.2538 405.218 19.9857 404.249 19.986C403.413 19.986 402.741 20.2126 402.23 20.666C401.72 21.1193 401.465 21.7727 401.463 22.6262C401.463 23.5625 401.894 24.2914 402.755 24.813C403.616 25.3346 404.961 25.8986 406.792 26.5052C408.619 27.1374 410.106 27.7426 411.25 28.3205C412.395 28.8985 413.384 29.7374 414.216 30.8371C415.05 31.939 415.467 33.3557 415.468 35.0873C415.468 36.7385 415.057 38.2377 414.236 39.5849C413.415 40.9321 412.225 42.0049 410.665 42.8032C409.104 43.6002 407.261 43.9991 405.137 43.9999C403.067 43.9978 401.211 43.6534 399.568 42.9665Z" fill="#B8B8B8"/>
</svg>
