<svg width="304" height="44" viewBox="0 0 304 44" fill="none" xmlns="http://www.w3.org/2000/svg">
<path d="M31.6527 8.77994C31.6528 9.27258 31.5067 9.75418 31.2331 10.1638C30.9594 10.5735 30.5704 10.8927 30.1153 11.0813C29.6601 11.2698 29.1593 11.3191 28.6761 11.223C28.1929 11.1269 27.7491 10.8897 27.4008 10.5413C27.0525 10.1929 26.8153 9.74907 26.7192 9.26588C26.6231 8.7827 26.6725 8.28187 26.8611 7.82676C27.0497 7.37164 27.369 6.98267 27.7787 6.70905C28.1884 6.43543 28.67 6.28944 29.1626 6.28955C29.4897 6.28951 29.8135 6.35391 30.1157 6.47905C30.4178 6.60419 30.6923 6.78764 30.9236 7.0189C31.1548 7.25017 31.3382 7.52472 31.4633 7.82689C31.5884 8.12905 31.6528 8.4529 31.6527 8.77994Z" fill="black"/>
<path d="M31.6527 8.77994C31.6528 9.27258 31.5067 9.75418 31.2331 10.1638C30.9594 10.5735 30.5704 10.8927 30.1153 11.0813C29.6601 11.2698 29.1593 11.3191 28.6761 11.223C28.1929 11.1269 27.7491 10.8897 27.4008 10.5413C27.0525 10.1929 26.8153 9.74907 26.7192 9.26588C26.6231 8.7827 26.6725 8.28187 26.8611 7.82676C27.0497 7.37164 27.369 6.98267 27.7787 6.70905C28.1884 6.43543 28.67 6.28944 29.1626 6.28955C29.4897 6.28951 29.8135 6.35391 30.1157 6.47905C30.4178 6.60419 30.6923 6.78764 30.9236 7.0189C31.1548 7.25017 31.3382 7.52472 31.4633 7.82689C31.5884 8.12905 31.6528 8.4529 31.6527 8.77994Z" fill="#B8B8B8"/>
<path d="M101.159 8.77994C101.159 9.27241 101.013 9.75381 100.739 10.1633C100.466 10.5727 100.077 10.8918 99.6216 11.0803C99.1666 11.2687 98.666 11.318 98.183 11.2219C97.7 11.1258 97.2563 10.8887 96.908 10.5404C96.5598 10.1922 96.3227 9.74853 96.2266 9.26552C96.1305 8.78252 96.1798 8.28186 96.3682 7.82687C96.5566 7.37187 96.8758 6.98296 97.2852 6.70933C97.6947 6.43569 98.1761 6.28961 98.6685 6.28955C98.9956 6.28951 99.3195 6.3539 99.6216 6.47905C99.9238 6.60419 100.198 6.78763 100.43 7.01889C100.661 7.25015 100.844 7.5247 100.969 7.82687C101.095 8.12903 101.159 8.45289 101.159 8.77994Z" fill="black"/>
<path d="M101.159 8.77994C101.159 9.27241 101.013 9.75381 100.739 10.1633C100.466 10.5727 100.077 10.8918 99.6216 11.0803C99.1666 11.2687 98.666 11.318 98.183 11.2219C97.7 11.1258 97.2563 10.8887 96.908 10.5404C96.5598 10.1922 96.3227 9.74853 96.2266 9.26552C96.1305 8.78252 96.1798 8.28186 96.3682 7.82687C96.5566 7.37187 96.8758 6.98296 97.2852 6.70933C97.6947 6.43569 98.1761 6.28961 98.6685 6.28955C98.9956 6.28951 99.3195 6.3539 99.6216 6.47905C99.9238 6.60419 100.198 6.78763 100.43 7.01889C100.661 7.25015 100.844 7.5247 100.969 7.82687C101.095 8.12903 101.159 8.45289 101.159 8.77994Z" fill="#B8B8B8"/>
<path d="M40.4282 26.8284C40.4282 20.7303 44.4072 16.1216 50.5041 16.1216C52.879 16.1216 54.8833 16.8092 56.3434 17.9252C58.1186 19.2707 59.1489 21.2741 59.4065 23.5641H54.3395C54.0821 21.7321 52.65 20.3293 50.4738 20.3293C47.1544 20.3293 45.5807 23.1069 45.5807 26.8278C45.5807 30.578 47.4691 33.2975 50.5041 33.2975C52.7649 33.2975 54.2535 31.8643 54.4825 29.8904H59.5493C59.4048 31.8812 58.5275 33.7479 57.0867 35.1294C55.513 36.6469 53.4228 37.4478 50.532 37.4478C44.5207 37.4478 40.4282 32.9538 40.4282 26.8278" fill="black"/>
<path d="M40.4282 26.8284C40.4282 20.7303 44.4072 16.1216 50.5041 16.1216C52.879 16.1216 54.8833 16.8092 56.3434 17.9252C58.1186 19.2707 59.1489 21.2741 59.4065 23.5641H54.3395C54.0821 21.7321 52.65 20.3293 50.4738 20.3293C47.1544 20.3293 45.5807 23.1069 45.5807 26.8278C45.5807 30.578 47.4691 33.2975 50.5041 33.2975C52.7649 33.2975 54.2535 31.8643 54.4825 29.8904H59.5493C59.4048 31.8812 58.5275 33.7479 57.0867 35.1294C55.513 36.6469 53.4228 37.4478 50.532 37.4478C44.5207 37.4478 40.4282 32.9538 40.4282 26.8278" fill="#B8B8B8"/>
<path d="M0.515869 16.5234H9.73328C12.2237 16.5234 14.057 17.2105 15.316 18.4127C16.6331 19.6442 17.3781 21.3915 17.3781 23.4511C17.377 27.3722 14.6581 30.1481 10.4499 30.1481H5.66779V36.9909H0.515869V16.5234ZM9.41798 26.1413C11.2511 26.1413 12.2813 25.054 12.2813 23.4227C12.2813 21.7914 11.2227 20.7901 9.41798 20.7901H5.66779V26.1413H9.41798Z" fill="black"/>
<path d="M0.515869 16.5234H9.73328C12.2237 16.5234 14.057 17.2105 15.316 18.4127C16.6331 19.6442 17.3781 21.3915 17.3781 23.4511C17.377 27.3722 14.6581 30.1481 10.4499 30.1481H5.66779V36.9909H0.515869V16.5234ZM9.41798 26.1413C11.2511 26.1413 12.2813 25.054 12.2813 23.4227C12.2813 21.7914 11.2227 20.7901 9.41798 20.7901H5.66779V26.1413H9.41798Z" fill="#B8B8B8"/>
<path d="M31.6958 16.5234H26.629V36.9909H31.6958V16.5234Z" fill="black"/>
<path d="M31.6958 16.5234H26.629V36.9909H31.6958V16.5234Z" fill="#B8B8B8"/>
<path d="M68.2805 16.5234H73.3757L79.4457 26.8C79.7601 27.3722 80.8482 29.4053 80.8482 29.4053H80.9061C80.9061 29.4053 80.8482 26.9433 80.8482 26.2279V16.5234H85.7995V36.9909H80.7038L74.6928 26.8573C74.3497 26.3136 73.2315 24.109 73.2315 24.109H73.1753C73.1753 24.109 73.2315 26.7427 73.2315 27.4584V36.9909H68.2805V16.5234Z" fill="black"/>
<path d="M68.2805 16.5234H73.3757L79.4457 26.8C79.7601 27.3722 80.8482 29.4053 80.8482 29.4053H80.9061C80.9061 29.4053 80.8482 26.9433 80.8482 26.2279V16.5234H85.7995V36.9909H80.7038L74.6928 26.8573C74.3497 26.3136 73.2315 24.109 73.2315 24.109H73.1753C73.1753 24.109 73.2315 26.7427 73.2315 27.4584V36.9909H68.2805V16.5234Z" fill="#B8B8B8"/>
<path d="M101.201 16.5234H96.134V36.9909H101.201V16.5234Z" fill="black"/>
<path d="M101.201 16.5234H96.134V36.9909H101.201V16.5234Z" fill="#B8B8B8"/>
<path d="M109.932 26.8284C109.932 20.7303 113.912 16.1216 120.008 16.1216C122.384 16.1216 124.388 16.8092 125.849 17.9252C127.624 19.2707 128.654 21.2741 128.912 23.5641H123.844C123.587 21.7321 122.155 20.3293 119.979 20.3293C116.66 20.3293 115.085 23.1069 115.085 26.8278C115.085 30.578 116.974 33.2975 120.008 33.2975C122.27 33.2975 123.759 31.8643 123.987 29.8904H129.054C128.909 31.8812 128.032 33.7478 126.591 35.1294C125.017 36.6469 122.927 37.4478 120.036 37.4478C114.024 37.4478 109.932 32.9538 109.932 26.8278" fill="black"/>
<path d="M109.932 26.8284C109.932 20.7303 113.912 16.1216 120.008 16.1216C122.384 16.1216 124.388 16.8092 125.849 17.9252C127.624 19.2707 128.654 21.2741 128.912 23.5641H123.844C123.587 21.7321 122.155 20.3293 119.979 20.3293C116.66 20.3293 115.085 23.1069 115.085 26.8278C115.085 30.578 116.974 33.2975 120.008 33.2975C122.27 33.2975 123.759 31.8643 123.987 29.8904H129.054C128.909 31.8812 128.032 33.7478 126.591 35.1294C125.017 36.6469 122.927 37.4478 120.036 37.4478C114.024 37.4478 109.932 32.9538 109.932 26.8278" fill="#B8B8B8"/>
<path d="M164.698 23.3587C164.336 22.682 163.776 22.132 163.093 21.7824C162.395 21.4188 161.575 21.2371 160.632 21.2375C159.002 21.2375 157.696 21.7728 156.714 22.8433C155.732 23.9138 155.241 25.3428 155.241 27.1305C155.241 29.0354 155.756 30.5232 156.787 31.5939C157.817 32.6646 159.236 33.1997 161.044 33.1991C162.28 33.1991 163.326 32.8849 164.182 32.2566C165.037 31.6282 165.66 30.7245 166.053 29.5456H159.66V25.8336H170.62V30.5184C170.247 31.7754 169.614 32.9441 168.72 34.0247C167.827 35.1053 166.692 35.9792 165.317 36.6463C163.942 37.3142 162.39 37.6482 160.662 37.6482C158.619 37.6482 156.797 37.2012 155.197 36.3072C153.596 35.4131 152.349 34.1708 151.454 32.58C150.561 30.9892 150.114 29.1727 150.114 27.1305C150.114 25.0882 150.561 23.2663 151.454 21.6647C152.348 20.064 153.591 18.8168 155.182 17.9232C156.772 17.0295 158.59 16.5828 160.633 16.583C163.108 16.583 165.195 17.1825 166.895 18.3815C168.594 19.5805 169.718 21.2403 170.267 23.3609L164.698 23.3587Z" fill="black"/>
<path d="M164.698 23.3587C164.336 22.682 163.776 22.132 163.093 21.7824C162.395 21.4188 161.575 21.2371 160.632 21.2375C159.002 21.2375 157.696 21.7728 156.714 22.8433C155.732 23.9138 155.241 25.3428 155.241 27.1305C155.241 29.0354 155.756 30.5232 156.787 31.5939C157.817 32.6646 159.236 33.1997 161.044 33.1991C162.28 33.1991 163.326 32.8849 164.182 32.2566C165.037 31.6282 165.66 30.7245 166.053 29.5456H159.66V25.8336H170.62V30.5184C170.247 31.7754 169.614 32.9441 168.72 34.0247C167.827 35.1053 166.692 35.9792 165.317 36.6463C163.942 37.3142 162.39 37.6482 160.662 37.6482C158.619 37.6482 156.797 37.2012 155.197 36.3072C153.596 35.4131 152.349 34.1708 151.454 32.58C150.561 30.9892 150.114 29.1727 150.114 27.1305C150.114 25.0882 150.561 23.2663 151.454 21.6647C152.348 20.064 153.591 18.8168 155.182 17.9232C156.772 17.0295 158.59 16.5828 160.633 16.583C163.108 16.583 165.195 17.1825 166.895 18.3815C168.594 19.5805 169.718 21.2403 170.267 23.3609L164.698 23.3587Z" fill="#B8B8B8"/>
<path d="M190.744 37.5018L186.442 29.6937H185.233V37.5018H180.196V16.8188H188.652C190.282 16.8188 191.671 17.1035 192.821 17.6729C193.97 18.2422 194.83 19.0232 195.399 20.0157C195.968 21.0075 196.253 22.1123 196.253 23.3301C196.253 24.705 195.865 25.9327 195.089 27.0131C194.314 28.0935 193.169 28.8596 191.657 29.3113L196.43 37.5018H190.744ZM185.234 26.1298H188.357C189.28 26.1298 189.972 25.9039 190.434 25.452C190.896 25.0001 191.126 24.3619 191.126 23.5372C191.126 22.7516 190.895 22.1328 190.434 21.6808C189.972 21.2287 189.28 21.0028 188.357 21.0032H185.234V26.1298Z" fill="black"/>
<path d="M190.744 37.5018L186.442 29.6937H185.233V37.5018H180.196V16.8188H188.652C190.282 16.8188 191.671 17.1035 192.821 17.6729C193.97 18.2422 194.83 19.0232 195.399 20.0157C195.968 21.0075 196.253 22.1123 196.253 23.3301C196.253 24.705 195.865 25.9327 195.089 27.0131C194.314 28.0935 193.169 28.8596 191.657 29.3113L196.43 37.5018H190.744ZM185.234 26.1298H188.357C189.28 26.1298 189.972 25.9039 190.434 25.452C190.896 25.0001 191.126 24.3619 191.126 23.5372C191.126 22.7516 190.895 22.1328 190.434 21.6808C189.972 21.2287 189.28 21.0028 188.357 21.0032H185.234V26.1298Z" fill="#B8B8B8"/>
<path d="M210.616 36.3529C208.996 35.4497 207.709 34.1872 206.756 32.5653C205.802 30.9435 205.326 29.1218 205.327 27.1004C205.327 25.077 205.803 23.2598 206.756 21.6486C207.708 20.0374 208.995 18.7803 210.615 17.8773C212.236 16.9741 214.019 16.5223 215.963 16.522C217.907 16.5216 219.69 16.974 221.312 17.8793C222.933 18.7834 224.21 20.0405 225.143 21.6506C226.075 23.2606 226.542 25.0779 226.542 27.1023C226.542 29.1257 226.071 30.9473 225.128 32.5673C224.186 34.1873 222.909 35.4494 221.298 36.3537C219.687 37.2569 217.909 37.7088 215.965 37.7094C214.021 37.7099 212.238 37.2578 210.616 36.3529ZM219.927 31.4632C220.918 30.3627 221.414 28.9091 221.414 27.1023C221.414 25.2753 220.919 23.8168 219.927 22.7269C218.935 21.6369 217.614 21.092 215.964 21.0922C214.295 21.0922 212.964 21.6323 211.972 22.7125C210.981 23.7928 210.485 25.256 210.484 27.1023C210.484 28.9297 210.98 30.3881 211.972 31.4775C212.964 32.5669 214.295 33.1121 215.964 33.113C217.614 33.1125 218.935 32.5622 219.927 31.4623V31.4632Z" fill="black"/>
<path d="M210.616 36.3529C208.996 35.4497 207.709 34.1872 206.756 32.5653C205.802 30.9435 205.326 29.1218 205.327 27.1004C205.327 25.077 205.803 23.2598 206.756 21.6486C207.708 20.0374 208.995 18.7803 210.615 17.8773C212.236 16.9741 214.019 16.5223 215.963 16.522C217.907 16.5216 219.69 16.974 221.312 17.8793C222.933 18.7834 224.21 20.0405 225.143 21.6506C226.075 23.2606 226.542 25.0779 226.542 27.1023C226.542 29.1257 226.071 30.9473 225.128 32.5673C224.186 34.1873 222.909 35.4494 221.298 36.3537C219.687 37.2569 217.909 37.7088 215.965 37.7094C214.021 37.7099 212.238 37.2578 210.616 36.3529ZM219.927 31.4632C220.918 30.3627 221.414 28.9091 221.414 27.1023C221.414 25.2753 220.919 23.8168 219.927 22.7269C218.935 21.6369 217.614 21.092 215.964 21.0922C214.295 21.0922 212.964 21.6323 211.972 22.7125C210.981 23.7928 210.485 25.256 210.484 27.1023C210.484 28.9297 210.98 30.3881 211.972 31.4775C212.964 32.5669 214.295 33.1121 215.964 33.113C217.614 33.1125 218.935 32.5622 219.927 31.4623V31.4632Z" fill="#B8B8B8"/>
<path d="M241.068 16.8188V29.1929C241.068 30.4294 241.372 31.3822 241.981 32.0512C242.59 32.7202 243.483 33.0541 244.662 33.0527C245.841 33.0527 246.745 32.7189 247.373 32.0512C248.002 31.3835 248.315 30.4307 248.315 29.1929V16.8188H253.352V29.1648C253.352 31.0106 252.959 32.572 252.174 33.8491C251.388 35.1263 250.332 36.0884 249.007 36.7355C247.681 37.3837 246.203 37.7078 244.573 37.7078C242.943 37.7078 241.484 37.3893 240.197 36.7524C238.909 36.1133 237.893 35.1505 237.147 33.8638C236.401 32.5771 236.028 31.0108 236.028 29.1648V16.8188H241.068Z" fill="black"/>
<path d="M241.068 16.8188V29.1929C241.068 30.4294 241.372 31.3822 241.981 32.0512C242.59 32.7202 243.483 33.0541 244.662 33.0527C245.841 33.0527 246.745 32.7189 247.373 32.0512C248.002 31.3835 248.315 30.4307 248.315 29.1929V16.8188H253.352V29.1648C253.352 31.0106 252.959 32.572 252.174 33.8491C251.388 35.1263 250.332 36.0884 249.007 36.7355C247.681 37.3837 246.203 37.7078 244.573 37.7078C242.943 37.7078 241.484 37.3893 240.197 36.7524C238.909 36.1133 237.893 35.1505 237.147 33.8638C236.401 32.5771 236.028 31.0108 236.028 29.1648V16.8188H241.068Z" fill="#B8B8B8"/>
<path d="M278.602 26.7621C278.051 27.7551 277.206 28.5557 276.067 29.164C274.928 29.7723 273.514 30.0768 271.824 30.0776H268.702V37.5018H263.664V16.8188H271.825C273.475 16.8188 274.87 17.1035 276.008 17.6729C277.147 18.2422 278.002 19.0279 278.572 20.03C279.142 21.032 279.427 22.1811 279.427 23.4773C279.427 24.6756 279.152 25.7705 278.602 26.7621ZM273.593 25.3927C274.064 24.9412 274.3 24.3028 274.301 23.4773C274.301 22.6519 274.066 22.0136 273.593 21.5624C273.121 21.1108 272.404 20.8848 271.442 20.8846H268.702V26.0697H271.442C272.405 26.0697 273.122 25.844 273.593 25.3927Z" fill="black"/>
<path d="M278.602 26.7621C278.051 27.7551 277.206 28.5557 276.067 29.164C274.928 29.7723 273.514 30.0768 271.824 30.0776H268.702V37.5018H263.664V16.8188H271.825C273.475 16.8188 274.87 17.1035 276.008 17.6729C277.147 18.2422 278.002 19.0279 278.572 20.03C279.142 21.032 279.427 22.1811 279.427 23.4773C279.427 24.6756 279.152 25.7705 278.602 26.7621ZM273.593 25.3927C274.064 24.9412 274.3 24.3028 274.301 23.4773C274.301 22.6519 274.066 22.0136 273.593 21.5624C273.121 21.1108 272.404 20.8848 271.442 20.8846H268.702V26.0697H271.442C272.405 26.0697 273.122 25.844 273.593 25.3927Z" fill="#B8B8B8"/>
<path d="M292.241 36.9719C291.044 36.4801 290.086 35.753 289.369 34.7906C288.652 33.8282 288.273 32.6696 288.234 31.3147H293.597C293.675 32.08 293.94 32.6642 294.392 33.0671C294.845 33.4701 295.434 33.6717 296.161 33.6719C296.906 33.6719 297.495 33.4996 297.928 33.1551C298.36 32.8106 298.576 32.3347 298.576 31.7275C298.576 31.2161 298.404 30.7936 298.06 30.4601C297.717 30.1267 297.295 29.8514 296.793 29.6345C296.293 29.4189 295.582 29.1734 294.657 28.8982C293.322 28.4861 292.231 28.0739 291.386 27.6618C290.541 27.2496 289.815 26.6407 289.207 25.8351C288.598 25.0295 288.293 23.9786 288.293 22.6824C288.293 20.7576 288.99 19.2501 290.384 18.1599C291.779 17.0698 293.596 16.5246 295.836 16.5244C298.114 16.5244 299.951 17.0696 301.346 18.1599C302.741 19.2503 303.488 20.7678 303.585 22.7124H298.133C298.094 22.0446 297.848 21.5191 297.397 21.1359C296.946 20.7528 296.366 20.5613 295.659 20.5615C295.049 20.5615 294.557 20.7234 294.185 21.0471C293.813 21.3709 293.626 21.8374 293.625 22.4469C293.625 23.1155 293.939 23.6361 294.568 24.0085C295.196 24.381 296.179 24.7837 297.515 25.2169C298.85 25.6684 299.935 26.1005 300.77 26.5132C301.606 26.926 302.328 27.525 302.936 28.3103C303.545 29.0972 303.849 30.1089 303.849 31.3453C303.849 32.5245 303.55 33.5951 302.95 34.5571C302.351 35.5191 301.482 36.2852 300.343 36.8553C299.203 37.4244 297.858 37.7093 296.307 37.7099C294.796 37.7084 293.44 37.4624 292.241 36.9719Z" fill="black"/>
<path d="M292.241 36.9719C291.044 36.4801 290.086 35.753 289.369 34.7906C288.652 33.8282 288.273 32.6696 288.234 31.3147H293.597C293.675 32.08 293.94 32.6642 294.392 33.0671C294.845 33.4701 295.434 33.6717 296.161 33.6719C296.906 33.6719 297.495 33.4996 297.928 33.1551C298.36 32.8106 298.576 32.3347 298.576 31.7275C298.576 31.2161 298.404 30.7936 298.06 30.4601C297.717 30.1267 297.295 29.8514 296.793 29.6345C296.293 29.4189 295.582 29.1734 294.657 28.8982C293.322 28.4861 292.231 28.0739 291.386 27.6618C290.541 27.2496 289.815 26.6407 289.207 25.8351C288.598 25.0295 288.293 23.9786 288.293 22.6824C288.293 20.7576 288.99 19.2501 290.384 18.1599C291.779 17.0698 293.596 16.5246 295.836 16.5244C298.114 16.5244 299.951 17.0696 301.346 18.1599C302.741 19.2503 303.488 20.7678 303.585 22.7124H298.133C298.094 22.0446 297.848 21.5191 297.397 21.1359C296.946 20.7528 296.366 20.5613 295.659 20.5615C295.049 20.5615 294.557 20.7234 294.185 21.0471C293.813 21.3709 293.626 21.8374 293.625 22.4469C293.625 23.1155 293.939 23.6361 294.568 24.0085C295.196 24.381 296.179 24.7837 297.515 25.2169C298.85 25.6684 299.935 26.1005 300.77 26.5132C301.606 26.926 302.328 27.525 302.936 28.3103C303.545 29.0972 303.849 30.1089 303.849 31.3453C303.849 32.5245 303.55 33.5951 302.95 34.5571C302.351 35.5191 301.482 36.2852 300.343 36.8553C299.203 37.4244 297.858 37.7093 296.307 37.7099C294.796 37.7084 293.44 37.4624 292.241 36.9719Z" fill="#B8B8B8"/>
</svg>
