<svg width="108" height="44" viewBox="0 0 108 44" fill="none" xmlns="http://www.w3.org/2000/svg">
<g clip-path="url(#clip0_3575_3448)">
<mask id="mask0_3575_3448" style="mask-type:luminance" maskUnits="userSpaceOnUse" x="0" y="3" width="108" height="38">
<path d="M108 3.13672H0V40.8633H108V3.13672Z" fill="white"/>
</mask>
<g mask="url(#mask0_3575_3448)">
<path d="M67.3681 7.19092H58.4053V40.4411H67.3681V7.19092Z" fill="black"/>
<path d="M67.3681 7.19092H58.4053V40.4411H67.3681V7.19092Z" fill="#B8B8B8"/>
<path d="M94.1001 20.1476C93.5495 19.1226 92.7711 18.2378 91.8246 17.5612C90.7321 16.7677 89.5055 16.178 88.2036 15.8203C86.6436 15.3775 85.0278 15.1615 83.4063 15.1787C80.9294 15.1787 78.8617 15.5683 77.204 16.3475C75.5459 17.1268 74.2851 18.1547 73.4214 19.4313C72.5756 20.6755 72.0737 22.1212 71.9665 23.6218H80.2156C80.2432 23.2859 80.3427 22.9598 80.5071 22.6656C80.6712 22.3713 80.8968 22.1156 81.1681 21.9158C81.7906 21.5146 82.5222 21.3165 83.2621 21.3487C83.9388 21.3188 84.6083 21.5005 85.177 21.8685C85.4188 22.0324 85.6145 22.2557 85.7453 22.517C85.8759 22.7783 85.937 23.0688 85.9231 23.3607V23.4253C85.9286 23.6494 85.8796 23.8714 85.7804 24.0724C85.6811 24.2734 85.5346 24.4473 85.3536 24.5792C84.9756 24.8595 84.3588 25.0808 83.5033 25.2433C82.6478 25.4057 81.5277 25.5359 80.1435 25.6337C78.9252 25.7185 77.7192 25.9302 76.5449 26.2654C75.5007 26.5605 74.5171 27.0387 73.6402 27.678C72.8034 28.3 72.1336 29.1191 71.6904 30.0629C71.1998 31.1564 70.9618 32.3464 70.9941 33.5446C70.9941 35.2027 71.3405 36.5662 72.0336 37.6356C72.7228 38.7055 73.7185 39.5428 74.8911 40.038C77.1861 40.927 79.7033 41.0681 82.0833 40.4409C82.9654 40.1954 83.7881 39.7724 84.5006 39.1974C85.2534 38.5769 85.8721 37.8094 86.3185 36.9418H86.515V40.4409H94.8934V23.3607C94.9029 22.24 94.6301 21.135 94.1001 20.1476ZM85.9977 31.6098C86.0179 32.2972 85.8184 32.9734 85.4282 33.5397C85.0524 34.0696 84.5426 34.4902 83.951 34.7582C83.3521 35.0405 82.6978 35.185 82.036 35.181C81.3695 35.2089 80.7125 35.0146 80.1684 34.6289C79.9259 34.4434 79.7327 34.2012 79.6051 33.9239C79.4777 33.6463 79.4201 33.3422 79.4372 33.0373C79.432 32.627 79.5384 32.2228 79.7456 31.8684C79.9856 31.4897 80.3221 31.1816 80.7205 30.9756C81.2532 30.6981 81.8306 30.517 82.4265 30.4409C82.7829 30.3862 83.1236 30.3265 83.4486 30.2619C83.7844 30.1972 84.0977 30.1251 84.3912 30.0505C84.6846 29.9759 84.9756 29.8938 85.2342 29.8018C85.4929 29.7098 85.759 29.6228 85.9977 29.5258V31.6098Z" fill="black"/>
<path d="M94.1001 20.1476C93.5495 19.1226 92.7711 18.2378 91.8246 17.5612C90.7321 16.7677 89.5055 16.178 88.2036 15.8203C86.6436 15.3775 85.0278 15.1615 83.4063 15.1787C80.9294 15.1787 78.8617 15.5683 77.204 16.3475C75.5459 17.1268 74.2851 18.1547 73.4214 19.4313C72.5756 20.6755 72.0737 22.1212 71.9665 23.6218H80.2156C80.2432 23.2859 80.3427 22.9598 80.5071 22.6656C80.6712 22.3713 80.8968 22.1156 81.1681 21.9158C81.7906 21.5146 82.5222 21.3165 83.2621 21.3487C83.9388 21.3188 84.6083 21.5005 85.177 21.8685C85.4188 22.0324 85.6145 22.2557 85.7453 22.517C85.8759 22.7783 85.937 23.0688 85.9231 23.3607V23.4253C85.9286 23.6494 85.8796 23.8714 85.7804 24.0724C85.6811 24.2734 85.5346 24.4473 85.3536 24.5792C84.9756 24.8595 84.3588 25.0808 83.5033 25.2433C82.6478 25.4057 81.5277 25.5359 80.1435 25.6337C78.9252 25.7185 77.7192 25.9302 76.5449 26.2654C75.5007 26.5605 74.5171 27.0387 73.6402 27.678C72.8034 28.3 72.1336 29.1191 71.6904 30.0629C71.1998 31.1564 70.9618 32.3464 70.9941 33.5446C70.9941 35.2027 71.3405 36.5662 72.0336 37.6356C72.7228 38.7055 73.7185 39.5428 74.8911 40.038C77.1861 40.927 79.7033 41.0681 82.0833 40.4409C82.9654 40.1954 83.7881 39.7724 84.5006 39.1974C85.2534 38.5769 85.8721 37.8094 86.3185 36.9418H86.515V40.4409H94.8934V23.3607C94.9029 22.24 94.6301 21.135 94.1001 20.1476ZM85.9977 31.6098C86.0179 32.2972 85.8184 32.9734 85.4282 33.5397C85.0524 34.0696 84.5426 34.4902 83.951 34.7582C83.3521 35.0405 82.6978 35.185 82.036 35.181C81.3695 35.2089 80.7125 35.0146 80.1684 34.6289C79.9259 34.4434 79.7327 34.2012 79.6051 33.9239C79.4777 33.6463 79.4201 33.3422 79.4372 33.0373C79.432 32.627 79.5384 32.2228 79.7456 31.8684C79.9856 31.4897 80.3221 31.1816 80.7205 30.9756C81.2532 30.6981 81.8306 30.517 82.4265 30.4409C82.7829 30.3862 83.1236 30.3265 83.4486 30.2619C83.7844 30.1972 84.0977 30.1251 84.3912 30.0505C84.6846 29.9759 84.9756 29.8938 85.2342 29.8018C85.4929 29.7098 85.759 29.6228 85.9977 29.5258V31.6098Z" fill="#B8B8B8"/>
<path d="M99.0364 40.4236V16.5317H107.989V40.4236H99.0364ZM103.513 11.3266C102.357 11.3481 101.239 10.917 100.397 10.1254C99.9849 9.76554 99.6559 9.32105 99.4318 8.8223C99.2077 8.32357 99.0941 7.78232 99.0985 7.23557C99.0943 6.68884 99.208 6.14766 99.432 5.64894C99.6561 5.15022 99.9851 4.70571 100.397 4.34577C101.251 3.57265 102.362 3.14453 103.514 3.14453C104.666 3.14453 105.777 3.57265 106.631 4.34577C107.043 4.70571 107.372 5.15022 107.596 5.64894C107.82 6.14766 107.934 6.68884 107.93 7.23557C107.934 7.78232 107.82 8.32357 107.596 8.8223C107.372 9.32105 107.043 9.76554 106.631 10.1254C105.79 10.9173 104.67 11.3461 103.515 11.3191L103.513 11.3266Z" fill="black"/>
<path d="M99.0364 40.4236V16.5317H107.989V40.4236H99.0364ZM103.513 11.3266C102.357 11.3481 101.239 10.917 100.397 10.1254C99.9849 9.76554 99.6559 9.32105 99.4318 8.8223C99.2077 8.32357 99.0941 7.78232 99.0985 7.23557C99.0943 6.68884 99.208 6.14766 99.432 5.64894C99.6561 5.15022 99.9851 4.70571 100.397 4.34577C101.251 3.57265 102.362 3.14453 103.514 3.14453C104.666 3.14453 105.777 3.57265 106.631 4.34577C107.043 4.70571 107.372 5.15022 107.596 5.64894C107.82 6.14766 107.934 6.68884 107.93 7.23557C107.934 7.78232 107.82 8.32357 107.596 8.8223C107.372 9.32105 107.043 9.76554 106.631 10.1254C105.79 10.9173 104.67 11.3461 103.515 11.3191L103.513 11.3266Z" fill="#B8B8B8"/>
<path d="M42.31 40.8638C39.6572 40.8638 37.3628 40.3547 35.4262 39.3368C33.5416 38.3393 31.9982 36.8011 30.9945 34.92C29.9682 32.9951 29.4544 30.6898 29.4526 28.0039C29.4526 25.4274 29.9724 23.1759 31.0119 21.2494C32.0147 19.359 33.5414 17.7979 35.4088 16.753C37.3021 15.6803 39.5403 15.1448 42.1235 15.1465C43.8671 15.1216 45.6005 15.4184 47.2366 16.0219C48.7126 16.574 50.0491 17.4443 51.151 18.5709C52.2562 19.7214 53.104 21.0939 53.6379 22.5973C54.2452 24.3117 54.5424 26.1205 54.5158 27.9392V30.0183H38.1519V25.0817H46.2667C46.2704 24.4137 46.0784 23.7592 45.7146 23.1991C45.3714 22.649 44.8825 22.2048 44.302 21.9159C43.6883 21.5959 43.0044 21.4344 42.3125 21.4458C41.6211 21.4399 40.9385 21.6011 40.323 21.9159C39.7353 22.2048 39.2325 22.6409 38.8631 23.1817C38.4978 23.7487 38.3006 24.4073 38.2936 25.0817V30.4063C38.2785 31.1511 38.4493 31.888 38.791 32.55C39.1183 33.1727 39.6207 33.686 40.2359 34.0272C40.9333 34.4025 41.7171 34.5878 42.509 34.5644C43.0815 34.5713 43.6515 34.4831 44.1951 34.3033C44.6858 34.1483 45.1394 33.8942 45.5281 33.5572C45.8917 33.2284 46.17 32.8161 46.3388 32.356H54.5233C54.2758 34.0115 53.5889 35.5703 52.5337 36.8698C51.4049 38.1896 49.9635 39.2052 48.3408 39.8242C46.6266 40.5156 44.6161 40.862 42.31 40.8638Z" fill="black"/>
<path d="M42.31 40.8638C39.6572 40.8638 37.3628 40.3547 35.4262 39.3368C33.5416 38.3393 31.9982 36.8011 30.9945 34.92C29.9682 32.9951 29.4544 30.6898 29.4526 28.0039C29.4526 25.4274 29.9724 23.1759 31.0119 21.2494C32.0147 19.359 33.5414 17.7979 35.4088 16.753C37.3021 15.6803 39.5403 15.1448 42.1235 15.1465C43.8671 15.1216 45.6005 15.4184 47.2366 16.0219C48.7126 16.574 50.0491 17.4443 51.151 18.5709C52.2562 19.7214 53.104 21.0939 53.6379 22.5973C54.2452 24.3117 54.5424 26.1205 54.5158 27.9392V30.0183H38.1519V25.0817H46.2667C46.2704 24.4137 46.0784 23.7592 45.7146 23.1991C45.3714 22.649 44.8825 22.2048 44.302 21.9159C43.6883 21.5959 43.0044 21.4344 42.3125 21.4458C41.6211 21.4399 40.9385 21.6011 40.323 21.9159C39.7353 22.2048 39.2325 22.6409 38.8631 23.1817C38.4978 23.7487 38.3006 24.4073 38.2936 25.0817V30.4063C38.2785 31.1511 38.4493 31.888 38.791 32.55C39.1183 33.1727 39.6207 33.686 40.2359 34.0272C40.9333 34.4025 41.7171 34.5878 42.509 34.5644C43.0815 34.5713 43.6515 34.4831 44.1951 34.3033C44.6858 34.1483 45.1394 33.8942 45.5281 33.5572C45.8917 33.2284 46.17 32.8161 46.3388 32.356H54.5233C54.2758 34.0115 53.5889 35.5703 52.5337 36.8698C51.4049 38.1896 49.9635 39.2052 48.3408 39.8242C46.6266 40.5156 44.6161 40.862 42.31 40.8638Z" fill="#B8B8B8"/>
<path d="M0 40.4411V7.19092H14.352C16.819 7.19092 18.9785 7.64021 20.8304 8.53883C22.6189 9.3806 24.1203 10.7298 25.1477 12.4184C26.1773 14.1062 26.6913 16.1306 26.6896 18.4915C26.6881 20.8524 26.1584 22.8635 25.1004 24.5248C24.0283 26.1761 22.4829 27.4658 20.6663 28.2253C18.7746 29.0542 16.5612 29.4688 14.0262 29.4688H9.00763V22.4532H12.2083C13.1272 22.4737 14.0432 22.3418 14.919 22.0627C15.6225 21.8337 16.2331 21.3836 16.6599 20.7795C17.0978 20.0992 17.3134 19.2996 17.2766 18.4915C17.3125 17.6721 17.0964 16.8614 16.6574 16.1687C16.2377 15.5473 15.6264 15.0801 14.9165 14.8382C14.0483 14.5239 13.1289 14.3746 12.2058 14.398H9.02752V40.4411H0ZM21.0393 28.0363L27.7938 40.4411H18.0003L12.1511 29.4663" fill="black"/>
<path d="M0 40.4411V7.19092H14.352C16.819 7.19092 18.9785 7.64021 20.8304 8.53883C22.6189 9.3806 24.1203 10.7298 25.1477 12.4184C26.1773 14.1062 26.6913 16.1306 26.6896 18.4915C26.6881 20.8524 26.1584 22.8635 25.1004 24.5248C24.0283 26.1761 22.4829 27.4658 20.6663 28.2253C18.7746 29.0542 16.5612 29.4688 14.0262 29.4688H9.00763V22.4532H12.2083C13.1272 22.4737 14.0432 22.3418 14.919 22.0627C15.6225 21.8337 16.2331 21.3836 16.6599 20.7795C17.0978 20.0992 17.3134 19.2996 17.2766 18.4915C17.3125 17.6721 17.0964 16.8614 16.6574 16.1687C16.2377 15.5473 15.6264 15.0801 14.9165 14.8382C14.0483 14.5239 13.1289 14.3746 12.2058 14.398H9.02752V40.4411H0ZM21.0393 28.0363L27.7938 40.4411H18.0003L12.1511 29.4663" fill="#B8B8B8"/>
</g>
</g>
<defs>
<clipPath id="clip0_3575_3448">
<rect width="108" height="37.7266" fill="white" transform="translate(0 3.13672)"/>
</clipPath>
</defs>
</svg>
