<svg viewBox="0 0 128 46" fill="none" xmlns="http://www.w3.org/2000/svg">
<g clip-path="url(#clip0_3575_3448)">
<mask id="mask0_3575_3448" style="mask-type:luminance" maskUnits="userSpaceOnUse" x="0" y="0" width="128" height="46">
<path d="M127.759 0.775879H0.266846V45.3117H127.759V0.775879Z" fill="white"/>
</mask>
<g mask="url(#mask0_3575_3448)">
<path d="M79.7942 5.56152H69.2136V44.8129H79.7942V5.56152Z" fill="black"/>
<path d="M79.7942 5.56152H69.2136V44.8129H79.7942V5.56152Z" fill="#B8B8B8"/>
<path d="M111.351 20.8571C110.701 19.6471 109.782 18.6025 108.665 17.8038C107.375 16.8672 105.927 16.171 104.39 15.7488C102.548 15.2261 100.641 14.971 98.727 14.9914C95.8029 14.9914 93.3621 15.4513 91.4051 16.3712C89.4478 17.291 87.9594 18.5045 86.9398 20.0115C85.9413 21.4803 85.3489 23.1869 85.2224 24.9583H94.9604C94.9929 24.5618 95.1104 24.1769 95.3044 23.8295C95.4982 23.4822 95.7645 23.1803 96.0848 22.9444C96.8196 22.4709 97.6833 22.237 98.5567 22.275C99.3555 22.2397 100.146 22.4542 100.817 22.8886C101.103 23.0821 101.334 23.3457 101.488 23.6541C101.642 23.9626 101.714 24.3056 101.698 24.6501V24.7264C101.704 24.9909 101.647 25.2531 101.529 25.4903C101.412 25.7276 101.239 25.9329 101.026 26.0886C100.579 26.4194 99.8514 26.6807 98.8414 26.8725C97.8315 27.0643 96.5093 27.2179 94.8752 27.3334C93.437 27.4335 92.0134 27.6834 90.6271 28.0791C89.3944 28.4274 88.2333 28.992 87.1981 29.7466C86.2103 30.4809 85.4196 31.4479 84.8965 32.562C84.3173 33.8529 84.0363 35.2577 84.0745 36.6721C84.0745 38.6294 84.4834 40.2391 85.3016 41.5015C86.1151 42.7645 87.2906 43.7529 88.6748 44.3374C91.384 45.387 94.3556 45.5534 97.1651 44.813C98.2064 44.5233 99.1776 44.0239 100.019 43.3452C100.907 42.6127 101.638 41.7067 102.165 40.6824H102.397V44.813H112.287V24.6501C112.298 23.3272 111.976 22.0227 111.351 20.8571ZM101.786 34.3881C101.81 35.1995 101.574 35.9978 101.114 36.6663C100.67 37.2919 100.068 37.7883 99.3699 38.1048C98.663 38.438 97.8905 38.6086 97.1093 38.6039C96.3225 38.6367 95.5469 38.4075 94.9046 37.9521C94.6183 37.7331 94.3902 37.4472 94.2396 37.1198C94.0893 36.7922 94.0212 36.4332 94.0415 36.0732C94.0353 35.5888 94.1609 35.1118 94.4055 34.6934C94.6888 34.2463 95.086 33.8825 95.5563 33.6395C96.1852 33.3118 96.8668 33.0981 97.5703 33.0083C97.991 32.9437 98.3932 32.8732 98.7769 32.7969C99.1732 32.7206 99.5431 32.6354 99.8895 32.5474C100.236 32.4593 100.579 32.3624 100.885 32.2538C101.19 32.1452 101.504 32.0424 101.786 31.9279V34.3881Z" fill="black"/>
<path d="M111.351 20.8571C110.701 19.6471 109.782 18.6025 108.665 17.8038C107.375 16.8672 105.927 16.171 104.39 15.7488C102.548 15.2261 100.641 14.971 98.727 14.9914C95.8029 14.9914 93.3621 15.4513 91.4051 16.3712C89.4478 17.291 87.9594 18.5045 86.9398 20.0115C85.9413 21.4803 85.3489 23.1869 85.2224 24.9583H94.9604C94.9929 24.5618 95.1104 24.1769 95.3044 23.8295C95.4982 23.4822 95.7645 23.1803 96.0848 22.9444C96.8196 22.4709 97.6833 22.237 98.5567 22.275C99.3555 22.2397 100.146 22.4542 100.817 22.8886C101.103 23.0821 101.334 23.3457 101.488 23.6541C101.642 23.9626 101.714 24.3056 101.698 24.6501V24.7264C101.704 24.9909 101.647 25.2531 101.529 25.4903C101.412 25.7276 101.239 25.9329 101.026 26.0886C100.579 26.4194 99.8514 26.6807 98.8414 26.8725C97.8315 27.0643 96.5093 27.2179 94.8752 27.3334C93.437 27.4335 92.0134 27.6834 90.6271 28.0791C89.3944 28.4274 88.2333 28.992 87.1981 29.7466C86.2103 30.4809 85.4196 31.4479 84.8965 32.562C84.3173 33.8529 84.0363 35.2577 84.0745 36.6721C84.0745 38.6294 84.4834 40.2391 85.3016 41.5015C86.1151 42.7645 87.2906 43.7529 88.6748 44.3374C91.384 45.387 94.3556 45.5534 97.1651 44.813C98.2064 44.5233 99.1776 44.0239 100.019 43.3452C100.907 42.6127 101.638 41.7067 102.165 40.6824H102.397V44.813H112.287V24.6501C112.298 23.3272 111.976 22.0227 111.351 20.8571ZM101.786 34.3881C101.81 35.1995 101.574 35.9978 101.114 36.6663C100.67 37.2919 100.068 37.7883 99.3699 38.1048C98.663 38.438 97.8905 38.6086 97.1093 38.6039C96.3225 38.6367 95.5469 38.4075 94.9046 37.9521C94.6183 37.7331 94.3902 37.4472 94.2396 37.1198C94.0893 36.7922 94.0212 36.4332 94.0415 36.0732C94.0353 35.5888 94.1609 35.1118 94.4055 34.6934C94.6888 34.2463 95.086 33.8825 95.5563 33.6395C96.1852 33.3118 96.8668 33.0981 97.5703 33.0083C97.991 32.9437 98.3932 32.8732 98.7769 32.7969C99.1732 32.7206 99.5431 32.6354 99.8895 32.5474C100.236 32.4593 100.579 32.3624 100.885 32.2538C101.19 32.1452 101.504 32.0424 101.786 31.9279V34.3881Z" fill="#B8B8B8"/>
<path d="M117.178 44.7926V16.5885H127.747V44.7926H117.178ZM122.463 10.4439C121.098 10.4694 119.778 9.9605 118.784 9.02595C118.298 8.60117 117.91 8.07646 117.645 7.48769C117.38 6.89895 117.246 6.26001 117.252 5.61458C117.247 4.96917 117.381 4.33032 117.645 3.74158C117.91 3.15284 118.298 2.62811 118.784 2.20321C119.792 1.29054 121.104 0.785156 122.464 0.785156C123.824 0.785156 125.136 1.29054 126.144 2.20321C126.63 2.62811 127.018 3.15284 127.283 3.74158C127.547 4.33032 127.682 4.96917 127.677 5.61458C127.682 6.26001 127.547 6.89895 127.283 7.48769C127.018 8.07646 126.63 8.60117 126.144 9.02595C125.151 9.96079 123.829 10.467 122.466 10.4351L122.463 10.4439Z" fill="black"/>
<path d="M117.178 44.7926V16.5885H127.747V44.7926H117.178ZM122.463 10.4439C121.098 10.4694 119.778 9.9605 118.784 9.02595C118.298 8.60117 117.91 8.07646 117.645 7.48769C117.38 6.89895 117.246 6.26001 117.252 5.61458C117.247 4.96917 117.381 4.33032 117.645 3.74158C117.91 3.15284 118.298 2.62811 118.784 2.20321C119.792 1.29054 121.104 0.785156 122.464 0.785156C123.824 0.785156 125.136 1.29054 126.144 2.20321C126.63 2.62811 127.018 3.15284 127.283 3.74158C127.547 4.33032 127.682 4.96917 127.677 5.61458C127.682 6.26001 127.547 6.89895 127.283 7.48769C127.018 8.07646 126.63 8.60117 126.144 9.02595C125.151 9.96079 123.829 10.467 122.466 10.4351L122.463 10.4439Z" fill="#B8B8B8"/>
<path d="M50.2134 45.3118C47.0818 45.3118 44.3732 44.7109 42.0871 43.5093C39.8624 42.3317 38.0405 40.5159 36.8556 38.2953C35.644 36.023 35.0375 33.3016 35.0354 30.1309C35.0354 27.0894 35.649 24.4315 36.8761 22.1573C38.0598 19.9258 39.8621 18.0829 42.0666 16.8494C44.3016 15.5831 46.9438 14.9509 49.9932 14.9529C52.0515 14.9236 54.0977 15.2739 56.0292 15.9863C57.7716 16.6381 59.3492 17.6654 60.6501 18.9954C61.9547 20.3535 62.9555 21.9738 63.5859 23.7485C64.3028 25.7723 64.6536 27.9076 64.6222 30.0546V32.5089H45.3048V26.6813H54.8842C54.8886 25.8927 54.662 25.1202 54.2325 24.4589C53.8273 23.8095 53.2502 23.2851 52.5649 22.9441C51.8404 22.5664 51.0331 22.3757 50.2163 22.3892C49.4002 22.3822 48.5943 22.5725 47.8677 22.9441C47.174 23.2851 46.5804 23.7999 46.1444 24.4384C45.7131 25.1077 45.4803 25.8852 45.4721 26.6813V32.9669C45.4542 33.8461 45.6559 34.716 46.0593 35.4975C46.4456 36.2326 47.0386 36.8386 47.7649 37.2414C48.5881 37.6844 49.5135 37.9031 50.4482 37.8755C51.1241 37.8837 51.7969 37.7795 52.4387 37.5672C53.0179 37.3843 53.5534 37.0843 54.0123 36.6865C54.4415 36.2984 54.77 35.8116 54.9693 35.2685H64.631C64.3389 37.2229 63.528 39.063 62.2824 40.597C60.9498 42.155 59.2482 43.354 57.3326 44.0847C55.309 44.9008 52.9357 45.3098 50.2134 45.3118Z" fill="black"/>
<path d="M50.2134 45.3118C47.0818 45.3118 44.3732 44.7109 42.0871 43.5093C39.8624 42.3317 38.0405 40.5159 36.8556 38.2953C35.644 36.023 35.0375 33.3016 35.0354 30.1309C35.0354 27.0894 35.649 24.4315 36.8761 22.1573C38.0598 19.9258 39.8621 18.0829 42.0666 16.8494C44.3016 15.5831 46.9438 14.9509 49.9932 14.9529C52.0515 14.9236 54.0977 15.2739 56.0292 15.9863C57.7716 16.6381 59.3492 17.6654 60.6501 18.9954C61.9547 20.3535 62.9555 21.9738 63.5859 23.7485C64.3028 25.7723 64.6536 27.9076 64.6222 30.0546V32.5089H45.3048V26.6813H54.8842C54.8886 25.8927 54.662 25.1202 54.2325 24.4589C53.8273 23.8095 53.2502 23.2851 52.5649 22.9441C51.8404 22.5664 51.0331 22.3757 50.2163 22.3892C49.4002 22.3822 48.5943 22.5725 47.8677 22.9441C47.174 23.2851 46.5804 23.7999 46.1444 24.4384C45.7131 25.1077 45.4803 25.8852 45.4721 26.6813V32.9669C45.4542 33.8461 45.6559 34.716 46.0593 35.4975C46.4456 36.2326 47.0386 36.8386 47.7649 37.2414C48.5881 37.6844 49.5135 37.9031 50.4482 37.8755C51.1241 37.8837 51.7969 37.7795 52.4387 37.5672C53.0179 37.3843 53.5534 37.0843 54.0123 36.6865C54.4415 36.2984 54.77 35.8116 54.9693 35.2685H64.631C64.3389 37.2229 63.528 39.063 62.2824 40.597C60.9498 42.155 59.2482 43.354 57.3326 44.0847C55.309 44.9008 52.9357 45.3098 50.2134 45.3118Z" fill="#B8B8B8"/>
<path d="M0.266846 44.8129V5.56152H17.2092C20.1215 5.56152 22.6707 6.0919 24.8569 7.15272C26.9682 8.14642 28.7406 9.73911 29.9534 11.7325C31.1688 13.7249 31.7756 16.1147 31.7736 18.9017C31.7718 21.6887 31.1465 24.0628 29.8976 26.0239C28.6319 27.9734 26.8076 29.4958 24.6632 30.3924C22.43 31.3709 19.8172 31.8603 16.8246 31.8603H10.9002V23.5784H14.6786C15.7634 23.6027 16.8447 23.4469 17.8786 23.1175C18.709 22.8472 19.4298 22.3158 19.9336 21.6026C20.4506 20.7996 20.7051 19.8557 20.6617 18.9017C20.7041 17.9345 20.449 16.9775 19.9307 16.1597C19.4352 15.4261 18.7136 14.8746 17.8757 14.589C16.8507 14.2181 15.7654 14.0418 14.6757 14.0694H10.9237V44.8129H0.266846ZM25.1035 30.1693L33.0771 44.8129H21.516L14.6111 31.8573" fill="black"/>
<path d="M0.266846 44.8129V5.56152H17.2092C20.1215 5.56152 22.6707 6.0919 24.8569 7.15272C26.9682 8.14642 28.7406 9.73911 29.9534 11.7325C31.1688 13.7249 31.7756 16.1147 31.7736 18.9017C31.7718 21.6887 31.1465 24.0628 29.8976 26.0239C28.6319 27.9734 26.8076 29.4958 24.6632 30.3924C22.43 31.3709 19.8172 31.8603 16.8246 31.8603H10.9002V23.5784H14.6786C15.7634 23.6027 16.8447 23.4469 17.8786 23.1175C18.709 22.8472 19.4298 22.3158 19.9336 21.6026C20.4506 20.7996 20.7051 19.8557 20.6617 18.9017C20.7041 17.9345 20.449 16.9775 19.9307 16.1597C19.4352 15.4261 18.7136 14.8746 17.8757 14.589C16.8507 14.2181 15.7654 14.0418 14.6757 14.0694H10.9237V44.8129H0.266846ZM25.1035 30.1693L33.0771 44.8129H21.516L14.6111 31.8573" fill="#B8B8B8"/>
</g>
</g>
<defs>
<clipPath id="clip0_3575_3448">
<rect width="128" height="44.9174" fill="white" transform="translate(0 0.541504)"/>
</clipPath>
</defs>
</svg>
