<?xml version="1.0" encoding="UTF-8"?>
<svg id="Layer_1" xmlns="http://www.w3.org/2000/svg" version="1.1" viewBox="0 0 145 34">
  <!-- Generator: Adobe Illustrator 29.6.1, SVG Export Plug-In . SVG Version: 2.1.1 Build 9)  -->
  <g id="S2gjAv.tif">
    <g>
      <path d="M47.6,29.8c-5.9-.3-10.9-5-11.9-10.8s0-.8-.2-1.2c0-.4,0-.7,0-1.1.6-12.5,16.3-17.3,23.4-7.2,6.2,8.8-.6,20.7-11.3,20.2ZM44.5,10.5c0,0,0,0,.2,0,.7,0,2.2,0,2.8,0s.1,0,.2,0c.1,0,.2,0,.3-.3,0-.1,0-.2-.2-.3-.4-.2-2.2,0-2.8,0,.2-1,1-.6,1.5-.7s.4-.5.5-.6c.8-.7,2.1-.7,2.9,0s.3.5.5.5.5,0,.8,0,.8.4.8.7c-.7.1-3.2-.2-3.6,0s-.1,0-.1.2,0,0,0,.2c0,.7,0,2.3,0,3s0,.1,0,.2c.1.3.4.3.6,0,.2-.4,0-2.9,0-3h3.6c.5-.3,0-1.3-.3-1.6-.6-.5-1.1-.3-1.5-.5s-.4-.4-.5-.5c-1.1-.8-2.5-.7-3.6.1s-.3.4-.4.4c-.2,0-.6,0-.9.1-.6.2-1.3,1.1-1,1.8s.1,0,.2.1ZM39.8,12.8c0-.4.5-.7.9-.7s.4.1.6.1.4-.3.7-.5c.5-.2,1.2-.2,1.6.1s.6.9.8.8c.8-.2-.2-1.2-.5-1.4-.6-.4-1.4-.5-2.1-.2s-.6.4-.7.4c-.1,0-.3,0-.5,0-.8,0-1.6.8-1.7,1.6s0,.4.4.5.1.1.2,0h5.3c1.3.2,2.1,1.1,2.3,2.3s0,.6.2.8c.7.3.4-1.1.3-1.5-.4-1.5-1.6-2.2-3.1-2.4s-.1,0-.2,0c-1.5-.1-3.2.1-4.7,0ZM57.7,13.6c.5-.2.2-1,0-1.4-.4-.5-.8-.6-1.5-.7s-.3,0-.4,0-.5-.4-.7-.4c-1.1-.4-2.3,0-2.8,1.1s.2.7.5.5.1-.2.2-.3c.5-.6,1.1-.8,1.9-.6s.6.5.7.5.4,0,.6,0c.5,0,.7.2,1,.6h-4.9c-1,.1-1.8.5-2.5,1.3s-1,1.8-.7,2.6c.7.3.5-.6.6-1,.3-1,1.1-2,2.2-2.1,1.8-.1,3.7,0,5.5,0,0,0,.1,0,.2,0ZM39.9,15.1c-.2.1-.5.2-.6.5,0,0-.3.1-.3.1-.6,0-1.2.3-1.5.8s0,.2-.1.4c0,.3-.3.4,0,.7s.2.2.4.2h7.4c2.5.4,2.5,3.7,0,4.1-1.4,0-3-.1-4.4,0s-.1,0-.2,0c-.4.2-.4.5-.3.9.2.7.9.6,1.4,1s.3.5.5.7c.4.4,1,.6,1.6.7,3.3,0,6.5,0,9.8,0s.3,0,.4,0c.7,0,1.3-.3,1.7-.8s.2-.4.3-.5.5-.2.8-.3c.6-.3.8-.8.6-1.4,0,0-.1,0-.2,0s0,0-.2,0c-1.2-.1-2.8,0-4,0s-.3,0-.4,0c-2.4-.4-2.6-3.8,0-4.1h7.3c.1,0,.2,0,.2,0,.3-.1.3-.1.3-.5,0-.7-.7-1.4-1.3-1.5s-.5,0-.6,0-.2-.2-.3-.3c-.4-.4-.5-.4-1.1-.6-1-.4-1.6-.3-2.5.3s-.5.5-.7.6c-.3.2-.7.2-1,.6s0,.8.4.6.3-.3.5-.4c.7-.3.6-.4,1.1-.8s1.6-.6,2.3-.2.5.3.5.4c.1.1.3.4.4.5.5.2,1.4-.2,1.6.8h-7.4c0,0-.7.2-.8.3-1.9,1-2,3.7-.1,4.8s.8.4.9.4h4.5c0,.1,0,.1-.1.2-.2.2-.6.2-.9.4s-.4.7-.8,1-.7.2-1,.3c-3.2.2-6.7-.2-10,0-.3,0-.6-.2-.8-.3-.3-.3-.4-.6-.7-.9s-.9-.2-1.1-.6h4.5c.3,0,1.2-.6,1.4-.8,1.6-1.6.6-4.5-1.7-4.7s-4.6,0-6.9,0-.3,0-.2-.1c.2-.1.3-.5.6-.5s.7,0,1,0,.4-.5.6-.6.2,0,.2-.1c.8-.5,1.6-.5,2.4,0s.6.7.7.7.3,0,.5.1.6.8.9.4-1-1-1.3-1.3-.3-.3-.8-.6c-1-.5-1.8-.5-2.8.1Z" fill="#d8d8d8"/>
      <path d="M64.4,23.3v-.2c.2-5.1-1.8-12,5.6-12.2s4.9.5,5.8,2.6.1,4.2-2.1,4.9c1.7,1,2.5,3,2.5,5h-2.6c0-1.4-.4-2.8-1.7-3.5s-1.1-.5-1.4-.5h-3.6v3.9h-2.5ZM67,17h4.4c.4,0,1.2-.3,1.5-.5,1.1-.7.8-2.4-.3-2.9s-4.1-.6-5.1.6-.5,1-.5,1.3v1.5Z" fill="#c6c6c6"/>
      <path d="M88.3,23.2c0,.1-.1,0-.2.1-1.2.1-3.5,0-4.7,0-3.1-.2-5.1-1.8-5.3-5s0-3.9,1-5.3c2.1-2.7,6.2-1.8,9.2-2,0,0,0,.1,0,.2v2.1h-.1c0,.1-5.1.1-5.1.1-.2,0-1,.3-1.2.4-.8.4-1.3,1.2-1.2,2.1h7.6v2.4h-7.6c0,1,.4,1.9,1.3,2.3s1,.4,1.2.4h5.2v2.3Z" fill="#c6c6c6"/>
      <polygon points="100.7 11 100.7 13.4 96.3 13.4 96.3 23.3 93.8 23.3 93.8 13.4 89.4 13.4 89.4 11 100.7 11" fill="#c6c6c6"/>
      <polygon points="104.7 11 104.7 23.3 102.2 23.3 102.1 23.2 102.1 11 104.7 11" fill="#c6c6c6"/>
    </g>
  </g>
</svg>