<svg viewBox="0 0 190 45" fill="none" xmlns="http://www.w3.org/2000/svg">
<path d="M21.095 5.24468L8.7921 24.6721C8.71576 24.7926 8.80351 24.949 8.94747 24.949H14.1598C14.3035 24.949 14.3913 25.1049 14.3156 25.2254L3.42492 42.5552C2.79555 43.5567 4.00596 44.692 4.98634 44.0197L33.4002 24.5353C34.2849 23.9286 33.8502 22.5576 32.773 22.5576H29.1299C28.9624 22.5576 28.8827 22.354 29.0066 22.2427L46.2763 6.73399C46.8958 6.17759 46.4972 5.15967 45.6598 5.15967H21.2504C21.1872 5.15967 21.1285 5.19179 21.095 5.24468Z" fill="black"/>
<path d="M21.095 5.24468L8.7921 24.6721C8.71576 24.7926 8.80351 24.949 8.94747 24.949H14.1598C14.3035 24.949 14.3913 25.1049 14.3156 25.2254L3.42492 42.5552C2.79555 43.5567 4.00596 44.692 4.98634 44.0197L33.4002 24.5353C34.2849 23.9286 33.8502 22.5576 32.773 22.5576H29.1299C28.9624 22.5576 28.8827 22.354 29.0066 22.2427L46.2763 6.73399C46.8958 6.17759 46.4972 5.15967 45.6598 5.15967H21.2504C21.1872 5.15967 21.1285 5.19179 21.095 5.24468Z" fill="#707070"/>
<path fill-rule="evenodd" clip-rule="evenodd" d="M19.1424 0.222168H19.852H42.8661C44.1877 0.222168 44.8346 1.81315 43.88 2.7157L40.508 5.90401C39.9962 6.38786 39.1842 6.37043 38.6942 5.86508C38.2043 5.35972 38.2219 4.55781 38.7336 4.07396L40.1278 2.75579H20.5615L18.4183 6.12894C18.0418 6.72159 17.25 6.90057 16.6499 6.52873C16.0498 6.15687 15.8685 5.375 16.2451 4.78236L18.7653 0.815686L19.1424 0.222168ZM11.971 13.8856C12.5673 14.2635 12.7404 15.0472 12.3577 15.636L10.7061 18.1775H14.741C15.2099 18.1775 15.6415 18.4301 15.8665 18.8364C16.0915 19.2427 16.0741 19.7378 15.8212 20.1277L6.67166 34.2305L11.4055 30.825C11.9782 30.4131 12.7806 30.5376 13.1977 31.1031C13.6149 31.6686 13.4888 32.4609 12.9162 32.8729L2.66342 40.2487C2.1646 40.6075 1.47775 40.5647 1.02852 40.1469C0.579295 39.729 0.495029 39.0545 0.827946 38.5413L12.3956 20.7111H8.3585C7.88941 20.7111 7.45773 20.4583 7.23279 20.0518C7.00786 19.6452 7.02554 19.1499 7.2789 18.7601L10.1986 14.2675C10.5812 13.6787 11.3748 13.5077 11.971 13.8856ZM28.6604 16.4744C29.1744 15.993 29.196 15.1912 28.7085 14.6835C28.221 14.1759 27.409 14.1546 26.895 14.636L22.9568 18.3239C22.5758 18.6807 22.4535 19.2308 22.648 19.7124C22.8424 20.194 23.3145 20.51 23.8395 20.51H25.853L21.1759 23.9238C20.6061 24.3397 20.4856 25.1329 20.9067 25.6956C21.3278 26.2582 22.1311 26.3772 22.7008 25.9613L30.5092 20.2619C30.9546 19.9368 31.1384 19.3662 30.9651 18.8468C30.7918 18.3273 30.3005 17.9764 29.7467 17.9764H27.0566L28.6604 16.4744ZM16.3027 10.5263C16.3027 11.7113 15.33 12.672 14.13 12.672C12.93 12.672 11.9572 11.7113 11.9572 10.5263C11.9572 9.34128 12.93 8.38063 14.13 8.38063C15.33 8.38063 16.3027 9.34128 16.3027 10.5263ZM17.097 30.3765C18.297 30.3765 19.2698 29.4159 19.2698 28.2308C19.2698 27.0458 18.297 26.0852 17.097 26.0852C15.8971 26.0852 14.9243 27.0458 14.9243 28.2308C14.9243 29.4159 15.8971 30.3765 17.097 30.3765Z" fill="black"/>
<path fill-rule="evenodd" clip-rule="evenodd" d="M19.1424 0.222168H19.852H42.8661C44.1877 0.222168 44.8346 1.81315 43.88 2.7157L40.508 5.90401C39.9962 6.38786 39.1842 6.37043 38.6942 5.86508C38.2043 5.35972 38.2219 4.55781 38.7336 4.07396L40.1278 2.75579H20.5615L18.4183 6.12894C18.0418 6.72159 17.25 6.90057 16.6499 6.52873C16.0498 6.15687 15.8685 5.375 16.2451 4.78236L18.7653 0.815686L19.1424 0.222168ZM11.971 13.8856C12.5673 14.2635 12.7404 15.0472 12.3577 15.636L10.7061 18.1775H14.741C15.2099 18.1775 15.6415 18.4301 15.8665 18.8364C16.0915 19.2427 16.0741 19.7378 15.8212 20.1277L6.67166 34.2305L11.4055 30.825C11.9782 30.4131 12.7806 30.5376 13.1977 31.1031C13.6149 31.6686 13.4888 32.4609 12.9162 32.8729L2.66342 40.2487C2.1646 40.6075 1.47775 40.5647 1.02852 40.1469C0.579295 39.729 0.495029 39.0545 0.827946 38.5413L12.3956 20.7111H8.3585C7.88941 20.7111 7.45773 20.4583 7.23279 20.0518C7.00786 19.6452 7.02554 19.1499 7.2789 18.7601L10.1986 14.2675C10.5812 13.6787 11.3748 13.5077 11.971 13.8856ZM28.6604 16.4744C29.1744 15.993 29.196 15.1912 28.7085 14.6835C28.221 14.1759 27.409 14.1546 26.895 14.636L22.9568 18.3239C22.5758 18.6807 22.4535 19.2308 22.648 19.7124C22.8424 20.194 23.3145 20.51 23.8395 20.51H25.853L21.1759 23.9238C20.6061 24.3397 20.4856 25.1329 20.9067 25.6956C21.3278 26.2582 22.1311 26.3772 22.7008 25.9613L30.5092 20.2619C30.9546 19.9368 31.1384 19.3662 30.9651 18.8468C30.7918 18.3273 30.3005 17.9764 29.7467 17.9764H27.0566L28.6604 16.4744ZM16.3027 10.5263C16.3027 11.7113 15.33 12.672 14.13 12.672C12.93 12.672 11.9572 11.7113 11.9572 10.5263C11.9572 9.34128 12.93 8.38063 14.13 8.38063C15.33 8.38063 16.3027 9.34128 16.3027 10.5263ZM17.097 30.3765C18.297 30.3765 19.2698 29.4159 19.2698 28.2308C19.2698 27.0458 18.297 26.0852 17.097 26.0852C15.8971 26.0852 14.9243 27.0458 14.9243 28.2308C14.9243 29.4159 15.8971 30.3765 17.097 30.3765Z" fill="#B8B8B8"/>
<path fill-rule="evenodd" clip-rule="evenodd" d="M66.6979 17.3613H60.6579C59.9029 12.5152 55.3729 14.0063 55.3729 16.2431C55.3729 18.6138 56.9787 18.9871 59.2051 19.5048C59.7795 19.6383 60.3953 19.7815 61.0354 19.971C64.1566 20.8952 66.6979 23.6995 66.6979 27.8003C66.6979 31.901 63.1745 34.2613 61.4129 34.8826C61.1612 35.0069 59.9851 35.4139 56.4298 35.1795C50.7674 34.806 48.5779 28.7937 48.5779 25.9356H54.2404C54.6179 30.0364 56.9407 30.3527 58.0732 30.3527C59.2057 30.3527 61.0354 29.8496 61.0354 27.173C61.0354 24.2014 57.7904 23.5976 55.4932 23.1702C54.8781 23.0558 54.331 22.954 53.9323 22.8227C52.7998 22.4499 49.2973 20.7166 49.2973 16.2431C49.2973 12.5163 52.4986 10.5788 53.1079 10.2783C55.3729 9.16086 58.0154 8.70064 61.0354 9.90619C64.4907 11.2855 66.6979 15.0003 66.6979 17.3613ZM81.0428 19.5988V17.3621H86.3278V33.7649H81.0428V32.2737C80.6653 33.0193 79.1552 34.1377 76.1352 34.1377C72.3602 34.1377 69.7178 33.0193 68.5852 28.9186C67.5557 25.1907 68.7886 22.1817 69.1661 21.4361C69.1926 21.3839 69.223 21.3189 69.2583 21.2434C69.7277 20.2403 71.0745 17.3619 75.7578 17.3621C79.5328 17.3622 81.0428 18.9775 81.0428 19.5988ZM76.8903 30.7825C79.1837 30.7825 81.0428 28.6127 81.0428 25.9362C81.0428 23.2596 79.1837 21.0899 76.8903 21.0899C74.597 21.0899 72.7378 23.2596 72.7378 25.9362C72.7378 28.6127 74.597 30.7825 76.8903 30.7825ZM91.6128 17.3621V12.8886H96.8978V17.3621H100.673V21.8356H96.8978V28.5458C96.8978 28.7944 97.0488 29.2914 97.6528 29.2914H100.673V33.7649H95.3878C93.5003 33.7649 91.6128 31.5282 91.6128 29.2914V21.8356H88.5928V17.3621H91.6128ZM161.45 12.8886V17.3621H158.43V21.8356H161.45V29.2914C161.45 31.5282 163.338 33.7649 165.225 33.7649H170.51V29.2914H167.49C166.886 29.2914 166.735 28.7944 166.735 28.5458V21.8356H170.51V17.3621H166.735V12.8886H161.45ZM108.978 17.3621V33.7649H102.938V17.3621H108.978ZM108.978 13.6342C108.978 15.2813 107.626 16.6165 105.958 16.6165C104.29 16.6165 102.938 15.2813 102.938 13.6342C102.938 11.9871 104.29 10.6518 105.958 10.6518C107.626 10.6518 108.978 11.9871 108.978 13.6342ZM112.753 17.3621V33.7649H118.415V24.0723C118.415 22.5812 119.472 21.8356 120.68 21.8356C121.888 21.8356 122.945 22.5812 122.945 24.0723V33.7649H128.608V24.0723C128.608 22.5812 129.74 21.8356 130.873 21.8356C132.118 21.8356 133.138 22.5812 133.138 24.0723V33.7649H138.045V21.8356C138.045 18.2944 134.27 17.3621 132.76 17.3621C129.363 17.3621 128.23 18.8532 127.853 19.5988L127.506 20.2839C127.475 20.1965 127.372 20.0055 127.098 19.5988C126.343 18.4805 125.21 17.3621 122.19 17.3621C119.774 17.3621 118.415 19.1018 118.038 19.9716V17.3621H112.753ZM148.615 33.7649C153.202 33.7649 156.92 31.1554 156.92 25.5635C156.92 19.9716 153.202 17.3621 148.615 17.3621C144.028 17.3621 140.31 19.9716 140.31 25.5635C140.31 31.1554 144.282 33.7649 148.615 33.7649ZM148.615 29.6641C150.7 29.6641 152.39 27.8281 152.39 25.5634C152.39 23.2986 150.7 21.4627 148.615 21.4627C146.53 21.4627 144.84 23.2986 144.84 25.5634C144.84 27.8281 146.53 29.6641 148.615 29.6641ZM189.234 25.5635C189.234 31.1554 185.515 33.7649 180.929 33.7649C176.596 33.7649 172.624 31.1554 172.624 25.5635C172.624 19.9716 176.342 17.3621 180.929 17.3621C185.515 17.3621 189.234 19.9716 189.234 25.5635ZM184.704 25.5634C184.704 27.8281 183.014 29.6641 180.929 29.6641C178.844 29.6641 177.154 27.8281 177.154 25.5634C177.154 23.2986 178.844 21.4627 180.929 21.4627C183.014 21.4627 184.704 23.2986 184.704 25.5634Z" fill="black"/>
<path fill-rule="evenodd" clip-rule="evenodd" d="M66.6979 17.3613H60.6579C59.9029 12.5152 55.3729 14.0063 55.3729 16.2431C55.3729 18.6138 56.9787 18.9871 59.2051 19.5048C59.7795 19.6383 60.3953 19.7815 61.0354 19.971C64.1566 20.8952 66.6979 23.6995 66.6979 27.8003C66.6979 31.901 63.1745 34.2613 61.4129 34.8826C61.1612 35.0069 59.9851 35.4139 56.4298 35.1795C50.7674 34.806 48.5779 28.7937 48.5779 25.9356H54.2404C54.6179 30.0364 56.9407 30.3527 58.0732 30.3527C59.2057 30.3527 61.0354 29.8496 61.0354 27.173C61.0354 24.2014 57.7904 23.5976 55.4932 23.1702C54.8781 23.0558 54.331 22.954 53.9323 22.8227C52.7998 22.4499 49.2973 20.7166 49.2973 16.2431C49.2973 12.5163 52.4986 10.5788 53.1079 10.2783C55.3729 9.16086 58.0154 8.70064 61.0354 9.90619C64.4907 11.2855 66.6979 15.0003 66.6979 17.3613ZM81.0428 19.5988V17.3621H86.3278V33.7649H81.0428V32.2737C80.6653 33.0193 79.1552 34.1377 76.1352 34.1377C72.3602 34.1377 69.7178 33.0193 68.5852 28.9186C67.5557 25.1907 68.7886 22.1817 69.1661 21.4361C69.1926 21.3839 69.223 21.3189 69.2583 21.2434C69.7277 20.2403 71.0745 17.3619 75.7578 17.3621C79.5328 17.3622 81.0428 18.9775 81.0428 19.5988ZM76.8903 30.7825C79.1837 30.7825 81.0428 28.6127 81.0428 25.9362C81.0428 23.2596 79.1837 21.0899 76.8903 21.0899C74.597 21.0899 72.7378 23.2596 72.7378 25.9362C72.7378 28.6127 74.597 30.7825 76.8903 30.7825ZM91.6128 17.3621V12.8886H96.8978V17.3621H100.673V21.8356H96.8978V28.5458C96.8978 28.7944 97.0488 29.2914 97.6528 29.2914H100.673V33.7649H95.3878C93.5003 33.7649 91.6128 31.5282 91.6128 29.2914V21.8356H88.5928V17.3621H91.6128ZM161.45 12.8886V17.3621H158.43V21.8356H161.45V29.2914C161.45 31.5282 163.338 33.7649 165.225 33.7649H170.51V29.2914H167.49C166.886 29.2914 166.735 28.7944 166.735 28.5458V21.8356H170.51V17.3621H166.735V12.8886H161.45ZM108.978 17.3621V33.7649H102.938V17.3621H108.978ZM108.978 13.6342C108.978 15.2813 107.626 16.6165 105.958 16.6165C104.29 16.6165 102.938 15.2813 102.938 13.6342C102.938 11.9871 104.29 10.6518 105.958 10.6518C107.626 10.6518 108.978 11.9871 108.978 13.6342ZM112.753 17.3621V33.7649H118.415V24.0723C118.415 22.5812 119.472 21.8356 120.68 21.8356C121.888 21.8356 122.945 22.5812 122.945 24.0723V33.7649H128.608V24.0723C128.608 22.5812 129.74 21.8356 130.873 21.8356C132.118 21.8356 133.138 22.5812 133.138 24.0723V33.7649H138.045V21.8356C138.045 18.2944 134.27 17.3621 132.76 17.3621C129.363 17.3621 128.23 18.8532 127.853 19.5988L127.506 20.2839C127.475 20.1965 127.372 20.0055 127.098 19.5988C126.343 18.4805 125.21 17.3621 122.19 17.3621C119.774 17.3621 118.415 19.1018 118.038 19.9716V17.3621H112.753ZM148.615 33.7649C153.202 33.7649 156.92 31.1554 156.92 25.5635C156.92 19.9716 153.202 17.3621 148.615 17.3621C144.028 17.3621 140.31 19.9716 140.31 25.5635C140.31 31.1554 144.282 33.7649 148.615 33.7649ZM148.615 29.6641C150.7 29.6641 152.39 27.8281 152.39 25.5634C152.39 23.2986 150.7 21.4627 148.615 21.4627C146.53 21.4627 144.84 23.2986 144.84 25.5634C144.84 27.8281 146.53 29.6641 148.615 29.6641ZM189.234 25.5635C189.234 31.1554 185.515 33.7649 180.929 33.7649C176.596 33.7649 172.624 31.1554 172.624 25.5635C172.624 19.9716 176.342 17.3621 180.929 17.3621C185.515 17.3621 189.234 19.9716 189.234 25.5635ZM184.704 25.5634C184.704 27.8281 183.014 29.6641 180.929 29.6641C178.844 29.6641 177.154 27.8281 177.154 25.5634C177.154 23.2986 178.844 21.4627 180.929 21.4627C183.014 21.4627 184.704 23.2986 184.704 25.5634Z" fill="#B8B8B8"/>
</svg>