<?xml version="1.0" encoding="UTF-8"?>
<svg id="Layer_1" xmlns="http://www.w3.org/2000/svg" version="1.1" viewBox="0 0 1920 1080">
  <!-- Generator: Adobe Illustrator 29.1.0, SVG Export Plug-In . SVG Version: 2.1.0 Build 142)  -->
  <defs>
    <style>
      .st0 {
        font-family: Montserrat-Bold, Montserrat;
        font-size: 270.3px;
        font-weight: 700;
      }

      .st0, .st1 {
        fill: #b8b8b8;
      }
    </style>
  </defs>
  <g id="LpllWn.tif">
    <g>
      <path class="st1" d="M302,437c-2.7,9-7,17.3-8.7,26.8-13.7,77.4,68.1,134.4,135.6,93.6,35.2-21.3,50.9-65.9,38.1-105-.9-2.7-6.8-14.3-6-15.4,12.9-2.7,25.7-6.7,38.8-8.7,33.9-5.3,54.3-1.4,59.1,36.3,13.4,105.9-82.1,199.7-186.4,194.4-97.8-4.9-184.7-96.9-169.2-197.3,8.6-55.8,61.4-31.1,98.7-24.8Z"/>
      <path class="st1" d="M373.8,421.3c62.3-7.1,92.9,72.1,43.1,108.1-29.5,21.3-70.5,11.9-88.1-19.7s3.7-83.7,44.9-88.4Z"/>
      <text class="st0" transform="translate(663.2 631.9)"><tspan x="0" y="0">Satoshi</tspan></text>
    </g>
  </g>
</svg>