<svg width="131" height="28" viewBox="0 0 131 28" fill="none" xmlns="http://www.w3.org/2000/svg">
<g clip-path="url(#clip0_4766_2829)">
<path d="M9.15852 4.77601C8.92271 5.56204 8.54717 6.28693 8.3987 7.11662C7.20219 13.8764 14.3463 18.8546 20.2415 15.2913C23.3157 13.431 24.6869 9.53584 23.569 6.12099C23.4904 5.88518 22.9751 4.87208 23.045 4.77601C24.1716 4.54021 25.2895 4.19086 26.4336 4.01619C29.3943 3.55331 31.176 3.89392 31.5952 7.18649C32.7655 16.4354 24.4249 24.6275 15.3157 24.1647C6.77424 23.7367 -0.815274 15.7018 0.538437 6.93322C1.28953 2.05986 5.90088 4.21706 9.15852 4.76728V4.77601Z" fill="#B8B8B8"/>
<path d="M42.7053 20.6364L43.9941 17.7781C45.3765 18.7852 47.4375 19.4881 49.4058 19.4881C51.6548 19.4881 52.5683 18.7384 52.5683 17.7313C52.5683 14.6623 43.0338 16.771 43.0338 10.6798C43.0338 7.89165 45.2829 5.57324 49.9448 5.57324C52.0067 5.57324 54.1145 6.06553 55.6373 7.02582L54.4664 9.90759C52.9436 9.04089 51.374 8.61881 49.9214 8.61881C47.6724 8.61881 46.8057 9.46211 46.8057 10.4926C46.8057 13.5148 56.3402 11.4295 56.3402 17.4504C56.3402 20.1909 54.0677 22.5336 49.3824 22.5336C46.7823 22.5336 44.1579 21.7605 42.7062 20.6364H42.7053Z" fill="#B8B8B8"/>
<path d="M69.8329 15.0607V22.2525H66.4129V20.6829C65.7334 21.8304 64.4212 22.4397 62.5708 22.4397C59.6189 22.4397 57.8621 20.7999 57.8621 18.6211C57.8621 16.4422 59.4316 14.8492 63.2737 14.8492H66.1789C66.1789 13.2796 65.242 12.3661 63.2737 12.3661C61.9381 12.3661 60.5566 12.8116 59.6423 13.537L58.3301 10.9837C59.7125 10 61.7501 9.46094 63.7651 9.46094C67.6072 9.46094 69.8329 11.2411 69.8329 15.0598V15.0607ZM66.178 18.27V16.9813H63.6715C61.9615 16.9813 61.4224 17.6139 61.4224 18.4572C61.4224 19.3707 62.1955 19.98 63.4843 19.98C64.7029 19.98 65.7568 19.4175 66.178 18.27Z" fill="#B8B8B8"/>
<path d="M81.2646 21.6432C80.5149 22.1823 79.4142 22.4397 78.2892 22.4397C75.3139 22.4397 73.5805 20.9169 73.5805 17.9182V12.7414H71.6365V9.92981H73.5805V6.86084H77.2353V9.92981H80.3745V12.7414H77.2353V17.8713C77.2353 18.9487 77.8212 19.5345 78.8049 19.5345C79.344 19.5345 79.8822 19.3707 80.2809 19.0657L81.2646 21.6423V21.6432Z" fill="#B8B8B8"/>
<path d="M81.9917 15.9509C81.9917 12.1556 84.9203 9.46191 88.9261 9.46191C92.932 9.46191 95.8372 12.1556 95.8372 15.9509C95.8372 19.7461 92.932 22.4398 88.9261 22.4398C84.9203 22.4398 81.9917 19.7461 81.9917 15.9509ZM92.1346 15.9509C92.1346 13.772 90.7523 12.4607 88.9253 12.4607C87.0983 12.4607 85.6925 13.7729 85.6925 15.9509C85.6925 18.1289 87.0983 19.4411 88.9253 19.4411C90.7523 19.4411 92.1346 18.1289 92.1346 15.9509Z" fill="#B8B8B8"/>
<path d="M97.0551 21.0819L98.2736 18.4584C99.3978 19.1847 101.109 19.677 102.654 19.677C104.341 19.677 104.973 19.2315 104.973 18.5295C104.973 16.4676 97.3601 18.5763 97.3601 13.5399C97.3601 11.1505 99.5156 9.46387 103.193 9.46387C104.926 9.46387 106.848 9.86255 108.042 10.5646L106.824 13.1647C105.582 12.4618 104.341 12.2278 103.192 12.2278C101.552 12.2278 100.849 12.7434 100.849 13.3987C100.849 15.5541 108.463 13.4689 108.463 18.435C108.463 20.7777 106.285 22.4409 102.513 22.4409C100.381 22.4409 98.226 21.855 97.0542 21.0819H97.0551Z" fill="#B8B8B8"/>
<path d="M123.597 15.0373V22.2526H119.942V15.5998C119.942 13.5613 119.005 12.6244 117.389 12.6244C115.632 12.6244 114.367 13.7018 114.367 16.021V22.2526H110.712V4.87012H114.367V10.9613C115.35 9.97756 116.756 9.46187 118.372 9.46187C121.348 9.46187 123.597 11.1953 123.597 15.0373Z" fill="#B8B8B8"/>
<path d="M126.455 5.85488C126.455 4.70737 127.368 3.81641 128.727 3.81641C130.086 3.81641 131 4.6597 131 5.78467C131 7.00238 130.086 7.89335 128.727 7.89335C127.368 7.89335 126.455 7.00325 126.455 5.85488ZM126.9 9.64927H130.555V22.2528H126.9V9.64927Z" fill="#B8B8B8"/>
<path d="M15.5064 3.99167C20.2834 3.46545 22.6297 9.3354 18.8112 12.0036C16.5492 13.5822 13.4055 12.8855 12.056 10.5435C10.7065 8.20143 12.3397 4.34001 15.4988 3.99167H15.5064Z" fill="#B8B8B8"/>
</g>
<defs>
<clipPath id="clip0_4766_2829">
<rect width="130.619" height="20.367" fill="white" transform="translate(0.381104 3.81641)"/>
</clipPath>
</defs>
</svg>
