<svg width="251" height="45" viewBox="0 0 251 45" fill="none" xmlns="http://www.w3.org/2000/svg">
<rect width="44.9245" height="44.9245" rx="2.61189" fill="black"/>
<rect width="44.9245" height="44.9245" rx="2.61189" fill="white" fill-opacity="0.84"/>
<rect x="5.74609" y="20.8955" width="6.26853" height="5.22378" rx="2.08951" fill="black"/>
<rect x="5.74609" y="20.8955" width="6.26853" height="5.22378" rx="2.08951" fill="white" fill-opacity="0.44"/>
<rect x="5.74609" y="27.6865" width="6.26853" height="5.22378" rx="2.08951" fill="black"/>
<rect x="5.74609" y="27.6865" width="6.26853" height="5.22378" rx="2.08951" fill="white" fill-opacity="0.44"/>
<rect x="5.74609" y="34.4775" width="6.26853" height="5.22378" rx="2.08951" fill="black"/>
<rect x="5.74609" y="34.4775" width="6.26853" height="5.22378" rx="2.08951" fill="white" fill-opacity="0.44"/>
<rect x="14.6265" y="27.6865" width="6.26853" height="5.22378" rx="2.08951" fill="black"/>
<rect x="14.6265" y="27.6865" width="6.26853" height="5.22378" rx="2.08951" fill="white" fill-opacity="0.44"/>
<rect x="14.6265" y="20.8955" width="6.26853" height="5.22378" rx="2.08951" fill="black"/>
<rect x="14.6265" y="20.8955" width="6.26853" height="5.22378" rx="2.08951" fill="white" fill-opacity="0.44"/>
<rect x="23.5068" y="27.6865" width="6.26853" height="5.22378" rx="2.08951" fill="black"/>
<rect x="23.5068" y="27.6865" width="6.26853" height="5.22378" rx="2.08951" fill="white" fill-opacity="0.44"/>
<rect x="14.6265" y="34.4775" width="6.26853" height="5.22378" rx="2.08951" fill="black"/>
<rect x="14.6265" y="34.4775" width="6.26853" height="5.22378" rx="2.08951" fill="white" fill-opacity="0.44"/>
<rect x="5.74609" y="5.74658" width="32.9098" height="13.5818" rx="2.08951" fill="black"/>
<rect x="5.74609" y="5.74658" width="32.9098" height="13.5818" rx="2.08951" fill="white" fill-opacity="0.44"/>
<rect x="32.3877" y="27.6865" width="6.26853" height="5.22378" rx="2.08951" fill="black"/>
<rect x="32.3877" y="27.6865" width="6.26853" height="5.22378" rx="2.08951" fill="white" fill-opacity="0.44"/>
<rect x="23.5068" y="20.8955" width="6.26853" height="5.22378" rx="2.08951" fill="black"/>
<rect x="23.5068" y="20.8955" width="6.26853" height="5.22378" rx="2.08951" fill="white" fill-opacity="0.44"/>
<rect x="23.5068" y="34.4775" width="6.26853" height="5.22378" rx="2.08951" fill="black"/>
<rect x="23.5068" y="34.4775" width="6.26853" height="5.22378" rx="2.08951" fill="white" fill-opacity="0.44"/>
<rect x="32.3877" y="20.8955" width="6.26853" height="5.22378" rx="2.08951" fill="black"/>
<rect x="32.3877" y="20.8955" width="6.26853" height="5.22378" rx="2.08951" fill="white" fill-opacity="0.44"/>
<rect x="32.3877" y="34.4775" width="6.26853" height="5.22378" rx="2.08951" fill="black"/>
<rect x="32.3877" y="34.4775" width="6.26853" height="5.22378" rx="2.08951" fill="white" fill-opacity="0.44"/>
<path fill-rule="evenodd" clip-rule="evenodd" d="M20.1116 8.88069H18.8057V9.92545H19.8504V14.888H18.8057V15.9328H20.1116V17.2387H21.1564V15.9328H21.9399V17.2387H22.9847V15.9328H24.0294C24.4688 15.9328 25.5966 15.4104 25.5966 14.1045C25.5966 12.9771 25.0146 12.6548 24.5139 12.4253C24.5695 12.3435 24.6284 12.2747 24.6864 12.207C24.9175 11.937 25.133 11.6853 25.064 10.7015C24.9777 9.47108 23.7683 9.14188 22.9847 9.14188V7.83594H21.9399V9.14188H21.1564V7.83594H20.1116V8.88069ZM21.1143 11.8047V10.2878H23.0303C23.9884 10.2878 23.9884 11.8047 23.0303 11.8047H21.1143ZM21.1143 13.0763V14.8809H23.3937C24.5335 14.8809 24.5335 13.0763 23.3937 13.0763H21.1143Z" fill="black"/>
<path fill-rule="evenodd" clip-rule="evenodd" d="M20.1116 8.88069H18.8057V9.92545H19.8504V14.888H18.8057V15.9328H20.1116V17.2387H21.1564V15.9328H21.9399V17.2387H22.9847V15.9328H24.0294C24.4688 15.9328 25.5966 15.4104 25.5966 14.1045C25.5966 12.9771 25.0146 12.6548 24.5139 12.4253C24.5695 12.3435 24.6284 12.2747 24.6864 12.207C24.9175 11.937 25.133 11.6853 25.064 10.7015C24.9777 9.47108 23.7683 9.14188 22.9847 9.14188V7.83594H21.9399V9.14188H21.1564V7.83594H20.1116V8.88069ZM21.1143 11.8047V10.2878H23.0303C23.9884 10.2878 23.9884 11.8047 23.0303 11.8047H21.1143ZM21.1143 13.0763V14.8809H23.3937C24.5335 14.8809 24.5335 13.0763 23.3937 13.0763H21.1143Z" fill="white" fill-opacity="0.84"/>
<path d="M73.0104 33.5692C71.4334 33.5692 70.0339 33.3708 68.812 32.9843C67.6005 32.5979 66.5875 32.0862 65.7833 31.4596C64.9739 30.8329 64.3525 30.1436 63.9243 29.3917L66.3682 26.4048H66.765C67.4334 27.4074 68.2898 28.2115 69.3342 28.8068C70.3786 29.4074 71.6005 29.705 73.0104 29.705C74.1905 29.705 75.0887 29.4544 75.7049 28.9531C76.3158 28.4413 76.6239 27.7416 76.6239 26.8643C76.6239 26.3212 76.5247 25.8774 76.3315 25.5275C76.1331 25.1672 75.8093 24.8591 75.3498 24.6085C74.9007 24.3474 74.2897 24.1228 73.5117 23.9401L70.6083 23.2717C68.5875 22.8121 67.0783 22.0497 66.0757 20.974C65.0836 19.8879 64.5927 18.4884 64.5927 16.7756C64.5927 15.4963 64.9113 14.3736 65.5535 13.4127C66.1906 12.4415 67.1201 11.6895 68.3316 11.1569C69.5535 10.6138 71.0156 10.3423 72.718 10.3423C74.4568 10.3423 75.9451 10.572 77.1879 11.0316C78.4255 11.4911 79.4698 12.1961 80.321 13.1412L78.1069 16.1699H77.731C77.0887 15.5015 76.3576 15.0002 75.5378 14.666C74.7127 14.3318 73.7728 14.1647 72.718 14.1647C71.4908 14.1647 70.5561 14.384 69.919 14.8122C69.2767 15.2456 68.9582 15.8461 68.9582 16.6085C68.9582 17.3187 69.1775 17.8827 69.6266 18.3004C70.0705 18.7182 70.8433 19.0472 71.9451 19.2821L74.9111 19.9088C77.1096 20.3683 78.7022 21.1568 79.6944 22.2691C80.6813 23.3709 81.1774 24.8121 81.1774 26.5928C81.1774 28.0027 80.8693 29.2246 80.2583 30.269C79.6422 31.3133 78.7231 32.128 77.5012 32.7128C76.2897 33.282 74.791 33.5692 73.0104 33.5692Z" fill="black"/>
<path d="M73.0104 33.5692C71.4334 33.5692 70.0339 33.3708 68.812 32.9843C67.6005 32.5979 66.5875 32.0862 65.7833 31.4596C64.9739 30.8329 64.3525 30.1436 63.9243 29.3917L66.3682 26.4048H66.765C67.4334 27.4074 68.2898 28.2115 69.3342 28.8068C70.3786 29.4074 71.6005 29.705 73.0104 29.705C74.1905 29.705 75.0887 29.4544 75.7049 28.9531C76.3158 28.4413 76.6239 27.7416 76.6239 26.8643C76.6239 26.3212 76.5247 25.8774 76.3315 25.5275C76.1331 25.1672 75.8093 24.8591 75.3498 24.6085C74.9007 24.3474 74.2897 24.1228 73.5117 23.9401L70.6083 23.2717C68.5875 22.8121 67.0783 22.0497 66.0757 20.974C65.0836 19.8879 64.5927 18.4884 64.5927 16.7756C64.5927 15.4963 64.9113 14.3736 65.5535 13.4127C66.1906 12.4415 67.1201 11.6895 68.3316 11.1569C69.5535 10.6138 71.0156 10.3423 72.718 10.3423C74.4568 10.3423 75.9451 10.572 77.1879 11.0316C78.4255 11.4911 79.4698 12.1961 80.321 13.1412L78.1069 16.1699H77.731C77.0887 15.5015 76.3576 15.0002 75.5378 14.666C74.7127 14.3318 73.7728 14.1647 72.718 14.1647C71.4908 14.1647 70.5561 14.384 69.919 14.8122C69.2767 15.2456 68.9582 15.8461 68.9582 16.6085C68.9582 17.3187 69.1775 17.8827 69.6266 18.3004C70.0705 18.7182 70.8433 19.0472 71.9451 19.2821L74.9111 19.9088C77.1096 20.3683 78.7022 21.1568 79.6944 22.2691C80.6813 23.3709 81.1774 24.8121 81.1774 26.5928C81.1774 28.0027 80.8693 29.2246 80.2583 30.269C79.6422 31.3133 78.7231 32.128 77.5012 32.7128C76.2897 33.282 74.791 33.5692 73.0104 33.5692Z" fill="#B8B8B8"/>
<path d="M89.023 33.5688C87.9212 33.5688 86.9656 33.3651 86.1614 32.963C85.3677 32.561 84.7515 31.9709 84.3233 31.1876C83.8899 30.4095 83.6758 29.4748 83.6758 28.3887C83.6758 27.3861 83.8899 26.5454 84.3233 25.8613C84.7515 25.1668 85.4199 24.6028 86.3285 24.1694C87.2319 23.7412 88.4172 23.407 89.8794 23.1668C90.8924 22.9997 91.6653 22.8222 92.1979 22.6237C92.7253 22.4305 93.0804 22.206 93.2631 21.9553C93.4564 21.7047 93.5556 21.3914 93.5556 21.0154C93.5556 20.4723 93.3571 20.0546 92.9707 19.7621C92.5947 19.4697 91.9681 19.3235 91.0908 19.3235C90.1405 19.3235 89.2371 19.5428 88.3755 19.971C87.5243 20.3888 86.788 20.9423 86.1614 21.6211H85.8481L84.0726 18.9266C84.9343 17.9658 85.9839 17.2243 87.2267 16.6917C88.4642 16.1643 89.8219 15.8979 91.2997 15.8979C93.5556 15.8979 95.1848 16.3784 96.1874 17.3392C97.2004 18.2896 97.7122 19.6368 97.7122 21.3914V28.7855C97.7122 29.5532 98.0464 29.9344 98.7148 29.9344C98.9654 29.9344 99.2161 29.8874 99.4667 29.7881L99.6756 29.8508L99.9889 32.8377C99.7487 32.9944 99.4145 33.1197 98.9863 33.2137C98.5686 33.3077 98.109 33.3599 97.6077 33.3599C96.5895 33.3599 95.7958 33.1667 95.2266 32.7751C94.6522 32.3886 94.2449 31.7725 93.9942 30.937L93.6809 30.8952C92.8454 32.6811 91.2893 33.5688 89.023 33.5688ZM90.3807 30.373C91.3676 30.373 92.1561 30.0388 92.741 29.3704C93.3363 28.702 93.6391 27.7777 93.6391 26.5924V24.8796L93.3467 24.8169C93.0804 25.0153 92.741 25.1824 92.3232 25.3182C91.9055 25.4592 91.3049 25.6002 90.5269 25.736C89.6078 25.8926 88.9394 26.1537 88.5217 26.5297C88.1144 26.9057 87.9159 27.4383 87.9159 28.1171C87.9159 28.8586 88.13 29.4226 88.5635 29.809C88.9917 30.185 89.5974 30.373 90.3807 30.373Z" fill="black"/>
<path d="M89.023 33.5688C87.9212 33.5688 86.9656 33.3651 86.1614 32.963C85.3677 32.561 84.7515 31.9709 84.3233 31.1876C83.8899 30.4095 83.6758 29.4748 83.6758 28.3887C83.6758 27.3861 83.8899 26.5454 84.3233 25.8613C84.7515 25.1668 85.4199 24.6028 86.3285 24.1694C87.2319 23.7412 88.4172 23.407 89.8794 23.1668C90.8924 22.9997 91.6653 22.8222 92.1979 22.6237C92.7253 22.4305 93.0804 22.206 93.2631 21.9553C93.4564 21.7047 93.5556 21.3914 93.5556 21.0154C93.5556 20.4723 93.3571 20.0546 92.9707 19.7621C92.5947 19.4697 91.9681 19.3235 91.0908 19.3235C90.1405 19.3235 89.2371 19.5428 88.3755 19.971C87.5243 20.3888 86.788 20.9423 86.1614 21.6211H85.8481L84.0726 18.9266C84.9343 17.9658 85.9839 17.2243 87.2267 16.6917C88.4642 16.1643 89.8219 15.8979 91.2997 15.8979C93.5556 15.8979 95.1848 16.3784 96.1874 17.3392C97.2004 18.2896 97.7122 19.6368 97.7122 21.3914V28.7855C97.7122 29.5532 98.0464 29.9344 98.7148 29.9344C98.9654 29.9344 99.2161 29.8874 99.4667 29.7881L99.6756 29.8508L99.9889 32.8377C99.7487 32.9944 99.4145 33.1197 98.9863 33.2137C98.5686 33.3077 98.109 33.3599 97.6077 33.3599C96.5895 33.3599 95.7958 33.1667 95.2266 32.7751C94.6522 32.3886 94.2449 31.7725 93.9942 30.937L93.6809 30.8952C92.8454 32.6811 91.2893 33.5688 89.023 33.5688ZM90.3807 30.373C91.3676 30.373 92.1561 30.0388 92.741 29.3704C93.3363 28.702 93.6391 27.7777 93.6391 26.5924V24.8796L93.3467 24.8169C93.0804 25.0153 92.741 25.1824 92.3232 25.3182C91.9055 25.4592 91.3049 25.6002 90.5269 25.736C89.6078 25.8926 88.9394 26.1537 88.5217 26.5297C88.1144 26.9057 87.9159 27.4383 87.9159 28.1171C87.9159 28.8586 88.13 29.4226 88.5635 29.809C88.9917 30.185 89.5974 30.373 90.3807 30.373Z" fill="#B8B8B8"/>
<path d="M112.061 29.1816L113.168 32.3356C112.708 32.7116 112.129 33.0145 111.434 33.2338C110.734 33.4531 109.941 33.568 109.053 33.568C107.215 33.568 105.815 33.0667 104.855 32.0641C103.894 31.0511 103.413 29.5889 103.413 27.6777V19.5943H100.823V16.1896H103.413V12.8894L107.695 12.1792V16.1896H112.52V19.5943H107.695V27.3644C107.695 28.2156 107.868 28.837 108.217 29.2234C108.562 29.5994 109.074 29.7874 109.742 29.7874C110.505 29.7874 111.173 29.5889 111.747 29.1816H112.061Z" fill="black"/>
<path d="M112.061 29.1816L113.168 32.3356C112.708 32.7116 112.129 33.0145 111.434 33.2338C110.734 33.4531 109.941 33.568 109.053 33.568C107.215 33.568 105.815 33.0667 104.855 32.0641C103.894 31.0511 103.413 29.5889 103.413 27.6777V19.5943H100.823V16.1896H103.413V12.8894L107.695 12.1792V16.1896H112.52V19.5943H107.695V27.3644C107.695 28.2156 107.868 28.837 108.217 29.2234C108.562 29.5994 109.074 29.7874 109.742 29.7874C110.505 29.7874 111.173 29.5889 111.747 29.1816H112.061Z" fill="#B8B8B8"/>
<path d="M123.443 33.5688C121.772 33.5688 120.3 33.2294 119.036 32.5453C117.783 31.8508 116.806 30.843 116.112 29.5166C115.412 28.1955 115.067 26.6028 115.067 24.7334C115.067 22.8535 115.412 21.2556 116.112 19.9292C116.806 18.6081 117.783 17.6055 119.036 16.9214C120.3 16.2426 121.772 15.8979 123.443 15.8979C125.099 15.8979 126.556 16.2426 127.809 16.9214C129.072 17.6055 130.054 18.6081 130.754 19.9292C131.464 21.2556 131.819 22.8535 131.819 24.7334C131.819 26.6028 131.464 28.1955 130.754 29.5166C130.054 30.843 129.072 31.8508 127.809 32.5453C126.556 33.2294 125.099 33.5688 123.443 33.5688ZM123.443 29.9344C126.075 29.9344 127.391 28.2007 127.391 24.7334C127.391 22.937 127.046 21.6211 126.368 20.7856C125.699 19.9397 124.723 19.5115 123.443 19.5115C120.796 19.5115 119.475 21.2556 119.475 24.7334C119.475 28.2007 120.796 29.9344 123.443 29.9344Z" fill="black"/>
<path d="M123.443 33.5688C121.772 33.5688 120.3 33.2294 119.036 32.5453C117.783 31.8508 116.806 30.843 116.112 29.5166C115.412 28.1955 115.067 26.6028 115.067 24.7334C115.067 22.8535 115.412 21.2556 116.112 19.9292C116.806 18.6081 117.783 17.6055 119.036 16.9214C120.3 16.2426 121.772 15.8979 123.443 15.8979C125.099 15.8979 126.556 16.2426 127.809 16.9214C129.072 17.6055 130.054 18.6081 130.754 19.9292C131.464 21.2556 131.819 22.8535 131.819 24.7334C131.819 26.6028 131.464 28.1955 130.754 29.5166C130.054 30.843 129.072 31.8508 127.809 32.5453C126.556 33.2294 125.099 33.5688 123.443 33.5688ZM123.443 29.9344C126.075 29.9344 127.391 28.2007 127.391 24.7334C127.391 22.937 127.046 21.6211 126.368 20.7856C125.699 19.9397 124.723 19.5115 123.443 19.5115C120.796 19.5115 119.475 21.2556 119.475 24.7334C119.475 28.2007 120.796 29.9344 123.443 29.9344Z" fill="#B8B8B8"/>
<path d="M141.276 33.5688C140.116 33.5688 139.051 33.4278 138.08 33.151C137.119 32.8743 136.294 32.4983 135.615 32.0231C134.931 31.5531 134.425 30.9996 134.09 30.373L136.472 27.8247H136.785C137.354 28.5767 138.022 29.1511 138.79 29.5375C139.568 29.9135 140.409 30.1015 141.317 30.1015C142.153 30.1015 142.78 29.9552 143.197 29.6628C143.615 29.3599 143.824 28.9265 143.824 28.3678C143.824 27.9396 143.667 27.5741 143.364 27.2816C143.072 26.9892 142.581 26.7595 141.902 26.5924L139.646 26.0493C137.96 25.6629 136.727 25.0571 135.949 24.2321C135.166 23.3966 134.78 22.3417 134.78 21.0572C134.78 20.0023 135.051 19.0833 135.594 18.3C136.137 17.522 136.894 16.9319 137.871 16.5246C138.858 16.1068 140.007 15.8979 141.317 15.8979C142.847 15.8979 144.116 16.1225 145.119 16.5663C146.132 16.9998 146.92 17.5846 147.479 18.3209L145.202 20.8065H144.889C144.414 20.2634 143.876 19.877 143.281 19.6368C142.696 19.3862 142.038 19.2608 141.317 19.2608C139.631 19.2608 138.79 19.783 138.79 20.8274C138.79 21.2765 138.941 21.6368 139.25 21.9136C139.568 22.1955 140.116 22.4149 140.9 22.582L143.009 23.0415C144.733 23.4175 145.996 24.018 146.79 24.8378C147.594 25.6472 148.001 26.7386 148.001 28.1171C148.001 29.2033 147.73 30.1589 147.187 30.9787C146.654 31.8038 145.881 32.4409 144.868 32.9004C143.866 33.3442 142.665 33.5688 141.276 33.5688Z" fill="black"/>
<path d="M141.276 33.5688C140.116 33.5688 139.051 33.4278 138.08 33.151C137.119 32.8743 136.294 32.4983 135.615 32.0231C134.931 31.5531 134.425 30.9996 134.09 30.373L136.472 27.8247H136.785C137.354 28.5767 138.022 29.1511 138.79 29.5375C139.568 29.9135 140.409 30.1015 141.317 30.1015C142.153 30.1015 142.78 29.9552 143.197 29.6628C143.615 29.3599 143.824 28.9265 143.824 28.3678C143.824 27.9396 143.667 27.5741 143.364 27.2816C143.072 26.9892 142.581 26.7595 141.902 26.5924L139.646 26.0493C137.96 25.6629 136.727 25.0571 135.949 24.2321C135.166 23.3966 134.78 22.3417 134.78 21.0572C134.78 20.0023 135.051 19.0833 135.594 18.3C136.137 17.522 136.894 16.9319 137.871 16.5246C138.858 16.1068 140.007 15.8979 141.317 15.8979C142.847 15.8979 144.116 16.1225 145.119 16.5663C146.132 16.9998 146.92 17.5846 147.479 18.3209L145.202 20.8065H144.889C144.414 20.2634 143.876 19.877 143.281 19.6368C142.696 19.3862 142.038 19.2608 141.317 19.2608C139.631 19.2608 138.79 19.783 138.79 20.8274C138.79 21.2765 138.941 21.6368 139.25 21.9136C139.568 22.1955 140.116 22.4149 140.9 22.582L143.009 23.0415C144.733 23.4175 145.996 24.018 146.79 24.8378C147.594 25.6472 148.001 26.7386 148.001 28.1171C148.001 29.2033 147.73 30.1589 147.187 30.9787C146.654 31.8038 145.881 32.4409 144.868 32.9004C143.866 33.3442 142.665 33.5688 141.276 33.5688Z" fill="#B8B8B8"/>
<path d="M151.451 33.2354V9.38184H155.733V18.447L156.067 18.4888C156.62 17.669 157.31 17.0371 158.135 16.588C158.955 16.1285 159.952 15.8987 161.122 15.8987C164.881 15.8987 166.761 18.024 166.761 22.2694V33.2354H162.479V22.8125C162.479 21.6585 162.239 20.8177 161.769 20.2851C161.31 19.7577 160.589 19.4914 159.618 19.4914C158.432 19.4914 157.487 19.8987 156.777 20.7029C156.077 21.4966 155.733 22.7394 155.733 24.4208V33.2354H151.451Z" fill="black"/>
<path d="M151.451 33.2354V9.38184H155.733V18.447L156.067 18.4888C156.62 17.669 157.31 17.0371 158.135 16.588C158.955 16.1285 159.952 15.8987 161.122 15.8987C164.881 15.8987 166.761 18.024 166.761 22.2694V33.2354H162.479V22.8125C162.479 21.6585 162.239 20.8177 161.769 20.2851C161.31 19.7577 160.589 19.4914 159.618 19.4914C158.432 19.4914 157.487 19.8987 156.777 20.7029C156.077 21.4966 155.733 22.7394 155.733 24.4208V33.2354H151.451Z" fill="#B8B8B8"/>
<path d="M173.513 14.1849C172.745 14.1849 172.119 13.9499 171.633 13.4747C171.158 13.0047 170.923 12.399 170.923 11.6575C170.923 10.9369 171.158 10.3416 171.633 9.88205C172.119 9.41208 172.745 9.17188 173.513 9.17188C174.025 9.17188 174.484 9.28676 174.891 9.50608C175.294 9.71495 175.607 10.0074 175.831 10.3834C176.051 10.7489 176.166 11.1719 176.166 11.6575C176.166 12.1483 176.051 12.587 175.831 12.9734C175.607 13.3494 175.294 13.6522 174.891 13.8716C174.484 14.0804 174.025 14.1849 173.513 14.1849ZM171.382 33.2343V16.211H175.664V33.2343H171.382Z" fill="black"/>
<path d="M173.513 14.1849C172.745 14.1849 172.119 13.9499 171.633 13.4747C171.158 13.0047 170.923 12.399 170.923 11.6575C170.923 10.9369 171.158 10.3416 171.633 9.88205C172.119 9.41208 172.745 9.17188 173.513 9.17188C174.025 9.17188 174.484 9.28676 174.891 9.50608C175.294 9.71495 175.607 10.0074 175.831 10.3834C176.051 10.7489 176.166 11.1719 176.166 11.6575C176.166 12.1483 176.051 12.587 175.831 12.9734C175.607 13.3494 175.294 13.6522 174.891 13.8716C174.484 14.0804 174.025 14.1849 173.513 14.1849ZM171.382 33.2343V16.211H175.664V33.2343H171.382Z" fill="#B8B8B8"/>
<path d="M186.059 33.5688C184.9 33.5688 183.834 33.4278 182.863 33.151C181.902 32.8743 181.077 32.4983 180.398 32.0231C179.714 31.5531 179.208 30.9996 178.874 30.373L181.255 27.8247H181.568C182.137 28.5767 182.806 29.1511 183.573 29.5375C184.351 29.9135 185.192 30.1015 186.101 30.1015C186.936 30.1015 187.563 29.9552 187.98 29.6628C188.398 29.3599 188.607 28.9265 188.607 28.3678C188.607 27.9396 188.45 27.5741 188.148 27.2816C187.855 26.9892 187.364 26.7595 186.685 26.5924L184.43 26.0493C182.743 25.6629 181.511 25.0571 180.733 24.2321C179.949 23.3966 179.563 22.3417 179.563 21.0572C179.563 20.0023 179.834 19.0833 180.377 18.3C180.921 17.522 181.678 16.9319 182.654 16.5246C183.641 16.1068 184.79 15.8979 186.101 15.8979C187.631 15.8979 188.9 16.1225 189.902 16.5663C190.915 16.9998 191.704 17.5846 192.262 18.3209L189.986 20.8065H189.672C189.197 20.2634 188.659 19.877 188.064 19.6368C187.479 19.3862 186.821 19.2608 186.101 19.2608C184.414 19.2608 183.573 19.783 183.573 20.8274C183.573 21.2765 183.725 21.6368 184.033 21.9136C184.351 22.1955 184.9 22.4149 185.683 22.582L187.793 23.0415C189.516 23.4175 190.779 24.018 191.573 24.8378C192.377 25.6472 192.785 26.7386 192.785 28.1171C192.785 29.2033 192.513 30.1589 191.97 30.9787C191.437 31.8038 190.665 32.4409 189.651 32.9004C188.649 33.3442 187.448 33.5688 186.059 33.5688Z" fill="black"/>
<path d="M186.059 33.5688C184.9 33.5688 183.834 33.4278 182.863 33.151C181.902 32.8743 181.077 32.4983 180.398 32.0231C179.714 31.5531 179.208 30.9996 178.874 30.373L181.255 27.8247H181.568C182.137 28.5767 182.806 29.1511 183.573 29.5375C184.351 29.9135 185.192 30.1015 186.101 30.1015C186.936 30.1015 187.563 29.9552 187.98 29.6628C188.398 29.3599 188.607 28.9265 188.607 28.3678C188.607 27.9396 188.45 27.5741 188.148 27.2816C187.855 26.9892 187.364 26.7595 186.685 26.5924L184.43 26.0493C182.743 25.6629 181.511 25.0571 180.733 24.2321C179.949 23.3966 179.563 22.3417 179.563 21.0572C179.563 20.0023 179.834 19.0833 180.377 18.3C180.921 17.522 181.678 16.9319 182.654 16.5246C183.641 16.1068 184.79 15.8979 186.101 15.8979C187.631 15.8979 188.9 16.1225 189.902 16.5663C190.915 16.9998 191.704 17.5846 192.262 18.3209L189.986 20.8065H189.672C189.197 20.2634 188.659 19.877 188.064 19.6368C187.479 19.3862 186.821 19.2608 186.101 19.2608C184.414 19.2608 183.573 19.783 183.573 20.8274C183.573 21.2765 183.725 21.6368 184.033 21.9136C184.351 22.1955 184.9 22.4149 185.683 22.582L187.793 23.0415C189.516 23.4175 190.779 24.018 191.573 24.8378C192.377 25.6472 192.785 26.7386 192.785 28.1171C192.785 29.2033 192.513 30.1589 191.97 30.9787C191.437 31.8038 190.665 32.4409 189.651 32.9004C188.649 33.3442 187.448 33.5688 186.059 33.5688Z" fill="#B8B8B8"/>
<path d="M205.444 10.6763C207.058 10.6763 208.436 10.9791 209.58 11.5744C210.734 12.1593 211.606 12.9896 212.191 14.06C212.776 15.1201 213.068 16.3524 213.068 17.7571C213.068 19.167 212.776 20.3994 212.191 21.4542C211.606 22.5143 210.734 23.3445 209.58 23.9398C208.436 24.5247 207.058 24.8171 205.444 24.8171H201.183V33.2348H196.713V10.6763H205.444ZM204.86 21.2871C207.335 21.2871 208.577 20.1122 208.577 17.7571C208.577 15.3916 207.335 14.2063 204.86 14.2063H201.183V21.2871H204.86Z" fill="black"/>
<path d="M205.444 10.6763C207.058 10.6763 208.436 10.9791 209.58 11.5744C210.734 12.1593 211.606 12.9896 212.191 14.06C212.776 15.1201 213.068 16.3524 213.068 17.7571C213.068 19.167 212.776 20.3994 212.191 21.4542C211.606 22.5143 210.734 23.3445 209.58 23.9398C208.436 24.5247 207.058 24.8171 205.444 24.8171H201.183V33.2348H196.713V10.6763H205.444ZM204.86 21.2871C207.335 21.2871 208.577 20.1122 208.577 17.7571C208.577 15.3916 207.335 14.2063 204.86 14.2063H201.183V21.2871H204.86Z" fill="#B8B8B8"/>
<path d="M221.041 33.5688C219.939 33.5688 218.984 33.3651 218.179 32.963C217.386 32.561 216.77 31.9709 216.341 31.1876C215.908 30.4095 215.694 29.4748 215.694 28.3887C215.694 27.3861 215.908 26.5454 216.341 25.8613C216.77 25.1668 217.438 24.6028 218.347 24.1694C219.25 23.7412 220.435 23.407 221.897 23.1668C222.91 22.9997 223.683 22.8222 224.216 22.6237C224.743 22.4305 225.098 22.206 225.281 21.9553C225.474 21.7047 225.574 21.3914 225.574 21.0154C225.574 20.4723 225.375 20.0546 224.989 19.7621C224.613 19.4697 223.986 19.3235 223.109 19.3235C222.159 19.3235 221.255 19.5428 220.394 19.971C219.542 20.3888 218.806 20.9423 218.179 21.6211H217.866L216.091 18.9266C216.952 17.9658 218.002 17.2243 219.245 16.6917C220.482 16.1643 221.84 15.8979 223.318 15.8979C225.574 15.8979 227.203 16.3784 228.205 17.3392C229.219 18.2896 229.73 19.6368 229.73 21.3914V28.7855C229.73 29.5532 230.064 29.9344 230.733 29.9344C230.984 29.9344 231.234 29.8874 231.485 29.7881L231.694 29.8508L232.007 32.8377C231.767 32.9944 231.433 33.1197 231.004 33.2137C230.587 33.3077 230.127 33.3599 229.626 33.3599C228.608 33.3599 227.814 33.1667 227.245 32.7751C226.67 32.3886 226.263 31.7725 226.012 30.937L225.699 30.8952C224.863 32.6811 223.307 33.5688 221.041 33.5688ZM222.399 30.373C223.386 30.373 224.174 30.0388 224.759 29.3704C225.354 28.702 225.657 27.7777 225.657 26.5924V24.8796L225.365 24.8169C225.098 25.0153 224.759 25.1824 224.341 25.3182C223.924 25.4592 223.323 25.6002 222.545 25.736C221.626 25.8926 220.957 26.1537 220.54 26.5297C220.132 26.9057 219.934 27.4383 219.934 28.1171C219.934 28.8586 220.148 29.4226 220.582 29.809C221.01 30.185 221.615 30.373 222.399 30.373Z" fill="black"/>
<path d="M221.041 33.5688C219.939 33.5688 218.984 33.3651 218.179 32.963C217.386 32.561 216.77 31.9709 216.341 31.1876C215.908 30.4095 215.694 29.4748 215.694 28.3887C215.694 27.3861 215.908 26.5454 216.341 25.8613C216.77 25.1668 217.438 24.6028 218.347 24.1694C219.25 23.7412 220.435 23.407 221.897 23.1668C222.91 22.9997 223.683 22.8222 224.216 22.6237C224.743 22.4305 225.098 22.206 225.281 21.9553C225.474 21.7047 225.574 21.3914 225.574 21.0154C225.574 20.4723 225.375 20.0546 224.989 19.7621C224.613 19.4697 223.986 19.3235 223.109 19.3235C222.159 19.3235 221.255 19.5428 220.394 19.971C219.542 20.3888 218.806 20.9423 218.179 21.6211H217.866L216.091 18.9266C216.952 17.9658 218.002 17.2243 219.245 16.6917C220.482 16.1643 221.84 15.8979 223.318 15.8979C225.574 15.8979 227.203 16.3784 228.205 17.3392C229.219 18.2896 229.73 19.6368 229.73 21.3914V28.7855C229.73 29.5532 230.064 29.9344 230.733 29.9344C230.984 29.9344 231.234 29.8874 231.485 29.7881L231.694 29.8508L232.007 32.8377C231.767 32.9944 231.433 33.1197 231.004 33.2137C230.587 33.3077 230.127 33.3599 229.626 33.3599C228.608 33.3599 227.814 33.1667 227.245 32.7751C226.67 32.3886 226.263 31.7725 226.012 30.937L225.699 30.8952C224.863 32.6811 223.307 33.5688 221.041 33.5688ZM222.399 30.373C223.386 30.373 224.174 30.0388 224.759 29.3704C225.354 28.702 225.657 27.7777 225.657 26.5924V24.8796L225.365 24.8169C225.098 25.0153 224.759 25.1824 224.341 25.3182C223.924 25.4592 223.323 25.6002 222.545 25.736C221.626 25.8926 220.957 26.1537 220.54 26.5297C220.132 26.9057 219.934 27.4383 219.934 28.1171C219.934 28.8586 220.148 29.4226 220.582 29.809C221.01 30.185 221.615 30.373 222.399 30.373Z" fill="#B8B8B8"/>
<path d="M236.098 40.4623C235.373 40.4623 234.709 40.3996 234.114 40.2743C233.529 40.1594 233.049 40.0132 232.673 39.8357L233.362 36.3892L233.634 36.2848C233.895 36.4206 234.219 36.5355 234.595 36.619C234.97 36.7026 235.357 36.7443 235.764 36.7443C236.459 36.7443 237.028 36.6503 237.477 36.4728C237.937 36.29 238.323 35.9924 238.647 35.5746C238.965 35.1569 239.252 34.5773 239.503 33.841L232.715 16.2119H237.185L241.404 28.0551H241.78L245.895 16.2119H250.26L243.409 34.3005C242.866 35.7626 242.265 36.9375 241.613 37.8305C240.955 38.7182 240.182 39.3814 239.294 39.8148C238.417 40.243 237.352 40.4623 236.098 40.4623Z" fill="black"/>
<path d="M236.098 40.4623C235.373 40.4623 234.709 40.3996 234.114 40.2743C233.529 40.1594 233.049 40.0132 232.673 39.8357L233.362 36.3892L233.634 36.2848C233.895 36.4206 234.219 36.5355 234.595 36.619C234.97 36.7026 235.357 36.7443 235.764 36.7443C236.459 36.7443 237.028 36.6503 237.477 36.4728C237.937 36.29 238.323 35.9924 238.647 35.5746C238.965 35.1569 239.252 34.5773 239.503 33.841L232.715 16.2119H237.185L241.404 28.0551H241.78L245.895 16.2119H250.26L243.409 34.3005C242.866 35.7626 242.265 36.9375 241.613 37.8305C240.955 38.7182 240.182 39.3814 239.294 39.8148C238.417 40.243 237.352 40.4623 236.098 40.4623Z" fill="#B8B8B8"/>
</svg>
