<svg width="150" height="28" viewBox="0 0 150 28" fill="none" xmlns="http://www.w3.org/2000/svg">
<g clip-path="url(#clip0_4748_18723)">
<path d="M10.6598 3.78167C10.3898 4.68152 9.95992 5.51139 9.78995 6.46123C8.42017 14.1999 16.5988 19.899 23.3477 15.8197C26.8671 13.69 28.4368 9.23077 27.157 5.32142C27.0671 5.05146 26.4772 3.89166 26.5571 3.78167C27.8469 3.51172 29.1267 3.11179 30.4365 2.91182C33.8259 2.38191 35.8656 2.77184 36.3455 6.54121C37.6853 17.1295 28.1369 26.5079 17.7086 25.978C7.93025 25.4881 -0.758297 16.2896 0.791445 6.25126C1.6513 0.672192 6.93042 3.14178 10.6598 3.77168V3.78167Z" fill="#B8B8B8"/>
<path d="M17.8384 2.21223C24.0674 1.50235 27.1269 9.42103 22.1477 13.0204C19.1982 15.1501 15.0989 14.2102 13.3392 11.0508C11.5795 7.89128 13.7091 2.68215 17.8284 2.21223H17.8384Z" fill="#B8B8B8"/>
<path d="M47.5305 21.404L49.0173 18.1065C50.612 19.2683 52.9896 20.0792 55.2602 20.0792C57.8548 20.0792 58.9086 19.2143 58.9086 18.0525C58.9086 14.5121 47.9095 16.9447 47.9095 9.91787C47.9095 6.70141 50.504 4.02686 55.8821 4.02686C58.2607 4.02686 60.6923 4.59476 62.449 5.70258L61.0983 9.02702C59.3415 8.02719 57.5309 7.54027 55.8551 7.54027C53.2606 7.54027 52.2607 8.51311 52.2607 9.70191C52.2607 13.1883 63.2599 10.7827 63.2599 17.7286C63.2599 20.89 60.6383 23.5926 55.2332 23.5926C52.2337 23.5926 49.2062 22.7007 47.5315 21.404H47.5305Z" fill="#B8B8B8"/>
<path d="M78.8253 14.9716V23.2683H74.88V21.4576C74.0961 22.7813 72.5824 23.4842 70.4477 23.4842C67.0423 23.4842 65.0156 21.5925 65.0156 19.079C65.0156 16.5654 66.8263 14.7277 71.2586 14.7277H74.61C74.61 12.917 73.5292 11.8632 71.2586 11.8632C69.7178 11.8632 68.1241 12.3771 67.0693 13.2139L65.5555 10.2684C67.1503 9.13362 69.5009 8.51172 71.8255 8.51172C76.2578 8.51172 78.8253 10.5654 78.8253 14.9706V14.9716ZM74.609 18.674V17.1873H71.7175C69.7448 17.1873 69.1229 17.9172 69.1229 18.89C69.1229 19.9438 70.0148 20.6467 71.5015 20.6467C72.9073 20.6467 74.1231 19.9978 74.609 18.674Z" fill="#B8B8B8"/>
<path d="M92.0132 22.5654C91.1483 23.1873 89.8785 23.4842 88.5807 23.4842C85.1483 23.4842 83.1486 21.7275 83.1486 18.2681V12.2961H80.906V9.05262H83.1486V5.51221H87.3649V9.05262H90.9863V12.2961H87.3649V18.2141C87.3649 19.4569 88.0408 20.1328 89.1756 20.1328C89.7975 20.1328 90.4184 19.9438 90.8783 19.5919L92.0132 22.5644V22.5654Z" fill="#B8B8B8"/>
<path d="M92.8518 15.9984C92.8518 11.6202 96.2302 8.5127 100.851 8.5127C105.473 8.5127 108.824 11.6202 108.824 15.9984C108.824 20.3767 105.473 23.4842 100.851 23.4842C96.2302 23.4842 92.8518 20.3767 92.8518 15.9984ZM104.553 15.9984C104.553 13.4849 102.958 11.9721 100.85 11.9721C98.7428 11.9721 97.1211 13.4859 97.1211 15.9984C97.1211 18.511 98.7428 20.0248 100.85 20.0248C102.958 20.0248 104.553 18.511 104.553 15.9984Z" fill="#B8B8B8"/>
<path d="M110.229 21.9179L111.635 18.8914C112.932 19.7293 114.905 20.2972 116.688 20.2972C118.634 20.2972 119.364 19.7833 119.364 18.9734C119.364 16.5948 110.581 19.0274 110.581 13.2174C110.581 10.4608 113.068 8.51514 117.31 8.51514C119.31 8.51514 121.526 8.97506 122.904 9.78492L121.498 12.7844C120.066 11.9736 118.634 11.7036 117.309 11.7036C115.417 11.7036 114.607 12.2985 114.607 13.0544C114.607 15.541 123.39 13.1354 123.39 18.8644C123.39 21.567 120.876 23.4856 116.525 23.4856C114.066 23.4856 111.58 22.8098 110.228 21.9179H110.229Z" fill="#B8B8B8"/>
<path d="M140.848 14.9449V23.2685H136.632V15.5938C136.632 13.2422 135.551 12.1613 133.686 12.1613C131.66 12.1613 130.2 13.4041 130.2 16.0797V23.2685H125.984V3.21582H130.2V10.2426C131.335 9.10784 132.956 8.51294 134.821 8.51294C138.254 8.51294 140.848 10.5126 140.848 14.9449Z" fill="#B8B8B8"/>
<path d="M144.145 4.35161C144.145 3.02783 145.199 2 146.767 2C148.335 2 149.388 2.97284 149.388 4.27062C149.388 5.67539 148.335 6.70322 146.767 6.70322C145.199 6.70322 144.145 5.67639 144.145 4.35161ZM144.659 8.72888H148.875V23.2685H144.659V8.72888Z" fill="#B8B8B8"/>
</g>
<defs>
<clipPath id="clip0_4748_18723">
<rect width="148.777" height="24" fill="white" transform="translate(0.611328 2)"/>
</clipPath>
</defs>
</svg>
