<?xml version="1.0" encoding="UTF-8"?>
<svg id="Layer_1" xmlns="http://www.w3.org/2000/svg" version="1.1" viewBox="0 0 1488.02 240.04">
  <!-- Generator: Adobe Illustrator 29.1.0, SVG Export Plug-In . SVG Version: 2.1.0 Build 142)  -->
  <path d="M100.5,17.82c-2.7,9-7,17.3-8.7,26.8-13.7,77.4,68.1,134.4,135.6,93.6,35.2-21.3,50.9-65.9,38.1-105-.9-2.7-6.8-14.3-6-15.4,12.9-2.7,25.7-6.7,38.8-8.7,33.9-5.3,54.3-1.4,59.1,36.3,13.4,105.9-82.1,199.7-186.4,194.4C73.2,234.92-13.7,142.92,1.8,42.52,10.4-13.28,63.2,11.42,100.5,17.72v.1Z" fill="#b8b8b8"/>
  <path d="M172.3,2.12c62.3-7.1,92.9,72.1,43.1,108.1-29.5,21.3-70.5,11.9-88.1-19.7S131,6.82,172.2,2.12h.1Z" fill="#b8b8b8"/>
  <g isolation="isolate">
    <g isolation="isolate">
      <path d="M469.27,194.07l14.87-32.98c15.95,11.62,39.73,19.73,62.44,19.73,25.95,0,36.49-8.65,36.49-20.27,0-35.41-110.01-11.08-110.01-81.36,0-32.17,25.95-58.92,79.74-58.92,23.79,0,48.11,5.68,65.68,16.76l-13.51,33.25c-17.57-10-35.68-14.87-52.44-14.87-25.95,0-35.95,9.73-35.95,21.62,0,34.87,110.01,10.81,110.01,80.28,0,31.62-26.22,58.65-80.28,58.65-30,0-60.28-8.92-77.03-21.89Z" fill="#b8b8b8"/>
      <path d="M782.27,129.74v82.98h-39.46v-18.11c-7.84,13.24-22.98,20.27-44.33,20.27-34.06,0-54.33-18.92-54.33-44.06s18.11-43.52,62.44-43.52h33.52c0-18.11-10.81-28.65-33.52-28.65-15.41,0-31.35,5.14-41.9,13.51l-15.14-29.46c15.95-11.35,39.46-17.57,62.71-17.57,44.33,0,70.01,20.54,70.01,64.6ZM740.1,166.77v-14.87h-28.92c-19.73,0-25.95,7.3-25.95,17.03,0,10.54,8.92,17.57,23.79,17.57,14.06,0,26.22-6.49,31.08-19.73Z" fill="#b8b8b8"/>
      <path d="M914.17,205.69c-8.65,6.22-21.35,9.19-34.33,9.19-34.33,0-54.33-17.57-54.33-52.17v-59.73h-22.43v-32.44h22.43v-35.41h42.17v35.41h36.22v32.44h-36.22v59.19c0,12.43,6.76,19.19,18.11,19.19,6.22,0,12.43-1.89,17.03-5.41l11.35,29.73Z" fill="#b8b8b8"/>
      <path d="M922.56,140.01c0-43.79,33.79-74.87,80.01-74.87s79.74,31.08,79.74,74.87-33.52,74.87-79.74,74.87-80.01-31.08-80.01-74.87ZM1039.59,140.01c0-25.14-15.95-40.27-37.03-40.27s-37.3,15.14-37.3,40.27,16.22,40.27,37.3,40.27,37.03-15.14,37.03-40.27Z" fill="#b8b8b8"/>
      <path d="M1096.36,199.21l14.06-30.27c12.97,8.38,32.71,14.06,50.54,14.06,19.46,0,26.76-5.14,26.76-13.24,0-23.79-87.84.54-87.84-57.57,0-27.57,24.87-47.03,67.3-47.03,20,0,42.17,4.6,55.95,12.7l-14.06,30c-14.33-8.11-28.65-10.81-41.9-10.81-18.92,0-27.03,5.95-27.03,13.51,0,24.87,87.85.81,87.85,58.11,0,27.03-25.14,46.22-68.66,46.22-24.6,0-49.46-6.76-62.98-15.68Z" fill="#b8b8b8"/>
      <path d="M1402.6,129.47v83.25h-42.17v-76.76c0-23.52-10.81-34.33-29.46-34.33-20.27,0-34.87,12.43-34.87,39.19v71.9h-42.17V12.16h42.17v70.28c11.35-11.35,27.57-17.3,46.22-17.3,34.33,0,60.28,20,60.28,64.33Z" fill="#b8b8b8"/>
      <path d="M1435.58,23.52c0-13.24,10.54-23.52,26.22-23.52s26.22,9.73,26.22,22.71c0,14.05-10.54,24.33-26.22,24.33s-26.22-10.27-26.22-23.52ZM1440.72,67.3h42.17v145.42h-42.17V67.3Z" fill="#b8b8b8"/>
    </g>
  </g>
</svg>