<svg width="151" height="46" viewBox="0 0 151 46" fill="none" xmlns="http://www.w3.org/2000/svg">
<rect x="0.97998" y="0.297363" width="44.9245" height="44.9245" rx="2.61189" fill="black"/>
<rect x="0.97998" y="0.297363" width="44.9245" height="44.9245" rx="2.61189" fill="white" fill-opacity="0.84"/>
<rect x="6.72607" y="21.1929" width="6.26853" height="5.22378" rx="2.08951" fill="black"/>
<rect x="6.72607" y="21.1929" width="6.26853" height="5.22378" rx="2.08951" fill="white" fill-opacity="0.44"/>
<rect x="6.72607" y="27.9839" width="6.26853" height="5.22378" rx="2.08951" fill="black"/>
<rect x="6.72607" y="27.9839" width="6.26853" height="5.22378" rx="2.08951" fill="white" fill-opacity="0.44"/>
<rect x="6.72607" y="34.7749" width="6.26853" height="5.22378" rx="2.08951" fill="black"/>
<rect x="6.72607" y="34.7749" width="6.26853" height="5.22378" rx="2.08951" fill="white" fill-opacity="0.44"/>
<rect x="15.6064" y="27.9839" width="6.26853" height="5.22378" rx="2.08951" fill="black"/>
<rect x="15.6064" y="27.9839" width="6.26853" height="5.22378" rx="2.08951" fill="white" fill-opacity="0.44"/>
<rect x="15.6064" y="21.1929" width="6.26853" height="5.22378" rx="2.08951" fill="black"/>
<rect x="15.6064" y="21.1929" width="6.26853" height="5.22378" rx="2.08951" fill="white" fill-opacity="0.44"/>
<rect x="24.4868" y="27.9839" width="6.26853" height="5.22378" rx="2.08951" fill="black"/>
<rect x="24.4868" y="27.9839" width="6.26853" height="5.22378" rx="2.08951" fill="white" fill-opacity="0.44"/>
<rect x="15.6064" y="34.7749" width="6.26853" height="5.22378" rx="2.08951" fill="black"/>
<rect x="15.6064" y="34.7749" width="6.26853" height="5.22378" rx="2.08951" fill="white" fill-opacity="0.44"/>
<rect x="6.72607" y="6.04395" width="32.9098" height="13.5818" rx="2.08951" fill="black"/>
<rect x="6.72607" y="6.04395" width="32.9098" height="13.5818" rx="2.08951" fill="white" fill-opacity="0.44"/>
<rect x="33.3677" y="27.9839" width="6.26853" height="5.22378" rx="2.08951" fill="black"/>
<rect x="33.3677" y="27.9839" width="6.26853" height="5.22378" rx="2.08951" fill="white" fill-opacity="0.44"/>
<rect x="24.4868" y="21.1929" width="6.26853" height="5.22378" rx="2.08951" fill="black"/>
<rect x="24.4868" y="21.1929" width="6.26853" height="5.22378" rx="2.08951" fill="white" fill-opacity="0.44"/>
<rect x="24.4868" y="34.7749" width="6.26853" height="5.22378" rx="2.08951" fill="black"/>
<rect x="24.4868" y="34.7749" width="6.26853" height="5.22378" rx="2.08951" fill="white" fill-opacity="0.44"/>
<rect x="33.3677" y="21.1929" width="6.26853" height="5.22378" rx="2.08951" fill="black"/>
<rect x="33.3677" y="21.1929" width="6.26853" height="5.22378" rx="2.08951" fill="white" fill-opacity="0.44"/>
<rect x="33.3677" y="34.7749" width="6.26853" height="5.22378" rx="2.08951" fill="black"/>
<rect x="33.3677" y="34.7749" width="6.26853" height="5.22378" rx="2.08951" fill="white" fill-opacity="0.44"/>
<path fill-rule="evenodd" clip-rule="evenodd" d="M21.0916 9.17806H19.7856V10.2228H20.8304V15.1854H19.7856V16.2302H21.0916V17.5361H22.1363V16.2302H22.9199V17.5361H23.9647V16.2302H25.0094C25.4487 16.2302 26.5766 15.7078 26.5766 14.4018C26.5766 13.2745 25.9945 12.9522 25.4938 12.7227C25.5495 12.6409 25.6084 12.5721 25.6664 12.5044C25.8975 12.2344 26.113 11.9827 26.044 10.9988C25.9577 9.76845 24.7482 9.43925 23.9647 9.43925V8.1333H22.9199V9.43925H22.1363V8.1333H21.0916V9.17806ZM22.0942 12.1021V10.5851H24.0103C24.9683 10.5851 24.9683 12.1021 24.0103 12.1021H22.0942ZM22.0942 13.3737V15.1783H24.3737C25.5134 15.1783 25.5134 13.3737 24.3737 13.3737H22.0942Z" fill="black"/>
<path fill-rule="evenodd" clip-rule="evenodd" d="M21.0916 9.17806H19.7856V10.2228H20.8304V15.1854H19.7856V16.2302H21.0916V17.5361H22.1363V16.2302H22.9199V17.5361H23.9647V16.2302H25.0094C25.4487 16.2302 26.5766 15.7078 26.5766 14.4018C26.5766 13.2745 25.9945 12.9522 25.4938 12.7227C25.5495 12.6409 25.6084 12.5721 25.6664 12.5044C25.8975 12.2344 26.113 11.9827 26.044 10.9988C25.9577 9.76845 24.7482 9.43925 23.9647 9.43925V8.1333H22.9199V9.43925H22.1363V8.1333H21.0916V9.17806ZM22.0942 12.1021V10.5851H24.0103C24.9683 10.5851 24.9683 12.1021 24.0103 12.1021H22.0942ZM22.0942 13.3737V15.1783H24.3737C25.5134 15.1783 25.5134 13.3737 24.3737 13.3737H22.0942Z" fill="white" fill-opacity="0.84"/>
<path d="M58.4743 27.32C57.6526 27.32 56.9235 27.2166 56.2868 27.0153C55.6556 26.814 55.1278 26.5473 54.7088 26.2208C54.2871 25.8944 53.9633 25.5352 53.7402 25.1434L55.0135 23.5872H55.2203C55.5686 24.1096 56.0148 24.5286 56.5589 24.8387C57.103 25.1516 57.7397 25.3067 58.4743 25.3067C59.0892 25.3067 59.5571 25.1761 59.8782 24.9149C60.1965 24.6483 60.357 24.2837 60.357 23.8266C60.357 23.5437 60.3053 23.3124 60.2047 23.1301C60.1013 22.9424 59.9326 22.7819 59.6932 22.6513C59.4592 22.5152 59.1409 22.3982 58.7355 22.303L57.2228 21.9548C56.1698 21.7153 55.3835 21.3181 54.8612 20.7576C54.3442 20.1917 54.0885 19.4626 54.0885 18.5702C54.0885 17.9036 54.2544 17.3187 54.5891 16.818C54.921 16.312 55.4053 15.9202 56.0365 15.6427C56.6732 15.3597 57.435 15.2183 58.3219 15.2183C59.2279 15.2183 60.0033 15.338 60.6509 15.5774C61.2957 15.8168 61.8398 16.1841 62.2833 16.6766L61.1297 18.2546H60.9338C60.5992 17.9063 60.2183 17.6451 59.7911 17.471C59.3612 17.2969 58.8715 17.2098 58.3219 17.2098C57.6826 17.2098 57.1955 17.3241 56.8636 17.5472C56.529 17.773 56.363 18.0859 56.363 18.4831C56.363 18.8531 56.4773 19.147 56.7113 19.3646C56.9425 19.5823 57.3452 19.7537 57.9193 19.8761L59.4646 20.2026C60.61 20.442 61.4399 20.8529 61.9568 21.4324C62.471 22.0065 62.7295 22.7574 62.7295 23.6851C62.7295 24.4197 62.569 25.0564 62.2506 25.6005C61.9296 26.1447 61.4507 26.5691 60.8141 26.8738C60.1829 27.1704 59.402 27.32 58.4743 27.32Z" fill="black"/>
<path d="M58.4743 27.32C57.6526 27.32 56.9235 27.2166 56.2868 27.0153C55.6556 26.814 55.1278 26.5473 54.7088 26.2208C54.2871 25.8944 53.9633 25.5352 53.7402 25.1434L55.0135 23.5872H55.2203C55.5686 24.1096 56.0148 24.5286 56.5589 24.8387C57.103 25.1516 57.7397 25.3067 58.4743 25.3067C59.0892 25.3067 59.5571 25.1761 59.8782 24.9149C60.1965 24.6483 60.357 24.2837 60.357 23.8266C60.357 23.5437 60.3053 23.3124 60.2047 23.1301C60.1013 22.9424 59.9326 22.7819 59.6932 22.6513C59.4592 22.5152 59.1409 22.3982 58.7355 22.303L57.2228 21.9548C56.1698 21.7153 55.3835 21.3181 54.8612 20.7576C54.3442 20.1917 54.0885 19.4626 54.0885 18.5702C54.0885 17.9036 54.2544 17.3187 54.5891 16.818C54.921 16.312 55.4053 15.9202 56.0365 15.6427C56.6732 15.3597 57.435 15.2183 58.3219 15.2183C59.2279 15.2183 60.0033 15.338 60.6509 15.5774C61.2957 15.8168 61.8398 16.1841 62.2833 16.6766L61.1297 18.2546H60.9338C60.5992 17.9063 60.2183 17.6451 59.7911 17.471C59.3612 17.2969 58.8715 17.2098 58.3219 17.2098C57.6826 17.2098 57.1955 17.3241 56.8636 17.5472C56.529 17.773 56.363 18.0859 56.363 18.4831C56.363 18.8531 56.4773 19.147 56.7113 19.3646C56.9425 19.5823 57.3452 19.7537 57.9193 19.8761L59.4646 20.2026C60.61 20.442 61.4399 20.8529 61.9568 21.4324C62.471 22.0065 62.7295 22.7574 62.7295 23.6851C62.7295 24.4197 62.569 25.0564 62.2506 25.6005C61.9296 26.1447 61.4507 26.5691 60.8141 26.8738C60.1829 27.1704 59.402 27.32 58.4743 27.32Z" fill="#B8B8B8"/>
<path d="M66.8173 27.3197C66.2432 27.3197 65.7453 27.2136 65.3263 27.0041C64.9128 26.7946 64.5917 26.4872 64.3686 26.0791C64.1428 25.6737 64.0312 25.1867 64.0312 24.6207C64.0312 24.0984 64.1428 23.6603 64.3686 23.3039C64.5917 22.9421 64.94 22.6482 65.4134 22.4224C65.8841 22.1993 66.5017 22.0252 67.2635 21.9C67.7913 21.813 68.1939 21.7205 68.4715 21.6171C68.7463 21.5164 68.9313 21.3994 69.0265 21.2688C69.1272 21.1382 69.1788 20.975 69.1788 20.7791C69.1788 20.4961 69.0755 20.2785 68.8741 20.1261C68.6782 19.9738 68.3517 19.8976 67.8947 19.8976C67.3995 19.8976 66.9288 20.0119 66.4799 20.235C66.0364 20.4526 65.6528 20.741 65.3263 21.0947H65.1631L64.238 19.6908C64.6869 19.1902 65.2338 18.8039 65.8813 18.5263C66.5261 18.2515 67.2335 18.1128 68.0035 18.1128C69.1788 18.1128 70.0277 18.3631 70.5501 18.8637C71.0779 19.3589 71.3445 20.0608 71.3445 20.975V24.8275C71.3445 25.2275 71.5187 25.4261 71.8669 25.4261C71.9975 25.4261 72.1281 25.4016 72.2587 25.3499L72.3675 25.3825L72.5308 26.9388C72.4056 27.0204 72.2315 27.0857 72.0084 27.1347C71.7907 27.1837 71.5513 27.2109 71.2901 27.2109C70.7596 27.2109 70.346 27.1102 70.0495 26.9062C69.7502 26.7048 69.538 26.3838 69.4074 25.9485L69.2441 25.9267C68.8088 26.8572 67.9981 27.3197 66.8173 27.3197ZM67.5247 25.6546C68.0389 25.6546 68.4497 25.4805 68.7544 25.1322C69.0646 24.784 69.2224 24.3024 69.2224 23.6848V22.7924L69.07 22.7598C68.9313 22.8632 68.7544 22.9502 68.5368 23.021C68.3191 23.0944 68.0062 23.1679 67.6008 23.2386C67.122 23.3202 66.7737 23.4563 66.5561 23.6522C66.3439 23.8481 66.2405 24.1256 66.2405 24.4793C66.2405 24.8656 66.352 25.1595 66.5778 25.3608C66.8009 25.5567 67.1165 25.6546 67.5247 25.6546Z" fill="black"/>
<path d="M66.8173 27.3197C66.2432 27.3197 65.7453 27.2136 65.3263 27.0041C64.9128 26.7946 64.5917 26.4872 64.3686 26.0791C64.1428 25.6737 64.0312 25.1867 64.0312 24.6207C64.0312 24.0984 64.1428 23.6603 64.3686 23.3039C64.5917 22.9421 64.94 22.6482 65.4134 22.4224C65.8841 22.1993 66.5017 22.0252 67.2635 21.9C67.7913 21.813 68.1939 21.7205 68.4715 21.6171C68.7463 21.5164 68.9313 21.3994 69.0265 21.2688C69.1272 21.1382 69.1788 20.975 69.1788 20.7791C69.1788 20.4961 69.0755 20.2785 68.8741 20.1261C68.6782 19.9738 68.3517 19.8976 67.8947 19.8976C67.3995 19.8976 66.9288 20.0119 66.4799 20.235C66.0364 20.4526 65.6528 20.741 65.3263 21.0947H65.1631L64.238 19.6908C64.6869 19.1902 65.2338 18.8039 65.8813 18.5263C66.5261 18.2515 67.2335 18.1128 68.0035 18.1128C69.1788 18.1128 70.0277 18.3631 70.5501 18.8637C71.0779 19.3589 71.3445 20.0608 71.3445 20.975V24.8275C71.3445 25.2275 71.5187 25.4261 71.8669 25.4261C71.9975 25.4261 72.1281 25.4016 72.2587 25.3499L72.3675 25.3825L72.5308 26.9388C72.4056 27.0204 72.2315 27.0857 72.0084 27.1347C71.7907 27.1837 71.5513 27.2109 71.2901 27.2109C70.7596 27.2109 70.346 27.1102 70.0495 26.9062C69.7502 26.7048 69.538 26.3838 69.4074 25.9485L69.2441 25.9267C68.8088 26.8572 67.9981 27.3197 66.8173 27.3197ZM67.5247 25.6546C68.0389 25.6546 68.4497 25.4805 68.7544 25.1322C69.0646 24.784 69.2224 24.3024 69.2224 23.6848V22.7924L69.07 22.7598C68.9313 22.8632 68.7544 22.9502 68.5368 23.021C68.3191 23.0944 68.0062 23.1679 67.6008 23.2386C67.122 23.3202 66.7737 23.4563 66.5561 23.6522C66.3439 23.8481 66.2405 24.1256 66.2405 24.4793C66.2405 24.8656 66.352 25.1595 66.5778 25.3608C66.8009 25.5567 67.1165 25.6546 67.5247 25.6546Z" fill="#B8B8B8"/>
<path d="M78.8203 25.0339L79.3971 26.6773C79.1577 26.8732 78.8557 27.031 78.4938 27.1452C78.1293 27.2595 77.7157 27.3194 77.2532 27.3194C76.2955 27.3194 75.5663 27.0582 75.0657 26.5358C74.5651 26.008 74.3148 25.2462 74.3148 24.2504V20.0387H72.9653V18.2648H74.3148V16.5453L76.5458 16.1753V18.2648H79.0597V20.0387H76.5458V24.0871C76.5458 24.5306 76.6356 24.8544 76.8179 25.0557C76.9974 25.2516 77.2641 25.3496 77.6123 25.3496C78.0095 25.3496 78.3578 25.2462 78.6571 25.0339H78.8203Z" fill="black"/>
<path d="M78.8203 25.0339L79.3971 26.6773C79.1577 26.8732 78.8557 27.031 78.4938 27.1452C78.1293 27.2595 77.7157 27.3194 77.2532 27.3194C76.2955 27.3194 75.5663 27.0582 75.0657 26.5358C74.5651 26.008 74.3148 25.2462 74.3148 24.2504V20.0387H72.9653V18.2648H74.3148V16.5453L76.5458 16.1753V18.2648H79.0597V20.0387H76.5458V24.0871C76.5458 24.5306 76.6356 24.8544 76.8179 25.0557C76.9974 25.2516 77.2641 25.3496 77.6123 25.3496C78.0095 25.3496 78.3578 25.2462 78.6571 25.0339H78.8203Z" fill="#B8B8B8"/>
<path d="M84.7507 27.3197C83.8801 27.3197 83.1129 27.1429 82.4545 26.7864C81.8015 26.4246 81.2927 25.8995 80.9309 25.2084C80.5663 24.5201 80.3867 23.6903 80.3867 22.7162C80.3867 21.7368 80.5663 20.9042 80.9309 20.2132C81.2927 19.5248 81.8015 19.0025 82.4545 18.6461C83.1129 18.2924 83.8801 18.1128 84.7507 18.1128C85.6132 18.1128 86.3723 18.2924 87.0253 18.6461C87.6837 19.0025 88.1952 19.5248 88.5598 20.2132C88.9298 20.9042 89.1148 21.7368 89.1148 22.7162C89.1148 23.6903 88.9298 24.5201 88.5598 25.2084C88.1952 25.8995 87.6837 26.4246 87.0253 26.7864C86.3723 27.1429 85.6132 27.3197 84.7507 27.3197ZM84.7507 25.4261C86.122 25.4261 86.8076 24.5228 86.8076 22.7162C86.8076 21.7803 86.628 21.0947 86.2744 20.6594C85.9261 20.2186 85.4173 19.9955 84.7507 19.9955C83.3713 19.9955 82.683 20.9042 82.683 22.7162C82.683 24.5228 83.3713 25.4261 84.7507 25.4261Z" fill="black"/>
<path d="M84.7507 27.3197C83.8801 27.3197 83.1129 27.1429 82.4545 26.7864C81.8015 26.4246 81.2927 25.8995 80.9309 25.2084C80.5663 24.5201 80.3867 23.6903 80.3867 22.7162C80.3867 21.7368 80.5663 20.9042 80.9309 20.2132C81.2927 19.5248 81.8015 19.0025 82.4545 18.6461C83.1129 18.2924 83.8801 18.1128 84.7507 18.1128C85.6132 18.1128 86.3723 18.2924 87.0253 18.6461C87.6837 19.0025 88.1952 19.5248 88.5598 20.2132C88.9298 20.9042 89.1148 21.7368 89.1148 22.7162C89.1148 23.6903 88.9298 24.5201 88.5598 25.2084C88.1952 25.8995 87.6837 26.4246 87.0253 26.7864C86.3723 27.1429 85.6132 27.3197 84.7507 27.3197ZM84.7507 25.4261C86.122 25.4261 86.8076 24.5228 86.8076 22.7162C86.8076 21.7803 86.628 21.0947 86.2744 20.6594C85.9261 20.2186 85.4173 19.9955 84.7507 19.9955C83.3713 19.9955 82.683 20.9042 82.683 22.7162C82.683 24.5228 83.3713 25.4261 84.7507 25.4261Z" fill="#B8B8B8"/>
<path d="M94.042 27.3197C93.438 27.3197 92.883 27.2462 92.377 27.102C91.8764 26.9578 91.4465 26.762 91.0928 26.5144C90.7364 26.2695 90.4725 25.9811 90.2983 25.6546L91.539 24.3269H91.7022C91.9988 24.7187 92.347 25.018 92.747 25.2193C93.1524 25.4152 93.5904 25.5131 94.0638 25.5131C94.4991 25.5131 94.8256 25.437 95.0433 25.2846C95.2609 25.1268 95.3698 24.901 95.3698 24.6099C95.3698 24.3868 95.2881 24.1963 95.1303 24.044C94.978 23.8916 94.7222 23.7719 94.3685 23.6848L93.1932 23.4019C92.3144 23.2005 91.6723 22.8849 91.2669 22.4551C90.8588 22.0197 90.6575 21.4702 90.6575 20.8009C90.6575 20.2513 90.799 19.7724 91.0819 19.3643C91.3649 18.9589 91.7594 18.6515 92.2681 18.4393C92.7824 18.2216 93.3809 18.1128 94.0638 18.1128C94.861 18.1128 95.5221 18.2298 96.0445 18.461C96.5723 18.6869 96.9831 18.9916 97.2743 19.3752L96.088 20.6703H95.9248C95.6772 20.3873 95.397 20.186 95.0868 20.0608C94.7821 19.9302 94.4393 19.8649 94.0638 19.8649C93.185 19.8649 92.747 20.137 92.747 20.6812C92.747 20.9151 92.8259 21.1029 92.9864 21.2471C93.1524 21.394 93.438 21.5082 93.8462 21.5953L94.9453 21.8347C95.8432 22.0306 96.5016 22.3435 96.9151 22.7707C97.3341 23.1924 97.5463 23.761 97.5463 24.4793C97.5463 25.0452 97.4049 25.5431 97.1219 25.9702C96.8444 26.4001 96.4417 26.732 95.9139 26.9714C95.3915 27.2027 94.7658 27.3197 94.042 27.3197Z" fill="black"/>
<path d="M94.042 27.3197C93.438 27.3197 92.883 27.2462 92.377 27.102C91.8764 26.9578 91.4465 26.762 91.0928 26.5144C90.7364 26.2695 90.4725 25.9811 90.2983 25.6546L91.539 24.3269H91.7022C91.9988 24.7187 92.347 25.018 92.747 25.2193C93.1524 25.4152 93.5904 25.5131 94.0638 25.5131C94.4991 25.5131 94.8256 25.437 95.0433 25.2846C95.2609 25.1268 95.3698 24.901 95.3698 24.6099C95.3698 24.3868 95.2881 24.1963 95.1303 24.044C94.978 23.8916 94.7222 23.7719 94.3685 23.6848L93.1932 23.4019C92.3144 23.2005 91.6723 22.8849 91.2669 22.4551C90.8588 22.0197 90.6575 21.4702 90.6575 20.8009C90.6575 20.2513 90.799 19.7724 91.0819 19.3643C91.3649 18.9589 91.7594 18.6515 92.2681 18.4393C92.7824 18.2216 93.3809 18.1128 94.0638 18.1128C94.861 18.1128 95.5221 18.2298 96.0445 18.461C96.5723 18.6869 96.9831 18.9916 97.2743 19.3752L96.088 20.6703H95.9248C95.6772 20.3873 95.397 20.186 95.0868 20.0608C94.7821 19.9302 94.4393 19.8649 94.0638 19.8649C93.185 19.8649 92.747 20.137 92.747 20.6812C92.747 20.9151 92.8259 21.1029 92.9864 21.2471C93.1524 21.394 93.438 21.5082 93.8462 21.5953L94.9453 21.8347C95.8432 22.0306 96.5016 22.3435 96.9151 22.7707C97.3341 23.1924 97.5463 23.761 97.5463 24.4793C97.5463 25.0452 97.4049 25.5431 97.1219 25.9702C96.8444 26.4001 96.4417 26.732 95.9139 26.9714C95.3915 27.2027 94.7658 27.3197 94.042 27.3197Z" fill="#B8B8B8"/>
<path d="M99.3433 27.146V14.7178H101.574V19.4409L101.748 19.4627C102.037 19.0356 102.396 18.7063 102.826 18.4724C103.253 18.2329 103.773 18.1132 104.382 18.1132C106.341 18.1132 107.32 19.2206 107.32 21.4325V27.146H105.089V21.7155C105.089 21.1142 104.964 20.6761 104.719 20.3986C104.48 20.1238 104.105 19.9851 103.598 19.9851C102.981 19.9851 102.488 20.1973 102.118 20.6163C101.754 21.0298 101.574 21.6774 101.574 22.5534V27.146H99.3433Z" fill="black"/>
<path d="M99.3433 27.146V14.7178H101.574V19.4409L101.748 19.4627C102.037 19.0356 102.396 18.7063 102.826 18.4724C103.253 18.2329 103.773 18.1132 104.382 18.1132C106.341 18.1132 107.32 19.2206 107.32 21.4325V27.146H105.089V21.7155C105.089 21.1142 104.964 20.6761 104.719 20.3986C104.48 20.1238 104.105 19.9851 103.598 19.9851C102.981 19.9851 102.488 20.1973 102.118 20.6163C101.754 21.0298 101.574 21.6774 101.574 22.5534V27.146H99.3433Z" fill="#B8B8B8"/>
<path d="M110.838 17.2203C110.438 17.2203 110.112 17.0979 109.859 16.8503C109.611 16.6054 109.489 16.2898 109.489 15.9035C109.489 15.528 109.611 15.2178 109.859 14.9784C110.112 14.7336 110.438 14.6084 110.838 14.6084C111.105 14.6084 111.344 14.6683 111.557 14.7825C111.766 14.8914 111.929 15.0437 112.046 15.2396C112.161 15.4301 112.22 15.6504 112.22 15.9035C112.22 16.1592 112.161 16.3877 112.046 16.5891C111.929 16.785 111.766 16.9428 111.557 17.057C111.344 17.1659 111.105 17.2203 110.838 17.2203ZM109.728 27.1455V18.2759H111.959V27.1455H109.728Z" fill="black"/>
<path d="M110.838 17.2203C110.438 17.2203 110.112 17.0979 109.859 16.8503C109.611 16.6054 109.489 16.2898 109.489 15.9035C109.489 15.528 109.611 15.2178 109.859 14.9784C110.112 14.7336 110.438 14.6084 110.838 14.6084C111.105 14.6084 111.344 14.6683 111.557 14.7825C111.766 14.8914 111.929 15.0437 112.046 15.2396C112.161 15.4301 112.22 15.6504 112.22 15.9035C112.22 16.1592 112.161 16.3877 112.046 16.5891C111.929 16.785 111.766 16.9428 111.557 17.057C111.344 17.1659 111.105 17.2203 110.838 17.2203ZM109.728 27.1455V18.2759H111.959V27.1455H109.728Z" fill="#B8B8B8"/>
<path d="M117.375 27.3197C116.771 27.3197 116.216 27.2462 115.71 27.102C115.209 26.9578 114.779 26.762 114.426 26.5144C114.069 26.2695 113.805 25.9811 113.631 25.6546L114.872 24.3269H115.035C115.332 24.7187 115.68 25.018 116.08 25.2193C116.485 25.4152 116.923 25.5131 117.397 25.5131C117.832 25.5131 118.159 25.437 118.376 25.2846C118.594 25.1268 118.703 24.901 118.703 24.6099C118.703 24.3868 118.621 24.1963 118.463 24.044C118.311 23.8916 118.055 23.7719 117.702 23.6848L116.526 23.4019C115.647 23.2005 115.005 22.8849 114.6 22.4551C114.192 22.0197 113.99 21.4702 113.99 20.8009C113.99 20.2513 114.132 19.7724 114.415 19.3643C114.698 18.9589 115.092 18.6515 115.601 18.4393C116.115 18.2216 116.714 18.1128 117.397 18.1128C118.194 18.1128 118.855 18.2298 119.378 18.461C119.905 18.6869 120.316 18.9916 120.607 19.3752L119.421 20.6703H119.258C119.01 20.3873 118.73 20.186 118.42 20.0608C118.115 19.9302 117.772 19.8649 117.397 19.8649C116.518 19.8649 116.08 20.137 116.08 20.6812C116.08 20.9151 116.159 21.1029 116.319 21.2471C116.485 21.394 116.771 21.5082 117.179 21.5953L118.278 21.8347C119.176 22.0306 119.835 22.3435 120.248 22.7707C120.667 23.1924 120.879 23.761 120.879 24.4793C120.879 25.0452 120.738 25.5431 120.455 25.9702C120.177 26.4001 119.775 26.732 119.247 26.9714C118.725 27.2027 118.099 27.3197 117.375 27.3197Z" fill="black"/>
<path d="M117.375 27.3197C116.771 27.3197 116.216 27.2462 115.71 27.102C115.209 26.9578 114.779 26.762 114.426 26.5144C114.069 26.2695 113.805 25.9811 113.631 25.6546L114.872 24.3269H115.035C115.332 24.7187 115.68 25.018 116.08 25.2193C116.485 25.4152 116.923 25.5131 117.397 25.5131C117.832 25.5131 118.159 25.437 118.376 25.2846C118.594 25.1268 118.703 24.901 118.703 24.6099C118.703 24.3868 118.621 24.1963 118.463 24.044C118.311 23.8916 118.055 23.7719 117.702 23.6848L116.526 23.4019C115.647 23.2005 115.005 22.8849 114.6 22.4551C114.192 22.0197 113.99 21.4702 113.99 20.8009C113.99 20.2513 114.132 19.7724 114.415 19.3643C114.698 18.9589 115.092 18.6515 115.601 18.4393C116.115 18.2216 116.714 18.1128 117.397 18.1128C118.194 18.1128 118.855 18.2298 119.378 18.461C119.905 18.6869 120.316 18.9916 120.607 19.3752L119.421 20.6703H119.258C119.01 20.3873 118.73 20.186 118.42 20.0608C118.115 19.9302 117.772 19.8649 117.397 19.8649C116.518 19.8649 116.08 20.137 116.08 20.6812C116.08 20.9151 116.159 21.1029 116.319 21.2471C116.485 21.394 116.771 21.5082 117.179 21.5953L118.278 21.8347C119.176 22.0306 119.835 22.3435 120.248 22.7707C120.667 23.1924 120.879 23.761 120.879 24.4793C120.879 25.0452 120.738 25.5431 120.455 25.9702C120.177 26.4001 119.775 26.732 119.247 26.9714C118.725 27.2027 118.099 27.3197 117.375 27.3197Z" fill="#B8B8B8"/>
<path d="M127.475 15.3921C128.316 15.3921 129.034 15.5499 129.63 15.8601C130.231 16.1648 130.686 16.5974 130.99 17.1551C131.295 17.7074 131.448 18.3495 131.448 19.0814C131.448 19.816 131.295 20.4581 130.99 21.0077C130.686 21.56 130.231 21.9925 129.63 22.3027C129.034 22.6074 128.316 22.7598 127.475 22.7598H125.255V27.1456H122.926V15.3921H127.475ZM127.171 20.9206C128.46 20.9206 129.108 20.3084 129.108 19.0814C129.108 17.8489 128.46 17.2313 127.171 17.2313H125.255V20.9206H127.171Z" fill="black"/>
<path d="M127.475 15.3921C128.316 15.3921 129.034 15.5499 129.63 15.8601C130.231 16.1648 130.686 16.5974 130.99 17.1551C131.295 17.7074 131.448 18.3495 131.448 19.0814C131.448 19.816 131.295 20.4581 130.99 21.0077C130.686 21.56 130.231 21.9925 129.63 22.3027C129.034 22.6074 128.316 22.7598 127.475 22.7598H125.255V27.1456H122.926V15.3921H127.475ZM127.171 20.9206C128.46 20.9206 129.108 20.3084 129.108 19.0814C129.108 17.8489 128.46 17.2313 127.171 17.2313H125.255V20.9206H127.171Z" fill="#B8B8B8"/>
<path d="M135.601 27.3197C135.027 27.3197 134.529 27.2136 134.11 27.0041C133.697 26.7946 133.376 26.4872 133.153 26.0791C132.927 25.6737 132.815 25.1867 132.815 24.6207C132.815 24.0984 132.927 23.6603 133.153 23.3039C133.376 22.9421 133.724 22.6482 134.198 22.4224C134.668 22.1993 135.286 22.0252 136.048 21.9C136.575 21.813 136.978 21.7205 137.256 21.6171C137.53 21.5164 137.715 21.3994 137.811 21.2688C137.911 21.1382 137.963 20.975 137.963 20.7791C137.963 20.4961 137.86 20.2785 137.658 20.1261C137.462 19.9738 137.136 19.8976 136.679 19.8976C136.184 19.8976 135.713 20.0119 135.264 20.235C134.821 20.4526 134.437 20.741 134.11 21.0947H133.947L133.022 19.6908C133.471 19.1902 134.018 18.8039 134.666 18.5263C135.31 18.2515 136.018 18.1128 136.788 18.1128C137.963 18.1128 138.812 18.3631 139.334 18.8637C139.862 19.3589 140.129 20.0608 140.129 20.975V24.8275C140.129 25.2275 140.303 25.4261 140.651 25.4261C140.782 25.4261 140.912 25.4016 141.043 25.3499L141.152 25.3825L141.315 26.9388C141.19 27.0204 141.016 27.0857 140.793 27.1347C140.575 27.1837 140.335 27.2109 140.074 27.2109C139.544 27.2109 139.13 27.1102 138.834 26.9062C138.534 26.7048 138.322 26.3838 138.192 25.9485L138.028 25.9267C137.593 26.8572 136.782 27.3197 135.601 27.3197ZM136.309 25.6546C136.823 25.6546 137.234 25.4805 137.539 25.1322C137.849 24.784 138.007 24.3024 138.007 23.6848V22.7924L137.854 22.7598C137.715 22.8632 137.539 22.9502 137.321 23.021C137.103 23.0944 136.79 23.1679 136.385 23.2386C135.906 23.3202 135.558 23.4563 135.34 23.6522C135.128 23.8481 135.025 24.1256 135.025 24.4793C135.025 24.8656 135.136 25.1595 135.362 25.3608C135.585 25.5567 135.901 25.6546 136.309 25.6546Z" fill="black"/>
<path d="M135.601 27.3197C135.027 27.3197 134.529 27.2136 134.11 27.0041C133.697 26.7946 133.376 26.4872 133.153 26.0791C132.927 25.6737 132.815 25.1867 132.815 24.6207C132.815 24.0984 132.927 23.6603 133.153 23.3039C133.376 22.9421 133.724 22.6482 134.198 22.4224C134.668 22.1993 135.286 22.0252 136.048 21.9C136.575 21.813 136.978 21.7205 137.256 21.6171C137.53 21.5164 137.715 21.3994 137.811 21.2688C137.911 21.1382 137.963 20.975 137.963 20.7791C137.963 20.4961 137.86 20.2785 137.658 20.1261C137.462 19.9738 137.136 19.8976 136.679 19.8976C136.184 19.8976 135.713 20.0119 135.264 20.235C134.821 20.4526 134.437 20.741 134.11 21.0947H133.947L133.022 19.6908C133.471 19.1902 134.018 18.8039 134.666 18.5263C135.31 18.2515 136.018 18.1128 136.788 18.1128C137.963 18.1128 138.812 18.3631 139.334 18.8637C139.862 19.3589 140.129 20.0608 140.129 20.975V24.8275C140.129 25.2275 140.303 25.4261 140.651 25.4261C140.782 25.4261 140.912 25.4016 141.043 25.3499L141.152 25.3825L141.315 26.9388C141.19 27.0204 141.016 27.0857 140.793 27.1347C140.575 27.1837 140.335 27.2109 140.074 27.2109C139.544 27.2109 139.13 27.1102 138.834 26.9062C138.534 26.7048 138.322 26.3838 138.192 25.9485L138.028 25.9267C137.593 26.8572 136.782 27.3197 135.601 27.3197ZM136.309 25.6546C136.823 25.6546 137.234 25.4805 137.539 25.1322C137.849 24.784 138.007 24.3024 138.007 23.6848V22.7924L137.854 22.7598C137.715 22.8632 137.539 22.9502 137.321 23.021C137.103 23.0944 136.79 23.1679 136.385 23.2386C135.906 23.3202 135.558 23.4563 135.34 23.6522C135.128 23.8481 135.025 24.1256 135.025 24.4793C135.025 24.8656 135.136 25.1595 135.362 25.3608C135.585 25.5567 135.901 25.6546 136.309 25.6546Z" fill="#B8B8B8"/>
<path d="M143.447 30.9114C143.069 30.9114 142.723 30.8787 142.413 30.8134C142.108 30.7536 141.858 30.6774 141.662 30.5849L142.021 28.7892L142.163 28.7348C142.299 28.8055 142.467 28.8654 142.663 28.9089C142.859 28.9525 143.061 28.9742 143.273 28.9742C143.635 28.9742 143.931 28.9253 144.165 28.8328C144.405 28.7375 144.606 28.5824 144.775 28.3648C144.941 28.1471 145.09 27.8451 145.221 27.4615L141.684 18.2764H144.013L146.211 24.447H146.407L148.551 18.2764H150.825L147.256 27.7009C146.973 28.4627 146.66 29.0749 146.32 29.5401C145.977 30.0027 145.575 30.3482 145.112 30.574C144.655 30.7971 144.1 30.9114 143.447 30.9114Z" fill="black"/>
<path d="M143.447 30.9114C143.069 30.9114 142.723 30.8787 142.413 30.8134C142.108 30.7536 141.858 30.6774 141.662 30.5849L142.021 28.7892L142.163 28.7348C142.299 28.8055 142.467 28.8654 142.663 28.9089C142.859 28.9525 143.061 28.9742 143.273 28.9742C143.635 28.9742 143.931 28.9253 144.165 28.8328C144.405 28.7375 144.606 28.5824 144.775 28.3648C144.941 28.1471 145.09 27.8451 145.221 27.4615L141.684 18.2764H144.013L146.211 24.447H146.407L148.551 18.2764H150.825L147.256 27.7009C146.973 28.4627 146.66 29.0749 146.32 29.5401C145.977 30.0027 145.575 30.3482 145.112 30.574C144.655 30.7971 144.1 30.9114 143.447 30.9114Z" fill="#B8B8B8"/>
</svg>
