<svg width="124" height="28" viewBox="0 0 124 28" fill="none" xmlns="http://www.w3.org/2000/svg">
<path d="M8.68084 24.3074C7.26679 24.2577 5.87203 24.2262 4.47973 24.1519C3.63893 24.1067 2.81332 23.9578 2.04475 23.5741C1.25647 23.1806 0.80058 22.5277 0.563811 21.7095C0.225277 20.5392 0.125153 19.3348 0.10997 18.1227C0.0828871 16.0172 0.0369285 13.9117 0.0459561 11.8067C0.0508802 10.6392 0.11038 9.4681 0.223635 8.30642C0.296677 7.55754 0.445222 6.80086 0.680349 6.08727C0.974566 5.19436 1.59829 4.55135 2.51705 4.23621C3.35908 3.94773 4.2327 3.83407 5.1133 3.79919C8.57128 3.66172 12.0305 3.64613 15.4889 3.79755C16.5213 3.84269 17.5443 3.97359 18.5074 4.39091C19.4192 4.78566 19.9797 5.47914 20.2702 6.42047C20.7056 7.83124 20.7478 9.28837 20.77 10.7422C20.7996 12.7111 20.7967 14.6807 20.77 16.6495C20.7556 17.7353 20.6953 18.8231 20.5981 19.9044C20.5308 20.6492 20.4011 21.3911 20.1094 22.0944C19.7753 22.9003 19.1955 23.4219 18.3867 23.735C17.6214 24.0312 16.8274 24.1203 16.0215 24.1716C13.5836 24.3275 11.1425 24.3115 8.68125 24.3074M9.12442 11.3298C10.5939 10.519 12.0645 9.7098 13.5315 8.89444C13.7232 8.78775 13.8984 8.65111 14.1105 8.50872C13.9776 8.4127 13.8951 8.3413 13.8024 8.28877C13.4995 8.11725 13.1823 7.96911 12.891 7.78035C12.5914 7.58667 12.3255 7.60965 12.0219 7.7742C10.3538 8.67696 8.6792 9.56782 7.00828 10.4644C6.78382 10.5847 6.63076 10.7685 6.62912 11.0323C6.62378 11.9269 6.62501 12.8219 6.63076 13.7164C6.63199 13.9515 6.74607 14.1382 6.95042 14.2552C7.24053 14.421 7.53352 14.5814 7.83102 14.7332C8.02306 14.8313 8.23603 14.8416 8.42684 14.7468C8.85442 14.5346 9.27953 14.3155 9.69152 14.0742C9.99846 13.8945 9.97425 13.7238 9.6591 13.5432C9.26887 13.32 8.88191 13.091 8.50152 12.8518C8.43176 12.8079 8.362 12.7065 8.35626 12.6269C8.32384 12.1751 8.30907 11.7229 8.83841 11.5063C8.93156 11.4681 9.01199 11.3984 9.12483 11.3294M12.5332 13.0664C12.9365 13.1998 13.1085 13.5034 13.1351 13.9039C13.1696 14.4218 13.1938 14.9405 13.2225 15.4587C13.2521 15.9975 13.2718 16.5367 13.3136 17.0743C13.3374 17.3812 13.4704 17.6336 13.7654 17.7813C14.0642 17.9306 14.3571 18.0915 14.6505 18.2511C14.7999 18.3324 14.8672 18.2819 14.8795 18.1243C14.8836 18.0697 14.8914 18.0152 14.8906 17.961C14.8631 16.3426 14.8397 14.7242 14.8028 13.1058C14.7929 12.6737 14.6107 12.2937 14.2472 12.0594C13.7268 11.7238 13.1799 11.4287 12.6394 11.1247C12.4876 11.0393 12.3251 11.0475 12.1737 11.1501C11.852 11.3684 11.5233 11.5765 11.2082 11.8034C10.9217 12.0098 10.925 12.1284 11.2311 12.3155C11.6497 12.5715 12.081 12.8071 12.5327 13.0668M8.43751 16.3578C8.01854 16.5872 7.59794 16.8141 7.18062 17.0468C6.89502 17.2064 6.61517 17.3869 6.59301 17.7542C6.56674 18.19 6.55279 18.6282 6.56592 19.064C6.57413 19.3344 6.66564 19.3636 6.90528 19.2294C8.39319 18.3947 9.87576 17.5503 11.3739 16.7345C11.7034 16.5552 11.8126 16.3118 11.8163 15.977C11.82 15.6487 11.8192 15.3209 11.8163 14.9926C11.8138 14.6643 11.7051 14.5863 11.4137 14.7419C10.4269 15.2691 9.44695 15.8096 8.43669 16.357L8.43751 16.3578Z" fill="#B8B8B8"/>
<path d="M32.1429 21.5248C30.8673 21.5248 29.7546 21.3359 28.8045 20.9575C27.8543 20.5794 27.1164 19.9959 26.5902 19.2068C26.064 18.4178 25.7978 17.4084 25.7911 16.1791H29.5783C29.6046 16.6264 29.7179 17.0044 29.9186 17.3132C30.1189 17.6224 30.4018 17.8557 30.7669 18.0134C31.132 18.1712 31.5708 18.25 32.0836 18.25C32.5109 18.25 32.8694 18.1974 33.1585 18.0923C33.4477 17.9871 33.6666 17.8409 33.8143 17.6535C33.9624 17.4661 34.0361 17.251 34.0361 17.0074C34.0361 16.7841 33.9654 16.5882 33.8239 16.4205C33.6825 16.2527 33.4507 16.0998 33.1285 15.9617C32.8064 15.8236 32.3724 15.6988 31.8267 15.587L30.3474 15.2715C29.0522 14.9953 28.0313 14.5236 27.2852 13.8563C26.5387 13.1891 26.1659 12.28 26.1659 11.1292C26.1659 10.1958 26.4188 9.37855 26.9253 8.67836C27.4315 7.97816 28.1302 7.43237 29.0211 7.04099C29.9119 6.64998 30.9395 6.4541 32.1032 6.4541C33.267 6.4541 34.3208 6.65294 35.1854 7.05062C36.05 7.44867 36.7173 8.00741 37.1875 8.72723C37.6574 9.44705 37.8959 10.2872 37.9025 11.247H34.0757C34.0428 10.7671 33.8669 10.3939 33.5481 10.1276C33.2289 9.86139 32.7475 9.72809 32.1032 9.72809C31.6956 9.72809 31.3601 9.77586 31.0972 9.87102C30.8343 9.96655 30.6403 10.0995 30.5151 10.2705C30.39 10.4416 30.3278 10.6356 30.3278 10.8526C30.3278 11.0829 30.3952 11.2851 30.5299 11.4591C30.6647 11.6335 30.8784 11.7846 31.1709 11.9127C31.4634 12.0408 31.84 12.1545 32.3002 12.253L33.5036 12.5096C34.3123 12.6807 35.0077 12.9077 35.5898 13.1902C36.1719 13.4731 36.6484 13.8034 37.0198 14.1814C37.3912 14.5595 37.6641 14.9853 37.8385 15.4585C38.0125 15.9317 38.0999 16.4483 38.0999 17.007C38.0999 17.9734 37.8614 18.794 37.3849 19.4679C36.908 20.1418 36.2259 20.6531 35.3384 21.0015C34.4508 21.35 33.3855 21.5244 32.1429 21.5244V21.5248Z" fill="#B8B8B8"/>
<path d="M43.6429 15.1529V21.3466H39.678V6.65137H43.544V13.1408H43.3567C43.6066 12.3059 44.0124 11.6038 44.5749 11.0351C45.137 10.4663 45.9246 10.182 46.9369 10.182C47.7193 10.182 48.398 10.3593 48.9734 10.7144C49.5488 11.0695 49.9943 11.5594 50.3097 12.184C50.6252 12.8087 50.783 13.5222 50.783 14.3242V21.3466H46.818V15.1529C46.818 14.6071 46.6799 14.1784 46.4037 13.8658C46.1275 13.5537 45.7394 13.3974 45.2399 13.3974C44.9178 13.3974 44.6367 13.4682 44.3968 13.6096C44.1569 13.7511 43.971 13.9517 43.8395 14.2113C43.7081 14.4712 43.6422 14.7849 43.6422 15.1533L43.6429 15.1529Z" fill="#B8B8B8"/>
<path d="M55.8728 21.5245C55.1693 21.5245 54.5461 21.4078 54.0036 21.1742C53.4612 20.9409 53.0387 20.5873 52.7362 20.1141C52.4337 19.6405 52.2826 19.0392 52.2826 18.3093C52.2826 17.7043 52.3844 17.1885 52.5884 16.7608C52.7921 16.3335 53.0783 15.9833 53.4464 15.7104C53.8144 15.4375 54.2436 15.2272 54.7335 15.079C55.2233 14.9309 55.7543 14.8373 56.3264 14.798C56.9444 14.7521 57.4391 14.6962 57.8108 14.6303C58.1822 14.5647 58.4518 14.4677 58.6195 14.3392C58.7873 14.2111 58.8709 14.0419 58.8709 13.8312V13.7916C58.8709 13.6009 58.8198 13.4398 58.718 13.3084C58.6162 13.1769 58.4729 13.0766 58.2889 13.0077C58.1048 12.9388 57.8845 12.904 57.6279 12.904C57.3713 12.904 57.151 12.9403 56.9473 13.0125C56.7433 13.0851 56.5741 13.1936 56.4393 13.338C56.3045 13.4828 56.2142 13.6668 56.1683 13.8905L52.5981 13.5354C52.7032 12.9174 52.9595 12.3553 53.3675 11.8487C53.7752 11.3426 54.3391 10.9382 55.0589 10.6357C55.7787 10.3332 56.6548 10.1821 57.6872 10.1821C58.4696 10.1821 59.1779 10.2743 59.8125 10.4584C60.4468 10.6424 60.9893 10.899 61.4399 11.2278C61.8902 11.5566 62.2353 11.9395 62.4756 12.3768C62.7155 12.8141 62.8355 13.2858 62.8355 13.792V21.3467H59.1272V19.7886H59.0483C58.8246 20.2029 58.5566 20.5366 58.2444 20.7898C57.9319 21.0431 57.5787 21.2286 57.1843 21.3471C56.79 21.4656 56.3523 21.5245 55.8724 21.5245H55.8728ZM57.1547 19.0192C57.4572 19.0192 57.7416 18.957 58.0078 18.8318C58.274 18.707 58.491 18.5278 58.6588 18.2942C58.8265 18.0609 58.9102 17.7765 58.9102 17.441V16.5335C58.805 16.5731 58.6932 16.6124 58.5747 16.652C58.4562 16.6916 58.3296 16.7275 58.1952 16.7605C58.0604 16.7934 57.9223 16.823 57.7808 16.8493C57.6394 16.8756 57.4898 16.9019 57.3321 16.9282C57.0229 16.9741 56.7715 17.0515 56.5774 17.16C56.3834 17.2685 56.2405 17.3999 56.1483 17.5543C56.0561 17.7088 56.0102 17.8817 56.0102 18.072C56.0102 18.276 56.0594 18.4486 56.1583 18.5896C56.2568 18.7311 56.3916 18.8381 56.5626 18.9103C56.7337 18.9829 56.9307 19.0188 57.1543 19.0188L57.1547 19.0192Z" fill="#B8B8B8"/>
<path d="M64.8475 21.3466V6.65137H68.8125V21.3469H64.8475V21.3466ZM68.3981 18.7428V14.0284H68.9506L71.6136 10.3201H76.0714L71.5936 16.0997H70.4694L68.3981 18.7428ZM71.6529 21.3466L69.1279 16.9873L71.7121 14.1665L76.1699 21.3466H71.6529Z" fill="#B8B8B8"/>
<path d="M81.9299 21.5441C80.7528 21.5441 79.7386 21.319 78.8874 20.8683C78.0357 20.4181 77.3833 19.7686 76.9297 18.9203C76.4761 18.072 76.2491 17.053 76.2491 15.8629C76.2491 14.6728 76.4776 13.7309 76.9345 12.8796C77.3915 12.0283 78.0376 11.3655 78.8726 10.8923C79.7075 10.4187 80.6939 10.1821 81.8314 10.1821C82.6664 10.1821 83.421 10.3121 84.0949 10.5717C84.7689 10.8316 85.3457 11.2063 85.826 11.6958C86.3059 12.1857 86.6743 12.7793 86.9305 13.4761C87.1871 14.173 87.3152 14.962 87.3152 15.8433V16.7508H77.4722V14.581H85.4609L83.6066 15.0346C83.6066 14.5877 83.5406 14.2111 83.4092 13.9053C83.2777 13.5994 83.0837 13.3661 82.8271 13.2051C82.5705 13.044 82.2517 12.9633 81.8703 12.9633C81.4889 12.9633 81.1701 13.044 80.9135 13.2051C80.6569 13.3661 80.4629 13.5994 80.3314 13.9053C80.2 14.2111 80.1341 14.5877 80.1341 15.0346V16.6127C80.1341 17.0993 80.2115 17.5021 80.3659 17.8209C80.5203 18.1401 80.7391 18.3767 81.0216 18.5311C81.3042 18.6855 81.633 18.7629 82.0081 18.7629C82.2776 18.7629 82.5224 18.7252 82.7427 18.6496C82.963 18.5741 83.1519 18.4656 83.31 18.3242C83.4677 18.1827 83.5862 18.0102 83.6651 17.8065L87.1564 18.3193C86.9724 18.9769 86.6469 19.5472 86.18 20.0304C85.7131 20.5136 85.1228 20.8868 84.4097 21.1497C83.6962 21.4126 82.8693 21.5441 81.9292 21.5441H81.9299Z" fill="#B8B8B8"/>
<path d="M93.8145 21.5453C92.8151 21.5453 91.9323 21.4038 91.1662 21.1213C90.4001 20.8388 89.7788 20.4359 89.3023 19.9131C88.8253 19.3903 88.5247 18.7675 88.3999 18.044L92.069 17.5115C92.2004 17.9455 92.4141 18.2791 92.7099 18.5127C93.0058 18.7464 93.4331 18.863 93.9922 18.863C94.3799 18.863 94.6828 18.8038 94.8997 18.6856C95.1167 18.5672 95.2252 18.3965 95.2252 18.1728C95.2252 17.9625 95.1234 17.7948 94.9194 17.67C94.7153 17.5452 94.3965 17.443 93.9626 17.3641L92.0097 17.009C90.8919 16.8054 90.0536 16.4321 89.4948 15.8897C88.9361 15.3472 88.6565 14.6422 88.6565 13.7743C88.6565 13.0049 88.862 12.3539 89.273 11.8214C89.684 11.289 90.2691 10.8828 91.0285 10.6032C91.7879 10.3237 92.6936 10.1841 93.7456 10.1841C94.7187 10.1841 95.5703 10.3107 96.3001 10.5636C97.0299 10.8169 97.6168 11.1801 98.0608 11.6533C98.5048 12.1269 98.7825 12.6986 98.8943 13.3696L95.4029 13.8724C95.3174 13.511 95.1301 13.2463 94.8409 13.0785C94.5513 12.9108 94.2129 12.8271 93.8248 12.8271C93.4827 12.8271 93.1935 12.8878 92.9569 13.0097C92.7203 13.1315 92.6018 13.3074 92.6018 13.5373C92.6018 13.7017 92.6725 13.8565 92.814 14.0009C92.9554 14.1457 93.2331 14.2542 93.6475 14.3264L95.8962 14.7207C97.0203 14.9181 97.8605 15.2598 98.4163 15.7464C98.9717 16.2329 99.2498 16.8839 99.2498 17.6992C99.2498 18.5146 99.0146 19.1703 98.5444 19.7457C98.0741 20.3212 97.4313 20.7651 96.6163 21.0773C95.801 21.3894 94.8672 21.5457 93.8152 21.5457L93.8145 21.5453Z" fill="#B8B8B8"/>
<path d="M106.074 21.5437C104.877 21.5437 103.853 21.3056 103.002 20.8287C102.15 20.3522 101.499 19.6879 101.049 18.8366C100.599 17.9853 100.373 16.9941 100.373 15.8629C100.373 14.7317 100.598 13.7409 101.049 12.8892C101.499 12.038 102.15 11.3737 103.002 10.8971C103.853 10.4206 104.877 10.1821 106.074 10.1821C106.837 10.1821 107.527 10.2806 108.145 10.478C108.763 10.6753 109.301 10.9564 109.758 11.3211C110.215 11.6862 110.578 12.1265 110.848 12.6426C111.117 13.1588 111.285 13.7357 111.35 14.3737L107.711 14.9161C107.665 14.6269 107.598 14.3722 107.509 14.1519C107.42 13.9316 107.31 13.746 107.178 13.5946C107.047 13.4435 106.894 13.3299 106.72 13.2543C106.545 13.1788 106.35 13.141 106.133 13.141C105.784 13.141 105.482 13.2395 105.225 13.4369C104.969 13.6342 104.77 13.9334 104.629 14.3344C104.487 14.7354 104.417 15.2386 104.417 15.8433C104.417 16.448 104.487 16.9445 104.629 17.3522C104.77 17.7599 104.969 18.0672 105.225 18.2742C105.482 18.4811 105.784 18.5848 106.133 18.5848C106.35 18.5848 106.545 18.5456 106.72 18.4663C106.894 18.3875 107.049 18.2708 107.183 18.1161C107.318 17.9617 107.43 17.7695 107.519 17.5392C107.608 17.3092 107.672 17.046 107.711 16.7501L111.35 17.2826C111.284 17.9402 111.117 18.53 110.848 19.0529C110.578 19.5757 110.216 20.023 109.763 20.3944C109.309 20.7658 108.771 21.0501 108.15 21.2475C107.529 21.4448 106.837 21.5433 106.074 21.5433V21.5437Z" fill="#B8B8B8"/>
<path d="M118.264 21.5437C117.067 21.5437 116.042 21.3056 115.187 20.8287C114.332 20.3522 113.68 19.6879 113.229 18.8366C112.779 17.9853 112.554 16.9941 112.554 15.8629C112.554 14.7317 112.779 13.7409 113.229 12.8892C113.68 12.038 114.333 11.3737 115.187 10.8971C116.042 10.4206 117.067 10.1821 118.264 10.1821C119.461 10.1821 120.483 10.4206 121.332 10.8971C122.18 11.3741 122.829 12.038 123.28 12.8892C123.73 13.7409 123.955 14.7321 123.955 15.8629C123.955 16.9937 123.73 17.985 123.28 18.8366C122.829 19.6883 122.18 20.3522 121.332 20.8287C120.483 21.3056 119.461 21.5437 118.264 21.5437ZM118.264 18.5848C118.606 18.5848 118.9 18.4763 119.147 18.2594C119.393 18.0424 119.582 17.7284 119.714 17.3174C119.846 16.9067 119.911 16.415 119.911 15.8429C119.911 15.2708 119.846 14.7747 119.714 14.3733C119.583 13.9723 119.393 13.6664 119.147 13.4561C118.9 13.2458 118.606 13.1406 118.264 13.1406C117.922 13.1406 117.617 13.2458 117.367 13.4561C117.117 13.6664 116.926 13.9723 116.794 14.3733C116.663 14.7743 116.597 15.2642 116.597 15.8429C116.597 16.4217 116.663 16.9067 116.794 17.3174C116.926 17.7284 117.117 18.0424 117.367 18.2594C117.617 18.4763 117.915 18.5848 118.264 18.5848Z" fill="#B8B8B8"/>
</svg>
