<?xml version="1.0" encoding="UTF-8"?>
<svg id="Layer_1" xmlns="http://www.w3.org/2000/svg" version="1.1" viewBox="0 0 3237.29 502.51">
  <!-- Generator: Adobe Illustrator 29.1.0, SVG Export Plug-In . SVG Version: 2.1.0 Build 142)  -->
  <path d="M210.46,502.45c-34.46-1.21-68.45-1.98-102.38-3.79-20.49-1.1-40.61-4.73-59.34-14.08-19.21-9.59-30.32-25.5-36.09-45.44-8.25-28.52-10.69-57.87-11.06-87.41C.93,300.42-.19,249.11.03,197.81c.12-28.45,1.57-56.99,4.33-85.3,1.78-18.25,5.4-36.69,11.13-54.08,7.17-21.76,22.37-37.43,44.76-45.11,20.52-7.03,41.81-9.8,63.27-10.65,84.27-3.35,168.57-3.73,252.85-.04,25.16,1.1,50.09,4.29,73.56,14.46,22.22,9.62,35.88,26.52,42.96,49.46,10.61,34.38,11.64,69.89,12.18,105.32.72,47.98.65,95.98,0,143.96-.35,26.46-1.82,52.97-4.19,79.32-1.64,18.15-4.8,36.23-11.91,53.37-8.14,19.64-22.27,32.35-41.98,39.98-18.65,7.22-38,9.39-57.64,10.64-59.41,3.8-118.9,3.41-178.88,3.31M221.27,186.19c35.81-19.76,71.65-39.48,107.4-59.35,4.67-2.6,8.94-5.93,14.11-9.4-3.24-2.34-5.25-4.08-7.51-5.36-7.38-4.18-15.11-7.79-22.21-12.39-7.3-4.72-13.78-4.16-21.18-.15-40.65,22-81.46,43.71-122.18,65.56-5.47,2.93-9.2,7.41-9.24,13.84-.13,21.8-.1,43.61.04,65.41.03,5.73,2.81,10.28,7.79,13.13,7.07,4.04,14.21,7.95,21.46,11.65,4.68,2.39,9.87,2.64,14.52.33,10.42-5.17,20.78-10.51,30.82-16.39,7.48-4.38,6.89-8.54-.79-12.94-9.51-5.44-18.94-11.02-28.21-16.85-1.7-1.07-3.4-3.54-3.54-5.48-.79-11.01-1.15-22.03,11.75-27.31,2.27-.93,4.23-2.63,6.98-4.31M304.34,228.51c9.83,3.25,14.02,10.65,14.67,20.41.84,12.62,1.43,25.26,2.13,37.89.72,13.13,1.2,26.27,2.22,39.37.58,7.48,3.82,13.63,11.01,17.23,7.28,3.64,14.42,7.56,21.57,11.45,3.64,1.98,5.28.75,5.58-3.09.1-1.33.29-2.66.27-3.98-.67-39.44-1.24-78.88-2.14-118.32-.24-10.53-4.68-19.79-13.54-25.5-12.68-8.18-26.01-15.37-39.18-22.78-3.7-2.08-7.66-1.88-11.35.62-7.84,5.32-15.85,10.39-23.53,15.92-6.98,5.03-6.9,7.92.56,12.48,10.2,6.24,20.71,11.98,31.72,18.31M204.53,308.72c-10.21,5.59-20.46,11.12-30.63,16.79-6.96,3.89-13.78,8.29-14.32,17.24-.64,10.62-.98,21.3-.66,31.92.2,6.59,2.43,7.3,8.27,4.03,36.26-20.34,72.39-40.92,108.9-60.8,8.03-4.37,10.69-10.3,10.78-18.46.09-8,.07-15.99,0-23.99-.06-8-2.71-9.9-9.81-6.11-24.05,12.85-47.93,26.02-72.55,39.36Z" fill="#b8b8b8"/>
  <g>
    <path d="M757.74,454.49c-34.45,0-64.5-5.1-90.16-15.32-25.66-10.21-45.59-25.97-59.8-47.28-14.21-21.31-21.4-48.57-21.58-81.77h102.28c.71,12.08,3.77,22.29,9.19,30.63,5.41,8.35,13.05,14.65,22.91,18.91,9.86,4.26,21.71,6.39,35.56,6.39,11.54,0,21.22-1.42,29.03-4.26,7.81-2.84,13.72-6.79,17.71-11.85,4-5.06,5.99-10.87,5.99-17.45,0-6.03-1.91-11.32-5.73-15.85-3.82-4.53-10.08-8.66-18.78-12.39-8.7-3.73-20.42-7.1-35.16-10.12l-39.95-8.52c-34.98-7.46-62.55-20.2-82.7-38.22-20.16-18.02-30.23-42.57-30.23-73.65,0-25.21,6.83-47.28,20.51-66.19,13.67-18.91,32.54-33.65,56.6-44.22,24.06-10.56,51.81-15.85,83.24-15.85s59.89,5.37,83.24,16.11c23.35,10.75,41.37,25.84,54.07,45.28,12.69,19.44,19.13,42.13,19.31,68.05h-103.35c-.89-12.96-5.64-23.04-14.25-30.23-8.62-7.19-21.62-10.79-39.02-10.79-11.01,0-20.07,1.29-27.17,3.86-7.1,2.58-12.34,6.17-15.72,10.79-3.38,4.62-5.06,9.86-5.06,15.72,0,6.22,1.82,11.68,5.46,16.38,3.64,4.71,9.41,8.79,17.31,12.25,7.9,3.46,18.07,6.53,30.5,9.19l32.5,6.93c21.84,4.62,40.62,10.75,56.34,18.38,15.72,7.64,28.59,16.56,38.62,26.77,10.03,10.21,17.4,21.71,22.11,34.49,4.7,12.78,7.06,26.73,7.06,41.82,0,26.1-6.44,48.26-19.31,66.46-12.88,18.2-31.3,32.01-55.27,41.42s-52.74,14.12-86.3,14.12Z" fill="#b8b8b8"/>
    <path d="M1068.32,282.42v167.27h-107.08V52.82h104.41v175.26h-5.06c6.75-22.55,17.71-41.51,32.9-56.87,15.18-15.36,36.45-23.04,63.79-23.04,21.13,0,39.46,4.79,55,14.38,15.54,9.59,27.57,22.82,36.09,39.69,8.52,16.87,12.78,36.14,12.78,57.8v189.65h-107.08v-167.27c0-14.74-3.73-26.32-11.19-34.76-7.46-8.43-17.94-12.65-31.43-12.65-8.7,0-16.29,1.91-22.77,5.73-6.48,3.82-11.5,9.24-15.05,16.25-3.55,7.02-5.33,15.49-5.33,25.44Z" fill="#b8b8b8"/>
    <path d="M1398.61,454.49c-19,0-35.83-3.15-50.48-9.46-14.65-6.3-26.06-15.85-34.23-28.63-8.17-12.79-12.25-29.03-12.25-48.74,0-16.34,2.75-30.27,8.26-41.82,5.5-11.54,13.23-21,23.17-28.37,9.94-7.37,21.53-13.05,34.76-17.05,13.23-4,27.57-6.53,43.02-7.59,16.69-1.24,30.05-2.75,40.09-4.53,10.03-1.77,17.31-4.39,21.84-7.86,4.53-3.46,6.79-8.03,6.79-13.72v-1.07c0-5.15-1.38-9.5-4.13-13.05-2.75-3.55-6.62-6.26-11.59-8.12-4.97-1.86-10.92-2.8-17.85-2.8s-12.88.98-18.38,2.93c-5.51,1.96-10.08,4.89-13.72,8.79-3.64,3.91-6.08,8.88-7.32,14.92l-96.42-9.59c2.84-16.69,9.76-31.87,20.78-45.55,11.01-13.67,26.24-24.59,45.68-32.76,19.44-8.17,43.1-12.25,70.98-12.25,21.13,0,40.26,2.49,57.4,7.46,17.13,4.97,31.78,11.9,43.95,20.78,12.16,8.88,21.48,19.22,27.97,31.03,6.48,11.81,9.72,24.55,9.72,38.22v204.03h-100.15v-42.08h-2.13c-6.04,11.19-13.28,20.2-21.71,27.04-8.44,6.84-17.98,11.85-28.63,15.05-10.65,3.2-22.47,4.79-35.43,4.79ZM1433.23,386.83c8.17,0,15.85-1.68,23.04-5.06,7.19-3.37,13.05-8.21,17.58-14.52,4.53-6.3,6.79-13.98,6.79-23.04v-24.51c-2.84,1.07-5.86,2.13-9.06,3.2-3.2,1.07-6.62,2.04-10.25,2.93-3.64.89-7.37,1.69-11.19,2.4-3.82.71-7.86,1.42-12.12,2.13-8.35,1.24-15.14,3.33-20.38,6.26-5.24,2.93-9.1,6.48-11.59,10.65-2.49,4.17-3.73,8.84-3.73,13.98,0,5.51,1.33,10.17,4,13.98,2.66,3.82,6.3,6.71,10.92,8.66,4.62,1.96,9.94,2.93,15.98,2.93Z" fill="#b8b8b8"/>
    <path d="M1640.99,449.69V52.82h107.08v396.88h-107.08ZM1736.88,379.37v-127.32h14.92l71.92-100.15h120.39l-120.93,156.09h-30.36l-55.94,71.38ZM1824.78,449.69l-68.19-117.73,69.79-76.18,120.39,193.91h-121.99Z" fill="#b8b8b8"/>
    <path d="M2102.33,455.02c-31.79,0-59.18-6.08-82.17-18.25-23-12.16-40.62-29.7-52.87-52.61-12.25-22.91-18.38-50.43-18.38-82.57s6.17-57.58,18.51-80.57c12.34-22.99,29.79-40.89,52.34-53.67,22.55-12.79,49.19-19.18,79.91-19.18,22.55,0,42.93,3.51,61.13,10.52,18.2,7.02,33.78,17.14,46.75,30.36,12.96,13.23,22.91,29.26,29.83,48.08,6.93,18.82,10.39,40.13,10.39,63.93v24.51h-265.83v-58.6h215.75l-50.08,12.25c0-12.07-1.78-22.24-5.33-30.5-3.55-8.26-8.79-14.56-15.72-18.91-6.93-4.35-15.54-6.53-25.84-6.53s-18.91,2.18-25.84,6.53c-6.93,4.35-12.17,10.65-15.72,18.91-3.55,8.26-5.33,18.43-5.33,30.5v42.62c0,13.14,2.09,24.02,6.26,32.63,4.17,8.62,10.08,15.01,17.71,19.18,7.63,4.17,16.51,6.26,26.64,6.26,7.28,0,13.89-1.02,19.84-3.06,5.95-2.04,11.05-4.97,15.32-8.79,4.26-3.82,7.46-8.48,9.59-13.98l94.29,13.85c-4.97,17.76-13.76,33.16-26.37,46.21-12.61,13.05-28.55,23.13-47.81,30.23-19.27,7.1-41.6,10.65-66.99,10.65Z" fill="#b8b8b8"/>
    <path d="M2423.29,455.02c-26.99,0-50.83-3.82-71.52-11.45-20.69-7.63-37.47-18.51-50.34-32.63-12.88-14.12-21-30.94-24.37-50.48l99.09-14.38c3.55,11.72,9.32,20.73,17.31,27.04,7.99,6.31,19.53,9.46,34.63,9.46,10.47,0,18.65-1.6,24.51-4.79,5.86-3.2,8.79-7.81,8.79-13.85,0-5.68-2.75-10.21-8.26-13.58-5.51-3.37-14.12-6.13-25.84-8.26l-52.74-9.59c-30.19-5.5-52.83-15.58-67.92-30.23-15.09-14.65-22.64-33.69-22.64-57.13,0-20.78,5.55-38.36,16.65-52.74,11.1-14.38,26.9-25.35,47.41-32.9,20.51-7.55,44.97-11.32,73.38-11.32,26.28,0,49.28,3.42,68.99,10.25,19.71,6.84,35.56,16.65,47.55,29.43,11.99,12.79,19.49,28.23,22.51,46.35l-94.29,13.58c-2.31-9.76-7.37-16.91-15.18-21.44-7.82-4.53-16.96-6.79-27.44-6.79-9.24,0-17.05,1.64-23.44,4.93-6.39,3.29-9.59,8.04-9.59,14.25,0,4.44,1.91,8.62,5.73,12.52,3.82,3.91,11.32,6.84,22.51,8.79l60.73,10.65c30.36,5.33,53.05,14.56,68.06,27.7,15,13.14,22.51,30.72,22.51,52.74s-6.35,39.73-19.05,55.27c-12.7,15.54-30.06,27.53-52.07,35.96-22.02,8.43-47.24,12.65-75.65,12.65Z" fill="#b8b8b8"/>
    <path d="M2754.38,455.02c-32.32,0-59.98-6.43-82.97-19.31-23-12.87-40.58-30.81-52.74-53.8-12.16-22.99-18.25-49.76-18.25-80.31s6.08-57.31,18.25-80.31c12.16-22.99,29.74-40.93,52.74-53.8,22.99-12.87,50.65-19.31,82.97-19.31,20.6,0,39.24,2.66,55.94,7.99,16.69,5.33,31.21,12.92,43.55,22.77,12.34,9.86,22.15,21.75,29.43,35.69,7.28,13.94,11.81,29.52,13.58,46.75l-98.29,14.65c-1.24-7.81-3.06-14.69-5.46-20.64-2.4-5.95-5.37-10.96-8.92-15.05-3.55-4.08-7.68-7.15-12.39-9.19-4.71-2.04-9.99-3.06-15.85-3.06-9.41,0-17.58,2.66-24.51,7.99-6.93,5.33-12.3,13.41-16.11,24.24-3.82,10.83-5.73,24.42-5.73,40.75s1.91,29.74,5.73,40.75c3.82,11.01,9.19,19.31,16.11,24.9,6.93,5.59,15.09,8.39,24.51,8.39,5.86,0,11.14-1.06,15.85-3.2,4.7-2.13,8.88-5.28,12.52-9.46,3.64-4.17,6.66-9.36,9.06-15.58,2.4-6.21,4.13-13.32,5.19-21.31l98.29,14.38c-1.78,17.76-6.31,33.69-13.58,47.81-7.28,14.12-17.05,26.2-29.3,36.23-12.25,10.03-26.77,17.71-43.55,23.04-16.78,5.33-35.47,7.99-56.07,7.99Z" fill="#b8b8b8"/>
    <path d="M3083.6,455.02c-32.32,0-60.02-6.43-83.1-19.31-23.09-12.87-40.71-30.81-52.87-53.8-12.16-22.99-18.25-49.76-18.25-80.31s6.08-57.31,18.25-80.31c12.16-22.99,29.79-40.93,52.87-53.8,23.08-12.87,50.78-19.31,83.1-19.31s59.93,6.44,82.84,19.31c22.91,12.88,40.44,30.81,52.61,53.8,12.16,23,18.25,49.77,18.25,80.31s-6.09,57.31-18.25,80.31c-12.16,23-29.7,40.93-52.61,53.8-22.91,12.88-50.52,19.31-82.84,19.31ZM3083.6,375.11c9.23,0,17.18-2.93,23.84-8.79,6.66-5.86,11.76-14.34,15.32-25.44,3.55-11.09,5.33-24.37,5.33-39.82s-1.78-28.85-5.33-39.69c-3.55-10.83-8.66-19.09-15.32-24.77-6.66-5.68-14.61-8.52-23.84-8.52s-17.49,2.84-24.24,8.52c-6.75,5.68-11.9,13.94-15.45,24.77-3.55,10.83-5.33,24.06-5.33,39.69s1.77,28.73,5.33,39.82c3.55,11.1,8.7,19.58,15.45,25.44,6.75,5.86,14.82,8.79,24.24,8.79Z" fill="#b8b8b8"/>
  </g>
</svg>