<svg width="134" height="28" viewBox="0 0 134 28" fill="none" xmlns="http://www.w3.org/2000/svg">
<path d="M8.66473 24.3074C7.25068 24.2577 5.85592 24.2262 4.46362 24.1519C3.62282 24.1067 2.79721 23.9578 2.02863 23.5741C1.24036 23.1806 0.784467 22.5277 0.547698 21.7095C0.209163 20.5392 0.109039 19.3348 0.0938566 18.1227C0.0667738 16.0172 0.0208152 13.9117 0.0298428 11.8067C0.0347669 10.6392 0.0942669 9.4681 0.207522 8.30642C0.280563 7.55754 0.429108 6.80086 0.664236 6.08727C0.958453 5.19436 1.58218 4.55135 2.50094 4.23621C3.34297 3.94773 4.21659 3.83407 5.09719 3.79919C8.55516 3.66172 12.0144 3.64613 15.4728 3.79755C16.5052 3.84269 17.5282 3.97359 18.4913 4.39091C19.403 4.78566 19.9636 5.47914 20.2541 6.42047C20.6895 7.83124 20.7317 9.28837 20.7539 10.7422C20.7834 12.7111 20.7806 14.6807 20.7539 16.6495C20.7395 17.7353 20.6792 18.8231 20.582 19.9044C20.5147 20.6492 20.385 21.3911 20.0932 22.0944C19.7592 22.9003 19.1794 23.4219 18.3706 23.735C17.6053 24.0312 16.8113 24.1203 16.0054 24.1716C13.5675 24.3275 11.1264 24.3115 8.66514 24.3074M9.10831 11.3298C10.5778 10.519 12.0484 9.7098 13.5154 8.89444C13.707 8.78775 13.8823 8.65111 14.0944 8.50872C13.9615 8.4127 13.879 8.3413 13.7862 8.28877C13.4834 8.11725 13.1662 7.96911 12.8749 7.78035C12.5753 7.58667 12.3094 7.60965 12.0058 7.7742C10.3377 8.67696 8.66309 9.56782 6.99216 10.4644C6.7677 10.5847 6.61465 10.7685 6.613 11.0323C6.60767 11.9269 6.6089 12.8219 6.61465 13.7164C6.61588 13.9515 6.72995 14.1382 6.9343 14.2552C7.22442 14.421 7.5174 14.5814 7.8149 14.7332C8.00694 14.8313 8.21991 14.8416 8.41072 14.7468C8.8383 14.5346 9.26342 14.3155 9.67541 14.0742C9.98234 13.8945 9.95813 13.7238 9.64299 13.5432C9.25275 13.32 8.8658 13.091 8.48541 12.8518C8.41565 12.8079 8.34589 12.7065 8.34015 12.6269C8.30773 12.1751 8.29296 11.7229 8.8223 11.5063C8.91545 11.4681 8.99588 11.3984 9.10872 11.3294M12.517 13.0664C12.9204 13.1998 13.0923 13.5034 13.119 13.9039C13.1535 14.4218 13.1777 14.9405 13.2064 15.4587C13.236 15.9975 13.2557 16.5367 13.2975 17.0743C13.3213 17.3812 13.4543 17.6336 13.7493 17.7813C14.048 17.9306 14.341 18.0915 14.6344 18.2511C14.7838 18.3324 14.8511 18.2819 14.8634 18.1243C14.8675 18.0697 14.8753 18.0152 14.8745 17.961C14.847 16.3426 14.8236 14.7242 14.7867 13.1058C14.7768 12.6737 14.5946 12.2937 14.2311 12.0594C13.7107 11.7238 13.1637 11.4287 12.6233 11.1247C12.4715 11.0393 12.309 11.0475 12.1576 11.1501C11.8359 11.3684 11.5072 11.5765 11.192 11.8034C10.9056 12.0098 10.9089 12.1284 11.215 12.3155C11.6336 12.5715 12.0648 12.8071 12.5166 13.0668M8.42139 16.3578C8.00243 16.5872 7.58183 16.8141 7.16451 17.0468C6.87891 17.2064 6.59905 17.3869 6.57689 17.7542C6.55063 18.19 6.53668 18.6282 6.54981 19.064C6.55802 19.3344 6.64952 19.3636 6.88917 19.2294C8.37708 18.3947 9.85965 17.5503 11.3578 16.7345C11.6873 16.5552 11.7965 16.3118 11.8002 15.977C11.8039 15.6487 11.803 15.3209 11.8002 14.9926C11.7977 14.6643 11.689 14.5863 11.3976 14.7419C10.4107 15.2691 9.43084 15.8096 8.42057 16.357L8.42139 16.3578Z" fill="#B8B8B8"/>
<path d="M32.7759 22.2939C31.3699 22.2939 30.1435 22.0858 29.0963 21.6687C28.0491 21.252 27.2357 20.6088 26.6557 19.7391C26.0758 18.8694 25.7824 17.7569 25.775 16.4019H29.9493C29.9782 16.8949 30.1031 17.3116 30.3243 17.652C30.5451 17.9928 30.8569 18.2499 31.2593 18.4237C31.6617 18.5976 32.1453 18.6845 32.7106 18.6845C33.1816 18.6845 33.5766 18.6266 33.8954 18.5107C34.2141 18.3948 34.4553 18.2336 34.6181 18.0271C34.7814 17.8205 34.8626 17.5834 34.8626 17.3149C34.8626 17.0688 34.7846 16.8529 34.6287 16.668C34.4728 16.4831 34.2174 16.3146 33.8623 16.1624C33.5072 16.0101 33.0289 15.8726 32.4274 15.7493L30.7969 15.4016C29.3693 15.0972 28.2441 14.5772 27.4218 13.8418C26.599 13.1064 26.188 12.1044 26.188 10.836C26.188 9.80714 26.4668 8.90642 27.0251 8.13467C27.583 7.36292 28.3531 6.76135 29.335 6.32997C30.317 5.899 31.4495 5.68311 32.7322 5.68311C34.0149 5.68311 35.1764 5.90227 36.1294 6.34058C37.0823 6.77931 37.8178 7.39516 38.3361 8.18854C38.854 8.98193 39.1168 9.90795 39.1242 10.9658H34.9063C34.8699 10.4369 34.6761 10.0255 34.3247 9.73205C33.9729 9.43861 33.4423 9.29169 32.7322 9.29169C32.2829 9.29169 31.9131 9.34433 31.6234 9.44922C31.3336 9.55452 31.1197 9.70103 30.9818 9.88958C30.8439 10.0781 30.7753 10.292 30.7753 10.5311C30.7753 10.785 30.8496 11.0078 30.9981 11.1996C31.1467 11.3919 31.3822 11.5584 31.7046 11.6996C32.027 11.8408 32.442 11.9661 32.9493 12.0746L34.2757 12.3575C35.167 12.546 35.9335 12.7962 36.5751 13.1076C37.2166 13.4194 37.7419 13.7834 38.1512 14.2001C38.5606 14.6168 38.8613 15.0862 39.0536 15.6077C39.2454 16.1293 39.3417 16.6986 39.3417 17.3145C39.3417 18.3797 39.0789 19.2841 38.5536 20.0268C38.028 20.7696 37.2762 21.3332 36.2979 21.7173C35.3197 22.1013 34.1455 22.2935 32.7759 22.2935V22.2939Z" fill="#B8B8B8"/>
<path d="M45.4512 15.2708V22.0974H41.0811V5.90039H45.3422V13.0531H45.1357C45.4112 12.1328 45.8585 11.359 46.4784 10.7321C47.0979 10.1052 47.966 9.7918 49.0818 9.7918C49.9442 9.7918 50.6922 9.98729 51.3265 10.3787C51.9607 10.7701 52.4516 11.31 52.7994 11.9985C53.1471 12.687 53.3209 13.4734 53.3209 14.3574V22.0974H48.9508V15.2708C48.9508 14.6692 48.7986 14.1966 48.4941 13.8522C48.1897 13.5081 47.7619 13.3359 47.2114 13.3359C46.8563 13.3359 46.5466 13.4138 46.2821 13.5697C46.0177 13.7257 45.8128 13.9468 45.6679 14.2329C45.523 14.5194 45.4504 14.8651 45.4504 15.2712L45.4512 15.2708Z" fill="#B8B8B8"/>
<path d="M58.9309 22.2935C58.1554 22.2935 57.4686 22.1649 56.8707 21.9074C56.2728 21.6503 55.8071 21.2605 55.4737 20.7389C55.1403 20.217 54.9738 19.5542 54.9738 18.7498C54.9738 18.0829 55.086 17.5144 55.3109 17.043C55.5353 16.5721 55.8508 16.186 56.2565 15.8852C56.6621 15.5844 57.1351 15.3526 57.6751 15.1894C58.215 15.0261 58.8003 14.9229 59.4308 14.8796C60.112 14.829 60.6572 14.7674 61.067 14.6947C61.4763 14.6225 61.7734 14.5156 61.9583 14.3739C62.1432 14.2327 62.2354 14.0462 62.2354 13.814V13.7703C62.2354 13.5601 62.1791 13.3826 62.0668 13.2377C61.9546 13.0929 61.7967 12.9823 61.5938 12.9063C61.391 12.8304 61.1482 12.7921 60.8653 12.7921C60.5825 12.7921 60.3397 12.8321 60.1152 12.9116C59.8904 12.9916 59.7038 13.1112 59.5553 13.2704C59.4067 13.43 59.3072 13.6328 59.2565 13.8793L55.3215 13.4879C55.4374 12.8068 55.7198 12.1872 56.1695 11.6289C56.6189 11.071 57.2404 10.6254 58.0338 10.2919C58.8272 9.9585 59.7928 9.79199 60.9306 9.79199C61.793 9.79199 62.5737 9.89361 63.2732 10.0964C63.9724 10.2993 64.5702 10.5821 65.0669 10.9445C65.5632 11.3069 65.9436 11.7289 66.2084 12.2109C66.4729 12.6929 66.6051 13.2128 66.6051 13.7707V22.0976H62.5178V20.3802H62.4309C62.1844 20.8369 61.8889 21.2046 61.5449 21.4838C61.2004 21.7629 60.8111 21.9674 60.3764 22.098C59.9418 22.2286 59.4594 22.2935 58.9305 22.2935H58.9309ZM60.3438 19.5321C60.6772 19.5321 60.9906 19.4636 61.2841 19.3256C61.5775 19.1881 61.8167 18.9906 62.0015 18.733C62.1864 18.4759 62.2787 18.1625 62.2787 17.7927V16.7924C62.1628 16.8361 62.0395 16.8794 61.9089 16.923C61.7783 16.9667 61.6387 17.0063 61.4906 17.0426C61.342 17.0789 61.1898 17.1116 61.0339 17.1406C60.878 17.1695 60.7131 17.1985 60.5393 17.2275C60.1985 17.2781 59.9214 17.3634 59.7075 17.483C59.4937 17.6026 59.3361 17.7474 59.2345 17.9176C59.1329 18.0878 59.0823 18.2784 59.0823 18.4882C59.0823 18.713 59.1366 18.9032 59.2455 19.0587C59.3541 19.2146 59.5026 19.3326 59.6912 19.4122C59.8797 19.4921 60.0969 19.5317 60.3434 19.5317L60.3438 19.5321Z" fill="#B8B8B8"/>
<path d="M68.8229 22.0974V5.90039H73.193V22.0978H68.8229V22.0974ZM72.7363 19.2275V14.0313H73.3452L76.2804 9.94403H81.1938L76.2584 16.3143H75.0193L72.7363 19.2275ZM76.3237 22.0974L73.5407 17.2926L76.389 14.1836L81.3023 22.0974H76.3237Z" fill="#B8B8B8"/>
<path d="M87.651 22.3151C86.3536 22.3151 85.2358 22.067 84.2975 21.5703C83.3588 21.074 82.6397 20.3582 82.1398 19.4232C81.6398 18.4882 81.3896 17.365 81.3896 16.0533C81.3896 14.7417 81.6415 13.7034 82.1451 12.7651C82.6487 11.8269 83.3609 11.0963 84.2812 10.5748C85.2015 10.0528 86.2887 9.79199 87.5424 9.79199C88.4627 9.79199 89.2945 9.93524 90.0373 10.2213C90.78 10.5078 91.4159 10.9208 91.9452 11.4604C92.4741 12.0003 92.8802 12.6545 93.1626 13.4226C93.4455 14.1907 93.5867 15.0604 93.5867 16.0317V17.032H82.7377V14.6404H91.5428L89.499 15.1404C89.499 14.6478 89.4263 14.2327 89.2814 13.8956C89.1365 13.5585 88.9227 13.3014 88.6399 13.1239C88.357 12.9463 88.0057 12.8574 87.5853 12.8574C87.1649 12.8574 86.8135 12.9463 86.5307 13.1239C86.2479 13.3014 86.034 13.5585 85.8891 13.8956C85.7443 14.2327 85.6716 14.6478 85.6716 15.1404V16.8798C85.6716 17.416 85.7569 17.8601 85.9271 18.2115C86.0973 18.5633 86.3385 18.8241 86.6499 18.9942C86.9613 19.1644 87.3237 19.2497 87.7371 19.2497C88.0342 19.2497 88.304 19.2081 88.5468 19.1248C88.7896 19.0416 88.9978 18.922 89.1721 18.7661C89.3459 18.6102 89.4765 18.42 89.5634 18.1956L93.4116 18.7608C93.2087 19.4856 92.85 20.1141 92.3354 20.6467C91.8207 21.1793 91.1702 21.5907 90.3842 21.8805C89.5977 22.1702 88.6864 22.3151 87.6502 22.3151H87.651Z" fill="#B8B8B8"/>
<path d="M100.75 22.3162C99.6485 22.3162 98.6756 22.1603 97.8312 21.8489C96.9868 21.5375 96.3019 21.0935 95.7767 20.5173C95.251 19.941 94.9196 19.2545 94.7821 18.4571L98.8261 17.8702C98.971 18.3485 99.2065 18.7162 99.5326 18.9737C99.8587 19.2313 100.33 19.3598 100.946 19.3598C101.373 19.3598 101.707 19.2945 101.946 19.1643C102.185 19.0337 102.305 18.8456 102.305 18.5991C102.305 18.3673 102.193 18.1824 101.968 18.0449C101.743 17.9073 101.392 17.7947 100.913 17.7078L98.7608 17.3164C97.5287 17.0919 96.6048 16.6805 95.9889 16.0826C95.3731 15.4847 95.0649 14.7077 95.0649 13.7511C95.0649 12.903 95.2914 12.1855 95.7444 11.5986C96.1975 11.0118 96.8423 10.5641 97.6793 10.2559C98.5164 9.94781 99.5146 9.79395 100.674 9.79395C101.747 9.79395 102.685 9.93352 103.49 10.2123C104.294 10.4914 104.941 10.8918 105.43 11.4134C105.92 11.9353 106.226 12.5655 106.349 13.305L102.501 13.8592C102.407 13.4609 102.2 13.1691 101.881 12.9842C101.562 12.7993 101.189 12.7071 100.761 12.7071C100.384 12.7071 100.066 12.774 99.8048 12.9083C99.544 13.0426 99.4134 13.2364 99.4134 13.4899C99.4134 13.6711 99.4914 13.8417 99.6473 14.0008C99.8032 14.1604 100.109 14.28 100.566 14.3596L103.044 14.7942C104.284 15.0117 105.21 15.3884 105.822 15.9247C106.434 16.461 106.741 17.1784 106.741 18.0771C106.741 18.9758 106.482 19.6986 105.963 20.3328C105.445 20.967 104.737 21.4563 103.838 21.8004C102.94 22.1444 101.91 22.3166 100.751 22.3166L100.75 22.3162Z" fill="#B8B8B8"/>
<path d="M114.262 22.3147C112.943 22.3147 111.814 22.0523 110.876 21.5266C109.938 21.0014 109.22 20.2692 108.724 19.3309C108.228 18.3927 107.979 17.3001 107.979 16.0533C107.979 14.8065 108.227 13.7144 108.724 12.7757C109.22 11.8375 109.938 11.1053 110.876 10.5801C111.814 10.0548 112.943 9.79199 114.262 9.79199C115.103 9.79199 115.864 9.90055 116.545 10.1181C117.227 10.3356 117.819 10.6454 118.323 11.0474C118.826 11.4498 119.227 11.935 119.524 12.5039C119.821 13.0729 120.006 13.7087 120.078 14.4119L116.067 15.0098C116.016 14.691 115.942 14.4103 115.844 14.1674C115.746 13.9246 115.625 13.7201 115.48 13.5532C115.335 13.3867 115.166 13.2614 114.974 13.1781C114.782 13.0949 114.566 13.0533 114.327 13.0533C113.943 13.0533 113.61 13.1618 113.327 13.3794C113.044 13.5969 112.825 13.9266 112.67 14.3686C112.514 14.8106 112.436 15.3653 112.436 16.0317C112.436 16.6982 112.514 17.2455 112.67 17.6948C112.825 18.1441 113.045 18.4829 113.327 18.711C113.61 18.9391 113.943 19.0534 114.327 19.0534C114.566 19.0534 114.782 19.0102 114.974 18.9228C115.166 18.8359 115.337 18.7073 115.485 18.5367C115.634 18.3666 115.757 18.1547 115.855 17.9009C115.953 17.6475 116.023 17.3573 116.067 17.0312L120.078 17.6181C120.005 18.3429 119.821 18.993 119.524 19.5693C119.227 20.1455 118.828 20.6386 118.328 21.0479C117.828 21.4572 117.236 21.7707 116.551 21.9882C115.866 22.2057 115.103 22.3143 114.262 22.3143V22.3147Z" fill="#B8B8B8"/>
<path d="M127.698 22.3147C126.379 22.3147 125.249 22.0523 124.307 21.5266C123.365 21.0014 122.646 20.2692 122.149 19.3309C121.653 18.3927 121.404 17.3001 121.404 16.0533C121.404 14.8065 121.653 13.7144 122.149 12.7757C122.646 11.8375 123.365 11.1053 124.307 10.5801C125.249 10.0548 126.379 9.79199 127.698 9.79199C129.017 9.79199 130.144 10.0548 131.079 10.5801C132.014 11.1057 132.73 11.8375 133.226 12.7757C133.723 13.7144 133.971 14.8069 133.971 16.0533C133.971 17.2997 133.723 18.3923 133.226 19.3309C132.73 20.2696 132.014 21.0014 131.079 21.5266C130.144 22.0523 129.017 22.3147 127.698 22.3147ZM127.698 19.0534C128.075 19.0534 128.4 18.9338 128.671 18.6947C128.943 18.4555 129.151 18.1094 129.297 17.6564C129.441 17.2038 129.514 16.6618 129.514 16.0313C129.514 15.4008 129.441 14.8539 129.297 14.4115C129.152 13.9695 128.943 13.6324 128.671 13.4006C128.4 13.1688 128.075 13.0529 127.698 13.0529C127.322 13.0529 126.985 13.1688 126.709 13.4006C126.434 13.6324 126.223 13.9695 126.079 14.4115C125.934 14.8535 125.861 15.3934 125.861 16.0313C125.861 16.6692 125.933 17.2038 126.079 17.6564C126.223 18.1094 126.434 18.4555 126.709 18.6947C126.985 18.9338 127.314 19.0534 127.698 19.0534Z" fill="#B8B8B8"/>
</svg>
