<?xml version="1.0" encoding="UTF-8"?>
<svg id="Layer_1" xmlns="http://www.w3.org/2000/svg" width="145" height="34" version="1.1" viewBox="0 0 145 34">
  <!-- Generator: Adobe Illustrator 29.1.0, SVG Export Plug-In . SVG Version: 2.1.0 Build 142)  -->
  <path d="M67.3,7.5v3.5h-3.3v3.2h3.3v14.7h4.3v-14.7h3.3v-3.2h-3.3v-6.9h-4.3v3.5ZM112.4,8.9v4.8l-.5-.5c-.3-.3-.7-.7-.9-.8-1.6-1.2-3.6-1.8-5.8-1.7-1.2,0-2.1.3-3.2.8-1.1.5-2,1.2-2.9,2.1-.7.7-1.2,1.4-1.6,2.2-1,2-1.3,4.2-.8,6.3.5,2.4,2,4.5,4.1,5.9,1.7,1.1,3.6,1.6,5.4,1.5,2.2-.2,4.2-1.1,5.8-2.5l.4-.4v2.4h4.1v-12.4s0-12.4,0-12.4h-2s-2,0-2,0v4.8ZM39.1,10.6c-1.1.1-2.1.4-3.2,1-.9.5-1.5.9-2.2,1.5-1.5,1.4-2.5,3.2-2.9,5.3-.1.5-.1.8-.1,1.8s0,1.3.1,1.8c.4,2.1,1.4,3.8,2.9,5.2,2.6,2.4,6.3,3.3,9.7,2.1,3.4-1.1,5.8-4,6.5-7.6.1-.7.1-2.3,0-3-.7-3.9-3.4-6.9-7.2-7.9-1-.3-2.4-.4-3.4-.2ZM21,10.8c-1.7.1-3.3.8-4.4,1.9-.7.7-1.2,1.4-1.5,2.4-.1.4-.1.6-.1,1.2,0,.6,0,.8.1,1.2.2.7.5,1.1,1,1.6.8.8,1.8,1.3,3.6,2,.5.2,1.3.5,1.7.6,1.9.7,2.9,1.4,3.1,2.2,0,.3,0,.9-.1,1.1-.4.8-1.3,1.3-2.5,1.4-1.8.1-3.1-.9-3.4-2.6v-.4h-4v.5c.1,1,.6,2.3,1.4,3.2.4.5,1.2,1.3,1.7,1.6,2.5,1.6,6.1,1.5,8.5-.2,2.2-1.5,3-4.2,2-6.3-.7-1.4-1.9-2.3-4.8-3.4-2.2-.8-3.3-1.3-3.9-1.8-.5-.4-.5-.5-.6-.9,0-.3,0-.5.1-.7.2-.5.8-1,1.6-1.1.4-.1,1.4,0,1.8,0,1,.3,1.6,1.1,1.8,2.1v.4h4.2v-.2c0-.2-.1-1-.3-1.4-.5-1.5-1.7-3-3.1-3.7-1.1-.6-2.7-.9-4.1-.7ZM84.2,10.8c-1.2,0-2.4.4-3.5,1-.9.4-1.6.9-2.3,1.6-3,2.9-3.9,7.3-2.1,11,1.3,2.8,3.9,4.7,7,5.3,2.9.5,5.8-.3,7.8-2.1.7-.7,1.1-1.1,1.7-1.9.3-.5,1.1-1.9,1.1-2.1s-.2,0-2,0h-2l-.2.3c-.1.2-.4.5-.7.8-1.7,1.8-4.2,2.3-6.4,1.3-1.2-.5-2.3-1.6-2.9-2.9-.2-.3-.5-1.2-.6-1.6h0c0-.1,7.6-.1,7.6-.1,6.5,0,7.6,0,7.6,0,0-.2,0-1.5,0-2.1-.2-2.6-1.4-4.6-3.4-6.3-1.9-1.5-4.4-2.3-6.8-2.1ZM60.5,10.9c-.9.2-1.6.5-2.4,1-.8.5-1.4,1.1-1.8,1.7l-.2.3v-2.5h-4v8.9s0,8.9,0,8.9h4v-5.4s0-5.4,0-5.4v-.3c.8-1.9,2.2-3.2,3.9-3.7.5-.1.6-.1,1.5-.1.5,0,1.1,0,1.2,0h.2s0-1.6,0-1.6v-1.7s-.2,0-.2,0c-.7-.2-1.5-.2-2.2,0ZM107.4,14c.9.1,1.8.5,2.6,1,.4.3,1.1.9,1.4,1.3.6.7,1,1.7,1.2,2.7.1.7,0,1.9,0,2.5-.3,1.2-.9,2.1-1.7,3-1.2,1.2-2.7,1.7-4.4,1.7-.9,0-1.6-.2-2.4-.6-1.8-.9-3.1-2.5-3.4-4.5-.1-.7,0-1.7.1-2.5.2-.7.6-1.6,1-2.1,1.3-1.8,3.5-2.7,5.6-2.4ZM41.6,14.3c1.7.4,3.2,1.7,4,3.3,1.4,3,0,6.6-3,8.1-1.3.6-2.9.7-4.3.2-1.9-.6-3.4-2.2-4-4.2-.1-.5-.1-.6-.1-1.5s0-1,.1-1.5c.6-2.3,2.5-4,4.8-4.4.7-.1,1.8,0,2.5,0ZM85.8,14.3c2.2.3,3.9,1.7,4.6,3.7v.3c0,0-5.5,0-5.5,0-3.1,0-5.6,0-5.6,0,0-.1.4-.9.7-1.3.9-1.3,2.3-2.3,3.8-2.6.5,0,1.3-.1,1.9,0Z" fill="#b8b8b8" fill-rule="evenodd"/>
  <path d="M121,4.1h8.9v8.9l-8.9-8.9Z" fill="#b8b8b8"/>
</svg>