<?xml version="1.0" encoding="UTF-8"?>
<svg id="Layer_1" xmlns="http://www.w3.org/2000/svg" version="1.1" viewBox="0 0 145 34">
  <!-- Generator: Adobe Illustrator 29.6.1, SVG Export Plug-In . SVG Version: 2.1.1 Build 9)  -->
  <path d="M39.2,20.6l3.3-10.9c1.6-.8,1.5.8,1.8,1.7.8,2.5,1.5,5,2.3,7.6s.7,2.8,1.3,1.7l3.6-10.8c1.8-1,1.4.7,1.1,1.9-.9,3.5-2.7,8.6-4,11.9s-.3.6-.5.9c-1.1.4-1.5-.4-1.8-1.3-1-3-1.5-6-2.5-9.1s-1-1.9-1.4-.9,0,.7-.1,1c-.9,2.8-1.8,5.6-2.7,8.5s0,.7,0,1c-.2.6-1.2,1-1.7.4s-.6-1.4-.7-1.6c-.9-2.5-1.6-5.3-2.4-7.8s-1.2-2.8-1.6-4.1,1.3-1.6,1.8-.2,0,.7.1,1c.9,2.7,1.9,5.2,2.7,7.9s-.2,1.8,1.4,1.1Z" fill="#c6c6c6"/>
  <path d="M107.1,15.8c-2.3-2.6-6.6-1.3-9.5-3.9-3.2-2.8-2.1-7.4,1.8-8.9s7.4-.6,9.6,2.1,1.1,1.5.2,1.9-1.9-1.3-2.6-1.9c-2.1-1.6-6.1-1.4-8,.4s-1,2.3-.8,3.6.6,1.2,1,1.5c2.1,1.9,5.4,1.5,7.9,2.6,5.9,2.7,4.3,11-2.2,11.5-2,.2-4.4,0-6.1-.9s-3.6-2.7-2.9-3.8,2.4,1.3,3,1.8c1.7,1.4,4.6,1.9,6.6,1.3,3.5-.9,4.6-4.7,2.2-7.4Z" fill="#c6c6c6"/>
  <path d="M28.1,4.3c.6.5,2.6,2.5,1.3,2.9s-1.2-.6-1.6-1c-2.2-2.4-6.6-2.8-9-.5s-1,2.5-.8,3.8.7,1.1.9,1.3c2.9,2.7,8.9,1,10.9,5.4s-.9,8.4-5.3,8.7c-2.6.2-4.9,0-7-1.5s-2.9-2.6-1.9-3.3,2.4,1.7,3.3,2.3c1.9,1.3,5.6,1.5,7.6.4s2.9-4.8.9-6.8-4.7-1.6-7.2-2.5c-5.1-1.9-5.7-8.1-.5-10.2s6-.7,8.5,1.2Z" fill="#c6c6c6"/>
  <path d="M89,11.7c2.1,2.3,2.5,7,.9,9.6-2.2,3.8-7.3,4.6-10.8,2.2s-1.8-2.1-2-.5.4,5.6,0,7.8-1.5.7-1.7-.6c.4-4.9-.7-11,.4-15.7,1.3-5.4,9.5-6.9,13.2-2.9ZM81.6,11.1c-3,.5-5,4.5-4.4,7.3,1.1,5.1,7.7,6.9,10.9,2.6,2.2-3,1.4-7-1.5-9.1-1.3-1-3.4-1.1-5-.8Z" fill="#c6c6c6"/>
  <path d="M70.4,24.6c-.3.2-1,0-1.2-.1-.5-.5,0-1.9-.6-2.1s-1,.8-1.4,1c-6.5,4.3-13.6-1.4-11.7-8.9s12.2-7.1,14.7-.5c.8,2.1,1,7.3.7,9.6s-.3.9-.4,1ZM58.5,21.6c5.1,5,12.9-1,9.8-7.4s-7-4.4-9.8-1.5-2.4,6.5,0,8.8Z" fill="#c6c6c6"/>
  <path d="M116.3,22.9c-1.4-1.4-2.6-4.5-2.3-6.5s.9-3.2,1.4-3.9c2.6-3.7,8.4-4.2,11.7-1.2s3.4,8.4.4,11.4-8.4,2.9-11.2.2ZM120.2,11.1c-1.6.3-3.6,2.3-4.2,3.8s-.2,4,0,4.4,1.1,2,1.4,2.2c2,2,5,2.6,7.5,1.2s3.1-3.1,3.1-5.5-.4-3.2-1.6-4.5-3.9-2-6.1-1.7Z" fill="#c6c6c6"/>
</svg>