<svg width="148" height="28" viewBox="0 0 148 28" fill="none" xmlns="http://www.w3.org/2000/svg">
<path d="M14.5843 12.3275H18.8416C18.9896 12.3275 19.5238 12.6563 19.6553 12.7713C20.4607 13.47 20.3292 14.4727 20.2799 15.4425L10.4748 23.8175V21.3765L14.4363 15.5329H10.4748V11.6947L13.3185 7.43729H9.54608V23.7025L9.48033 23.7682H5.00926L4.94351 23.7025V7.43729H0.842285V4.18262H18.6115C18.8005 4.18262 19.269 4.36343 19.4416 4.47028C20.4608 5.07848 20.3457 6.31131 20.2882 7.34689C18.5458 8.94135 16.6718 10.4043 14.913 11.9741C14.8062 12.0645 14.6253 12.196 14.5843 12.3275Z" fill="#B8B8B8"/>
<path fill-rule="evenodd" clip-rule="evenodd" d="M63.5635 23.9822V3.53361L63.5717 3.52539H61.0074V11.3909C58.3527 9.0156 54.1036 10.0019 52.4269 13.0346C50.5612 16.4208 51.1201 22.5192 55.2542 23.9986C57.3254 24.7383 59.7088 24.4589 61.1882 22.7411C61.2172 22.8416 61.2444 22.9466 61.272 23.0533L61.272 23.0534L61.272 23.0535L61.2721 23.0537L61.2721 23.0537C61.3618 23.4007 61.4561 23.7651 61.6321 24.0479H63.4977L63.5635 23.9822ZM54.4898 19.8316C53.5447 17.292 54.0625 12.6566 57.4486 12.3442H57.4569C58.5171 12.2456 59.602 12.6073 60.4403 13.2401C60.6047 13.3634 60.9828 13.651 61.0074 13.8401L60.991 20.4398C59.2404 22.7987 55.6076 22.8233 54.4898 19.8316ZM123.824 24.0562V3.53361L123.832 3.52539H121.268V11.3909C119.008 9.26217 115.194 9.84571 113.304 12.1634C111.175 14.7688 111.134 20.1193 113.444 22.6343C115.17 24.5164 118.613 25.0342 120.701 23.4726C120.825 23.382 120.944 23.2603 121.058 23.144L121.059 23.1439L121.059 23.1438L121.059 23.1436L121.059 23.1436C121.172 23.028 121.281 22.9176 121.383 22.848C121.394 22.8396 121.401 22.8312 121.409 22.8236C121.429 22.8015 121.443 22.7864 121.498 22.7987L121.893 24.0562H123.824ZM114.644 19.396C113.937 16.8729 114.479 12.6566 117.718 12.3442H117.726C118.844 12.2374 119.986 12.6401 120.849 13.3387L120.865 13.3519C120.881 13.3649 120.899 13.3787 120.917 13.3932C121.06 13.5064 121.253 13.6587 121.26 13.799V20.4892C119.246 22.9877 115.572 22.7329 114.644 19.396ZM81.9572 3.53338V11.3988C84.1517 9.41809 87.9077 9.73863 89.8556 11.9084C92.1569 14.4809 91.9843 19.8478 89.7652 22.4286C87.5461 25.0093 83.8887 25.1655 81.7353 22.7984L81.3408 24.0559H79.4094V3.53338H81.9572ZM87.5338 21.1998C89.0832 19.6438 89.1889 15.86 88.1625 14.0207C87.094 12.1139 84.7845 11.9166 83.001 12.9276C82.8038 13.0426 81.9983 13.5768 81.9654 13.7494L81.9901 20.5136C83.263 22.197 85.9307 22.7974 87.5338 21.1998ZM68.1249 17.8671H77.2067V17.8507C77.3875 14.6782 76.615 10.8811 72.9822 10.1907C67.3687 9.13045 64.6976 14.6042 65.6921 19.4287C66.6044 23.8505 70.8782 24.9271 74.8479 24.171C75.489 24.0477 76.1876 23.8587 76.7465 23.5135V21.3519C74.9465 21.993 72.9165 22.3793 71.0426 21.8615C69.0865 21.3273 68.1824 19.8396 68.1249 17.8671ZM74.437 15.6316H68.3386H68.3303C68.316 15.6201 68.3056 15.6247 68.2979 15.6281C68.2835 15.6345 68.2782 15.6369 68.2728 15.5247C68.2646 15.3521 68.4865 14.7028 68.5687 14.5138C69.9084 11.2591 74.3794 11.7112 74.5109 15.4261C74.5109 15.4836 74.5027 15.6316 74.437 15.6316ZM137.459 17.8674H128.435C128.435 18.5249 128.55 19.1906 128.813 19.7906C130.136 22.7987 134.476 22.3384 136.999 21.3522V23.5877C136.317 23.8754 135.602 24.1055 134.87 24.2288C130.966 24.8781 126.906 23.7932 125.986 19.4947C125.336 16.4373 126.101 12.5251 128.986 10.8649C130.843 9.79642 133.728 9.76355 135.413 11.1936C137.311 12.7963 137.591 15.5496 137.459 17.8674ZM134.772 15.6318C134.788 14.2428 134.057 12.6977 132.586 12.3936C130.49 11.958 128.797 13.6346 128.575 15.6318H134.772ZM45.7695 7.47015V5.07024H30.6797V7.5359H36.8767V23.9901L36.9507 24.0559H39.5068L39.5807 23.9901V7.5359H45.7038L45.7695 7.47015ZM107.386 24.0559V15.2371C107.321 14.1357 107.14 12.8454 105.923 12.4673C104.091 11.9084 102.241 13.0673 101.239 14.5385V24.0559H98.7484L98.6827 23.9902V10.429H100.729L101.058 12.007C101.113 12.0193 101.127 12.0042 101.148 11.9821C101.155 11.9745 101.162 11.9661 101.173 11.9577C101.299 11.8694 101.436 11.7293 101.578 11.5839L101.579 11.5838C101.714 11.4452 101.854 11.3017 101.995 11.1934C103.244 10.2318 104.781 9.92767 106.334 10.1496C108.915 10.5112 109.844 12.4673 109.951 14.8672C110.004 16.0643 109.98 17.5703 109.954 19.1504C109.928 20.738 109.901 22.4004 109.951 23.8998L109.877 24.0641H107.386V24.0559ZM147.158 12.5418V10.1419V10.1336C145.169 9.8542 143.147 10.6432 141.922 12.2295L141.503 10.4131H139.522V24.0482H142.013L142.078 23.9824V14.6787C142.078 14.6376 142.456 14.1609 142.522 14.0951C143.369 13.2239 144.865 12.6897 146.065 12.6075C146.187 12.6007 146.331 12.608 146.476 12.6154C146.681 12.6258 146.889 12.6364 147.043 12.6075C147.092 12.5993 147.125 12.5911 147.158 12.5418ZM49.5009 10.4211V24.0562H47.0024L46.9367 23.9905V10.4211H49.5009ZM95.9787 24.0562V10.4211H93.4144V23.9905L93.4883 24.0562H95.9787ZM49.5422 4.98006H46.8875V7.77448H49.5422V4.98006ZM93.3652 4.98006H96.0199V7.77448H93.3652V4.98006Z" fill="#B8B8B8"/>
</svg>
