<?xml version="1.0" encoding="UTF-8"?>
<svg id="Layer_1" xmlns="http://www.w3.org/2000/svg" version="1.1" viewBox="0 0 1920 1080">
  <!-- Generator: Adobe Illustrator 29.1.0, SVG Export Plug-In . SVG Version: 2.1.0 Build 142)  -->
  <defs>
    <style>
      .st0 {
        fill: #b8b8b8;
      }
    </style>
  </defs>
  <path class="st0" d="M237.3,521.2h51.8c1.8,0,8.3,4,9.9,5.4,9.8,8.5,8.2,20.7,7.6,32.5l-119.3,101.9v-29.7l48.2-71.1h-48.2v-46.7l34.6-51.8h-45.9v197.9l-.8.8h-54.4l-.8-.8v-197.9h-49.9v-39.6h216.2c2.3,0,8,2.2,10.1,3.5,12.4,7.4,11,22.4,10.3,35-21.2,19.4-44,37.2-65.4,56.3-1.3,1.1-3.5,2.7-4,4.3Z"/>
  <path class="st0" d="M832.8,413v248.8l-.8.8h-22.7c-2.8-4.5-3.9-10.7-5.4-15.9-18,20.9-47,24.3-72.2,15.3-50.3-18-57.1-92.2-34.4-133.4,20.4-36.9,72.1-48.9,104.4-20v-95.7h31.2ZM758.4,520.2c-41.2,3.8-47.5,60.2-36,91.1,13.6,36.4,57.8,36.1,79.1,7.4l.2-80.3c-.3-2.3-4.9-5.8-6.9-7.3-10.2-7.7-23.4-12.1-36.3-10.9Z"/>
  <path class="st0" d="M1566,413v249.7h-23.5l-4.8-15.3c-.9-.2-.9.2-1.4.6-2.5,1.7-5.3,5.4-8.3,7.6-25.4,19-67.3,12.7-88.3-10.2-28.1-30.6-27.6-95.7-1.7-127.4,23-28.2,69.4-35.3,96.9-9.4v-95.7h31.2ZM1491.7,520.2c-39.4,3.8-46,55.1-37.4,85.8,11.3,40.6,56,43.7,80.5,13.3v-81.4c-.1-2-3.3-4.2-5-5.6-10.5-8.5-24.4-13.4-38-12.1Z"/>
  <path class="st0" d="M1056.6,413v95.7c26.7-24.1,72.4-20.2,96.1,6.2,28,31.3,25.9,96.6-1.1,128s-71.5,33.3-97.7,4.5l-4.8,15.3h-23.5v-249.7h31.2ZM1124.4,628c18.9-18.9,20.2-65,7.7-87.4-13-23.2-41.1-25.6-62.8-13.3-2.4,1.4-12.2,7.9-12.6,10l.3,82.3c15.5,20.5,48,27.8,67.5,8.3Z"/>
  <path class="st0" d="M998.8,587.4h-110.5c.7,24,11.7,42.1,35.5,48.6,22.8,6.3,47.5,1.6,69.4-6.2v26.3c-6.8,4.2-15.3,6.5-23.1,8-48.3,9.2-100.3-3.9-111.4-57.7-12.1-58.7,20.4-125.3,88.7-112.4,44.2,8.4,53.6,54.6,51.4,93.2ZM890.9,560.2h74.2c.8,0,.9-1.8.9-2.5-1.6-45.2-56-50.7-72.3-11.1-1,2.3-3.7,10.2-3.6,12.3s.2.9.7,1.3Z"/>
  <path class="st0" d="M1732,587.4h-109.9c0,8,1.4,16.1,4.6,23.4,16.1,36.6,68.9,31,99.6,19v27.2c-8.3,3.5-17,6.3-25.9,7.8-47.5,7.9-96.9-5.3-108.1-57.6-7.9-37.2,1.4-84.8,36.5-105,22.6-13,57.7-13.4,78.2,4,23.1,19.5,26.5,53,24.9,81.2ZM1699.2,560.2c.2-16.9-8.7-35.7-26.6-39.4-25.5-5.3-46.1,15.1-48.8,39.4h75.4Z"/>
  <polygon class="st0" points="616.3 431.7 616.3 460.9 615.5 461.7 541 461.7 541 661.9 540.1 662.7 509 662.7 508.1 661.9 508.1 461.7 432.7 461.7 432.7 431.7 616.3 431.7"/>
  <path class="st0" d="M1366,662.7v-107.3c-.8-13.4-3-29.1-17.8-33.7-22.3-6.8-44.8,7.3-57,25.2v115.8h-30.3l-.8-.8v-165h24.9l4,19.2c.9.2.9-.2,1.4-.6,3-2.1,6.5-6.6,10-9.3,15.2-11.7,33.9-15.4,52.8-12.7,31.4,4.4,42.7,28.2,44,57.4s-1.2,73.5,0,109.9l-.9,2h-30.3Z"/>
  <path class="st0" d="M1849.9,493.4v29.2c-.4.6-.8.7-1.4.8-3.2.6-8.3-.2-11.9,0-14.6,1-32.8,7.5-43.1,18.1-.8.8-5.4,6.6-5.4,7.1v113.2l-.8.8h-30.3v-165.9h24.1l5.1,22.1c14.9-19.3,39.5-28.9,63.7-25.5Z"/>
  <polygon class="st0" points="661.7 496.8 661.7 662.7 631.3 662.7 630.5 661.9 630.5 496.8 661.7 496.8"/>
  <polygon class="st0" points="1227.2 496.8 1227.2 662.7 1196.9 662.7 1196 661.9 1196 496.8 1227.2 496.8"/>
  <rect class="st0" x="629.9" y="430.6" width="32.3" height="34"/>
  <rect class="st0" x="1195.4" y="430.6" width="32.3" height="34"/>
</svg>