<svg width="176" height="26" viewBox="0 0 176 26" fill="none" xmlns="http://www.w3.org/2000/svg">
<path d="M17.0949 11.0041H22.1755C22.3521 11.0041 22.9896 11.3964 23.1465 11.5337C24.1077 12.3674 23.9508 13.564 23.8919 14.7214L12.1908 24.716V21.8029L16.9183 14.8293H12.1908V10.2489L15.5844 5.16823H11.0824V24.5786L11.004 24.6571H5.66831L5.58985 24.5786V5.16823H0.695557V1.28418H21.9009C22.1265 1.28418 22.6855 1.49996 22.8915 1.62747C24.1077 2.35327 23.9704 3.8245 23.9018 5.06034C21.8224 6.96313 19.5861 8.70899 17.4872 10.5824C17.3597 10.6902 17.1439 10.8472 17.0949 11.0041Z" fill="#B8B8B8"/>
<path fill-rule="evenodd" clip-rule="evenodd" d="M75.5453 24.9126V0.509808L75.5551 0.5H72.495V9.88644C69.3269 7.05188 64.2561 8.22886 62.2552 11.8481C60.0288 15.8891 60.6957 23.1667 65.6292 24.9322C68.1009 25.815 70.9453 25.4815 72.7108 23.4316C72.7453 23.5513 72.7777 23.6765 72.8106 23.8036L72.8107 23.804L72.8107 23.8043L72.8108 23.8045C72.9179 24.2186 73.0304 24.6536 73.2404 24.9911H75.4669L75.5453 24.9126ZM64.7171 19.9595C63.5891 16.9287 64.2071 11.3969 68.248 11.0242H68.2579C69.5231 10.9065 70.8178 11.3381 71.8182 12.0933C72.0144 12.2404 72.4656 12.5837 72.495 12.8093L72.4754 20.6853C70.3862 23.5002 66.051 23.5296 64.7171 19.9595ZM147.459 25.0009V0.509808L147.469 0.5H144.409V9.88645C141.711 7.34612 137.16 8.0425 134.904 10.8084C132.364 13.9176 132.315 20.3028 135.071 23.3041C137.131 25.5501 141.241 26.1681 143.732 24.3045C143.879 24.1963 144.022 24.0512 144.158 23.9123C144.294 23.7742 144.424 23.6422 144.546 23.5591C144.558 23.5491 144.568 23.539 144.576 23.53C144.601 23.5036 144.618 23.4856 144.683 23.5002L145.154 25.0009H147.459ZM136.503 19.4396C135.66 16.4285 136.307 11.3969 140.171 11.0242H140.181C141.515 10.8967 142.879 11.3773 143.908 12.211C143.933 12.231 143.96 12.2527 143.989 12.2757L143.99 12.276C144.16 12.411 144.39 12.5928 144.399 12.7602V20.7441C141.996 23.7258 137.612 23.4218 136.503 19.4396ZM97.496 0.509882V9.89633C100.115 7.53255 104.597 7.91507 106.922 10.5044C109.668 13.5744 109.462 19.9792 106.814 23.0589C104.166 26.1387 99.8009 26.3251 97.2311 23.5003L96.7604 25.001H94.4554V0.509882H97.496ZM104.151 21.5927C106 19.7359 106.126 15.2203 104.901 13.0251C103.626 10.7496 100.87 10.5142 98.7416 11.7207C98.5062 11.858 97.545 12.4955 97.5058 12.7015L97.5352 20.7736C99.0542 22.7825 102.238 23.4991 104.151 21.5927ZM80.9889 17.6154H91.8269V17.5958C92.0427 13.8098 91.1207 9.27843 86.7855 8.45454C80.0865 7.18928 76.8988 13.7215 78.0856 19.479C79.1743 24.7558 84.2746 26.0406 89.012 25.1383C89.777 24.9912 90.6107 24.7656 91.2777 24.3536V21.7741C89.1297 22.5391 86.707 23.0001 84.4708 22.3822C82.1364 21.7446 81.0575 19.9694 80.9889 17.6154ZM88.5216 14.9476H81.2439H81.2341C81.2169 14.9338 81.2045 14.9393 81.1953 14.9434C81.1782 14.9511 81.1718 14.9539 81.1654 14.8201C81.1556 14.6141 81.4204 13.8392 81.5185 13.6136C83.1172 9.7296 88.4529 10.2691 88.6098 14.7024C88.6098 14.771 88.6 14.9476 88.5216 14.9476ZM163.731 17.6153H152.961C152.961 18.4 153.099 19.1945 153.413 19.9104C154.992 23.5003 160.17 22.951 163.182 21.774V24.4418C162.367 24.7851 161.514 25.0598 160.641 25.2069C155.982 25.9817 151.137 24.687 150.039 19.5574C149.264 15.9087 150.176 11.24 153.619 9.25875C155.835 7.98368 159.278 7.94445 161.289 9.65108C163.554 11.5637 163.888 14.8494 163.731 17.6153ZM160.523 14.9475C160.543 13.2899 159.67 11.446 157.915 11.0831C155.413 10.5632 153.393 12.5641 153.128 14.9475H160.523ZM54.3106 5.20784V2.34384H36.3027V5.2863H43.6981V24.9223L43.7864 25.0008H46.8367L46.925 24.9223V5.2863H54.2321L54.3106 5.20784ZM127.843 25.0008V14.4766C127.764 13.1623 127.548 11.6224 126.097 11.1712C123.909 10.5043 121.703 11.8872 120.506 13.6429V25.0008H117.534L117.456 24.9223V8.73882H119.898L120.29 10.622C120.356 10.6366 120.373 10.6186 120.397 10.5922C120.406 10.5832 120.415 10.5732 120.428 10.5631C120.578 10.4577 120.742 10.2905 120.912 10.1169L120.912 10.1168C121.073 9.95141 121.241 9.78018 121.408 9.65098C122.899 8.50342 124.733 8.14052 126.587 8.40534C129.667 8.8369 130.775 11.1712 130.903 14.0352C130.966 15.4639 130.937 17.261 130.907 19.1467C130.876 21.0412 130.844 23.0252 130.903 24.8145L130.814 25.0106H127.843V25.0008ZM175.304 11.2597V8.39573V8.38592C172.931 8.05244 170.518 8.99403 169.057 10.887L168.556 8.7194H166.193V24.9912H169.165L169.243 24.9127V13.8099C169.243 13.7608 169.694 13.1919 169.773 13.1135C170.783 12.0738 172.568 11.4363 174 11.3382C174.146 11.3301 174.318 11.3388 174.491 11.3476C174.736 11.36 174.983 11.3726 175.167 11.3382C175.226 11.3284 175.265 11.3186 175.304 11.2597ZM58.7635 8.72899V25.0008H55.7818L55.7033 24.9223V8.72899H58.7635ZM114.229 25.0008V8.72899H111.169V24.9223L111.257 25.0008H114.229ZM58.8125 2.23601H55.6445V5.5708H58.8125V2.23601ZM111.11 2.23601H114.278V5.5708H111.11V2.23601Z" fill="#B8B8B8"/>
</svg>
