<?xml version="1.0" encoding="UTF-8"?>
<svg id="Layer_1" xmlns="http://www.w3.org/2000/svg" version="1.1" viewBox="0 0 304 44">
  <!-- Generator: Adobe Illustrator 29.6.1, SVG Export Plug-In . SVG Version: 2.1.1 Build 9)  -->
  <path d="M94.593,17.361c.818.051,1.255.45,1.255,1.152v8.118c-.055.45-.109.852-.217,1.253-.109.401-.245.752-.409,1.052-.871,1.553-2.343,2.331-4.414,2.331h-5.068c-2.126,0-3.598-.778-4.414-2.331-.192-.302-.326-.652-.437-1.052-.109-.401-.164-.801-.192-1.253v-8.118c0-.701.409-1.103,1.255-1.152h12.646-.004ZM84.538,24.453c0,.225.055.476.217.727.136.251.328.501.599.701.273.225.573.401.954.55.354.151.763.225,1.227.225h.682c.328-.1.626-.251.954-.401.3-.151.573-.351.818-.55.245-.2.437-.401.599-.652.136-.225.217-.476.217-.752v-3.457c-.055-.727-.437-1.128-1.144-1.177h-3.871c-.79,0-1.199.401-1.253,1.177v3.61Z" fill="#b8b8b8"/>
  <path d="M76.66,26.633c0,1.904-.846,3.257-2.507,4.034-.709.351-1.553.55-2.535.601h-8.858c-.79,0-1.199-.376-1.255-1.128v-2.356c0-.701.409-1.103,1.255-1.152h6.295c1.581,0,2.452-.778,2.563-2.331v-5.787c0-.752.409-1.152,1.253-1.152h2.535c.763,0,1.199.401,1.255,1.152,0,0,0,8.118,0,8.118ZM61.507,21.997v-3.482c0-.701.409-1.103,1.255-1.152h1.308c.763,0,1.199.401,1.255,1.152v2.331c0,.752.409,1.128,1.28,1.152.818.051,1.253.45,1.253,1.154s-.409,1.103-1.227,1.154h-2.563c-1.717-.1-2.563-.852-2.563-2.305l.002-.002Z" fill="#b8b8b8"/>
  <path d="M46.137,18.515v2.581c.109.601.518.903,1.227.903h2.889c.354-.051.682-.176.954-.425.273-.225.49-.501.682-.826.164-.325.3-.676.409-1.052.081-.376.136-.752.136-1.103v-.074c0-.752.409-1.152,1.255-1.152h2.535c.818,0,1.255.401,1.255,1.152v1.228c0,1.052-.3,1.878-.899,2.456-.599.576-1.444.926-2.535,1.028,1.144.1,1.99.425,2.563,1.028.573.601.871,1.428.871,2.479v3.382c0,.778-.437,1.154-1.255,1.154h-2.535c-.846,0-1.255-.376-1.255-1.154v-1.154c0-.351-.055-.801-.164-1.328s-.273-1.028-.49-1.528c-.217-.476-.464-.877-.79-1.228-.328-.325-.682-.501-1.063-.501h-3.025c-.437.125-.709.427-.763.877v4.886c-.055.752-.49,1.128-1.255,1.128h-1.308c-.846,0-1.253-.376-1.253-1.128v-11.626c0-.752.409-1.152,1.253-1.152h1.308c.763,0,1.199.401,1.255,1.152l-.002-.006Z" fill="#b8b8b8"/>
  <path d="M37.034,17.361c.818.051,1.255.45,1.255,1.152v8.118c-.055.45-.109.852-.217,1.253-.109.401-.245.752-.409,1.052-.871,1.553-2.343,2.331-4.414,2.331h-5.068c-2.126,0-3.598-.778-4.414-2.331-.192-.302-.328-.652-.437-1.052-.109-.401-.164-.801-.192-1.253v-8.118c0-.701.409-1.103,1.255-1.152h12.646-.004ZM26.976,24.453c0,.225.055.476.217.727.136.251.328.501.599.701.273.225.573.401.954.55.354.151.763.225,1.227.225h.682c.328-.1.626-.251.954-.401.3-.151.573-.351.818-.55s.437-.401.599-.652c.136-.225.217-.476.217-.752v-3.457c-.055-.727-.437-1.128-1.144-1.177h-3.871c-.79,0-1.199.401-1.253,1.177v3.61Z" fill="#b8b8b8"/>
  <path d="M2.439,12.728h16.862c1.018,0,1.598.535,1.672,1.537-.072,1.036-.582,1.537-1.525,1.537h-3.634c-1.055.133-1.562.635-1.562,1.436v12.527c-.072,1.003-.654,1.504-1.672,1.504h-3.415c-1.127,0-1.672-.501-1.672-1.504v-12.393c0-.903-.545-1.438-1.562-1.571h-3.489c-1.055,0-1.6-.501-1.672-1.537.072-1.003.618-1.537,1.672-1.537l-.002.002Z" fill="#b8b8b8"/>
  <path d="M217.856,17.361c.763,0,1.199.401,1.255,1.152v10.449c-.109,1.553-.954,2.305-2.507,2.305h-3.788c-.709,0-1.363-.1-1.962-.302-.599-.2-1.144-.501-1.608-.877-.462-.376-.818-.826-1.091-1.379s-.409-1.154-.409-1.855v-6.013c0-.701-.409-1.077-1.227-1.177-.846.074-1.253.476-1.253,1.177v9.27c-.055.778-.49,1.154-1.308,1.154h-1.255c-.79,0-1.199-.376-1.253-1.154v-10.449c.109-1.528.927-2.305,2.507-2.305h6.351c1.662,0,2.507.778,2.507,2.305v5.938c0,.701.409,1.028,1.227,1.028.328-.025.601-.151.871-.401.245-.225.381-.425.381-.601v-7.115c.055-.752.49-1.152,1.308-1.152h1.253v.002Z" fill="#b8b8b8"/>
  <path d="M197.418,18.515v11.626c-.055.752-.49,1.128-1.253,1.128h-2.563c-.846,0-1.255-.376-1.255-1.128v-11.626c.055-.752.464-1.152,1.255-1.152h2.563c.763,0,1.199.401,1.253,1.152Z" fill="#b8b8b8"/>
  <path d="M187.062,17.361c.818.051,1.255.45,1.255,1.152v8.118c-.055.45-.109.852-.217,1.253-.109.401-.245.752-.409,1.052-.871,1.553-2.343,2.331-4.414,2.331h-5.068c-2.126,0-3.598-.778-4.414-2.331-.192-.302-.328-.652-.437-1.052-.109-.401-.164-.801-.192-1.253v-8.118c0-.701.409-1.103,1.253-1.152h12.646-.002ZM177.005,24.453c0,.225.055.476.217.727.136.251.328.501.601.701.273.225.573.401.954.55.354.151.763.225,1.227.225h.682c.328-.1.626-.251.954-.401.3-.151.573-.351.818-.55.245-.2.437-.401.599-.652.136-.225.217-.476.217-.752v-3.457c-.055-.727-.437-1.128-1.144-1.177h-3.871c-.79,0-1.199.401-1.255,1.177v3.61Z" fill="#b8b8b8"/>
  <path d="M157.467,17.361h10.411c.763,0,1.199.401,1.253,1.152-.055.778-.49,1.154-1.253,1.154h-6.623c-.79,0-1.199.401-1.253,1.177v3.457c0,1.453.818,2.231,2.507,2.331h5.368c.818.051,1.253.45,1.253,1.152v2.356c0,.752-.437,1.128-1.253,1.128h-7.876c-2.126,0-3.598-.778-4.414-2.331-.192-.302-.326-.652-.437-1.052-.109-.401-.164-.801-.192-1.253v-6.964c0-1.453.818-2.205,2.507-2.305Z" fill="#b8b8b8"/>
  <path d="M138.531,17.361h11.691c.763,0,1.199.401,1.253,1.152-.055.778-.437,1.154-1.144,1.154h-2.262c-.79.1-1.172.476-1.172,1.077v9.395c-.055.752-.49,1.128-1.255,1.128h-2.563c-.846,0-1.253-.376-1.253-1.128v-9.295c0-.676-.409-1.077-1.172-1.177h-2.126c-.79,0-1.199-.376-1.253-1.154.055-.752.464-1.152,1.253-1.152h.002Z" fill="#b8b8b8"/>
  <path d="M133.246,18.515v11.626c-.055.752-.49,1.128-1.253,1.128h-2.561c-.846,0-1.253-.376-1.253-1.128v-11.626c.055-.752.462-1.152,1.253-1.152h2.561c.763,0,1.199.401,1.253,1.152Z" fill="#b8b8b8"/>
  <path d="M123.107,15.033v2.638c0,.635-.145,1.203-.364,1.671-.217.501-.618.868-1.199,1.103.401.468.763.834,1.091,1.136.292.335.473.701.473,1.169v6.214c0,.266-.109.501-.292.768-.181.268-.401.501-.654.701-.292.233-.582.435-.871.568-.328.166-.618.266-.908.266h-15.807c-1.055,0-1.6-.501-1.672-1.537v-15.466c.072-1.003.618-1.537,1.672-1.537h15.807c.292.033.582.133.871.266.29.166.582.368.871.568.254.233.473.468.654.734s.292.535.328.734v.004ZM108.027,17.371v6.148c0,.969.545,1.502,1.672,1.571h5.015c1.018,0,1.6-.501,1.672-1.571,0-.501-.181-.903-.509-1.169-.364-.268-.726-.401-1.091-.401h-3.598c-1.127,0-1.672-.501-1.672-1.502,0-.936.545-1.471,1.672-1.537h3.924c.181,0,.364-.067.545-.166s.326-.268.473-.468c.145-.2.217-.501.254-.903-.072-1.036-.654-1.571-1.672-1.571h-5.015c-1.127.1-1.672.635-1.672,1.571h.002Z" fill="#b8b8b8"/>
  <path d="M290.338,17.361h11.638c.763,0,1.199.401,1.255,1.152-.055.778-.492,1.154-1.255,1.154h-6.595c-.79,0-1.199.401-1.255,1.177.055.778.464,1.152,1.255,1.152h6.595c.763,0,1.199.401,1.255,1.154-.055.801-.492,1.177-1.255,1.177h-6.595c-.79,0-1.199.401-1.255,1.154.055.778.464,1.154,1.255,1.154h6.595c.818.051,1.255.45,1.255,1.152v2.356c0,.752-.437,1.128-1.255,1.128h-11.638c-.788,0-1.199-.376-1.253-1.128v-11.626c0-.701.409-1.103,1.253-1.152v-.002Z" fill="#b8b8b8"/>
  <path d="M282.543,31.267h-11.474c-.381,0-.656-.1-.871-.302-.219-.2-.3-.476-.3-.826v-2.356c0-.701.409-1.103,1.253-1.152h7.578c.763,0,1.199-.376,1.253-1.128v-.1c0-.727-.437-1.103-1.253-1.103h-6.323c-1.691,0-2.507-.752-2.507-2.305v-2.331c0-1.528.816-2.305,2.507-2.305h11.391c.763,0,1.199.401,1.255,1.152-.055.778-.492,1.154-1.255,1.154h-7.603c-.788,0-1.199.401-1.253,1.177.053.778.464,1.152,1.253,1.152h6.295c1.583,0,2.454.778,2.563,2.305v4.659c0,1.553-.844,2.305-2.507,2.305v.004Z" fill="#b8b8b8"/>
  <path d="M251.967,31.267c-.79,0-1.199-.376-1.255-1.154v-10.423c.109-1.553.954-2.331,2.563-2.331h11.31c.844,0,1.28.401,1.28,1.152v11.626c-.055.752-.492,1.128-1.28,1.128h-2.507c-.844,0-1.255-.376-1.255-1.128v-4.761c-.053-.652-.488-1.003-1.253-1.077h-2.563c-.816,0-1.225-.376-1.225-1.154,0-.752.409-1.154,1.225-1.154h2.563c.763,0,1.172-.351,1.253-1.077v-.074c-.053-.752-.488-1.154-1.253-1.154h-3.788c-.846.051-1.255.45-1.255,1.154v9.27c-.053.778-.492,1.154-1.253,1.154h-1.308v.004Z" fill="#b8b8b8"/>
  <path d="M246.37,15.033v2.638c0,.635-.147,1.203-.366,1.671-.217.501-.618.868-1.197,1.103.398.468.761.834,1.089,1.136.292.335.473.701.473,1.169v6.214c0,.266-.111.501-.292.768-.181.268-.398.501-.652.701-.292.233-.582.435-.871.568-.328.166-.618.266-.91.266h-15.807c-1.055,0-1.6-.501-1.672-1.537v-15.466c.072-1.003.618-1.537,1.672-1.537h15.807c.292.033.582.133.871.266.292.166.582.368.871.568.254.233.473.468.656.734.181.266.29.535.328.734v.004ZM231.288,17.371v6.148c0,.969.545,1.502,1.672,1.571h5.015c1.016,0,1.598-.501,1.67-1.571,0-.501-.181-.903-.509-1.169-.362-.268-.726-.401-1.089-.401h-3.598c-1.127,0-1.67-.501-1.67-1.502,0-.936.545-1.471,1.67-1.537h3.924c.181,0,.366-.067.548-.166.181-.1.326-.268.471-.468.147-.2.219-.501.254-.903-.072-1.036-.656-1.571-1.67-1.571h-5.015c-1.127.1-1.672.635-1.672,1.571Z" fill="#b8b8b8"/>
</svg>