<svg width="89" height="46" viewBox="0 0 89 46" fill="none" xmlns="http://www.w3.org/2000/svg">
<g clip-path="url(#clip0_3961_5014)">
<path d="M30.4029 6.57362L19.0499 40.4917H12.132L0.827148 6.57362H8.68509L15.5789 29.2093L22.4967 6.57362H30.4029ZM55.7604 27.601C55.7604 29.4932 55.415 31.2593 54.7239 32.8992C54.0329 34.5234 53.0929 35.9346 51.9038 37.133C50.7147 38.3157 49.3166 39.2539 47.7097 39.9477C46.1188 40.6258 44.4074 40.9648 42.5755 40.9648C40.7597 40.9648 39.0483 40.6258 37.4413 39.9477C35.8504 39.2539 34.4524 38.3157 33.2472 37.133C32.0581 35.9346 31.118 34.5234 30.427 32.8992C29.736 31.2593 29.3905 29.4932 29.3905 27.601C29.3905 25.6772 29.736 23.8953 30.427 22.2554C31.118 20.6155 32.0581 19.2042 33.2472 18.0216C34.4524 16.8231 35.8504 15.885 37.4413 15.2069C39.0483 14.5288 40.7597 14.1898 42.5755 14.1898C44.4074 14.1898 46.1188 14.5131 47.7097 15.1596C49.3166 15.7904 50.7147 16.697 51.9038 17.8797C53.0929 19.0465 54.0329 20.4578 54.7239 22.1135C55.415 23.7534 55.7604 25.5826 55.7604 27.601ZM49.1318 27.601C49.1318 26.5602 48.9551 25.622 48.6015 24.7863C48.264 23.9348 47.7981 23.2094 47.2035 22.6102C46.6089 21.9952 45.9098 21.53 45.1064 21.2147C44.319 20.8836 43.4753 20.718 42.5755 20.718C41.6756 20.718 40.8239 20.8836 40.0204 21.2147C39.233 21.53 38.5421 21.9952 37.9475 22.6102C37.369 23.2094 36.911 23.9348 36.5736 24.7863C36.2361 25.622 36.0674 26.5602 36.0674 27.601C36.0674 28.5786 36.2361 29.4853 36.5736 30.321C36.911 31.1567 37.369 31.8821 37.9475 32.4971C38.5421 33.1121 39.233 33.6009 40.0204 33.9636C40.8239 34.3105 41.6756 34.4839 42.5755 34.4839C43.4753 34.4839 44.319 34.3183 45.1064 33.9872C45.9098 33.6561 46.6089 33.1909 47.2035 32.5917C47.7981 31.9925 48.264 31.2671 48.6015 30.4156C48.9551 29.5641 49.1318 28.6259 49.1318 27.601ZM66.0288 40.4917H59.4001V5.0835H66.0288V40.4917ZM84.0104 40.4917C82.4196 40.4917 80.9251 40.2 79.5271 39.6166C78.129 39.0174 76.8997 38.2053 75.8392 37.1803C74.7947 36.1396 73.967 34.9333 73.3564 33.5615C72.7618 32.1896 72.4646 30.7231 72.4646 29.162V21.6405H69.2587V15.2069H72.4646V5.0835H79.0209V15.2069H89V21.6405H79.0209V29.162C79.0209 29.8401 79.1494 30.4787 79.4066 31.0779C79.6637 31.6614 80.0172 32.1738 80.4671 32.6153C80.9171 33.0569 81.4474 33.4117 82.058 33.6797C82.6686 33.932 83.3194 34.0582 84.0104 34.0582H89V40.4917H84.0104Z" fill="#B8B8B8"/>
</g>
<defs>
<clipPath id="clip0_3961_5014">
<rect width="88.1729" height="45.0486" fill="white" transform="translate(0.827148 0.5)"/>
</clipPath>
</defs>
</svg>
