<?xml version="1.0" encoding="UTF-8"?>
<svg id="Layer_1" xmlns="http://www.w3.org/2000/svg" version="1.1" viewBox="0 0 87.13 25.34">
  <!-- Generator: Adobe Illustrator 29.6.1, SVG Export Plug-In . SVG Version: 2.1.1 Build 9)  -->
  <path d="M24.96,1.02c-.72-.11-1.46-.18-2.2-.18-1.75,0-3.41.31-4.96.92l-1.44-1.6c-.27-.31-.78-.16-.87.25l-.52,2.83-.2,1.12-.11.67.81-.04,1.68-.07,2.31-.09c.43,0,.63-.52.36-.83l-.11-.13c.96-.27,2-.43,3.07-.43s1.12.04,1.68.13c-1.03,3.19-3.45,5.75-6.53,6.99-.49-1.55-1.26-2.99-2.22-4.27-.04-.07-.11-.13-.16-.2-.54-.67-1.14-1.3-1.79-1.89-.04-.04-.09-.07-.11-.11C11.24,2.05,8.14.84,4.73.84s-1.48.07-2.2.18c-.87.13-1.73.36-2.53.65.11.88.29,1.75.56,2.58.78,2.52,2.29,4.72,4.24,6.41l-.72,2.02c-.13.38.22.79.63.65l2.74-.9,1.23-.4.52-.16-.34-.56-.94-1.57-1.17-2c-.22-.36-.76-.31-.9.09l-.07.2c-1.21-1.24-2.15-2.74-2.69-4.43.54-.09,1.1-.13,1.68-.13,2.76,0,5.27.99,7.24,2.65-1.01,1.28-1.82,2.72-2.33,4.29,0,.07-.04.11-.07.18-.27.83-.45,1.69-.56,2.58,0,.07,0,.16-.02.25-.04.45-.07.92-.07,1.37,0,3.28,1.14,6.29,3.03,8.65.54.67,1.14,1.3,1.82,1.89.65-.56,1.26-1.19,1.82-1.89,1.23-1.55,2.13-3.35,2.62-5.35l1.93-.2c.4-.04.61-.54.31-.85l-1.84-1.93-.99-1.06-.4-.43-.4.63-.78,1.17-1.48,2.2c-.22.36.04.81.47.79l.45-.04c-.38,1.15-.94,2.2-1.66,3.15-1.41-1.89-2.24-4.23-2.24-6.74s0-.63.04-.94c.72.11,1.46.18,2.2.18s1.3-.04,1.93-.13c.09,0,.18-.02.27-.04.87-.13,1.73-.36,2.53-.65.04,0,.09-.04.16-.04,3.95-1.51,7.06-4.76,8.34-8.83.27-.83.45-1.69.56-2.58-.81-.29-1.66-.52-2.53-.65l-.16-.04ZM13.73,11.38c-.56,0-1.14-.04-1.68-.13.38-1.17.96-2.27,1.68-3.24.72.97,1.3,2.07,1.68,3.24-.54.09-1.1.13-1.68.13Z" fill="#c7c7c7"/>
  <path d="M34.09,23.21c-1.26,0-2.35-.38-3.25-1.17l1.46-2.47c.52.43,1.03.65,1.57.65s1.26-.36,1.59-1.08l.34-.67-4.98-11.78h.25c2,0,3.77,1.24,4.49,3.1l1.97,5.17,1.73-5.01c.67-1.96,2.49-3.26,4.55-3.26l-5.27,13.37c-.85,2.11-2.31,3.15-4.4,3.15h-.04Z" fill="#c7c7c7"/>
  <path d="M50.26,18.85c-1.39,0-2.58-.27-3.54-.83-1.01-.58-1.75-1.35-2.22-2.29-.47-.92-.7-1.96-.7-3.03s.29-2.47.85-3.37c.63-.94,1.41-1.64,2.4-2.09.99-.45,2.04-.67,3.18-.67,1.84,0,3.36.52,4.6,1.57,1.23,1.03,1.84,2.56,1.84,4.56s-.13,1.55-.38,2.29c-.25.74-.63,1.39-1.17,1.98-.52.58-1.19,1.03-2,1.37-.81.34-1.77.52-2.89.52h.02ZM50.26,16.04c.81,0,1.53-.27,2.11-.83.58-.56.87-1.39.87-2.47s-.29-1.91-.87-2.47c-.58-.56-1.3-.83-2.11-.83s-1.55.27-2.13.83c-.58.56-.87,1.39-.87,2.47s.29,1.91.87,2.47c.58.56,1.3.83,2.13.83Z" fill="#c7c7c7"/>
  <path d="M62.49,18.87c-.61,0-1.19-.13-1.77-.4-.56-.27-1.03-.72-1.39-1.33-.36-.61-.54-1.42-.54-2.4V2.13c1.88,0,3.41,1.53,3.41,3.42v8.97c0,.85.36,1.3,1.08,1.3s.74-.11,1.17-.34l.34,2.85c-.78.36-1.55.54-2.29.54Z" fill="#c7c7c7"/>
  <path d="M69.57,18.87c-.94,0-1.73-.18-2.33-.52-.61-.34-1.05-.81-1.35-1.37-.29-.56-.45-1.19-.45-1.87,0-1.06.36-1.91,1.1-2.56.74-.65,1.88-1.01,3.48-1.06h3.3c0-.79-.2-1.35-.63-1.71-.43-.36-1.03-.54-1.88-.54s-2.24.36-3.57,1.06l-1.08-2.36c1.7-.92,3.52-1.39,5.43-1.39s3.05.4,3.86,1.21c.81.81,1.23,1.84,1.23,3.1v7.84h-3.34v-1.42c-.81,1.03-2.09,1.57-3.77,1.57ZM70.54,16.4c.81,0,1.46-.18,1.93-.52.47-.34.76-.79.87-1.3v-1.08h-2.69c-1.3,0-1.97.45-1.97,1.37s.16.79.45,1.08c.29.29.76.43,1.44.43l-.02.02Z" fill="#c7c7c7"/>
  <path d="M83.99,18.87c-1.08,0-1.97-.29-2.69-.88-.72-.58-1.08-1.53-1.08-2.83v-5.57h-1.68v-2.36h1.68v-3.3h3.41v3.3h3.25v2.38h-3.25v4.97c0,.92.36,1.39,1.1,1.39s1.03-.16,1.68-.45l.72,2.52c-.94.56-2,.83-3.12.83h-.02Z" fill="#c7c7c7"/>
</svg>