<svg width="108" height="29" viewBox="0 0 108 29" fill="none" xmlns="http://www.w3.org/2000/svg">
<path fill-rule="evenodd" clip-rule="evenodd" d="M0.707031 14.5238C0.707031 22.4881 7.29937 29.0044 15.3567 29.0044C23.4139 29.0044 30.0063 22.4881 30.0063 14.5238C30.0063 6.55948 23.4139 0.0432129 15.3567 0.0432129C7.29937 0.0432129 0.707031 6.55948 0.707031 14.5238ZM19.8726 6.74044C21.2002 6.78569 22.3447 7.28346 23.2603 8.24885C24.1759 9.2142 24.649 10.3606 24.6337 11.6578C24.6337 11.7936 24.6337 11.9293 24.6184 12.0651C24.5269 13.2416 24.0233 14.2975 23.1382 15.1724C22.1921 16.1075 21.0476 16.5903 19.7505 16.5903H19.5826C18.2703 16.5601 17.1258 16.0472 16.2102 15.0969C16.0271 14.9009 15.8592 14.6897 15.7066 14.4785L15.2335 15.5193L14.8521 12.412C14.8368 13.1964 14.8215 15.1271 14.8215 15.1271L14.0585 16.9523H16.5154L11.6932 24.087L13.4176 18.702H12.7462H11.4795H11.3117L12.5936 15.5797L7.63404 6.72535H10.152L13.6922 13.1813C13.6922 13.1592 13.7004 13.1453 13.7107 13.1276C13.7146 13.121 13.7187 13.114 13.7228 13.1059C13.8525 12.8193 13.9822 12.5364 14.1119 12.2536C14.2416 11.9708 14.3713 11.688 14.5011 11.4013C14.5699 11.2502 14.6387 11.0952 14.7075 10.9402C14.7761 10.786 14.8446 10.6318 14.9131 10.4813C14.9759 10.3427 15.0341 10.2011 15.0926 10.0589C15.2188 9.75216 15.3462 9.44246 15.5235 9.15389C15.7524 8.79187 16.0118 8.45998 16.317 8.15835C17.2784 7.22312 18.4076 6.74044 19.7047 6.74044H19.8726ZM21.8717 13.8902C22.3753 13.3623 22.6804 12.7589 22.7567 12.0801C22.7777 11.9766 22.7843 11.8658 22.7913 11.748C22.7945 11.6943 22.7977 11.6391 22.8025 11.5824C22.772 10.7377 22.4668 10.0287 21.8869 9.4254C21.3071 8.82199 20.6356 8.53542 19.8115 8.53542H19.7658C18.9265 8.53542 18.2245 8.82199 17.6294 9.4254C17.019 10.0287 16.729 10.7377 16.7138 11.5975C16.7138 11.7332 16.7138 11.8539 16.729 11.9896L16.2407 12.0048L15.0504 12.0349L16.0881 12.3366L16.6985 12.5176L16.8206 12.5478L17.08 12.6231L18.194 12.955L17.0952 13.2266C17.2021 13.4377 17.3547 13.6338 17.5225 13.8148C18.1024 14.4484 18.7891 14.7651 19.6132 14.7952H19.7963C20.605 14.7952 21.2918 14.5087 21.8717 13.8902Z" fill="#B8B8B8"/>
<path d="M44.5877 7.70605L40.4045 17.5207L36.4626 7.70605H33.8682L38.9765 20.638L36.885 25.9275H39.4592L47.1017 7.70605H44.5877Z" fill="#B8B8B8"/>
<path d="M58.5449 9.5762C57.2175 8.18848 55.5886 7.44437 53.6981 7.38403C53.6176 7.38403 53.5372 7.38403 53.4567 7.38403C51.6064 7.38403 49.9773 8.06781 48.6299 9.43545C47.2221 10.8634 46.498 12.5729 46.498 14.564C46.498 16.4747 47.1617 18.1439 48.469 19.5115C49.7763 20.8993 51.4053 21.6233 53.2958 21.6635C53.3762 21.6635 53.4567 21.6635 53.5372 21.6635C55.3874 21.6635 57.0165 20.9797 58.3841 19.6121C59.812 18.1841 60.5159 16.4747 60.5159 14.5237C60.5159 12.6332 59.8522 10.9639 58.5449 9.5762ZM58.1226 14.4232C58.1428 15.7908 57.7002 16.9372 56.735 17.9428C55.85 18.8881 54.8243 19.3305 53.5975 19.3305C53.5171 19.3305 53.4165 19.3305 53.3159 19.3305C52.0488 19.2903 51.0232 18.7875 50.1383 17.8221C49.2533 16.8568 48.8511 15.7506 48.8712 14.4433C48.8913 13.136 49.3338 12.0299 50.2589 11.1048C51.164 10.1997 52.2299 9.73713 53.5171 9.73713H53.5774C54.8243 9.73713 55.85 10.1796 56.735 11.1048C57.6198 12.0098 58.0824 13.136 58.1226 14.4232Z" fill="#B8B8B8"/>
<path d="M71.4375 7.7057C70.8342 7.54477 70.2308 7.46436 69.6476 7.46436C68.4007 7.46436 67.1739 7.82637 66.0074 8.57048C64.2979 9.63645 63.232 11.1448 62.7895 13.0555L60.2354 24.1573L62.5281 24.6801L63.8756 18.7672C64.841 20.155 66.1683 21.1003 67.8376 21.5427C68.4409 21.7036 69.0443 21.784 69.6275 21.784C70.8744 21.784 72.1012 21.422 73.2677 20.6779C74.9571 19.6119 76.0431 18.0835 76.4856 16.1527C76.9079 14.3024 76.6264 12.5326 75.661 10.8834C74.6957 9.23417 73.2677 8.16831 71.4375 7.7057ZM69.6074 9.79737C70.0097 9.79737 70.432 9.85771 70.8544 9.97838C72.0812 10.3001 72.9862 11.0242 73.6096 12.1505C74.2331 13.2767 74.4141 14.4834 74.1124 15.7304C73.7906 16.9974 73.0867 17.9628 71.9806 18.6466C71.2164 19.1292 70.3917 19.3706 69.547 19.3706C69.185 19.3706 68.823 19.3304 68.461 19.2499C67.2342 18.9684 66.3091 18.3047 65.6454 17.1985C64.9817 16.0924 64.7806 14.946 65.042 13.6589C65.3236 12.3315 66.0074 11.3058 67.1739 10.5415C67.9582 10.0387 68.7829 9.79737 69.6074 9.79737Z" fill="#B8B8B8"/>
<path d="M89.7794 9.5762C88.452 8.18848 86.8031 7.44437 84.8925 7.38403C84.792 7.38403 84.6915 7.38403 84.5909 7.38403C82.7406 7.38403 81.1316 8.06781 79.7842 9.41537C78.3764 10.8433 77.6523 12.5528 77.6523 14.5439C77.6523 16.4545 78.316 18.1238 79.6233 19.4915C80.9306 20.8792 82.5596 21.6032 84.4299 21.6635C84.5104 21.6635 84.5909 21.6635 84.6713 21.6635C86.4411 21.6635 87.9896 21.04 89.2967 19.8132V21.3619H91.6898V14.5237C91.7709 12.6332 91.127 10.9639 89.7794 9.5762ZM84.5105 19.3305C83.2635 19.2702 82.2378 18.7674 81.3529 17.802C80.4679 16.8367 80.0456 15.7305 80.0859 14.4232C80.1059 13.1159 80.5485 12.0299 81.4736 11.1048C82.3987 10.1796 83.4847 9.73713 84.792 9.73713C86.0389 9.73713 87.0646 10.1796 87.9693 11.1048C88.8545 12.0098 89.3169 13.1159 89.3372 14.4031C89.3575 15.7707 88.9154 16.9171 87.95 17.9227C87.0445 18.8679 85.9987 19.3305 84.7518 19.3305C84.6512 19.3305 84.5909 19.3305 84.5105 19.3305Z" fill="#B8B8B8"/>
<path d="M104.18 7.70589H101.082L95.8935 12.3518V3.12036H93.3604V21.382H95.8935V16.7362L100.982 21.4222H104.18L97.0403 14.6445L104.18 7.70589Z" fill="#B8B8B8"/>
<path d="M107.94 7.70605H105.546V21.3822H107.94V7.70605Z" fill="#B8B8B8"/>
<path d="M107.94 3.12036H105.546V6.82094H107.94V3.12036Z" fill="#B8B8B8"/>
</svg>
