<?xml version="1.0" encoding="UTF-8"?>
<svg id="Layer_1" xmlns="http://www.w3.org/2000/svg" version="1.1" viewBox="0 0 1920 1080">
  <!-- Generator: Adobe Illustrator 29.1.0, SVG Export Plug-In . SVG Version: 2.1.0 Build 142)  -->
  <defs>
    <style>
      .st0 {
        fill: gray;
      }

      .st1 {
        fill: #b1b1b1;
      }

      .st2 {
        fill: #b8b8b8;
      }
    </style>
  </defs>
  <path class="st1" d="M389.2,286.8c12.1,5.6,15.7,14.7,10.7,26.7l-119.3,144.2c-.7,3.5,3.8,9.3,7.1,10.3,21.7,5.9,82.1-14.9,70.5,25.8-15.4,19.6-32.4,38.1-48.3,57.2-46.1,55.4-92.3,110.7-138.4,166.1-11.5,8.9-29,2.4-27.4-12.3,1.4-12.7,12.2-43.4,16.9-56.9,12.3-35.3,29.3-70.4,42.3-105.6,1.3-4,1.9-8.6-1.5-11.7-12.5-11.7-76.7,13.2-72-23.5,23.7-62.4,37.4-131.6,61.8-193.4,6.4-16.2,15.5-25.3,35-26.9,49.2-4,111.8,0,162.5,0h0Z"/>
  <path class="st0" d="M309.9,550.9c15.9-19.2,32.9-37.6,48.3-57.2,11.5-40.7-48.8-19.9-70.5-25.8-3.3-.9-7.7-6.8-7.1-10.3l119.3-144.2c5-11.9,1.4-21.1-10.7-26.7,32.3,0,77.6-3.5,108.1,0,15,1.7,20,14.5,14.5,26.7-34.6,43.8-73.1,85.1-107.7,128.7-2.8,3.6-11.2,13.4-11.4,16.8s4.5,8.5,8.2,9.1c20.1,3.5,80.3-12.3,70.3,23.6l-186.2,223.8c-9.6,10.6-30.1,5.1-29.2-9.8s13-45.8,17.2-58c9.9-28.5,23.5-56.1,33.8-84.6l3.1-12.4v.3Z"/>
  <path class="st2" d="M1081,593v94.3h-66.8v-232.2h66.8v18.9c20.2-26.8,62-27.6,87.8-7.2,35.7,28.2,36.6,99.3,4,129.9-24.4,22.9-70.9,24.2-91.8-3.7h0ZM1097.7,507.7c-26.6,4.5-24.4,60.1,14.5,51.3,24.6-5.6,25.5-58.1-14.5-51.3Z"/>
  <path class="st2" d="M1674.8,593v94.3h-66.8v-232.2h66.8v18.9c15.6-19.8,39.4-25.4,64.4-18.8,58,15.2,65.2,103,28.8,139.9-24,24.3-71.9,26.3-93.2-2.1h0ZM1689.9,507.7c-9.6,2-16.7,16.7-16.8,25.1,0,34.3,46.8,36.2,49.9,4.4,1.9-19.9-11-34.1-33.1-29.5Z"/>
  <path class="st2" d="M1511.6,611.8v-18.9c-27.5,33.4-81.6,24.8-103.3-10.3-38-61.4,11.3-165.4,93.9-118.2l9.3,9.4v-18.9h66.9v156.7h-66.8v.2ZM1480.1,507.7c-22.6,4.4-23.6,48.4,2.9,51.8,24.5,3.1,32.3-16.8,27.9-36.2-3-13.3-17.6-18.1-30.8-15.5h0Z"/>
  <path class="st2" d="M917.7,611.8v-18.9c-25.8,32.1-78.3,25.4-100.8-6.8-41.2-58.9,4.3-166.7,88.8-123.5l11.9,11.4v-18.9h66.9v156.7h-66.8ZM876.3,553.3c1.5,1.4,8.3,5.1,10.3,5.6,40.9,10.3,44.4-58.4.9-51.5-19.8,3.2-23.4,34.5-11.2,45.9Z"/>
  <polygon class="st2" points="1374.8 414.5 1374.8 461.7 1290.8 562.5 1374.8 562.5 1374.8 611.8 1216.2 611.8 1216.2 566.1 1300.2 463.8 1218.6 463.8 1216.2 461.7 1216.2 416.7 1218.6 414.5 1374.8 414.5"/>
  <polygon class="st2" points="780.9 414.5 780.9 461.7 697 562.5 780.9 562.5 780.9 611.8 623.9 611.8 623.9 564.7 706.3 463.8 623.9 463.8 623.9 414.5 780.9 414.5"/>
</svg>