<svg width="122" height="28" viewBox="0 0 122 28" fill="none" xmlns="http://www.w3.org/2000/svg">
<g clip-path="url(#clip0_4748_18733)">
<path d="M15.6679 0.110547C16.417 0.457233 16.6399 1.0206 16.3303 1.76349L8.94469 10.6906C8.90136 10.9073 9.17995 11.2664 9.38424 11.3283C10.7276 11.6936 14.4669 10.4059 13.7488 12.9255C12.7954 14.1389 11.7429 15.2842 10.7586 16.4667C7.90464 19.8964 5.04448 23.3199 2.19052 26.7496C1.47857 27.3006 0.39518 26.8982 0.494233 25.9882C0.580904 25.2019 1.24951 23.3013 1.54048 22.4656C2.30195 20.2802 3.35439 18.1072 4.1592 15.9281C4.23968 15.6804 4.27682 15.3957 4.06633 15.2038C3.29248 14.4794 -0.682022 16.0209 -0.391053 13.7489C1.07617 9.88584 1.92431 5.6018 3.43487 1.77588C3.83108 0.772964 4.39445 0.2096 5.60166 0.110547C8.64754 -0.137085 12.523 0.110547 15.6617 0.110547H15.6679Z" fill="#B1B1B1"/>
<path d="M10.7585 16.4598C11.7428 15.2711 12.7953 14.132 13.7486 12.9186C14.4606 10.3989 10.7275 11.6866 9.38412 11.3214C9.17982 11.2657 8.90742 10.9004 8.94457 10.6837L16.3302 1.75657C16.6398 1.01987 16.4169 0.450311 15.6678 0.103626C17.6674 0.103626 20.4719 -0.113053 22.3601 0.103626C23.2887 0.20887 23.5982 1.00129 23.2577 1.75657C21.1157 4.46815 18.7322 7.02496 16.5902 9.72415C16.4169 9.94702 15.8969 10.5537 15.8845 10.7642C15.8721 10.9747 16.1631 11.2904 16.3921 11.3276C17.6365 11.5443 21.3633 10.5661 20.7443 12.7886L9.21696 26.6436C8.62265 27.2999 7.35353 26.9594 7.40925 26.0369C7.46496 25.1145 8.21405 23.2016 8.47407 22.4463C9.08696 20.6819 9.92891 18.9732 10.5666 17.2088L10.7585 16.4412V16.4598Z" fill="#808080"/>
<path d="M66.1315 19.2686V26.5H61V8.69382H66.1315V10.1432C67.6833 8.08801 70.8943 8.02666 72.8763 9.59103C75.6187 11.7535 75.6879 17.2058 73.1836 19.5524C71.3092 21.3084 67.7371 21.4081 66.1315 19.2686ZM67.4144 12.7274C65.371 13.0725 65.54 17.3362 68.5283 16.6614C70.4181 16.2319 70.4872 12.206 67.4144 12.7274Z" fill="#B8B8B8"/>
<path d="M113.13 19.269V26.5H108V8.69474H113.13V10.144C114.328 8.62572 116.156 8.19631 118.076 8.7024C122.53 9.86795 123.083 16.6005 120.288 19.43C118.445 21.2934 114.766 21.4467 113.13 19.269ZM114.29 12.7281C113.553 12.8815 113.007 14.0087 113 14.6528C113 17.283 116.594 17.4287 116.832 14.9902C116.978 13.4643 115.987 12.3754 114.29 12.7281Z" fill="#B8B8B8"/>
<path d="M99.8932 20.3423V18.9375C97.7908 21.4201 93.6549 20.7809 91.9959 18.172C89.0909 13.6083 92.8598 5.8783 99.1746 9.38653L99.8855 10.0852V8.68042H105V20.3275H99.8932V20.3423ZM97.485 12.6049C95.7573 12.9319 95.6808 16.2023 97.7067 16.455C99.5797 16.6854 100.176 15.2063 99.8397 13.7644C99.6103 12.7758 98.4942 12.4191 97.485 12.6123V12.6049Z" fill="#B8B8B8"/>
<path d="M53.5245 20.3455V18.9388C51.4097 21.3279 47.1063 20.8292 45.262 18.4327C41.8849 14.049 45.6145 6.02594 52.5408 9.24113L53.5163 10.0896V8.68294H59V20.3455H53.5245ZM50.131 15.9916C50.2539 16.0958 50.8113 16.3711 50.9752 16.4083C54.3278 17.1749 54.6147 12.0619 51.049 12.5754C49.426 12.8136 49.1309 15.1431 50.131 15.9916Z" fill="#B8B8B8"/>
<path d="M89 5.5V9.08844L82.6444 16.7519H89V20.5H77V17.0256L83.3556 9.2481H77.1816L77 9.08844V5.66726L77.1816 5.5H89Z" fill="#B8B8B8"/>
<path d="M43 5.5V9.08844L36.0529 16.7519H43V20.5H30V16.9192L36.8229 9.2481H30V5.5H43Z" fill="#B8B8B8"/>
</g>
<defs>
<clipPath id="clip0_4748_18733">
<rect width="122" height="27" fill="white" transform="translate(0 0.5)"/>
</clipPath>
</defs>
</svg>
