<?xml version="1.0" encoding="UTF-8"?>
<svg id="Layer_1" xmlns="http://www.w3.org/2000/svg" version="1.1" viewBox="0 0 1660.74 436.13">
  <!-- Generator: Adobe Illustrator 29.1.0, SVG Export Plug-In . SVG Version: 2.1.0 Build 142)  -->
  <path d="M259.65,1.78c12.1,5.6,15.7,14.7,10.7,26.7l-119.3,144.2c-.7,3.5,3.8,9.3,7.1,10.3,21.7,5.9,82.1-14.9,70.5,25.8-15.4,19.6-32.4,38.1-48.3,57.2-46.1,55.4-92.3,110.7-138.4,166.1-11.5,8.9-29,2.4-27.4-12.3,1.4-12.7,12.2-43.4,16.9-56.9,12.3-35.3,29.3-70.4,42.3-105.6,1.3-4,1.9-8.6-1.5-11.7-12.5-11.7-76.7,13.2-72-23.5C23.95,159.68,37.65,90.48,62.05,28.68c6.4-16.2,15.5-25.3,35-26.9,49.2-4,111.8,0,162.5,0h.1Z" fill="#b1b1b1"/>
  <path d="M180.35,265.88c15.9-19.2,32.9-37.6,48.3-57.2,11.5-40.7-48.8-19.9-70.5-25.8-3.3-.9-7.7-6.8-7.1-10.3L270.35,28.38c5-11.9,1.4-21.1-10.7-26.7,32.3,0,77.6-3.5,108.1,0,15,1.7,20,14.5,14.5,26.7-34.6,43.8-73.1,85.1-107.7,128.7-2.8,3.6-11.2,13.4-11.4,16.8s4.5,8.5,8.2,9.1c20.1,3.5,80.3-12.3,70.3,23.6l-186.2,223.8c-9.6,10.6-30.1,5.1-29.2-9.8s13-45.8,17.2-58c9.9-28.5,23.5-56.1,33.8-84.6l3.1-12.4v.3Z" fill="gray"/>
  <path d="M951.45,307.98v94.3h-66.8v-232.2h66.8v18.9c20.2-26.8,62-27.6,87.8-7.2,35.7,28.2,36.6,99.3,4,129.9-24.4,22.9-70.9,24.2-91.8-3.7h0ZM968.15,222.68c-26.6,4.5-24.4,60.1,14.5,51.3,24.6-5.6,25.5-58.1-14.5-51.3Z" fill="#b8b8b8"/>
  <path d="M1545.25,307.98v94.3h-66.8v-232.2h66.8v18.9c15.6-19.8,39.4-25.4,64.4-18.8,58,15.2,65.2,103,28.8,139.9-24,24.3-71.9,26.3-93.2-2.1h0ZM1560.35,222.68c-9.6,2-16.7,16.7-16.8,25.1,0,34.3,46.8,36.2,49.9,4.4,1.9-19.9-11-34.1-33.1-29.5Z" fill="#b8b8b8"/>
  <path d="M1382.05,326.78v-18.9c-27.5,33.4-81.6,24.8-103.3-10.3-38-61.4,11.3-165.4,93.9-118.2l9.3,9.4v-18.9h66.9v156.7h-66.8v.2ZM1350.55,222.68c-22.6,4.4-23.6,48.4,2.9,51.8,24.5,3.1,32.3-16.8,27.9-36.2-3-13.3-17.6-18.1-30.8-15.5h0v-.1Z" fill="#b8b8b8"/>
  <path d="M788.15,326.78v-18.9c-25.8,32.1-78.3,25.4-100.8-6.8-41.2-58.9,4.3-166.7,88.8-123.5l11.9,11.4v-18.9h66.9v156.7h-66.8ZM746.75,268.28c1.5,1.4,8.3,5.1,10.3,5.6,40.9,10.3,44.4-58.4.9-51.5-19.8,3.2-23.4,34.5-11.2,45.9Z" fill="#b8b8b8"/>
  <polygon points="1245.25 129.48 1245.25 176.68 1161.25 277.48 1245.25 277.48 1245.25 326.78 1086.65 326.78 1086.65 281.08 1170.65 178.78 1089.05 178.78 1086.65 176.68 1086.65 131.68 1089.05 129.48 1245.25 129.48" fill="#b8b8b8"/>
  <polygon points="651.35 129.48 651.35 176.68 567.45 277.48 651.35 277.48 651.35 326.78 494.35 326.78 494.35 279.68 576.75 178.78 494.35 178.78 494.35 129.48 651.35 129.48" fill="#b8b8b8"/>
</svg>