<svg id="e3DA7piBWsS1" xmlns="http://www.w3.org/2000/svg" xmlns:xlink="http://www.w3.org/1999/xlink" viewBox="0 0 1920 1080" shape-rendering="geometricPrecision" text-rendering="geometricPrecision" project-id="ec351a6fb03946319263e40f4d0140d4" export-id="2dcc2ee5866b41dbb84f14c55a3de8bc" cached="false"><defs><linearGradient id="e3DA7piBWsS5-stroke" x1="0.530934" y1="1" x2="0.5" y2="0" spreadMethod="pad" gradientUnits="objectBoundingBox" gradientTransform="translate(0 0)"><stop id="e3DA7piBWsS5-stroke-0" offset="0%" stop-color="#0085fb"/><stop id="e3DA7piBWsS5-stroke-1" offset="56%" stop-color="#dcb95d"/><stop id="e3DA7piBWsS5-stroke-2" offset="100%" stop-color="#e5b852"/></linearGradient></defs><g id="e3DA7piBWsS2" transform="matrix(1.780275 0 0 1.780275 736.677239 386.866294)" opacity="0"><rect width="30" height="30" rx="15" ry="15" transform="translate(1.00012 1)" fill="none" stroke="#e5b852" stroke-width="2"/><path d="M23.1025,11.6748c1.285,1.0139,1.5385,2.7649,1.0897,4.1754-.4637,1.4557-1.7276,2.75-3.6828,2.8317-.0676.0028-.1355-.0023-.2036-.0054.0496.0743.1005.149.1463.2263.2841.48.5149,1.0681.5017,1.719-.0207.9959-.2557,1.9337-.8161,2.7076-.5665.7817-1.4057,1.3152-2.4806,1.6034-.672.18-1.492.149-2.2655-.0165-.7831-.1678-1.6062-.4925-2.287-.9854-.1183-.0856-.2859-.1958-.488-.3318l-1.035,1.622c-.2515.3946-.7763.5104-1.1708.2589-.3941-.2514-.50947-.7748-.2585-1.1692l1.0503-1.6483c-.2526-.1649-.5184-.3383-.7909-.5161-.0985-.0642-.1962-.1314-.2959-.1965L9.05552,23.529c-.26093.3875-.7868.4911-1.17486.2308-.38791-.2609-.49187-.7882-.23131-1.1764l1.04931-1.5625c-.60514-.4013-1.16979-.7813-1.61258-1.0959-.38058-.271-.47059-.8003-.20009-1.1814.27084-.3807.80022-.4701,1.18141-.2001.42747.3037.97906.6734,1.57641,1.0696L16.6483,9.18177c-.6337-.42949-1.2458-.83594-1.785-1.18327-.3928-.25352-.5053-.77782-.2521-1.17092.2535-.39254.7775-.50651,1.1705-.25368.547.35236,1.1672.76604,1.8106,1.20211l1.0274-1.52917c.2607-.3882.7881-.49163,1.1765-.2313.3883.26083.492.78809.2313,1.17649L18.9907,8.73741c.3267.22623.6517.44957.9657.66968l1.019-1.59887c.2515-.39438.7763-.51036,1.1707-.2589.3941.25166.5103.7765.259,1.17081L21.3415,10.3892c.8462.6042,1.5003,1.08,1.761,1.2856Zm-.5247,3.6607c.2975-.9353.0595-1.8697-.5253-2.331-.2338-.1844-.8348-.6225-1.6229-1.1856l-.773,1.2126c-.2515.3943-.7764.51-1.1708.2589-.3941-.2514-.5094-.7748-.2585-1.1692l.8172-1.2844c-.3239-.2272-.6605-.4585-.9994-.6932L11.0598,20.5441c.0929.0607.1845.1227.2768.1828.2635.1719.5247.3422.7763.5063l.7875-1.2354c.2517-.3937.7765-.5102,1.1708-.2589.3941.2514.5097.7765.2589,1.1709l-.8032,1.2601c.2347.1575.432.287.5716.3881.4547.3292,1.0481.5743,1.6477.7027.6097.1306,1.1418.1241,1.4724.0355.7743-.2076,1.2513-.5518,1.5478-.9612.3023-.4177.4786-.9881.4944-1.7478.0045-.2266-.0766-.5004-.2663-.8211-.1887-.3187-.4558-.636-.747-.9338-.2917-.2984-.5773-.5472-.8139-.7617-.1065-.0967-.2301-.2093-.3215-.3113-.0402-.0449-.1203-.1382-.1825-.2594-.0301-.0586-.2692-.5346.0963-.9765.2089-.2521.4817-.307.6027-.3208.131-.0148.2448-.0016.3107.0092.1364.0225.2747.067.3807.1036.2157.0745.5084.194.7638.2938.2757.1076.5509.2101.8055.2826.2668.076.4485.1002.5498.0959c1.1331-.0475,1.8553-.7621,2.1387-1.6522Z" fill="#e5b852"/></g><path id="e3DA7piBWsS5" d="M763.960536,408.356047q-94.906217-64.566995,55.374148-108.295674t85.33154,124.294794" transform="matrix(.996836 0 0 1 4.667397 6.994645)" fill="none" stroke="url(#e3DA7piBWsS5-stroke)" stroke-width="3.84" stroke-linecap="round" stroke-dasharray="1,40,1,20,5,20,13,13,13,13,13,13,13,13,13,13,13,13,13,13,13,13,13,13,13,13,13,13,13,13,20,5,20,1,40"/><g transform="matrix(1.674411 0 0 1.674411 344.997189 57.434103)"><path d="M458.963,392.979c1.338-.793,3.023.175,3.023,1.724v11.444c0,.69-.353,1.333-.945,1.7-3.157,1.955-7.93,5.008-12.432,8.092-4.528,3.102-8.701,6.179-10.719,8.197-2.782,2.783-4.294,3.957-5.246,6.284-.963,2.356-1.345,5.933-1.306,13.462.062,12.024-.503,53.352-.793,72.502v.029l-.003.031-2.109,28.374-.001.001c.001.001.003.003.006.007.009.009.021.015.036.016c1.092.046,2.424.165,3.488.416.52.123,1.062.296,1.486.561.408.254.98.785.868,1.624-.056.422-.284.832-.496,1.152-.233.353-.543.737-.901,1.132-.718.792-1.687,1.691-2.778,2.558-2.147,1.705-4.943,3.425-7.381,3.869-.884.16-1.663-.116-2.276-.671-.571-.518-.984-1.262-1.299-2.067-.631-1.615-1.011-3.862-1.267-6.274-.259-2.433-.4-5.128-.52-7.679-.12-2.566-.218-4.975-.389-6.887-.357-3.978-1.169-13.283-1.907-21.777l-6.115,2.181-2.924,21.098c0,0,.001.002.002.003.003.006.009.013.018.017c1.17.564,2.681,1.379,3.9,2.247.606.431,1.18.905,1.606,1.393.391.449.828,1.104.769,1.87-.053.686-.536,1.152-.905,1.426-.407.3-.928.554-1.483.767-1.12.431-2.573.774-4.039.987-1.467.214-3.006.307-4.304.209-.648-.048-1.27-.148-1.806-.32-.516-.166-1.072-.438-1.444-.916-.18-.231-.297-.512-.377-.751-.087-.256-.161-.554-.226-.874-.13-.641-.24-1.449-.333-2.367-.186-1.84-.314-4.207-.399-6.743-.157-4.659-.17-9.949-.134-13.739l-19.182,6.84c-1.103,4.296-2.719,8.649-5.056,12.104-5.353,7.912-13.38,13.711-17.226,15.934-.007.005-.01.009-.012.011l-.001.002v30.138c.001.002.005.008.011.016.015.02.044.043.083.056.7.23,1.555.605,2.229,1.16.676.558,1.316,1.436,1.149,2.605-.123.857-.72,1.649-1.361,2.291-.677.676-1.559,1.338-2.512,1.926-1.882,1.159-4.223,2.139-6.08,2.308-.774.07-1.582.159-2.287.098-.762-.066-1.508-.311-2.132-.962-.585-.612-.97-1.489-1.257-2.612-.29-1.137-.508-2.636-.683-4.594-.54-6.012-1.992-23.373-2.716-32.091-.083-1.001.571-1.78,1.287-2.124c1.818-.874,5.069-4.068,5.206-12.054.058-3.398.08-7.419-.017-11.641-.346-.196-.702-.41-1.067-.64l-12.027,15.833-1.703,25.309c-.001.001-.001.002,0,.003.001.002.005.012.017.024.028.027.072.046.117.047.954.004,2.121.134,3.11.573c1.019.453,1.963,1.304,2.088,2.73.061.711-.237,1.337-.612,1.829-.377.495-.9.946-1.476,1.348-1.157.807-2.696,1.532-4.244,2.089-1.55.558-3.175.972-4.524,1.126-.67.077-1.319.095-1.876.013-.512-.076-1.18-.272-1.585-.838-.296-.415-.453-.991-.557-1.528-.111-.577-.189-1.276-.246-2.05-.113-1.55-.149-3.506-.173-5.598-.049-4.223-.049-9.016-.492-12.555-.669-5.354-2.532-10.783-3.513-13.163-.193-.467-.213-.999-.018-1.498l1.399-3.518c3.597-9.047,9.176-23.632,9.176-37.309c0-.003,0-.006,0-.009-.531-4.062-.464-8.532.444-13.403.037-.199.131-.373.261-.509-2.238-3.213-4.201-6.715-5.503-10.275-2.596-7.102-3.22-18.246-3.297-26.067-.012-1.221.932-1.9,1.805-1.99.863-.088,1.911.364,2.212,1.51c1.843,7.014,4.719,15.691,8.485,22.559c1.883,3.435,3.963,6.367,6.205,8.413c2.238,2.042,4.57,3.142,6.996,3.086c8.466-.197,19.469-1.805,29.496-5.383c10.052-3.588,18.957-9.097,23.462-16.98c4.587-8.027,7.062-18.036,8.25-27.567c1.187-9.521,1.08-18.488.554-24.378-.461-5.165-1.019-8.099-1.489-9.654-.07-.234-.132-.493-.139-.742-.006-.176.002-.749.519-1.094.517-.346,1.049-.132,1.21-.06.227.103.443.259.632.414l8.85,7.281.001.001c2.337-.73,5.722-1.737,8.753-2.534c1.514-.397,2.953-.747,4.134-.981.59-.117,1.129-.209,1.587-.263.437-.051.875-.078,1.231-.031.796.106,1.473.459,2.047.832.289.188.569.393.832.588.27.2.521.389.781.57c1.01.707,1.969,1.17,3.324.899.501-.101,1.539-.518,3.018-1.228c1.44-.69,3.195-1.606,5.074-2.627c3.756-2.04,7.972-4.48,11.083-6.324Zm1.02,1.721c-3.123,1.851-7.362,4.304-11.148,6.36-1.892,1.028-3.681,1.961-5.163,2.673-1.442.692-2.705,1.228-3.493,1.386-2.145.428-3.675-.392-4.862-1.221-.289-.202-.571-.415-.825-.603-.261-.193-.498-.366-.73-.517-.469-.305-.853-.477-1.222-.527-.094-.012-.325-.013-.733.036-.386.045-.869.126-1.431.238-1.124.223-2.519.561-4.016.954-2.992.786-6.346,1.784-8.665,2.508-.645.201-1.346.063-1.867-.366l-7.441-6.12c.391,1.846.786,4.5,1.121,8.252.537,6.021.643,15.131-.563,24.804-1.204,9.663-3.727,19.964-8.498,28.313-4.853,8.492-14.295,14.219-24.526,17.871-10.257,3.66-21.477,5.297-30.122,5.498-3.11.072-5.918-1.352-8.39-3.608-2.468-2.252-4.672-5.394-6.61-8.929-3.879-7.074-6.805-15.928-8.666-23.011-.003-.011-.006-.018-.008-.022-.004-.001-.009-.003-.017-.005-.014-.002-.031-.004-.049-.002-.003,0-.006.001-.009.001.078,7.84.714,18.647,3.175,25.379c1.819,4.974,5.037,9.911,8.51,14.058c3.477,4.151,7.152,7.443,9.829,9.155.291.186.538.443.703.767l.066.143.189.469c1.923,4.914,2.92,11.903,3.423,19.005.189,2.665.308,5.36.38,7.989.195.294.229.682.055,1.017-.009.016-.019.031-.029.047.097,4.246.074,8.281.016,11.681-.146,8.532-3.667,12.539-6.339,13.823-.068.032-.116.079-.141.117-.012.017-.017.029-.018.034-.001.002-.001.004-.001.004.724,8.721,2.176,26.075,2.715,32.078.172,1.922.378,3.296.629,4.277.253.993.529,1.479.764,1.725.197.206.433.316.859.353.482.041,1.067-.019,1.934-.098c1.426-.13,3.463-.941,5.212-2.02.863-.532,1.611-1.1,2.147-1.636.57-.571.769-.973.796-1.16.028-.199-.042-.448-.443-.779-.404-.333-.997-.611-1.58-.803-.801-.263-1.469-1.01-1.47-1.973v-30.134c0-.73.394-1.389,1.012-1.747c3.686-2.131,11.443-7.744,16.57-15.324c2.531-3.741,4.213-8.731,5.283-13.596c1.066-4.851,1.505-9.497,1.594-12.487.027-.878.615-1.643,1.47-1.881l34.231-9.525c1.197-.333,2.419.492,2.528,1.749.801,9.255,2.348,27.088,2.881,33.027.176,1.967.277,4.434.396,6.973.12,2.553.259,5.194.51,7.561.254,2.387.614,4.407,1.142,5.757.265.678.538,1.094.78,1.313.2.182.364.223.574.185c1.939-.353,4.416-1.816,6.496-3.468c1.023-.812,1.908-1.637,2.539-2.334.317-.349.556-.652.715-.892.017-.025.029-.05.043-.072-.162-.068-.391-.144-.693-.216-.881-.208-2.065-.319-3.112-.363-1.118-.047-2.038-1.003-1.952-2.172l2.107-28.34c.29-19.172.855-60.443.793-72.436-.039-7.483.319-11.452,1.456-14.231c1.148-2.806,3.098-4.355,5.682-6.94c2.17-2.169,6.496-5.346,11.003-8.434c4.533-3.104,9.331-6.174,12.507-8.141v-11.446l-.002-.001-.001-.001v.001ZM329.722,505.856c-1.625,13.894-7.515,27.556-10.289,34.623.001.002.003.006.004.01c1.023,2.479,2.95,8.088,3.649,13.676.46,3.682.459,8.623.507,12.78.024,2.098.06,3.995.169,5.474.054.741.125,1.352.214,1.819.045.232.092.413.137.548.022.065.041.113.058.148.037.016.12.046.276.069.317.047.774.045,1.357-.021c1.156-.132,2.626-.5,4.073-1.021c1.45-.522,2.813-1.175,3.776-1.847.483-.338.825-.652,1.03-.921.208-.273.212-.412.209-.443-.041-.469-.31-.809-.907-1.075-.628-.279-1.481-.397-2.306-.401-1.124-.006-2.208-.927-2.122-2.208l1.705-25.309c.026-.39.165-.765.402-1.076l11.961-15.745c-4.973-3.6-10.916-10.002-13.903-19.08Zm69.192,10.716c-.046,3.799-.039,9.456.127,14.386.085,2.521.211,4.835.39,6.61.09.889.191,1.623.302,2.17.056.273.111.482.161.632.035.103.06.155.068.17.03.031.15.131.47.234.334.107.788.186,1.344.228c1.11.084,2.497.007,3.867-.192c1.372-.2,2.669-.514,3.609-.875.474-.183.809-.359,1.011-.509.022-.016.038-.033.054-.046-.037-.069-.105-.179-.235-.328-.278-.319-.71-.686-1.259-1.077-1.091-.776-2.49-1.536-3.608-2.075-.778-.375-1.256-1.214-1.133-2.098l2.78-20.064-7.948,2.834Zm-68.563-29.506c-3.17,19.883,8.385,32.487,15.934,37.262-.073-2.169-.18-4.37-.334-6.547-.518-7.301-1.55-14.228-3.462-18.84l-.002-.001c-2.898-1.853-6.722-5.301-10.285-9.556-.626-.747-1.244-1.521-1.851-2.318Zm49.545,22.007c-.001,0-.002,0-.003.001l-.003.005c0,.002,0,.004-.001.007-.091,3.074-.538,7.785-1.612,12.721l36.647-13.068c-.298-3.43-.576-6.637-.797-9.191l-34.231,9.525Z" fill="#f4b740"/><path d="M166.138,107.729c4.595-1.583,9.355-2.042,13.486-.692c3.86,1.262,8.803,2.946,13.217,4.975c2.207,1.014,4.304,2.125,6.078,3.325c1.764,1.193,3.267,2.514,4.223,3.969c3.349,5.096,7.842,13.393,3.523,24.428-.473,1.208-1.91,1.582-2.931.932-.641-.408-1.369-.848-2.164-1.303-.329,3.616-1.517,10.129-4.512,16.058-1.066,2.108-1.957,3.72-2.752,4.933-.79,1.205-1.523,2.076-2.289,2.647-.801.597-1.609.844-2.472.853-.807.009-1.638-.194-2.464-.412-1.94-.51-3.801-1.368-5.101-2.066.218,4.078.57,7.02.901,8.927.15.864-.263,1.627-.82,2.068-.561.443-1.417.675-2.235.268l-7.063-3.519c-.091.296-.177.606-.251.922-.067.283-.123.561-.165.829c4.472,2.441,14.123,9.056,19.969,17.825c2.957,4.436,6.566,13.768,9.889,23.618c3.339,9.898,6.436,20.467,8.357,27.49h.002l44.779-16.497c.929-.342,1.969.047,2.445.916l.598,1.09c2.642-1.271,6.246-2.984,9.503-4.486c1.842-.849,3.579-1.634,4.969-2.234c1.349-.582,2.472-1.034,3.022-1.165.409-.098.935-.117,1.471-.106.557.013,1.209.061,1.91.135c1.402.148,3.052.402,4.641.69c1.59.289,3.136.615,4.332.912.596.148,1.12.292,1.523.423.2.066.387.133.546.203.087.038.245.108.397.22l.148.126.025.028l12.297,2.05c.658.11,1.218.54,1.493,1.148l1.618,3.572c.634,1.401-.484,2.963-2.014,2.816l-16.176-1.569c.035.198.032.408-.017.623-.174.772-.855,1.27-1.621,1.36-2.588.304-6.033.747-8.032,1.122-1.631.305-3,.762-4.446,1.208-1.434.442-2.922.866-4.675,1.036-1.933.187-4.503.162-6.418.095l1.074,1.96c.479.874.257,1.984-.582,2.582-7.482,5.331-18.52,13.002-28.798,19.48-5.137,3.238-10.099,6.188-14.34,8.4-4.194,2.189-7.819,3.731-10.228,4.033-2.169.271-4.102.127-5.796-.303.073,3.449.592,11.024,2.272,19.256c1.144,5.601,6.082,23.75,10.926,41.482c4.826,17.666,9.567,34.95,10.269,38.69.339,1.809.777,3.533,1.187,5.224.407,1.676.787,3.325.982,4.915.394,3.217.041,6.304-2.396,9.125-1.07,1.239-2.32,2.259-3.616,3.094.956,1.937,2.266,4.842,3.388,7.892c1.22,3.316,2.267,6.923,2.337,9.649.163,6.368,3.701,95.303,4.141,106.758.219,5.689.772,11.893,1.488,17.039.359,2.573.756,4.869,1.169,6.697.422,1.869.836,3.131,1.187,3.728.759,1.29,2.972,3.512,6.724,5.94c3.715,2.405,8.851,4.956,15.345,6.947c3.319,1.018,5.544,1.958,6.957,2.834c1.349.836,2.262,1.804,2.262,2.97c0,1.164-.909,1.923-1.577,2.342-.733.46-1.597.775-2.2.961-.423.13-1.148.197-1.965.244-.865.049-1.972.08-3.244.097-2.546.033-5.797.01-9.2-.034-6.823-.088-14.24-.262-17.946-.262-3.647,0-5.928.3-7.772.621-1.828.318-3.384.689-5.398.781-1.42.065-2.517-.746-3.267-1.788-.746-1.037-1.243-2.412-1.512-3.828-.271-1.426-.326-2.966-.132-4.378.192-1.395.641-2.765,1.465-3.754.353-.424.984-.481,1.408-.128.424.354.481.984.128,1.408-.492.59-.855,1.547-1.019,2.746-.163,1.182-.119,2.504.115,3.733.235,1.238.649,2.308,1.17,3.032.516.718,1.044.982,1.553.959c1.847-.084,3.188-.414,5.146-.754c1.942-.337,4.339-.65,8.115-.65c3.719,0,11.193.175,17.972.262c3.399.044,6.629.066,9.148.034c1.26-.017,2.333-.046,3.156-.093.87-.05,1.343-.114,1.491-.159.537-.166,1.208-.42,1.725-.744.582-.365.64-.605.64-.648c0-.041-.055-.489-1.314-1.269-1.197-.742-3.23-1.622-6.491-2.622-5.612-1.722-10.259-3.857-13.9-5.986l-5.414,5.854c-.38.41-.921.652-1.498.639-2.804-.062-6.925-.45-10.75-1.435-1.914-.493-3.783-1.143-5.388-1.994-1.597-.848-2.996-1.93-3.882-3.319-.399-.627-.338-1.344-.102-1.87.439-.98,1.034-2.761,1.034-4.517c0-.488-.148-1.788-.414-3.674-.261-1.851-.624-4.186-1.027-6.682-.747-4.616-1.633-9.77-2.273-13.406-1.013-.35-1.857-.741-2.465-1.08-.473-.265-.792-.702-.921-1.201-2.835-10.987-6.769-27.912-10.095-43.357-3.319-15.409-6.057-29.449-6.472-34.61-1.007-12.518.043-19.124.001-22.09L179.849,387.9c-.053.009-.108.016-.163.016h-9.862c-.474,1.841-.989,3.45-1.551,4.713-2.077,4.675-4.081,7.26-6.501,8.47-2.415,1.207-5.032.925-7.911.502-1.224-.18-3.971-.944-7.553-2.045-4.576,10.072-13.884,30.425-15.618,33.662-.303.566-1.371,2.175-2.946,4.477-1.595,2.333-3.755,5.442-6.288,9.059-5.066,7.234-11.628,16.506-18.158,25.673-6.5298,9.167-13.0286,18.231-17.9679,25.05-2.4692,3.408-4.5507,6.258-6.0518,8.28-.7497,1.01-1.358,1.817-1.7988,2.386-.154.198-.293.369-.4092.513.0053.216-.0584.435-.1973.621-1.9272,2.585-4.898,6.673-7.5419,10.532-1.3223,1.929-2.5579,3.795-3.5391,5.382-.9955,1.611-1.6861,2.868-1.9639,3.609-.7195,1.918-1.1386,5.33-.6894,9.255.4469,3.905,1.7427,8.219,4.3515,11.964c2.7207,3.905,4.4833,6.297,5.7012,7.806c1.2216,1.514,1.8537,2.085,2.3066,2.399.709.491.595,1.289.4532,1.679-.154.423-.4572.825-.8067,1.173-.7182.715-1.8603,1.429-3.3271,1.862-2.9835.878-7.2803.589-12.2451-3.088-9.7585-7.229-11.9477-15.502-13.1739-18.917-.4774-1.33-1.5971-2.01-3.1699-3.024-1.4962-.964-3.2739-2.184-4.0478-4.66-1.4336-4.588-.0167-9.43,4.3418-11.808.4846-.264,1.0918-.086,1.3564.399.2644.485.0862,1.093-.3984,1.357-3.3735,1.84-4.5929,5.608-3.3907,9.455.5441,1.741,1.7538,2.63,3.2227,3.577c1.3925.897,3.2162,1.931,3.9687,4.028c1.234,3.437,3.2622,11.156,12.4815,17.985c4.5241,3.351,8.18,3.457,10.4902,2.777c1.1797-.348,2.0209-.902,2.4805-1.36.0579-.057.1065-.111.1475-.159-.5802-.485-1.2666-1.206-2.2452-2.418-1.2641-1.566-3.0596-4.007-5.7861-7.921-1.2206-1.752-2.1713-3.611-2.8975-5.49-.7224.504-1.6906.948-2.8476,1.114-1.7329.25-3.8186-.129-6.0488-1.705-1.4782-1.045-2.7437-2.906-3.8028-4.977-1.0743-2.102-2.0004-4.551-2.7461-6.905-.7465-2.356-1.3209-4.644-1.6875-6.439-.183-.896-.3159-1.681-.3925-2.296-.0382-.307-.0641-.584-.0733-.818-.008-.204-.0094-.473.0498-.71l.0713-.231c.1895-.52.5446-.921.8994-1.242.4017-.364.9196-.725,1.4297-1.088c1.0515-.748,2.3265-1.676,3.6025-3.199.4764-.569,1.1678-1.675,1.9961-3.168.8165-1.472,1.7317-3.255,2.6553-5.13c1.8468-3.748,3.7125-7.829,4.8653-10.441.0406-.093.0929-.176.1552-.248.0305-.264.0741-.543.1299-.83.1367-.701.3524-1.542.6318-2.495.5595-1.906,1.3934-4.319,2.4219-7.071c2.0584-5.509,4.9194-12.435,7.9932-19.505c6.1368-14.115,13.1693-28.915,16.3896-34.184c5.0058-8.192,10.9765-17.234,13.4735-20.937l3.539-27.895c-.986-.405-1.865-.78-2.614-1.118-.74-.333-1.367-.635-1.853-.897-.441-.239-.891-.509-1.158-.796-.2196-.237-.3166-.514-.365-.72-.0509-.216-.0692-.444-.0713-.662-.0041-.436.0547-.962.1533-1.544.1987-1.17.587-2.719,1.11-4.533c1.05-3.638,2.682-8.459,4.568-13.709c3.675-10.232,8.339-22.154,11.613-30.261-1.392-.641-2.81-1.307-4.189-1.966-2.839-1.355-5.551-2.695-7.611-3.752-1.028-.527-1.9-.987-2.545-1.344-.321-.178-.595-.335-.805-.464-.172-.105-.405-.254-.557-.405-.244-.245-.307-.547-.323-.623-.029-.134-.042-.274-.049-.399-.015-.254-.009-.574.008-.932.034-.725.123-1.716.253-2.896.259-2.366.686-5.563,1.19-9.072.983-6.84,2.262-14.904,3.168-20.41-.124-.079-.24-.155-.341-.23-.123-.092-.31-.241-.446-.435-1.524-2.178-1.569-5.102-.16-11.971c1.104-5.38,4.594-8.293,6.756-9.35.274-5.559,1.323-19.282,3.544-33.436c2.244-14.309,7.641-29.868,10.214-36.27.149-4.05.639-8.268,2.09-12.456c3.175-9.156,8.772-11.797,13.266-14.908c2.328-1.612,4.183-2.629,5.586-3.418c1.448-.815,2.269-1.316,2.774-1.913.329-.388.539-1.025.625-1.784.042-.368.051-.731.041-1.052l-7.483-3.728c-.675-.336-1.121-1.028-1.106-1.811l.031-1.061c.194-5.449,1.088-13.056,2.9-20.31c1.919-7.684,4.923-15.205,9.408-19.233c3.726-3.345,8.253-6.087,12.859-7.673Zm65.671,414.406c-1.749,1.601-4.649,3.578-8.228,4.237-2.145.395-4.231.236-6.033-.149.622,3.558,1.427,8.251,2.113,12.495.405,2.501.769,4.851,1.033,6.721.259,1.834.435,3.294.435,3.954c0,2.142-.706,4.213-1.209,5.336-.003.007-.005.014-.007.02.636.973,1.697,1.837,3.104,2.583c1.42.754,3.129,1.356,4.949,1.824c3.635.936,7.59,1.311,10.284,1.371l5.139-5.555c-.069-.044-.138-.087-.206-.131-3.839-2.485-6.365-4.914-7.361-6.607-.526-.895-.994-2.44-1.414-4.3-.429-1.901-.835-4.256-1.198-6.862-.63-4.525-1.134-9.848-1.401-14.937ZM61.79,501.39c-1.11,2.455-2.5276,5.507-3.9384,8.371-.931,1.889-1.8618,3.705-2.7002,5.217-.8264,1.489-1.5989,2.75-2.2119,3.482-1.4476,1.728-2.8975,2.776-3.9766,3.544-.5549.395-.9542.676-1.2471.941-.2651.24-.341.381-.3652.456-.0009.023-.0026.075.001.165.0061.158.0253.374.0595.649.0683.547.1916,1.279.3682,2.143.3528,1.728.9098,3.948,1.6348,6.237.7259,2.291,1.6124,4.627,2.6191,6.596c1.022,2,2.1073,3.5,3.1768,4.256c1.8463,1.305,3.4225,1.529,4.6093,1.358c1.1538-.167,2.0055-.717,2.4414-1.15-.553-1.825-.9112-3.641-1.1093-5.373-.4734-4.136-.0583-7.886.8037-10.184.3549-.947,1.1457-2.356,2.1357-3.958c1.0044-1.626,2.2598-3.52,3.5908-5.462c2.2581-3.296,4.7505-6.751,6.6377-9.311-.3898-.086-.8225-.203-1.2802-.349-1.3708-.438-3.0709-1.145-4.7481-2.048-1.6732-.902-3.3655-2.023-4.6904-3.302-.7109-.686-1.3477-1.45-1.8106-2.278ZM191.066,280.939c-.593.433-1.28.761-2.004,1.005-1.459.494-3.189.698-4.94.734-2.852.058-5.91-.332-8.271-.788.127,7.769.233,14.905.3,20.591.003.216-.065.417-.179.582c1.207,2.345,2.68,5.198,4.411,8.521c5.644,10.838,7.448,15.629,8.201,22.595.753,6.965-.447,11.325-2.147,14.815-.546,1.12-1.582,1.884-2.713,2.402-1.142.521-2.488.841-3.827,1.014-2.644.342-5.523.14-7.131-.445-.978-.356-1.72-1.099-2.268-1.974-.549-.875-.944-1.944-1.216-3.075-.543-2.262-.629-4.942-.316-7.264.27-2.011-.075-3.255-.502-4.25-.119-.276-.228-.502-.34-.726-1.189,1.327-2.792,2.974-4.521,4.485-2.201,1.922-4.761,3.764-6.995,4.303-.434.105-.925.147-1.453.146-.008.003-.016.007-.025.01-.228.069-.462.051-.666-.032-.213-.014-.43-.031-.65-.055-1.056-.113-2.263-.344-3.558-.651-2.59-.615-5.606-1.559-8.596-2.573-2.993-1.016-5.985-2.111-8.525-3.033-2.562-.929-4.624-1.668-5.812-1.996-1.665-.459-4.875-1.801-8.46-3.419-3.267,8.091-7.903,19.942-11.554,30.107-1.882,5.238-3.497,10.012-4.529,13.588-.517,1.791-.88,3.255-1.059,4.313-.091.533-.128.926-.125,1.191c0,.045.003.083.006.114.014.01.029.022.046.034.118.078.281.174.494.289.424.229,1.001.509,1.721.833c1.438.647,3.391,1.448,5.705,2.351c4.626,1.805,10.654,4,16.8,6.148c6.145,2.148,12.4,4.248,17.48,5.862c5.124,1.629,8.949,2.731,10.304,2.93c2.941.433,4.947.578,6.726-.311c1.774-.888,3.538-2.925,5.568-7.494c1.576-3.545,2.848-10.309,3.787-17.456.934-7.099,1.522-14.427,1.778-19.001.031-.551.503-.973,1.054-.942.552.031.974.504.943,1.055-.172,3.079-.497,7.39-.972,12.046.017.029.033.06.047.091l24.213,54.881c.076.173.129.361.153.558l.015.201-.003.677c-.07,3.539-.953,9.516-.005,21.296.402,4.997,3.102,18.886,6.433,34.35c3.32,15.417,7.243,32.298,10.069,43.25.485.269,1.142.571,1.922.851.062-.025.128-.044.196-.056.406-.071.796.113,1.009.437c1.764.482,3.929.758,6.134.351c4.168-.768,7.349-3.64,8.378-4.937.027-.035.057-.067.088-.097-.51-13.171-3.962-100.013-4.123-106.32-.061-2.374-1.003-5.715-2.215-9.01-1.073-2.916-2.323-5.703-3.246-7.583-2.22,1.143-4.403,1.79-5.908,2.086-1.01.198-1.934-.43-2.219-1.343-2.738-8.755-8.533-29.405-11.758-48.395-1.034-6.089-2.356-12.828-3.736-19.901-1.378-7.067-2.812-14.463-4.067-21.847-1.511-8.893-2.766-17.797-3.347-26.119Zm7.746,234.447c.552,0,1,.447,1,1c0,.552-.448,1-1,1h-107.0884c-.5523,0-1-.448-1-1c0-.553.4477-1,1-1h107.0884Zm104.143,0c.552,0,1,.447,1,1c0,.552-.448,1-1,1h-50.835c-.552,0-1-.448-1-1c0-.553.448-1,1-1h50.835Zm318.418,0c.552,0,1,.448,1,1s-.448,1-1,1h-181.143c-.552,0-1-.448-1-1s.448-1,1-1h181.143ZM104.102,413.419c-.039.306-.146.6-.324.863-2.487,3.688-8.4408,12.705-13.4264,20.864-3.137,5.133-10.1186,19.807-16.2627,33.939-3.0666,7.053-5.9129,13.943-7.9541,19.406-1.0213,2.733-1.836,5.096-2.376,6.936-.2701.92-.4675,1.696-.5879,2.313-.1251.642-.1495,1.032-.1299,1.219.1087,1.032.783,2.146,1.9483,3.27c1.1492,1.11,2.6724,2.13,4.25,2.98c1.5734.848,3.1604,1.504,4.4082,1.902.6264.2,1.1431.328,1.5166.385.1015.016.1849.024.2509.028.1172-.141.2788-.343.4834-.607.428-.552,1.0271-1.346,1.7745-2.353c1.494-2.012,3.5702-4.855,6.038-8.261c4.9351-6.813,11.4303-15.872,17.9581-25.036c6.528-9.165,13.087-18.433,18.148-25.661c2.531-3.614,4.686-6.716,6.276-9.04c1.61-2.354,2.596-3.847,2.835-4.293c1.681-3.138,10.824-23.123,15.456-33.316-.374-.118-.755-.236-1.142-.359-5.101-1.622-11.375-3.728-17.534-5.881-6.158-2.153-12.211-4.356-16.867-6.173-.434-.169-.856-.337-1.266-.5l-3.473,27.375Zm629.49,12.614c.552.001.999.449.998,1.001s-.449,1-1.001.999l-168.666-.207c-.552-.001-1-.45-.999-1.002s.45-.998,1.002-.998l168.666.207ZM172.44,177.225c.253.78.726,1.806,1.272,2.855.617,1.187,1.288,2.327,1.728,3.032v.001l.002.002c8.005,8.877,12.749,23.562,15.31,38.875c2.568,15.356,2.971,31.533,2.161,43.565-.798,11.851.969,26.437,3.472,41.168c1.25,7.356,2.68,14.73,4.058,21.799c1.378,7.064,2.705,13.83,3.745,19.949c3.199,18.843,8.956,39.369,11.683,48.096c2.591-.521,7.154-2.137,10.067-5.51c1.94-2.246,2.278-4.688,1.924-7.575-.179-1.461-.533-3.008-.94-4.686-.403-1.663-.857-3.453-1.209-5.328-.682-3.634-5.384-20.784-10.232-38.53-4.829-17.682-9.795-35.926-10.956-41.611-1.831-8.976-2.31-17.187-2.323-20.342-4.465-1.946-6.802-6.006-6.984-8.877-.035-.551.383-1.026.934-1.061s1.027.384,1.062.934c.198,3.125,4.165,9.057,12.546,8.009c2.005-.251,5.334-1.619,9.552-3.82c4.171-2.177,9.081-5.094,14.198-8.319c10.226-6.446,21.221-14.088,28.691-19.411l-1.745-3.185c-.257-.176-.426-.468-.435-.795l-2.686-4.902c-.169-.097-.313-.243-.404-.432-.076-.157-.107-.324-.099-.486l-.798-1.456-44.778,16.497c-1.093.402-2.309-.205-2.621-1.344-1.913-6.995-5.001-17.529-8.325-27.383-3.341-9.902-6.873-18.972-9.658-23.148-5.183-7.775-13.576-13.854-18.212-16.581Zm.164,194.252c-.123,1.046-.251,2.098-.388,3.144-.522,3.966-1.157,7.912-1.912,11.295h8.67l-6.37-14.439Zm-1.29-73.111c-.118.193-.268.371-.456.52l-9.765,7.75c-.02.015-.042.028-.062.043c2.182,2.27,5.333,5.583,6.784,7.248.504.577.86.861,1.078,1.014.125.089.188.123.304.2.045.029.126.083.206.153.081.07.219.206.312.42.218.504-.016.934-.072,1.039-.069.127-.181.289-.253.396-.176.263-.456.696-.837,1.458-.308.616-.488,1.576-.534,2.811-.046,1.211.04,2.582.186,3.947.146,1.362.351,2.695.536,3.828.181,1.109.354,2.081.421,2.641.046.379.176.748.385,1.198.178.384.514,1.021.754,1.58.551,1.283.972,2.892.647,5.308-.283,2.105-.199,4.534.28,6.529.239.997.567,1.845.965,2.481.399.636.83,1,1.256,1.155c1.202.437,3.729.66,6.193.342c1.215-.157,2.349-.439,3.251-.851.911-.416,1.483-.918,1.746-1.458c1.535-3.151,2.669-7.134,1.957-13.724-.713-6.59-2.377-11.113-7.988-21.886-3.517-6.754-5.982-11.568-7.288-14.143-.002.001-.004.001-.006.001Zm-13.399,7.659c-.2.14-.414.254-.63.349-.318,2.73-1.169,8.692-2.656,15.882-1.481,7.159-.099,15.426.949,19.342.218-.015.405-.041.562-.078c1.717-.415,3.956-1.951,6.147-3.865c1.998-1.744,3.827-3.689,4.987-5.045-.041-.172-.076-.351-.098-.538-.061-.504-.218-1.384-.409-2.555-.188-1.147-.398-2.523-.55-3.939-.152-1.412-.247-2.889-.196-4.234.049-1.322.242-2.629.743-3.631.293-.588.54-1.01.733-1.319-.319-.25-.714-.609-1.188-1.153-1.751-2.007-6.09-6.535-8.053-8.56-.164-.169-.255-.381-.277-.598-.021-.019-.042-.038-.064-.058Zm-50.474-16.241c-.895,5.468-2.108,13.138-3.048,19.679-.504,3.502-.929,6.672-1.184,9.004-.128,1.168-.212,2.111-.243,2.773-.011.238-.014.427-.012.571.173.105.411.242.71.408.618.342,1.468.792,2.488,1.315c2.039,1.046,4.735,2.378,7.56,3.727c5.694,2.718,11.777,5.438,14.142,6.091c1.283.353,3.437,1.126,5.963,2.044c2.549.924,5.517,2.012,8.486,3.019c2.971,1.008,5.917,1.927,8.415,2.521c1.016.241,1.946.424,2.765.54-1.068-4.308-2.302-12.429-.813-19.625c1.35-6.527,2.168-12.022,2.536-14.951-.31.04-.627.07-.945.089-1.893.117-4.062-.069-5.634-.346-.481-.085-1.514-.428-2.837-.903-1.367-.491-3.149-1.163-5.199-1.957-4.102-1.589-9.297-3.675-14.434-5.799-5.136-2.123-10.223-4.288-14.107-6.035-1.84-.827-3.418-1.567-4.609-2.165ZM80.125,326.505c.5523,0,1,.448,1,1-.0003.552-.4479,1-1,1h-79.125c-.551954,0-.999736-.448-1-1c0-.552.447884-1,1-1h79.125Zm456.272,0c.553,0,1,.448,1,1s-.447,1-1,1h-312.63c-.553,0-1-.448-1-1s.447-1,1-1h312.63ZM85.9121,308.366c.5521,0,1,.448,1,1s-.4479,1-1,1h-35.3047c-.5522,0-1-.448-1-1s.4478-1,1-1h35.3047Zm644.0889,0c.552.001,1,.448,1,1s-.448,1-1,1h-485.141c-.552,0-1-.448-1-1s.448-1,1-1h485.141ZM148.031,176.368c-5.908-4.332-11.242-1.799-13.129-.069-.087.08-.187.14-.291.183-2.132,2.011-4.053,4.664-5.484,8.793-1.312,3.786-1.801,7.635-1.964,11.438.086.228.092.488-.008.731-.007.018-.014.036-.021.054-.007.209-.013.418-.018.627-.051,2.131-.018,4.228.006,6.289.024,2.052.04,4.071-.05,6.008-.173,3.748.233,16.116.907,28.565.337,6.212.739,12.424,1.167,17.562.429,5.166.879,9.172,1.3,11.024.837,3.682,3.184,8.002,5.894,12.081c2.695,4.057,5.685,7.781,7.723,10.263c2.721,3.312,9.646,9.694,14.231,13.773.175.084.315.212.413.366.404.358.786.698,1.144,1.011l9.33-7.404c-.034-.044-.067-.091-.098-.14l-4.552-7.094c-2.008-2.844-4.113-5.976-6.033-9.102-1.843-3-3.528-6.009-4.798-8.756-1.26-2.726-2.153-5.278-2.341-7.343-.362-3.991-.135-13.71.286-24.147.422-10.472,1.045-21.766,1.49-28.969.034-.551.508-.97,1.059-.936s.971.508.937,1.059c-.444,7.193-1.066,18.472-1.487,28.926-.424,10.49-.641,20.055-.292,23.885.156,1.714.929,4.015,2.164,6.686.874,1.892,1.961,3.928,3.173,6.016l6.534,2.613c.036-9.488-.119-23.799-.706-37.677-.62-14.654-1.715-28.714-3.536-36.137-2.324-9.479-3.636-15.599-5.362-20.121-1.69-4.429-3.753-7.246-7.588-10.058Zm-35.557,92.113c-1.626.712-4.879,3.162-5.882,8.052-1.418,6.911-1.13,8.998-.193,10.374.009.007.021.017.036.028.074.055.188.131.35.229.324.195.783.444,1.368.741c1.169.593,2.787,1.352,4.717,2.22c3.858,1.735,8.925,3.891,14.052,6.011c5.126,2.119,10.307,4.2,14.391,5.782c2.043.791,3.808,1.456,5.153,1.939c1.387.499,2.233.767,2.508.816c1.449.256,3.457.425,5.163.32.594-.037,1.125-.107,1.57-.206.147-.132.333-.22.536-.247-4.571-4.089-11.041-10.086-13.724-13.353-2.049-2.495-5.091-6.282-7.844-10.426-1.968-2.962-3.82-6.157-5.05-9.224l-17.151-3.056ZM147.07,168.037c-1.41.793-3.187,1.768-5.428,3.319-.307.213-.616.42-.924.626c2.537-.124,5.469.553,8.496,2.773c4.163,3.053,6.455,6.19,8.274,10.958c1.785,4.675,3.14,10.997,5.436,20.357c1.876,7.649,2.972,21.908,3.591,36.529.605,14.305.753,29.064.705,38.561l5.547,2.219v13.064c0,.105-.009.206-.023.303.338.669.794,1.567,1.365,2.686-.068-5.266-.158-11.486-.268-18.151-.22-.236-.323-.573-.243-.911.038-.165.116-.31.22-.43-.406-24.402-1.02-54.222-1.421-65.082-.531-14.405-7.06-30.975-10.303-37.539-2.679-1.877-10.238-7.091-14.15-9.784-.281.164-.572.332-.874.502Zm19.01,121.101l.115.18c1.636,2.316,3.209,4.437,4.562,6.198.003-.003.006-.006.01-.009v-9.561l-4.687,3.192Zm-5.69-8.556c1.452,2.349,3.005,4.7,4.538,6.922.009-.006.017-.013.026-.02l4.696-3.198-3.703-1.481c-.07-.02-.138-.046-.201-.08l-5.356-2.143Zm387.877-48.221c15.326-.335,26.193,6.365,33.511,14.852c7.294,8.457,11.078,18.697,12.335,25.577.037.201.01.399-.065.574.479.229,1.005.507,1.493.827.678.446,1.445,1.074,1.802,1.896.191.441.268.947.139,1.48-.126.522-.427.982-.84,1.384-.801.779-2.163,1.478-4.163,2.133-7.989,2.617-26.373,5.055-44.528,5.597-18.257.545-32.832-2.589-39.357-4.084-3.282-.753-5.664-1.824-6.868-3.257-.634-.754-.962-1.637-.869-2.592.092-.926.567-1.787,1.263-2.56.644-.716,1.713-1.298,2.86-1.782.104-.044.211-.087.318-.13.894-6.607,3.992-16.204,10.516-24.338c6.743-8.407,17.142-15.241,32.453-15.577Zm.044,2c-14.652.322-24.52,6.827-30.937,14.827-5.932,7.396-8.916,16.08-9.939,22.337.515-.16,1.045-.313,1.581-.459c2.893-.785,6.032-1.366,8.045-1.664.546-.08,1.053.297,1.134.843s-.296,1.055-.842,1.136c-1.957.289-5.015.857-7.814,1.616-1.4.38-2.713.802-3.782,1.252-1.104.465-1.82.909-2.151,1.276-.521.579-.723,1.056-.758,1.419-.033.334.062.696.409,1.109.757.901,2.571,1.858,5.783,2.594c6.465,1.482,20.846,4.572,38.852,4.035c18.107-.541,36.257-2.974,43.964-5.498c1.923-.63,2.926-1.214,3.391-1.666.219-.213.276-.356.291-.419.013-.052.014-.114-.03-.215-.114-.263-.458-.623-1.066-1.022-.573-.377-1.246-.702-1.814-.949-1.086-.472-3.716-1.203-6.645-1.905-2.449-.587-5.025-1.134-6.918-1.467-.176.806-.398,1.681-.675,2.633-.738,2.529-1.622,4.104-3.021,5.01-1.343.869-3.009.997-4.836,1.145-1.999.162-4.29.001-6.289-.502-1.94-.488-3.86-1.364-4.794-2.832-.699-1.099-1.061-2.724-1.258-4.17-.198-1.459-.246-2.905-.231-3.824-.262-4.033-.016-6.258,1.494-8.582.621-.955,1.657-1.126,2.486-1.096.827.03,1.762.268,2.557.465.857.213,1.578.387,2.166.408.584.021.745-.117.815-.216.082-.118.13-.298-.026-.746-.076-.218-.183-.447-.31-.708-.116-.237-.267-.537-.372-.813-.095-.253-.23-.679-.136-1.134.119-.576.534-.936,1.004-1.106.408-.149.902-.178,1.426-.157.546.023,1.229.106,2.07.25c3.536.608,5.675,2.238,6.926,4.047c1.227,1.777,1.541,3.643,1.599,4.682.069,1.247.133,2.898-.229,5.279c1.949.344,4.558.899,7.018,1.489c2.088.5,4.131,1.04,5.586,1.51-1.308-6.586-4.952-16.147-11.771-24.054-6.996-8.112-17.319-14.478-31.953-14.158ZM167.377,184.524c3.16,8.203,6.632,19.748,7.019,30.261.401,10.87,1.014,40.663,1.42,65.061c2.307.47,5.419.891,8.266.833c1.647-.034,3.15-.227,4.34-.629c1.195-.404,1.955-.977,2.323-1.688.042-.08.093-.153.151-.216-.23-4.468-.247-8.742.021-12.726.8-11.894.402-27.913-2.138-43.1-2.288-13.684-6.292-26.542-12.6-35.129l3.881,10.65c.379,1.041-.09,2.023-.916,2.43-.831.41-1.897.178-2.483-.769-2.737-4.423-5.947-9.68-8.637-13.954-.219-.349-.436-.69-.647-1.024Zm379.217,70.792c.546.023,1.228.106,2.069.25c3.536.608,5.676,2.238,6.926,4.047c1.228,1.777,1.542,3.643,1.599,4.682.108,1.927.206,4.817-1.27,9.879-.738,2.529-1.621,4.104-3.021,5.01-1.343.869-3.009.997-4.835,1.145-2,.162-4.291.001-6.29-.502-1.94-.488-3.859-1.364-4.793-2.832-.7-1.099-1.062-2.723-1.258-4.17-.198-1.459-.247-2.905-.232-3.824-.262-4.033-.016-6.258,1.494-8.582.621-.955,1.657-1.126,2.487-1.096.826.03,1.762.268,2.556.465.857.213,1.578.387,2.166.408.585.021.746-.117.815-.216.083-.118.131-.298-.026-.746-.076-.218-.183-.447-.31-.708-.116-.237-.267-.537-.371-.813-.096-.253-.231-.679-.137-1.134.119-.577.535-.936,1.004-1.106.408-.149.902-.178,1.427-.157ZM441.772,32.2432c3.526-.1856,6.721.2182,8.605.5547c2.244.4008,3.961,2.2433,5.326,3.9501.353.4415.696.8928,1.026,1.3291.334.4399.654.8622.97,1.2637.64.812,1.221,1.4731,1.781,1.9219c1.189.9508,2.447,1.4964,3.769,2.0352c1.288.5248,2.708,1.0659,3.951,2.0166.797.6096,1.234,1.4862,1.454,2.4287.219.9347.242,2.002.165,3.1064-.153,2.2003-.73,4.8071-1.248,7.2666-.407,1.9327-.858,3.2852-1.286,4.208-.129.2781-.258.521-.385.7315-.1.1667-.186.3678-.231.5547-.047.1963-.029.2973-.021.3212.396,1.1604.877,2.6755,1.259,4.125.374,1.4156.686,2.879.686,3.8848c0,.8152-.253,1.6637-.586,2.4473-.338.7951-.791,1.5951-1.258,2.333-.899,1.4214-1.969,2.7851-2.385,3.374-.006.0186-.023.0747-.041.1836-.029.1799-.046.4302-.048.751-.002.6402.06,1.4637.167,2.3769.214,1.8197.59,3.8932.895,5.3594.002.0033.009.011.021.0195.479.3256,1.101.7866,1.67,1.295.546.487,1.14,1.1015,1.459,1.7392.081.1625.123.3382.145.4424.027.1283.05.2765.072.4346.044.3176.084.7283.123,1.2109.078.968.151,2.2756.219,3.8184.136,3.0884.251,7.1544.333,11.4044.164,8.485.198,17.766-.001,21.48-.149,2.773-.484,6.505-.943,10.41h2.622c.992,0,1.844.725,1.979,1.723.957,7.051,2.765,21.652,3.164,29.9.34,7.034-1.636,13.246-3.307,16.841.034.001.068-.001.102,0c2.771.083,7.224,1.283,11.552,2.686c4.371,1.417,8.761,3.091,11.472,4.201.51.209.755.793.545,1.304-.209.511-.793.756-1.304.547-2.674-1.096-7.014-2.751-11.329-4.15-4.359-1.412-8.551-2.516-10.995-2.589-.397-.011-.8.052-1.203.186-.213.331-.589.494-.957.45-.516.315-1.023.739-1.502,1.264-1.129,1.237-1.997,2.909-2.378,4.542-.388,1.658-.237,3.086.39,3.99.575.828,1.749,1.488,4.098,1.2c5.211-.639,8.339-.461,10.661.229c2.299.683,3.775,1.884,5.461,2.931.97.603,1.864,1.339,2.661,2.038.828.727,1.496,1.363,2.145,1.898.662.545,1.104.809,1.389.878.058.014.094.015.113.014.017,0,.025-.002.03-.004.004-.002.074-.029.187-.191.12-.17.298-.526.521-1.131.216-.586.453-1.347.71-2.284.513-1.872,1.089-4.395,1.717-7.52c1.255-6.249,2.708-14.854,4.275-25.373c3.133-21.038,3.991-34.269-1.077-49.032-1.958-5.703-7.18-10.946-13.085-15.215-5.876-4.249-12.275-7.426-16.353-9.042-.513-.204-.765-.785-.561-1.298.203-.5135.784-.7649,1.298-.5619c4.209,1.6689,10.758,4.9219,16.788,9.2809c6,4.339,11.641,9.886,13.804,16.188c5.236,15.252,4.302,28.901,1.163,49.974-1.569,10.535-3.027,19.177-4.292,25.472-.632,3.146-1.218,5.72-1.749,7.655-.264.968-.518,1.789-.761,2.449-.237.641-.487,1.195-.759,1.585-.278.397-.636.725-1.094.905-.462.182-.926.174-1.346.072-.505-.122-1.001-.399-1.468-.726-.58,1.744-1.954,4.598-4.521,8.123.048.097.082.203.096.316l4.257,33.482c.152,1.195-.78,2.252-1.985,2.252h-35.417c-.089,0-.176-.013-.258-.035-.153.216-.299.427-.437.632-.774,1.154-1.263,2.08-1.474,2.76-2.062,6.663-4.008,10.114-7.606,13.549-1.867,1.782-5.223,3.558-8.85,4.846-3.64,1.294-7.723,2.156-11.103,1.991-.79-.039-1.489-.127-1.958-.362-.245-.122-.648-.396-.75-.929-.099-.515.156-.909.306-1.096.299-.373.81-.695,1.27-.955.504-.285,1.126-.591,1.787-.904c1.349-.64,2.882-1.322,4.22-2.031.664-.351,1.252-.696,1.721-1.025.483-.34.769-.616.9-.813.909-1.364,2.402-3.929,3.508-6.464.553-1.269.994-2.496,1.223-3.541.241-1.096.201-1.79.038-2.136-.008-.019-.041-.123-.402-.161-.385-.041-.954.027-1.684.225-1.444.393-3.19,1.201-4.672,2.002-.528.285-1.118.31-1.635.136l-1.047,11.375c-.095,1.029-.958,1.817-1.991,1.817h-12.315c-.146.311-.45.539-.817.571-.55.047-1.035-.36-1.083-.91l-3.122-35.675c-.039-.444.07-.865.284-1.216.005-.019.011-.038.018-.057l1.604-4.614c.28-.804,1.038-1.343,1.889-1.343h15.159c.872,0,1.644.566,1.907,1.398l1.449,4.586c.039.121.052.244.044.364.105.275.151.576.123.89l-1.322,14.342c1.578-.584,3.564-1.406,5.449-2.369c2.26-1.154,4.242-2.441,5.269-3.674.578-.693,2.076-2.901,4.173-6.114c2.077-3.183,4.701-7.288,7.505-11.717c5.51-8.703,11.711-18.648,15.827-25.288-.692-.355-1.26-.851-1.695-1.478-1.085-1.563-1.147-3.657-.696-5.586.458-1.956,1.483-3.939,2.85-5.436.731-.8,1.595-1.495,2.553-1.957c1.586-2.831,4.228-9.557,3.852-17.338-.394-8.146-2.189-22.659-3.147-29.719h-2.867c-.743,5.853-1.739,11.792-2.787,15.234-.895,2.941-1.346,5.732-1.689,8.02-.17,1.132-.318,2.17-.481,3.016-.156.815-.351,1.602-.676,2.159-.279.479-.772,1.07-1.578,1.082-.717.011-1.265-.462-1.617-.831-.75-.788-1.638-2.256-2.72-4.039-1.354-2.23-.939-4.243-.197-6.228.756-2.021,1.794-3.963,2.297-6.668.744-4,1.478-9.829,1.844-13.041l-33.745-2.996c-.106.369-.22,1.028-.22,2.091c0,1.957-1.595,3.258-3.14,3.76-1.552.505-3.603.391-4.848-1.084-.719-.851-.919-1.883-.883-2.824.036-.935.305-1.856.615-2.612.023-.055.022-.129-.008-.189-.012-.026-.026-.039-.031-.043-.002-.002-.002-.001-.005-.002l-2.033-.333c-2.076,21.159-6.288,63.009-7.292,68.866-.991,5.779-7.384,34.231-10.708,48.849h8.964l.103.005c.504.051.897.477.897.995s-.393.944-.897.995l-.103.005h-61.485c-.552,0-1-.448-1-1s.448-1,1-1h50.471c3.302-14.513,9.798-43.416,10.787-49.187.194-1.131.51-3.65.912-7.127l-1.97,5.532c-.36,1.01-1.431,1.531-2.42,1.258-.027,3.123-1.385,7.792-6.513,11.174-7.567,4.992-29.316,15.702-36.181,18.736-6.999,3.092-11.142,4.419-14.295,8.324-1.781,2.205-4.726,4.429-7.745,6.301-3.036,1.881-6.242,3.467-8.624,4.37-2.579.978-5.134.957-7.012.658-.445-.071-.819-.277-1.085-.569l-11.195,4.019c-.849.305-1.798.004-2.315-.735l-7.548-10.782c-.733-1.048-.308-2.506.874-2.995l16.927-7.002c.019-.04.038-.077.056-.111.183-.347.478-.727.804-1.097.669-.759,1.65-1.681,2.727-2.581c1.08-.904,2.286-1.809,3.414-2.528c1.091-.695,2.231-1.294,3.145-1.465.826-.153,1.983-.165,3.211-.134c1.244.031,2.683.111,4.071.168c1.406.057,2.781.092,3.971.043c1.221-.051,2.127-.189,2.66-.412-.003.002.012-.005.048-.026.035-.02.082-.048.14-.086.117-.076.267-.182.449-.318.365-.274.834-.651,1.395-1.121c1.12-.94,2.578-2.224,4.265-3.743c3.376-3.036,7.639-6.977,11.91-10.903c4.265-3.921,8.536-7.826,11.914-10.774c1.687-1.473,3.163-2.719,4.308-3.611.169-.131.332-.256.489-.374-.054-.009-.107-.018-.159-.028-1.1-.202-1.842-1.267-1.585-2.392c2.729-11.926,6.836-29.572,10.508-44.714c1.836-7.571,3.565-14.52,4.959-19.817.697-2.647,1.313-4.888,1.818-6.59.491-1.659.906-2.908,1.208-3.486.698-1.338,2.038-2.968,3.713-4.695c1.693-1.746,3.788-3.654,6.056-5.553c4.533-3.795,9.814-7.6,14.065-10.044c3.412-1.9621,6.311-3.1291,8.565-3.7881c1.5-.4385,2.741-.6573,3.671-.7285l.638-2.0058c.117-.3705.312-.6648.552-.8858-1.048-.9934-1.835-2.2434-2.418-3.4912-.535-1.1457-.918-2.3336-1.181-3.4102-.019-.0383-.036-.0777-.05-.1191-.259-.7768-.445-2.135-.592-3.71-.15-1.6137-.267-3.5694-.357-5.6113-.169-3.8142-.245-7.9668-.266-10.8398-.248-.1722-.444-.3955-.594-.5957-.203-.2724-.391-.5979-.563-.9453-.346-.697-.672-1.5724-.953-2.502-.559-1.848-.982-4.0583-.982-5.7344c0-1.402.504-3.4312,1.076-5.2968.499-1.6266,1.083-3.2296,1.535-4.379-.017-.0157-.034-.0311-.051-.0468-.817-.766-1.506-1.5251-1.903-2.1602-.448-.7158-.626-1.5014-.416-2.3359.197-.7798.704-1.4817,1.355-2.1416c1.292-1.3094,3.528-2.8143,6.582-4.7637c3.284-2.0962,7.215-2.8716,10.73-3.0566ZM555.082,268.548c-1.151.746-2.486,1.266-3.894,1.62-2.15.541-4.549.723-6.901.723-2.797,0-5.209-.906-6.799-1.781-.01.837.037,2.14.214,3.446.192,1.411.514,2.659.964,3.366.502.789,1.764,1.505,3.595,1.966c1.772.446,3.842.593,5.639.447c1.97-.16,3.074-.289,3.912-.83.781-.506,1.487-1.496,2.186-3.892.597-2.046.918-3.702,1.084-5.065Zm22.472,0c-1.151.746-2.486,1.266-3.895,1.62-2.149.541-4.548.723-6.9.723-2.798,0-5.209-.906-6.799-1.781-.01.837.037,2.14.214,3.446.191,1.411.514,2.659.964,3.366.502.789,1.764,1.505,3.594,1.966c1.772.446,3.843.593,5.64.447c1.97-.16,3.074-.289,3.911-.83.781-.506,1.488-1.496,2.187-3.892.344-1.181.598-2.233.782-3.173-.003-.066,0-.133.011-.201.013-.086.038-.168.071-.245.093-.516.165-.997.22-1.446Zm-97.079-63.285c-1.936-.575-4.745-.787-9.848-.161-.84.103-1.61.105-2.309.018-.018.04-.037.081-.061.119-4.115,6.641-10.443,16.789-16.056,25.654-2.806,4.431-5.435,8.545-7.519,11.74-2.066,3.165-3.64,5.496-4.312,6.302-1.305,1.566-3.606,3.005-5.895,4.174-2.325,1.187-4.777,2.166-6.511,2.771-.007.002-.011.006-.013.009l-.002.003v4.367c.002.002.005.007.014.012.011.006.023.009.032.009.004,0,.008,0,.011-.001.003,0,.007-.002.014-.006c1.531-.828,3.435-1.719,5.097-2.171.823-.224,1.672-.365,2.42-.286.771.082,1.591.425,2.002,1.299.462.981.364,2.242.107,3.415-.269,1.225-.766,2.586-1.345,3.913-1.159,2.659-2.712,5.327-3.677,6.775-.337.506-.863.952-1.413,1.339-.566.397-1.237.786-1.937,1.157-1.39.736-3.011,1.46-4.297,2.07-.338.16-.652.311-.937.454c2.941.05,6.534-.71,9.857-1.89c3.52-1.25,6.57-2.91,8.139-4.409c3.274-3.125,5.077-6.235,7.076-12.693.298-.96.917-2.08,1.724-3.283.816-1.217,1.868-2.579,3.079-4.036c2.424-2.914,5.534-6.256,8.81-9.639c6.593-6.81,13.788-13.729,17.694-17.948c6.179-6.674,8.342-11.844,8.657-13.419c0-.001,0-.003,0-.004-.405-.363-.823-.744-1.228-1.1-.772-.677-1.568-1.326-2.398-1.842-1.915-1.191-3.017-2.13-4.975-2.712Zm-68.53,68.098h12.353l3.147-34.189h-18.491l2.991,34.189Zm120.849-5.803c.552,0,1,.447,1,1c0,.552-.448,1-1,1-1.169,0-6.265.471-8.727.713-.549.054-1.038-.348-1.092-.897-.055-.55.348-1.039.897-1.094c2.395-.236,7.627-.722,8.922-.722ZM125.105,202.86c-2.73,7.643-6.444,19.627-8.196,30.796-2.173,13.852-3.218,27.296-3.51,32.958l15.456,2.755c-.137-.456-.258-.907-.359-1.352-.458-2.015-.917-6.168-1.344-11.302-.429-5.163-.832-11.396-1.17-17.619-.673-12.421-1.086-24.897-.908-28.766.087-1.871.072-3.837.048-5.892-.006-.521-.011-1.047-.017-1.578Zm421.364,54.79c.127.261.281.583.4.924.235.672.411,1.645-.223,2.553-.65.927-1.683,1.098-2.525,1.067-.838-.03-1.778-.267-2.576-.465-.86-.213-1.574-.386-2.149-.407-.57-.021-.689.117-.735.188-.909,1.399-1.274,2.744-1.262,5.18c1.031.78,3.667,2.201,6.888,2.201c2.265,0,4.483-.177,6.412-.662c1.93-.486,3.491-1.26,4.542-2.394-.004-.538-.026-1.008-.05-1.429-.044-.808-.295-2.277-1.248-3.655-.93-1.346-2.588-2.692-5.619-3.213-.8-.137-1.388-.205-1.812-.223-.077-.003-.145-.002-.206-.002.046.097.1.208.163.337Zm22.471,0c.127.261.282.583.401.924.235.672.411,1.645-.224,2.553-.649.927-1.682,1.098-2.524,1.067-.839-.03-1.779-.267-2.576-.465-.86-.213-1.574-.386-2.149-.407-.571-.021-.689.117-.735.188-.91,1.399-1.274,2.744-1.262,5.179c1.031.78,3.666,2.202,6.888,2.202c2.265,0,4.483-.177,6.412-.662c1.929-.486,3.491-1.26,4.542-2.394-.004-.538-.027-1.008-.05-1.429-.045-.808-.296-2.277-1.248-3.655-.93-1.346-2.588-2.692-5.619-3.213-.8-.137-1.388-.205-1.813-.223-.076-.003-.144-.002-.206-.002.047.097.1.208.163.337Zm-272.066-2.442c.552,0,1,.448,1,1s-.448,1-1,1h-45.388c-.552,0-1-.448-1-1s.448-1,1-1h45.388Zm33.02-20.262c-.003.001-.006.003-.01.007-1.225,1.188-3.183,2.974-4.68,3.926-1.325.843-2.831,1.022-4.081.92-1.004-.083-1.964-.359-2.625-.728l-16.826,6.961l1.262,1.803l1.493-.577c.863-.334,1.843-.032,2.368.73l1.423,2.066c.72,1.045.297,2.487-.873,2.978l-.599.25l2.474,3.533l11.679-4.193c.206-.349.529-.637.939-.811l16.784-7.156-8.71-9.709-.001-.001h.001c0,0-.002,0-.006-.001-.004,0-.009.001-.012.002Zm154.665-12.327c-.802.989-1.69,2.019-2.672,3.08-3.904,4.217-11.236,11.278-17.725,17.98-3.265,3.372-6.335,6.671-8.71,9.526-.363.437-.707.863-1.034,1.275h34.191l-4.05-31.861ZM379.784,198.633c-.118.088-.256.152-.409.181-.009.004-.035.015-.081.038-.093.046-.224.121-.397.232-.343.221-.794.549-1.346.979-1.101.856-2.543,2.072-4.222,3.538-3.355,2.929-7.609,6.818-11.876,10.741-4.262,3.918-8.539,7.871-11.925,10.917-1.692,1.522-3.17,2.826-4.318,3.789-.573.48-1.073.883-1.48,1.188-.376.283-.758.546-1.065.675-.885.371-2.1.513-3.348.566-1.278.053-2.724.013-4.137-.044-1.432-.059-2.813-.136-4.038-.166-1.241-.031-2.202-.01-2.795.1-.503.094-1.36.5-2.437,1.186-1.04.662-2.177,1.514-3.207,2.375-1.033.864-1.931,1.714-2.508,2.369-.078.089-.148.171-.21.246.34.114.785.22,1.301.263.96.078,1.994-.073,2.845-.615c1.306-.831,3.135-2.485,4.36-3.673.812-.788,2.136-.771,2.91.092l8.71,9.709c.915,1.02.557,2.639-.704,3.176l-16.13,6.875c1.518.144,3.366.045,5.202-.651c2.242-.851,5.335-2.375,8.279-4.2c2.96-1.836,5.676-3.917,7.243-5.858c3.543-4.386,8.329-5.93,15.043-8.896c6.848-3.026,28.468-13.681,35.889-18.576c5.111-3.371,5.832-8.106,5.569-10.467-1.889-.914-4.115-1.946-6.231-2.835-1.392-.586-2.725-1.105-3.875-1.49-1.173-.391-2.081-.616-2.652-.658-1.964-.143-5.175-.635-7.96-1.106Zm-75.67,50.889l1.459,2.083.998-.417-1.423-2.065-1.034.399Zm105.579-12.35h17.187l-.965-3.055h-15.159l-1.063,3.055Zm-132.386-13.85c-.504-.011-.816.016-.964.051-.343.082-1.283.449-2.693,1.057-1.368.59-3.087,1.367-4.923,2.214-3.206,1.478-6.753,3.163-9.379,4.426l2.411,4.401c1.852.095,5.103.181,7.347-.036c1.542-.15,2.871-.523,4.28-.957c1.396-.431,2.897-.931,4.667-1.263c1.749-.328,4.517-.698,6.889-.988-1.144-.308-2.601-.537-4.367-.537h-6.714c-.754,0-1.443-.406-1.733-1.084-.312-.728-.067-1.545.611-2.035c1.945-1.404,5.391-2.793,10.531-2.6c2.095.078,3.568.018,4.587-.117.745-.098,1.194-.234,1.455-.345-.018-.026-.034-.053-.049-.081-.039-.014-.081-.029-.127-.044-.338-.111-.809-.241-1.384-.384-1.145-.284-2.649-.602-4.207-.885-1.559-.283-3.157-.528-4.494-.669-.67-.07-1.262-.113-1.744-.124Zm14.081,2.9c-.153.336-.404.604-.702.812-.571.397-1.42.652-2.567.803-1.172.154-2.769.214-4.925.133-4.034-.151-6.804.758-8.494,1.72h5.875c1.515,0,2.842.154,3.979.39.203-.198.49-.308.795-.278l19.11,1.852-1.617-3.572-11.437-1.906c-.006.015-.01.031-.017.046ZM428.966,98.3633c-.653.1006-1.471.2747-2.445.5596-2.09.6109-4.844,1.7121-8.13,3.6011-4.124,2.371-9.309,6.103-13.778,9.844-2.232,1.869-4.272,3.729-5.903,5.411-1.648,1.7-2.82,3.159-3.378,4.229-.194.371-.555,1.414-1.063,3.13-.496,1.673-1.105,3.892-1.8,6.531-1.39,5.278-3.115,12.212-4.95,19.778-3.668,15.122-7.771,32.748-10.498,44.668c3.051.56,8.217,1.435,10.869,1.629.836.061,1.945.357,3.139.756c1.216.406,2.6.947,4.018,1.543c2.143.901,4.389,1.941,6.296,2.863.341-.014.662.149.854.42.305.15.599.292.877.431l.002.001c.001,0,.002,0,.004,0l.001-.001.001-.002l4.208-11.815c-2.434-1.74-6.367-4.039-10.78-5.629-4.442-1.601-9.251-2.44-13.481-1.399-.536.132-1.078-.196-1.21-.732-.132-.537.197-1.078.733-1.21c4.779-1.176,10.026-.201,14.636,1.46c4.308,1.552,8.165,3.742,10.741,5.514c1.688-15.645,3.993-38.638,5.37-52.662l.032-.215c.217-1.049,1.23-1.719,2.279-1.547l2.034.333c.632.103,1.099.458,1.387.92.872-4.086,1.889-8.797,2.83-13.048.695-3.14,1.351-6.034,1.875-8.242.262-1.103.493-2.04.681-2.754.178-.675.34-1.239.466-1.523.04-.09.083-.178.13-.264.002-.093.017-.188.047-.281l3.906-12.2977ZM151.476,162.823c-.105.918-.384,2.019-1.086,2.85-.199.234-.423.451-.667.658c4.508,3.105,12.621,8.7,14.229,9.849.176.125.341.297.477.45.147.167.312.371.487.6.352.461.778,1.067,1.262,1.78.968,1.428,2.191,3.331,3.539,5.472c2.527,4.016,5.52,8.908,8.132,13.135l-6.26-17.179c-.028-.076-.045-.154-.054-.232-.484-.988-.917-1.998-1.13-2.819-.307-1.186-.12-2.613.16-3.804.113-.475.246-.938.385-1.366l-19.448-9.689c-.008.098-.015.197-.026.295Zm27.527-53.885c-3.582-1.171-7.872-.814-12.214.681-4.332,1.492-8.631,4.09-12.174,7.272-4.004,3.595-6.896,10.59-8.803,18.228-1.893,7.575-2.764,15.556-2.872,20.909l7.209,3.591c.045-.014.092-.024.139-.032.483-.077.94.205,1.099.649l20.311,10.118c.274-.375.782-.52,1.222-.321.462.21.687.729.543,1.201l7.255,3.615c0,0,.003.001.01,0c.016-.003.051-.015.091-.046.04-.032.068-.07.081-.102.012-.027.012-.044.01-.055-.626-3.604-1.294-10.555-1.113-21.431.112-6.748.802-12.427,1.649-16.864.954-4.992,2.114-8.45,2.898-10.101.237-.499.833-.711,1.332-.475.499.237.711.834.474,1.332-.623,1.314-1.606,4.15-2.483,8.344c3.458-.084,7.315.941,10.854,2.312c4.036,1.562,7.787,3.624,10.288,5.216h.003c3.937-10.09-.098-17.64-3.341-22.575-.75-1.141-2.011-2.287-3.672-3.411-1.652-1.117-3.643-2.176-5.793-3.164-4.301-1.977-9.149-3.631-13.003-4.891Zm284.85,6.136c-.4,1.568-2.399,2.037-3.455.811l-2.444-2.84h-6.045c-.584,0-1.067-.228-1.414-.577-.802.527-1.772,1.269-2.714,2.199-1.403,1.386-2.691,3.133-3.317,5.129-1.253,3.993-3.451,13.061-4.645,18.166l19.946,1.771c1.111.099,1.935,1.09,1.807,2.21-.366,3.218-1.106,9.112-1.864,13.188-.546,2.933-1.736,5.253-2.391,7.003-.667,1.784-.841,3.049.034,4.49c1.146,1.888,1.897,3.109,2.459,3.698.018.019.037.035.053.051.124-.25.261-.711.406-1.46.152-.793.292-1.772.466-2.934.346-2.302.813-5.216,1.753-8.306c1.8-5.913,3.5-19.845,3.893-27.169.194-3.63.163-12.838-.001-21.334-.024-1.256-.053-2.496-.083-3.697l-2.444,9.601ZM183.272,137.469c-.762,4.213-1.371,9.521-1.475,15.779-.062,3.717-.021,6.963.08,9.762.999.626,3.314,1.866,5.713,2.498.851.224,1.433.352,1.933.346.445-.004.841-.116,1.298-.457.492-.367,1.073-1.014,1.812-2.14.733-1.119,1.586-2.653,2.639-4.738c3.129-6.193,4.194-13.106,4.373-16.213-1.78-.936-3.776-1.877-5.845-2.678-3.631-1.406-7.377-2.34-10.528-2.159Zm249.76-26.315c-1.594-.548-3.09-.654-4.24-.435-1.168.222-1.831.738-2.081,1.3-.047.105-.168.493-.359,1.22-.182.691-.41,1.61-.67,2.707-.521,2.193-1.173,5.075-1.868,8.211-1.388,6.272-2.943,13.548-3.951,18.334-.013.062-.033.121-.056.178.557.235,1.293.257,2.055.009c1.125-.366,1.758-1.128,1.758-1.858c0-1.636.238-2.687.548-3.303l.074-.131c.392-.621,1.087-.71,1.485-.675l11.925,1.059c.26-2.858.596-6.759.862-10.378.307-4.189.515-7.896.433-9.239-.186-3.065-2.744-5.909-5.915-6.999Zm28.253-29.571c-.153.7257-.328,1.5038-.526,2.2793-.455,1.7739-1.044,3.6494-1.735,4.8496-.468.8131-1.288,1.7073-2.256,2.5879-.985.8949-2.183,1.8297-3.467,2.7207-2.556,1.7732-5.534,3.4292-7.953,4.25-2.585.8769-4.732.5165-6.778-.3555-1-.4264-1.982-.9774-2.968-1.5507-.438-.2546-.877-.5131-1.324-.7725l1.86,14.8672c2.62,1.685,4.615,4.437,4.805,7.573.083,1.365-.096,4.66-.354,8.328.724-2.833,1.428-5.447,1.967-7.163.756-2.41,2.275-4.427,3.82-5.953c1.262-1.247,2.579-2.201,3.597-2.809.091-.315.262-.615.524-.873c2.423-2.383,5.6-5.773,7.061-8.187c1.189-1.9653,2.378-4.807,3.275-7.3242.446-1.2511.814-2.4046,1.068-3.3047.128-.4505.224-.8308.288-1.1231.032-.1458.055-.2635.069-.3525.012-.076.015-.1137.015-.1221c0-.101.016-.1991.043-.291-.299-1.4743-.652-3.4488-.86-5.2178-.085-.723-.147-1.427-.171-2.0566Zm96.154,34.105c.552.001,1,.448,1,1c0,.553-.448,1-1,1h-40.096c-.553,0-1-.447-1-1c0-.552.447-1,1-1h40.096Zm-175.746-1.875c.553,0,1,.447,1,1c0,.552-.447.999-1,1h-147.605c-.552-.001-1-.448-1-1c0-.553.448-1,1-1h147.605ZM463.825,91.29c-.268.9493-.65,2.1463-1.108,3.4327-.912,2.5584-2.154,5.5493-3.448,7.6873-1.572,2.597-4.811,6.047-7.21,8.418.01.073.011.145.005.217h5.89c.583,0,1.137.254,1.517.695l2.443,2.841l3.954-15.5273c.04-.1549.114-.2919.212-.4053-.011-.2852-.02-.5635-.032-.8339-.068-1.5341-.139-2.8139-.214-3.7461-.038-.4675-.075-.8365-.111-1.1006-.018-.1321-.034-.226-.047-.2871-.001-.0037-.002-.0076-.003-.0108-.154-.2778-.493-.6645-.977-1.0967-.25-.2237-.517-.4405-.775-.6377-.031.1141-.061.2332-.096.3545Zm-32.269,5.5274c.08.1615.12.3461.101.539-.033.3453-.238.6311-.522.7842l-3.427,10.7884c.231-.071.469-.129.71-.175c1.55-.295,3.403-.131,5.265.509.101.035.202.072.302.11l-1.811-14.499-.618,1.9434Zm18.469-62.0508c-1.787-.3192-4.821-.7013-8.147-.5264-3.336.1756-6.881.9075-9.76,2.7452-3.109,1.9844-5.133,3.3658-6.234,4.4824-.545.5527-.769.9481-.839,1.2256-.056.2226-.037.4541.171.7871.258.4138.799,1.0323,1.576,1.7617.763.716,1.709,1.4962,2.734,2.2353c2.089,1.5057,4.36,2.7351,6.027,3.0225c1.757.303,4.231.25,6.842-.1504c2.602-.3992,5.259-1.1316,7.38-2.1299c1.118-.5258,2.165-.9913,3.101-1.2988.917-.3013,1.849-.4938,2.697-.3564.934.1515,1.67.6877,2.124,1.5966.419.8382.585,1.9583.585,3.3243c0,2.6088.326,8.1387.491,13.5742.083,2.6938.124,5.3482.062,7.5498-.031,1.1002-.089,2.1014-.183,2.9453-.091.8242-.224,1.5712-.436,2.1221-.672,1.7468-1.755,3.8848-3.72,5.0986-2.051,1.2668-4.793,1.3751-8.4-.3594-1.656-.7959-2.775-1.1224-3.519-1.207-.727-.0827-1.013.0716-1.12.1523-.126.0954-.216.2465-.306.5098-.022.0657-.041.1286-.064.2041-.021.0667-.05.1577-.083.2441-.03.0792-.086.2179-.182.3545-.097.1385-.302.3713-.657.46-.593.1482-1.012-.2171-1.126-.3233-.157-.1462-.289-.3272-.38-.457-.226-.323-.374-.5753-.614-.8799-.463-.5874-.802-.748-1.206-.6377-.657.1793-2.02.7535-3.595,1.4746-1.533.7023-3.184,1.5044-4.391,2.1055.184,1.2724.608,3.0134,1.362,4.6289.77,1.6486,1.829,3.0524,3.213,3.7822c1.152.6078,2.212,1.2453,3.179,1.8077.981.5703,1.871,1.0667,2.747,1.4404c1.71.7284,3.34.9832,5.351.3008c2.177-.7387,4.985-2.2843,7.456-3.999c1.229-.853,2.355-1.7343,3.261-2.5577.921-.8376,1.558-1.5644,1.869-2.1054.542-.9418,1.078-2.5804,1.53-4.3477.445-1.7353.784-3.488.963-4.5898v-10.6719c0-.6361.323-1.3062.641-1.8467.345-.5881.808-1.2228,1.302-1.8369.93-1.1585,2.029-2.3204,2.81-3.0918.331-.7531.716-1.91,1.077-3.624.531-2.5232,1.069-4.9657,1.21-6.9942.071-1.0097.037-1.8526-.117-2.5117-.152-.6511-.405-1.0533-.722-1.2959-.986-.7539-2.124-1.196-3.491-1.7529-1.333-.543-2.829-1.1782-4.263-2.3252-.75-.6002-1.448-1.415-2.103-2.2461-.331-.42-.664-.8606-.992-1.2939-.331-.4368-.66-.8693-.995-1.2881-1.389-1.7352-2.688-2.9756-4.116-3.2305ZM260.22,0c.552.000262,1,.447797,1,1l-.013,53.2041h.439l.206.0107c1.008.1029,1.794.9541,1.794,1.9893v7.1055c0,.1436-.031.2798-.085.4033c1.288,1.4587,2.719,3.1608,4.028,4.8779c1.923,2.5223,3.696,5.2144,4.279,7.2363.778,2.6978.489,6.4496-1.264,9.5372-1.791,3.1534-5.101,5.5916-10.221,5.541-5.04-.05-8.427-2.1182-10.308-5.1162-1.849-2.9494-2.158-6.6653-1.356-9.9239.612-2.4851,2.413-5.2892,4.38-7.7871c1.188-1.5091,2.472-2.9482,3.665-4.1943v-7.6797c0-1.1046.895-2,2-2h.443L259.22,1c0-.552285.447-1.00013,1-1Zm.71,63.7773c-.053.0641-.113.1239-.184.1748-.088.0635-.95.9203.275,2.9971.418.7077.777,1.1889,1.071,1.5528.253.3135.591.6891.792.9834.261.3824.437.804.453,1.3623.014.4912-.1,1.0408-.277,1.6865-.456,1.6591-1.87,2.6164-2.698,3.2344-.477.3561-.754.5849-.901.789-.089.1238-.091.1637-.049.2774.052.1418.188.3106.561.5097.388.2073.856.3589,1.445.5674.528.1871,1.192.4332,1.715.8311.582.4435,1.025,1.1053,1.004,2.0322-.03,1.3022-.862,2.3004-1.644,2.9551-.804.6731-1.743,1.1442-2.38,1.3818-.517.193-1.093-.0698-1.286-.5869-.193-.5175.07-1.094.587-1.2871.471-.1759,1.2-.5429,1.795-1.041.617-.5169.919-1.0243.929-1.4678.003-.1641-.038-.2594-.217-.3955-.239-.1818-.614-.3388-1.171-.5361-.496-.1758-1.16-.3907-1.719-.6885-.573-.3061-1.201-.7826-1.496-1.583-.305-.8288-.114-1.5583.302-2.1368.358-.4978.9-.9041,1.328-1.2236.983-.7338,1.727-1.2905,1.966-2.1611.17-.6192.212-.9262.207-1.1016-.003-.1079-.02-.1643-.106-.29-.146-.2141-.311-.3778-.696-.8545-.345-.4267-.762-.9879-1.237-1.793-.634-1.0736-.9-2.0431-.924-2.874-1.201,1.2445-2.506,2.7004-3.705,4.2236-1.937,2.4603-3.505,4.9824-4.009,7.0284-.7,2.8436-.398,5.9809,1.109,8.3828c1.475,2.3531,4.19,4.1346,8.632,4.1787c4.362.0431,7.014-1.9785,8.462-4.5283c1.486-2.6157,1.713-5.8111,1.083-7.9952-.466-1.6175-2.012-4.0383-3.949-6.5781-1.673-2.1942-3.557-4.3749-5.068-6.0264ZM455.254,48.5381c-.365-.0592-.925.011-1.753.2832-.81.2661-1.762.6849-2.874,1.208-2.337,1.0997-5.188,1.8765-7.929,2.2969-2.733.4191-5.44.4971-7.485.1445-1.17-.2017-2.472-.7315-3.763-1.4219-.097.0245-.198.0375-.302.0313-.039.046-.099.123-.169.247-.244.4257-.481,1.114-.688,1.9737-.409,1.6973-.631,3.7566-.671,4.9101-.043,1.2626-.259,3.2834-.617,4.9336-.176.8115-.404,1.6143-.7,2.1973-.087.1711-.202.3635-.35.542.017,2.8609.093,7.1496.267,11.0693.087,1.9685.199,3.8348.339,5.377l.371-.1826c1.062-.5207,2.304-1.116,3.481-1.6553c1.539-.7047,3.058-1.3556,3.902-1.5859c1.64-.447,2.727.5999,3.302,1.3291.027.0341.053.071.079.1064.142-.2005.324-.3996.558-.5762.63-.4759,1.477-.666,2.551-.5439c1.057.1203,2.406.5485,4.16,1.3916c3.21,1.5433,5.19,1.2581,6.482.4599c1.379-.8514,2.264-2.4517,2.904-4.1142.116-.3014.228-.8371.316-1.625.085-.7685.141-1.7098.171-2.7813.061-2.1419.02-4.7493-.062-7.4316-.162-5.3171-.492-10.9992-.492-13.6357c0-1.2565-.162-2.0058-.374-2.4297-.176-.3528-.376-.4724-.654-.5176ZM391.055,79.0625c.552,0,1,.4477,1,1s-.448,1-1,1h-74.894c-.552-.0001-1-.4478-1-1s.448-.9999,1-1h74.894ZM463.883,64.958c-.204.2368-.405.4759-.597.7149-.463.5771-.861,1.1271-1.138,1.5976-.138.2349-.235.4333-.295.5918-.03.0781-.049.1391-.059.1836-.008.0355-.01.0543-.01.0586v10.6738c0,.0317-.002.0634-.004.0947.529-.7408,1.427-1.8737,2.279-3.2207.434-.6879.827-1.3874,1.107-2.0468.285-.6711.427-1.2336.427-1.6641c0-.7162-.243-1.9501-.619-3.374-.328-1.2392-.734-2.5399-1.091-3.6094ZM427.084,48.1328c-.388,1.0265-.838,2.2977-1.231,3.5801-.576,1.8763-.989,3.6442-.989,4.7119c0,1.4111.37,3.4147.896,5.1543.261.8643.551,1.6273.831,2.1924.038.0768.075.1485.111.2148.117-.333.237-.7607.347-1.2656.33-1.5202.532-3.4209.572-4.5781.044-1.2662.28-3.4628.726-5.3115.22-.9132.51-1.8215.895-2.4961.082-.144.178-.2893.286-.4297-.401-.262-.793-.5319-1.172-.8047-.439-.3165-.865-.642-1.272-.9678ZM258.764,61.8877c.079-.0758.157-.1511.234-.2236l.155-.1319c.017-.0128.035-.0239.052-.0361l.001-5.292h-.442v5.6836Zm2.441-.5596c.155.0755.303.1722.438.2901l.003.0029v-5.417h-.44l-.001,5.124Z" fill="#0085fb"/><path d="M188.096,334.812c28.576,30.709,109.996,92.788,218.5,102" fill="none" stroke="#0085fb" stroke-width="2"/><path d="M406.596,436.812c3.574,3.068,13.878,8.197,24.5,3" fill="none" stroke="#0085fb" stroke-width="2" stroke-linecap="round"/></g>
<script><![CDATA[
!function(t,e){"object"==typeof exports&&"undefined"!=typeof module?module.exports=e():"function"==typeof __SVGATOR_DEFINE__&&__SVGATOR_DEFINE__.amd?__SVGATOR_DEFINE__(e):((t="undefined"!=typeof globalThis?globalThis:t||self).__SVGATOR_PLAYER__=t.__SVGATOR_PLAYER__||{},t.__SVGATOR_PLAYER__["7c8cb2ed"]=e())}(this,(function(){"use strict";const t=n(Math.pow(10,-6)),e=n(Math.pow(10,-2));function n(t,e=6){return function(t,e,n){if(Number.isInteger(t))return t;const r=Math.pow(10,e);return Math[n]((+t+Number.EPSILON)*r)/r}(t,e,"round")}function r(e,n,r=t){return Math.abs(e-n)<r}n(Math.pow(10,-4));const i=Math.PI/180;function s(t){return t*i}function o(t){return t/i}function u(t){return"number"!=typeof t&&(t=Number(t)),isNaN(t)||!isFinite(t)?0:t}let l={iD:!1};function a(t){return`${t}`.replace(/['"]/g,"")}function c(t,e="px"){return t.endsWith(e)?t:`${t}${e}`}function f(t=""){return l.iD?t:void 0}function h(t){const e=["^","\\s*","(matrix\\()","(?<a>-?[0-9]*\\.?[0-9]+)","\\s*",",?","\\s*","(?<b>-?[0-9]*\\.?[0-9]+)","\\s*",",?","\\s*","(?<c>-?[0-9]*\\.?[0-9]+)","\\s*",",?","\\s*","(?<d>-?[0-9]*\\.?[0-9]+)","\\s*",",?","\\s*","(?<e>-?[0-9]*\\.?[0-9]+)","\\s*",",?","\\s*","(?<f>-?[0-9]*\\.?[0-9]+)","\\)"].join(""),n=t.match(new RegExp(e,"i"));if(n)return[u(n.groups.a),u(n.groups.b),u(n.groups.c),u(n.groups.d),u(n.groups.e),u(n.groups.f)]}function d(t,e="inline"){return t&&t!==e?(t=a(t))===e?f(e):t:f(e)}function g(t,e="1px"){if(!t||t===e)return f(e);if(t.endsWith("px")||t.endsWith("%"))return t;const r=c(t=`${n(u(t),2)}`);return r===e?f(e):r}function p(t,e="none"){if(!t||t===e)return f(e);if((t=a(t))===e)return f(e);const n=t.match(/url\(#.+?\)/);return n?n[0]:function(t){const e=["^","\\s*","url\\(","#","(?<maskId>[a-zA-Z0-9\\-_]+)","\\)"].join(""),n=t.match(new RegExp(e,"i"));if(n)return`url(#${n.groups.maskId})`}(t)}function y(t,e="rgb(0, 0, 0)"){if(!t||t===e)return f(e);if((t=a(t))===e)return f(e);if(t.startsWith("rgb"))return t;const n=function(t){if("string"!=typeof t||"#"!==t[0])return t;const e=t.slice(1),n=e.length;if(3!==n&&6!==n)return t;for(let r=0;r<n;r++){const n=e.charCodeAt(r);if(!(n>=48&&n<=57||n>=65&&n<=70||n>=97&&n<=102))return t}if(3===n)return`rgb(${parseInt(e[0]+e[0],16)}, ${parseInt(e[1]+e[1],16)}, ${parseInt(e[2]+e[2],16)})`;return`rgb(${parseInt(e.slice(0,2),16)}, ${parseInt(e.slice(2,4),16)}, ${parseInt(e.slice(4,6),16)})`}(t);return n===e?f(e):n}function m(t,e="1"){return t&&t!==e?(t=`${n(u(t),3)}`)===e?f(e):t:f(e)}let v={};const b={fill:"none",stroke:"none",opacity:"0.01",transform:"matrix(0.001 0 0 0.001 -10000 -10000)"};function w({element:t,tagType:e="path",property:n="d",attributeValue:r}){return v[r]||(v[r]=function({element:t,tagType:e="path",property:n="d",attributeValue:r}){const i=t.ownerSVGElement,s=document.createElementNS(i.namespaceURI,e);s.setAttributeNS(null,n,r);for(const t in b)s.setAttributeNS(null,t,b[t]);i.appendChild(s);const o=getComputedStyle(s)[n];return s.remove(),o}({element:t,tagType:e,property:n,attributeValue:r})),v[r]}const x=()=>{v={}};"object"==typeof window&&(window.removeEventListener("resize",x),window.addEventListener("resize",x));const A={include:(t,e)=>["path"].includes(e),formatter:t=>function(t,e=""){return t&&t!==e?(t=a(t))===e?f(e):t.startsWith("path(")?t:`path('${t}')`:f(e)}(t)},_={include:(t,e)=>["rect","mask"].includes(e),formatter:(t,e,n)=>g(t,function(t,e){var n;return(null===(n={mask:{x:"-150%",y:"-150%",width:"400%",height:"400%"}}[e])||void 0===n?void 0:n[t])||(["x","y"].includes(t)?"0px":"100%")}(e,n))},k=Object.freeze({d:A,display:t=>d(t),height:_,fill:t=>y(t),"fill-opacity":t=>m(t),filter:t=>d(t,"none"),mask:t=>p(t),opacity:t=>m(t),stroke:t=>y(t,"none"),"stroke-opacity":t=>m(t),"stroke-width":t=>g(t),transform:t=>function(t,e="none"){if(!t||t===e)return f(e);const n=h(t);return n?`matrix(${n.join(", ")})`:t}(t),"transform-origin":t=>function(t,e="0px 0px"){if(!t||t===e)return f(e);const n=["^","\\s*","(?<x>[0-9]+)","(px)?","\\s*",",","\\s*","(?<y>[0-9]+)","(px)?"].join(""),r=t.match(new RegExp(n,"i"));if(!r)return t;let i=`${u(r.groups.x)}`;i=c(i);let s=`${u(r.groups.y)}`;s=c(s);const o=`${i} ${s}`;return o===e?f(e):o}(t),visibility:t=>d(t,"visible"),width:_,x:_,y:_}),S=Object.keys(k),E=e;function O(t,e,n,i,s=window){var o,u;const l=t.getAttribute(e),a="transform"===e?"none":"",c=(s.safari||function(t){var e,n;const r=null==t?void 0:t.userAgent;return(null==t||null===(e=t.vendor)||void 0===e||null===(n=e.indexOf)||void 0===n?void 0:n.call(e,"Apple"))>-1&&r&&-1==r.indexOf("CriOS")&&-1==r.indexOf("FxiOS")}(null==s?void 0:s.navigator))&&!s.chrome&&(null===(o=i.getPropertyValue)||void 0===o?void 0:o.call(i,e))===a||"mask"===n?l:null===(u=i.getPropertyValue)||void 0===u?void 0:u.call(i,e);if(l&&c){if(l===c)return l;switch(e){case"transform":return function(t,e){const n=h(t),i=h(e);if((null==n?void 0:n.length)===(null==i?void 0:i.length)){for(let t=0,e=n.length;t<e;t++)if(n[t]!==i[t]&&(s=i[t],!r(((o=n[t])-s)/(o||1)*100,0,E)))return;var s,o;return t}}(l,c);case"d":return function(t,e,n){return w({element:t,attributeValue:e})===n?e:void 0}(t,l,c);default:return c}}}function I(t,e,n,r){var i,s,o,u;const l="transform"===e||["mask","path"].includes(n)&&["x","y","width","height","d"].includes(e);return r&&l?O(t,e,n,r):(null===(i=r.getPropertyValue)||void 0===i?void 0:i.call(r,e))??(null===(s=t.attrs)||void 0===s||null===(o=s.style)||void 0===o?void 0:o[e])??(null===(u=t.attrs)||void 0===u?void 0:u[e])}function M(t,e,n=!1){l.iD=n;const r="undefined"!=typeof window&&getComputedStyle(t),i={};for(let l=0,a=S.length;l<a;l++){var s,o,u;const a=S[l],c=t.type||t.nodeName;if(!1===(null===(s=(o=k[a]).include)||void 0===s?void 0:s.call(o,a,c)))continue;const f=k[a].formatter||k[a];if(null!=e&&null!==(u=e[t.id])&&void 0!==u&&u[a])continue;const h=I(t,a,c,r);if(null==h&&!n)continue;const d=f.call(this,h,a,c);d&&(i[a]=d)}return i}function j(t){var e,n;if(null==t||null===(e=t.wD)||void 0===e||!e.length)return;this.h=t.wD.shift();const r=null===(n=t.rootId)||void 0===n?void 0:n.slice(0,-1);this.wIs=t.wD.map((t=>`${r}${t}`))}function B(t){const e=new j(t),n=t.svg,r=e.wIs,i=t.originalAnimations[0].elements,s=e.h;function o(t,e,s){var u;if(e[t])return;const l=n.querySelector("#"+t),a=null==l||null===(u=l.parentElement)||void 0===u?void 0:u.id;if(l&&a){if(r.includes(a))return e[a]||o(a,e,s),e[a].children??=[],e[t]=M(l,i),void e[a].children.push(e[t]);e[t]=M(l,i),s.push(e[t])}}async function u(){const t=function(){let t=[],e={};for(let n=0,i=r.length;n<i;n++)o(r[n],e,t);return t}();return await async function(t){var e,n;const r=JSON.stringify(t),i=(new TextEncoder).encode(r),o=await(null===(e=window.crypto)||void 0===e||null===(n=e.subtle)||void 0===n?void 0:n.digest("SHA-256",i));return o&&Array.from(new Uint8Array(o)).map((t=>t.toString(16).padStart(2,"0"))).join("")||s}(t)}this.vH=async function(){await u()!==s&&requestAnimationFrame((()=>t.stop()))}}function N(t){let e=0,n=0;const r=new B(t);this.cF=function(i,s){return t.wD?(e++,function(t){return!(t-n<300)&&(t-n>=500||e>=3)}(i)?(e=0,n=i,window.requestAnimationFrame((()=>r.vH())),s()):s()):s()}}function T(t){return t}function P(t,e,n){const r=1-n;return 3*n*r*(t*r+e*n)+n*n*n}function F(t=0,e=0,n=1,i=1){return t<0||t>1||n<0||n>1?null:r(t,e)&&r(n,i)?T:s=>{if(s<=0)return t>0?s*e/t:0===e&&n>0?s*i/n:0;if(s>=1)return n<1?1+(s-1)*(i-1)/(n-1):1===n&&t<1?1+(s-1)*(e-1)/(t-1):1;let o,u=0,l=1;for(;u<l;){o=(u+l)/2;const e=P(t,n,o);if(r(s,e))break;e<s?u=o:l=o}return P(e,i,o)}}function R(){return 1}function C(t){return 1===t?1:0}function V(t=1,e=0){if(1===t){if(0===e)return C;if(1===e)return R}const n=1/t;return t=>t>=1?1:(t+=e*n)-t%n}Number.isInteger||(Number.isInteger=function(t){return"number"==typeof t&&isFinite(t)&&Math.floor(t)===t}),Number.EPSILON||(Number.EPSILON=2220446049250313e-31);const D=Math.sin,$=Math.cos,L=Math.acos,q=Math.asin,z=Math.tan,G=Math.atan2,W=Math.sqrt;function Y(t,e){return{a:t[0]*e[0]+t[2]*e[1],b:t[1]*e[0]+t[3]*e[1],c:t[0]*e[2]+t[2]*e[3],d:t[1]*e[2]+t[3]*e[3],tx:t[0]*e[4]+t[2]*e[5]+t[4],ty:t[1]*e[4]+t[3]*e[5]+t[5]}}function U(t,e,n){return t>=.5?n:e}function H(t,e,n){return 0===t||e===n?e:t*(n-e)+e}function J(t,e,n){const r=H(t,e,n);return r<=0?0:r}function Q(t,e,n){const r=H(t,e,n);return r<=0?0:r>=1?1:r}function X(t,e,n){return 0===t?e:1===t?n:{x:H(t,e.x,n.x),y:H(t,e.y,n.y)}}function Z(t,e,n){return 0===t?e:1===t?n:{x:J(t,e.x,n.x),y:J(t,e.y,n.y)}}function K(t,e,n){const r=function(t,e,n){return Math.round(H(t,e,n))}(t,e,n);return r<=0?0:r>=255?255:r}function tt(t,e,n){return 0===t?e:1===t?n:{r:K(t,e.r,n.r),g:K(t,e.g,n.g),b:K(t,e.b,n.b),a:H(t,null==e.a?1:e.a,null==n.a?1:n.a)}}function et(t,e,n){let r=e.length;if(r!==n.length)return U(t,e,n);let i=new Array(r);for(let s=0;s<r;s++)i[s]=H(t,e[s],n[s]);return i}function nt(t,e){const n=[];for(let r=0;r<t;r++)n.push(e);return n}function rt(t,e){if(--e<=0)return t;const n=(t=Object.assign([],t)).length;do{for(let e=0;e<n;e++)t.push(t[e])}while(--e>0);return t}class it{constructor(t){this.list=t,this.length=t.length}setAttribute(t,e){const n=this.list;for(let r=0;r<this.length;r++)n[r].setAttribute(t,e)}removeAttribute(t){const e=this.list;for(let n=0;n<this.length;n++)e[n].removeAttribute(t)}style(t,e){const n=this.list;for(let r=0;r<this.length;r++)n[r].style[t]=e}}const st=/-./g,ot=(t,e)=>e.toUpperCase();let ut;function lt(t){return"function"==typeof t?t:U}function at(t){return t?"function"==typeof t?t:Array.isArray(t)?function(t,e=T){if(!Array.isArray(t))return e;switch(t.length){case 1:return V(t[0])||e;case 2:return V(t[0],t[1])||e;case 4:return F(t[0],t[1],t[2],t[3])||e}return e}(t,null):function(t,e,n=T){switch(t){case"linear":return T;case"steps":return V(e.steps||1,e.jump||0)||n;case"bezier":case"cubic-bezier":return F(e.x1||0,e.y1||0,e.x2||0,e.y2||0)||n}return n}(t.type,t.value,null):null}function ct(t,e,n,r=!1){const i=e.length-1;if(t<=e[0].t)return r?[0,0,e[0].v]:e[0].v;if(t>=e[i].t)return r?[i,1,e[i].v]:e[i].v;let s,o=e[0],u=null;for(s=1;s<=i;s++){if(!(t>e[s].t)){u=e[s];break}o=e[s]}return null==u?r?[i,1,e[i].v]:e[i].v:o.t===u.t?r?[s,1,u.v]:u.v:(t=(t-o.t)/(u.t-o.t),o.e&&(t=o.e(t)),r?[s,t,n(t,o.v,u.v)]:n(t,o.v,u.v))}function ft(t,e,n=null){return t&&t.length?"function"!=typeof e?null:("function"!=typeof n&&(n=null),r=>{let i=ct(r,t,e);return null!=i&&n&&(i=n(i)),i}):null}function ht(t,e){return t.t-e.t}function dt(t,e,n,r,i){const s="@"===n[0],o="#"===n[0];let u=ut[n],l=U;var a;switch(s?(a=n.substr(1),n=a.replace(st,ot)):o&&(n=n.substr(1)),typeof u){case"function":if(l=u(r,i,ct,at,n,s,e,t),o)return l;break;case"string":l=ft(r,lt(u));break;case"object":if(l=ft(r,lt(u.i),u.f),l&&"function"==typeof u.u)return u.u(e,l,n,s,t)}return l?function(t,e,n,r=!1){if(r)return t instanceof it?r=>t.style(e,n(r)):r=>t.style[e]=n(r);if(Array.isArray(e)){const r=e.length;return i=>{const s=n(i);if(null==s)for(let n=0;n<r;n++)t[n].removeAttribute(e);else for(let n=0;n<r;n++)t[n].setAttribute(e,s)}}return r=>{const i=n(r);null==i?t.removeAttribute(e):t.setAttribute(e,i)}}(e,n,l,s):null}function gt(t,e,n,r){if(!r||"object"!=typeof r)return null;let i=null,s=null;return Array.isArray(r)?s=function(t){if(!t||!t.length)return null;for(let e=0;e<t.length;e++)t[e].e&&(t[e].e=at(t[e].e));return t.sort(ht)}(r):(s=r.keys,i=r.data||null),s?dt(t,e,n,s,i):null}function pt(t,e,n){if(!n)return null;const r=[];for(const i in n)if(n.hasOwnProperty(i)){const s=gt(t,e,i,n[i]);s&&r.push(s)}return r.length?r:null}function yt(t,e){if(!e.settings.duration||e.settings.duration<0)return null;const n=function(t,e){if(!e)return null;let n=[];if(Array.isArray(e)){const r=e.length;for(let i=0;i<r;i++){const r=e[i];if(2!==r.length)continue;let s=null;if("string"==typeof r[0])s=t.getElementById(r[0]);else if(Array.isArray(r[0])){s=[];for(let e=0;e<r[0].length;e++)if("string"==typeof r[0][e]){const n=t.getElementById(r[0][e]);n&&s.push(n)}s=s.length?1===s.length?s[0]:new it(s):null}if(!s)continue;const o=pt(t,s,r[1]);o&&(n=n.concat(o))}}else for(const r in e){if(!e.hasOwnProperty(r))continue;const i=t.getElementById(r);if(!i)continue;const s=pt(t,i,e[r]);s&&(n=n.concat(s))}return n.length?n:null}(t,e.elements);return n?function(t,e){const n=e.duration,r=t.length;let i=null;return(s,o)=>{const u=e.iterations||1/0,l=(e.alternate&&u%2==0)^e.direction>0?n:0;let a=s%n,c=1+(s-a)/n;o*=e.direction,e.alternate&&c%2==0&&(o=-o);let f=!1;if(c>u)a=l,f=!0,-1===e.fill&&(a=e.direction>0?0:n);else if(o<0&&(a=n-a),a===i)return!1;i=a;for(let e=0;e<r;e++)t[e](a);return f}}(n,e.settings):null}function mt(t,e=document,n=0){const r=function(t,e){const n=e.querySelectorAll("svg");for(let e=0;e<n.length;e++)if(n[e].id===t.root&&!n[e].svgatorAnimation)return n[e].svgatorAnimation=!0,n[e];return null}(t,e);if(r)return r;if(n>=20)return null;const i=function(t){const e=t=>t.shadowRoot;return document?Array.from(t.querySelectorAll(":not("+["a","area","audio","br","canvas","circle","datalist","embed","g","head","hr","iframe","img","input","link","object","path","polygon","rect","script","source","style","svg","title","track","video"].join()+")")).filter(e).map(e):[]}(e);for(let e=0;e<i.length;e++){const r=mt(t,i[e],n+1);if(r)return r}return null}function vt(t,e=null,n=Number,r="undefined"!=typeof BigInt&&BigInt){const i="0x"+(t.replace(/[^0-9a-fA-F]+/g,"")||27);return e&&r&&n.isSafeInteger&&!n.isSafeInteger(+i)?n(r(i))%e+e:+i}function bt(t,e=27){return!t||t%e?t%e:[0,1].includes(e)?e:bt(t/e,e)}function wt(t,e,n){if(!t||!t.length)return;const r=vt(n),i=bt(r)+5;let s=function(t,e,n){let r="";for(;t&&n&&e<=t.length;)r+=t.substring(0,e),t=t.substring(e+1),e=n;return r+t}(t,bt(r,5),i);return s=s.replace(/\x7c$/g,"==").replace(/\x2f$/g,"="),s=atob(s),s=s.replace(/[\x41-\x5A]/g,""),s=function(t,e,n){const r=+("0x"+t.substring(0,4));t=t.substring(4);const i=vt(e,r)%r+n%27,s=[];for(let e=0;e<t.length;e+=2){if("|"===t[e]){const n=+("0x"+t.substring(e+1,e+1+4))-i;e+=3,s.push(n);continue}const n=+("0x"+t[e]+t[e+1])-i;s.push(n)}return String.fromCharCode(...s)}(s,e,r),s=JSON.parse(s),s}const xt=[{key:"alternate",def:!1},{key:"fill",def:1},{key:"iterations",def:0},{key:"direction",def:1},{key:"speed",def:1},{key:"fps",def:100}];function At(t){return n(t)+""}function _t(t,e=" "){return t&&t.length?t.map(At).join(e):""}function kt(t){return At(t.x)+","+At(t.y)}function St(t){return t?null==t.a||t.a>=1?function(t){if(!t)return"transparent";const e=t=>parseInt(t).toString(16).padStart(2,"0");return function(t){const e=[];let n="#"===t[0]?e.push("#"):0;for(;n<t.length;n+=2){if(t[n]!==t[n+1])return t;e.push(t[n])}return e.join("")}("#"+e(t.r)+e(t.g)+e(t.b)+(null==t.a||t.a>=1?"":e(255*t.a)))}(t):"rgba("+t.r+","+t.g+","+t.b+","+t.a+")":"transparent"}function Et(t){return t?"url(#"+t+")":"none"}!function(){for(var t=0,e=["ms","moz","webkit","o"],n=0;n<e.length&&!window.requestAnimationFrame;++n)window.requestAnimationFrame=window[e[n]+"RequestAnimationFrame"],window.cancelAnimationFrame=window[e[n]+"CancelAnimationFrame"]||window[e[n]+"CancelRequestAnimationFrame"];window.requestAnimationFrame||(window.requestAnimationFrame=function(e){var n=Date.now(),r=Math.max(0,16-(n-t)),i=window.setTimeout((function(){e(n+r)}),r);return t=n+r,i},window.cancelAnimationFrame=window.clearTimeout)}();var Ot={f:null,i:Z,u:(t,e)=>n=>{const r=e(n);t.setAttribute("rx",At(r.x)),t.setAttribute("ry",At(r.y))}},It={f:null,i:function(t,e,n){return 0===t?e:1===t?n:{width:J(t,e.width,n.width),height:J(t,e.height,n.height)}},u:(t,e)=>n=>{const r=e(n);t.setAttribute("width",At(r.width)),t.setAttribute("height",At(r.height))}};Object.freeze({M:2,L:2,Z:0,H:1,V:1,C:6,Q:4,T:2,S:4,A:7});let Mt={},jt=null;function Bt(t){let e=function(){if(jt)return jt;if("object"!=typeof document||!document.createElementNS)return{};let t=document.createElementNS("http://www.w3.org/2000/svg","svg");return t&&t.style?(t.style.position="absolute",t.style.opacity="0.01",t.style.zIndex="-9999",t.style.left="-9999px",t.style.width="1px",t.style.height="1px",jt={svg:t},jt):{}}().svg;if(!e)return function(t){return null};let n=document.createElementNS(e.namespaceURI,"path");n.setAttributeNS(null,"d",t),n.setAttributeNS(null,"fill","none"),n.setAttributeNS(null,"stroke","none"),e.appendChild(n);let r=n.getTotalLength();return function(t){let e=n.getPointAtLength(r*t);return{x:e.x,y:e.y}}}function Nt(t,e,n,r,i=1){let s=function(t){return Mt[t]?Mt[t]:Mt[t]=Bt(t)}(function(t,e,n,r){if(!t||!r)return!1;let i=["M",t.x,t.y];if(e&&n&&(i.push("C"),i.push(e.x),i.push(e.y),i.push(n.x),i.push(n.y)),e?!n:n){let t=e||n;i.push("Q"),i.push(t.x),i.push(t.y)}return e||n||i.push("L"),i.push(r.x),i.push(r.y),i.join(" ")}(t,e,n,r));try{return s(i)}catch(t){return null}}function Tt(t,e,n){return t+(e-t)*n}function Pt(t,e,n,r=!1){const i={x:Tt(t.x,e.x,n),y:Tt(t.y,e.y,n)};return r&&(i.a=function(t,e){return Math.atan2(e.y-t.y,e.x-t.x)}(t,e)),i}function Ft(t,e,n,r){const i=1-r;return i*i*t+2*i*r*e+r*r*n}function Rt(t,e,n,r){return 2*(1-r)*(e-t)+2*r*(n-e)}function Ct(t,e,n,r,i=!1){let s=Nt(t,e,null,n,r);return s||(s={x:Ft(t.x,e.x,n.x,r),y:Ft(t.y,e.y,n.y,r)}),i&&(s.a=function(t,e,n,r){return Math.atan2(Rt(t.y,e.y,n.y,r),Rt(t.x,e.x,n.x,r))}(t,e,n,r)),s}function Vt(t,e,n,r,i){const s=i*i;return i*s*(r-t+3*(e-n))+3*s*(t+n-2*e)+3*i*(e-t)+t}function Dt(t,e,n,r,i){const s=1-i;return 3*(s*s*(e-t)+2*s*i*(n-e)+i*i*(r-n))}function $t(t,e,n,r,i,s=!1){let o=Nt(t,e,n,r,i);return o||(o={x:Vt(t.x,e.x,n.x,r.x,i),y:Vt(t.y,e.y,n.y,r.y,i)}),s&&(o.a=function(t,e,n,r,i){return Math.atan2(Dt(t.y,e.y,n.y,r.y,i),Dt(t.x,e.x,n.x,r.x,i))}(t,e,n,r,i)),o}function Lt(t,e,n,r=!1){if(zt(e)){if(Gt(n))return Ct(e,n.start,n,t,r)}else if(zt(n)){if(Wt(e))return Ct(e,e.end,n,t,r)}else{if(Wt(e))return Gt(n)?$t(e,e.end,n.start,n,t,r):Ct(e,e.end,n,t,r);if(Gt(n))return Ct(e,n.start,n,t,r)}return Pt(e,n,t,r)}function qt(t,e,n){const r=Lt(t,e,n,!0);return r.a=o(function(t,e=!1){return e?t+Math.PI:t}(r.a)),r}function zt(t){return!t.type||"corner"===t.type}function Gt(t){return null!=t.start&&!zt(t)}function Wt(t){return null!=t.end&&!zt(t)}const Yt=new class{constructor(t=1,e=0,n=0,r=1,i=0,s=0){this.m=[t,e,n,r,i,s],this.i=null,this.w=null,this.s=null}get determinant(){const t=this.m;return t[0]*t[3]-t[1]*t[2]}get isIdentity(){if(null===this.i){const t=this.m;this.i=1===t[0]&&0===t[1]&&0===t[2]&&1===t[3]&&0===t[4]&&0===t[5]}return this.i}point(t,e){const n=this.m;return{x:n[0]*t+n[2]*e+n[4],y:n[1]*t+n[3]*e+n[5]}}translateSelf(t=0,e=0){if(!t&&!e)return this;const n=this.m;return n[4]+=n[0]*t+n[2]*e,n[5]+=n[1]*t+n[3]*e,this.w=this.s=this.i=null,this}rotateSelf(t=0){if(t%=360){t=s(t);const e=D(t),n=$(t),r=this.m,i=r[0],o=r[1];r[0]=i*n+r[2]*e,r[1]=o*n+r[3]*e,r[2]=r[2]*n-i*e,r[3]=r[3]*n-o*e,this.w=this.s=this.i=null}return this}scaleSelf(t=1,e=1){if(1!==t||1!==e){const n=this.m;n[0]*=t,n[1]*=t,n[2]*=e,n[3]*=e,this.w=this.s=this.i=null}return this}skewSelf(t,e){if(e%=360,(t%=360)||e){const n=this.m,r=n[0],i=n[1],o=n[2],u=n[3];t&&(t=z(s(t)),n[2]+=r*t,n[3]+=i*t),e&&(e=z(s(e)),n[0]+=o*e,n[1]+=u*e),this.w=this.s=this.i=null}return this}resetSelf(t=1,e=0,n=0,r=1,i=0,s=0){const o=this.m;return o[0]=t,o[1]=e,o[2]=n,o[3]=r,o[4]=i,o[5]=s,this.w=this.s=this.i=null,this}recomposeSelf(t=null,e=null,n=null,r=null,i=null){return this.isIdentity||this.resetSelf(),t&&(t.x||t.y)&&this.translateSelf(t.x,t.y),e&&this.rotateSelf(e),n&&(n.x&&this.skewSelf(n.x,0),n.y&&this.skewSelf(0,n.y)),!r||1===r.x&&1===r.y||this.scaleSelf(r.x,r.y),i&&(i.x||i.y)&&this.translateSelf(i.x,i.y),this}decompose(t=0,e=0){const r=this.m,i=r[0]*r[0]+r[1]*r[1],s=[[r[0],r[1]],[r[2],r[3]]];let u=W(i);if(0===u)return{origin:{x:n(r[4]),y:n(r[5])},translate:{x:n(t),y:n(e)},scale:{x:0,y:0},skew:{x:0,y:0},rotate:0};s[0][0]/=u,s[0][1]/=u;const l=r[0]*r[3]-r[1]*r[2]<0;l&&(u=-u);let a=s[0][0]*s[1][0]+s[0][1]*s[1][1];s[1][0]-=s[0][0]*a,s[1][1]-=s[0][1]*a;let c,f=W(s[1][0]*s[1][0]+s[1][1]*s[1][1]);return 0===f?{origin:{x:n(r[4]),y:n(r[5])},translate:{x:n(t),y:n(e)},scale:{x:n(u),y:0},skew:{x:0,y:0},rotate:0}:(s[1][0]/=f,s[1][1]/=f,a/=f,s[1][1]<0?(c=o(L(s[1][1])),s[0][1]<0&&(c=360-c)):c=o(q(s[0][1])),l&&(c=-c),a=o(G(a,W(s[0][0]*s[0][0]+s[0][1]*s[0][1]))),l&&(a=-a),{origin:{x:n(r[4]),y:n(r[5])},translate:{x:n(t),y:n(e)},scale:{x:n(u),y:n(f)},skew:{x:n(a),y:0},rotate:n(c)})}multiply(t){return this.clone().multiplySelf(t)}preMultiply(t){return t.multiply(this)}multiplySelf(t){const{a:e,b:n,c:r,d:i,tx:s,ty:o}=Y(this.m,t.m);return this.resetSelf(e,n,r,i,s,o),this}preMultiplySelf(t){const{a:e,b:n,c:r,d:i,tx:s,ty:o}=Y(t.m,this.m);return this.resetSelf(e,n,r,i,s,o),this}clone(){const t=this.m;return new this.constructor(t[0],t[1],t[2],t[3],t[4],t[5])}static create(t){return t?Array.isArray(t)?new this(...t):t instanceof this?t.clone():(new this).recomposeSelf(t.origin,t.rotate,t.skew,t.scale,t.translate):new this}toString(t=" ",e=!1){if(null===this.s){let r=this.m.map((t=>n(t)));e||1!==r[0]||0!==r[1]||0!==r[2]||1!==r[3]?this.s="matrix("+r.join(t)+")":this.s="translate("+r[4]+t+r[5]+")"}return this.s}};var Ut={f:function(t){return t?t.join(" "):""},i:function(t,e,n){if(0===t)return e;if(1===t)return n;let r=e.length;if(r!==n.length)return U(t,e,n);let i,s=new Array(r);for(let o=0;o<r;o++){if(i=typeof e[o],i!==typeof n[o])return U(t,e,n);if("number"===i)s[o]=H(t,e[o],n[o]);else{if(e[o]!==n[o])return U(t,e,n);s[o]=e[o]}}return s}},Ht={f:null,i:et,u:(t,e)=>n=>{const r=e(n);t.setAttribute("x1",At(r[0])),t.setAttribute("y1",At(r[1])),t.setAttribute("x2",At(r[2])),t.setAttribute("y2",At(r[3]))}},Jt={f:At,i:H},Qt={f:At,i:Q},Xt={f:function(t,e=" "){return t&&t.length>0&&(t=t.map((t=>n(t,4)))),_t(t,e)},i:function(t,e,r){let i=e.length,s=r.length;if(i!==s)if(0===i)i=s,e=nt(i,0);else if(0===s)s=i,r=nt(i,0);else{const t=function(t,e){const n=t*e/function(t,e){let n;for(;e;)n=e,e=t%e,t=n;return t||1}(t,e);return n<0?-n:n}(i,s);e=rt(e,Math.floor(t/i)),r=rt(r,Math.floor(t/s)),i=s=t}let o=[];for(let s=0;s<i;s++)o.push(n(J(t,e[s],r[s])));return o}};function Zt(t,e,r){return t.map((t=>function(t,e,r){let i=t.v;if(!i||"g"!==i.t||i.s||!i.v||!i.r)return t;const s=r.getElementById(i.r),o=s&&s.querySelectorAll("stop")||[];return i.s=i.v.map(((t,e)=>{let r=o[e]&&o[e].getAttribute("offset");return r=n(parseInt(r)/100),{c:t,o:r}})),delete i.v,t}(t,0,r)))}const Kt={gt:"gradientTransform",c:{x:"cx",y:"cy"},rd:"r",f:{x:"x1",y:"y1"},to:{x:"x2",y:"y2"}};function te(t,e,n,r,i,s,o,u){return Zt(t,0,u),e=function(t,e,n){let r,i,s;const o=t.length-1,u={};for(let l=0;l<=o;l++)r=t[l],r.e&&(r.e=e(r.e)),r.v&&(i=r.v,"g"===i.t&&i.r&&(s=n.getElementById(i.r),s&&(u[i.r]={e:s,s:s.querySelectorAll("stop")})));return u}(t,r,u),r=>{const i=n(r,t,ee);if(!i)return"none";if("c"===i.t)return St(i.v);if("g"===i.t){if(!e[i.r])return Et(i.r);const t=e[i.r];return function(t,e){let n=t.s;for(let r=n.length;r<e.length;r++){const e=n[n.length-1].cloneNode();e.id=ie(e.id),t.e.appendChild(e),n=t.s=t.e.querySelectorAll("stop")}for(let t=0,r=n.length,i=e.length-1;t<r;t++)n[t].setAttribute("stop-color",St(e[Math.min(t,i)].c)),n[t].setAttribute("offset",e[Math.min(t,i)].o)}(t,i.s),Object.keys(Kt).forEach((e=>{if(void 0===i[e])return;if("object"==typeof Kt[e])return void Object.keys(Kt[e]).forEach((n=>{if(void 0===i[e][n])return;const r=i[e][n],s=Kt[e][n];t.e.setAttribute(s,r)}));const n="gt"===e?(r=i[e],Array.isArray(r)?"matrix("+r.join(" ")+")":""):i[e];var r;const s=Kt[e];t.e.setAttribute(s,n)})),Et(i.r)}return"none"}}function ee(t,e,n){if(0===t)return e;if(1===t)return n;if(e&&n){const r=e.t;if(r===n.t)switch(e.t){case"c":return{t:r,v:tt(t,e.v,n.v)};case"g":if(e.r===n.r){const i={t:r,s:ne(t,e.s,n.s),r:e.r};return e.gt&&n.gt&&(i.gt=et(t,e.gt,n.gt)),e.c?(i.c=X(t,e.c,n.c),i.rd=J(t,e.rd,n.rd)):e.f&&(i.f=X(t,e.f,n.f),i.to=X(t,e.to,n.to)),i}}if("c"===e.t&&"g"===n.t||"c"===n.t&&"g"===e.t){const r="c"===e.t?e:n,i="g"===e.t?{...e}:{...n},s=i.s.map((t=>({c:r.v,o:t.o})));return i.s="c"===e.t?ne(t,s,i.s):ne(t,i.s,s),i}}return U(t,e,n)}function ne(t,e,n){if(e.length===n.length)return e.map(((e,r)=>re(t,e,n[r])));const r=Math.max(e.length,n.length),i=[];for(let s=0;s<r;s++){const r=re(t,e[Math.min(s,e.length-1)],n[Math.min(s,n.length-1)]);i.push(r)}return i}function re(t,e,n){return{o:Q(t,e.o,n.o||0),c:tt(t,e.c,n.c||{})}}function ie(t){return t.replace(/-fill-([0-9]+)$/,((t,e)=>"-fill-"+(+e+1)))}function se(t,e,n){return 0===t?e:1===t?n:{blur:Z(t,e.blur,n.blur),offset:X(t,e.offset,n.offset),color:tt(t,e.color,n.color)}}const oe={blur:Z,brightness:J,contrast:J,"drop-shadow":se,"inner-shadow":se,grayscale:J,"hue-rotate":H,invert:J,opacity:J,saturate:J,sepia:J};function ue(t,e,n){if(0===t)return e;if(1===t)return n;const r=e.length;if(r!==n.length)return U(t,e,n);const i=[];let s;for(let o=0;o<r;o++){if(e[o].type!==n[o].type)return e;if(s=oe[e[o].type],!s)return U(t,e,n);i.push({type:e.type,value:s(t,e[o].value,n[o].value)})}return i}const le={blur:t=>t?e=>{t.setAttribute("stdDeviation",kt(e))}:null,brightness:(t,e,n)=>(t=ce(n,e))?e=>{e=At(e),t.map((t=>t.setAttribute("slope",e)))}:null,contrast:(t,e,n)=>(t=ce(n,e))?e=>{const n=At((1-e)/2);e=At(e),t.map((t=>{t.setAttribute("slope",e),t.setAttribute("intercept",n)}))}:null,"drop-shadow"(t,e,n){const r=n.getElementById(e+"-blur");if(!r)return null;const i=n.getElementById(e+"-offset");if(!i)return null;const s=n.getElementById(e+"-flood");return s?t=>{r.setAttribute("stdDeviation",kt(t.blur)),i.setAttribute("dx",At(t.offset.x)),i.setAttribute("dy",At(t.offset.y)),s.setAttribute("flood-color",St(t.color))}:null},"inner-shadow"(t,e,n){const r=n.getElementById(e+"-blur");if(!r)return null;const i=n.getElementById(e+"-offset");if(!i)return null;const s=n.getElementById(e+"-color-matrix");return s?t=>{r.setAttribute("stdDeviation",kt(t.blur)),i.setAttribute("dx",At(t.offset.x)),i.setAttribute("dy",At(t.offset.y));const e=[0,0,0,0,t.color.r/255,0,0,0,0,t.color.g/255,0,0,0,0,t.color.b/255,0,0,0,t.color.a,0];s.setAttribute("values",_t(e))}:null},grayscale:t=>t?e=>{t.setAttribute("values",_t(function(t){return[.2126+.7874*(t=1-t),.7152-.7152*t,.0722-.0722*t,0,0,.2126-.2126*t,.7152+.2848*t,.0722-.0722*t,0,0,.2126-.2126*t,.7152-.7152*t,.0722+.9278*t,0,0,0,0,0,1,0]}(e)))}:null,"hue-rotate":t=>t?e=>t.setAttribute("values",At(e)):null,invert:(t,e,n)=>(t=ce(n,e))?e=>{e=At(e)+" "+At(1-e),t.map((t=>t.setAttribute("tableValues",e)))}:null,opacity:(t,e,n)=>(t=n.getElementById(e+"-A"))?e=>t.setAttribute("tableValues","0 "+At(e)):null,saturate:t=>t?e=>t.setAttribute("values",At(e)):null,sepia:t=>t?e=>t.setAttribute("values",_t(function(t){return[.393+.607*(t=1-t),.769-.769*t,.189-.189*t,0,0,.349-.349*t,.686+.314*t,.168-.168*t,0,0,.272-.272*t,.534-.534*t,.131+.869*t,0,0,0,0,0,1,0]}(e))):null};const ae=["R","G","B"];function ce(t,e){const n=ae.map((n=>t.getElementById(e+"-"+n)||null));return-1!==n.indexOf(null)?null:n}var fe={fill:te,"fill-opacity":Qt,stroke:te,"stroke-opacity":Qt,"stroke-width":Jt,"stroke-dashoffset":{f:At,i:H},"stroke-dasharray":Xt,opacity:Qt,transform:function(t,e,n,r){if(!(t=function(t,e){if(!t||"object"!=typeof t)return null;let n=!1;for(const r in t)t.hasOwnProperty(r)&&(t[r]&&t[r].length?(t[r].forEach((t=>{t.e&&(t.e=e(t.e))})),n=!0):delete t[r]);return n?t:null}(t,r)))return null;const i=(r,i,s,o=null)=>t[r]?n(i,t[r],s):e&&e[r]?e[r]:o;return e&&e.a&&t.o?e=>{const r=n(e,t.o,qt);return Yt.recomposeSelf(r,i("r",e,H,0)+r.a,i("k",e,X),i("s",e,X),i("t",e,X)).toString()}:t=>Yt.recomposeSelf(i("o",t,Lt,null),i("r",t,H,0),i("k",t,X),i("s",t,X),i("t",t,X)).toString()},"#filter":function(t,e,n,r,i,s,o,u){if(!e.items||!t||!t.length)return null;const l=function(t,e){const n=(t=t.map((t=>t&&le[t[0]]?(e.getElementById(t[1]),le[t[0]](e.getElementById(t[1]),t[1],e)):null))).length;return e=>{for(let r=0;r<n;r++)t[r]&&t[r](e[r].value)}}(e.items,u);return l?(t=function(t,e){return t.map((t=>(t.e=e(t.e),t)))}(t,r),e=>{l(n(e,t,ue))}):null},"#line":Ht,points:{f:_t,i:et},d:Ut,r:Jt,"#size":It,"#radius":Ot,_(t,e){if(Array.isArray(t))for(let n=0;n<t.length;n++)this[t[n]]=e;else this[t]=e}};const he={currentTime:"offset",duration:"duration",hasEnded:function(){return this.reachedToEnd()},isAlternate:"alternate",isPlaying:"_running",isRollingBack:"_rollingBack",state:function(t,e){return e.isPlaying?e.isRollingBack?"rollback":"playing":e.hasEnded?"ended":"paused"},totalTime:"maxFiniteDuration",iterations:"iterations",direction:"direction",fill:"fill",isReversed:function(t,e){return-1===e.direction},isBackwards:function(t,e){return-1===e.fill},isInfinite:function(t,e){return 0===e.iterations},speed:"speed",fps:"fps"},de={destruct:"destruct",pause:"pause",play:function(t,e){return ge(t,e.hasEnded?"restart":"play",e)},restart:"restart",reverse:function(t,e){return ge(t,"reverse",e,[!0])},seek:"seek",seekBy:"seekBy",seekTo:"seekTo",stop:"stop",toggle:"toggle",togglePlay:"toggle",set:"set"};function ge(t,e,n,r=[]){return function(){const i=[...arguments];return i.unshift(...r),t[e].call(t,...i),n}}class pe{constructor(t){const e={},n=["on","off"],r={get:function(t,r,i){return he[r]?"function"==typeof he[r]?he[r].call(t,t,i):t[he[r]]:de[r]?"function"==typeof de[r]?de[r].call(t,t,i):ge(t,de[r],i):-1!==n.indexOf(r)?e[r]:"ready"===r?t=>(t&&t.call(i,i),i):void 0},set:function(t,r,i){return-1!==n.indexOf(r)&&(e[r]=i)},ownKeys:function(t){return Object.keys(he)},has:function(t,e){return void 0!==he[e]}};if("function"==typeof Proxy)return new Proxy(t,r);const i=Object.keys(he).concat(Object.keys(de)).concat(n),s={};return i.forEach((e=>{const i={enumerable:!1,configurable:!1,get:()=>r.get(t,e,s)};-1!==n.indexOf(e)&&(i.set=n=>r.set(t,e,n)),Object.defineProperty(s,e,i)})),s}}function ye(t){t||(t=this);let e={};this.on=function(t,n,r=!1){return"function"==typeof n&&(t.split(/[, ]+/g).forEach((t=>(e[t]=e[t]||[],r?e[t].unshift(n):e[t].push(n)))),!0)},this.off=function(t,n){for(let r in e)if(e.hasOwnProperty(r)&&r.substr(0,t.length)===t)if(n)for(let t=0;t<e[r].length;t++)e[r][t]===n&&(e[r][t]=null);else e[r]=null},this.trigger=function(){let n,[r,...i]=[...arguments];t:for(let s in e)if(e.hasOwnProperty(s)&&e[s]&&(s===r||s.substr(0,r.length+1)===r+"."))for(let r=0;r<(e[s]||[]).length;r++)if(e[s][r]&&(n=e[s][r].apply(t,i),!1===n))break t;return n}}let me=function(t,e,n=n){let r=!1,i=null;return function(s){r&&clearTimeout(r),r=setTimeout((()=>function(){let s=0,o=n.innerHeight,u=0,l=n.innerWidth,a=t.parentNode;for(;a instanceof Element;){let t=n.getComputedStyle(a);if("visible"!==t.overflowY||"visible"!==t.overflowX){let e=a.getBoundingClientRect();"visible"!==t.overflowY&&(s=Math.max(s,e.top),o=Math.min(o,e.bottom)),"visible"!==t.overflowX&&(u=Math.max(u,e.left),l=Math.min(l,e.right))}if(a===a.parentNode)break;a=a.parentNode}r=!1;let c=t.getBoundingClientRect(),f=Math.min(c.height,Math.max(0,s-c.top)),h=Math.min(c.height,Math.max(0,c.bottom-o)),d=Math.min(c.width,Math.max(0,u-c.left)),g=Math.min(c.width,Math.max(0,c.right-l)),p=(c.height-f-h)/c.height,y=(c.width-d-g)/c.width,m=Math.round(p*y*100);null!==i&&i===m||(i=m,e(m))}()),100)}};class ve{constructor(t,e,n){const r=function(t){var e,n;const r=t&&1===(null===(e=t.ownerDocument)||void 0===e||null===(n=e.childNodes)||void 0===n?void 0:n.length)&&window.parent!==window,i={el:t,window:window};if(!r)return i;let s;try{s=window.parent.document}catch(t){return i}return i.window=window.parent,i.el=Array.from(s.querySelectorAll("iframe,object")).filter((t=>t.contentWindow===window))[0]||i.el,i}(t);e=Math.max(1,e||1),e=Math.min(e,100),this.el=r.el,this._handlers=[],this.onThresholdChange=n&&n.call?n:()=>{},this.thresholdPercent=e||1,this.currentVisibility=null,this.visibilityCalculator=me(this.el,this.onVisibilityUpdate.bind(this),r.window),this.bindScrollWatchers(),this.visibilityCalculator()}bindScrollWatchers(){let t=this.el.parentNode;for(;t&&(this._handlers.push({element:t,event:"scroll",handler:this.visibilityCalculator}),t.addEventListener("scroll",this.visibilityCalculator),t!==t.parentNode&&t!==document);)t=t.parentNode}onVisibilityUpdate(t){let e=this.currentVisibility>=this.thresholdPercent,n=t>=this.thresholdPercent;if(null===this.currentVisibility||e!==n)return this.currentVisibility=t,void this.onThresholdChange(n);this.currentVisibility=t}destruct(){this._handlers.forEach((t=>{t.element.removeEventListener(t.event,t.handler)}))}}class be{static adjustLink(t){var e,n;const r=t&&1===(null===(e=t.ownerDocument)||void 0===e||null===(n=e.childNodes)||void 0===n?void 0:n.length)&&window.parent!==window,i=null==t?void 0:t.firstElementChild;r&&i&&"a"===i.tagName&&!i.getAttribute("target")&&i.setAttributeNS(null,"target","_parent")}static autoPlay(t,e,n,r=[]){if("click"===n.start){const i=()=>{switch(n.click){case"freeze":return!t._running&&t.reachedToEnd()?t.restart():t.toggle();case"restart":return t.offset>0?t.restart():t.play();case"reverse":return t._running?t.reverse():t.reachedToEnd()?1===t.fill?t.reverse(!0):t.restart():t.play();case"none":default:if(t._running)return;return t.reachedToEnd()?t.restart():t.play()}};return r.push({element:e,event:"click",handler:i}),void e.addEventListener("click",i)}if("hover"===n.start){const i=()=>t.reachedToEnd()?t.restart():t._rollingBack?t.reverse():t.play();r.push({element:e,event:"mouseenter",handler:i}),e.addEventListener("mouseenter",i);const s=()=>{switch(n.hover){case"freeze":return t.pause();case"reset":return t.stop();case"reverse":if(t.reverse(),t._running)return;return t.play();case"none":default:return}};return r.push({element:e,event:"mouseleave",handler:s}),void e.addEventListener("mouseleave",s)}if("scroll"!==n.start)"programmatic"!==n.start&&t.play();else{const i=new ve(e,n.scroll||25,(function(e){e?t.reachedToEnd()?t.restart():t.play():t.pause()}));r.push({callback:()=>i.destruct()})}}}const we=!0,xe=["iterations","speed","fps","direction","fill","alternate"];class Ae extends class{_svg;_rootId;constructor(t){this._id=0,this._running=!1,this._rollingBack=!1,this._animations=t.animations,this._settings=t.animationSettings,t.version<"2022-05-02"&&delete this._settings.speed,xt.forEach((t=>{this._settings[t.key]=this._settings[t.key]||t.def})),this.duration=t.animationSettings.duration,this.offset=t.animationSettings.offset||0,this.rollbackStartOffset=0,this._rootId=t.root,this._svg=t.svg,this._originalAnimations=t.originalAnimations,this._fTC=new N(this)}get svg(){return this._svg}get rootId(){return this._rootId}get alternate(){return this._settings.alternate}get fill(){return this._settings.fill}get iterations(){return this._settings.iterations}get direction(){return this._settings.direction}get speed(){return this._settings.speed}get fps(){return this._settings.fps}get wD(){return this._settings.w}get originalAnimations(){return this._originalAnimations}get maxFiniteDuration(){return this.iterations>0?this.iterations*this.duration:this.duration}static build(t,e){if(delete t.animationSettings,t.options=wt(t.options,t.root,"7c8cb2ed"),t.animations.map((e=>{e.settings=wt(e.s,t.root,"7c8cb2ed"),delete e.s,t.animationSettings||(t.animationSettings=e.settings)})),Object.assign(t,{originalAnimations:t.animations},function(t,e){if(ut=e,!t||!t.root||!Array.isArray(t.animations))return null;const n=mt(t);if(!n)return null;const r=t.animations.map((t=>yt(n,t))).filter((t=>!!t));return r.length?{svg:n,animations:r}:null}(t,e)),!t)return null;const n=t.options||{},r=new this(t);return{el:t.svg,options:n,player:r}}static push(t){return this.build(t)}static init(){const t=window.__SVGATOR_PLAYER__&&window.__SVGATOR_PLAYER__["7c8cb2ed"];Array.isArray(t)&&t.splice(0).forEach((t=>this.build(t)))}_apply(t,e={}){const n=this._animations,r=n.length;let i=0;for(let s=0;s<r;s++)e[s]?i++:(e[s]=n[s](t,1),e[s]&&i++);return i}_rollback(t){let e=1/0,n=null;this.rollbackStartOffset=t,this._rollingBack=!0,this._running=!0;const r=i=>{if(!this._rollingBack)return;null==n&&(n=i);let s=Math.round(t-(i-n)*this.speed);if(s>this.duration&&e!==1/0){const t=!!this.alternate&&s/this.duration%2>1;let e=s%this.duration;e+=t?this.duration:0,s=e||this.duration}const o=(this.fps?1e3/this.fps:0)*this.speed,u=Math.max(0,s);u<=e-o&&(this.offset=u,e=u,this._apply(u));const l=this.iterations>0&&-1===this.fill&&s>=this.maxFiniteDuration;(s<=0||this.offset<s||l)&&this.stop(),this._id=window.requestAnimationFrame(r)};this._id=window.requestAnimationFrame(r)}_start(t=0){let e,n=-1/0;const r={};this._running=!0;const i=s=>{e??=s;const o=Math.round((s-e)*this.speed+t),u=(this.fps?1e3/this.fps:0)*this.speed;o>=n+u&&!this._rollingBack&&this._fTC.cF(s,(()=>{this.offset=o,n=o;if(this._apply(o,r)===this._animations.length)return this.pause(!0),!0}))||(this._id=window.requestAnimationFrame(i))};this._id=window.requestAnimationFrame(i)}_pause(){this._id&&window.cancelAnimationFrame(this._id),this._running=!1}play(){if(!this._running)return this._rollingBack?this._rollback(this.offset):this._start(this.offset)}stop(){this._pause(),this.offset=0,this.rollbackStartOffset=0,this._rollingBack=!1,this._apply(0)}reachedToEnd(){return this.iterations>0&&this.offset>=this.iterations*this.duration}restart(t=!1){this.stop(t),this.play(t)}pause(){this._pause()}toggle(){return this._running?this.pause():this.reachedToEnd()?this.restart():this.play()}trigger(t,e){}_adjustOffset(t=!1){const e=this.alternate?2*this.duration:this.duration;if(t){if(!this._rollingBack&&0===this.offset)return void(this.offset=e);this._rollingBack&&(this.offset,this.maxFiniteDuration)}!this._rollingBack||this.rollbackStartOffset<=this.duration?0!==this.iterations&&(this.offset=Math.min(this.offset,this.maxFiniteDuration)):(this.offset=this.rollbackStartOffset-(this.rollbackStartOffset-this.offset)%e,this.rollbackStartOffset=0)}reverse(t=!1){if(!this._running)return this._adjustOffset(t),this._rollingBack=!this._rollingBack,t&&this.play(!1),void this.trigger("reverse",this.offset);this.pause(!1,!1),this._adjustOffset(),this._rollingBack=!this._rollingBack,this.play(!1),this.trigger("reverse",this.offset)}}{constructor(t){super(t),this._handlers=[]}static build(t){let e=super.build(t,fe);if(!e)return null;let{el:n,options:r,player:i}=e;const s=new pe(i),o=new ye(s);s.on=o.on,s.off=o.off,i.trigger=o.trigger;const u=n.svgatorPlayer&&n.svgatorPlayer.ready&&n.svgatorPlayer.ready.call&&n.svgatorPlayer.ready.call();n.svgatorPlayer=s,be.adjustLink(n),be.autoPlay(i,n,r,i._handlers),function(t,e,n){let r;"function"==typeof Event?r=new Event("ready"):(r=document.createEvent("Event"),r.initEvent("ready",!0,!0));if(t.dispatchEvent(r),!n||!n.length)return;n.forEach((t=>e.ready(t)))}(n,n.svgatorPlayer,u)}play(t=true){const e=super.play();return t===we&&this.trigger("play",this.offset),e}pause(t=!1,e=true){const n=super.pause();return e===we&&this.trigger(t?"end":"pause",this.offset),n}restart(){const t=super.restart(!1);return this.trigger("restart",this.offset),t}stop(t=true){const e=super.stop();return t===we&&this.trigger("stop",this.offset),e}_apply(t,e={},n=true){const r=super._apply(t);if(n===we){const e=()=>this.trigger("keyframe",t);window.requestAnimationFrame(e)}return r}seekTo(t){const e=this._running;var n,r,i;e&&this.pause(!1,!1),this.offset=this.iterations>0?(n=t,r=0,i=this.maxFiniteDuration,n<r?r:n>i?i:n):Math.max(t,0),this._apply(this.offset),e&&this.play(!1)}seek(t){return this.seekTo(Math.round(t/100*this.maxFiniteDuration))}seekBy(t){return this.seekTo(this.offset+t)}set(t,e){if(!xe.includes(t))return;const n=this._running;n&&this.pause(!1,!1),this._settings[t]=e,n?this.play(!1):this._apply(this.offset,{},!1)}destruct(){this.stop(),this._handlers.forEach((t=>{t.element?t.element.removeEventListener(t.event,t.handler):t.callback&&t.callback.call&&t.callback.call()}));const t=()=>{},e=Object.getOwnPropertyNames(Object.getPrototypeOf(this));e.push(...Object.getOwnPropertyNames(this)),e.forEach((e=>{"function"==typeof this[e]?this[e]=t:delete this[e]}))}}return Ae.init(),Ae}));
(function(s,i,o,w,d,a,b){w[o]=w[o]||{};w[o][s]=w[o][s]||[];w[o][s].push(i);})('7c8cb2ed',{"root":"e3DA7piBWsS1","version":"2025-04-07","animations":[{"elements":{"e3DA7piBWsS2":{"transform":{"data":{"s":{"x":1.780275,"y":1.780275},"t":{"x":-16.00012,"y":-16}},"keys":{"o":[{"t":0,"v":{"x":765.161853,"y":415.350694,"type":"cusp"}},{"t":2300,"v":{"x":820.360797,"y":307.055022,"type":"cusp","start":{"x":670.555919,"y":350.783701},"end":{"x":970.165675,"y":263.326343}}},{"t":5000,"v":{"x":905.422348,"y":431.349813,"type":"cusp"}}]}},"opacity":[{"t":0,"v":0},{"t":200,"v":0.51},{"t":400,"v":1},{"t":4600,"v":1},{"t":4800,"v":0.5},{"t":5000,"v":0}]},"e3DA7piBWsS5":{"stroke-dashoffset":[{"t":0,"v":0},{"t":5000,"v":-395}]}},"s":"MDA1UZGVhOTFkM2U0ZTFkMGUzZDhkBZWRkOTFTYTlhNDlmOWY5ZjliMOTFkM2Q4ZTFkNGQyZTNEZDhkYZWRkOTFhOWEwOWI5MUpkOGUzYZDRlMU1kMGUzZDhkZWRkZTI5LMUphOTlmOWI5MWQ1ZDhkYmRiPOTFhOWEwOWI5MWQwZGJlM2Q0VZTFkZGQwZTNkNDkxYTlkNWQwRZGJlMmQ0OWI5MWUyTWRmZDRkVNGQzOTFhOWEwOWI5MWQ1ZGZlGMjkxYTlhMFI5ZjlmZWM/"}],"options":"MDAxHMDhmMzY4Nzg4NzU4Njg4MzZBRNGUzNjgwODM3NTc4MzY5MQ|"},'__SVGATOR_PLAYER__',window,document)
]]></script>
</svg>
