<svg id="eXozs0TEeNf1" xmlns="http://www.w3.org/2000/svg" xmlns:xlink="http://www.w3.org/1999/xlink" viewBox="0 0 1920 1080" shape-rendering="geometricPrecision" text-rendering="geometricPrecision" project-id="742e29126053450fae4cc2359432f0c0" export-id="e679d0b16fa940038ecb17dc33f1b798" cached="false"><defs><linearGradient id="eXozs0TEeNf3-stroke" x1="0" y1="0.5" x2="0.110168" y2="1.066994" spreadMethod="pad" gradientUnits="objectBoundingBox" gradientTransform="translate(0 0)"><stop id="eXozs0TEeNf3-stroke-0" offset="0%" stop-color="#f4b740"/><stop id="eXozs0TEeNf3-stroke-1" offset="100%" stop-color="#0085fb"/></linearGradient><linearGradient id="eXozs0TEeNf7-stroke" x1="0.754153" y1="0.462546" x2="1.058101" y2="1.006813" spreadMethod="pad" gradientUnits="objectBoundingBox" gradientTransform="translate(0 0)"><stop id="eXozs0TEeNf7-stroke-0" offset="0%" stop-color="#f4b740"/><stop id="eXozs0TEeNf7-stroke-1" offset="100%" stop-color="#0085fb"/></linearGradient></defs><path d="M742.127574,521.017211q-32.451209-74.56743-23.838481-113.405872c8.612729-38.838442,48.313699-88.773001,99.01084-135.303007s126.448085-36.2736,146.12304-26.579849" transform="translate(221.524902-732.887239)" fill="none" stroke="#e3ca43" stroke-width="5" stroke-linecap="round" stroke-dasharray="14"/><path id="eXozs0TEeNf3" d="M742.127574,521.017211q-32.451209-74.56743-23.838481-113.405872c8.612729-38.838442,39.727084-92.371167,99.01084-135.303007s112.465134-37.304332,142.669863-28.074147" transform="translate(.030204-9.33563)" fill="none" stroke="url(#eXozs0TEeNf3-stroke)" stroke-width="5" stroke-linecap="round" stroke-dasharray="0,60,1,20,5,20,20,20,20,20,20,20,20,20,20,20,20,20,5,20,1,60"/><path d="M963.422973,245.728483c19.674955,9.693751,54.215319,61.684308,9.295924,94.774859s-73.268545-23.449365-64.554069-59.596801s26.105963-106.477421,131.18666-106.477421" transform="translate(330.625862-684.477978)" fill="none" stroke="#e3ca43" stroke-width="5" stroke-linecap="round" stroke-dasharray="14"/><path id="eXozs0TEeNf5" d="M960.669417,245.868976c49.658602,12.349432,67.709008,60.373056,10.390338,95.93215s-71.609403-24.747149-62.894927-60.894585s25.239914-104.478467,131.18666-106.477421" transform="matrix(.998701 0.050956-.050956 0.998701 13.107163-59.763995)" fill="none" stroke="#f4b740" stroke-width="5" stroke-linecap="round" stroke-dasharray="0,50,1,20,5,20,20,20,20,20,20,20,20,20,20,20,20,20,5,20,1,70"/><path d="M1039.351488,174.42912c105.080697,0,129.11056,70.544163,116.006432,108.807103s-31.546532,78.850275,25.42396,107.912394s78.048741,61.829943,78.048741,76.952978" transform="translate(420.528793-666.036352)" fill="none" stroke="#e3ca43" stroke-width="5" stroke-linecap="round" stroke-dasharray="14"/><path id="eXozs0TEeNf7" d="M1032.917017,174.919439c84.787956-5.219048,135.545031,70.053844,122.440903,108.316784s-31.546532,78.850275,25.42396,107.912394s78.048741,61.829943,78.048741,76.952978" transform="matrix(.999962-.008702 0.008702 0.999962-10.632286 1.636548)" fill="none" stroke="url(#eXozs0TEeNf7-stroke)" stroke-width="5" stroke-linecap="round" stroke-dasharray="0,60,1,20,5,20,20,20,20,20,20,20,20,20,20,20,20,20,5,20,1,65"/><g id="eXozs0TEeNf8" transform="matrix(-1.586892-2.167628 2.167621-1.586887 736.914548 566.580882)" opacity="0"><rect width="30" height="30" rx="15" ry="15" transform="translate(1.00012 1)" fill="none" stroke="#f4b740" stroke-width="2"/><path d="M23.1025,11.6748c1.285,1.0139,1.5385,2.7649,1.0897,4.1754-.4637,1.4557-1.7276,2.75-3.6828,2.8317-.0676.0028-.1355-.0023-.2036-.0054.0496.0743.1005.149.1463.2263.2841.48.5149,1.0681.5017,1.719-.0207.9959-.2557,1.9337-.8161,2.7076-.5665.7817-1.4057,1.3152-2.4806,1.6034-.672.18-1.492.149-2.2655-.0165-.7831-.1678-1.6062-.4925-2.287-.9854-.1183-.0856-.2859-.1958-.488-.3318l-1.035,1.622c-.2515.3946-.7763.5104-1.1708.2589-.3941-.2514-.50947-.7748-.2585-1.1692l1.0503-1.6483c-.2526-.1649-.5184-.3383-.7909-.5161-.0985-.0642-.1962-.1314-.2959-.1965L9.05552,23.529c-.26093.3875-.7868.4911-1.17486.2308-.38791-.2609-.49187-.7882-.23131-1.1764l1.04931-1.5625c-.60514-.4013-1.16979-.7813-1.61258-1.0959-.38058-.271-.47059-.8003-.20009-1.1814.27084-.3807.80022-.4701,1.18141-.2001.42747.3037.97906.6734,1.57641,1.0696L16.6483,9.18177c-.6337-.42949-1.2458-.83594-1.785-1.18327-.3928-.25352-.5053-.77782-.2521-1.17092.2535-.39254.7775-.50651,1.1705-.25368.547.35236,1.1672.76604,1.8106,1.20211l1.0274-1.52917c.2607-.3882.7881-.49163,1.1765-.2313.3883.26083.492.78809.2313,1.17649L18.9907,8.73741c.3267.22623.6517.44957.9657.66968l1.019-1.59887c.2515-.39438.7763-.51036,1.1707-.2589.3941.25166.5103.7765.259,1.17081L21.3415,10.3892c.8462.6042,1.5003,1.08,1.761,1.2856Zm-.5247,3.6607c.2975-.9353.0595-1.8697-.5253-2.331-.2338-.1844-.8348-.6225-1.6229-1.1856l-.773,1.2126c-.2515.3943-.7764.51-1.1708.2589-.3941-.2514-.5094-.7748-.2585-1.1692l.8172-1.2844c-.3239-.2272-.6605-.4585-.9994-.6932L11.0598,20.5441c.0929.0607.1845.1227.2768.1828.2635.1719.5247.3422.7763.5063l.7875-1.2354c.2517-.3937.7765-.5102,1.1708-.2589.3941.2514.5097.7765.2589,1.1709l-.8032,1.2601c.2347.1575.432.287.5716.3881.4547.3292,1.0481.5743,1.6477.7027.6097.1306,1.1418.1241,1.4724.0355.7743-.2076,1.2513-.5518,1.5478-.9612.3023-.4177.4786-.9881.4944-1.7478.0045-.2266-.0766-.5004-.2663-.8211-.1887-.3187-.4558-.636-.747-.9338-.2917-.2984-.5773-.5472-.8139-.7617-.1065-.0967-.2301-.2093-.3215-.3113-.0402-.0449-.1203-.1382-.1825-.2594-.0301-.0586-.2692-.5346.0963-.9765.2089-.2521.4817-.307.6027-.3208.131-.0148.2448-.0016.3107.0092.1364.0225.2747.067.3807.1036.2157.0745.5084.194.7638.2938.2757.1076.5509.2101.8055.2826.2668.076.4485.1002.5498.0959c1.1331-.0475,1.8553-.7621,2.1387-1.6522Z" fill="#f4b740"/></g><g id="eXozs0TEeNf11" transform="matrix(2.525595 0.915537-.915534 2.525586 936.13732 184.753892)"><rect width="30" height="30" rx="15" ry="15" transform="translate(1.00012 1)" fill="none" stroke="#f4b740" stroke-width="2"/><path d="M23.1025,11.6748c1.285,1.0139,1.5385,2.7649,1.0897,4.1754-.4637,1.4557-1.7276,2.75-3.6828,2.8317-.0676.0028-.1355-.0023-.2036-.0054.0496.0743.1005.149.1463.2263.2841.48.5149,1.0681.5017,1.719-.0207.9959-.2557,1.9337-.8161,2.7076-.5665.7817-1.4057,1.3152-2.4806,1.6034-.672.18-1.492.149-2.2655-.0165-.7831-.1678-1.6062-.4925-2.287-.9854-.1183-.0856-.2859-.1958-.488-.3318l-1.035,1.622c-.2515.3946-.7763.5104-1.1708.2589-.3941-.2514-.50947-.7748-.2585-1.1692l1.0503-1.6483c-.2526-.1649-.5184-.3383-.7909-.5161-.0985-.0642-.1962-.1314-.2959-.1965L9.05552,23.529c-.26093.3875-.7868.4911-1.17486.2308-.38791-.2609-.49187-.7882-.23131-1.1764l1.04931-1.5625c-.60514-.4013-1.16979-.7813-1.61258-1.0959-.38058-.271-.47059-.8003-.20009-1.1814.27084-.3807.80022-.4701,1.18141-.2001.42747.3037.97906.6734,1.57641,1.0696L16.6483,9.18177c-.6337-.42949-1.2458-.83594-1.785-1.18327-.3928-.25352-.5053-.77782-.2521-1.17092.2535-.39254.7775-.50651,1.1705-.25368.547.35236,1.1672.76604,1.8106,1.20211l1.0274-1.52917c.2607-.3882.7881-.49163,1.1765-.2313.3883.26083.492.78809.2313,1.17649L18.9907,8.73741c.3267.22623.6517.44957.9657.66968l1.019-1.59887c.2515-.39438.7763-.51036,1.1707-.2589.3941.25166.5103.7765.259,1.17081L21.3415,10.3892c.8462.6042,1.5003,1.08,1.761,1.2856Zm-.5247,3.6607c.2975-.9353.0595-1.8697-.5253-2.331-.2338-.1844-.8348-.6225-1.6229-1.1856l-.773,1.2126c-.2515.3943-.7764.51-1.1708.2589-.3941-.2514-.5094-.7748-.2585-1.1692l.8172-1.2844c-.3239-.2272-.6605-.4585-.9994-.6932L11.0598,20.5441c.0929.0607.1845.1227.2768.1828.2635.1719.5247.3422.7763.5063l.7875-1.2354c.2517-.3937.7765-.5102,1.1708-.2589.3941.2514.5097.7765.2589,1.1709l-.8032,1.2601c.2347.1575.432.287.5716.3881.4547.3292,1.0481.5743,1.6477.7027.6097.1306,1.1418.1241,1.4724.0355.7743-.2076,1.2513-.5518,1.5478-.9612.3023-.4177.4786-.9881.4944-1.7478.0045-.2266-.0766-.5004-.2663-.8211-.1887-.3187-.4558-.636-.747-.9338-.2917-.2984-.5773-.5472-.8139-.7617-.1065-.0967-.2301-.2093-.3215-.3113-.0402-.0449-.1203-.1382-.1825-.2594-.0301-.0586-.2692-.5346.0963-.9765.2089-.2521.4817-.307.6027-.3208.131-.0148.2448-.0016.3107.0092.1364.0225.2747.067.3807.1036.2157.0745.5084.194.7638.2938.2757.1076.5509.2101.8055.2826.2668.076.4485.1002.5498.0959c1.1331-.0475,1.8553-.7621,2.1387-1.6522Z" fill="#f4b740"/></g><g id="eXozs0TEeNf14" transform="matrix(2.686417 0 0 2.686408 1001.810122 134.236127)"><rect width="30" height="30" rx="15" ry="15" transform="translate(1.00012 1)" fill="none" stroke="#f4b740" stroke-width="2"/><path d="M23.1025,11.6748c1.285,1.0139,1.5385,2.7649,1.0897,4.1754-.4637,1.4557-1.7276,2.75-3.6828,2.8317-.0676.0028-.1355-.0023-.2036-.0054.0496.0743.1005.149.1463.2263.2841.48.5149,1.0681.5017,1.719-.0207.9959-.2557,1.9337-.8161,2.7076-.5665.7817-1.4057,1.3152-2.4806,1.6034-.672.18-1.492.149-2.2655-.0165-.7831-.1678-1.6062-.4925-2.287-.9854-.1183-.0856-.2859-.1958-.488-.3318l-1.035,1.622c-.2515.3946-.7763.5104-1.1708.2589-.3941-.2514-.50947-.7748-.2585-1.1692l1.0503-1.6483c-.2526-.1649-.5184-.3383-.7909-.5161-.0985-.0642-.1962-.1314-.2959-.1965L9.05552,23.529c-.26093.3875-.7868.4911-1.17486.2308-.38791-.2609-.49187-.7882-.23131-1.1764l1.04931-1.5625c-.60514-.4013-1.16979-.7813-1.61258-1.0959-.38058-.271-.47059-.8003-.20009-1.1814.27084-.3807.80022-.4701,1.18141-.2001.42747.3037.97906.6734,1.57641,1.0696L16.6483,9.18177c-.6337-.42949-1.2458-.83594-1.785-1.18327-.3928-.25352-.5053-.77782-.2521-1.17092.2535-.39254.7775-.50651,1.1705-.25368.547.35236,1.1672.76604,1.8106,1.20211l1.0274-1.52917c.2607-.3882.7881-.49163,1.1765-.2313.3883.26083.492.78809.2313,1.17649L18.9907,8.73741c.3267.22623.6517.44957.9657.66968l1.019-1.59887c.2515-.39438.7763-.51036,1.1707-.2589.3941.25166.5103.7765.259,1.17081L21.3415,10.3892c.8462.6042,1.5003,1.08,1.761,1.2856Zm-.5247,3.6607c.2975-.9353.0595-1.8697-.5253-2.331-.2338-.1844-.8348-.6225-1.6229-1.1856l-.773,1.2126c-.2515.3943-.7764.51-1.1708.2589-.3941-.2514-.5094-.7748-.2585-1.1692l.8172-1.2844c-.3239-.2272-.6605-.4585-.9994-.6932L11.0598,20.5441c.0929.0607.1845.1227.2768.1828.2635.1719.5247.3422.7763.5063l.7875-1.2354c.2517-.3937.7765-.5102,1.1708-.2589.3941.2514.5097.7765.2589,1.1709l-.8032,1.2601c.2347.1575.432.287.5716.3881.4547.3292,1.0481.5743,1.6477.7027.6097.1306,1.1418.1241,1.4724.0355.7743-.2076,1.2513-.5518,1.5478-.9612.3023-.4177.4786-.9881.4944-1.7478.0045-.2266-.0766-.5004-.2663-.8211-.1887-.3187-.4558-.636-.747-.9338-.2917-.2984-.5773-.5472-.8139-.7617-.1065-.0967-.2301-.2093-.3215-.3113-.0402-.0449-.1203-.1382-.1825-.2594-.0301-.0586-.2692-.5346.0963-.9765.2089-.2521.4817-.307.6027-.3208.131-.0148.2448-.0016.3107.0092.1364.0225.2747.067.3807.1036.2157.0745.5084.194.7638.2938.2757.1076.5509.2101.8055.2826.2668.076.4485.1002.5498.0959c1.1331-.0475,1.8553-.7621,2.1387-1.6522Z" fill="#f4b740"/></g><path d="M127.007,85.7312c-.373-.4796-7.899-6.8183-8.792-8.7253-.893-1.9069.786-8.4207.429-12.0826-.356-3.6619-2.543-6.7832-3.178-8.1376-.166-.3527,1.487-2.5303,5.658-8.3283c5.213-7.2474,5.658-15.8938,5.658-19.6448s-1.589-9.9177-6.294-15.0673c-4.704-5.14959-9.409-3.81454-11.825-2.7973s-5.404,3.5602-4.832,6.9297c.573,3.3696,2.734,2.7973,4.46,2.543c1.725-.2543,2.534-2.7973,4.822-2.543c2.289.2543,3.497,2.734,4.133,6.2942s.572,7.4381-1.335,12.842-6.294,10.2356-7.62,10.6171c-1.327.3814-5.032.89-16.7931.8264-11.7614-.0635-22.7599,1.653-28.8631,3.306s-12.0157,1.2715-15.1309,1.0172-5.086-3.3695-6.6118-4.3867-3.1788-2.0344-5.4039-2.7973-5.3403-4.3229-6.4211-5.0225-2.6066-3.3059-3.2423-3.3694c-.5086-.0509-.2119,2.6915,0,4.069-.5086.5298-1.8946,1.8819-3.3695,3.0517-1.8437,1.4623-2.3523,3.1151-2.6702,4.4502-.3178,1.3351-5.0224,4.5137-4.7681,5.9759s2.3523,4.8316,4.0688,5.7853s2.2251-.3181,5.8489,1.2713s5.5311,6.6116,5.6582,7.756-1.7165,4.0051-2.1615,6.9296c-.4451,2.9244,1.0172,4.0052,0,8.1052-1.0172,4.1001-11.6343,17.9601-12.7151,18.6971s-3.433,0-5.0224.98-.0636,2.64.7629,3.751s5.9761.89,7.3111.445s18.2461-15.1309,20.9163-17.8647c2.6701-2.7337,5.7217-4.8761,7.8197-4.8761s3.3695,0,7.4383,2.3978s10.7,14.032,10.516,15.167c-.1841,1.135-3.2516,2.117-3.589,3.62s2.0552,2.73,3.4049,2.515c1.3498-.214,3.3193-.454,3.8522-2.985.5328-2.531.666-3.863.3996-6.5277-.2664-2.6642-2.1314-10.1907-2.5976-11.7893s-.9991-2.3978.4662-3.5301c1.4654-1.1322,17.3842-1.5985,21.4472,0c4.0629,1.5986,8.9252,10.4572,10.2573,13.9873c1.332,3.5298.5994,5.1288-.6661,5.7948s-6.3942,2.864-5.7947,4.596c.5995,1.731,3.1305,2.597,5.7947,1.798c2.6641-.799,3.9301-2.331,6.7941-6.394s4.263-7.9928,4.263-8.7921c0-.6394-2.668-9.626-1.199-9.8577c7.175-1.1323,13.72,8.126,14.387,9.8577.666,1.7318,1.864,7.9261.399,8.1261s-4.396,2.664-4.862,4.063.999,2.997,1.931,2.997c.933,0,4.263.533,5.396,0c1.132-.533,2.93-2.065,3.33-4.396s.666-8.4589.533-12.1888-1.932-7.8595-2.398-8.459Z" transform="matrix(1.866816 0 0 1.86682 1337.685358 625.311841)" fill="none" stroke="#f4b740" stroke-width="2.55118" stroke-linecap="round"/><path d="M187.783,17.7725c2.691-.7296,7.084-1.0203,11.803-.502c4.73.5195,9.94,1.8669,14.211,4.5361c4.335,2.7094,6.744,6.4566,8.063,9.6553c1.311,3.1758,1.575,5.8755,1.575,6.6319c0,.5093-.109,1.2087-.362,2.0449.049.1908.055.3956.008.6006-.688,2.9798-2.459,10.0293-4.018,14.207-.975,2.6148-2.332,5.5797-3.565,8.0547-1.216,2.442-2.367,4.5184-2.934,5.3027-.573.7935-1.36,1.6052-2.271,2.2383-.902.6271-2.012,1.1382-3.212,1.1904-.871.0379-2.203.0374-3.381.0274.088.15.181.3022.281.456.342.5227.748,1.0615,1.228,1.6934.474.6231,1.011,1.3258,1.579,2.1328c2.218,3.1516,8.229,12.3791,10.667,17.1514c1.302,2.5475,1.798,5.2903,1.978,7.3876.177,2.066.051,3.691.049,3.698c0,.128-.021.257-.026.29-.01.069-.024.15-.041.239-.033.179-.081.415-.144.695-.124.562-.307,1.32-.549,2.19-.216.774-.481,1.645-.793,2.551c4.038-.059,10.128-.215,12.259-.519c3.069-.439,5.714-1.389,8.185-3.348c2.878-2.282,6.075-3.371,8.99-3.047c1.564.174,2.781,1.411,3.572,2.457.522.691.967,1.445,1.31,2.12.902-.318,1.985-.681,3.042-.995.773-.229,1.548-.438,2.236-.586.657-.141,1.345-.252,1.895-.224.493.024.952.077,1.331.195.341.105.964.372,1.21,1.074.23.658-.048,1.227-.169,1.448-.146.268-.35.532-.503.729-.195.251-.468.47-.688.633-.247.182-.544.377-.869.576-.65.399-1.47.853-2.348,1.306-1.753.906-3.815,1.855-5.359,2.434-1.327.498-2.697,1.349-3.753,2.165-.422.326-.776.634-1.046.896.029.014.059.03.091.045.624.279,1.468.481,2.257.445.914-.042,1.926-.268,3.039-.458.518-.088,1.069-.169,1.572-.182.463-.011,1.105.024,1.66.357.321.192.615.493.768.914.149.408.118.8.035,1.106-.153.567-.536,1.043-.881,1.388-.729.728-1.845,1.424-3.013,1.848-.958.349-2.296.891-3.67,1.289-1.383.4-2.958.705-4.496.541-2.562-.275-6.696-.36-9.85-.551-1.396-.085-3.722.108-6.045.408-2.306.298-4.473.685-5.514.945-1.625.407-8.905,2.559-13.075,3.804.211,2.24.486,6.03.828,9.939.42,4.813.944,9.823,1.585,12.727.622,2.82,1.508,4.116,2.832,4.935c1.472.909,3.64,1.347,7.242,1.932c3.2.52,6.807-.314,10.189-1.539c1.675-.606,3.256-1.295,4.665-1.927c1.383-.62,2.659-1.213,3.63-1.584c1.782-.678,4.745-2.269,8.044-3.879c3.174-1.549,6.681-3.125,9.245-3.512c1.522-.23,2.837.061,3.947.615c1.076-1.117,2.481-2.581,3.769-3.953.797-.849,1.53-1.642,2.114-2.288-1.989-1.813-5.263-4.849-6.715-6.408-1.114-1.196-1.666-2.321-1.55-3.475.103-1.024.777-1.841.971-2.135.124-.186.479-.637.936-1.206.482-.601,1.136-1.406,1.909-2.352c1.548-1.895,3.583-4.365,5.695-6.919c4.223-5.105,8.774-10.565,10.39-12.445c1.319-1.533,2.551-2.331,3.799-2.452c1.252-.121,2.174.492,2.64.79.303.195.842.635,1.45,1.154.64.545,1.439,1.249,2.305,2.027c1.733,1.556,3.756,3.43,5.341,4.977c1.624,1.585,2.401,2.875,2.449,4.125.024.634-.146,1.141-.311,1.516-.076.173-.165.346-.218.453-.061.125-.094.198-.114.255-.098.275-.286.566-.427.776-.167.249-.381.542-.622.86-.484.638-1.116,1.423-1.794,2.246-.823.999-1.728,2.068-2.544,3.019.011.012.023.023.033.035c1.606,1.825,1.547,4.185,1.231,7.398-.202,2.047-1.541,4.152-2.975,5.947-1.471,1.843-3.241,3.597-4.58,4.936-2.865,2.866-7.254,5.274-10.234,6.398-1.003.379-2.552,1.281-4.154,2.323-1.385.899-2.731,1.853-3.66,2.538-.069.459-.221.919-.458,1.397-.57,1.155-1.689,2.535-3.549,4.44-1.991,2.037-6.616,5.093-11.229,7.796-4.634,2.714-9.518,5.222-12.122,6.106-2.357.8-6.895,1.783-11.209,2.625c5.556,2.04,8.379,4.462,9.444,8.282.509,1.824.589,3.878.503,6.18-.085,2.293-.345,4.984-.571,8.042-.47,6.374-2.512,13.782-5.188,21.382-2.679,7.612-6.027,15.507-9.149,22.858-6.811,16.038-16.371,33.492-21.996,42.98.018.087.035.175.048.264.375,2.532,1.109,6.054,3.351,9.373c1.181,1.748,3.998,5.465,6.707,9.118c1.345,1.813,2.656,3.603,3.702,5.094c1.014,1.447,1.862,2.731,2.195,3.477.334.747.601,1.594.689,2.42.086.799.021,1.763-.531,2.559-.605.871-1.587,1.256-2.71,1.244-1.077-.011-2.384-.375-3.943-1.08-3.158-1.426-9.07-5.714-14.271-10.087-2.622-2.204-5.112-4.47-7.035-6.465-.96-.997-1.795-1.942-2.438-2.79-.621-.819-1.146-1.653-1.371-2.414-.506-1.715-.645-4.123-.442-6.481.199-2.307.744-4.75,1.739-6.593.201-.602.614-1.334,1.273-1.972.748-6.231,2.252-18.066,3.688-27.53-1.5.024-3.443.034-4.613-.031-.974-.054-3.21-.164-5.473-.357-1.131-.097-2.285-.215-3.301-.36-.992-.141-1.939-.319-2.612-.554-2.78-.974-4.606-3.454-5.526-7.94-.661-3.224-1.92-15.734-2.594-22.911-.087.039-.175.08-.265.121-1.761.795-3.992,1.774-6.548,2.737-5.102,1.922-11.559,3.803-18.256,4.028-6.584.221-13.204-.275-18.941-1.646-5.708-1.364-10.694-3.632-13.837-7.072-5.596-6.124-7.339-9.808-8.114-11.8-1.973-1.335-3.89-2.951-5.1238-4.61-2.5977-3.494-5.7003-10.543-6.6484-19.162-.9307-8.461-.8516-10.555-1.3535-17.834-.2654-3.848.5469-9.704,1.5586-14.951c1.0142-5.262,2.2729-10.13,2.9853-12.044.6871-1.847,2.9547-7.429,5.6807-13.498c1.3681-3.048,2.8651-6.245,4.3441-9.167-.129.152-.295.277-.493.358L73.2949,131.14c-.6521.266-1.3968-.048-1.6631-.7-.2657-.652.0466-1.396.6983-1.663l30.1469-12.302c.652-.266,1.396.046,1.663.698.106.261.119.536.055.79c1.367-2.675,2.711-5.093,3.919-6.914c2.674-4.033,6.446-9.287,10.251-14.0783c3.619-4.5563,7.347-8.7921,10.218-11.123-.012-1.3579.037-2.5603.137-3.5752.413-4.1906,2.408-8.7144,5.218-12.8155c2.818-4.1135,6.523-7.8999,10.482-10.6006c8.531-5.8199,13.453-7.0272,17.869-8.2919.076-1.4598.259-3.0749.581-4.919.498-2.852,1.79-5.8589,3.137-8.4609c1.353-2.6147,2.813-4.9158,3.684-6.3282c4.445-7.1997,12.903-11.6767,18.092-13.0839Zm5.585,266.3415c-2.336-.233-3.198,1.21-3.354,1.768l-.041.144-.075.132c-.789,1.414-1.298,3.51-1.486,5.685-.187,2.173-.038,4.235.347,5.539.088.297.375.827.957,1.596.56.739,1.321,1.604,2.242,2.56c1.841,1.91,4.259,4.114,6.84,6.283c5.204,4.375,10.877,8.45,13.679,9.715c1.419.641,2.351.848,2.919.854.272.002.421-.041.49-.072.059-.026.082-.052.098-.076.052-.075.146-.316.091-.833-.052-.491-.225-1.075-.482-1.65-.213-.477-.901-1.548-1.956-3.054-1.025-1.462-2.318-3.228-3.66-5.038-2.665-3.592-5.55-7.4-6.773-9.209-2.563-3.793-3.367-7.769-3.761-10.428-.126-.853-.698-1.727-1.769-2.465-1.068-.735-2.561-1.276-4.306-1.451ZM64.9121,132.609c.6613-.242,1.3934.099,1.6358.76.2421.662-.0973,1.395-.7588,1.637-10.2129,3.738-20.2155,8.912-28.3184,15.063-8.1192,6.164-14.2297,13.232-16.8359,20.725-.6857,1.971-1.0369,3.942-1.0674,5.927.0495.136.0781.282.0781.435c0,.534.0056,1.124.0166,1.762.6605,6.463,4.6364,13.136,11.4932,20.544c9.7394,10.522,24.9405,22.139,43.4707,36.227c35.647,27.102,78.261,42.668,105.741,47.381.694.119,1.161.779,1.042,1.473s-.778,1.161-1.472,1.042c-27.855-4.778-70.857-20.496-106.855-47.864-18.461-14.036-33.8734-25.804-43.7988-36.527-3.9291-4.244-7.0543-8.386-9.168-12.493.417,5.812,1.1373,12.243,2.2588,17.104c2.4829,10.759,11.3802,34.093,45.4746,61.369c14.7336,11.787,35.8544,22.361,58.0114,30.736c22.145,8.371,45.234,14.512,63.847,17.473.695.111,1.17.764,1.06,1.46-.111.695-.765,1.17-1.46,1.059-18.804-2.991-42.061-9.18-64.349-17.605-22.275-8.42-43.6733-19.107-58.7031-31.131-34.5161-27.613-43.7466-51.436-46.3662-62.787-1.8765-8.132-2.6445-20.346-2.7735-27.24-.3065-3.042.0349-6.095,1.1094-9.184c2.8364-8.154,9.3783-15.597,17.7041-21.918c8.3426-6.333,18.5799-11.62,28.9834-15.428Zm264.2149,79.87c.699.087,1.195.724,1.107,1.423-1.72,13.764-5.727,25.962-11.148,38.613-8.178,19.081-22.552,30.317-38.846,38.893-8.812,4.638-21.193,9.973-32.418,14.357-11.19,4.37-21.373,7.85-25.752,8.726-.69.138-1.362-.31-1.501-1.001-.138-.69.311-1.363,1.001-1.501c4.125-.825,14.104-4.219,25.325-8.6c11.186-4.369,23.466-9.665,32.157-14.239c16.02-8.431,29.831-19.305,37.689-37.64c5.365-12.518,9.281-24.476,10.962-37.924.088-.699.725-1.195,1.424-1.107Zm-74.403-44.431c.345-.614,1.123-.832,1.737-.486c4.529,2.547,11.664,6.497,18.344,10.063c6.718,3.587,12.869,6.728,15.494,7.712c6.722,2.521,17.648,5.883,31.941,6.724c3.666.215,6.204.699,7.916,1.392c1.725.699,2.812,1.702,3.146,3.042.312,1.252-.143,2.427-.53,3.217-.201.41-.427.8-.591,1.091-.189.333-.272.501-.301.589-.271.812-.971,2.041-1.925,3.509-.981,1.511-2.307,3.389-3.926,5.543-3.239,4.31-7.673,9.758-12.903,15.628-10.449,11.729-24.133,25.207-37.859,34.644-27.42,18.851-59.081,26.55-68.525,28.267-.693.126-1.357-.334-1.483-1.027s.333-1.357,1.026-1.483c9.265-1.685,40.532-9.293,67.536-27.859c13.487-9.272,27.015-22.581,37.401-34.238c5.187-5.823,9.575-11.218,12.767-15.465c1.597-2.124,2.887-3.953,3.826-5.399.967-1.488,1.49-2.465,1.644-2.928.121-.363.337-.747.5-1.035.187-.331.363-.635.522-.96.334-.681.427-1.147.345-1.477-.06-.241-.308-.76-1.627-1.295-1.332-.539-3.546-1-7.108-1.21-14.62-.86-25.804-4.3-32.688-6.881-2.818-1.057-9.139-4.295-15.799-7.851-6.7-3.577-13.852-7.536-18.393-10.091-.614-.345-.832-1.122-.487-1.736Zm-39.566,11.158c-.147,0-.293-.001-.438-.001-.513.007-1.031.012-1.553.023-6.652.131-13.794.556-18.056.881-2.242.171-4.243.331-6.046.481-.179.109-.388.176-.613.184-.182.007-.356-.025-.515-.088-10.647.905-14.103,1.469-20.938,2.235c0,.073.002.145.002.215c0,1.96.105,4.223.041,6.234-.065,2.049-.302,4.118-1.073,5.901-.439,1.016-1.297,2.043-2.315,3.009-1.038.987-2.335,1.997-3.765,2.966-2.858,1.938-6.338,3.777-9.556,4.994-6.167,2.334-12.775,5.162-19.785,6.872-3.605.879-7.922,1.135-11.794,1.05-3.865-.085-7.41-.512-9.48-1.056-.828-.217-1.791-.591-2.807-1.073c1.131,1.889,2.959,4.441,6.019,7.79c2.647,2.897,7.058,4.999,12.548,6.312c5.462,1.305,11.845,1.793,18.262,1.577c6.304-.212,12.465-1.991,17.442-3.865c2.483-.936,4.657-1.889,6.397-2.675c1.688-.763,3.082-1.422,3.865-1.693.6-.208,2.148-.967,4.355-2.116c2.163-1.125,4.852-2.568,7.666-4.085c5.608-3.021,11.736-6.346,15.046-7.946c5.409-2.614,13.782-4.51,17.265-5.134.693-.124,1.356.338,1.48,1.031.125.694-.337,1.357-1.031,1.481-1.745.312-4.689.943-7.83,1.81-3.174,10.719-9.744,33.76-11.461,42.947-1.608,8.603-3.773,25.238-4.866,34.184.594-.114,1.259-.15,1.998-.076c2.099.21,4.02.87,5.499,1.889.527.363,1.006.78,1.418,1.244c5.664-9.676,14.594-26.143,21.028-41.294c3.128-7.364,6.443-15.184,9.091-22.707c2.653-7.536,4.605-14.689,5.05-20.723.232-3.146.482-5.716.565-7.949.083-2.223-.009-3.961-.41-5.4-.749-2.689-2.673-4.678-7.937-6.599-.964-.352-2.914-.604-5.608-.736-1.314-.065-2.767-.099-4.305-.11-.932.007-1.924.013-2.855.016Zm-37.501,51.722c-1.116.011-2.382.498-3.512,1.206-1.02.638-1.755,1.344-2.08,1.789.548,5.198,1.116,10.079,1.48,11.851.828,4.035,2.279,5.489,3.869,6.045.42.147,1.154.297,2.128.436.95.135,2.051.249,3.159.344c2.216.189,4.405.297,5.398.352c1.198.067,3.352.048,4.869.02.351-2.223.693-4.255,1.014-5.973.186-.994.427-2.144.713-3.419-3.967-.846-7.386-3.335-8.81-4.556-1.064-.911-1.697-2.34-2.065-3.898-.212-.901-.347-1.9-.416-2.967-2.349-1.191-4.638-1.241-5.747-1.23Zm27.383-25.546c-2.1.665-4.152,1.42-5.862,2.247-2.391,1.155-6.307,3.243-10.46,5.478-.467,2.236-1.115,5.477-1.671,8.575-.613,3.415-1.092,6.537-1.133,7.996-.053,1.896.082,3.554.39,4.861.315,1.337.775,2.148,1.241,2.548c1.329,1.139,4.379,3.308,7.728,4.008c2.479-10.406,7.057-26.497,9.767-35.713Zm-20.809,10.142c-2.812,1.516-5.517,2.968-7.698,4.103-2.135,1.111-3.878,1.978-4.698,2.262-.232.08-.539.209-.924.378.217,2.331.507,5.342.821,8.444.334-.26.69-.51,1.059-.74c1.345-.842,3.078-1.577,4.842-1.594c1.059-.01,3.282.021,5.741.977.087-1.752.587-4.919,1.162-8.123.405-2.254.857-4.58,1.254-6.547-.521.281-1.042.562-1.559.84ZM128.718,89.126c-2.413,2.2705-5.368,5.6701-8.356,9.4316-3.758,4.7314-7.486,9.9274-10.122,13.9014-2.459,3.709-5.603,10.172-8.324,16.23-2.7115,6.038-4.9558,11.566-5.6172,13.343-.6359,1.709-1.8628,6.407-2.8711,11.638-1.0109,5.244-1.7587,10.808-1.5185,14.292.5093,7.385.4204,9.336,1.3437,17.73.9059,8.236,3.871,14.839,6.1612,17.919c1.0919,1.469,2.9759,3.044,5.0249,4.368c2.05,1.324,4.113,2.3,5.484,2.661c1.799.472,5.122.889,8.887.971c3.756.083,7.828-.171,11.133-.977c6.811-1.661,13.182-4.395,19.488-6.78c3.018-1.143,6.322-2.886,9.026-4.719c1.351-.916,2.53-1.84,3.44-2.704.932-.885,1.495-1.629,1.73-2.172.577-1.335.803-3.016.865-4.97.063-1.991-.043-3.985-.043-6.153c0-4.04-.253-15.455.004-19.136.136-1.954.927-5.706,2.154-9.907c1.235-4.227,2.946-9.025,4.972-13.076c3.001-6.002,7.625-9.815,10.206-11.368-.278-1.479-.493-2.762-.64-3.762-.103-.697.378-1.345,1.075-1.449.697-.102,1.345.38,1.448,1.077.735,4.983,3.131,16.94,6.797,25.033c4.675,10.321,7.155,14.625,10.767,18.238c1.836,1.835,4.272,3.822,6.379,5.364c1.052.77,2.004,1.417,2.742,1.871.369.227.669.397.891.507.11.055.179.082.213.096.405.023,1.717.032,3.359.029c1.073-.013,2.127-.021,3.148-.014.911-.007,1.766-.015,2.453-.022c4.811-.809,15.04-2.698,18.848-3.99c2.335-.793,7.024-3.181,11.652-5.892c4.649-2.723,8.978-5.622,10.693-7.378c1.845-1.888,2.711-3.023,3.088-3.787.177-.357.226-.594.236-.763.009-.171-.017-.353-.1-.618-.183-.586-.815-2.09-1.903-3.334-1.073-1.225-2.439-2.048-4.188-1.784-2.111.319-5.264,1.7-8.508,3.283-3.117,1.521-6.33,3.238-8.254,3.97-.88.336-2.042.878-3.494,1.529-1.424.638-3.074,1.357-4.84,1.997-3.498,1.267-7.61,2.285-11.467,1.658-3.455-.562-6.184-1.051-8.174-2.28-2.138-1.321-3.281-3.377-3.983-6.555-.682-3.095-1.217-8.275-1.634-13.055-.424-4.851-.727-9.28-.945-11.061-.429-3.516-3.124-15.293-5.062-21.194-1.846-5.622-3.326-9.9617-5.261-13.2673-2.013.1629-4.224.4314-6.474.8584-8.04,1.526-20.521,5.4029-25.232,7.7589-2.43,1.215-6.188,3.072-9.811,4.73-3.571,1.636-7.162,3.15-9.183,3.599-1.735.386-4.687,1.238-7.525.704-1.47-.277-2.933-.922-4.221-2.162-1.279-1.231-2.321-2.986-3.064-5.387-1.72-5.5638-2.582-10.8025-2.893-15.071Zm48.654,47.739c-1.256,1.479-2.487,3.245-3.511,5.293-1.935,3.87-3.595,8.512-4.804,12.65-1.216,4.162-1.942,7.699-2.059,9.37-.205,2.941-.071,11.057-.018,16.177c6.483-.731,10.031-1.289,20.092-2.155-.16-3.365-.501-8.161-1.071-12.991-.656-5.552-1.601-11.021-2.872-14.431-2.254-6.043-4.431-11.111-5.757-13.913Zm4.945-4.529c-.877.602-1.948,1.448-3.074,2.535c1.307,2.644,3.754,8.25,6.277,15.016c1.388,3.723,2.358,9.463,3.014,15.023.573,4.851.917,9.663,1.081,13.075c1.607-.132,3.365-.271,5.302-.419c3.004-.229,7.425-.506,12.107-.698-.297-.21-.606-.429-.92-.659-2.171-1.589-4.719-3.661-6.676-5.618-3.974-3.974-6.612-8.669-11.287-18.99-2.632-5.809-4.607-13.435-5.824-19.265Zm107.805-4.597c-.164.084-.387.223-.656.435-.761.597-1.549,1.474-1.945,2.033-.306.432-1.023,1.181-1.825,1.981-.839.836-1.874,1.829-2.903,2.793-1.03.965-2.06,1.908-2.89,2.647-.414.369-.783.691-1.08.94-.269.227-.548.454-.746.578-.125.078-.405.235-.781.244-.499.011-.939-.245-1.188-.639-.188-.299-.217-.597-.225-.731-.01-.163.003-.315.017-.434.055-.443.226-1.04.388-1.575.182-.601.368-1.169.543-1.766.174-.591.292-1.062.332-1.371.074-.572.1-1.139.078-1.607-.038.041-.078.085-.119.132-.52.602-1.127,1.519-1.715,2.695-1.233,2.467-2.742,5.33-3.958,6.951-.507.676-1.968,2.27-3.511,3.912-1.203,1.281-2.505,2.64-3.551,3.727.162.161.318.325.464.492.996,1.138,1.676,2.417,2.077,3.351.823-.586,1.793-1.257,2.785-1.901c1.598-1.039,3.355-2.083,4.643-2.569c2.749-1.038,6.792-3.277,9.331-5.816c1.363-1.363,3.025-3.014,4.391-4.724c1.403-1.758,2.306-3.356,2.429-4.605.297-3.025.193-4.307-.385-5.173Zm-6.25-21.669c-.288.028-.967.248-2.109,1.576-1.597,1.858-6.133,7.298-10.359,12.408-2.111,2.552-4.141,5.018-5.684,6.907-.772.945-1.421,1.743-1.896,2.335-.237.296-.43.538-.571.72-.071.09-.127.163-.169.218-.039.052-.056.076-.059.08-.428.646-.538.764-.56.981-.009.087-.025.511.879,1.481c1.353,1.453,4.474,4.353,6.465,6.169.995-1.482,2.217-3.793,3.316-5.992.655-1.31,1.373-2.42,2.068-3.224.346-.399.714-.755,1.092-1.02.353-.247.855-.515,1.441-.515l.147.006c.72.058,1.187.529,1.432.941.243.41.358.889.419,1.297.124.842.085,1.861-.032,2.762-.057.445-.189.972-.333,1.481.537-.491,1.113-1.021,1.689-1.561c1.018-.954,2.033-1.927,2.848-2.739.851-.849,1.39-1.432,1.543-1.649.524-.738,1.478-1.8,2.452-2.565.136-.107.281-.216.432-.319.032-.049.067-.096.107-.141c1.028-1.177,2.589-2.995,3.927-4.619.67-.813,1.277-1.568,1.731-2.166.227-.3.409-.549.537-.74.154-.229.164-.276.141-.211.073-.205.162-.389.229-.525.076-.153.124-.247.17-.352.08-.183.102-.289.098-.393-.009-.226-.166-.918-1.681-2.396-1.553-1.517-3.549-3.365-5.264-4.905-.857-.769-1.639-1.457-2.256-1.984-.65-.553-1.046-.866-1.171-.946-.496-.318-.735-.427-1.019-.4Zm-65.118,6.713c-.656.011-1.269.02-1.818.027-.125.283-.251.566-.384.843-.806,1.678-2.311,3.713-3.795,5.518-1.325,1.612-2.697,3.111-3.676,4.13.287,1.376.524,2.606.69,3.593c3.175-.947,7.913-2.349,10.748-3.156-.882-.851-1.829-2.071-2.28-3.906-.273-1.115-.295-2.964-.055-4.658.115-.812.298-1.644.57-2.391Zm28.328-6.918c-2.085-.231-4.63.534-7.123,2.511-2.9,2.3-5.997,3.387-9.41,3.875-1.675.239-5.432.387-8.909.474-.133.157-.294.422-.453.835-.212.547-.373,1.232-.478,1.972-.215,1.515-.16,3.007.008,3.692.498,2.032,1.68,2.764,2.827,3.733c1.256-.256,3.018-.546,4.82-.779c2.331-.302,4.867-.526,6.527-.425c2.958.179,7.343.279,9.967.56c1.055.113,2.259-.091,3.515-.455c1.265-.366,2.428-.843,3.507-1.235.378-.137.739-.314,1.062-.502-.917.16-2.169.426-3.254.476-1.248.056-2.487-.251-3.415-.666-.461-.207-.906-.468-1.252-.775-.173-.153-.361-.352-.504-.6-.143-.247-.289-.627-.224-1.081.058-.404.275-.728.386-.884.144-.204.325-.413.519-.615.391-.408.913-.87,1.511-1.332c1.189-.92,2.782-1.922,4.418-2.536c1.42-.532,3.387-1.435,5.083-2.311.647-.334,1.242-.661,1.746-.954-.577.128-1.246.308-1.943.515-1.478.439-3.023.98-3.99,1.342l-1.169.439-.463-1.16c-.277-.691-.813-1.757-1.491-2.653-.731-.966-1.381-1.412-1.818-1.461ZM199.308,19.8066c-4.509-.4952-8.563-.1941-10.857.4278-4.778,1.2958-12.586,5.4783-16.589,11.9629-.89,1.442-2.291,3.6494-3.59,6.1591-1.305,2.5226-2.457,5.2574-2.888,7.7276-.902,5.1635-.651,8.2945-.009,11.3447.273,1.2964,1.511,3.5192,3.396,5.8428c1.856,2.2865,4.169,4.4629,6.38,5.7305c4.838,2.7728,5.408,2.717,12.502,5.4941c3.549,1.3891,7.116,3.0834,10.092,4.7685c2.931,1.6596,5.43,3.3887,6.713,4.879c1.239,1.4392,1.937,2.8043,2.2,4.2832.227,1.2751.113,2.5445-.125,3.8671.052.1564.074.3256.061.5-.023.2842-.138.538-.312.7373-.326,1.5226-.841,3.7254-1.278,5.7403-.26,1.1965-.495,2.3435-.659,3.2985-.16.931-.233,1.574-.231,1.906.227.682.458,1.379.692,2.091c1.147,3.494,2.551,8.985,3.617,13.704.733-.805,1.558-1.741,2.363-2.72c1.468-1.786,2.803-3.619,3.466-5.001.873-1.818,1.55-3.881,2.012-5.54.229-.825.402-1.539.517-2.058.058-.26.099-.467.126-.611.014-.073.022-.124.027-.154c0-.004,0-.007.001-.009.039-.838.355-5.7014-1.751-9.8245-2.356-4.6112-8.286-13.7227-10.482-16.8437-.535-.7612-1.043-1.4239-1.524-2.0567-.474-.6239-.934-1.2322-1.332-1.8418-.54-.8255-.983-1.6757-1.262-2.6543-.048-.1117-.08-.2313-.094-.3564-.094-.4002-.162-.8225-.198-1.2735-.237-2.9686-.004-10.8973-.004-12.0654c0-.2396-.034-.5666-.081-1.04-.043-.436-.094-.9656-.094-1.4863c0-.5095.046-1.1144.254-1.6749.221-.5946.649-1.1928,1.403-1.5068c1.197-.4988,2.221-.1249,2.841.1328.36.1494.519.2291.715.291.097.0306.145.0346.16.0352.014-.0037.056-.0153.136-.042.097-.0325.224-.0783.38-.1387.311-.1205.715-.2892,1.189-.5.949-.4213,2.154-.9999,3.421-1.6787c2.584-1.3835,5.252-3.0892,6.645-4.6406c2.961-3.2997,3.627-6.1342,3.627-6.9189c0-.4263-.2-2.7954-1.382-5.6592-1.172-2.8409-3.283-6.105-7.058-8.4639-3.838-2.3988-8.638-3.67-13.136-4.1641Zm-37.039,33.418c-4.154,1.1788-8.685,2.4682-16.412,7.7393-3.674,2.5069-7.16,6.0592-9.815,9.9345-2.664,3.8875-4.427,8.0036-4.783,11.6241-.409,4.1512.053,12.0688,2.79,20.9205.648,2.097,1.5,3.441,2.395,4.303.887.853,1.88,1.297,2.924,1.493c2.193.413,4.507-.244,6.5-.687c1.707-.38,5.041-1.764,8.674-3.428c3.582-1.64,7.31-3.482,9.732-4.693c4.995-2.4975,17.724-6.4324,25.898-7.9837c5.618-1.0662,10.991-1.1931,13.931-1.0938.146-.9655.175-1.7492.044-2.4795-.165-.9283-.608-1.8864-1.623-3.0654-.971-1.1283-3.128-2.6769-6.037-4.3242-1.336-.7568-2.803-1.5163-4.336-2.25-.078-.0141-.155-.035-.232-.0645-.004-.0015-.02-.0068-.049-.0146-.039-.0106-.092-.0232-.162-.0381-.141-.0302-.326-.0642-.559-.1016-.468-.0753-1.069-.1575-1.813-.2627-1.474-.2085-3.432-.495-5.693-.9472-4.403-.8806-11.278-1.9674-19.273-4.7325-4.085-1.413-7.23-3.3618-9.303-5.54-2.063-2.1682-3.155-4.674-2.817-7.1143.157-1.131.882-2.0529,1.674-2.7597.812-.7253,1.851-1.3626,2.927-1.9063c1.772-.8955,3.793-1.6077,5.441-2.0683-.009-.1519-.017-.3051-.023-.46Zm41.325,40.665c-.99-.0234-2.235-.0192-3.654.0362.872,1.6544,1.657,3.4983,2.418,5.5263.051-.2388.1-.4801.153-.7216.373-1.7212.774-3.4524,1.083-4.8409ZM162.567,56.2588c-1.433.423-3.109,1.0342-4.566,1.7705-.972.4911-1.795,1.0117-2.378,1.5322-.604.539-.81.9517-.846,1.208-.196,1.4164.404,3.183,2.138,5.0049c1.724,1.8117,4.484,3.5716,8.289,4.8877c6.196,2.1428,11.674,3.2448,15.919,4.0586-2.505-.9713-3.999-1.6467-7.24-3.5049-2.575-1.4759-5.119-3.9032-7.093-6.3369-1.944-2.3967-3.508-5.0113-3.911-6.9248-.118-.5597-.222-1.1219-.312-1.6953Zm56.28-9.2139c-1.754,1.7972-4.579,3.5446-7.031,4.8574-1.324.7093-2.585,1.3159-3.588,1.7618-.502.2227-.946.4076-1.305.5468-.331.1282-.667.2476-.915.2998-.567.1194-1.072.0185-1.449-.1005-.34-.1072-.724-.2838-.927-.3682-.478-.1985-.664-.2128-.849-.1445-.005.0108-.014.0266-.023.0507-.054.1438-.095.3964-.095.7872c0,.379.037.7931.081,1.2353.04.4049.093.892.093,1.291c0,1.3896-.231,9.0234-.004,11.8623.002.0256.004.0509.007.0762c1.311.0182,3.096.0283,4.129-.0166.556-.0243,1.203-.2757,1.866-.7363.654-.4548,1.241-1.0561,1.66-1.6368.426-.5899,1.49-2.4838,2.717-4.9472c1.21-2.4306,2.526-5.3078,3.459-7.8086.717-1.9209,1.487-4.5088,2.174-7.0098Z" transform="matrix(1.876308 0 0 1.876309 232.807215 301.644817)" fill="#0085fb"/><path d="M220.676,17.1133c6.152-.4591,12.711.5246,17.193,3.9346c2.209,1.6806,5.172,4.9183,7.683,8.7353c2.506,3.8109,4.67,8.3646,5.103,12.6953.773,7.7236,1.79,21.607,1.959,25.2129c2.078,1.5862,4.097,3.2726,5.459,4.5098.931.8449,2.037,1.8637,3.241,3.084.013-.008.026-.0169.04-.0245c2.347-1.3267,7.831-4.32,10.706-5.5039c1.851-.7624,5.148-1.7063,8.777-2.3828c3.626-.676,7.709-1.1093,11.111-.7851c5.103.4863,14.492.3418,24.932,6.4248c13.244,7.7172,18.599,15.1635,22.813,20.4052c2.233,2.7779,4.627,7.8401,6.711,12.9031c2.105,5.113,3.961,10.398,5.093,13.742c2.271,6.709,7.015,25.166,8.226,29.503c1.216,4.359,6.533,19.905,9.143,27.195c1.259,3.516,3.84,8.195,6.526,12.915c2.645,4.65,5.398,9.35,6.85,12.739c2.881,6.723,3.872,11.032,4.068,16.506.193,5.415-.194,11.164-4.14,17.873-1.916,3.257-3.527,5.558-5.591,7.794-2.049,2.22-4.519,4.347-8.107,7.274-2.996,2.444-7.898,5.125-12.716,7.461-4.847,2.35-9.722,4.402-12.738,5.577-.657.256-1.396-.069-1.652-.725-.255-.657.069-1.396.726-1.652c2.962-1.153,7.772-3.179,12.551-5.496c4.807-2.33,9.471-4.904,12.215-7.142c3.586-2.925,5.932-4.952,7.847-7.028c1.901-2.059,3.406-4.195,5.266-7.357c3.605-6.129,3.974-11.331,3.79-16.488-.182-5.1-1.081-9.099-3.864-15.592-1.379-3.219-4.025-7.742-6.722-12.483-2.658-4.67-5.363-9.55-6.711-13.316-2.604-7.274-7.953-22.907-9.198-27.369-1.252-4.483-5.944-22.745-8.186-29.37-1.124-3.323-2.96-8.55-5.035-13.59-2.095-5.09-4.368-9.8235-6.34-12.2764-4.196-5.2196-9.303-12.3368-22.109-19.7988-9.845-5.7365-18.567-5.5816-23.89-6.0889-3.059-.2915-6.874.0955-10.401.7529-3.525.657-6.638,1.56-8.274,2.2334-2.525,1.04-7.355,3.6502-9.914,5.0821c1.781,1.9824,3.675,4.386,5.465,7.2939c1.914,3.1102,3.188,7.4305,4.121,11.2754.47,1.9374.864,3.8018,1.207,5.3664.35,1.596.636,2.829.898,3.599.324.957.783,3.152,1.291,5.844.516,2.738,1.104,6.109,1.682,9.499c1.162,6.812,2.279,13.653,2.722,15.776.908,4.344,3.419,19.995,3.873,23.82.233,1.966.26,3.552-.045,5.194-.302,1.628-.918,3.237-1.865,5.263-1.029,2.199-2.655,4.055-4.263,5.45-1.599,1.388-3.27,2.397-4.476,2.85-1.23.461-2.959.658-4.535.699-1.586.041-3.222-.07-4.308-.332-.932-.225-2.067-.793-3.024-1.333-.415-.235-.818-.48-1.19-.712-.617,2.226-1.604,5.095-2.914,7.715-2.372,4.743-5.431,9.351-11.746,14.995-3.332,2.977-7.992,4.651-12.196,5.662-4.213,1.014-8.194,1.407-10.126,1.692-1.121.166-3.685.212-6.886.2-3.252-.013-7.289-.087-11.443-.186-8.248-.196-17.182-.496-21.125-.593-8.084-.198-24.65-1.651-30.204-2.312-2.852-.34-4.521-.616-6.057-.601-1.438.015-2.749.291-4.736,1.16-1.724.755-3.049,2.283-4.628,4.898-.784,1.298-1.596,2.805-2.547,4.552-.947,1.737-2.019,3.69-3.3,5.836-5.18,8.677-9.274,11.695-12.738,14.897-1.78,1.646-6.205,5.357-10.659,8.922-4.423,3.54-9.021,7.055-11.1043,8.235-1.9856,1.125-3.3121,1.703-4.5214,1.852-1.2151.149-2.2391-.165-3.2959-.4-.7426-.165-2.0838-.71-3.5879-1.383-.0887-.04-.178-.082-.2686-.123-2.3952,1.561-6.7663,4.556-9.3301,6.821-1.862,1.645-3.6907,3.139-5.1709,4.735-1.4718,1.588-2.4296,3.107-2.6738,4.694-.2275,1.479.2198,1.898.8633,3.253.3308.697.6358,1.536.7168,2.687.0793,1.129-.0608,2.494-.5215,4.258-.4889,1.871-1.3096,3.215-2.4141,4.134-1.0953.911-2.3554,1.309-3.5488,1.5-1.1605.185-2.3942.189-3.3779.228-1.0577.043-1.8517.125-2.4551.366-.6974.279-1.5811.8-2.624,1.502-1.0326.695-2.1484,1.518-3.3154,2.369-2.2661,1.654-4.8018,3.482-6.9297,4.28-2.1667.812-6.1221,1.212-10.1446,1.083-4.0331-.13-8.4472-.802-11.5009-2.345-1.3915-.703-2.4803-1.223-3.3584-1.652-.8557-.418-1.5568-.771-2.087-1.113-.5409-.348-1.0288-.762-1.3418-1.36-.3098-.592-.3652-1.209-.3652-1.777.0002-.651.2992-1.182.6074-1.562.3124-.385.7199-.723,1.1416-1.017.8454-.591,1.9635-1.154,3.1182-1.674c1.1662-.525,2.439-1.036,3.6152-1.509c1.192-.479,2.2719-.914,3.1084-1.304c1.6616-.773,5.6229-3.083,9.6856-5.731c4.0824-2.661,8.0766-5.543,9.8896-7.441c2.9965-3.136,16.0815-16.372,22.8614-23.216-.2215-.697-.2271-1.378-.1192-2.014.1161-.684.365-1.338.6201-1.924.129-.296.2687-.594.4014-.878.135-.289.265-.567.3877-.848.3263-.745,1.1034-1.89,2.0439-3.179.9721-1.332,2.2145-2.944,3.5616-4.672c2.7065-3.472,5.8427-7.42,8.2041-10.667c2.4199-3.327,7.258-8.913,11.6279-13.894c2.1972-2.504,4.2803-4.861,5.9133-6.737c1.665-1.914,2.773-3.228,3.087-3.699.429-.645,1.563-1.989,2.971-3.587.55-.624,1.153-1.298,1.788-2.003-.115-1.521-.245-4.74.023-7.637.193-2.084.956-4.266,2.002-6.545c1.048-2.283,2.428-4.757,3.913-7.417c2.131-3.815,5.57-8.295,7.596-10.762-.299-.266-.553-.494-.75-.679-.842-.785-1.99-1.708-3.044-2.365-.531-.331-.993-.567-1.353-.694-.213-.075-.326-.089-.366-.093-.28.112-.354.147-.412.187-.019.013-.08.052-.2.251-.303.5-.7,1.506-1.548,3.868-1.66,4.625-3.924,10.702-6.669,16.67-1.399,3.042-4.398,8.134-7.149,12.526-1.381,2.206-2.714,4.257-3.772,5.814-.5279.777-.9936,1.44-1.3653,1.939-.1852.249-.3549.469-.5019.645-.1249.15-.3008.352-.4873.497-.3808.296-.8735.426-1.2256.499-.4069.084-.8861.139-1.4014.171-1.0357.065-2.3277.045-3.707-.059-.0868-.006-.1739-.016-.2617-.023-1.7477,2.46-5.5641,7.761-8.9932,12.281-1.7123,2.257-3.2022,4.185-4.5156,5.976c1.0829.997,2.2555,2.607,3.0488,4.563.5253,1.296.8976,2.671.9414,3.95.0434,1.27-.2377,2.614-1.2217,3.598-1.7985,1.798-3.3097,2.316-4.5976,2.63-1.2448.303-1.8095.366-2.4873,1.044-.3852.385-.77.924-1.2168,1.644-.4701.759-.8823,1.502-1.4717,2.477-1.1189,1.851-2.574,4.008-4.8428,6.032-2.1066,1.88-3.4743,3.056-4.957,3.846-1.5112.805-3.0794,1.177-5.4941,1.638-1.2618.24-2.8582.429-4.4541.464-1.5777.034-3.2512-.079-4.6202-.498-1.4142-.432-2.4729-1.197-3.1582-2.056-.6412-.804-1.0751-1.861-.8652-2.842.0837-.39.3209-.72.4404-.881.16-.215.3612-.448.5772-.681.4351-.471,1.0051-1.024,1.6094-1.586c1.2127-1.129,2.6349-2.355,3.5751-3.14.5407-.452,1.3453-.379,1.7969.161.4516.541.3796,1.345-.1611,1.797-.9185.767-2.3044,1.962-3.4736,3.05-.5866.545-1.1022,1.05-1.4737,1.451-.1678.181-.2915.327-.375.435.0266.114.1011.341.3438.645.3479.436.9621.919,1.9092,1.208.9922.303,2.3546.418,3.8193.386c1.4465-.032,2.902-.204,4.0322-.419c2.4156-.461,3.6375-.779,4.7725-1.383c1.1632-.62,2.3014-1.575,4.458-3.499c1.9947-1.78,3.2952-3.691,4.3574-5.448.501-.829,1.0372-1.775,1.4873-2.501.4734-.764.9825-1.505,1.5811-2.104c1.2899-1.29,2.6778-1.474,3.6875-1.719.9669-.236,2.0148-.572,3.3974-1.955.2951-.295.5058-.821.4756-1.707-.03-.878-.2973-1.947-.7558-3.078-.6143-1.515-1.4706-2.697-2.1807-3.421-1.4928,2.166-2.736,4.236-3.8242,6.602-1.1778,2.56-2.4004,5.24-3.5479,7.47-.5743,1.116-1.1408,2.141-1.6846,2.996-.5312.835-1.0908,1.589-1.666,2.096-1.8875,1.666-5.571,3.817-9.4853,3.817-1.9023,0-3.3882-.496-4.1709-1.539-.8587-1.145-.5709-2.554.3408-3.364.2613-.233.7247-.568,1.0566-.83.394-.311.8619-.709,1.3897-1.26c1.054-1.101,2.3954-2.865,3.8359-5.845c1.4455-2.991,2.3221-5.764,3.1963-8.592.8701-2.815,1.7426-5.702,3.1738-8.776c2.0901-4.49,6.8787-14.401,9.4151-19.627-.3039-.234-.5861-.468-.8379-.702-.3658-.34-.7038-.711-.958-1.104-.2479-.383-.4775-.885-.4775-1.461c0-.394.0878-.871.2021-1.357.1204-.512.2948-1.133.5146-1.855.44-1.444,1.0832-3.357,1.8965-5.723c1.6309-4.745,3.9633-11.357,6.8008-19.869c5.6696-17.009,12.675-37.44,15.5469-43.902c1.431-3.22,2.7174-5.207,4.5313-6.3c1.792-1.078,3.903-1.145,6.428-1.203c1.568-.035,3.832.598,6.274,1.477c2.503.901,5.395,2.138,8.306,3.46c2.914,1.323,5.869,2.741,8.502,4.01c2.643,1.273,4.944,2.387,6.579,3.117c5.38,2.402,31.009,17.007,43.075,23.964.61.351.819,1.132.468,1.742-.352.61-1.132.82-1.742.469-12.155-7.008-37.618-21.514-42.841-23.846-1.678-.749-4.023-1.884-6.646-3.148-2.633-1.268-5.565-2.675-8.45-3.985-2.888-1.311-5.707-2.516-8.114-3.383-2.469-.888-4.318-1.349-5.353-1.326-2.681.061-4.063.171-5.17.838-1.085.653-2.106,1.981-3.5153,5.15-2.8086,6.32-9.768,26.599-15.459,43.672-2.8425,8.528-5.1842,15.17-6.8076,19.893-.8137,2.367-1.4438,4.241-1.8691,5.636-.2128.699-.3693,1.262-.4717,1.697-.0916.389-.1238.616-.1318.724.009.022.027.063.0664.123.0993.154.2757.363.5527.621.3577.332.827.694,1.3828,1.074.0244.015.0473.031.0703.048.2851.193.5916.391.918.591c1.9866,1.219,4.4986,2.429,6.5185,3.261c2.0711.853,5.0254,1.374,7.6397,1.57c1.2962.098,2.4667.113,3.3564.057.4465-.028.7964-.072,1.044-.123.0965-.02.1608-.042.2002-.054.0178-.02.0427-.045.0703-.078.1047-.125.2431-.303.4141-.533.3409-.458.7834-1.088,1.3017-1.851c1.0354-1.523,2.3514-3.547,3.7204-5.734c2.752-4.394,5.67-9.361,6.993-12.237c2.698-5.866,4.932-11.86,6.585-16.466.809-2.252,1.299-3.555,1.766-4.327.263-.435.558-.774.946-1.039.344-.234.722-.375.974-.476l.141-.051c.707-.225,1.44-.044,1.949.135.605.214,1.246.555,1.854.935c1.224.762,2.501,1.793,3.435,2.665.857.8,2.899,2.58,5.225,4.393c2.346,1.831,4.883,3.616,6.755,4.497c3.207,1.509,8.574,4.715,11.226,6.512c11.146-1.949,25.235-4.333,33.858-5.775.695-.116,1.353.353,1.469,1.048.116.694-.353,1.351-1.048,1.467-14.849,2.484-45.535,7.695-50,8.752-2.778.658-4.384,1.226-5.545,1.798-1.159.572-1.915,1.162-3.06,2.002-.456.334-1.585,1.41-3.131,2.982-1.51,1.536-3.335,3.458-5.141,5.403-1.805,1.944-3.587,3.905-5.006,5.515-1.448,1.644-2.45,2.846-2.763,3.316-.43.644-1.681,2.116-3.284,3.959-1.637,1.881-3.734,4.252-5.9213,6.745-4.3983,5.013-9.1456,10.5-11.4815,13.712-2.3943,3.292-5.5751,7.296-8.2558,10.734-1.3464,1.727-2.5658,3.311-3.5117,4.608-.9771,1.339-1.5747,2.256-1.7686,2.699-.1372.314-.2801.62-.4131.904-.1354.29-.2606.557-.374.818-.2297.527-.3805.955-.4443,1.331-.0595.35-.0379.627.0566.88.0075.007.0161.013.0234.02.1586.157.2665.346.3252.546.1191.14.2716.292.4678.453.5228.43,1.6686,1.15,3.2227,2.03c1.5238.863,3.3593,1.835,5.1963,2.762c1.3704.692,2.7365,1.355,3.9687,1.929.2603.031.5086.142.708.324.17.077.3361.156.499.228c1.5595.699,2.6552,1.124,3.0977,1.222c1.3123.292,1.7709.439,2.4316.358.6666-.082,1.612-.426,3.5752-1.538c1.8666-1.058,6.2881-4.423,10.7681-8.009c4.45-3.561,8.813-7.223,10.522-8.803c3.515-3.25,7.32-6.025,12.278-14.332c1.254-2.1,2.305-4.015,3.249-5.748.939-1.723,1.785-3.291,2.606-4.65c1.63-2.701,3.3-4.827,5.789-5.916c2.226-.975,3.878-1.356,5.732-1.375c1.755-.017,3.708.3,6.385.619c5.507.655,21.988,2.098,29.966,2.295c4.089.1,12.765.394,21.122.592c4.149.099,8.165.173,11.392.185c3.276.012,5.616-.04,6.503-.171c2.084-.307,5.838-.672,9.903-1.649c4.075-.981,8.237-2.532,11.093-5.084c6.06-5.416,8.926-9.762,11.163-14.235c1.453-2.907,2.49-6.169,3.015-8.313-.539.006-1.106.007-1.703-.001-2.381-.032-5.4-.582-8.519-1.305-3.137-.727-6.474-1.654-9.501-2.475-3.18-.863-8.144-3.116-12.819-5.475-4.699-2.372-9.242-4.922-11.617-6.444-2.35-1.507-6.142-4.186-9.62-6.591-1.749-1.21-3.424-2.355-4.822-3.266-1.431-.932-2.48-1.558-3.018-1.789-1.248-.537-2.715-1.027-4.353-1.549-1.621-.516-3.41-1.063-5.221-1.697-3.878-1.357-7.51-4.53-10.512-7.651-.78-.812-1.344-1.509-1.728-2.112-.375-.587-.634-1.171-.693-1.742-.064-.627.121-1.255.62-1.694.443-.389.972-.486,1.349-.487.285,0,.552.094.641.124.148.051.317.117.491.191.351.149.798.356,1.3.598c1.007.483,2.298,1.134,3.616,1.804c2.683,1.365,5.408,2.77,6.359,3.161.94.387,2.757.975,4.384,1.309.821.168,1.519.256,2.005.247.04-.001.076-.004.109-.006-.011-.135-.056-.306-.158-.53-.219-.485-.589-.992-1.067-1.662-.531-.743-.938-1.65-.975-2.496-.018-.428.054-.99.429-1.47.412-.527,1.012-.733,1.583-.733l.152.005c.348.029.656.149.882.256.278.133.555.308.817.497.526.38,1.092.888,1.636,1.44c1.081,1.097,2.205,2.499,2.874,3.703.349.628.602,1.288.819,1.86.227.6.415,1.103.654,1.564.434.836,1.004,1.481,2.239,1.822c1.599.441,5.762,1.37,10.021,2.222c4.284.857,8.507,1.602,10.276,1.71c1.089.066,2.954.395,5.15.847c2.227.459,4.882,1.062,7.601,1.704.644.153,1.292.31,1.939.465.619-.52,1.543-1.377,2.361-2.311.899-1.027,1.487-1.943,1.619-2.527.278-1.231.514-2.022.691-3.27.175-1.229.286-2.896.249-5.696-.058-4.397-.992-7.769-1.405-8.812-.259-.655.062-1.397.717-1.656s1.396.062,1.655.717c.534,1.348,1.522,5.029,1.584,9.716.038,2.877-.075,4.685-.274,6.089-.197,1.385-.484,2.389-.729,3.474-.286,1.269-1.28,2.607-2.187,3.644-.421.481-.865.941-1.288,1.355c3.731.911,7.178,1.778,9.353,2.315c3.143.777,6.515,2.127,9.374,3.725c2.811,1.571,5.32,3.49,6.521,5.49c1.852,3.088,1.779,6.994,1.529,8.579l-.001-.001c-.187,1.628-1.34,3.029-3.607,3.793-1.086.366-2.344.638-3.91.81.243.147.497.298.754.443.941.532,1.809.939,2.367,1.073.778.188,2.162.301,3.643.262c1.492-.039,2.88-.227,3.706-.537.85-.319,2.264-1.141,3.7-2.388c1.428-1.238,2.79-2.82,3.624-4.604.916-1.958,1.425-3.337,1.668-4.649.241-1.297.236-2.603.02-4.427-.446-3.758-2.946-19.332-3.837-23.598-.456-2.183-1.59-9.124-2.74-15.868-.578-3.388-1.162-6.741-1.674-9.456-.521-2.761-.946-4.75-1.199-5.496-.317-.933-.634-2.318-.975-3.874-.348-1.588-.733-3.4097-1.194-5.3108-.931-3.8329-2.13-7.8025-3.814-10.5391-3.501-5.69-7.423-9.353-10.052-11.7393-2.731-2.4797-7.977-6.6357-10.837-8.0966-1.516-.7739-3.199-1.6383-4.574-2.3096-.688-.3361-1.283-.6168-1.732-.8106-.226-.0975-.399-.1656-.518-.207-.013-.0046-.025-.0082-.036-.0117-.063.0065-.128.0263-.245.0898-.253.1373-.692.4555-1.467,1.2032-.848.8192-1.945,1.7284-3.02,2.4931-1.041.7403-2.189,1.4387-3.116,1.7237-.355.1094-.566.1945-.956.3242-.34.1132-.736.2285-1.186.2812-.951.1113-1.941-.0787-3.192-.6728-1.393-.6622-1.913-1.9393-2.184-2.8653-.122-.4183-.248-.9809-.319-1.2539-.042-.157-.079-.2744-.11-.3613-.006.0006-.013.0012-.019.002-.331.0371-.817.1827-1.419.4316-1.191.4925-2.458,1.2235-3.228,1.6436-1.755.9575-7.599,4.7213-11.087,9.0546-1.792,2.2266-4.374,5.7429-6.776,9.3321-.785,1.1731-1.543,2.3457-2.246,3.4756-.032.4164-.265.7786-.606.9873-1.188,1.9637-2.171,3.7559-2.765,5.1513-.714,1.6745-2.954,7.0057-5.103,12.6697-1.075,2.833-2.122,5.738-2.944,8.304-.83,2.592-1.402,4.754-1.566,6.138-.082.699-.716,1.199-1.416,1.117-.699-.083-1.199-.717-1.117-1.416.195-1.65.836-4.018,1.669-6.617.841-2.626,1.907-5.577,2.989-8.431c2.166-5.7091,4.421-11.0758,5.141-12.7656.692-1.6232,1.822-3.6666,3.15-5.8389-.236-6.5897-.536-20.2943.027-27.043.365-4.382,1.431-10.9535,2.959-17.1211.764-3.086,1.65-6.0945,2.631-8.6914.971-2.5727,2.071-4.8379,3.298-6.3652c4.449-5.5394,9.677-10.0307,16.238-10.5205ZM67.3662,271.167c-.8622.787-1.9692,1.832-3.0879,2.981-1.2997,1.336-3.7024,3.26-6.1426,5.024-2.4414,1.765-5.0444,3.461-6.7714,4.307-1.8597.91-4.65,1.386-7.5332,1.553-2.9233.17-6.1105.031-8.8614-.389-3.6898-.564-5.836-1.992-6.8691-3.282-.5321.221-1.0933.447-1.6592.674-1.1864.477-2.4087.969-3.5185,1.469-1.1212.505-2.0619.989-2.7051,1.438-.3222.226-.5175.407-.6211.535-.0158.019-.0263.037-.0352.049.0069.35.0494.457.0713.498.0206.04.0939.161.4649.4.3818.246.9436.535,1.8232.965.8573.419,1.9775.954,3.3896,1.668c2.5542,1.29,6.5216,1.945,10.4327,2.071c3.9217.126,7.4745-.287,9.167-.922c1.731-.649,3.9599-2.228,6.3212-3.951c1.1466-.837,2.3114-1.696,3.3946-2.425c1.0725-.722,2.1411-1.37,3.1015-1.754c1.0546-.422,2.2514-.505,3.2998-.548c1.1227-.045,2.1136-.044,3.0782-.198.9318-.149,1.7001-.426,2.3193-.941.6099-.508,1.1919-1.343,1.5772-2.818.4134-1.582.4997-2.66.4453-3.434-.053-.752-.2422-1.278-.4766-1.772-.1694-.357-.3955-.743-.6045-1.198Zm5.1455-27.057c-6.8748,6.941-19.5654,19.781-22.4931,22.846-2.0461,2.142-6.2831,5.17-10.3409,7.815-3.5143,2.291-7.0385,4.384-9.1201,5.466.7551.653,2.2065,1.488,4.7969,1.884c2.5644.392,5.5732.525,8.3291.364c2.7957-.162,5.1691-.618,6.5596-1.298c1.5231-.746,3.9817-2.335,6.3984-4.083c2.418-1.748,4.6707-3.565,5.8086-4.735c1.7613-1.81,3.4912-3.373,4.374-4.137.0136-.192.0343-.393.0664-.602.3589-2.332,1.722-4.311,3.3252-6.04c1.595-1.72,3.5958-3.362,5.3516-4.913c2.2704-2.006,5.8016-4.495,8.3135-6.179-.7543-.365-1.5315-.748-2.3077-1.14-1.8628-.94-3.7357-1.931-5.3037-2.819-1.5372-.87-2.8694-1.69-3.5869-2.28-.0587-.049-.1149-.1-.1709-.149Zm60.9813-23.389c.508-.489,1.315-.473,1.804.034c13.978,14.531,35.375,25.806,51.314,32.657c12.651,5.438,38.902,11.65,50.507,14.083.69.145,1.131.82.986,1.51-.144.689-.82,1.132-1.509.987-11.573-2.426-38.07-8.683-50.991-14.236-16.024-6.888-37.805-18.324-52.145-33.232-.488-.507-.473-1.315.034-1.803ZM76.0068,189.61c-2.5725,5.303-7.2028,14.888-9.2412,19.267-1.346,2.891-2.1712,5.612-3.0498,8.454-.8745,2.83-1.7993,5.767-3.3369,8.948-1.5423,3.191-3.0296,5.183-4.29,6.499-.6292.657-1.1904,1.134-1.6514,1.498-.4875.385-.7101.535-.9014.699.1423.135.6674.481,2.0938.481c3.0804,0,6.1878-1.758,7.7978-3.179.2992-.264.704-.771,1.2012-1.552.4849-.763,1.0112-1.712,1.5684-2.794c1.1155-2.168,2.3109-4.787,3.499-7.369c2.4385-5.302,5.6329-9.239,10.1211-15.155c2.95-3.888,6.1928-8.367,8.1387-11.087-1.8616-.299-3.7337-.751-5.2715-1.384-2.0436-.842-4.583-2.062-6.6778-3.326Zm50.9822-32.431c-1.979,2.414-5.288,6.733-7.302,10.341-1.498,2.682-2.824,5.064-3.822,7.238-1,2.178-1.625,4.054-1.779,5.716-.147,1.591-.165,3.306-.134,4.739.276-.299.554-.6.832-.9c1.817-1.956,3.66-3.898,5.193-5.456c1.495-1.52,2.781-2.768,3.44-3.251c1.084-.794,2.038-1.54,3.441-2.232c1.403-.691,3.216-1.313,6.085-1.992c1.599-.379,6.406-1.265,12.613-2.362-2.715-1.694-6.297-3.761-8.616-4.852-2.151-1.013-4.881-2.955-7.238-4.793-.971-.758-1.896-1.512-2.713-2.196Zm50.718-23.212c.239.297.54.64.916,1.031c2.959,3.077,6.241,5.866,9.516,7.013c1.765.618,3.494,1.146,5.151,1.674c1.639.522,3.213,1.045,4.588,1.636.774.333,2.005,1.085,3.401,1.994c1.43.932,3.13,2.093,4.882,3.305c3.526,2.439,7.245,5.068,9.545,6.542c2.274,1.458,6.732,3.963,11.391,6.315c4.683,2.363,9.436,4.502,12.337,5.29c3.052.828,6.331,1.739,9.409,2.453c3.094.717,5.888,1.21,7.977,1.238c4.412.059,6.89-.298,8.636-.887c1.589-.535,1.852-1.267,1.894-1.695l.003-.039.006-.038c.204-1.292.222-4.505-1.197-6.869-.844-1.407-2.861-3.058-5.578-4.576-2.669-1.492-5.829-2.756-8.741-3.475-3.137-.775-8.841-2.217-14.26-3.497-2.709-.64-5.337-1.236-7.528-1.688-2.222-.457-3.911-.747-4.79-.8-1.98-.121-6.389-.908-10.622-1.754-4.26-.852-8.504-1.797-10.2-2.265-2.058-.568-3.136-1.779-3.825-3.106-.322-.621-.564-1.277-.775-1.834-.222-.586-.416-1.081-.663-1.526-.524-.942-1.486-2.162-2.461-3.151-.092-.093-.184-.182-.274-.269.34.482.705,1.029.958,1.589.365.806.592,1.829.13,2.906-.258.603-.768.901-1.161,1.041-.391.141-.816.184-1.195.192-.768.014-1.683-.117-2.568-.299-1.785-.366-3.754-1.002-4.84-1.449-1.076-.443-3.954-1.929-6.545-3.246-1.299-.66-2.546-1.289-3.517-1.756ZM168.88,116.57c.518-.442,1.122-.51,1.599-.45.442.056.855.227,1.175.382.926.447,14.986,7.836,21.864,11.455.623.328.861,1.099.534,1.723-.328.623-1.099.863-1.723.535-6.893-3.627-20.794-10.932-21.772-11.409-.023.238-.031.57-.005,1.021.077,1.373.128,2.897.189,4.148.063,1.287.137,2.269.243,2.797.012.018.067.116.234.299.216.237.525.513.896.804.74.581,1.611,1.135,2.18,1.462.61.351.821,1.13.471,1.741-.351.611-1.132.822-1.743.471-.645-.371-1.623-.992-2.483-1.667-.429-.337-.858-.71-1.206-1.092-.313-.344-.71-.85-.838-1.455-.161-.759-.24-1.973-.302-3.235-.064-1.328-.11-2.75-.188-4.129-.042-.74-.022-1.378.083-1.909.102-.517.316-1.085.792-1.492Zm67.444-93.4919c-3.77-2.8687-9.59-3.8577-15.458-3.4199-5.459.4074-10.098,4.1693-14.439,9.5732-.971,1.2086-1.958,3.1703-2.901,5.668-.934,2.4739-1.791,5.3808-2.541,8.4053-1.499,6.0539-2.541,12.4898-2.893,16.7187-.459,5.5072-.327,15.9115-.134,23.0264.086-.1295.171-.2595.258-.3887c2.435-3.6388,5.062-7.2173,6.91-9.5127c3.791-4.7096,9.967-8.6667,11.853-9.6953.685-.374,2.12-1.2007,3.474-1.7607.671-.2772,1.42-.532,2.109-.6094.056-.0062.116-.0106.178-.0146l.621-2.1856c-.991.0062-2.016-.0284-2.99-.1328-1.278-.137-2.574-.4035-3.6-.9238-1.943-.9865-3.711-3.056-5.081-5.0479-1.398-2.0344-2.518-4.1924-3.113-5.5898-.622-1.4618-1.536-5.0345-2.008-7.8379-.23-1.372-.39-2.7504-.292-3.6397.026-.2296.077-.5214.202-.7988.122-.268.417-.7371,1.029-.8935.591-.1511,1.069.0979,1.307.2597.257.1743.474.4054.653.626.909,1.1219,2.485,1.925,4.38,2.5039c1.868.571,3.84.8661,5.394,1.1113c1.389.2192,4.612.1875,7.985.1055c3.252-.0791,6.618-.2031,8.02-.1182.845.0513,1.575.2769,2.162.6963.594.4242.95.9816,1.149,1.5381.372,1.0432.21,2.1424.128,2.6348-.053.3174-.182.6003-.29.8056-.115.2195-.254.4412-.394.6485-.26.3863-.639.8951-.922,1.2969-.313.4456-.587.8655-.78,1.2509-.201.4006-.258.6542-.258.7871c0,.8672-.105,2.3531-.152,3.6641-.051,1.4158-.04,2.6992.126,3.4941.231,1.1091.984,3.3351,1.579,4.9942.453-.1807.83-.2178,1.171-.2178l.117.0049c.271.0212.526.1082.65.1514.204.0707.44.1671.692.2753.505.2181,1.144.5191,1.842.8604c1.4.6839,3.11,1.5611,4.614,2.3291.934.4772,2.065,1.191,3.266,2.0234-.328-5.2373-1.168-16.3878-1.831-23.0117-.374-3.7422-2.291-7.8902-4.696-11.5469-2.401-3.6506-5.178-6.6485-7.096-8.1074Zm-27.399,14.791c.042.3242.096.6787.16,1.0586.46,2.736,1.335,6.0755,1.84,7.2608.532,1.2495,1.57,3.2576,2.867,5.1445c1.327,1.9295,2.794,3.5374,4.135,4.2178.616.3129,1.551.5372,2.717.6621c1.142.1225,2.407.1403,3.62.1016c1.208-.0387,2.342-.1325,3.215-.2256.435-.0465.803-.0925,1.08-.1309.138-.0192.252-.036.338-.0498.043-.0068.078-.0129.104-.0176.013-.0023.024-.0044.031-.0058.006-.0011.01-.0018.011-.002.689-.1476,1.367.2907,1.515.9795.147.6887-.291,1.3669-.98,1.5147-.339.0726-1.747.2715-3.534.3974l-.99,3.4824c.194.3711.308.7644.388,1.0713.129.4875.18.7705.302,1.1875.218.7446.46,1.1002.83,1.2764.955.4534,1.456.4846,1.8.4443.197-.0231.403-.0772.679-.1689.226-.0753.65-.2309,1.01-.3418.508-.1562,1.373-.6435,2.386-1.3643.979-.6964,1.978-1.5253,2.729-2.25.09-.0869.178-.1707.263-.2509-.615-1.6811-1.619-4.5555-1.923-6.0166-.238-1.1401-.227-2.7195-.177-4.1055.053-1.4907.15-2.7472.15-3.5733c0-.7135.256-1.387.529-1.9306.28-.5592.642-1.1029.973-1.5742.362-.5151.639-.878.893-1.2549.117-.1742.198-.3081.251-.4082.019-.0376.031-.0636.037-.0782.075-.4647.109-.9611-.019-1.3193-.053-.1489-.125-.2467-.229-.3213-.111-.0793-.349-.1962-.833-.2256-1.259-.0762-4.425.0409-7.804.1231-3.259.0792-6.769.1285-8.444-.1358-1.51-.2383-3.671-.5581-5.743-1.1914-1.434-.4381-2.93-1.0573-4.177-1.9795Z" transform="matrix(1.876309 0 0 1.876309 930.37375 269.326139)" fill="#0085fb"/>
<script><![CDATA[
!function(t,e){"object"==typeof exports&&"undefined"!=typeof module?module.exports=e():"function"==typeof __SVGATOR_DEFINE__&&__SVGATOR_DEFINE__.amd?__SVGATOR_DEFINE__(e):((t="undefined"!=typeof globalThis?globalThis:t||self).__SVGATOR_PLAYER__=t.__SVGATOR_PLAYER__||{},t.__SVGATOR_PLAYER__["7c8cb2ed"]=e())}(this,(function(){"use strict";const t=n(Math.pow(10,-6)),e=n(Math.pow(10,-2));function n(t,e=6){return function(t,e,n){if(Number.isInteger(t))return t;const r=Math.pow(10,e);return Math[n]((+t+Number.EPSILON)*r)/r}(t,e,"round")}function r(e,n,r=t){return Math.abs(e-n)<r}n(Math.pow(10,-4));const i=Math.PI/180;function s(t){return t*i}function o(t){return t/i}function u(t){return"number"!=typeof t&&(t=Number(t)),isNaN(t)||!isFinite(t)?0:t}let l={iD:!1};function a(t){return`${t}`.replace(/['"]/g,"")}function c(t,e="px"){return t.endsWith(e)?t:`${t}${e}`}function f(t=""){return l.iD?t:void 0}function h(t){const e=["^","\\s*","(matrix\\()","(?<a>-?[0-9]*\\.?[0-9]+)","\\s*",",?","\\s*","(?<b>-?[0-9]*\\.?[0-9]+)","\\s*",",?","\\s*","(?<c>-?[0-9]*\\.?[0-9]+)","\\s*",",?","\\s*","(?<d>-?[0-9]*\\.?[0-9]+)","\\s*",",?","\\s*","(?<e>-?[0-9]*\\.?[0-9]+)","\\s*",",?","\\s*","(?<f>-?[0-9]*\\.?[0-9]+)","\\)"].join(""),n=t.match(new RegExp(e,"i"));if(n)return[u(n.groups.a),u(n.groups.b),u(n.groups.c),u(n.groups.d),u(n.groups.e),u(n.groups.f)]}function d(t,e="inline"){return t&&t!==e?(t=a(t))===e?f(e):t:f(e)}function g(t,e="1px"){if(!t||t===e)return f(e);if(t.endsWith("px")||t.endsWith("%"))return t;const r=c(t=`${n(u(t),2)}`);return r===e?f(e):r}function p(t,e="none"){if(!t||t===e)return f(e);if((t=a(t))===e)return f(e);const n=t.match(/url\(#.+?\)/);return n?n[0]:function(t){const e=["^","\\s*","url\\(","#","(?<maskId>[a-zA-Z0-9\\-_]+)","\\)"].join(""),n=t.match(new RegExp(e,"i"));if(n)return`url(#${n.groups.maskId})`}(t)}function y(t,e="rgb(0, 0, 0)"){if(!t||t===e)return f(e);if((t=a(t))===e)return f(e);if(t.startsWith("rgb"))return t;const n=function(t){if("string"!=typeof t||"#"!==t[0])return t;const e=t.slice(1),n=e.length;if(3!==n&&6!==n)return t;for(let r=0;r<n;r++){const n=e.charCodeAt(r);if(!(n>=48&&n<=57||n>=65&&n<=70||n>=97&&n<=102))return t}if(3===n)return`rgb(${parseInt(e[0]+e[0],16)}, ${parseInt(e[1]+e[1],16)}, ${parseInt(e[2]+e[2],16)})`;return`rgb(${parseInt(e.slice(0,2),16)}, ${parseInt(e.slice(2,4),16)}, ${parseInt(e.slice(4,6),16)})`}(t);return n===e?f(e):n}function m(t,e="1"){return t&&t!==e?(t=`${n(u(t),3)}`)===e?f(e):t:f(e)}let v={};const b={fill:"none",stroke:"none",opacity:"0.01",transform:"matrix(0.001 0 0 0.001 -10000 -10000)"};function w({element:t,tagType:e="path",property:n="d",attributeValue:r}){return v[r]||(v[r]=function({element:t,tagType:e="path",property:n="d",attributeValue:r}){const i=t.ownerSVGElement,s=document.createElementNS(i.namespaceURI,e);s.setAttributeNS(null,n,r);for(const t in b)s.setAttributeNS(null,t,b[t]);i.appendChild(s);const o=getComputedStyle(s)[n];return s.remove(),o}({element:t,tagType:e,property:n,attributeValue:r})),v[r]}const x=()=>{v={}};"object"==typeof window&&(window.removeEventListener("resize",x),window.addEventListener("resize",x));const A={include:(t,e)=>["path"].includes(e),formatter:t=>function(t,e=""){return t&&t!==e?(t=a(t))===e?f(e):t.startsWith("path(")?t:`path('${t}')`:f(e)}(t)},_={include:(t,e)=>["rect","mask"].includes(e),formatter:(t,e,n)=>g(t,function(t,e){var n;return(null===(n={mask:{x:"-150%",y:"-150%",width:"400%",height:"400%"}}[e])||void 0===n?void 0:n[t])||(["x","y"].includes(t)?"0px":"100%")}(e,n))},k=Object.freeze({d:A,display:t=>d(t),height:_,fill:t=>y(t),"fill-opacity":t=>m(t),filter:t=>d(t,"none"),mask:t=>p(t),opacity:t=>m(t),stroke:t=>y(t,"none"),"stroke-opacity":t=>m(t),"stroke-width":t=>g(t),transform:t=>function(t,e="none"){if(!t||t===e)return f(e);const n=h(t);return n?`matrix(${n.join(", ")})`:t}(t),"transform-origin":t=>function(t,e="0px 0px"){if(!t||t===e)return f(e);const n=["^","\\s*","(?<x>[0-9]+)","(px)?","\\s*",",","\\s*","(?<y>[0-9]+)","(px)?"].join(""),r=t.match(new RegExp(n,"i"));if(!r)return t;let i=`${u(r.groups.x)}`;i=c(i);let s=`${u(r.groups.y)}`;s=c(s);const o=`${i} ${s}`;return o===e?f(e):o}(t),visibility:t=>d(t,"visible"),width:_,x:_,y:_}),S=Object.keys(k),E=e;function O(t,e,n,i,s=window){var o,u;const l=t.getAttribute(e),a="transform"===e?"none":"",c=(s.safari||function(t){var e,n;const r=null==t?void 0:t.userAgent;return(null==t||null===(e=t.vendor)||void 0===e||null===(n=e.indexOf)||void 0===n?void 0:n.call(e,"Apple"))>-1&&r&&-1==r.indexOf("CriOS")&&-1==r.indexOf("FxiOS")}(null==s?void 0:s.navigator))&&!s.chrome&&(null===(o=i.getPropertyValue)||void 0===o?void 0:o.call(i,e))===a||"mask"===n?l:null===(u=i.getPropertyValue)||void 0===u?void 0:u.call(i,e);if(l&&c){if(l===c)return l;switch(e){case"transform":return function(t,e){const n=h(t),i=h(e);if((null==n?void 0:n.length)===(null==i?void 0:i.length)){for(let t=0,e=n.length;t<e;t++)if(n[t]!==i[t]&&(s=i[t],!r(((o=n[t])-s)/(o||1)*100,0,E)))return;var s,o;return t}}(l,c);case"d":return function(t,e,n){return w({element:t,attributeValue:e})===n?e:void 0}(t,l,c);default:return c}}}function I(t,e,n,r){var i,s,o,u;const l="transform"===e||["mask","path"].includes(n)&&["x","y","width","height","d"].includes(e);return r&&l?O(t,e,n,r):(null===(i=r.getPropertyValue)||void 0===i?void 0:i.call(r,e))??(null===(s=t.attrs)||void 0===s||null===(o=s.style)||void 0===o?void 0:o[e])??(null===(u=t.attrs)||void 0===u?void 0:u[e])}function M(t,e,n=!1){l.iD=n;const r="undefined"!=typeof window&&getComputedStyle(t),i={};for(let l=0,a=S.length;l<a;l++){var s,o,u;const a=S[l],c=t.type||t.nodeName;if(!1===(null===(s=(o=k[a]).include)||void 0===s?void 0:s.call(o,a,c)))continue;const f=k[a].formatter||k[a];if(null!=e&&null!==(u=e[t.id])&&void 0!==u&&u[a])continue;const h=I(t,a,c,r);if(null==h&&!n)continue;const d=f.call(this,h,a,c);d&&(i[a]=d)}return i}function j(t){var e,n;if(null==t||null===(e=t.wD)||void 0===e||!e.length)return;this.h=t.wD.shift();const r=null===(n=t.rootId)||void 0===n?void 0:n.slice(0,-1);this.wIs=t.wD.map((t=>`${r}${t}`))}function B(t){const e=new j(t),n=t.svg,r=e.wIs,i=t.originalAnimations[0].elements,s=e.h;function o(t,e,s){var u;if(e[t])return;const l=n.querySelector("#"+t),a=null==l||null===(u=l.parentElement)||void 0===u?void 0:u.id;if(l&&a){if(r.includes(a))return e[a]||o(a,e,s),e[a].children??=[],e[t]=M(l,i),void e[a].children.push(e[t]);e[t]=M(l,i),s.push(e[t])}}async function u(){const t=function(){let t=[],e={};for(let n=0,i=r.length;n<i;n++)o(r[n],e,t);return t}();return await async function(t){var e,n;const r=JSON.stringify(t),i=(new TextEncoder).encode(r),o=await(null===(e=window.crypto)||void 0===e||null===(n=e.subtle)||void 0===n?void 0:n.digest("SHA-256",i));return o&&Array.from(new Uint8Array(o)).map((t=>t.toString(16).padStart(2,"0"))).join("")||s}(t)}this.vH=async function(){await u()!==s&&requestAnimationFrame((()=>t.stop()))}}function N(t){let e=0,n=0;const r=new B(t);this.cF=function(i,s){return t.wD?(e++,function(t){return!(t-n<300)&&(t-n>=500||e>=3)}(i)?(e=0,n=i,window.requestAnimationFrame((()=>r.vH())),s()):s()):s()}}function T(t){return t}function P(t,e,n){const r=1-n;return 3*n*r*(t*r+e*n)+n*n*n}function F(t=0,e=0,n=1,i=1){return t<0||t>1||n<0||n>1?null:r(t,e)&&r(n,i)?T:s=>{if(s<=0)return t>0?s*e/t:0===e&&n>0?s*i/n:0;if(s>=1)return n<1?1+(s-1)*(i-1)/(n-1):1===n&&t<1?1+(s-1)*(e-1)/(t-1):1;let o,u=0,l=1;for(;u<l;){o=(u+l)/2;const e=P(t,n,o);if(r(s,e))break;e<s?u=o:l=o}return P(e,i,o)}}function R(){return 1}function C(t){return 1===t?1:0}function V(t=1,e=0){if(1===t){if(0===e)return C;if(1===e)return R}const n=1/t;return t=>t>=1?1:(t+=e*n)-t%n}Number.isInteger||(Number.isInteger=function(t){return"number"==typeof t&&isFinite(t)&&Math.floor(t)===t}),Number.EPSILON||(Number.EPSILON=2220446049250313e-31);const D=Math.sin,$=Math.cos,L=Math.acos,q=Math.asin,z=Math.tan,G=Math.atan2,W=Math.sqrt;function Y(t,e){return{a:t[0]*e[0]+t[2]*e[1],b:t[1]*e[0]+t[3]*e[1],c:t[0]*e[2]+t[2]*e[3],d:t[1]*e[2]+t[3]*e[3],tx:t[0]*e[4]+t[2]*e[5]+t[4],ty:t[1]*e[4]+t[3]*e[5]+t[5]}}function U(t,e,n){return t>=.5?n:e}function H(t,e,n){return 0===t||e===n?e:t*(n-e)+e}function J(t,e,n){const r=H(t,e,n);return r<=0?0:r}function Q(t,e,n){const r=H(t,e,n);return r<=0?0:r>=1?1:r}function X(t,e,n){return 0===t?e:1===t?n:{x:H(t,e.x,n.x),y:H(t,e.y,n.y)}}function Z(t,e,n){return 0===t?e:1===t?n:{x:J(t,e.x,n.x),y:J(t,e.y,n.y)}}function K(t,e,n){const r=function(t,e,n){return Math.round(H(t,e,n))}(t,e,n);return r<=0?0:r>=255?255:r}function tt(t,e,n){return 0===t?e:1===t?n:{r:K(t,e.r,n.r),g:K(t,e.g,n.g),b:K(t,e.b,n.b),a:H(t,null==e.a?1:e.a,null==n.a?1:n.a)}}function et(t,e,n){let r=e.length;if(r!==n.length)return U(t,e,n);let i=new Array(r);for(let s=0;s<r;s++)i[s]=H(t,e[s],n[s]);return i}function nt(t,e){const n=[];for(let r=0;r<t;r++)n.push(e);return n}function rt(t,e){if(--e<=0)return t;const n=(t=Object.assign([],t)).length;do{for(let e=0;e<n;e++)t.push(t[e])}while(--e>0);return t}class it{constructor(t){this.list=t,this.length=t.length}setAttribute(t,e){const n=this.list;for(let r=0;r<this.length;r++)n[r].setAttribute(t,e)}removeAttribute(t){const e=this.list;for(let n=0;n<this.length;n++)e[n].removeAttribute(t)}style(t,e){const n=this.list;for(let r=0;r<this.length;r++)n[r].style[t]=e}}const st=/-./g,ot=(t,e)=>e.toUpperCase();let ut;function lt(t){return"function"==typeof t?t:U}function at(t){return t?"function"==typeof t?t:Array.isArray(t)?function(t,e=T){if(!Array.isArray(t))return e;switch(t.length){case 1:return V(t[0])||e;case 2:return V(t[0],t[1])||e;case 4:return F(t[0],t[1],t[2],t[3])||e}return e}(t,null):function(t,e,n=T){switch(t){case"linear":return T;case"steps":return V(e.steps||1,e.jump||0)||n;case"bezier":case"cubic-bezier":return F(e.x1||0,e.y1||0,e.x2||0,e.y2||0)||n}return n}(t.type,t.value,null):null}function ct(t,e,n,r=!1){const i=e.length-1;if(t<=e[0].t)return r?[0,0,e[0].v]:e[0].v;if(t>=e[i].t)return r?[i,1,e[i].v]:e[i].v;let s,o=e[0],u=null;for(s=1;s<=i;s++){if(!(t>e[s].t)){u=e[s];break}o=e[s]}return null==u?r?[i,1,e[i].v]:e[i].v:o.t===u.t?r?[s,1,u.v]:u.v:(t=(t-o.t)/(u.t-o.t),o.e&&(t=o.e(t)),r?[s,t,n(t,o.v,u.v)]:n(t,o.v,u.v))}function ft(t,e,n=null){return t&&t.length?"function"!=typeof e?null:("function"!=typeof n&&(n=null),r=>{let i=ct(r,t,e);return null!=i&&n&&(i=n(i)),i}):null}function ht(t,e){return t.t-e.t}function dt(t,e,n,r,i){const s="@"===n[0],o="#"===n[0];let u=ut[n],l=U;var a;switch(s?(a=n.substr(1),n=a.replace(st,ot)):o&&(n=n.substr(1)),typeof u){case"function":if(l=u(r,i,ct,at,n,s,e,t),o)return l;break;case"string":l=ft(r,lt(u));break;case"object":if(l=ft(r,lt(u.i),u.f),l&&"function"==typeof u.u)return u.u(e,l,n,s,t)}return l?function(t,e,n,r=!1){if(r)return t instanceof it?r=>t.style(e,n(r)):r=>t.style[e]=n(r);if(Array.isArray(e)){const r=e.length;return i=>{const s=n(i);if(null==s)for(let n=0;n<r;n++)t[n].removeAttribute(e);else for(let n=0;n<r;n++)t[n].setAttribute(e,s)}}return r=>{const i=n(r);null==i?t.removeAttribute(e):t.setAttribute(e,i)}}(e,n,l,s):null}function gt(t,e,n,r){if(!r||"object"!=typeof r)return null;let i=null,s=null;return Array.isArray(r)?s=function(t){if(!t||!t.length)return null;for(let e=0;e<t.length;e++)t[e].e&&(t[e].e=at(t[e].e));return t.sort(ht)}(r):(s=r.keys,i=r.data||null),s?dt(t,e,n,s,i):null}function pt(t,e,n){if(!n)return null;const r=[];for(const i in n)if(n.hasOwnProperty(i)){const s=gt(t,e,i,n[i]);s&&r.push(s)}return r.length?r:null}function yt(t,e){if(!e.settings.duration||e.settings.duration<0)return null;const n=function(t,e){if(!e)return null;let n=[];if(Array.isArray(e)){const r=e.length;for(let i=0;i<r;i++){const r=e[i];if(2!==r.length)continue;let s=null;if("string"==typeof r[0])s=t.getElementById(r[0]);else if(Array.isArray(r[0])){s=[];for(let e=0;e<r[0].length;e++)if("string"==typeof r[0][e]){const n=t.getElementById(r[0][e]);n&&s.push(n)}s=s.length?1===s.length?s[0]:new it(s):null}if(!s)continue;const o=pt(t,s,r[1]);o&&(n=n.concat(o))}}else for(const r in e){if(!e.hasOwnProperty(r))continue;const i=t.getElementById(r);if(!i)continue;const s=pt(t,i,e[r]);s&&(n=n.concat(s))}return n.length?n:null}(t,e.elements);return n?function(t,e){const n=e.duration,r=t.length;let i=null;return(s,o)=>{const u=e.iterations||1/0,l=(e.alternate&&u%2==0)^e.direction>0?n:0;let a=s%n,c=1+(s-a)/n;o*=e.direction,e.alternate&&c%2==0&&(o=-o);let f=!1;if(c>u)a=l,f=!0,-1===e.fill&&(a=e.direction>0?0:n);else if(o<0&&(a=n-a),a===i)return!1;i=a;for(let e=0;e<r;e++)t[e](a);return f}}(n,e.settings):null}function mt(t,e=document,n=0){const r=function(t,e){const n=e.querySelectorAll("svg");for(let e=0;e<n.length;e++)if(n[e].id===t.root&&!n[e].svgatorAnimation)return n[e].svgatorAnimation=!0,n[e];return null}(t,e);if(r)return r;if(n>=20)return null;const i=function(t){const e=t=>t.shadowRoot;return document?Array.from(t.querySelectorAll(":not("+["a","area","audio","br","canvas","circle","datalist","embed","g","head","hr","iframe","img","input","link","object","path","polygon","rect","script","source","style","svg","title","track","video"].join()+")")).filter(e).map(e):[]}(e);for(let e=0;e<i.length;e++){const r=mt(t,i[e],n+1);if(r)return r}return null}function vt(t,e=null,n=Number,r="undefined"!=typeof BigInt&&BigInt){const i="0x"+(t.replace(/[^0-9a-fA-F]+/g,"")||27);return e&&r&&n.isSafeInteger&&!n.isSafeInteger(+i)?n(r(i))%e+e:+i}function bt(t,e=27){return!t||t%e?t%e:[0,1].includes(e)?e:bt(t/e,e)}function wt(t,e,n){if(!t||!t.length)return;const r=vt(n),i=bt(r)+5;let s=function(t,e,n){let r="";for(;t&&n&&e<=t.length;)r+=t.substring(0,e),t=t.substring(e+1),e=n;return r+t}(t,bt(r,5),i);return s=s.replace(/\x7c$/g,"==").replace(/\x2f$/g,"="),s=atob(s),s=s.replace(/[\x41-\x5A]/g,""),s=function(t,e,n){const r=+("0x"+t.substring(0,4));t=t.substring(4);const i=vt(e,r)%r+n%27,s=[];for(let e=0;e<t.length;e+=2){if("|"===t[e]){const n=+("0x"+t.substring(e+1,e+1+4))-i;e+=3,s.push(n);continue}const n=+("0x"+t[e]+t[e+1])-i;s.push(n)}return String.fromCharCode(...s)}(s,e,r),s=JSON.parse(s),s}const xt=[{key:"alternate",def:!1},{key:"fill",def:1},{key:"iterations",def:0},{key:"direction",def:1},{key:"speed",def:1},{key:"fps",def:100}];function At(t){return n(t)+""}function _t(t,e=" "){return t&&t.length?t.map(At).join(e):""}function kt(t){return At(t.x)+","+At(t.y)}function St(t){return t?null==t.a||t.a>=1?function(t){if(!t)return"transparent";const e=t=>parseInt(t).toString(16).padStart(2,"0");return function(t){const e=[];let n="#"===t[0]?e.push("#"):0;for(;n<t.length;n+=2){if(t[n]!==t[n+1])return t;e.push(t[n])}return e.join("")}("#"+e(t.r)+e(t.g)+e(t.b)+(null==t.a||t.a>=1?"":e(255*t.a)))}(t):"rgba("+t.r+","+t.g+","+t.b+","+t.a+")":"transparent"}function Et(t){return t?"url(#"+t+")":"none"}!function(){for(var t=0,e=["ms","moz","webkit","o"],n=0;n<e.length&&!window.requestAnimationFrame;++n)window.requestAnimationFrame=window[e[n]+"RequestAnimationFrame"],window.cancelAnimationFrame=window[e[n]+"CancelAnimationFrame"]||window[e[n]+"CancelRequestAnimationFrame"];window.requestAnimationFrame||(window.requestAnimationFrame=function(e){var n=Date.now(),r=Math.max(0,16-(n-t)),i=window.setTimeout((function(){e(n+r)}),r);return t=n+r,i},window.cancelAnimationFrame=window.clearTimeout)}();var Ot={f:null,i:Z,u:(t,e)=>n=>{const r=e(n);t.setAttribute("rx",At(r.x)),t.setAttribute("ry",At(r.y))}},It={f:null,i:function(t,e,n){return 0===t?e:1===t?n:{width:J(t,e.width,n.width),height:J(t,e.height,n.height)}},u:(t,e)=>n=>{const r=e(n);t.setAttribute("width",At(r.width)),t.setAttribute("height",At(r.height))}};Object.freeze({M:2,L:2,Z:0,H:1,V:1,C:6,Q:4,T:2,S:4,A:7});let Mt={},jt=null;function Bt(t){let e=function(){if(jt)return jt;if("object"!=typeof document||!document.createElementNS)return{};let t=document.createElementNS("http://www.w3.org/2000/svg","svg");return t&&t.style?(t.style.position="absolute",t.style.opacity="0.01",t.style.zIndex="-9999",t.style.left="-9999px",t.style.width="1px",t.style.height="1px",jt={svg:t},jt):{}}().svg;if(!e)return function(t){return null};let n=document.createElementNS(e.namespaceURI,"path");n.setAttributeNS(null,"d",t),n.setAttributeNS(null,"fill","none"),n.setAttributeNS(null,"stroke","none"),e.appendChild(n);let r=n.getTotalLength();return function(t){let e=n.getPointAtLength(r*t);return{x:e.x,y:e.y}}}function Nt(t,e,n,r,i=1){let s=function(t){return Mt[t]?Mt[t]:Mt[t]=Bt(t)}(function(t,e,n,r){if(!t||!r)return!1;let i=["M",t.x,t.y];if(e&&n&&(i.push("C"),i.push(e.x),i.push(e.y),i.push(n.x),i.push(n.y)),e?!n:n){let t=e||n;i.push("Q"),i.push(t.x),i.push(t.y)}return e||n||i.push("L"),i.push(r.x),i.push(r.y),i.join(" ")}(t,e,n,r));try{return s(i)}catch(t){return null}}function Tt(t,e,n){return t+(e-t)*n}function Pt(t,e,n,r=!1){const i={x:Tt(t.x,e.x,n),y:Tt(t.y,e.y,n)};return r&&(i.a=function(t,e){return Math.atan2(e.y-t.y,e.x-t.x)}(t,e)),i}function Ft(t,e,n,r){const i=1-r;return i*i*t+2*i*r*e+r*r*n}function Rt(t,e,n,r){return 2*(1-r)*(e-t)+2*r*(n-e)}function Ct(t,e,n,r,i=!1){let s=Nt(t,e,null,n,r);return s||(s={x:Ft(t.x,e.x,n.x,r),y:Ft(t.y,e.y,n.y,r)}),i&&(s.a=function(t,e,n,r){return Math.atan2(Rt(t.y,e.y,n.y,r),Rt(t.x,e.x,n.x,r))}(t,e,n,r)),s}function Vt(t,e,n,r,i){const s=i*i;return i*s*(r-t+3*(e-n))+3*s*(t+n-2*e)+3*i*(e-t)+t}function Dt(t,e,n,r,i){const s=1-i;return 3*(s*s*(e-t)+2*s*i*(n-e)+i*i*(r-n))}function $t(t,e,n,r,i,s=!1){let o=Nt(t,e,n,r,i);return o||(o={x:Vt(t.x,e.x,n.x,r.x,i),y:Vt(t.y,e.y,n.y,r.y,i)}),s&&(o.a=function(t,e,n,r,i){return Math.atan2(Dt(t.y,e.y,n.y,r.y,i),Dt(t.x,e.x,n.x,r.x,i))}(t,e,n,r,i)),o}function Lt(t,e,n,r=!1){if(zt(e)){if(Gt(n))return Ct(e,n.start,n,t,r)}else if(zt(n)){if(Wt(e))return Ct(e,e.end,n,t,r)}else{if(Wt(e))return Gt(n)?$t(e,e.end,n.start,n,t,r):Ct(e,e.end,n,t,r);if(Gt(n))return Ct(e,n.start,n,t,r)}return Pt(e,n,t,r)}function qt(t,e,n){const r=Lt(t,e,n,!0);return r.a=o(function(t,e=!1){return e?t+Math.PI:t}(r.a)),r}function zt(t){return!t.type||"corner"===t.type}function Gt(t){return null!=t.start&&!zt(t)}function Wt(t){return null!=t.end&&!zt(t)}const Yt=new class{constructor(t=1,e=0,n=0,r=1,i=0,s=0){this.m=[t,e,n,r,i,s],this.i=null,this.w=null,this.s=null}get determinant(){const t=this.m;return t[0]*t[3]-t[1]*t[2]}get isIdentity(){if(null===this.i){const t=this.m;this.i=1===t[0]&&0===t[1]&&0===t[2]&&1===t[3]&&0===t[4]&&0===t[5]}return this.i}point(t,e){const n=this.m;return{x:n[0]*t+n[2]*e+n[4],y:n[1]*t+n[3]*e+n[5]}}translateSelf(t=0,e=0){if(!t&&!e)return this;const n=this.m;return n[4]+=n[0]*t+n[2]*e,n[5]+=n[1]*t+n[3]*e,this.w=this.s=this.i=null,this}rotateSelf(t=0){if(t%=360){t=s(t);const e=D(t),n=$(t),r=this.m,i=r[0],o=r[1];r[0]=i*n+r[2]*e,r[1]=o*n+r[3]*e,r[2]=r[2]*n-i*e,r[3]=r[3]*n-o*e,this.w=this.s=this.i=null}return this}scaleSelf(t=1,e=1){if(1!==t||1!==e){const n=this.m;n[0]*=t,n[1]*=t,n[2]*=e,n[3]*=e,this.w=this.s=this.i=null}return this}skewSelf(t,e){if(e%=360,(t%=360)||e){const n=this.m,r=n[0],i=n[1],o=n[2],u=n[3];t&&(t=z(s(t)),n[2]+=r*t,n[3]+=i*t),e&&(e=z(s(e)),n[0]+=o*e,n[1]+=u*e),this.w=this.s=this.i=null}return this}resetSelf(t=1,e=0,n=0,r=1,i=0,s=0){const o=this.m;return o[0]=t,o[1]=e,o[2]=n,o[3]=r,o[4]=i,o[5]=s,this.w=this.s=this.i=null,this}recomposeSelf(t=null,e=null,n=null,r=null,i=null){return this.isIdentity||this.resetSelf(),t&&(t.x||t.y)&&this.translateSelf(t.x,t.y),e&&this.rotateSelf(e),n&&(n.x&&this.skewSelf(n.x,0),n.y&&this.skewSelf(0,n.y)),!r||1===r.x&&1===r.y||this.scaleSelf(r.x,r.y),i&&(i.x||i.y)&&this.translateSelf(i.x,i.y),this}decompose(t=0,e=0){const r=this.m,i=r[0]*r[0]+r[1]*r[1],s=[[r[0],r[1]],[r[2],r[3]]];let u=W(i);if(0===u)return{origin:{x:n(r[4]),y:n(r[5])},translate:{x:n(t),y:n(e)},scale:{x:0,y:0},skew:{x:0,y:0},rotate:0};s[0][0]/=u,s[0][1]/=u;const l=r[0]*r[3]-r[1]*r[2]<0;l&&(u=-u);let a=s[0][0]*s[1][0]+s[0][1]*s[1][1];s[1][0]-=s[0][0]*a,s[1][1]-=s[0][1]*a;let c,f=W(s[1][0]*s[1][0]+s[1][1]*s[1][1]);return 0===f?{origin:{x:n(r[4]),y:n(r[5])},translate:{x:n(t),y:n(e)},scale:{x:n(u),y:0},skew:{x:0,y:0},rotate:0}:(s[1][0]/=f,s[1][1]/=f,a/=f,s[1][1]<0?(c=o(L(s[1][1])),s[0][1]<0&&(c=360-c)):c=o(q(s[0][1])),l&&(c=-c),a=o(G(a,W(s[0][0]*s[0][0]+s[0][1]*s[0][1]))),l&&(a=-a),{origin:{x:n(r[4]),y:n(r[5])},translate:{x:n(t),y:n(e)},scale:{x:n(u),y:n(f)},skew:{x:n(a),y:0},rotate:n(c)})}multiply(t){return this.clone().multiplySelf(t)}preMultiply(t){return t.multiply(this)}multiplySelf(t){const{a:e,b:n,c:r,d:i,tx:s,ty:o}=Y(this.m,t.m);return this.resetSelf(e,n,r,i,s,o),this}preMultiplySelf(t){const{a:e,b:n,c:r,d:i,tx:s,ty:o}=Y(t.m,this.m);return this.resetSelf(e,n,r,i,s,o),this}clone(){const t=this.m;return new this.constructor(t[0],t[1],t[2],t[3],t[4],t[5])}static create(t){return t?Array.isArray(t)?new this(...t):t instanceof this?t.clone():(new this).recomposeSelf(t.origin,t.rotate,t.skew,t.scale,t.translate):new this}toString(t=" ",e=!1){if(null===this.s){let r=this.m.map((t=>n(t)));e||1!==r[0]||0!==r[1]||0!==r[2]||1!==r[3]?this.s="matrix("+r.join(t)+")":this.s="translate("+r[4]+t+r[5]+")"}return this.s}};var Ut={f:function(t){return t?t.join(" "):""},i:function(t,e,n){if(0===t)return e;if(1===t)return n;let r=e.length;if(r!==n.length)return U(t,e,n);let i,s=new Array(r);for(let o=0;o<r;o++){if(i=typeof e[o],i!==typeof n[o])return U(t,e,n);if("number"===i)s[o]=H(t,e[o],n[o]);else{if(e[o]!==n[o])return U(t,e,n);s[o]=e[o]}}return s}},Ht={f:null,i:et,u:(t,e)=>n=>{const r=e(n);t.setAttribute("x1",At(r[0])),t.setAttribute("y1",At(r[1])),t.setAttribute("x2",At(r[2])),t.setAttribute("y2",At(r[3]))}},Jt={f:At,i:H},Qt={f:At,i:Q},Xt={f:function(t,e=" "){return t&&t.length>0&&(t=t.map((t=>n(t,4)))),_t(t,e)},i:function(t,e,r){let i=e.length,s=r.length;if(i!==s)if(0===i)i=s,e=nt(i,0);else if(0===s)s=i,r=nt(i,0);else{const t=function(t,e){const n=t*e/function(t,e){let n;for(;e;)n=e,e=t%e,t=n;return t||1}(t,e);return n<0?-n:n}(i,s);e=rt(e,Math.floor(t/i)),r=rt(r,Math.floor(t/s)),i=s=t}let o=[];for(let s=0;s<i;s++)o.push(n(J(t,e[s],r[s])));return o}};function Zt(t,e,r){return t.map((t=>function(t,e,r){let i=t.v;if(!i||"g"!==i.t||i.s||!i.v||!i.r)return t;const s=r.getElementById(i.r),o=s&&s.querySelectorAll("stop")||[];return i.s=i.v.map(((t,e)=>{let r=o[e]&&o[e].getAttribute("offset");return r=n(parseInt(r)/100),{c:t,o:r}})),delete i.v,t}(t,0,r)))}const Kt={gt:"gradientTransform",c:{x:"cx",y:"cy"},rd:"r",f:{x:"x1",y:"y1"},to:{x:"x2",y:"y2"}};function te(t,e,n,r,i,s,o,u){return Zt(t,0,u),e=function(t,e,n){let r,i,s;const o=t.length-1,u={};for(let l=0;l<=o;l++)r=t[l],r.e&&(r.e=e(r.e)),r.v&&(i=r.v,"g"===i.t&&i.r&&(s=n.getElementById(i.r),s&&(u[i.r]={e:s,s:s.querySelectorAll("stop")})));return u}(t,r,u),r=>{const i=n(r,t,ee);if(!i)return"none";if("c"===i.t)return St(i.v);if("g"===i.t){if(!e[i.r])return Et(i.r);const t=e[i.r];return function(t,e){let n=t.s;for(let r=n.length;r<e.length;r++){const e=n[n.length-1].cloneNode();e.id=ie(e.id),t.e.appendChild(e),n=t.s=t.e.querySelectorAll("stop")}for(let t=0,r=n.length,i=e.length-1;t<r;t++)n[t].setAttribute("stop-color",St(e[Math.min(t,i)].c)),n[t].setAttribute("offset",e[Math.min(t,i)].o)}(t,i.s),Object.keys(Kt).forEach((e=>{if(void 0===i[e])return;if("object"==typeof Kt[e])return void Object.keys(Kt[e]).forEach((n=>{if(void 0===i[e][n])return;const r=i[e][n],s=Kt[e][n];t.e.setAttribute(s,r)}));const n="gt"===e?(r=i[e],Array.isArray(r)?"matrix("+r.join(" ")+")":""):i[e];var r;const s=Kt[e];t.e.setAttribute(s,n)})),Et(i.r)}return"none"}}function ee(t,e,n){if(0===t)return e;if(1===t)return n;if(e&&n){const r=e.t;if(r===n.t)switch(e.t){case"c":return{t:r,v:tt(t,e.v,n.v)};case"g":if(e.r===n.r){const i={t:r,s:ne(t,e.s,n.s),r:e.r};return e.gt&&n.gt&&(i.gt=et(t,e.gt,n.gt)),e.c?(i.c=X(t,e.c,n.c),i.rd=J(t,e.rd,n.rd)):e.f&&(i.f=X(t,e.f,n.f),i.to=X(t,e.to,n.to)),i}}if("c"===e.t&&"g"===n.t||"c"===n.t&&"g"===e.t){const r="c"===e.t?e:n,i="g"===e.t?{...e}:{...n},s=i.s.map((t=>({c:r.v,o:t.o})));return i.s="c"===e.t?ne(t,s,i.s):ne(t,i.s,s),i}}return U(t,e,n)}function ne(t,e,n){if(e.length===n.length)return e.map(((e,r)=>re(t,e,n[r])));const r=Math.max(e.length,n.length),i=[];for(let s=0;s<r;s++){const r=re(t,e[Math.min(s,e.length-1)],n[Math.min(s,n.length-1)]);i.push(r)}return i}function re(t,e,n){return{o:Q(t,e.o,n.o||0),c:tt(t,e.c,n.c||{})}}function ie(t){return t.replace(/-fill-([0-9]+)$/,((t,e)=>"-fill-"+(+e+1)))}function se(t,e,n){return 0===t?e:1===t?n:{blur:Z(t,e.blur,n.blur),offset:X(t,e.offset,n.offset),color:tt(t,e.color,n.color)}}const oe={blur:Z,brightness:J,contrast:J,"drop-shadow":se,"inner-shadow":se,grayscale:J,"hue-rotate":H,invert:J,opacity:J,saturate:J,sepia:J};function ue(t,e,n){if(0===t)return e;if(1===t)return n;const r=e.length;if(r!==n.length)return U(t,e,n);const i=[];let s;for(let o=0;o<r;o++){if(e[o].type!==n[o].type)return e;if(s=oe[e[o].type],!s)return U(t,e,n);i.push({type:e.type,value:s(t,e[o].value,n[o].value)})}return i}const le={blur:t=>t?e=>{t.setAttribute("stdDeviation",kt(e))}:null,brightness:(t,e,n)=>(t=ce(n,e))?e=>{e=At(e),t.map((t=>t.setAttribute("slope",e)))}:null,contrast:(t,e,n)=>(t=ce(n,e))?e=>{const n=At((1-e)/2);e=At(e),t.map((t=>{t.setAttribute("slope",e),t.setAttribute("intercept",n)}))}:null,"drop-shadow"(t,e,n){const r=n.getElementById(e+"-blur");if(!r)return null;const i=n.getElementById(e+"-offset");if(!i)return null;const s=n.getElementById(e+"-flood");return s?t=>{r.setAttribute("stdDeviation",kt(t.blur)),i.setAttribute("dx",At(t.offset.x)),i.setAttribute("dy",At(t.offset.y)),s.setAttribute("flood-color",St(t.color))}:null},"inner-shadow"(t,e,n){const r=n.getElementById(e+"-blur");if(!r)return null;const i=n.getElementById(e+"-offset");if(!i)return null;const s=n.getElementById(e+"-color-matrix");return s?t=>{r.setAttribute("stdDeviation",kt(t.blur)),i.setAttribute("dx",At(t.offset.x)),i.setAttribute("dy",At(t.offset.y));const e=[0,0,0,0,t.color.r/255,0,0,0,0,t.color.g/255,0,0,0,0,t.color.b/255,0,0,0,t.color.a,0];s.setAttribute("values",_t(e))}:null},grayscale:t=>t?e=>{t.setAttribute("values",_t(function(t){return[.2126+.7874*(t=1-t),.7152-.7152*t,.0722-.0722*t,0,0,.2126-.2126*t,.7152+.2848*t,.0722-.0722*t,0,0,.2126-.2126*t,.7152-.7152*t,.0722+.9278*t,0,0,0,0,0,1,0]}(e)))}:null,"hue-rotate":t=>t?e=>t.setAttribute("values",At(e)):null,invert:(t,e,n)=>(t=ce(n,e))?e=>{e=At(e)+" "+At(1-e),t.map((t=>t.setAttribute("tableValues",e)))}:null,opacity:(t,e,n)=>(t=n.getElementById(e+"-A"))?e=>t.setAttribute("tableValues","0 "+At(e)):null,saturate:t=>t?e=>t.setAttribute("values",At(e)):null,sepia:t=>t?e=>t.setAttribute("values",_t(function(t){return[.393+.607*(t=1-t),.769-.769*t,.189-.189*t,0,0,.349-.349*t,.686+.314*t,.168-.168*t,0,0,.272-.272*t,.534-.534*t,.131+.869*t,0,0,0,0,0,1,0]}(e))):null};const ae=["R","G","B"];function ce(t,e){const n=ae.map((n=>t.getElementById(e+"-"+n)||null));return-1!==n.indexOf(null)?null:n}var fe={fill:te,"fill-opacity":Qt,stroke:te,"stroke-opacity":Qt,"stroke-width":Jt,"stroke-dashoffset":{f:At,i:H},"stroke-dasharray":Xt,opacity:Qt,transform:function(t,e,n,r){if(!(t=function(t,e){if(!t||"object"!=typeof t)return null;let n=!1;for(const r in t)t.hasOwnProperty(r)&&(t[r]&&t[r].length?(t[r].forEach((t=>{t.e&&(t.e=e(t.e))})),n=!0):delete t[r]);return n?t:null}(t,r)))return null;const i=(r,i,s,o=null)=>t[r]?n(i,t[r],s):e&&e[r]?e[r]:o;return e&&e.a&&t.o?e=>{const r=n(e,t.o,qt);return Yt.recomposeSelf(r,i("r",e,H,0)+r.a,i("k",e,X),i("s",e,X),i("t",e,X)).toString()}:t=>Yt.recomposeSelf(i("o",t,Lt,null),i("r",t,H,0),i("k",t,X),i("s",t,X),i("t",t,X)).toString()},"#filter":function(t,e,n,r,i,s,o,u){if(!e.items||!t||!t.length)return null;const l=function(t,e){const n=(t=t.map((t=>t&&le[t[0]]?(e.getElementById(t[1]),le[t[0]](e.getElementById(t[1]),t[1],e)):null))).length;return e=>{for(let r=0;r<n;r++)t[r]&&t[r](e[r].value)}}(e.items,u);return l?(t=function(t,e){return t.map((t=>(t.e=e(t.e),t)))}(t,r),e=>{l(n(e,t,ue))}):null},"#line":Ht,points:{f:_t,i:et},d:Ut,r:Jt,"#size":It,"#radius":Ot,_(t,e){if(Array.isArray(t))for(let n=0;n<t.length;n++)this[t[n]]=e;else this[t]=e}};const he={currentTime:"offset",duration:"duration",hasEnded:function(){return this.reachedToEnd()},isAlternate:"alternate",isPlaying:"_running",isRollingBack:"_rollingBack",state:function(t,e){return e.isPlaying?e.isRollingBack?"rollback":"playing":e.hasEnded?"ended":"paused"},totalTime:"maxFiniteDuration",iterations:"iterations",direction:"direction",fill:"fill",isReversed:function(t,e){return-1===e.direction},isBackwards:function(t,e){return-1===e.fill},isInfinite:function(t,e){return 0===e.iterations},speed:"speed",fps:"fps"},de={destruct:"destruct",pause:"pause",play:function(t,e){return ge(t,e.hasEnded?"restart":"play",e)},restart:"restart",reverse:function(t,e){return ge(t,"reverse",e,[!0])},seek:"seek",seekBy:"seekBy",seekTo:"seekTo",stop:"stop",toggle:"toggle",togglePlay:"toggle",set:"set"};function ge(t,e,n,r=[]){return function(){const i=[...arguments];return i.unshift(...r),t[e].call(t,...i),n}}class pe{constructor(t){const e={},n=["on","off"],r={get:function(t,r,i){return he[r]?"function"==typeof he[r]?he[r].call(t,t,i):t[he[r]]:de[r]?"function"==typeof de[r]?de[r].call(t,t,i):ge(t,de[r],i):-1!==n.indexOf(r)?e[r]:"ready"===r?t=>(t&&t.call(i,i),i):void 0},set:function(t,r,i){return-1!==n.indexOf(r)&&(e[r]=i)},ownKeys:function(t){return Object.keys(he)},has:function(t,e){return void 0!==he[e]}};if("function"==typeof Proxy)return new Proxy(t,r);const i=Object.keys(he).concat(Object.keys(de)).concat(n),s={};return i.forEach((e=>{const i={enumerable:!1,configurable:!1,get:()=>r.get(t,e,s)};-1!==n.indexOf(e)&&(i.set=n=>r.set(t,e,n)),Object.defineProperty(s,e,i)})),s}}function ye(t){t||(t=this);let e={};this.on=function(t,n,r=!1){return"function"==typeof n&&(t.split(/[, ]+/g).forEach((t=>(e[t]=e[t]||[],r?e[t].unshift(n):e[t].push(n)))),!0)},this.off=function(t,n){for(let r in e)if(e.hasOwnProperty(r)&&r.substr(0,t.length)===t)if(n)for(let t=0;t<e[r].length;t++)e[r][t]===n&&(e[r][t]=null);else e[r]=null},this.trigger=function(){let n,[r,...i]=[...arguments];t:for(let s in e)if(e.hasOwnProperty(s)&&e[s]&&(s===r||s.substr(0,r.length+1)===r+"."))for(let r=0;r<(e[s]||[]).length;r++)if(e[s][r]&&(n=e[s][r].apply(t,i),!1===n))break t;return n}}let me=function(t,e,n=n){let r=!1,i=null;return function(s){r&&clearTimeout(r),r=setTimeout((()=>function(){let s=0,o=n.innerHeight,u=0,l=n.innerWidth,a=t.parentNode;for(;a instanceof Element;){let t=n.getComputedStyle(a);if("visible"!==t.overflowY||"visible"!==t.overflowX){let e=a.getBoundingClientRect();"visible"!==t.overflowY&&(s=Math.max(s,e.top),o=Math.min(o,e.bottom)),"visible"!==t.overflowX&&(u=Math.max(u,e.left),l=Math.min(l,e.right))}if(a===a.parentNode)break;a=a.parentNode}r=!1;let c=t.getBoundingClientRect(),f=Math.min(c.height,Math.max(0,s-c.top)),h=Math.min(c.height,Math.max(0,c.bottom-o)),d=Math.min(c.width,Math.max(0,u-c.left)),g=Math.min(c.width,Math.max(0,c.right-l)),p=(c.height-f-h)/c.height,y=(c.width-d-g)/c.width,m=Math.round(p*y*100);null!==i&&i===m||(i=m,e(m))}()),100)}};class ve{constructor(t,e,n){const r=function(t){var e,n;const r=t&&1===(null===(e=t.ownerDocument)||void 0===e||null===(n=e.childNodes)||void 0===n?void 0:n.length)&&window.parent!==window,i={el:t,window:window};if(!r)return i;let s;try{s=window.parent.document}catch(t){return i}return i.window=window.parent,i.el=Array.from(s.querySelectorAll("iframe,object")).filter((t=>t.contentWindow===window))[0]||i.el,i}(t);e=Math.max(1,e||1),e=Math.min(e,100),this.el=r.el,this._handlers=[],this.onThresholdChange=n&&n.call?n:()=>{},this.thresholdPercent=e||1,this.currentVisibility=null,this.visibilityCalculator=me(this.el,this.onVisibilityUpdate.bind(this),r.window),this.bindScrollWatchers(),this.visibilityCalculator()}bindScrollWatchers(){let t=this.el.parentNode;for(;t&&(this._handlers.push({element:t,event:"scroll",handler:this.visibilityCalculator}),t.addEventListener("scroll",this.visibilityCalculator),t!==t.parentNode&&t!==document);)t=t.parentNode}onVisibilityUpdate(t){let e=this.currentVisibility>=this.thresholdPercent,n=t>=this.thresholdPercent;if(null===this.currentVisibility||e!==n)return this.currentVisibility=t,void this.onThresholdChange(n);this.currentVisibility=t}destruct(){this._handlers.forEach((t=>{t.element.removeEventListener(t.event,t.handler)}))}}class be{static adjustLink(t){var e,n;const r=t&&1===(null===(e=t.ownerDocument)||void 0===e||null===(n=e.childNodes)||void 0===n?void 0:n.length)&&window.parent!==window,i=null==t?void 0:t.firstElementChild;r&&i&&"a"===i.tagName&&!i.getAttribute("target")&&i.setAttributeNS(null,"target","_parent")}static autoPlay(t,e,n,r=[]){if("click"===n.start){const i=()=>{switch(n.click){case"freeze":return!t._running&&t.reachedToEnd()?t.restart():t.toggle();case"restart":return t.offset>0?t.restart():t.play();case"reverse":return t._running?t.reverse():t.reachedToEnd()?1===t.fill?t.reverse(!0):t.restart():t.play();case"none":default:if(t._running)return;return t.reachedToEnd()?t.restart():t.play()}};return r.push({element:e,event:"click",handler:i}),void e.addEventListener("click",i)}if("hover"===n.start){const i=()=>t.reachedToEnd()?t.restart():t._rollingBack?t.reverse():t.play();r.push({element:e,event:"mouseenter",handler:i}),e.addEventListener("mouseenter",i);const s=()=>{switch(n.hover){case"freeze":return t.pause();case"reset":return t.stop();case"reverse":if(t.reverse(),t._running)return;return t.play();case"none":default:return}};return r.push({element:e,event:"mouseleave",handler:s}),void e.addEventListener("mouseleave",s)}if("scroll"!==n.start)"programmatic"!==n.start&&t.play();else{const i=new ve(e,n.scroll||25,(function(e){e?t.reachedToEnd()?t.restart():t.play():t.pause()}));r.push({callback:()=>i.destruct()})}}}const we=!0,xe=["iterations","speed","fps","direction","fill","alternate"];class Ae extends class{_svg;_rootId;constructor(t){this._id=0,this._running=!1,this._rollingBack=!1,this._animations=t.animations,this._settings=t.animationSettings,t.version<"2022-05-02"&&delete this._settings.speed,xt.forEach((t=>{this._settings[t.key]=this._settings[t.key]||t.def})),this.duration=t.animationSettings.duration,this.offset=t.animationSettings.offset||0,this.rollbackStartOffset=0,this._rootId=t.root,this._svg=t.svg,this._originalAnimations=t.originalAnimations,this._fTC=new N(this)}get svg(){return this._svg}get rootId(){return this._rootId}get alternate(){return this._settings.alternate}get fill(){return this._settings.fill}get iterations(){return this._settings.iterations}get direction(){return this._settings.direction}get speed(){return this._settings.speed}get fps(){return this._settings.fps}get wD(){return this._settings.w}get originalAnimations(){return this._originalAnimations}get maxFiniteDuration(){return this.iterations>0?this.iterations*this.duration:this.duration}static build(t,e){if(delete t.animationSettings,t.options=wt(t.options,t.root,"7c8cb2ed"),t.animations.map((e=>{e.settings=wt(e.s,t.root,"7c8cb2ed"),delete e.s,t.animationSettings||(t.animationSettings=e.settings)})),Object.assign(t,{originalAnimations:t.animations},function(t,e){if(ut=e,!t||!t.root||!Array.isArray(t.animations))return null;const n=mt(t);if(!n)return null;const r=t.animations.map((t=>yt(n,t))).filter((t=>!!t));return r.length?{svg:n,animations:r}:null}(t,e)),!t)return null;const n=t.options||{},r=new this(t);return{el:t.svg,options:n,player:r}}static push(t){return this.build(t)}static init(){const t=window.__SVGATOR_PLAYER__&&window.__SVGATOR_PLAYER__["7c8cb2ed"];Array.isArray(t)&&t.splice(0).forEach((t=>this.build(t)))}_apply(t,e={}){const n=this._animations,r=n.length;let i=0;for(let s=0;s<r;s++)e[s]?i++:(e[s]=n[s](t,1),e[s]&&i++);return i}_rollback(t){let e=1/0,n=null;this.rollbackStartOffset=t,this._rollingBack=!0,this._running=!0;const r=i=>{if(!this._rollingBack)return;null==n&&(n=i);let s=Math.round(t-(i-n)*this.speed);if(s>this.duration&&e!==1/0){const t=!!this.alternate&&s/this.duration%2>1;let e=s%this.duration;e+=t?this.duration:0,s=e||this.duration}const o=(this.fps?1e3/this.fps:0)*this.speed,u=Math.max(0,s);u<=e-o&&(this.offset=u,e=u,this._apply(u));const l=this.iterations>0&&-1===this.fill&&s>=this.maxFiniteDuration;(s<=0||this.offset<s||l)&&this.stop(),this._id=window.requestAnimationFrame(r)};this._id=window.requestAnimationFrame(r)}_start(t=0){let e,n=-1/0;const r={};this._running=!0;const i=s=>{e??=s;const o=Math.round((s-e)*this.speed+t),u=(this.fps?1e3/this.fps:0)*this.speed;o>=n+u&&!this._rollingBack&&this._fTC.cF(s,(()=>{this.offset=o,n=o;if(this._apply(o,r)===this._animations.length)return this.pause(!0),!0}))||(this._id=window.requestAnimationFrame(i))};this._id=window.requestAnimationFrame(i)}_pause(){this._id&&window.cancelAnimationFrame(this._id),this._running=!1}play(){if(!this._running)return this._rollingBack?this._rollback(this.offset):this._start(this.offset)}stop(){this._pause(),this.offset=0,this.rollbackStartOffset=0,this._rollingBack=!1,this._apply(0)}reachedToEnd(){return this.iterations>0&&this.offset>=this.iterations*this.duration}restart(t=!1){this.stop(t),this.play(t)}pause(){this._pause()}toggle(){return this._running?this.pause():this.reachedToEnd()?this.restart():this.play()}trigger(t,e){}_adjustOffset(t=!1){const e=this.alternate?2*this.duration:this.duration;if(t){if(!this._rollingBack&&0===this.offset)return void(this.offset=e);this._rollingBack&&(this.offset,this.maxFiniteDuration)}!this._rollingBack||this.rollbackStartOffset<=this.duration?0!==this.iterations&&(this.offset=Math.min(this.offset,this.maxFiniteDuration)):(this.offset=this.rollbackStartOffset-(this.rollbackStartOffset-this.offset)%e,this.rollbackStartOffset=0)}reverse(t=!1){if(!this._running)return this._adjustOffset(t),this._rollingBack=!this._rollingBack,t&&this.play(!1),void this.trigger("reverse",this.offset);this.pause(!1,!1),this._adjustOffset(),this._rollingBack=!this._rollingBack,this.play(!1),this.trigger("reverse",this.offset)}}{constructor(t){super(t),this._handlers=[]}static build(t){let e=super.build(t,fe);if(!e)return null;let{el:n,options:r,player:i}=e;const s=new pe(i),o=new ye(s);s.on=o.on,s.off=o.off,i.trigger=o.trigger;const u=n.svgatorPlayer&&n.svgatorPlayer.ready&&n.svgatorPlayer.ready.call&&n.svgatorPlayer.ready.call();n.svgatorPlayer=s,be.adjustLink(n),be.autoPlay(i,n,r,i._handlers),function(t,e,n){let r;"function"==typeof Event?r=new Event("ready"):(r=document.createEvent("Event"),r.initEvent("ready",!0,!0));if(t.dispatchEvent(r),!n||!n.length)return;n.forEach((t=>e.ready(t)))}(n,n.svgatorPlayer,u)}play(t=true){const e=super.play();return t===we&&this.trigger("play",this.offset),e}pause(t=!1,e=true){const n=super.pause();return e===we&&this.trigger(t?"end":"pause",this.offset),n}restart(){const t=super.restart(!1);return this.trigger("restart",this.offset),t}stop(t=true){const e=super.stop();return t===we&&this.trigger("stop",this.offset),e}_apply(t,e={},n=true){const r=super._apply(t);if(n===we){const e=()=>this.trigger("keyframe",t);window.requestAnimationFrame(e)}return r}seekTo(t){const e=this._running;var n,r,i;e&&this.pause(!1,!1),this.offset=this.iterations>0?(n=t,r=0,i=this.maxFiniteDuration,n<r?r:n>i?i:n):Math.max(t,0),this._apply(this.offset),e&&this.play(!1)}seek(t){return this.seekTo(Math.round(t/100*this.maxFiniteDuration))}seekBy(t){return this.seekTo(this.offset+t)}set(t,e){if(!xe.includes(t))return;const n=this._running;n&&this.pause(!1,!1),this._settings[t]=e,n?this.play(!1):this._apply(this.offset,{},!1)}destruct(){this.stop(),this._handlers.forEach((t=>{t.element?t.element.removeEventListener(t.event,t.handler):t.callback&&t.callback.call&&t.callback.call()}));const t=()=>{},e=Object.getOwnPropertyNames(Object.getPrototypeOf(this));e.push(...Object.getOwnPropertyNames(this)),e.forEach((e=>{"function"==typeof this[e]?this[e]=t:delete this[e]}))}}return Ae.init(),Ae}));
(function(s,i,o,w,d,a,b){w[o]=w[o]||{};w[o][s]=w[o][s]||[];w[o][s].push(i);})('7c8cb2ed',{"root":"eXozs0TEeNf1","version":"2025-04-07","animations":[{"elements":{"eXozs0TEeNf3":{"stroke-dashoffset":[{"t":0,"v":0},{"t":5000,"v":-433}]},"eXozs0TEeNf5":{"stroke-dashoffset":[{"t":0,"v":0},{"t":5000,"v":-432}]},"eXozs0TEeNf7":{"stroke-dashoffset":[{"t":0,"v":0},{"t":5000,"v":-440}]},"eXozs0TEeNf8":{"transform":{"data":{"a":1,"s":{"x":2.686417,"y":2.686408},"t":{"x":-15.563707,"y":-13.759899}},"keys":{"o":[{"t":0,"v":{"x":742.042869,"y":511.009159,"type":"cusp","end":{"x":625.479277,"y":351.788169},"a":-126.20736739178078}},{"t":5000,"v":{"x":963.101504,"y":234.036182,"type":"cusp","start":{"x":833.987375,"y":191.486258},"a":18.239780988676777}}]}},"opacity":[{"t":0,"v":0},{"t":200,"v":0.7},{"t":400,"v":1}]},"eXozs0TEeNf11":{"transform":{"data":{"a":1,"s":{"x":2.686417,"y":2.686408},"t":{"x":-15.563707,"y":-13.696203}},"keys":{"o":[{"t":0,"v":{"x":962.905591,"y":233.593985,"type":"cusp","end":{"x":975.538018,"y":238.173286},"a":19.92576591586221}},{"t":780,"v":{"x":1003.912236,"y":291.098349,"type":"cusp","start":{"x":1014.472906,"y":249.407149},"end":{"x":1000.080843,"y":306.223844}}},{"t":1600,"v":{"x":966.908325,"y":333.230316,"type":"cusp","start":{"x":984.379437,"y":322.743795},"end":{"x":935.056069,"y":349.53015}}},{"t":2900,"v":{"x":904.332682,"y":295.402432,"type":"cusp","start":{"x":896.862141,"y":347.700883},"end":{"x":916.056692,"y":213.327246}}},{"t":5000,"v":{"x":1044.322281,"y":170.227057,"type":"cusp","start":{"x":936.274367,"y":167.560852},"a":1.413551573902129}}]}}},"eXozs0TEeNf14":{"transform":{"data":{"a":1,"s":{"x":2.686417,"y":2.686408},"t":{"x":-15.563707,"y":-13.696203}},"keys":{"o":[{"t":0,"v":{"x":1043.620729,"y":171.029716,"type":"cusp","end":{"x":1148.701437,"y":171.029716},"a":0}},{"t":2400,"v":{"x":1147.608262,"y":285.861027,"type":"cusp","start":{"x":1159.581987,"y":253.183036},"end":{"x":1135.634536,"y":318.539018}}},{"t":3400,"v":{"x":1169.642674,"y":380.435407,"type":"cusp","start":{"x":1119.208351,"y":354.483765},"end":{"x":1220.076997,"y":406.387049}}},{"t":5000,"v":{"x":1243.860004,"y":455.891488,"type":"cusp","start":{"x":1243.860004,"y":440.768453},"a":90}}]}},"opacity":[{"t":4800,"v":1},{"t":4900,"v":0.34},{"t":5000,"v":0}]}},"s":"MDA1PZGUwODdjOWRhZDdjNmQ5Y2VkTNGQzODc5ZjlhOTU5NTk1OTE4BN2M5SWNlZDdjYWM4ZDljZUFkINGQzODc5Zjk2OTE4N1NjZWQ5HY2FkN2M2V2Q5Y2VBZDRkM09kGODg3OWY5NTkxUzg3Y2JjZWQxOZDE4NzlmOTY5MTg3YzZkMWQ5KY2FkN2QzYzZkOWNhODc5ZmNiKYzZkMVJkOGNhOTE4N2Q4RWQ1OY2FjYWM5ODc5ZlE5NjkxODdjBYmQ1SWQ4ODc5Zjk2OTU5NWUyY"}],"options":"MDAxPMDhmMzY4Nzg4NzVOODY4ODM2SNGVMQTM2ODA4Mzc1Ujc4MzY5HMQ|"},'__SVGATOR_PLAYER__',window,document)
]]></script>
</svg>
