<svg id="etS1rab6Qs21" xmlns="http://www.w3.org/2000/svg" xmlns:xlink="http://www.w3.org/1999/xlink" viewBox="0 0 1920 1080" shape-rendering="geometricPrecision" text-rendering="geometricPrecision" project-id="507a2dd53d7844eeb9c4c48c917cbfaf" export-id="405b8b3d9d174ecea9e06f1e14291af9" cached="false"><defs><radialGradient id="etS1rab6Qs23-stroke" cx="0" cy="0" r="0.670426" spreadMethod="pad" gradientUnits="objectBoundingBox" gradientTransform="matrix(0.998821 -0.048543 0.071908 1.479567 0.5 0.5)"><stop id="etS1rab6Qs23-stroke-0" offset="72%" stop-color="#f4b740"/><stop id="etS1rab6Qs23-stroke-1" offset="78%" stop-color="#5ac7fa"/><stop id="etS1rab6Qs23-stroke-2" offset="98%" stop-color="#5ac7fa"/></radialGradient><linearGradient id="etS1rab6Qs210-stroke" x1="0.829104" y1="0.519878" x2="1" y2="1" spreadMethod="pad" gradientUnits="objectBoundingBox" gradientTransform="translate(0 0)"><stop id="etS1rab6Qs210-stroke-0" offset="0%" stop-color="#f4b740"/><stop id="etS1rab6Qs210-stroke-1" offset="100%" stop-color="#0085fb"/></linearGradient><linearGradient id="etS1rab6Qs211-stroke" x1="0" y1="0.5" x2="0.224879" y2="0.457512" spreadMethod="pad" gradientUnits="objectBoundingBox" gradientTransform="translate(0 0)"><stop id="etS1rab6Qs211-stroke-0" offset="0%" stop-color="#0085fb"/><stop id="etS1rab6Qs211-stroke-1" offset="100%" stop-color="#f4b740"/></linearGradient></defs><path d="M1.00024,193.464C8.60152,148.884,65.1199,44.908,169.871,48.6298c121.414,4.314,129.427,88.7492,92.448,118.9492-31.696,25.885-92.448-18.399-48.073-86.8999c63.48-97.9947,222.079-97.665,266.865-41.9104c30.199,37.5956,41.91,70.8763,12.326,135.5903" transform="matrix(1.749118 0 0 1.749126-105.479472-525.937864)" fill="none" stroke="#5ac7fa" stroke-width="2" stroke-linecap="round" stroke-dasharray="8,8"/><path d="M-734.032112,-23.872844c7.60128-44.58,64.11966-148.556,168.87076-144.8342c121.414,4.314,160.558592,80.923846,123.579592,111.123846-31.696,25.885-123.579592-10.573646-79.204592-79.074546c63.48-97.9947,222.079-97.665,266.865-41.9104c30.199,37.5956,41.91,70.8763,12.326,135.5903" transform="matrix(1.749118 0 0 1.749126 738.472806 35.055911)" fill="none" stroke="url(#etS1rab6Qs23-stroke)" stroke-width="2" stroke-linecap="round" stroke-dasharray="8,8"/><g id="etS1rab6Qs24" transform="matrix(2.426065 0 0 2.426066 1115.497168 265.369326)"><rect width="30" height="30" rx="15" ry="15" transform="translate(.563708 1)" fill="none" stroke="#f4b740" stroke-width="2"/><path d="M23.1025,11.6748c1.285,1.0139,1.5385,2.7649,1.0897,4.1754-.4637,1.4557-1.7276,2.75-3.6828,2.8317-.0676.0028-.1355-.0023-.2036-.0054.0496.0743.1005.149.1463.2263.2841.48.5149,1.0681.5017,1.719-.0207.9959-.2557,1.9337-.8161,2.7076-.5665.7817-1.4057,1.3152-2.4806,1.6034-.672.18-1.492.149-2.2655-.0165-.7831-.1678-1.6062-.4925-2.287-.9854-.1183-.0856-.2859-.1958-.488-.3318l-1.035,1.622c-.2515.3946-.7763.5104-1.1708.2589-.3941-.2514-.50947-.7748-.2585-1.1692l1.0503-1.6483c-.2526-.1649-.5184-.3383-.7909-.5161-.0985-.0642-.1962-.1314-.2959-.1965L9.05552,23.529c-.26093.3875-.7868.4911-1.17486.2308-.38791-.2609-.49187-.7882-.23131-1.1764l1.04931-1.5625c-.60514-.4013-1.16979-.7813-1.61258-1.0959-.38058-.271-.47059-.8003-.20009-1.1814.27084-.3807.80022-.4701,1.18141-.2001.42747.3037.97906.6734,1.57641,1.0696L16.6483,9.18177c-.6337-.42949-1.2458-.83594-1.785-1.18327-.3928-.25352-.5053-.77782-.2521-1.17092.2535-.39254.7775-.50651,1.1705-.25368.547.35236,1.1672.76604,1.8106,1.20211l1.0274-1.52917c.2607-.3882.7881-.49163,1.1765-.2313.3883.26083.492.78809.2313,1.17649L18.9907,8.73741c.3267.22623.6517.44957.9657.66968l1.019-1.59887c.2515-.39438.7763-.51036,1.1707-.2589.3941.25166.5103.7765.259,1.17081L21.3415,10.3892c.8462.6042,1.5003,1.08,1.761,1.2856Zm-.5247,3.6607c.2975-.9353.0595-1.8697-.5253-2.331-.2338-.1844-.8348-.6225-1.6229-1.1856l-.773,1.2126c-.2515.3943-.7764.51-1.1708.2589-.3941-.2514-.5094-.7748-.2585-1.1692l.8172-1.2844c-.3239-.2272-.6605-.4585-.9994-.6932L11.0598,20.5441c.0929.0607.1845.1227.2768.1828.2635.1719.5247.3422.7763.5063l.7875-1.2354c.2517-.3937.7765-.5102,1.1708-.2589.3941.2514.5097.7765.2589,1.1709l-.8032,1.2601c.2347.1575.432.287.5716.3881.4547.3292,1.0481.5743,1.6477.7027.6097.1306,1.1418.1241,1.4724.0355.7743-.2076,1.2513-.5518,1.5478-.9612.3023-.4177.4786-.9881.4944-1.7478.0045-.2266-.0766-.5004-.2663-.8211-.1887-.3187-.4558-.636-.747-.9338-.2917-.2984-.5773-.5472-.8139-.7617-.1065-.0967-.2301-.2093-.3215-.3113-.0402-.0449-.1203-.1382-.1825-.2594-.0301-.0586-.2692-.5346.0963-.9765.2089-.2521.4817-.307.6027-.3208.131-.0148.2448-.0016.3107.0092.1364.0225.2747.067.3807.1036.2157.0745.5084.194.7638.2938.2757.1076.5509.2101.8055.2826.2668.076.4485.1002.5498.0959c1.1331-.0475,1.8553-.7621,2.1387-1.6522Z" fill="#f4b740"/></g><g id="etS1rab6Qs27" transform="matrix(2.426065 0 0 2.426066 688.485444 328.805942)" opacity="0"><rect width="30" height="30" rx="15" ry="15" transform="translate(.563708 1)" fill="none" stroke="#f4b740" stroke-width="2"/><path d="M23.1025,11.6748c1.285,1.0139,1.5385,2.7649,1.0897,4.1754-.4637,1.4557-1.7276,2.75-3.6828,2.8317-.0676.0028-.1355-.0023-.2036-.0054.0496.0743.1005.149.1463.2263.2841.48.5149,1.0681.5017,1.719-.0207.9959-.2557,1.9337-.8161,2.7076-.5665.7817-1.4057,1.3152-2.4806,1.6034-.672.18-1.492.149-2.2655-.0165-.7831-.1678-1.6062-.4925-2.287-.9854-.1183-.0856-.2859-.1958-.488-.3318l-1.035,1.622c-.2515.3946-.7763.5104-1.1708.2589-.3941-.2514-.50947-.7748-.2585-1.1692l1.0503-1.6483c-.2526-.1649-.5184-.3383-.7909-.5161-.0985-.0642-.1962-.1314-.2959-.1965L9.05552,23.529c-.26093.3875-.7868.4911-1.17486.2308-.38791-.2609-.49187-.7882-.23131-1.1764l1.04931-1.5625c-.60514-.4013-1.16979-.7813-1.61258-1.0959-.38058-.271-.47059-.8003-.20009-1.1814.27084-.3807.80022-.4701,1.18141-.2001.42747.3037.97906.6734,1.57641,1.0696L16.6483,9.18177c-.6337-.42949-1.2458-.83594-1.785-1.18327-.3928-.25352-.5053-.77782-.2521-1.17092.2535-.39254.7775-.50651,1.1705-.25368.547.35236,1.1672.76604,1.8106,1.20211l1.0274-1.52917c.2607-.3882.7881-.49163,1.1765-.2313.3883.26083.492.78809.2313,1.17649L18.9907,8.73741c.3267.22623.6517.44957.9657.66968l1.019-1.59887c.2515-.39438.7763-.51036,1.1707-.2589.3941.25166.5103.7765.259,1.17081L21.3415,10.3892c.8462.6042,1.5003,1.08,1.761,1.2856Zm-.5247,3.6607c.2975-.9353.0595-1.8697-.5253-2.331-.2338-.1844-.8348-.6225-1.6229-1.1856l-.773,1.2126c-.2515.3943-.7764.51-1.1708.2589-.3941-.2514-.5094-.7748-.2585-1.1692l.8172-1.2844c-.3239-.2272-.6605-.4585-.9994-.6932L11.0598,20.5441c.0929.0607.1845.1227.2768.1828.2635.1719.5247.3422.7763.5063l.7875-1.2354c.2517-.3937.7765-.5102,1.1708-.2589.3941.2514.5097.7765.2589,1.1709l-.8032,1.2601c.2347.1575.432.287.5716.3881.4547.3292,1.0481.5743,1.6477.7027.6097.1306,1.1418.1241,1.4724.0355.7743-.2076,1.2513-.5518,1.5478-.9612.3023-.4177.4786-.9881.4944-1.7478.0045-.2266-.0766-.5004-.2663-.8211-.1887-.3187-.4558-.636-.747-.9338-.2917-.2984-.5773-.5472-.8139-.7617-.1065-.0967-.2301-.2093-.3215-.3113-.0402-.0449-.1203-.1382-.1825-.2594-.0301-.0586-.2692-.5346.0963-.9765.2089-.2521.4817-.307.6027-.3208.131-.0148.2448-.0016.3107.0092.1364.0225.2747.067.3807.1036.2157.0745.5084.194.7638.2938.2757.1076.5509.2101.8055.2826.2668.076.4485.1002.5498.0959c1.1331-.0475,1.8553-.7621,2.1387-1.6522Z" fill="#f4b740"/></g><path id="etS1rab6Qs210" d="M1177.790921,287.733857c-32.832037-161.763312,138.278632-252.052109,180.781436-178.737054s30.012953,102.918054,139.063074,69.667394s161.549725,82.553327,145.521263,155.820553" transform="translate(-22.943935 19.473875)" fill="none" stroke="url(#etS1rab6Qs210-stroke)" stroke-width="3.84" stroke-linecap="round" stroke-dasharray="1,60,1,20,5,20,16,16,16,16,16,16,16,16,16,16,16,16,16,16,16,16,16,16,16,16,16,16,16,16,16,16,16,16,16,16,16,16,16,16,16,16,16,16,16,20,5,20,1,60"/><path id="etS1rab6Qs211" d="M750.689082,349.992926q4.662494-183.485532,142.410501-176.309783c137.748007,7.175749,118.282563,188.329304,182.465776,247.725884s135.057599,28.088142,102.225562-133.67517" transform="translate(-23.386307 17.630072)" fill="none" stroke="url(#etS1rab6Qs211-stroke)" stroke-width="3.84" stroke-linecap="round" stroke-dasharray="1,60,1,20,5,20,16,16,16,16,16,16,16,16,16,16,16,16,16,16,16,16,16,16,16,16,16,16,16,16,16,16,16,16,16,16,16,16,16,16,16,16,16,16,16,20,5,20,1,60"/><path d="M750.689082,349.992926q4.662494-183.485532,142.410501-176.309783c137.748007,7.175749,118.282563,188.329304,182.465776,247.725884s135.057599,28.088142,102.225562-133.67517" transform="translate(-1244.218362 78.530555)" fill="none" stroke="#3f5787" stroke-width="3.84"/><g transform="matrix(1.825564 0 0 1.825564 199.36972 37.805249)"><path d="M284.862,5.51953l33.682,1.98145c2.368.1393,2.567,3.55352.23,3.96582l-33.737,5.9541c-.468.0827-.952-.0049-1.362-.2461L277,13.248v2.252h1l.204.0107c1.009.1023,1.796.9537,1.796,1.9893v9c0,.0706-.005.1403-.012.209.256.0871.512.1988.758.3467c1.032.6214,1.754,1.7483,1.754,3.4443c0,.8064-.163,1.5007-.489,2.0713-.331.5774-.797.9715-1.308,1.2178-.979.4724-2.083.3934-2.804.2187-.022-.0055-.035-.0074-.039-.0078h-1.861c0,.1084-.016.219-.054.3271L263.405,70.5h1.595c1.105,0,2,.8954,2,2v3c0,1.0355-.787,1.887-1.796,1.9893L265,77.5h-13l-.204-.0107c-.942-.0955-1.69-.8438-1.785-1.7852L250,75.5v-3c0-1.1046.895-2,2-2h1.288L265.941,34h-22.006c.041.1599.065.3273.065.5v7l-.011.2041c-.095.9414-.843,1.6897-1.785,1.7852L242,43.5h-1v5c0,1.0355-.787,1.887-1.796,1.9893L239,50.5h-5l-.204-.0107c-.942-.0955-1.69-.8438-1.785-1.7852L232,48.5v-1.9521l-28.787,2.5585l10.163,16.6299c.153.2503.243.5232.276.7989.016.0706.026.1442.026.2197c0,2.6334-.049,6.6996-.098,10.456-.049,3.7643-.098,7.2114-.098,8.626c0,1.8785-.389,4.9604-1.66,7.6113-1.129,2.3554-3.033,4.4988-6.05,4.9776.011,12.1302.01,23.7412-.035,26.9182-.039,2.8-.497,4.65-1.541,5.76-1.085,1.153-2.565,1.256-3.836,1.256l.001.001c-20.384.033-62.112.078-65.786,0-1.106-.023-2.026-.347-2.761-.896-.724-.543-1.213-1.264-1.537-2.008-.621-1.428-.687-3.063-.572-4.163v-26.8331c-3.305-.3121-5.354-2.5576-6.544-5.039-1.271-2.651-1.66-5.7329-1.66-7.6114c0-1.4146-.049-4.8616-.098-8.6259-.048-3.7564-.097-7.8226-.097-10.4561c0-.0439.003-.0875.008-.1299.027-.2973.121-.5927.286-.8623l10.137-16.5908L103,46.6768v1.8232c0,1.0355-.787,1.887-1.796,1.9893L101,50.5h-5l-.2041-.0107c-.9414-.0955-1.6895-.8438-1.7852-1.7852L94,48.5v-5h-1l-.2041-.0107c-.9414-.0955-1.6895-.8438-1.7852-1.7852L91,41.5v-7c0-.1727.0243-.3401.0654-.5h-23.0068L80.7119,70.5h1.2881c1.1046,0,2,.8954,2,2v3l-.0107.2041c-.0957.9414-.8438,1.6897-1.7852,1.7852L82,77.5h-13l-.2041-.0107C67.7873,77.387,67.0002,76.5355,67,75.5v-3c0-1.1046.8954-2,2-2h1.5947l-12.54-36.1729c-.0374-.1081-.0537-.2187-.0537-.3271L55,34c-.5766,0-1.4192-.165-2.1465-.6885-.7782-.5603-1.3534-1.4858-1.3535-2.8115c0-1.3258.5753-2.2511,1.3535-2.8115.5628-.4051,1.1946-.5958,1.7188-.6612-.0286-.1047-.0503-.2124-.0616-.3232L54.5,26.5v-9c0-1.1046.8954-2,2-2h1v-1.6641l-5.6748,3.3389c-.4101.2412-.8937.3288-1.3623.2461L16.7256,11.4668c-2.3362-.4123-2.1378-3.82652.2305-3.96582L50.6377,5.51953c.3958-.02327.7901.07142,1.1318.27246L57.5,9.16309v-.66309c0-1.10457.8954-2,2-2h9c1.1046,0,2,.89543,2,2v1.25098l6.7305-3.95899c.3417-.20104.736-.29573,1.1318-.27246L112.044,7.50098c2.368.1393,2.567,3.55352.23,3.96582L78.5371,17.4209c-.4686.0827-.9522-.0049-1.3623-.2461L70.5,13.248v2.252h1l.2041.0107C72.7128,15.613,73.5,16.4644,73.5,17.5v9c0,.1729-.0242.34-.0654.5h6.1289l5.9072-6.3613c.3784-.4074.9098-.6387,1.4658-.6387h50.2975l13.539-7.7363c.303-.1727.645-.2637.993-.2637h28.991c.319,0,.634.0763.918.2227L196.743,20h51.233c.656,0,1.271.3219,1.644.8613L253.524,26.5h7.476v-9c0-1.1046.895-2,2-2h1v-1.6641l-5.675,3.3389c-.41.2412-.894.3288-1.362.2461l-33.737-5.9541c-2.337-.4123-2.138-3.82652.23-3.96582l33.682-1.98145c.396-.02327.79.07142,1.132.27246L264,9.16309L264,8.5c0-1.10457.895-2,2-2h9c1.105,0,2,.89543,2,2v1.25098l6.73-3.95899c.342-.20104.736-.29573,1.132-.27246ZM173.271,74.7793l.002.0547v16.1592c0,1.1045-.895,2.0008-2,2.0009h-7.57l-.205-.0107c-.941-.0957-1.689-.844-1.785-1.7852l-.01-.2041v-16.1601l.003-.0547h-30.001v50.6087l-.006.056c-.101.879-.039,2.177.412,3.216.221.507.519.918.902,1.204.373.28.883.483,1.605.498c3.644.078,45.332.032,65.74-.001h.001c1.258,0,1.928-.147,2.38-.628.493-.524.96-1.692.998-4.417.045-3.181.046-14.889.035-27.0855-.179-.1807-.289-.4297-.29-.7041c0-.2741.111-.5225.289-.7032-.007-8.0296-.02-16.1372-.033-22.0439h-30.467ZM196.345,108.79c.941.096,1.689.844,1.785,1.785l.011.204v5.105c0,1.035-.788,1.887-1.796,1.989l-.204.011h-11.282c-1.104,0-2-.896-2-2v-5.105l.011-.204c.102-1.008.954-1.796,1.989-1.796h11.282l.204.011Zm-11.486,7.094h11.282v-5.105h-11.282v5.105ZM123.317,69.3789c.018,2.3356.052,5.1307.086,7.7803.049,3.7514.098,7.2196.098,8.6513c0,1.679.36,4.4426,1.464,6.7461.982,2.0491,2.471,3.5988,4.74,3.8916v-22.0175c-.25-.0736-.491-.1956-.707-.3731l-5.681-4.6787Zm82.661,4.6787c-.077.0631-.159.1173-.241.167.013,5.8396.025,14.0194.034,22.1641c1.994-.4402,3.338-1.9087,4.248-3.8057c1.104-2.3035,1.463-5.0672,1.463-6.7461c0-1.4317.049-4.8999.098-8.6514.035-2.6617.068-5.4703.085-7.8125l-5.687,4.6846ZM163.703,90.9941h7.57v-16.1601h-7.57v16.1601ZM69,75.5h13v-3h-13v3Zm183,0h13v-3h-13v3ZM188.045,50.4551c-.712,1.4487-1.481,2.6623-2.256,3.6582-3.666,4.7132-9.945,8.8857-18.79,8.8857-4.402-.0001-7.698-.9104-10.55-2.5019-2.822-1.5751-5.159-3.793-7.657-6.291-.891-.8915-1.664-1.9333-2.337-3.0684L132.479,72.7793h70.018L188.136,50.542c-.02-.0299-.038-.0598-.054-.0908l-.037.0039ZM133.941,49.335c-.022.0634-.051.1257-.087.1855L123.307,66.7793l6.963,5.7344l14.374-22.2598-10.703-.9189Zm56.388.917l14.377,22.2617l6.963-5.7344-10.547-17.2588c-.043-.0705-.076-.1443-.1-.2197l-10.693.9512ZM72.7119,70.5h5.8828l-12.54-36.1729c-.0374-.1081-.0537-.2187-.0537-.3271h-5.9424L72.7119,70.5ZM267.999,34c0,.1084-.016.219-.054.3271L255.405,70.5h5.883L273.941,34h-5.942ZM144.457,34c-.053,2.3787.22,5.6872,1.002,9.0059.895,3.7985,2.422,7.4611,4.747,9.7861c2.502,2.5015,4.665,4.5341,7.218,5.959c2.523,1.4083,5.478,2.2479,9.575,2.248c8.155,0,13.877-3.8274,17.211-8.1142c2.475-3.182,5.11-9.1522,5.28-18.8848h-45.033Zm12.559,12.8877c.552.0026.997.4521.995,1.0039-.015,3.2288,2.649,8.0994,8.881,8.0996.552,0,.999.4479,1,1c0,.5522-.448.9999-1,1-7.552-.0003-10.9-5.9954-10.881-10.1074.002-.5521.453-.9983,1.005-.9961ZM167,41.5c3.314,0,6,2.6863,6,6c0,3.3135-2.686,6-6,6s-6-2.6865-6-6c0-3.3137,2.686-6,6-6Zm0,2c-2.209,0-4,1.7909-4,4s1.791,4,4,4s4-1.791,4-4-1.791-4-4-4Zm-71,5h5v-2.7969c-.008-.0659-.01-.1335-.004-.2021.001-.0092.003-.0183.004-.0274v-1.9736h-5v5Zm138,0h5v-5h-5v5ZM166.455,36.999c2.095-.095,4.829.7461,6.983,2.4688c2.19,1.7526,3.839,4.4725,3.559,8.1074-.042.5506-.524.9623-1.074.9199-.55-.0426-.962-.5228-.92-1.0732.22-2.864-1.048-4.9783-2.815-6.3926-1.805-1.4439-4.071-2.1037-5.643-2.0322-.552.0247-1.019-.4017-1.044-.9532-.025-.5516.402-1.0198.954-1.0449ZM191.05,40c-.444,3.2879-1.189,6.06-2.089,8.3652L232,44.54v-1.04h-1l-.204-.0107c-.942-.0955-1.69-.8438-1.785-1.7852L229,41.5v-1.5h-37.95ZM106,41.5l-.011.2041c-.095.9414-.843,1.6897-1.785,1.7852L104,43.5h-1v1.1689l42.041,3.6123c-.644-1.5602-1.147-3.2002-1.528-4.8164-.275-1.1661-.489-2.3328-.653-3.4648L106,40v1.5Zm-13,0h11v-7h-11v7Zm138,0h11v-7h-11v7ZM105.935,34c.041.1599.065.3273.065.5v3.5h36.622c-.139-1.4649-.189-2.8272-.165-4h-36.522Zm85.556,0c-.023,1.4036-.098,2.7361-.215,4L229,38v-3.5c0-.1727.024-.3401.065-.5h-37.574ZM231,32h46.86c.191,0,.364.0278.511.0635.481.1165,1.061.1178,1.463-.0762.18-.087.329-.2143.441-.4102.117-.203.225-.5362.225-1.0771c0-1.0489-.4-1.498-.786-1.7305-.422-.2537-.971-.327-1.405-.2968-.035.0053-.07.013-.105.0166L278,28.5h-24.476c-.656,0-1.271-.3221-1.644-.8613L247.976,22L231,22v10ZM81.0293,28.3613c-.3784.4072-.9099.6387-1.4658.6387L55,29c-.2566,0-.6642.0852-.9785.3115-.2632.1897-.5215.5147-.5215,1.1885.0001.6736.2583.9989.5215,1.1885.3143.2262.7219.3115.9785.3115h49v-10h-17.0635l-5.9072,6.3613ZM106,32h4v-10h-4v10Zm6,0h78.482c.006-.0001.011-.001.017-.001.005,0,.011.0009.017.001L223,32v-10h-111v10Zm113,0h4v-10h-4v10ZM56.5,26.5h15v-9h-15v9Zm206.5,0h14.929l.071-.0068v-8.9932h-15v9ZM19.8828,0.506836c.5484-.064515,1.0457.327658,1.1104.875974.0643.54831-.3277,1.04571-.876,1.11035-4.1946.49349-8.8745,1.48075-12.48341,2.70411-1.81075.61381-3.30153,1.27-4.31934,1.9248-.50932.32769-.85978.6298-1.07324.89063C2.02939,8.27171,2,8.42977,2,8.5c.00008.49232.21916,1.04829.77441,1.6787.55875.6343,1.4057,1.282,2.51563,1.9248c2.21834,1.2847,5.30176,2.4451,8.67876,3.4365c6.7478,1.981,14.426,3.2172,18.0976,3.462.551.0367.9683.5134.9316,1.0644-.0368.5509-.5135.9683-1.0644.9316-3.8283-.2552-11.6504-1.5192-18.5274-3.538-3.43512-1.0085-6.69597-2.2233-9.11811-3.626-1.21007-.7008-2.258-1.4753-3.01368-2.333C0.51555,10.6395,0.000082,9.63243,0,8.5c0-.67963.29927-1.27211.694336-1.75488.393874-.48111.930554-.91381,1.538084-1.30469c1.2165-.78264,2.8822-1.50155,4.75879-2.1377C10.7571,2.02616,15.5775,1.01336,19.8828,0.506836Zm294.2342-.5c4.305.506528,9.126,1.519324,12.892,2.795894c1.876.63615,3.542,1.35506,4.759,2.1377.607.39088,1.144.82358,1.538,1.30469C333.701,6.72789,334,7.32037,334,8c0,1.13243-.516,2.1395-1.274,3.001-.756.8577-1.804,1.6322-3.014,2.333-2.422,1.4027-5.683,2.6175-9.118,3.626-6.877,2.0188-14.699,3.2828-18.528,3.538-.551.0367-1.027-.3807-1.064-.9316-.037-.551.381-1.0277.932-1.0644c3.671-.2448,11.349-1.481,18.097-3.462c3.377-.9914,6.461-2.1518,8.679-3.4365c1.11-.6428,1.957-1.2905,2.516-1.92479C331.781,9.04829,332,8.49232,332,8c0-.07023-.029-.22829-.241-.4873-.214-.26083-.564-.56294-1.073-.89063-1.018-.6548-2.509-1.31099-4.32-1.9248-3.609-1.22336-8.289-2.21062-12.483-2.70411-.548-.06464-.941-.56204-.876-1.110348s.562-.940491,1.11-.875976ZM141.266,20h51.116l-11.625-6h-28.991l-10.5,6ZM109.117,0.006836c4.305.506528,9.126,1.519324,12.892,2.795894c1.876.63615,3.542,1.35506,4.759,2.1377.607.39088,1.144.82358,1.538,1.30469C128.701,6.72789,129,7.32037,129,8c0,1.37108-.728,2.581-1.744,3.5801-1.022,1.0048-2.428,1.8909-4.019,2.6377-3.185,1.4952-7.309,2.5228-11.171,2.7802-.551.0367-1.027-.3807-1.064-.9316-.037-.551.381-1.0277.932-1.0644c3.637-.2426,7.514-1.2151,10.454-2.5948c1.471-.6905,2.66-1.461,3.466-2.2529C126.665,9.35672,127,8.62864,127,8c0-.07023-.029-.22829-.241-.4873-.214-.26083-.564-.56294-1.073-.89063-1.018-.6548-2.509-1.31099-4.32-1.9248-3.609-1.22336-8.289-2.21062-12.483-2.70411-.548-.06464-.941-.56204-.876-1.110348s.562-.940491,1.11-.875976Zm116.266,0c.548-.064515,1.045.327658,1.11.875976s-.328,1.045708-.876,1.110348c-4.194.49349-8.874,1.48075-12.483,2.70411-1.811.61381-3.302,1.27-4.32,1.9248-.509.32769-.859.6298-1.073.89063-.212.25901-.241.41707-.241.4873c0,.62864.335,1.35672,1.146,2.1543.806.7919,1.995,1.5624,3.466,2.2529c2.94,1.3797,6.817,2.3522,10.454,2.5948.551.0367.969.5134.932,1.0644-.037.5509-.513.9683-1.064.9316-3.862-.2574-7.986-1.285-11.171-2.7802-1.591-.7468-2.997-1.6329-4.019-2.6377C206.228,10.581,205.5,9.37108,205.5,8c0-.67963.299-1.27211.694-1.75488.394-.48111.931-.91381,1.538-1.30469c1.217-.78264,2.883-1.50155,4.759-2.1377c3.766-1.27657,8.587-2.289366,12.892-2.795894ZM59.5,11.1709c.0356.2175.0356.4397,0,.6572v3.6719h9v-7h-9v2.6709Zm206.5,0c.036.2175.036.4397,0,.6572v3.6719h9v-7h-9v2.6709ZM17.0732,9.49707L50.8105,15.4512L57.5,11.5156v-.0322L50.7549,7.5166L17.0732,9.49707ZM71.4727,11.5l6.7168,3.9512L111.927,9.49707L78.2451,7.5166L71.4727,11.5ZM223.573,9.49707l33.738,5.95413L264,11.5156v-.0322l-6.745-3.9668-33.682,1.98047ZM277.973,11.5l6.716,3.9512l33.738-5.95413L284.745,7.5166L277.973,11.5Z" fill="#0085fb"/><path d="M579.468,198.355c.177-.523.744-.803,1.267-.626.523.176.805.744.628,1.267L463.032,549.5c-.176.523-.743.804-1.266.628-.524-.177-.805-.744-.628-1.268l118.33-350.505Zm100.854-82.906c3.315-1.308,7.164-1.737,9.552-1.432c1.404.179,2.716,1.033,3.86,2.065c1.164,1.049,2.267,2.388,3.251,3.724.987,1.339,1.879,2.711,2.606,3.835.756,1.169,1.281,1.979,1.591,2.328c1.284,1.445,2.195,1.746,7.542,3.56c2.475.84,3.839,2.767,4.538,4.705.683,1.896.768,3.894.638,5.201l-.178,3.275c-.071,1.231-.15,2.548-.23,3.793-.157,2.449-.324,4.719-.449,5.427-.086.487-.323,1.25-.611,2.079-.296.852-.671,1.845-1.061,2.827-.767,1.93-1.64,3.931-2.111,4.716-.287.478-.783,1.013-1.345,1.521-.578.523-1.286,1.071-2.049,1.568-1.472.957-3.36,1.86-4.999,1.801-1.262-.045-2.807-.614-4.132-1.219-1.012-.463-1.976-.988-2.72-1.427-.785,2.695-1.986,6.427-3.322,9.794-.15.379-.305.754-.459,1.124c2.272.147,5.444.633,8.812,1.682c4.035,1.255,8.423,3.338,11.88,6.676c1.74,1.681,3.679,4.305,5.66,7.394c1.99,3.103,4.055,6.732,6.044,10.46c3.48,6.523,6.741,13.386,8.967,18.352c4.012-9.32,8.702-19.801,12.656-28.386c1.787-3.881,5.674-6.341,9.938-6.341h58.521v.001c1.036-.033,2.44.427,3.049,1.979.572,1.462.3,3.599-1.121,6.609-1.721,3.644-6.641,16.132-11.256,27.862-2.302,5.85-4.523,11.498-6.219,15.727-.848,2.114-1.567,3.88-2.101,5.141-.266.629-.49,1.142-.663,1.513-.085.184-.164.345-.232.471-.034.063-.071.131-.111.193-.025.038-.105.164-.232.275-.135.119-.272.174-.324.195-.068.026-.131.044-.177.055-.091.023-.187.039-.273.051-.176.024-.402.045-.66.063-.522.035-1.251.064-2.15.088-.784.022-1.706.039-2.746.054-.144.825-.446,1.929-.967,3.068-.633,1.387-1.615,2.893-3.084,4.005-.991.751-2.299,1.183-3.69,1.419-1.404.238-2.974.291-4.561.221-3.17-.139-6.517-.769-8.944-1.477-2.231-.65-3.791-.729-5.579-.394-1.868.35-3.977,1.146-7.368,2.343-3.331,1.175-10.298,4.026-17.849,6.906-2.684,1.024-5.441,2.049-8.119,2.997c0,.093-.001.204,0,.334.003.456.013,1.136.033,2.101.041,1.929.127,4.989.287,9.647.201,5.813,1.405,26.939,2.661,49.4c1.256,22.446,2.562,46.216,2.964,57.278.321,8.826-1.13,26.999-3.073,46.157-1.946,19.189-4.396,39.455-6.091,52.52-.008.064-.02.126-.034.188c1.273.445,3.162,1.065,5.464,1.84c2.981,1.003,6.608,2.253,10.342,3.684c2.369.908,4.075,1.801,5.258,2.654c1.164.839,1.918,1.71,2.206,2.609.313.98.03,1.87-.598,2.475-.579.558-1.392.826-2.16.851-1.265.042-4.551-.303-8.556-.85-4.049-.554-8.942-1.33-13.487-2.185-4.569-.859-7.232-1.94-8.718-3.147-.762-.619-1.239-1.29-1.48-1.995-.241-.703-.22-1.36-.122-1.902.155-.85.598-1.782,1.029-2.545.374-.663.781-1.269,1.093-1.695-.004-.03-.009-.061-.011-.092-2.341-31.415-7.012-94.341-7.491-101.776-.145-2.246-.937-6.269-2.124-11.246-1.182-4.952-2.738-10.777-4.379-16.589-3.288-11.638-6.906-23.166-8.552-27.506-.841-2.218-1.51-4.281-2.076-6.032-.574-1.774-1.029-3.181-1.458-4.164-.215-.493-.397-.816-.546-1.007-.005-.006-.011-.011-.015-.016-.179.173-.429.505-.75,1.075-.096.173-.255.612-.452,1.402-.189.757-.394,1.748-.611,2.949-.435,2.401-.913,5.597-1.42,9.352-1.014,7.508-2.137,17.21-3.252,27.187-2.225,19.914-4.424,40.99-5.642,47.687-1.916,10.539-11.738,56.518-16.571,78.942-.003.012-.007.023-.01.035c1.32.558,3.275,1.436,5.57,2.442c2.972,1.302,6.567,2.843,10.26,4.258c2.369.908,4.076,1.801,5.258,2.654c1.164.839,1.918,1.71,2.206,2.609.314.98.03,1.87-.598,2.475-.579.558-1.391.826-2.16.851-1.264.042-4.551-.303-8.555-.85-4.05-.554-8.942-1.33-13.488-2.185-4.569-.859-7.231-1.941-8.717-3.147-.763-.619-1.239-1.29-1.481-1.996-.24-.702-.22-1.359-.121-1.901.155-.85.598-1.782,1.028-2.545.416-.736.873-1.403,1.194-1.83-.166-.291-.252-.636-.236-1.017.927-20.834,2.478-68.897,1.764-106.525-.732-38.56-4.085-80.552-5.669-96.722-.01-.105-.004-.209.018-.308-.063-.088-.124-.179-.183-.27-.328-.508-.629-1.112-.905-1.769-.554-1.316-1.046-2.931-1.472-4.62-.854-3.383-1.475-7.178-1.802-9.727-.532-4.15-.221-9.567-.006-12.621.009-.125.041-.243.091-.351-2.562-4.498-4.674-9.334-5.635-13.935-2.27-10.854-3.48-18.554-2.277-30.764.355-3.603,1.661-8.529,3.212-12.797.778-2.139,1.627-4.142,2.465-5.752.811-1.558,1.691-2.908,2.579-3.574c2.865-2.149,9.15-6.297,23.24-7.437c1.169-2.344,2.889-5.839,4.426-9.068c1.555-3.267,2.888-6.188,3.304-7.401.55-1.605.884-2.896,1.071-3.762-.691-.261-1.258-.651-1.702-1.168-.649-.755-.954-1.683-1.099-2.605-.144-.92-.141-1.914-.108-2.862.034-.985.096-1.884.096-2.778c0-1.061.227-1.901.633-2.583.403-.674.936-1.118,1.413-1.449.233-.161.474-.311.668-.435.206-.131.372-.241.515-.353.271-.213.403-.391.466-.611.036-.125.071-.371.084-.773.012-.388.002-.867-.026-1.429-.054-1.126-.174-2.515-.304-4.072-.257-3.083-.546-6.787-.354-10.01.225-3.752,3.4-6.084,6.666-7.374ZM360.107,127.812c1.042-.047,4.3-.269,7.968.25c3.643.515,7.877,1.785,10.748,4.865c3.17,3.401,5.562,6.589,7.007,10.424c1.448,3.84,1.915,8.242,1.389,14.028-.629,6.911-1.198,11.19-1.008,15.103.186,3.838,1.111,7.324,3.561,12.532c4.991,10.605,7.171,19.314,4.87,26.547-1.546,4.856-5.562,7.317-8.397,8.308.069,1.085.088,2.162.042,3.224-.234,5.464-1.009,13.703-2.15,21.178-.571,3.738-1.236,7.304-1.976,10.246-.727,2.892-1.561,5.33-2.527,6.692-3.593,5.062-11.015,10.241-25.329,11.645-9.395.923-21.812.254-30.709-.584-.076.684-.237,1.59-.43,2.566-.275,1.393-.64,3.053-.996,4.682-.357,1.635-.706,3.237-.954,4.538-.124.65-.221,1.213-.281,1.66-.065.477-.074.732-.066.817.029.293.021.565.009.782-.013.245-.025.377-.025.523c0,.062.003.105.006.135.001.001,0,.002,0,.004.086.052.387.184,1.218.236.876.055,2.179.017,4.109-.154c1.837-.164,4.09-.722,6.66-1.507c2.564-.784,5.371-1.769,8.328-2.769c5.866-1.984,12.3-4.019,18.073-4.375c7.331-.451,14.527.648,18.812,1.613.009.002.013.002.015.001.002,0,.005-.001.01-.002.011-.005.031-.018.048-.041.014-.019.016-.035.017-.041l-.001-.001-6.195-9.857c-.294-.467-.153-1.085.315-1.379.467-.294,1.085-.153,1.378.315l6.196,9.857c.067.106.122.214.167.322.064.087.117.185.151.293.329,1.034.681,2.978,1.011,5.457.333,2.506.653,5.631.902,9.072.499,6.876.721,15.06.203,22.133-.51,6.969-.638,15.178-.297,22.746.341,7.591,1.15,14.45,2.478,18.767c2.698,8.768,7.38,16.994,8.93,37.483c1.217,16.093.536,53.505.026,70.944-.028.952-.717,1.713-1.615,1.889l-3.244.633c-.398,1.365-.895,4.985.155,10.302.726,3.675,1.267,5.499,1.613,6.802.362,1.362.521,2.208.421,3.813-.098,1.578-.503,3.152-1.769,4.3-1.252,1.135-3.154,1.68-5.829,1.68-2.572,0-7.803-.023-12.921-.114-5.089-.092-10.15-.253-12.327-.537-2.238-.292-3.878-1.097-4.693-2.28-.418-.607-.607-1.306-.513-2.015.095-.702.456-1.327.983-1.824.561-.528,1.452-.911,2.326-1.199.915-.302,1.975-.552,3.006-.751c2.043-.395,4.108-.614,4.888-.614.604,0,3.31-.264,6.03-.665c1.347-.199,2.661-.426,3.684-.662.514-.119.932-.235,1.237-.343.152-.054.258-.101.325-.136.02-.01.033-.019.041-.023.189-.197.392-.339.556-.444.088-.056.179-.11.253-.154.078-.047.144-.088.207-.129.227-.148.38-.285.497-.539.131-.286.258-.814.204-1.814-.054-.997-.283-2.398-.801-4.38-.836-3.197-1.222-4.819-1.358-5.578l-4.053.793c-.987.192-1.973-.375-2.284-1.345-2.56-7.963-7.686-25.263-9.677-37.078-2.549-15.126-11.242-42.747-14.151-51.474-.049-.147-.101-.295-.153-.444.344,6.951.838,16.424,1.226,22.372.501,7.681,4.727,33.5,6.947,46.437.188,1.099-.556,2.123-1.641,2.305l-5.144.864c.029.658.106,1.442.259,2.188.112.548.259,1.045.44,1.446.186.411.376.648.532.763.293.215.812.432,1.593.696.721.244,1.65.525,2.518.861c1.704.661,3.731,1.731,4.328,3.938.483,1.788.631,3.579-.041,5.203-.684,1.652-2.128,2.93-4.393,3.865-2.018.834-4.64,2.321-7.066,4.268-2.432,1.952-4.598,4.314-5.793,6.874-1.474,3.159-4.66,4.736-7.834,5.542-3.199.811-6.627.901-8.932.901-2.321,0-4.187-.182-5.528-.607-1.316-.418-2.453-1.191-2.615-2.568-.095-.806.505-1.292.824-1.498.375-.241.862-.429,1.356-.583c1.005-.313,2.354-.584,3.702-.839c1.376-.262,2.767-.511,3.945-.787.586-.137,1.097-.276,1.508-.419.428-.148.674-.276.786-.361c1.711-1.304,6.034-6.444,6.299-14.455.194-5.907-.723-10.103-1.304-11.837l-3.333.561c-.933.156-1.872-.35-2.207-1.278-3.581-9.916-8.976-25.127-13.797-39.289-4.812-14.135-9.076-27.298-10.37-33.077-3.248-14.506-4.584-21.588-1.949-34.762c1.056-5.28,4.963-16.519,9.374-28.333c4.228-11.326,8.957-23.275,12.185-31.226-.273-.097-.516-.224-.723-.387-.661-.519-.75-1.219-.75-1.7c0-.217.019-.471.028-.63.01-.186.012-.336-.002-.476-.035-.347.01-.816.073-1.284.068-.498.172-1.102.299-1.767.254-1.332.609-2.962.965-4.591.357-1.636.718-3.273.988-4.642.202-1.023.339-1.836.4-2.375-3.636-.375-6.504-.759-8.054-1.041-2.77-.503-6.549-1.934-9.89-3.237-1.693-.661-3.28-1.291-4.623-1.782-1.372-.502-2.379-.816-2.945-.89-2.875-.375-5.521-1.046-9.139-.028-1.899.534-4.39,1.301-6.891,1.896-2.495.593-5.118,1.046-7.324.916-4.108-.241-9.113-3.152-10.084-8.411-.259-1.408,1.007-2.36,2.16-2.246c2.762.273,8.61.499,16.839-.152c12.215-.968,14.891-.969,22.611-1.33c4.069-.191,10.861-.448,17.339-.801-.005-1.276-.03-3.028-.089-4.967-1.25-.545-2.876-1.586-4.664-2.875-2.051-1.479-4.411-3.354-6.827-5.366-4.833-4.026-9.935-8.635-13.335-11.815-.256-.239-.435-.533-.536-.848-2.596-1.142-7.566-4.187-10.416-9.052-1.923-3.284-2.824-7.858-3.269-11.628-.225-1.904-.336-3.639-.398-4.957-.03-.659-.049-1.215-.062-1.634-.008-.251-.017-.437-.022-.565l-3.805-6.603c-.472-.818-.307-1.856.396-2.487l2.794-2.508c.952-.854,2.46-.616,3.085.519c2.126,3.86,4.97,9.064,7.587,13.911.572-.174,1.177.009,1.654.262c1.17.617,2.708,2.208,4.625,5.285c3.843,6.169,4.121,10.811,3.162,13.484l16.397,5.092c-.055-.179-.109-.357-.164-.535-.609-1.976-1.197-3.906-1.632-5.588-.428-1.656-.736-3.17-.736-4.277c0-1.108.261-2.356.657-3.682.398-1.335.952-2.812,1.575-4.392c1.254-3.182,2.798-6.812,4.072-10.818c2.694-8.465,7.81-10.954,10.86-13.241c2.729-2.047,6.083-2.551,7.477-2.551.381,0,.711.213.88.526.292.35.316.866.029,1.244-1.811,2.39-5.689,8.774-6.707,15.057-.333,2.058-.671,3.69-.954,4.975-.287,1.309-.5,2.188-.606,2.827-.029.176-.046.315-.055.423.05-.001.108,0,.174-.004.946-.063,2.77-.64,5.236-1.95c2.431-1.29,5.395-3.245,8.601-5.955c3.265-2.76,7.168-5.861,10.916-8.159c1.873-1.148,3.736-2.114,5.482-2.733.651-.231,1.298-.418,1.933-.547-.284-1.203-.616-2.806-.925-4.274-.2-.95-.391-1.85-.555-2.575-.172-.756-.298-1.236-.364-1.408-.082-.213-.192-.666-.306-1.196-.123-.567-.27-1.316-.418-2.183-.298-1.732-.607-3.961-.751-6.19-.042-.646-.069-1.299-.078-1.944-1.55.084-3.654.106-5.807-.012-.909-.05-1.84-.126-2.749-.235-.092,2.153-.572,5.026-1.763,7.734-1.408,3.202-3.857,6.275-7.917,7.532-.527.163-1.087-.133-1.251-.66-.163-.528.132-1.088.659-1.251c3.33-1.032,5.418-3.559,6.679-6.426c1.117-2.541,1.546-5.272,1.605-7.23-.818-.156-1.589-.345-2.274-.579-2.355-.801-4.358-1.952-5.747-3.394-1.401-1.455-2.201-3.238-2.026-5.218.156-1.769.819-3.983,1.583-6.019.77-2.054,1.675-4.013,2.37-5.303.413-.768,1.206-1.651,2.073-2.512.889-.883,1.947-1.829,2.966-2.728c1.03-.909,2.014-1.763,2.795-2.492.389-.363.714-.681.959-.947.262-.284.373-.446.402-.504.058-.116.089-.28.031-.61-.065-.377-.192-.728-.353-1.316-.301-1.1-.564-2.56.335-4.239c1.485-2.772,3.358-4.723,6.016-4.844ZM233.629,345.808c3.068.155,5.528,2.615,5.683,5.683l.008.309v49.094c0,1.617-.64,3.084-1.68,4.163h13.041l.308.007c3.17.161,5.691,2.783,5.692,5.993v79.198c0,3.21-2.522,5.831-5.692,5.992l-.308.008h-200.2074l-.3086-.008c-3.1701-.161-5.6914-2.782-5.6914-5.992v-79.198l.0078-.309c.1556-3.068,2.6158-5.528,5.6836-5.684l.3086-.007h72.3374c-1.041-1.079-1.68-2.547-1.68-4.163v-49.094l.008-.309c.155-3.068,2.615-5.528,5.683-5.683l.309-.008h106.189l.309.008Zm423.778,137.24c-.111.022-.224.035-.339.039-1.635.049-4.464.207-5.37.239-.055.002-.105.005-.148.008-.131.01-.269.011-.41.004-.029.059-.064.116-.106.171-.271.353-.704.98-1.096,1.675-.404.715-.71,1.409-.803,1.92-.056.309-.055.602.046.895.099.291.324.665.848,1.091c1.087.883,3.34,1.891,7.826,2.734c4.51.848,9.37,1.62,13.389,2.169c4.063.555,7.161.868,8.219.833.392-.013.692-.152.839-.293.097-.094.153-.195.08-.425-.1-.31-.459-.867-1.471-1.596-.994-.717-2.529-1.537-4.804-2.408-3.736-1.433-7.365-2.988-10.346-4.294-2.925-1.282-5.179-2.302-6.354-2.762ZM376.898,471.891c-.005.136-.035.27-.093.393.165.796.532,2.324,1.257,5.096.535,2.051.799,3.595.863,4.778.063,1.18-.067,2.068-.383,2.756-.33.719-.814,1.115-1.225,1.382-.096.063-.191.12-.269.167-.083.05-.147.088-.207.126-.12.076-.172.121-.198.15-.174.191-.386.32-.549.405-.177.092-.376.172-.579.245-.408.145-.91.281-1.457.407-1.1.254-2.474.49-3.842.692-2.711.401-5.552.687-6.322.687-.597,0-2.52.194-4.509.578-.986.19-1.954.421-2.758.686-.845.279-1.365.552-1.582.756-.251.237-.349.46-.372.634-.022.167.012.374.178.614.353.514,1.327,1.175,3.305,1.433c2.041.266,6.972.426,12.104.519c5.102.091,10.321.114,12.885.114c2.457,0,3.766-.509,4.485-1.161.705-.64,1.032-1.588,1.117-2.944.083-1.327-.033-1.949-.358-3.175-.342-1.288-.901-3.177-1.642-6.927-.918-4.647-.738-8.198-.344-10.27l-9.505,1.859ZM50.4736,407.057c-2.2089,0-3.9998,1.791-4,4v79.198c0,2.209,1.791,4,4,4h200.2074c2.209,0,4-1.791,4-4v-79.198c-.001-2.209-1.792-4-4-4h-88.762v41.599c0,1.036-.787,1.887-1.796,1.99l-.204.01h-18.484l-.205-.01c-1.008-.103-1.795-.954-1.795-1.99v-41.599h-88.9614ZM715.657,482.956c-.208.308-.438.672-.655,1.057-.404.715-.71,1.409-.803,1.921-.056.308-.054.601.046.894.1.291.325.665.849,1.091c1.087.883,3.34,1.891,7.826,2.734c4.51.848,9.369,1.62,13.389,2.169c4.062.556,7.16.868,8.218.833.393-.013.693-.152.839-.293.098-.094.154-.195.08-.424-.099-.311-.459-.867-1.47-1.597-.995-.717-2.53-1.537-4.804-2.408-3.696-1.417-7.292-2.657-10.264-3.657-2.935-.987-5.309-1.758-6.514-2.22-.085.01-.171.019-.258.019h-5.801c-.236,0-.464-.043-.678-.119ZM332.414,456.994c.669,2.154,1.501,6.458,1.311,12.238-.286,8.672-4.946,14.349-7.085,15.98-.37.281-.858.492-1.343.66-.503.175-1.089.332-1.707.477-1.232.288-2.688.549-4.028.803-1.367.26-2.602.511-3.479.785-.278.086-.491.168-.646.239.151.178.458.392,1.09.593c1.043.33,2.661.514,4.923.514c2.279,0,5.497-.093,8.44-.84c2.967-.753,5.421-2.108,6.513-4.449c1.372-2.94,3.79-5.53,6.354-7.588c2.57-2.063,5.356-3.648,7.555-4.556c1.952-.807,2.892-1.775,3.308-2.782.428-1.034.391-2.314-.042-3.917-.32-1.185-1.455-1.949-3.12-2.594-.816-.317-1.624-.557-2.436-.831-.75-.254-1.56-.555-2.138-.981-.54-.398-.909-.976-1.168-1.548-.263-.581-.448-1.234-.578-1.871-.157-.769-.245-1.56-.285-2.254l-11.439,1.922ZM725.681,276.709c-3.425.824-11.87,2.139-25.493,2.917-9.084.519-21.822.778-32.595.697-5.386-.04-10.295-.167-14.018-.388-1.859-.111-3.44-.247-4.642-.411-.6-.081-1.124-.173-1.55-.276-.006-.001-.013-.003-.019-.005c1.634,17.08,4.838,57.934,5.552,95.548.714,37.624-.833,85.631-1.761,106.541.061.01.142.015.24.008.073-.006.151-.01.232-.013.762-.027,3.808-.192,5.382-.239.021-.001.034-.008.039-.012c4.838-22.448,14.65-68.377,16.558-78.875c1.202-6.606,3.387-27.557,5.622-47.551c1.114-9.977,2.24-19.7,3.257-27.233.509-3.765.992-6.995,1.435-9.44.221-1.222.435-2.261.639-3.079.195-.782.406-1.463.649-1.896.358-.637.722-1.166,1.109-1.538.385-.369.923-.704,1.587-.634.642.068,1.093.485,1.387.86.304.389.565.894.804,1.44.478,1.095.968,2.617,1.528,4.349.567,1.753,1.222,3.772,2.043,5.938c1.68,4.428,5.318,16.029,8.606,27.671c1.647,5.827,3.21,11.681,4.4,16.669c1.184,4.961,2.016,9.141,2.174,11.581.478,7.42,5.148,70.306,7.49,101.737h5.8c1.693-13.052,4.138-33.288,6.081-52.444c1.947-19.196,3.38-37.222,3.065-45.883-.401-11.037-1.707-34.782-2.963-57.237-1.212-21.683-2.379-42.175-2.638-48.802Zm-348.062,6.263c-4.168-.939-11.165-2.004-18.249-1.568-1.853.114-3.789.415-5.768.837-.107,1.023-.212,2.185-.309,3.471-.042.551-.522.963-1.072.922-.551-.042-.964-.522-.922-1.072.077-1.025.159-1.976.244-2.843-3.221.804-6.519,1.873-9.729,2.959-2.923.989-5.782,1.992-8.384,2.787-.944.288-1.865.552-2.752.78-.103,11.746.297,37.751,2.701,52.975c3.062,19.394,10.138,31.398,13.123,40.352c2.903,8.71,11.646,36.472,14.225,51.774c1.965,11.659,7.049,28.836,9.606,36.791l8.57-1.676c-.09-.985-.193-2.119-.304-3.382-.049-.55.358-1.035.908-1.084s1.035.358,1.084.908c.104,1.175.2,2.238.286,3.172l10.536-2.058c.511-17.475,1.187-54.759-.02-70.72-1.528-20.193-6.076-28.037-8.848-37.046-1.407-4.572-2.222-11.644-2.565-19.266-.343-7.645-.214-15.933.301-22.981.508-6.943.293-15.021-.202-21.843-.247-3.408-.563-6.492-.891-8.952-.172-1.296-.348-2.401-.512-3.281-.327.103-.687.127-1.057.044Zm.591,166.362c.55-.043,1.032.367,1.075.918.218,2.77.433,5.401.635,7.829.046.55-.364,1.033-.914,1.079s-1.033-.363-1.079-.913c-.203-2.431-.417-5.064-.635-7.838-.043-.55.368-1.031.918-1.075Zm-49.536-159.63c-.811.161-1.584.282-2.312.347-1.714.152-3.015.208-4.002.177-3.225,7.932-8.045,20.102-12.346,31.623-4.43,11.863-8.269,22.936-9.286,28.025-2.55,12.749-1.294,19.493,1.939,33.933c1.265,5.65,5.488,18.697,10.312,32.871c4.814,14.139,10.202,29.328,13.78,39.237l17.796-2.99c.066-.019.135-.031.207-.035l5.89-.99v-.001c-2.21-12.881-6.461-38.825-6.97-46.638-.519-7.96-1.226-22.197-1.514-28.318v-.001c-3.407-8.137-8.357-19.161-10.765-34.412-2.399-15.196-2.817-40.858-2.729-52.828ZM141.435,448.656h18.484v-41.598h-18.484v41.598ZM377.07,433.665c.551-.037,1.028.379,1.066.93.179,2.646.365,5.269.553,7.831.041.55-.373,1.03-.923,1.07-.551.04-1.03-.373-1.071-.924-.188-2.565-.375-5.192-.554-7.843-.037-.55.379-1.026.929-1.064ZM81.3057,412.377c.9415.095,1.6897.844,1.7851,1.785l.0108.204v17.356c-.0001,1.035-.7873,1.887-1.7959,1.989l-.2041.011h-28.9493c-1.1045,0-1.9999-.896-2-2v-17.356l.0108-.204c.0954-.941.8436-1.69,1.7851-1.785l.2041-.011h28.9493l.2041.011ZM52.1523,431.722h28.9493v-17.356h-28.9493v17.356Zm323.8197-13.84c.549-.058,1.041.34,1.099.889.144,1.363.255,2.721.331,4.075.073,1.298.15,2.605.23,3.916.033.551-.387,1.025-.938,1.058-.551.034-1.025-.386-1.058-.937-.08-1.314-.156-2.624-.23-3.925-.074-1.319-.184-2.644-.324-3.977-.058-.549.341-1.041.89-1.099Zm-3.03-15.865c.537-.132,1.079.197,1.21.733.657,2.678,1.24,5.328,1.729,7.953.101.543-.258,1.065-.801,1.166s-1.065-.258-1.166-.801c-.481-2.581-1.055-5.193-1.705-7.841-.132-.537.197-1.079.733-1.21ZM127.131,347.8c-2.209,0-4,1.791-4,4v49.094c0,2.14,1.681,3.888,3.795,3.995l.205.005h106.189c2.209-.001,4-1.791,4-4v-49.094c0-2.209-1.791-4-4-4h-45.437v19.644c0,1.105-.896,2-2,2h-12.182l-.204-.01c-1.008-.103-1.796-.954-1.796-1.99v-19.644h-44.57Zm17.267,41.037c.942.095,1.69.844,1.786,1.785l.01.204v10.173c0,1.036-.787,1.887-1.796,1.989l-.204.011h-17.721l-.204-.011c-1.009-.102-1.796-.954-1.796-1.989v-10.173l.01-.204c.096-.941.844-1.689,1.786-1.785l.204-.011h17.721l.204.011Zm-17.925,12.162h17.721v-10.173h-17.721v10.173ZM598.996,90.891208c.177-.5231.744-.8041,1.267-.6279.523.1766.804.7434.628,1.2666L498.19,400.076c-.176.523-.743.804-1.266.628-.523-.177-.804-.744-.628-1.267l102.7-308.545792ZM368.497,386.483c.528-.162,1.087.134,1.25.662.808,2.621,1.585,5.208,2.314,7.764.151.531-.156,1.084-.687,1.236-.531.151-1.085-.157-1.236-.688-.724-2.538-1.497-5.111-2.302-7.723-.163-.527.133-1.088.661-1.251Zm-4.869-15.412c.527-.165,1.088.128,1.254.655.819,2.604,1.637,5.168,2.441,7.7.167.526-.124,1.088-.65,1.256-.526.167-1.089-.124-1.256-.651-.803-2.529-1.622-5.098-2.442-7.706-.166-.526.127-1.088.653-1.254Zm-189.927-3.627h12.182v-19.644h-12.182v19.644Zm185.308-11.858c.531-.149,1.084.161,1.233.692.735,2.619,1.491,5.197,2.258,7.738.16.528-.139,1.087-.668,1.247-.529.159-1.087-.141-1.247-.669-.77-2.551-1.53-5.142-2.269-7.775-.149-.531.161-1.084.693-1.233Zm-3.832-15.623c.541-.111,1.069.237,1.18.778.265,1.29.547,2.573.848,3.844.311,1.314.631,2.619.958,3.913.135.535-.189,1.078-.725,1.214-.535.135-1.079-.189-1.214-.724-.33-1.303-.652-2.617-.965-3.942-.306-1.292-.592-2.594-.861-3.902-.111-.541.238-1.07.779-1.181Zm-2.306-15.697c.549-.059,1.042.338,1.101.887.278,2.599.611,5.217,1.007,7.827.083.546-.292,1.056-.838,1.139s-1.056-.293-1.139-.839c-.401-2.642-.738-5.288-1.02-7.914-.058-.549.34-1.041.889-1.1Zm-1.021-15.835c.551-.019,1.014.413,1.033.965.086,2.562.217,5.203.401,7.892.038.551-.379,1.029-.93,1.066-.55.038-1.027-.378-1.065-.929-.186-2.714-.318-5.378-.405-7.962-.019-.552.414-1.013.966-1.032Zm.059-15.87c.552.018.984.481.966,1.033-.082,2.447-.129,5.097-.127,7.901c0,.552-.447,1.001-.999,1.001s-1-.447-1.001-.999c-.002-2.828.047-5.501.129-7.97.018-.551.48-.985,1.032-.966Zm290.834-41.2c-.158,2.987-.242,6.778.145,9.798.32,2.499.929,6.21,1.758,9.491.414,1.643.876,3.151,1.375,4.334.248.592.498,1.082.743,1.46.25.388.461.606.615.711.012.006.138.068.475.15.333.081.783.161,1.349.238c1.129.154,2.652.286,4.49.395c3.674.219,8.545.345,13.915.385c10.741.081,23.435-.178,32.467-.694c14.218-.812,22.64-2.207,25.535-2.966-.13-3.885-.205-6.529-.242-8.269-.016-.752-.024-1.337-.029-1.781-4.052,1.394-7.827,2.557-10.777,3.191-10.621,2.283-26.929,3.071-37.223,2.379-5.073-.342-10.004-.591-14.379-1.532-4.399-.945-8.347-2.609-11.434-5.852-2.713-2.852-5.912-6.888-8.783-11.438ZM338.146,185.354c-1.321.276-2.998.849-4.435,1.927-3.218,2.414-7.694,4.519-10.153,12.248-1.302,4.091-2.887,7.824-4.118,10.946-.619,1.571-1.147,2.982-1.519,4.23-.375,1.256-.573,2.287-.573,3.11c0,.826.244,2.12.673,3.776.421,1.631.996,3.519,1.606,5.5c1.208,3.92,2.573,8.242,3.047,11.371.715,4.72.911,12.596.928,16.392c5.172-.303,9.932-.672,12.661-1.126c6.662-1.111,12.633-1.812,16.092-7.502c3.634-5.978,5.523-11.937,5.048-22.255-.025-.552.402-1.019.953-1.044.552-.025,1.02.401,1.045.952.492,10.69-1.483,17.048-5.336,23.386-4.026,6.624-11.096,7.372-17.473,8.435-6.598,1.1-24.57,1.706-32.235,2.066-2.179.102-3.954.175-5.651.25.203.611.376,1.332.448,2.101.105,1.12.004,2.408-.574,3.613.366.124.75.259,1.145.404c1.369.501,2.989,1.145,4.662,1.798c3.39,1.322,6.978,2.67,9.52,3.132c5.257.956,26.22,3.173,40.202,1.8c13.896-1.364,20.718-6.338,23.894-10.812.725-1.022,1.488-3.119,2.219-6.024.718-2.856,1.372-6.354,1.937-10.058c1.131-7.41,1.899-15.577,2.13-20.963.038-.876.027-1.767-.02-2.667-.441-.039-.817-.367-.897-.823-.09-.516.233-1.009.731-1.139-.435-3.875-1.507-7.826-2.77-11.355-1.771-4.949-3.871-8.967-4.946-10.636-1.089-1.689-2.087-2.863-3.373-3.735-1.288-.873-2.943-1.495-5.421-1.946-1.034-.188-2.359,0-3.939.561-1.566.555-3.298,1.445-5.106,2.553-3.615,2.217-7.425,5.239-10.67,7.982-3.304,2.793-6.386,4.83-8.954,6.194-2.532,1.345-4.662,2.086-6.041,2.178-.32.021-.663.024-.983-.045-.341-.074-.718-.244-.992-.611-.256-.346-.325-.738-.338-1.055-.012-.32.028-.672.087-1.029.117-.708.356-1.694.627-2.93.277-1.261.607-2.856.933-4.866.902-5.572,3.854-11.11,5.929-14.284Zm326.5-9.171c-13.62,1.117-19.53,5.098-22.113,7.036-.488.366-1.192,1.337-2.005,2.898-.786,1.51-1.601,3.426-2.359,5.512-1.52,4.183-2.769,8.936-3.102,12.309-1.175,11.922-.006,19.396,2.245,30.159c2.079,9.943,9.928,21.296,15.664,27.324c2.71,2.848,6.23,4.378,10.404,5.275c4.198.902,8.947,1.145,14.093,1.492c10.145.682,26.263-.102,36.67-2.339c5.17-1.112,13.084-3.932,20.599-6.798c7.458-2.844,14.543-5.741,17.895-6.924.929-.328,1.78-.633,2.57-.911v-6.413c-12.527-.081-24.547-.19-29.643-.222l-43.566.599c-.748.01-1.45-.393-1.803-1.079-3.116-6.079-7.939-15.254-12.551-23.55-2.307-4.148-4.558-8.07-6.514-11.273-1.97-3.225-3.603-5.655-4.679-6.869-.366-.413-.328-1.045.085-1.411s1.045-.328,1.411.085c1.21,1.365,2.928,3.94,4.89,7.152c1.976,3.235,4.241,7.184,6.554,11.344c4.624,8.317,9.455,17.509,12.579,23.601h.001l3.594-.05c.111-.995.449-2.28,1.461-3.358c1.103-1.174,2.86-1.953,5.519-2.018c4.869-.119,22.286-.055,31.196-.005l-13.772-29.646c-.233-.501-.015-1.096.486-1.329.501-.232,1.096-.014,1.328.487l13.11,28.22c1.15-2.983,2.648-6.648,4.35-10.687.414-.981.842-1.984,1.278-3.006-2.184-4.979-5.786-12.667-9.656-19.921-1.974-3.701-4.012-7.278-5.963-10.321-1.96-3.057-3.798-5.522-5.366-7.035-3.159-3.05-7.232-5.007-11.085-6.206-3.613-1.125-6.97-1.564-9.077-1.633-.322.693-.646,1.346-.972,1.941-.753,1.376-1.594,2.608-2.501,3.221-2.014,1.361-4.988,1.672-7.79,1.541-2.848-.133-5.751-.737-7.803-1.421-1.695-.565-2.997-1.698-3.94-2.871-.794-.988-1.362-2.04-1.722-2.9Zm-368.04,81.928c-3.604.171-7.477.401-14.795.981-8.303.657-14.26.436-17.166.15.808,4.04,4.774,6.467,8.21,6.669c1.9.112,4.288-.281,6.744-.865c2.448-.582,4.847-1.324,6.812-1.877c4.11-1.156,7.26-.378,9.94-.028.081.01.167.025.256.042.52-.861.65-1.879.556-2.879-.081-.863-.325-1.65-.557-2.193Zm460.601-7.576c1.134-.368,2.141-.652,3.096-.831c2.141-.401,4.021-.284,6.507.441c2.289.667,5.477,1.267,8.472,1.398c1.497.066,2.917.013,4.139-.194c1.234-.21,2.186-.564,2.816-1.041c1.125-.853,1.929-2.05,2.473-3.243.372-.814.607-1.597.742-2.212-.806.007-1.662.014-2.561.019-6.048.034-14.102.011-22.333-.034-1.116-.006-2.234-.016-3.351-.023v5.72ZM298.058,228.486c3.38,3.162,8.452,7.744,13.246,11.737c2.398,1.997,4.718,3.838,6.716,5.279c1.336.964,2.492,1.717,3.41,2.223-.136-3.17-.364-6.522-.734-8.963-.34-2.246-1.181-5.19-2.106-8.234l-18.21-5.653-2.322,3.611Zm425.271,11.262c-9.036-.05-25.975-.111-30.735.005-2.287.056-3.471.709-4.11,1.389-.543.579-.792,1.285-.899,1.961l34.921-.48c.039-.22.093-.456.155-.7.15-.584.377-1.317.668-2.175Zm89.405-53.197h-58.543c-3.491,0-6.664,2.013-8.122,5.177-4.751,10.317-10.569,23.372-14.983,33.843-2.208,5.238-4.059,9.817-5.25,13.079-.598,1.637-1.018,2.915-1.236,3.769-.014.055-.027.107-.038.156.274.002.583.005.924.007l1.946-.026c.107-.002.211.013.308.044c6.836.051,20.061.168,32.828.238c8.23.045,16.275.068,22.311.034c3.019-.017,5.53-.048,7.309-.097.89-.024,1.587-.053,2.068-.086.102-.006.191-.014.268-.021.019-.04.042-.082.064-.129.157-.338.371-.825.635-1.448.526-1.244,1.239-2.995,2.086-5.107c1.693-4.221,3.911-9.862,6.213-15.714c4.595-11.678,9.551-24.261,11.309-27.984c1.362-2.883,1.327-4.362,1.067-5.025-.215-.549-.681-.733-1.141-.712l-.023.002ZM284.221,205.797c.059.747.134,1.55.232,2.385.439,3.723,1.307,7.946,3.009,10.851c2.44,4.167,6.693,6.91,9.115,8.057l2.12-3.297c.151-.234.344-.429.564-.577.02-.063.047-.125.081-.186.868-1.553,1.398-5.726-2.718-12.334-1.425-2.287-2.519-3.528-3.259-4.15.047.086.094.173.14.259c1.485,2.766,2.826,5.297,3.823,7.231.498.966.913,1.789,1.217,2.421.284.59.521,1.108.601,1.403.361,1.323-.039,2.531-.619,3.366-.29.417-.644.772-1.018,1.023-.341.229-.84.466-1.383.405-.368-.041-.684-.243-.862-.366-.221-.152-.457-.351-.697-.57-.481-.442-1.051-1.039-1.652-1.713-1.206-1.352-2.595-3.078-3.759-4.645-.63-.849-1.393-2.228-2.162-3.741-.778-1.531-1.595-3.263-2.331-4.857-.152-.329-.299-.652-.442-.965Zm485.019,4.207c3.58,0,6.482,2.902,6.482,6.481c0,3.58-2.902,6.482-6.482,6.482-3.579,0-6.481-2.902-6.481-6.482c0-3.579,2.902-6.481,6.481-6.481Zm0,2c-2.475,0-4.481,2.006-4.481,4.481s2.006,4.482,4.481,4.482s4.482-2.007,4.482-4.482-2.007-4.481-4.482-4.481ZM279.913,193.658l3.762,6.527c.032.029.056.052.068.064.133.142.239.338.289.43.144.262.344.677.578,1.177.471,1.006,1.142,2.491,1.869,4.067.734,1.588,1.537,3.293,2.297,4.79.77,1.515,1.467,2.756,1.986,3.454c1.135,1.528,2.486,3.206,3.645,4.507.582.652,1.101,1.193,1.512,1.569.18.166.327.285.437.366.011-.006.024-.012.037-.02.147-.099.329-.271.492-.505.326-.47.502-1.075.332-1.697-.001-.004-.01-.03-.031-.086-.023-.059-.054-.135-.096-.231-.084-.191-.199-.44-.346-.744-.293-.608-.699-1.413-1.194-2.374-.989-1.919-2.325-4.439-3.808-7.202-2.964-5.524-6.509-12.009-9.037-16.6l-2.792,2.508Zm87.882-63.616c-3.454-.488-6.528-.28-7.597-.231-1.562.071-2.951,1.19-4.344,3.79-.539,1.007-.419,1.85-.168,2.765.114.419.306,1.003.393,1.501.035.203.059.42.06.646c1.536.197,4.021.92,6.305,1.881c1.22.512,2.422,1.109,3.425,1.755.975.629,1.878,1.378,2.359,2.235.552.984.784,2.173.84,3.353.057,1.191-.061,2.447-.27,3.617-.209,1.173-.513,2.288-.84,3.205-.088.246-.181.487-.277.716.483-.085,1.055-.165,1.555-.134.299.018.689.08,1.037.297.353.218.604.559.696.983l.029.186.026.348c.047.86-.045,2.043-.765,3.156-.842,1.301-2.404,2.303-5.002,2.722-.527.085-1.092.639-1.443,2.278-.329,1.544-.359,3.612-.219,5.769.138,2.14.437,4.295.726,5.981.145.842.286,1.562.402,2.098.058.268.109.487.15.65.021.082.037.147.051.194.009.032.015.05.017.056.129.335.285.974.447,1.684.168.743.363,1.659.562,2.606.34,1.619.694,3.318.978,4.49.348.007.69.039,1.022.099c2.637.48,4.587,1.175,6.186,2.259c1.601,1.085,2.773,2.508,3.932,4.307c1.172,1.819,3.336,5.978,5.149,11.046c1.252,3.5,2.354,7.481,2.836,11.46c2.363-.938,5.465-3.03,6.682-6.856c2.054-6.454.19-14.543-4.773-25.089-2.526-5.368-3.546-9.114-3.748-13.286-.199-4.097.398-8.605,1.014-15.381.507-5.586.041-9.665-1.269-13.141-1.312-3.482-3.504-6.448-6.599-9.767-2.405-2.58-6.085-3.756-9.565-4.248Zm321.142,19.161c-.912,1.461-2.705,4.241-5.729,7.038-2.99,2.766-6.968,2.83-9.136,2.447-.551,1.472-1.846,4.299-3.267,7.286-1.545,3.245-3.272,6.756-4.445,9.107.276.747.796,1.79,1.568,2.749.785.977,1.79,1.819,3.011,2.227c1.886.628,4.608,1.196,7.266,1.32c2.705.127,5.122-.218,6.576-1.2.468-.317,1.116-1.153,1.867-2.525.725-1.322,1.47-2.994,2.186-4.799c1.43-3.607,2.713-7.662,3.47-10.339l-.603-14.284-2.764.973Zm-333.542-8.807c-.081.097-.164.193-.248.284-.295.32-.662.678-1.067,1.055-.808.753-1.826,1.638-2.835,2.528-1.019.899-2.036,1.812-2.88,2.649-.866.86-1.463,1.561-1.721,2.04-.649,1.205-1.518,3.081-2.259,5.057-.747,1.992-1.331,4.001-1.463,5.493-.113,1.281.382,2.52,1.475,3.655c1.106,1.148,2.798,2.156,4.951,2.889c1.67.568,4.062.878,6.475,1.01c2.153.117,4.251.089,5.737.004.049-.841.143-1.641.298-2.367.368-1.72,1.194-3.53,3.08-3.835c2.229-.359,3.198-1.149,3.641-1.834.39-.602.475-1.28.45-1.89-.311-.004-.744.061-1.256.157-.252.047-.541.105-.781.147-.234.04-.509.081-.752.083-.117,0-.3-.008-.492-.069-.193-.061-.544-.229-.715-.644-.162-.395-.051-.747.022-.913.078-.18.189-.332.283-.447.155-.188.434-.713.736-1.56.289-.811.564-1.819.754-2.884.19-1.068.291-2.168.243-3.171-.048-1.014-.245-1.859-.588-2.471-.235-.419-.796-.951-1.698-1.532-.874-.563-1.964-1.108-3.116-1.593-2.328-.978-4.756-1.647-5.976-1.763-.105-.01-.206-.038-.298-.078Zm338.279,7.142l.594,14.081c.048.021.096.045.142.074.701.448,1.893,1.132,3.156,1.71c1.299.594,2.535,1.01,3.372,1.04.986.035,2.427-.562,3.837-1.479.678-.441,1.301-.925,1.798-1.374.513-.464.837-.843.972-1.068.015-.024.028-.051.044-.08-1.498-.396-3.381-.912-5.065-1.412-1.052-.312-2.039-.621-2.809-.893-.384-.136-.727-.267-1.004-.389-.229-.1-.554-.253-.775-.459-.266-.248-.389-.57-.452-.774-.071-.234-.116-.493-.147-.75-.062-.518-.079-1.148-.07-1.803.017-1.317.138-2.855.261-4.054.104-1.009.922-1.694,1.793-1.825c2.85-.43,8.89-2.408,12.289-3.607.069-1.148.135-2.29.192-3.31l-18.128,6.372Zm9.662,1.67c-1.431.393-2.736.705-3.717.853-.04.006-.072.024-.091.042-.015.014-.011.018-.01.009-.121,1.171-.235,2.644-.251,3.876-.008.62.009,1.149.055,1.538.017.141.039.248.057.326.035.017.079.04.136.065.211.093.503.205.866.333.723.255,1.672.554,2.713.863c1.799.535,3.836,1.089,5.371,1.492.325-.741.691-1.612,1.047-2.507.37-.932.722-1.865,1.002-2.664-.373.275-.764.515-1.148.716-1.375.721-3.043,1.171-4.244,1.007-.89-.121-1.356-.813-1.579-1.384-.226-.578-.314-1.277-.34-1.941-.034-.858.033-1.796.133-2.624Zm-27.923,4.748c-.132.68-.358,1.637-.709,2.811c1.817.257,4.892.091,7.146-1.994c1.709-1.58,2.998-3.156,3.946-4.466l-10.383,3.649Zm36.065-7.313c-1.709.591-3.906,1.319-6.037,1.959-.151.908-.279,2.125-.239,3.151.023.581.098,1.02.204,1.292.026.067.048.11.065.138.643.055,1.823-.203,2.967-.803c1.212-.635,1.986-1.442,2.138-2.151.08-.374.359-.655.702-.753.063-.808.131-1.781.2-2.833Zm-6.446-16.262c-.112.129-.257.232-.43.292l-28.781,9.843c-.021.007-.043.011-.064.017-.217.308-.472.555-.731.758-.226.178-.464.332-.675.467-.223.142-.414.259-.603.39-.366.255-.641.504-.836.831-.191.321-.351.793-.351,1.559c0,.934-.067,1.957-.097,2.847-.032.927-.028,1.761.085,2.482.113.718.323,1.243.64,1.612.205.238.49.451.913.607.167-.087.362-.127.564-.106.072.008.141.024.207.045l37.056-13.024c.073-1.074-.026-2.637-.549-4.089-.564-1.564-1.575-2.903-3.299-3.488-1.196-.406-2.196-.743-3.049-1.043Zm-15.411-14.38c-2.018-.258-5.528.11-8.564,1.309-3.084,1.217-5.253,3.104-5.405,5.632-.182,3.058.092,6.621.351,9.725.128,1.536.253,2.971.309,4.142.025.515.036.992.029,1.416l26.032-8.905c-1.117-.541-1.881-1.117-2.686-2.023-.441-.496-1.077-1.489-1.776-2.569-.729-1.127-1.589-2.451-2.536-3.736-.95-1.289-1.961-2.505-2.979-3.425-1.038-.935-1.976-1.464-2.775-1.566Z" fill="#0085fb"/><path d="M562.475,499.771c-.951-.091-1.717-.85-1.8-1.819l-2.759-32.055c-.094-1.095.71-2.046,1.776-2.16l.217-.012v2l2.758,32.055h31.056l3.273-32.055v-2l.219.012c1.006.109,1.775.961,1.781,1.972l-.01.219-3.274,32.055c-.104,1.02-.963,1.797-1.989,1.797h-31.056l-.192-.009Zm-2.566-34.046v-2h37.087v2h-37.087Z" fill="#f4b740"/><path d="M548.006,381.925c0-1.079.38-2.78.914-4.637.545-1.898,1.289-4.081,2.083-6.184.794-2.101,1.647-4.14,2.417-5.748.384-.802.755-1.512,1.093-2.074.313-.52.671-1.04,1.052-1.336l.145-.101c.731-.448,1.51-.078,1.905.175.495.317,1.013.824,1.522,1.402c1.033,1.173,2.246,2.888,3.473,4.747c1.233,1.868,2.506,3.921,3.66,5.789c1.159,1.878,2.189,3.555,2.952,4.699c1.518,2.278,3.742,5.394,5.536,8.206.904,1.417,1.725,2.797,2.324,4.008.575,1.162,1.03,2.33,1.031,3.266c0,1.012-.477,1.815-1.001,2.445-.503.603-1.183,1.192-1.682,1.67-.548.524-.953.976-1.178,1.443-.201.418-.272.877-.067,1.491.212.636.543.966.919,1.17.414.225.951.333,1.616.378.327.022.661.029,1.01.034.338.004.702.007,1.043.027.623.036,1.474.133,2.092.663.495.424.934,1.068,1.345,1.995.414.933.824,2.211,1.232,3.965.815,3.508,1.644,9.038,2.421,17.777c1.249,14.057-.13,30.806-.974,37.432-.07.548-.57.935-1.118.865s-.935-.57-.865-1.118c.835-6.555,2.196-23.146.964-37.002-.774-8.706-1.593-14.128-2.377-17.501-.392-1.686-.768-2.832-1.112-3.607-.346-.78-.634-1.13-.817-1.288-.06-.051-.276-.149-.907-.185-.285-.017-.596-.02-.954-.024-.347-.005-.73-.01-1.118-.037-.765-.051-1.644-.186-2.435-.616-.83-.45-1.493-1.186-1.863-2.295-.376-1.129-.253-2.125.163-2.991.393-.817,1.03-1.479,1.597-2.021.615-.589,1.122-1.018,1.528-1.505.384-.461.538-.821.538-1.165-.001-.422-.247-1.215-.823-2.379-.552-1.115-1.329-2.426-2.218-3.82-1.792-2.808-3.931-5.797-5.514-8.171-.788-1.182-1.841-2.898-2.989-4.758-1.155-1.87-2.414-3.899-3.628-5.739-1.22-1.848-2.37-3.464-3.305-4.526-.438-.497-.788-.819-1.038-.994-.105.14-.23.327-.372.563-.293.487-.632,1.134-1.002,1.907-.739,1.542-1.57,3.526-2.351,5.591-.78,2.065-1.503,4.195-2.03,6.029-.538,1.873-.837,3.322-.837,4.085c0,.691.294,1.626.82,2.771.518,1.126,1.19,2.313,1.844,3.51.636,1.164,1.268,2.36,1.618,3.405.176.525.304,1.074.3,1.603-.004.544-.149,1.119-.574,1.592-.892.99-2.127.976-3.105.704-.98-.273-1.963-.86-2.753-1.434-.018-.014-.039-.022-.062-.025-.024-.004-.047-.002-.063.003-2.324,10.681-.98,28.271,1.947,40.162c2.44,9.914,10.221,23.95,13.834,29.757.291.468.147,1.085-.322,1.377-.468.291-1.085.148-1.376-.321-3.624-5.824-11.557-20.09-14.079-30.335-2.97-12.068-4.371-30.002-1.953-41.086l.036-.144c.423-1.461,2.173-1.762,3.214-1.005.71.515,1.467.944,2.114,1.124.649.181.928.056,1.082-.115.011-.013.059-.068.06-.269.002-.217-.053-.529-.195-.952-.286-.851-.829-1.896-1.478-3.082-.63-1.153-1.351-2.426-1.906-3.633-.546-1.187-1.003-2.457-1.003-3.607Z" fill="#f4b740"/><path d="M612.168,408.676c0-.185-.158-.556-.801-1.199-.617-.617-1.375-1.204-2.227-1.951-.792-.695-1.644-1.512-2.162-2.442-.55-.988-.748-2.154-.133-3.385.531-1.061,1.245-1.721,2.058-2.115.778-.378,1.587-.479,2.23-.541.713-.069,1.152-.091,1.519-.215.267-.091.43-.213.552-.529.388-1.01.372-1.862.117-3.349-.255-1.483-.755-3.606-1.147-6.833-.391-3.227-1.063-9.811-2.192-15.481-.566-2.843-1.234-5.384-2.009-7.132-.39-.881-.773-1.48-1.121-1.821-.326-.319-.518-.324-.644-.297-.894.195-2.083.847-3.428,1.891-1.322,1.026-2.707,2.362-3.984,3.805-1.276,1.442-2.426,2.97-3.288,4.373-.878,1.43-1.395,2.632-1.51,3.44-.134.935-.16,2.282-.151,3.811.009,1.49.052,3.163.04,4.609-.012,1.425-.075,2.805-.323,3.721-.065.239-.151.486-.275.71-.122.219-.315.477-.618.653-.744.433-1.456.055-1.854-.277-.71-.592-1.251-1.372-1.685-2.07-.475-.767-.775-1.345-1.133-1.854-.287-.407-.445-.51-.487-.533-.06.019-.286.119-.706.636-.43.53-1.089,1.649-1.896,3.206-.793,1.529-1.692,3.404-2.605,5.386-1.825,3.964-3.69,8.323-4.849,11.125-.212.51-.797.752-1.307.541s-.752-.795-.541-1.305c1.166-2.819,3.042-7.203,4.881-11.197.919-1.996,1.832-3.903,2.645-5.471.799-1.541,1.542-2.836,2.119-3.546.669-.823,1.481-1.477,2.469-1.369.927.101,1.536.842,1.911,1.375.393.557.833,1.361,1.2,1.951.285.46.569.868.869,1.201.12-.659.175-1.659.185-2.899.012-1.437-.031-3.024-.04-4.581-.009-1.517.014-3.005.171-4.106.175-1.227.871-2.715,1.785-4.204.932-1.517,2.156-3.139,3.496-4.652c1.34-1.514,2.815-2.941,4.255-4.059c1.417-1.1,2.893-1.974,4.229-2.265.988-.214,1.833.199,2.468.822.615.601,1.121,1.468,1.551,2.44.867,1.958,1.568,4.677,2.141,7.552c1.148,5.766,1.833,12.46,2.217,15.63.384,3.169.853,5.117,1.132,6.735.277,1.614.359,2.895-.222,4.405-.363.944-1.025,1.452-1.776,1.706-.65.221-1.423.259-1.969.312-.617.059-1.117.139-1.55.35-.399.193-.799.526-1.141,1.209-.257.514-.213.972.091,1.517.336.603.951,1.226,1.734,1.912.723.634,1.649,1.368,2.322,2.041.647.648,1.387,1.537,1.387,2.613-.001.427-.147,1.391-.382,2.66-.244,1.316-.606,3.066-1.077,5.138-.94,4.145-2.32,9.595-4.084,15.459-3.515,11.683-8.597,25.171-14.828,33.182-.339.436-.967.515-1.403.176s-.514-.968-.176-1.404c5.981-7.69,10.979-20.855,14.491-32.53c1.75-5.815,3.119-11.22,4.05-15.325.466-2.053.822-3.776,1.06-5.061.247-1.331.348-2.092.349-2.295Z" fill="#f4b740"/></g>
<script><![CDATA[
!function(t,e){"object"==typeof exports&&"undefined"!=typeof module?module.exports=e():"function"==typeof __SVGATOR_DEFINE__&&__SVGATOR_DEFINE__.amd?__SVGATOR_DEFINE__(e):((t="undefined"!=typeof globalThis?globalThis:t||self).__SVGATOR_PLAYER__=t.__SVGATOR_PLAYER__||{},t.__SVGATOR_PLAYER__["7c8cb2ed"]=e())}(this,(function(){"use strict";const t=n(Math.pow(10,-6)),e=n(Math.pow(10,-2));function n(t,e=6){return function(t,e,n){if(Number.isInteger(t))return t;const r=Math.pow(10,e);return Math[n]((+t+Number.EPSILON)*r)/r}(t,e,"round")}function r(e,n,r=t){return Math.abs(e-n)<r}n(Math.pow(10,-4));const i=Math.PI/180;function s(t){return t*i}function o(t){return t/i}function u(t){return"number"!=typeof t&&(t=Number(t)),isNaN(t)||!isFinite(t)?0:t}let l={iD:!1};function a(t){return`${t}`.replace(/['"]/g,"")}function c(t,e="px"){return t.endsWith(e)?t:`${t}${e}`}function f(t=""){return l.iD?t:void 0}function h(t){const e=["^","\\s*","(matrix\\()","(?<a>-?[0-9]*\\.?[0-9]+)","\\s*",",?","\\s*","(?<b>-?[0-9]*\\.?[0-9]+)","\\s*",",?","\\s*","(?<c>-?[0-9]*\\.?[0-9]+)","\\s*",",?","\\s*","(?<d>-?[0-9]*\\.?[0-9]+)","\\s*",",?","\\s*","(?<e>-?[0-9]*\\.?[0-9]+)","\\s*",",?","\\s*","(?<f>-?[0-9]*\\.?[0-9]+)","\\)"].join(""),n=t.match(new RegExp(e,"i"));if(n)return[u(n.groups.a),u(n.groups.b),u(n.groups.c),u(n.groups.d),u(n.groups.e),u(n.groups.f)]}function d(t,e="inline"){return t&&t!==e?(t=a(t))===e?f(e):t:f(e)}function g(t,e="1px"){if(!t||t===e)return f(e);if(t.endsWith("px")||t.endsWith("%"))return t;const r=c(t=`${n(u(t),2)}`);return r===e?f(e):r}function p(t,e="none"){if(!t||t===e)return f(e);if((t=a(t))===e)return f(e);const n=t.match(/url\(#.+?\)/);return n?n[0]:function(t){const e=["^","\\s*","url\\(","#","(?<maskId>[a-zA-Z0-9\\-_]+)","\\)"].join(""),n=t.match(new RegExp(e,"i"));if(n)return`url(#${n.groups.maskId})`}(t)}function y(t,e="rgb(0, 0, 0)"){if(!t||t===e)return f(e);if((t=a(t))===e)return f(e);if(t.startsWith("rgb"))return t;const n=function(t){if("string"!=typeof t||"#"!==t[0])return t;const e=t.slice(1),n=e.length;if(3!==n&&6!==n)return t;for(let r=0;r<n;r++){const n=e.charCodeAt(r);if(!(n>=48&&n<=57||n>=65&&n<=70||n>=97&&n<=102))return t}if(3===n)return`rgb(${parseInt(e[0]+e[0],16)}, ${parseInt(e[1]+e[1],16)}, ${parseInt(e[2]+e[2],16)})`;return`rgb(${parseInt(e.slice(0,2),16)}, ${parseInt(e.slice(2,4),16)}, ${parseInt(e.slice(4,6),16)})`}(t);return n===e?f(e):n}function m(t,e="1"){return t&&t!==e?(t=`${n(u(t),3)}`)===e?f(e):t:f(e)}let v={};const b={fill:"none",stroke:"none",opacity:"0.01",transform:"matrix(0.001 0 0 0.001 -10000 -10000)"};function w({element:t,tagType:e="path",property:n="d",attributeValue:r}){return v[r]||(v[r]=function({element:t,tagType:e="path",property:n="d",attributeValue:r}){const i=t.ownerSVGElement,s=document.createElementNS(i.namespaceURI,e);s.setAttributeNS(null,n,r);for(const t in b)s.setAttributeNS(null,t,b[t]);i.appendChild(s);const o=getComputedStyle(s)[n];return s.remove(),o}({element:t,tagType:e,property:n,attributeValue:r})),v[r]}const x=()=>{v={}};"object"==typeof window&&(window.removeEventListener("resize",x),window.addEventListener("resize",x));const A={include:(t,e)=>["path"].includes(e),formatter:t=>function(t,e=""){return t&&t!==e?(t=a(t))===e?f(e):t.startsWith("path(")?t:`path('${t}')`:f(e)}(t)},_={include:(t,e)=>["rect","mask"].includes(e),formatter:(t,e,n)=>g(t,function(t,e){var n;return(null===(n={mask:{x:"-150%",y:"-150%",width:"400%",height:"400%"}}[e])||void 0===n?void 0:n[t])||(["x","y"].includes(t)?"0px":"100%")}(e,n))},k=Object.freeze({d:A,display:t=>d(t),height:_,fill:t=>y(t),"fill-opacity":t=>m(t),filter:t=>d(t,"none"),mask:t=>p(t),opacity:t=>m(t),stroke:t=>y(t,"none"),"stroke-opacity":t=>m(t),"stroke-width":t=>g(t),transform:t=>function(t,e="none"){if(!t||t===e)return f(e);const n=h(t);return n?`matrix(${n.join(", ")})`:t}(t),"transform-origin":t=>function(t,e="0px 0px"){if(!t||t===e)return f(e);const n=["^","\\s*","(?<x>[0-9]+)","(px)?","\\s*",",","\\s*","(?<y>[0-9]+)","(px)?"].join(""),r=t.match(new RegExp(n,"i"));if(!r)return t;let i=`${u(r.groups.x)}`;i=c(i);let s=`${u(r.groups.y)}`;s=c(s);const o=`${i} ${s}`;return o===e?f(e):o}(t),visibility:t=>d(t,"visible"),width:_,x:_,y:_}),S=Object.keys(k),E=e;function O(t,e,n,i,s=window){var o,u;const l=t.getAttribute(e),a="transform"===e?"none":"",c=(s.safari||function(t){var e,n;const r=null==t?void 0:t.userAgent;return(null==t||null===(e=t.vendor)||void 0===e||null===(n=e.indexOf)||void 0===n?void 0:n.call(e,"Apple"))>-1&&r&&-1==r.indexOf("CriOS")&&-1==r.indexOf("FxiOS")}(null==s?void 0:s.navigator))&&!s.chrome&&(null===(o=i.getPropertyValue)||void 0===o?void 0:o.call(i,e))===a||"mask"===n?l:null===(u=i.getPropertyValue)||void 0===u?void 0:u.call(i,e);if(l&&c){if(l===c)return l;switch(e){case"transform":return function(t,e){const n=h(t),i=h(e);if((null==n?void 0:n.length)===(null==i?void 0:i.length)){for(let t=0,e=n.length;t<e;t++)if(n[t]!==i[t]&&(s=i[t],!r(((o=n[t])-s)/(o||1)*100,0,E)))return;var s,o;return t}}(l,c);case"d":return function(t,e,n){return w({element:t,attributeValue:e})===n?e:void 0}(t,l,c);default:return c}}}function I(t,e,n,r){var i,s,o,u;const l="transform"===e||["mask","path"].includes(n)&&["x","y","width","height","d"].includes(e);return r&&l?O(t,e,n,r):(null===(i=r.getPropertyValue)||void 0===i?void 0:i.call(r,e))??(null===(s=t.attrs)||void 0===s||null===(o=s.style)||void 0===o?void 0:o[e])??(null===(u=t.attrs)||void 0===u?void 0:u[e])}function M(t,e,n=!1){l.iD=n;const r="undefined"!=typeof window&&getComputedStyle(t),i={};for(let l=0,a=S.length;l<a;l++){var s,o,u;const a=S[l],c=t.type||t.nodeName;if(!1===(null===(s=(o=k[a]).include)||void 0===s?void 0:s.call(o,a,c)))continue;const f=k[a].formatter||k[a];if(null!=e&&null!==(u=e[t.id])&&void 0!==u&&u[a])continue;const h=I(t,a,c,r);if(null==h&&!n)continue;const d=f.call(this,h,a,c);d&&(i[a]=d)}return i}function j(t){var e,n;if(null==t||null===(e=t.wD)||void 0===e||!e.length)return;this.h=t.wD.shift();const r=null===(n=t.rootId)||void 0===n?void 0:n.slice(0,-1);this.wIs=t.wD.map((t=>`${r}${t}`))}function B(t){const e=new j(t),n=t.svg,r=e.wIs,i=t.originalAnimations[0].elements,s=e.h;function o(t,e,s){var u;if(e[t])return;const l=n.querySelector("#"+t),a=null==l||null===(u=l.parentElement)||void 0===u?void 0:u.id;if(l&&a){if(r.includes(a))return e[a]||o(a,e,s),e[a].children??=[],e[t]=M(l,i),void e[a].children.push(e[t]);e[t]=M(l,i),s.push(e[t])}}async function u(){const t=function(){let t=[],e={};for(let n=0,i=r.length;n<i;n++)o(r[n],e,t);return t}();return await async function(t){var e,n;const r=JSON.stringify(t),i=(new TextEncoder).encode(r),o=await(null===(e=window.crypto)||void 0===e||null===(n=e.subtle)||void 0===n?void 0:n.digest("SHA-256",i));return o&&Array.from(new Uint8Array(o)).map((t=>t.toString(16).padStart(2,"0"))).join("")||s}(t)}this.vH=async function(){await u()!==s&&requestAnimationFrame((()=>t.stop()))}}function N(t){let e=0,n=0;const r=new B(t);this.cF=function(i,s){return t.wD?(e++,function(t){return!(t-n<300)&&(t-n>=500||e>=3)}(i)?(e=0,n=i,window.requestAnimationFrame((()=>r.vH())),s()):s()):s()}}function T(t){return t}function P(t,e,n){const r=1-n;return 3*n*r*(t*r+e*n)+n*n*n}function F(t=0,e=0,n=1,i=1){return t<0||t>1||n<0||n>1?null:r(t,e)&&r(n,i)?T:s=>{if(s<=0)return t>0?s*e/t:0===e&&n>0?s*i/n:0;if(s>=1)return n<1?1+(s-1)*(i-1)/(n-1):1===n&&t<1?1+(s-1)*(e-1)/(t-1):1;let o,u=0,l=1;for(;u<l;){o=(u+l)/2;const e=P(t,n,o);if(r(s,e))break;e<s?u=o:l=o}return P(e,i,o)}}function R(){return 1}function C(t){return 1===t?1:0}function V(t=1,e=0){if(1===t){if(0===e)return C;if(1===e)return R}const n=1/t;return t=>t>=1?1:(t+=e*n)-t%n}Number.isInteger||(Number.isInteger=function(t){return"number"==typeof t&&isFinite(t)&&Math.floor(t)===t}),Number.EPSILON||(Number.EPSILON=2220446049250313e-31);const D=Math.sin,$=Math.cos,L=Math.acos,q=Math.asin,z=Math.tan,G=Math.atan2,W=Math.sqrt;function Y(t,e){return{a:t[0]*e[0]+t[2]*e[1],b:t[1]*e[0]+t[3]*e[1],c:t[0]*e[2]+t[2]*e[3],d:t[1]*e[2]+t[3]*e[3],tx:t[0]*e[4]+t[2]*e[5]+t[4],ty:t[1]*e[4]+t[3]*e[5]+t[5]}}function U(t,e,n){return t>=.5?n:e}function H(t,e,n){return 0===t||e===n?e:t*(n-e)+e}function J(t,e,n){const r=H(t,e,n);return r<=0?0:r}function Q(t,e,n){const r=H(t,e,n);return r<=0?0:r>=1?1:r}function X(t,e,n){return 0===t?e:1===t?n:{x:H(t,e.x,n.x),y:H(t,e.y,n.y)}}function Z(t,e,n){return 0===t?e:1===t?n:{x:J(t,e.x,n.x),y:J(t,e.y,n.y)}}function K(t,e,n){const r=function(t,e,n){return Math.round(H(t,e,n))}(t,e,n);return r<=0?0:r>=255?255:r}function tt(t,e,n){return 0===t?e:1===t?n:{r:K(t,e.r,n.r),g:K(t,e.g,n.g),b:K(t,e.b,n.b),a:H(t,null==e.a?1:e.a,null==n.a?1:n.a)}}function et(t,e,n){let r=e.length;if(r!==n.length)return U(t,e,n);let i=new Array(r);for(let s=0;s<r;s++)i[s]=H(t,e[s],n[s]);return i}function nt(t,e){const n=[];for(let r=0;r<t;r++)n.push(e);return n}function rt(t,e){if(--e<=0)return t;const n=(t=Object.assign([],t)).length;do{for(let e=0;e<n;e++)t.push(t[e])}while(--e>0);return t}class it{constructor(t){this.list=t,this.length=t.length}setAttribute(t,e){const n=this.list;for(let r=0;r<this.length;r++)n[r].setAttribute(t,e)}removeAttribute(t){const e=this.list;for(let n=0;n<this.length;n++)e[n].removeAttribute(t)}style(t,e){const n=this.list;for(let r=0;r<this.length;r++)n[r].style[t]=e}}const st=/-./g,ot=(t,e)=>e.toUpperCase();let ut;function lt(t){return"function"==typeof t?t:U}function at(t){return t?"function"==typeof t?t:Array.isArray(t)?function(t,e=T){if(!Array.isArray(t))return e;switch(t.length){case 1:return V(t[0])||e;case 2:return V(t[0],t[1])||e;case 4:return F(t[0],t[1],t[2],t[3])||e}return e}(t,null):function(t,e,n=T){switch(t){case"linear":return T;case"steps":return V(e.steps||1,e.jump||0)||n;case"bezier":case"cubic-bezier":return F(e.x1||0,e.y1||0,e.x2||0,e.y2||0)||n}return n}(t.type,t.value,null):null}function ct(t,e,n,r=!1){const i=e.length-1;if(t<=e[0].t)return r?[0,0,e[0].v]:e[0].v;if(t>=e[i].t)return r?[i,1,e[i].v]:e[i].v;let s,o=e[0],u=null;for(s=1;s<=i;s++){if(!(t>e[s].t)){u=e[s];break}o=e[s]}return null==u?r?[i,1,e[i].v]:e[i].v:o.t===u.t?r?[s,1,u.v]:u.v:(t=(t-o.t)/(u.t-o.t),o.e&&(t=o.e(t)),r?[s,t,n(t,o.v,u.v)]:n(t,o.v,u.v))}function ft(t,e,n=null){return t&&t.length?"function"!=typeof e?null:("function"!=typeof n&&(n=null),r=>{let i=ct(r,t,e);return null!=i&&n&&(i=n(i)),i}):null}function ht(t,e){return t.t-e.t}function dt(t,e,n,r,i){const s="@"===n[0],o="#"===n[0];let u=ut[n],l=U;var a;switch(s?(a=n.substr(1),n=a.replace(st,ot)):o&&(n=n.substr(1)),typeof u){case"function":if(l=u(r,i,ct,at,n,s,e,t),o)return l;break;case"string":l=ft(r,lt(u));break;case"object":if(l=ft(r,lt(u.i),u.f),l&&"function"==typeof u.u)return u.u(e,l,n,s,t)}return l?function(t,e,n,r=!1){if(r)return t instanceof it?r=>t.style(e,n(r)):r=>t.style[e]=n(r);if(Array.isArray(e)){const r=e.length;return i=>{const s=n(i);if(null==s)for(let n=0;n<r;n++)t[n].removeAttribute(e);else for(let n=0;n<r;n++)t[n].setAttribute(e,s)}}return r=>{const i=n(r);null==i?t.removeAttribute(e):t.setAttribute(e,i)}}(e,n,l,s):null}function gt(t,e,n,r){if(!r||"object"!=typeof r)return null;let i=null,s=null;return Array.isArray(r)?s=function(t){if(!t||!t.length)return null;for(let e=0;e<t.length;e++)t[e].e&&(t[e].e=at(t[e].e));return t.sort(ht)}(r):(s=r.keys,i=r.data||null),s?dt(t,e,n,s,i):null}function pt(t,e,n){if(!n)return null;const r=[];for(const i in n)if(n.hasOwnProperty(i)){const s=gt(t,e,i,n[i]);s&&r.push(s)}return r.length?r:null}function yt(t,e){if(!e.settings.duration||e.settings.duration<0)return null;const n=function(t,e){if(!e)return null;let n=[];if(Array.isArray(e)){const r=e.length;for(let i=0;i<r;i++){const r=e[i];if(2!==r.length)continue;let s=null;if("string"==typeof r[0])s=t.getElementById(r[0]);else if(Array.isArray(r[0])){s=[];for(let e=0;e<r[0].length;e++)if("string"==typeof r[0][e]){const n=t.getElementById(r[0][e]);n&&s.push(n)}s=s.length?1===s.length?s[0]:new it(s):null}if(!s)continue;const o=pt(t,s,r[1]);o&&(n=n.concat(o))}}else for(const r in e){if(!e.hasOwnProperty(r))continue;const i=t.getElementById(r);if(!i)continue;const s=pt(t,i,e[r]);s&&(n=n.concat(s))}return n.length?n:null}(t,e.elements);return n?function(t,e){const n=e.duration,r=t.length;let i=null;return(s,o)=>{const u=e.iterations||1/0,l=(e.alternate&&u%2==0)^e.direction>0?n:0;let a=s%n,c=1+(s-a)/n;o*=e.direction,e.alternate&&c%2==0&&(o=-o);let f=!1;if(c>u)a=l,f=!0,-1===e.fill&&(a=e.direction>0?0:n);else if(o<0&&(a=n-a),a===i)return!1;i=a;for(let e=0;e<r;e++)t[e](a);return f}}(n,e.settings):null}function mt(t,e=document,n=0){const r=function(t,e){const n=e.querySelectorAll("svg");for(let e=0;e<n.length;e++)if(n[e].id===t.root&&!n[e].svgatorAnimation)return n[e].svgatorAnimation=!0,n[e];return null}(t,e);if(r)return r;if(n>=20)return null;const i=function(t){const e=t=>t.shadowRoot;return document?Array.from(t.querySelectorAll(":not("+["a","area","audio","br","canvas","circle","datalist","embed","g","head","hr","iframe","img","input","link","object","path","polygon","rect","script","source","style","svg","title","track","video"].join()+")")).filter(e).map(e):[]}(e);for(let e=0;e<i.length;e++){const r=mt(t,i[e],n+1);if(r)return r}return null}function vt(t,e=null,n=Number,r="undefined"!=typeof BigInt&&BigInt){const i="0x"+(t.replace(/[^0-9a-fA-F]+/g,"")||27);return e&&r&&n.isSafeInteger&&!n.isSafeInteger(+i)?n(r(i))%e+e:+i}function bt(t,e=27){return!t||t%e?t%e:[0,1].includes(e)?e:bt(t/e,e)}function wt(t,e,n){if(!t||!t.length)return;const r=vt(n),i=bt(r)+5;let s=function(t,e,n){let r="";for(;t&&n&&e<=t.length;)r+=t.substring(0,e),t=t.substring(e+1),e=n;return r+t}(t,bt(r,5),i);return s=s.replace(/\x7c$/g,"==").replace(/\x2f$/g,"="),s=atob(s),s=s.replace(/[\x41-\x5A]/g,""),s=function(t,e,n){const r=+("0x"+t.substring(0,4));t=t.substring(4);const i=vt(e,r)%r+n%27,s=[];for(let e=0;e<t.length;e+=2){if("|"===t[e]){const n=+("0x"+t.substring(e+1,e+1+4))-i;e+=3,s.push(n);continue}const n=+("0x"+t[e]+t[e+1])-i;s.push(n)}return String.fromCharCode(...s)}(s,e,r),s=JSON.parse(s),s}const xt=[{key:"alternate",def:!1},{key:"fill",def:1},{key:"iterations",def:0},{key:"direction",def:1},{key:"speed",def:1},{key:"fps",def:100}];function At(t){return n(t)+""}function _t(t,e=" "){return t&&t.length?t.map(At).join(e):""}function kt(t){return At(t.x)+","+At(t.y)}function St(t){return t?null==t.a||t.a>=1?function(t){if(!t)return"transparent";const e=t=>parseInt(t).toString(16).padStart(2,"0");return function(t){const e=[];let n="#"===t[0]?e.push("#"):0;for(;n<t.length;n+=2){if(t[n]!==t[n+1])return t;e.push(t[n])}return e.join("")}("#"+e(t.r)+e(t.g)+e(t.b)+(null==t.a||t.a>=1?"":e(255*t.a)))}(t):"rgba("+t.r+","+t.g+","+t.b+","+t.a+")":"transparent"}function Et(t){return t?"url(#"+t+")":"none"}!function(){for(var t=0,e=["ms","moz","webkit","o"],n=0;n<e.length&&!window.requestAnimationFrame;++n)window.requestAnimationFrame=window[e[n]+"RequestAnimationFrame"],window.cancelAnimationFrame=window[e[n]+"CancelAnimationFrame"]||window[e[n]+"CancelRequestAnimationFrame"];window.requestAnimationFrame||(window.requestAnimationFrame=function(e){var n=Date.now(),r=Math.max(0,16-(n-t)),i=window.setTimeout((function(){e(n+r)}),r);return t=n+r,i},window.cancelAnimationFrame=window.clearTimeout)}();var Ot={f:null,i:Z,u:(t,e)=>n=>{const r=e(n);t.setAttribute("rx",At(r.x)),t.setAttribute("ry",At(r.y))}},It={f:null,i:function(t,e,n){return 0===t?e:1===t?n:{width:J(t,e.width,n.width),height:J(t,e.height,n.height)}},u:(t,e)=>n=>{const r=e(n);t.setAttribute("width",At(r.width)),t.setAttribute("height",At(r.height))}};Object.freeze({M:2,L:2,Z:0,H:1,V:1,C:6,Q:4,T:2,S:4,A:7});let Mt={},jt=null;function Bt(t){let e=function(){if(jt)return jt;if("object"!=typeof document||!document.createElementNS)return{};let t=document.createElementNS("http://www.w3.org/2000/svg","svg");return t&&t.style?(t.style.position="absolute",t.style.opacity="0.01",t.style.zIndex="-9999",t.style.left="-9999px",t.style.width="1px",t.style.height="1px",jt={svg:t},jt):{}}().svg;if(!e)return function(t){return null};let n=document.createElementNS(e.namespaceURI,"path");n.setAttributeNS(null,"d",t),n.setAttributeNS(null,"fill","none"),n.setAttributeNS(null,"stroke","none"),e.appendChild(n);let r=n.getTotalLength();return function(t){let e=n.getPointAtLength(r*t);return{x:e.x,y:e.y}}}function Nt(t,e,n,r,i=1){let s=function(t){return Mt[t]?Mt[t]:Mt[t]=Bt(t)}(function(t,e,n,r){if(!t||!r)return!1;let i=["M",t.x,t.y];if(e&&n&&(i.push("C"),i.push(e.x),i.push(e.y),i.push(n.x),i.push(n.y)),e?!n:n){let t=e||n;i.push("Q"),i.push(t.x),i.push(t.y)}return e||n||i.push("L"),i.push(r.x),i.push(r.y),i.join(" ")}(t,e,n,r));try{return s(i)}catch(t){return null}}function Tt(t,e,n){return t+(e-t)*n}function Pt(t,e,n,r=!1){const i={x:Tt(t.x,e.x,n),y:Tt(t.y,e.y,n)};return r&&(i.a=function(t,e){return Math.atan2(e.y-t.y,e.x-t.x)}(t,e)),i}function Ft(t,e,n,r){const i=1-r;return i*i*t+2*i*r*e+r*r*n}function Rt(t,e,n,r){return 2*(1-r)*(e-t)+2*r*(n-e)}function Ct(t,e,n,r,i=!1){let s=Nt(t,e,null,n,r);return s||(s={x:Ft(t.x,e.x,n.x,r),y:Ft(t.y,e.y,n.y,r)}),i&&(s.a=function(t,e,n,r){return Math.atan2(Rt(t.y,e.y,n.y,r),Rt(t.x,e.x,n.x,r))}(t,e,n,r)),s}function Vt(t,e,n,r,i){const s=i*i;return i*s*(r-t+3*(e-n))+3*s*(t+n-2*e)+3*i*(e-t)+t}function Dt(t,e,n,r,i){const s=1-i;return 3*(s*s*(e-t)+2*s*i*(n-e)+i*i*(r-n))}function $t(t,e,n,r,i,s=!1){let o=Nt(t,e,n,r,i);return o||(o={x:Vt(t.x,e.x,n.x,r.x,i),y:Vt(t.y,e.y,n.y,r.y,i)}),s&&(o.a=function(t,e,n,r,i){return Math.atan2(Dt(t.y,e.y,n.y,r.y,i),Dt(t.x,e.x,n.x,r.x,i))}(t,e,n,r,i)),o}function Lt(t,e,n,r=!1){if(zt(e)){if(Gt(n))return Ct(e,n.start,n,t,r)}else if(zt(n)){if(Wt(e))return Ct(e,e.end,n,t,r)}else{if(Wt(e))return Gt(n)?$t(e,e.end,n.start,n,t,r):Ct(e,e.end,n,t,r);if(Gt(n))return Ct(e,n.start,n,t,r)}return Pt(e,n,t,r)}function qt(t,e,n){const r=Lt(t,e,n,!0);return r.a=o(function(t,e=!1){return e?t+Math.PI:t}(r.a)),r}function zt(t){return!t.type||"corner"===t.type}function Gt(t){return null!=t.start&&!zt(t)}function Wt(t){return null!=t.end&&!zt(t)}const Yt=new class{constructor(t=1,e=0,n=0,r=1,i=0,s=0){this.m=[t,e,n,r,i,s],this.i=null,this.w=null,this.s=null}get determinant(){const t=this.m;return t[0]*t[3]-t[1]*t[2]}get isIdentity(){if(null===this.i){const t=this.m;this.i=1===t[0]&&0===t[1]&&0===t[2]&&1===t[3]&&0===t[4]&&0===t[5]}return this.i}point(t,e){const n=this.m;return{x:n[0]*t+n[2]*e+n[4],y:n[1]*t+n[3]*e+n[5]}}translateSelf(t=0,e=0){if(!t&&!e)return this;const n=this.m;return n[4]+=n[0]*t+n[2]*e,n[5]+=n[1]*t+n[3]*e,this.w=this.s=this.i=null,this}rotateSelf(t=0){if(t%=360){t=s(t);const e=D(t),n=$(t),r=this.m,i=r[0],o=r[1];r[0]=i*n+r[2]*e,r[1]=o*n+r[3]*e,r[2]=r[2]*n-i*e,r[3]=r[3]*n-o*e,this.w=this.s=this.i=null}return this}scaleSelf(t=1,e=1){if(1!==t||1!==e){const n=this.m;n[0]*=t,n[1]*=t,n[2]*=e,n[3]*=e,this.w=this.s=this.i=null}return this}skewSelf(t,e){if(e%=360,(t%=360)||e){const n=this.m,r=n[0],i=n[1],o=n[2],u=n[3];t&&(t=z(s(t)),n[2]+=r*t,n[3]+=i*t),e&&(e=z(s(e)),n[0]+=o*e,n[1]+=u*e),this.w=this.s=this.i=null}return this}resetSelf(t=1,e=0,n=0,r=1,i=0,s=0){const o=this.m;return o[0]=t,o[1]=e,o[2]=n,o[3]=r,o[4]=i,o[5]=s,this.w=this.s=this.i=null,this}recomposeSelf(t=null,e=null,n=null,r=null,i=null){return this.isIdentity||this.resetSelf(),t&&(t.x||t.y)&&this.translateSelf(t.x,t.y),e&&this.rotateSelf(e),n&&(n.x&&this.skewSelf(n.x,0),n.y&&this.skewSelf(0,n.y)),!r||1===r.x&&1===r.y||this.scaleSelf(r.x,r.y),i&&(i.x||i.y)&&this.translateSelf(i.x,i.y),this}decompose(t=0,e=0){const r=this.m,i=r[0]*r[0]+r[1]*r[1],s=[[r[0],r[1]],[r[2],r[3]]];let u=W(i);if(0===u)return{origin:{x:n(r[4]),y:n(r[5])},translate:{x:n(t),y:n(e)},scale:{x:0,y:0},skew:{x:0,y:0},rotate:0};s[0][0]/=u,s[0][1]/=u;const l=r[0]*r[3]-r[1]*r[2]<0;l&&(u=-u);let a=s[0][0]*s[1][0]+s[0][1]*s[1][1];s[1][0]-=s[0][0]*a,s[1][1]-=s[0][1]*a;let c,f=W(s[1][0]*s[1][0]+s[1][1]*s[1][1]);return 0===f?{origin:{x:n(r[4]),y:n(r[5])},translate:{x:n(t),y:n(e)},scale:{x:n(u),y:0},skew:{x:0,y:0},rotate:0}:(s[1][0]/=f,s[1][1]/=f,a/=f,s[1][1]<0?(c=o(L(s[1][1])),s[0][1]<0&&(c=360-c)):c=o(q(s[0][1])),l&&(c=-c),a=o(G(a,W(s[0][0]*s[0][0]+s[0][1]*s[0][1]))),l&&(a=-a),{origin:{x:n(r[4]),y:n(r[5])},translate:{x:n(t),y:n(e)},scale:{x:n(u),y:n(f)},skew:{x:n(a),y:0},rotate:n(c)})}multiply(t){return this.clone().multiplySelf(t)}preMultiply(t){return t.multiply(this)}multiplySelf(t){const{a:e,b:n,c:r,d:i,tx:s,ty:o}=Y(this.m,t.m);return this.resetSelf(e,n,r,i,s,o),this}preMultiplySelf(t){const{a:e,b:n,c:r,d:i,tx:s,ty:o}=Y(t.m,this.m);return this.resetSelf(e,n,r,i,s,o),this}clone(){const t=this.m;return new this.constructor(t[0],t[1],t[2],t[3],t[4],t[5])}static create(t){return t?Array.isArray(t)?new this(...t):t instanceof this?t.clone():(new this).recomposeSelf(t.origin,t.rotate,t.skew,t.scale,t.translate):new this}toString(t=" ",e=!1){if(null===this.s){let r=this.m.map((t=>n(t)));e||1!==r[0]||0!==r[1]||0!==r[2]||1!==r[3]?this.s="matrix("+r.join(t)+")":this.s="translate("+r[4]+t+r[5]+")"}return this.s}};var Ut={f:function(t){return t?t.join(" "):""},i:function(t,e,n){if(0===t)return e;if(1===t)return n;let r=e.length;if(r!==n.length)return U(t,e,n);let i,s=new Array(r);for(let o=0;o<r;o++){if(i=typeof e[o],i!==typeof n[o])return U(t,e,n);if("number"===i)s[o]=H(t,e[o],n[o]);else{if(e[o]!==n[o])return U(t,e,n);s[o]=e[o]}}return s}},Ht={f:null,i:et,u:(t,e)=>n=>{const r=e(n);t.setAttribute("x1",At(r[0])),t.setAttribute("y1",At(r[1])),t.setAttribute("x2",At(r[2])),t.setAttribute("y2",At(r[3]))}},Jt={f:At,i:H},Qt={f:At,i:Q},Xt={f:function(t,e=" "){return t&&t.length>0&&(t=t.map((t=>n(t,4)))),_t(t,e)},i:function(t,e,r){let i=e.length,s=r.length;if(i!==s)if(0===i)i=s,e=nt(i,0);else if(0===s)s=i,r=nt(i,0);else{const t=function(t,e){const n=t*e/function(t,e){let n;for(;e;)n=e,e=t%e,t=n;return t||1}(t,e);return n<0?-n:n}(i,s);e=rt(e,Math.floor(t/i)),r=rt(r,Math.floor(t/s)),i=s=t}let o=[];for(let s=0;s<i;s++)o.push(n(J(t,e[s],r[s])));return o}};function Zt(t,e,r){return t.map((t=>function(t,e,r){let i=t.v;if(!i||"g"!==i.t||i.s||!i.v||!i.r)return t;const s=r.getElementById(i.r),o=s&&s.querySelectorAll("stop")||[];return i.s=i.v.map(((t,e)=>{let r=o[e]&&o[e].getAttribute("offset");return r=n(parseInt(r)/100),{c:t,o:r}})),delete i.v,t}(t,0,r)))}const Kt={gt:"gradientTransform",c:{x:"cx",y:"cy"},rd:"r",f:{x:"x1",y:"y1"},to:{x:"x2",y:"y2"}};function te(t,e,n,r,i,s,o,u){return Zt(t,0,u),e=function(t,e,n){let r,i,s;const o=t.length-1,u={};for(let l=0;l<=o;l++)r=t[l],r.e&&(r.e=e(r.e)),r.v&&(i=r.v,"g"===i.t&&i.r&&(s=n.getElementById(i.r),s&&(u[i.r]={e:s,s:s.querySelectorAll("stop")})));return u}(t,r,u),r=>{const i=n(r,t,ee);if(!i)return"none";if("c"===i.t)return St(i.v);if("g"===i.t){if(!e[i.r])return Et(i.r);const t=e[i.r];return function(t,e){let n=t.s;for(let r=n.length;r<e.length;r++){const e=n[n.length-1].cloneNode();e.id=ie(e.id),t.e.appendChild(e),n=t.s=t.e.querySelectorAll("stop")}for(let t=0,r=n.length,i=e.length-1;t<r;t++)n[t].setAttribute("stop-color",St(e[Math.min(t,i)].c)),n[t].setAttribute("offset",e[Math.min(t,i)].o)}(t,i.s),Object.keys(Kt).forEach((e=>{if(void 0===i[e])return;if("object"==typeof Kt[e])return void Object.keys(Kt[e]).forEach((n=>{if(void 0===i[e][n])return;const r=i[e][n],s=Kt[e][n];t.e.setAttribute(s,r)}));const n="gt"===e?(r=i[e],Array.isArray(r)?"matrix("+r.join(" ")+")":""):i[e];var r;const s=Kt[e];t.e.setAttribute(s,n)})),Et(i.r)}return"none"}}function ee(t,e,n){if(0===t)return e;if(1===t)return n;if(e&&n){const r=e.t;if(r===n.t)switch(e.t){case"c":return{t:r,v:tt(t,e.v,n.v)};case"g":if(e.r===n.r){const i={t:r,s:ne(t,e.s,n.s),r:e.r};return e.gt&&n.gt&&(i.gt=et(t,e.gt,n.gt)),e.c?(i.c=X(t,e.c,n.c),i.rd=J(t,e.rd,n.rd)):e.f&&(i.f=X(t,e.f,n.f),i.to=X(t,e.to,n.to)),i}}if("c"===e.t&&"g"===n.t||"c"===n.t&&"g"===e.t){const r="c"===e.t?e:n,i="g"===e.t?{...e}:{...n},s=i.s.map((t=>({c:r.v,o:t.o})));return i.s="c"===e.t?ne(t,s,i.s):ne(t,i.s,s),i}}return U(t,e,n)}function ne(t,e,n){if(e.length===n.length)return e.map(((e,r)=>re(t,e,n[r])));const r=Math.max(e.length,n.length),i=[];for(let s=0;s<r;s++){const r=re(t,e[Math.min(s,e.length-1)],n[Math.min(s,n.length-1)]);i.push(r)}return i}function re(t,e,n){return{o:Q(t,e.o,n.o||0),c:tt(t,e.c,n.c||{})}}function ie(t){return t.replace(/-fill-([0-9]+)$/,((t,e)=>"-fill-"+(+e+1)))}function se(t,e,n){return 0===t?e:1===t?n:{blur:Z(t,e.blur,n.blur),offset:X(t,e.offset,n.offset),color:tt(t,e.color,n.color)}}const oe={blur:Z,brightness:J,contrast:J,"drop-shadow":se,"inner-shadow":se,grayscale:J,"hue-rotate":H,invert:J,opacity:J,saturate:J,sepia:J};function ue(t,e,n){if(0===t)return e;if(1===t)return n;const r=e.length;if(r!==n.length)return U(t,e,n);const i=[];let s;for(let o=0;o<r;o++){if(e[o].type!==n[o].type)return e;if(s=oe[e[o].type],!s)return U(t,e,n);i.push({type:e.type,value:s(t,e[o].value,n[o].value)})}return i}const le={blur:t=>t?e=>{t.setAttribute("stdDeviation",kt(e))}:null,brightness:(t,e,n)=>(t=ce(n,e))?e=>{e=At(e),t.map((t=>t.setAttribute("slope",e)))}:null,contrast:(t,e,n)=>(t=ce(n,e))?e=>{const n=At((1-e)/2);e=At(e),t.map((t=>{t.setAttribute("slope",e),t.setAttribute("intercept",n)}))}:null,"drop-shadow"(t,e,n){const r=n.getElementById(e+"-blur");if(!r)return null;const i=n.getElementById(e+"-offset");if(!i)return null;const s=n.getElementById(e+"-flood");return s?t=>{r.setAttribute("stdDeviation",kt(t.blur)),i.setAttribute("dx",At(t.offset.x)),i.setAttribute("dy",At(t.offset.y)),s.setAttribute("flood-color",St(t.color))}:null},"inner-shadow"(t,e,n){const r=n.getElementById(e+"-blur");if(!r)return null;const i=n.getElementById(e+"-offset");if(!i)return null;const s=n.getElementById(e+"-color-matrix");return s?t=>{r.setAttribute("stdDeviation",kt(t.blur)),i.setAttribute("dx",At(t.offset.x)),i.setAttribute("dy",At(t.offset.y));const e=[0,0,0,0,t.color.r/255,0,0,0,0,t.color.g/255,0,0,0,0,t.color.b/255,0,0,0,t.color.a,0];s.setAttribute("values",_t(e))}:null},grayscale:t=>t?e=>{t.setAttribute("values",_t(function(t){return[.2126+.7874*(t=1-t),.7152-.7152*t,.0722-.0722*t,0,0,.2126-.2126*t,.7152+.2848*t,.0722-.0722*t,0,0,.2126-.2126*t,.7152-.7152*t,.0722+.9278*t,0,0,0,0,0,1,0]}(e)))}:null,"hue-rotate":t=>t?e=>t.setAttribute("values",At(e)):null,invert:(t,e,n)=>(t=ce(n,e))?e=>{e=At(e)+" "+At(1-e),t.map((t=>t.setAttribute("tableValues",e)))}:null,opacity:(t,e,n)=>(t=n.getElementById(e+"-A"))?e=>t.setAttribute("tableValues","0 "+At(e)):null,saturate:t=>t?e=>t.setAttribute("values",At(e)):null,sepia:t=>t?e=>t.setAttribute("values",_t(function(t){return[.393+.607*(t=1-t),.769-.769*t,.189-.189*t,0,0,.349-.349*t,.686+.314*t,.168-.168*t,0,0,.272-.272*t,.534-.534*t,.131+.869*t,0,0,0,0,0,1,0]}(e))):null};const ae=["R","G","B"];function ce(t,e){const n=ae.map((n=>t.getElementById(e+"-"+n)||null));return-1!==n.indexOf(null)?null:n}var fe={fill:te,"fill-opacity":Qt,stroke:te,"stroke-opacity":Qt,"stroke-width":Jt,"stroke-dashoffset":{f:At,i:H},"stroke-dasharray":Xt,opacity:Qt,transform:function(t,e,n,r){if(!(t=function(t,e){if(!t||"object"!=typeof t)return null;let n=!1;for(const r in t)t.hasOwnProperty(r)&&(t[r]&&t[r].length?(t[r].forEach((t=>{t.e&&(t.e=e(t.e))})),n=!0):delete t[r]);return n?t:null}(t,r)))return null;const i=(r,i,s,o=null)=>t[r]?n(i,t[r],s):e&&e[r]?e[r]:o;return e&&e.a&&t.o?e=>{const r=n(e,t.o,qt);return Yt.recomposeSelf(r,i("r",e,H,0)+r.a,i("k",e,X),i("s",e,X),i("t",e,X)).toString()}:t=>Yt.recomposeSelf(i("o",t,Lt,null),i("r",t,H,0),i("k",t,X),i("s",t,X),i("t",t,X)).toString()},"#filter":function(t,e,n,r,i,s,o,u){if(!e.items||!t||!t.length)return null;const l=function(t,e){const n=(t=t.map((t=>t&&le[t[0]]?(e.getElementById(t[1]),le[t[0]](e.getElementById(t[1]),t[1],e)):null))).length;return e=>{for(let r=0;r<n;r++)t[r]&&t[r](e[r].value)}}(e.items,u);return l?(t=function(t,e){return t.map((t=>(t.e=e(t.e),t)))}(t,r),e=>{l(n(e,t,ue))}):null},"#line":Ht,points:{f:_t,i:et},d:Ut,r:Jt,"#size":It,"#radius":Ot,_(t,e){if(Array.isArray(t))for(let n=0;n<t.length;n++)this[t[n]]=e;else this[t]=e}};const he={currentTime:"offset",duration:"duration",hasEnded:function(){return this.reachedToEnd()},isAlternate:"alternate",isPlaying:"_running",isRollingBack:"_rollingBack",state:function(t,e){return e.isPlaying?e.isRollingBack?"rollback":"playing":e.hasEnded?"ended":"paused"},totalTime:"maxFiniteDuration",iterations:"iterations",direction:"direction",fill:"fill",isReversed:function(t,e){return-1===e.direction},isBackwards:function(t,e){return-1===e.fill},isInfinite:function(t,e){return 0===e.iterations},speed:"speed",fps:"fps"},de={destruct:"destruct",pause:"pause",play:function(t,e){return ge(t,e.hasEnded?"restart":"play",e)},restart:"restart",reverse:function(t,e){return ge(t,"reverse",e,[!0])},seek:"seek",seekBy:"seekBy",seekTo:"seekTo",stop:"stop",toggle:"toggle",togglePlay:"toggle",set:"set"};function ge(t,e,n,r=[]){return function(){const i=[...arguments];return i.unshift(...r),t[e].call(t,...i),n}}class pe{constructor(t){const e={},n=["on","off"],r={get:function(t,r,i){return he[r]?"function"==typeof he[r]?he[r].call(t,t,i):t[he[r]]:de[r]?"function"==typeof de[r]?de[r].call(t,t,i):ge(t,de[r],i):-1!==n.indexOf(r)?e[r]:"ready"===r?t=>(t&&t.call(i,i),i):void 0},set:function(t,r,i){return-1!==n.indexOf(r)&&(e[r]=i)},ownKeys:function(t){return Object.keys(he)},has:function(t,e){return void 0!==he[e]}};if("function"==typeof Proxy)return new Proxy(t,r);const i=Object.keys(he).concat(Object.keys(de)).concat(n),s={};return i.forEach((e=>{const i={enumerable:!1,configurable:!1,get:()=>r.get(t,e,s)};-1!==n.indexOf(e)&&(i.set=n=>r.set(t,e,n)),Object.defineProperty(s,e,i)})),s}}function ye(t){t||(t=this);let e={};this.on=function(t,n,r=!1){return"function"==typeof n&&(t.split(/[, ]+/g).forEach((t=>(e[t]=e[t]||[],r?e[t].unshift(n):e[t].push(n)))),!0)},this.off=function(t,n){for(let r in e)if(e.hasOwnProperty(r)&&r.substr(0,t.length)===t)if(n)for(let t=0;t<e[r].length;t++)e[r][t]===n&&(e[r][t]=null);else e[r]=null},this.trigger=function(){let n,[r,...i]=[...arguments];t:for(let s in e)if(e.hasOwnProperty(s)&&e[s]&&(s===r||s.substr(0,r.length+1)===r+"."))for(let r=0;r<(e[s]||[]).length;r++)if(e[s][r]&&(n=e[s][r].apply(t,i),!1===n))break t;return n}}let me=function(t,e,n=n){let r=!1,i=null;return function(s){r&&clearTimeout(r),r=setTimeout((()=>function(){let s=0,o=n.innerHeight,u=0,l=n.innerWidth,a=t.parentNode;for(;a instanceof Element;){let t=n.getComputedStyle(a);if("visible"!==t.overflowY||"visible"!==t.overflowX){let e=a.getBoundingClientRect();"visible"!==t.overflowY&&(s=Math.max(s,e.top),o=Math.min(o,e.bottom)),"visible"!==t.overflowX&&(u=Math.max(u,e.left),l=Math.min(l,e.right))}if(a===a.parentNode)break;a=a.parentNode}r=!1;let c=t.getBoundingClientRect(),f=Math.min(c.height,Math.max(0,s-c.top)),h=Math.min(c.height,Math.max(0,c.bottom-o)),d=Math.min(c.width,Math.max(0,u-c.left)),g=Math.min(c.width,Math.max(0,c.right-l)),p=(c.height-f-h)/c.height,y=(c.width-d-g)/c.width,m=Math.round(p*y*100);null!==i&&i===m||(i=m,e(m))}()),100)}};class ve{constructor(t,e,n){const r=function(t){var e,n;const r=t&&1===(null===(e=t.ownerDocument)||void 0===e||null===(n=e.childNodes)||void 0===n?void 0:n.length)&&window.parent!==window,i={el:t,window:window};if(!r)return i;let s;try{s=window.parent.document}catch(t){return i}return i.window=window.parent,i.el=Array.from(s.querySelectorAll("iframe,object")).filter((t=>t.contentWindow===window))[0]||i.el,i}(t);e=Math.max(1,e||1),e=Math.min(e,100),this.el=r.el,this._handlers=[],this.onThresholdChange=n&&n.call?n:()=>{},this.thresholdPercent=e||1,this.currentVisibility=null,this.visibilityCalculator=me(this.el,this.onVisibilityUpdate.bind(this),r.window),this.bindScrollWatchers(),this.visibilityCalculator()}bindScrollWatchers(){let t=this.el.parentNode;for(;t&&(this._handlers.push({element:t,event:"scroll",handler:this.visibilityCalculator}),t.addEventListener("scroll",this.visibilityCalculator),t!==t.parentNode&&t!==document);)t=t.parentNode}onVisibilityUpdate(t){let e=this.currentVisibility>=this.thresholdPercent,n=t>=this.thresholdPercent;if(null===this.currentVisibility||e!==n)return this.currentVisibility=t,void this.onThresholdChange(n);this.currentVisibility=t}destruct(){this._handlers.forEach((t=>{t.element.removeEventListener(t.event,t.handler)}))}}class be{static adjustLink(t){var e,n;const r=t&&1===(null===(e=t.ownerDocument)||void 0===e||null===(n=e.childNodes)||void 0===n?void 0:n.length)&&window.parent!==window,i=null==t?void 0:t.firstElementChild;r&&i&&"a"===i.tagName&&!i.getAttribute("target")&&i.setAttributeNS(null,"target","_parent")}static autoPlay(t,e,n,r=[]){if("click"===n.start){const i=()=>{switch(n.click){case"freeze":return!t._running&&t.reachedToEnd()?t.restart():t.toggle();case"restart":return t.offset>0?t.restart():t.play();case"reverse":return t._running?t.reverse():t.reachedToEnd()?1===t.fill?t.reverse(!0):t.restart():t.play();case"none":default:if(t._running)return;return t.reachedToEnd()?t.restart():t.play()}};return r.push({element:e,event:"click",handler:i}),void e.addEventListener("click",i)}if("hover"===n.start){const i=()=>t.reachedToEnd()?t.restart():t._rollingBack?t.reverse():t.play();r.push({element:e,event:"mouseenter",handler:i}),e.addEventListener("mouseenter",i);const s=()=>{switch(n.hover){case"freeze":return t.pause();case"reset":return t.stop();case"reverse":if(t.reverse(),t._running)return;return t.play();case"none":default:return}};return r.push({element:e,event:"mouseleave",handler:s}),void e.addEventListener("mouseleave",s)}if("scroll"!==n.start)"programmatic"!==n.start&&t.play();else{const i=new ve(e,n.scroll||25,(function(e){e?t.reachedToEnd()?t.restart():t.play():t.pause()}));r.push({callback:()=>i.destruct()})}}}const we=!0,xe=["iterations","speed","fps","direction","fill","alternate"];class Ae extends class{_svg;_rootId;constructor(t){this._id=0,this._running=!1,this._rollingBack=!1,this._animations=t.animations,this._settings=t.animationSettings,t.version<"2022-05-02"&&delete this._settings.speed,xt.forEach((t=>{this._settings[t.key]=this._settings[t.key]||t.def})),this.duration=t.animationSettings.duration,this.offset=t.animationSettings.offset||0,this.rollbackStartOffset=0,this._rootId=t.root,this._svg=t.svg,this._originalAnimations=t.originalAnimations,this._fTC=new N(this)}get svg(){return this._svg}get rootId(){return this._rootId}get alternate(){return this._settings.alternate}get fill(){return this._settings.fill}get iterations(){return this._settings.iterations}get direction(){return this._settings.direction}get speed(){return this._settings.speed}get fps(){return this._settings.fps}get wD(){return this._settings.w}get originalAnimations(){return this._originalAnimations}get maxFiniteDuration(){return this.iterations>0?this.iterations*this.duration:this.duration}static build(t,e){if(delete t.animationSettings,t.options=wt(t.options,t.root,"7c8cb2ed"),t.animations.map((e=>{e.settings=wt(e.s,t.root,"7c8cb2ed"),delete e.s,t.animationSettings||(t.animationSettings=e.settings)})),Object.assign(t,{originalAnimations:t.animations},function(t,e){if(ut=e,!t||!t.root||!Array.isArray(t.animations))return null;const n=mt(t);if(!n)return null;const r=t.animations.map((t=>yt(n,t))).filter((t=>!!t));return r.length?{svg:n,animations:r}:null}(t,e)),!t)return null;const n=t.options||{},r=new this(t);return{el:t.svg,options:n,player:r}}static push(t){return this.build(t)}static init(){const t=window.__SVGATOR_PLAYER__&&window.__SVGATOR_PLAYER__["7c8cb2ed"];Array.isArray(t)&&t.splice(0).forEach((t=>this.build(t)))}_apply(t,e={}){const n=this._animations,r=n.length;let i=0;for(let s=0;s<r;s++)e[s]?i++:(e[s]=n[s](t,1),e[s]&&i++);return i}_rollback(t){let e=1/0,n=null;this.rollbackStartOffset=t,this._rollingBack=!0,this._running=!0;const r=i=>{if(!this._rollingBack)return;null==n&&(n=i);let s=Math.round(t-(i-n)*this.speed);if(s>this.duration&&e!==1/0){const t=!!this.alternate&&s/this.duration%2>1;let e=s%this.duration;e+=t?this.duration:0,s=e||this.duration}const o=(this.fps?1e3/this.fps:0)*this.speed,u=Math.max(0,s);u<=e-o&&(this.offset=u,e=u,this._apply(u));const l=this.iterations>0&&-1===this.fill&&s>=this.maxFiniteDuration;(s<=0||this.offset<s||l)&&this.stop(),this._id=window.requestAnimationFrame(r)};this._id=window.requestAnimationFrame(r)}_start(t=0){let e,n=-1/0;const r={};this._running=!0;const i=s=>{e??=s;const o=Math.round((s-e)*this.speed+t),u=(this.fps?1e3/this.fps:0)*this.speed;o>=n+u&&!this._rollingBack&&this._fTC.cF(s,(()=>{this.offset=o,n=o;if(this._apply(o,r)===this._animations.length)return this.pause(!0),!0}))||(this._id=window.requestAnimationFrame(i))};this._id=window.requestAnimationFrame(i)}_pause(){this._id&&window.cancelAnimationFrame(this._id),this._running=!1}play(){if(!this._running)return this._rollingBack?this._rollback(this.offset):this._start(this.offset)}stop(){this._pause(),this.offset=0,this.rollbackStartOffset=0,this._rollingBack=!1,this._apply(0)}reachedToEnd(){return this.iterations>0&&this.offset>=this.iterations*this.duration}restart(t=!1){this.stop(t),this.play(t)}pause(){this._pause()}toggle(){return this._running?this.pause():this.reachedToEnd()?this.restart():this.play()}trigger(t,e){}_adjustOffset(t=!1){const e=this.alternate?2*this.duration:this.duration;if(t){if(!this._rollingBack&&0===this.offset)return void(this.offset=e);this._rollingBack&&(this.offset,this.maxFiniteDuration)}!this._rollingBack||this.rollbackStartOffset<=this.duration?0!==this.iterations&&(this.offset=Math.min(this.offset,this.maxFiniteDuration)):(this.offset=this.rollbackStartOffset-(this.rollbackStartOffset-this.offset)%e,this.rollbackStartOffset=0)}reverse(t=!1){if(!this._running)return this._adjustOffset(t),this._rollingBack=!this._rollingBack,t&&this.play(!1),void this.trigger("reverse",this.offset);this.pause(!1,!1),this._adjustOffset(),this._rollingBack=!this._rollingBack,this.play(!1),this.trigger("reverse",this.offset)}}{constructor(t){super(t),this._handlers=[]}static build(t){let e=super.build(t,fe);if(!e)return null;let{el:n,options:r,player:i}=e;const s=new pe(i),o=new ye(s);s.on=o.on,s.off=o.off,i.trigger=o.trigger;const u=n.svgatorPlayer&&n.svgatorPlayer.ready&&n.svgatorPlayer.ready.call&&n.svgatorPlayer.ready.call();n.svgatorPlayer=s,be.adjustLink(n),be.autoPlay(i,n,r,i._handlers),function(t,e,n){let r;"function"==typeof Event?r=new Event("ready"):(r=document.createEvent("Event"),r.initEvent("ready",!0,!0));if(t.dispatchEvent(r),!n||!n.length)return;n.forEach((t=>e.ready(t)))}(n,n.svgatorPlayer,u)}play(t=true){const e=super.play();return t===we&&this.trigger("play",this.offset),e}pause(t=!1,e=true){const n=super.pause();return e===we&&this.trigger(t?"end":"pause",this.offset),n}restart(){const t=super.restart(!1);return this.trigger("restart",this.offset),t}stop(t=true){const e=super.stop();return t===we&&this.trigger("stop",this.offset),e}_apply(t,e={},n=true){const r=super._apply(t);if(n===we){const e=()=>this.trigger("keyframe",t);window.requestAnimationFrame(e)}return r}seekTo(t){const e=this._running;var n,r,i;e&&this.pause(!1,!1),this.offset=this.iterations>0?(n=t,r=0,i=this.maxFiniteDuration,n<r?r:n>i?i:n):Math.max(t,0),this._apply(this.offset),e&&this.play(!1)}seek(t){return this.seekTo(Math.round(t/100*this.maxFiniteDuration))}seekBy(t){return this.seekTo(this.offset+t)}set(t,e){if(!xe.includes(t))return;const n=this._running;n&&this.pause(!1,!1),this._settings[t]=e,n?this.play(!1):this._apply(this.offset,{},!1)}destruct(){this.stop(),this._handlers.forEach((t=>{t.element?t.element.removeEventListener(t.event,t.handler):t.callback&&t.callback.call&&t.callback.call()}));const t=()=>{},e=Object.getOwnPropertyNames(Object.getPrototypeOf(this));e.push(...Object.getOwnPropertyNames(this)),e.forEach((e=>{"function"==typeof this[e]?this[e]=t:delete this[e]}))}}return Ae.init(),Ae}));
(function(s,i,o,w,d,a,b){w[o]=w[o]||{};w[o][s]=w[o][s]||[];w[o][s].push(i);})('7c8cb2ed',{"root":"etS1rab6Qs21","version":"2025-04-07","animations":[{"elements":{"etS1rab6Qs24":{"transform":{"data":{"s":{"x":2.426065,"y":2.426066},"t":{"x":-16.00012,"y":-16}},"keys":{"o":[{"t":0,"v":{"x":1154.314499,"y":304.186382,"type":"cusp","end":{"x":1121.482462,"y":142.42307}}},{"t":2500,"v":{"x":1356.659044,"y":166.145267,"type":"cusp","start":{"x":1305.733536,"y":28.104152},"end":{"x":1407.584552,"y":304.186382}}},{"t":6000,"v":{"x":1619.680272,"y":350.937275,"type":"cusp","start":{"x":1599.064464,"y":41.887023}}}]}},"opacity":[{"t":5700,"v":1},{"t":5900,"v":0.3},{"t":6000,"v":0}]},"etS1rab6Qs27":{"transform":{"data":{"s":{"x":2.426065,"y":2.426066},"t":{"x":-16.00012,"y":-16}},"keys":{"o":[{"t":0,"v":{"x":727.302775,"y":367.622998,"type":"cusp"}},{"t":1850,"v":{"x":869.713276,"y":191.313215,"type":"cusp","start":{"x":731.965269,"y":184.137466},"end":{"x":1007.461283,"y":198.488964}}},{"t":4190,"v":{"x":1052.179052,"y":439.039099,"type":"cusp","start":{"x":987.995839,"y":379.642519},"end":{"x":1116.362265,"y":498.435679}}},{"t":6000,"v":{"x":1154.404614,"y":305.363929,"type":"cusp","start":{"x":1187.236651,"y":467.127241},"end":{"x":1121.572577,"y":143.600617}}}]}},"opacity":[{"t":0,"v":0},{"t":100,"v":0.3},{"t":300,"v":1}]},"etS1rab6Qs210":{"stroke-dashoffset":[{"t":0,"v":0},{"t":6000,"v":-830}]},"etS1rab6Qs211":{"stroke-dashoffset":[{"t":0,"v":0},{"t":6000,"v":-830}]}},"s":"MDA1KZGNhNzFiM1BjNExjMWIwYzNiPOGJlYmQ3MUI4OTg1N2Y3Zkc3GZjdiNzFiM2I4YzFPYjRiMkxjCM2I4YmViZDcxODk4MDdiNzFiJOGMzYjRjMUtiMGMzSURiOGJlTYmRjMjcxODk3ZjdiNzFiNWI4EYmJiYlc3MTg5ODA3YjcxYjBiJYmMzYjRCYzFPYmRiMEFjM2I0KNzFXODliNWIwYmJBYzJiNDdiSNzFjMmJmYjRiNGIzNzE4OTgwGN2I3MWI1YmZjMjcxODk4MEU3MZjdmU2Nj"}],"options":"MDAxUMDhmMzY4Nzg4NzVOODY4OFMzNNjRlMzZQODA4Mzc1NzgzNjkxX"},'__SVGATOR_PLAYER__',window,document)
]]></script>
</svg>
