<svg width="510" height="561" viewBox="0 0 510 561" fill="none" xmlns="http://www.w3.org/2000/svg">
<path d="M417.349 1.58972C424.247 5.57256 425.807 15.7881 420.831 24.4062L311.733 213.369L411.184 92.3416C416.765 85.5503 426.111 84.4005 432.058 89.7724C438.006 95.1445 438.304 105.004 432.724 111.796L335.89 229.635L389.53 194.104C396.137 189.655 405.1 191.404 409.549 198.011C413.998 204.619 412.249 213.581 405.642 218.031L354.612 251.834L491.632 219.202C499.381 217.357 507.159 222.143 509.005 229.892C510.85 237.641 506.065 245.418 498.317 247.264L377.869 275.948L458.109 277.784C466.073 277.966 472.381 284.57 472.199 292.534C472.017 300.497 465.413 306.805 457.45 306.623L365.178 304.511L413.314 319.251C420.93 321.583 425.215 329.648 422.883 337.265C420.55 344.881 412.485 349.165 404.869 346.833L375.216 337.753L496.846 407.976C504.414 412.346 507.321 421.48 503.338 428.378C499.355 435.277 489.991 437.327 482.422 432.958L337.106 349.059L377.621 391.369C383.13 397.122 382.932 406.253 377.179 411.762C371.426 417.271 362.295 417.073 356.786 411.32L333.813 387.328L360.761 432.164C364.864 438.991 362.657 447.853 355.83 451.957C349.002 456.06 340.141 453.853 336.037 447.026L305.541 396.288L340.124 525.349C342.186 533.043 337.619 540.952 329.925 543.014C322.231 545.075 314.322 540.51 312.26 532.816L271.11 379.244L268.284 520.063C267.578 527.997 260.573 533.857 252.638 533.15C244.704 532.444 238.845 525.438 239.551 517.504L242.402 375.411L225.89 435.839C223.79 443.523 215.859 448.05 208.176 445.951C200.492 443.852 195.964 435.921 198.064 428.237L207.229 394.696L115.438 553.684C111.455 560.582 102.634 562.946 95.7351 558.964C88.8366 554.981 86.4728 546.159 90.4556 539.26L180.677 382.993L104.623 458.706C98.9777 464.326 89.8455 464.305 84.2256 458.66C78.6057 453.015 78.6265 443.882 84.2717 438.262L175.401 347.541L145.948 364.984C139.072 369.004 130.237 366.689 126.217 359.812C122.197 352.936 124.512 344.101 131.389 340.081L150.32 328.869L20.2609 363.435C12.5624 365.481 4.6623 360.898 2.61632 353.199C0.570686 345.501 5.15309 337.601 12.8514 335.556L158.138 296.943L45.1428 293.885C37.1802 293.669 30.9001 287.04 31.1152 279.078C31.3308 271.115 37.9609 264.835 45.9237 265.05L140.415 267.606L111.679 259.837C104.031 257.607 99.6396 249.6 101.869 241.953C104.098 234.305 112.105 229.913 119.752 232.142L153.048 241.145L9.57501 159.439C1.20566 154.607 -2.35056 145.097 1.63232 138.199C5.61533 131.3 15.6291 129.626 23.9983 134.457L162.594 213.387L93.5436 141.484C88.0264 135.739 88.2116 126.608 93.957 121.09C99.7024 115.573 108.833 115.758 114.351 121.504L181.468 191.392L152.302 141.113C148.305 134.223 150.651 125.397 157.541 121.401C164.432 117.404 173.258 119.75 177.255 126.64L215.739 192.987L174.053 26.6951C172.128 18.9656 176.833 11.1385 184.562 9.21257C192.291 7.28671 200.119 11.9916 202.044 19.7211L247.386 200.59L257.35 86.3268C258.043 78.3915 265.037 72.5199 272.972 73.2119C280.908 73.9042 286.779 80.8986 286.087 88.834L280.342 154.715L288.159 131.471C290.698 123.92 298.877 119.858 306.427 122.397C313.978 124.936 318.04 133.114 315.501 140.665L308.669 160.983L395.849 9.98282C400.825 1.36499 410.451 -2.39277 417.349 1.58972Z" fill="url(#paint0_radial_5079_10299)"/>
<defs>
<radialGradient id="paint0_radial_5079_10299" cx="0" cy="0" r="1" gradientTransform="matrix(-178.026 97.1067 -92.649 -183.298 265.037 287.262)" gradientUnits="userSpaceOnUse">
<stop offset="0.0576923" stop-color="#FFFFFE"/>
<stop offset="0.216346" stop-color="#FFFDF9"/>
<stop offset="0.365385" stop-color="#FFE3AB"/>
<stop offset="0.538462" stop-color="#E4C197"/>
<stop offset="1" stop-color="#98764F"/>
</radialGradient>
</defs>
</svg>
