<svg width="25" height="24" viewBox="0 0 25 24" fill="none" xmlns="http://www.w3.org/2000/svg">
<mask id="mask0_1695_535" style="mask-type:alpha" maskUnits="userSpaceOnUse" x="0" y="0" width="25" height="24">
<rect x="0.525391" width="24" height="24" fill="#D9D9D9"/>
</mask>
<g mask="url(#mask0_1695_535)">
<path d="M14.8254 18.3C14.6421 18.1167 14.5504 17.8833 14.5504 17.6C14.5504 17.3167 14.6421 17.0833 14.8254 16.9L18.7254 13H3.52539C3.24206 13 3.00472 12.904 2.81339 12.712C2.62139 12.5207 2.52539 12.2833 2.52539 12C2.52539 11.7167 2.62139 11.479 2.81339 11.287C3.00472 11.0957 3.24206 11 3.52539 11H18.7254L14.8254 7.1C14.6421 6.91667 14.5504 6.68334 14.5504 6.4C14.5504 6.11667 14.6421 5.88334 14.8254 5.7C15.0087 5.51667 15.2421 5.425 15.5254 5.425C15.8087 5.425 16.0421 5.51667 16.2254 5.7L21.8254 11.3C21.9254 11.4 21.9964 11.5083 22.0384 11.625C22.0797 11.7417 22.1004 11.8667 22.1004 12C22.1004 12.1333 22.0797 12.2583 22.0384 12.375C21.9964 12.4917 21.9254 12.6 21.8254 12.7L16.2254 18.3C16.0421 18.4833 15.8087 18.575 15.5254 18.575C15.2421 18.575 15.0087 18.4833 14.8254 18.3Z" fill="white"/>
</g>
</svg>
