<svg width="37" height="37" viewBox="0 0 37 37" fill="none" xmlns="http://www.w3.org/2000/svg">
<path d="M18.3232 26.0092C18.0732 26.0092 17.8337 25.9672 17.6047 25.8832C17.3757 25.8002 17.1567 25.6547 16.9477 25.4467L5.26115 13.7587C4.96915 13.4667 4.83365 13.0917 4.85465 12.6337C4.87565 12.1757 5.03165 11.8007 5.32265 11.5087C5.65665 11.1757 6.03165 11.0197 6.44765 11.0407C6.86465 11.0607 7.21915 11.2377 7.51115 11.5717L18.3232 22.3207L29.1352 11.5087C29.4272 11.2587 29.7922 11.1232 30.2302 11.1022C30.6672 11.0812 31.0317 11.2377 31.3237 11.5717C31.6567 11.8627 31.8127 12.2272 31.7917 12.6652C31.7707 13.1022 31.6147 13.4667 31.3237 13.7587L19.6987 25.4467C19.4897 25.6547 19.2707 25.8002 19.0417 25.8832C18.8127 25.9672 18.5732 26.0092 18.3232 26.0092Z" fill="white"/>
</svg>
