<svg width="20" height="31" viewBox="0 0 20 31" fill="none" xmlns="http://www.w3.org/2000/svg">
<g opacity="0.2">
<path fill-rule="evenodd" clip-rule="evenodd" d="M10.6808 5.53577H7.8701H5.05935H0V7.75005C1.79888 7.75005 2.62337 9.22624 2.81075 9.96434C2.99813 13.8393 3.26047 21.7001 2.81075 22.1429C2.36103 22.5858 0.749533 23.4346 0 23.8036V25.4643H13.4916C21.7275 24.9575 20.5367 18.4167 18.5509 15.6172C18.3681 15.3593 18.1784 15.1332 17.9888 14.9465C18.0674 14.7585 18.1411 14.574 18.2099 14.3929C20.8966 7.32507 16.2321 5.53577 13.4916 5.53577H10.6808ZM7.8701 14.3929V8.8572H11.848C13.3767 8.8572 14.6159 10.0964 14.6159 11.6251C14.6159 13.1537 13.3767 14.3929 11.848 14.3929H7.8701ZM7.8701 16.6072V22.1429H12.9723C14.501 22.1429 15.7402 20.9037 15.7402 19.3751C15.7402 17.8464 14.501 16.6072 12.9723 16.6072H7.8701Z" fill="#0085FB"/>
<rect x="4.49719" y="1.10718" width="2.2486" height="4.42857" fill="#0085FB"/>
<rect x="10.1187" y="1.10718" width="2.2486" height="4.42857" fill="#0085FB"/>
<rect x="4.49719" y="25.4644" width="2.2486" height="4.42857" fill="#0085FB"/>
<rect x="10.1187" y="25.4644" width="2.2486" height="4.42857" fill="#0085FB"/>
</g>
</svg>
