<svg width="60" height="60" viewBox="0 0 60 60" fill="none" xmlns="http://www.w3.org/2000/svg">
<path d="M22.5 38.8167C22.5 38.2184 22.9945 37.7334 23.5929 37.7334C24.1912 37.7334 24.6857 38.2184 24.6857 38.8167C24.6857 39.415 24.1912 39.9 23.5929 39.9C22.9945 39.9 22.5 39.415 22.5 38.8167ZM35.6143 38.8167C35.6143 38.2184 36.1088 37.7334 36.7071 37.7334C37.3055 37.7334 37.8 38.2184 37.8 38.8167C37.8 39.415 37.3055 39.9 36.7071 39.9C36.1088 39.9 35.6143 39.415 35.6143 38.8167ZM22.5 33.4C22.5 32.8017 22.9945 32.3167 23.5929 32.3167C24.1912 32.3167 24.6857 32.8017 24.6857 33.4C24.6857 33.9983 24.1912 34.4834 23.5929 34.4834C22.9945 34.4834 22.5 33.9983 22.5 33.4ZM35.6143 33.4C35.6143 32.8017 36.1088 32.3167 36.7071 32.3167C37.3055 32.3167 37.8 32.8017 37.8 33.4C37.8 33.9983 37.3055 34.4834 36.7071 34.4834C36.1088 34.4834 35.6143 33.9983 35.6143 33.4ZM22.5 27.9834C22.5 27.3851 22.9945 26.9 23.5929 26.9C24.1912 26.9 24.6857 27.3851 24.6857 27.9834C24.6857 28.5817 24.1912 29.0667 23.5929 29.0667C22.9945 29.0667 22.5 28.5817 22.5 27.9834ZM29.0571 38.8167C29.0571 38.2184 29.5517 37.7334 30.15 37.7334C30.7483 37.7334 31.2429 38.2184 31.2429 38.8167C31.2429 39.415 30.7483 39.9 30.15 39.9C29.5517 39.9 29.0571 39.415 29.0571 38.8167ZM29.0571 33.4C29.0571 32.8017 29.5517 32.3167 30.15 32.3167C30.7483 32.3167 31.2429 32.8017 31.2429 33.4C31.2429 33.9983 30.7483 34.4834 30.15 34.4834C29.5517 34.4834 29.0571 33.9983 29.0571 33.4ZM29.0571 27.9834C29.0571 27.3851 29.5517 26.9 30.15 26.9C30.7483 26.9 31.2429 27.3851 31.2429 27.9834C31.2429 28.5817 30.7483 29.0667 30.15 29.0667C29.5517 29.0667 29.0571 28.5817 29.0571 27.9834ZM35.6143 27.9834C35.6143 27.3851 36.1088 26.9 36.7071 26.9C37.3055 26.9 37.8 27.3851 37.8 27.9834C37.8 28.5817 37.3055 29.0667 36.7071 29.0667C36.1088 29.0667 35.6143 28.5817 35.6143 27.9834ZM22.5 21.575C22.5 20.9261 23.0261 20.4 23.675 20.4H36.625C37.2739 20.4 37.8 20.9261 37.8 21.575C37.8 22.224 37.2739 22.75 36.625 22.75H23.675C23.0261 22.75 22.5 22.224 22.5 21.575Z" fill="white"/>
<path fill-rule="evenodd" clip-rule="evenodd" d="M40.2 16.8H19.8C19.3029 16.8 18.9 17.203 18.9 17.7V42.3C18.9 42.7971 19.3029 43.2 19.8 43.2H40.2C40.697 43.2 41.1 42.7971 41.1 42.3V17.7C41.1 17.203 40.697 16.8 40.2 16.8ZM19.8 14.7C18.1431 14.7 16.8 16.0432 16.8 17.7V42.3C16.8 43.9569 18.1431 45.3 19.8 45.3H40.2C41.8568 45.3 43.2 43.9569 43.2 42.3V17.7C43.2 16.0432 41.8568 14.7 40.2 14.7H19.8Z" fill="white"/>
</svg>
