<svg width="151" height="150" viewBox="0 0 151 150" fill="none" xmlns="http://www.w3.org/2000/svg">
<path fill-rule="evenodd" clip-rule="evenodd" d="M108.392 5.76045C108.638 6.08623 108.574 6.55016 108.248 6.79667L86.1606 23.5099C82.2436 26.6632 79.0876 30.6275 76.9517 35.1057C76.9689 35.1683 76.9781 35.2342 76.9781 35.3023C76.9781 35.5977 76.8048 35.8527 76.5544 35.9712C74.8365 39.8646 73.88 44.1215 73.8479 48.5548C73.7759 58.4836 78.3416 69.383 89.547 79.1267C89.8553 79.3948 89.8879 79.862 89.6198 80.1703C89.3518 80.4786 88.8846 80.5112 88.5763 80.2431C80.2084 72.9669 75.3877 64.9946 73.4184 57.1694C72.9944 57.4686 72.4136 57.8793 71.716 58.3751C70.1974 59.4546 68.1261 60.937 65.9145 62.5489C61.475 65.7846 56.5211 69.5059 54.3069 71.55C52.1293 73.5603 49.6967 76.7816 48.5934 80.6952C47.498 84.5808 47.7022 89.1768 50.8235 94.0321C50.8639 94.0951 50.8936 94.1618 50.9131 94.2302C50.9211 94.2385 50.9291 94.247 50.9368 94.2557C56.9342 100.999 57.5588 107.57 55.98 112.86C54.4242 118.072 50.747 121.985 48.1646 123.576L25.1729 139.828C24.8393 140.064 24.3777 139.984 24.1419 139.651C23.9061 139.317 23.9854 138.856 24.319 138.62L47.3301 122.354C47.3433 122.345 47.3568 122.336 47.3707 122.327C48.3693 121.716 49.5873 120.681 50.7639 119.308C50.7543 119.303 50.7447 119.298 50.7352 119.293C50.7316 119.291 50.728 119.289 50.7245 119.287C37.9658 112.076 31.6038 103.084 29.244 94.1163L5.98842 110.86C5.65688 111.099 5.19461 111.024 4.9559 110.692C4.71719 110.361 4.79245 109.898 5.12399 109.66L28.6069 92.752C28.6939 92.6893 28.7899 92.6483 28.8885 92.6279C28.3202 89.9815 28.0895 87.346 28.1347 84.7679C28.2124 80.3356 29.1058 76.0833 30.4881 72.2509C26.1866 73.2841 22.8895 75.1711 21.1897 76.3035L9.10213 84.7295C8.76699 84.9632 8.30591 84.8809 8.07229 84.5457C7.83867 84.2106 7.92097 83.7495 8.25611 83.5159L20.35 75.0854L20.3627 75.0768C22.2785 73.7996 26.1141 71.614 31.1261 70.5943C33.3972 65.0541 36.6548 60.532 39.8054 57.831C47.8941 50.8963 53.789 46.6511 58.6425 43.1559L58.6426 43.1558L58.6427 43.1557L58.6427 43.1557C60.2896 41.9697 61.8166 40.87 63.2687 39.781C68.6052 35.7786 73.1622 34.7456 75.5606 34.5863C77.7965 29.8523 81.1182 25.6678 85.2418 22.3503L85.2498 22.344L85.2591 22.3368L107.355 5.61692C107.681 5.37041 108.145 5.43467 108.392 5.76045ZM49.579 94.8322C49.6067 94.8752 49.638 94.9144 49.6724 94.9496C49.7019 95.0536 49.7547 95.1527 49.8314 95.2389C55.4926 101.604 55.9926 107.645 54.5624 112.437C53.9074 114.631 52.8438 116.575 51.663 118.177C51.6062 118.107 51.5356 118.046 51.4524 117.999C34.6599 108.508 29.4173 96.0052 29.6139 84.7939C29.8119 73.5045 35.5245 63.4498 40.7683 58.9541C48.8047 52.0643 54.6293 47.8696 59.4763 44.3791L59.4768 44.3787C61.1346 43.1848 62.678 42.0733 64.1564 40.9645C68.6983 37.5581 72.5862 36.4458 74.8733 36.1417C73.2827 40.0028 72.4 44.1904 72.3685 48.5441C72.3517 50.8645 72.5766 53.2278 73.063 55.6101C72.9594 55.6829 72.8292 55.7746 72.6747 55.8836C72.2423 56.1884 71.6199 56.6284 70.8589 57.1693C69.3371 58.2511 67.2607 59.737 65.0431 61.3533C60.6242 64.5741 55.5935 68.3488 53.3034 70.463C50.9768 72.6109 48.3639 76.0569 47.1695 80.2938C45.9672 84.5587 46.2132 89.5964 49.579 94.8322ZM111.485 27.2756C111.812 27.0305 111.878 26.5668 111.633 26.24C111.388 25.9132 110.924 25.8469 110.597 26.092L99.3445 34.5316C96.808 36.1946 93.2424 40.2095 91.8342 45.4636C90.4087 50.7816 91.2103 57.3124 97.3511 63.8667C100.442 68.7054 100.639 73.1521 99.5557 76.8859C98.4597 80.6649 96.0363 83.7602 93.8491 85.7794C91.6377 87.8208 86.4991 91.6214 81.8695 94.9394C79.5638 96.5918 77.3983 98.1148 75.8091 99.2247C75.0145 99.7796 74.3642 100.231 73.9126 100.544L73.7031 100.689C71.7244 91.6325 66.2811 82.6521 56.4518 75.6308C56.1194 75.3933 55.6574 75.4703 55.4199 75.8027C55.1824 76.1351 55.2594 76.5971 55.5919 76.8346C79.3576 93.8111 76.4828 122.384 61.4635 134.398L49.175 143.192C48.8428 143.429 48.7662 143.891 49.0039 144.224C49.2417 144.556 49.7037 144.632 50.036 144.395L62.3404 135.59C62.351 135.583 62.3614 135.575 62.3716 135.567C66.5957 132.192 69.8925 127.597 71.9885 122.34C76.602 122.27 81.5278 119.626 84.5165 117.794C84.5393 117.78 84.5613 117.765 84.5824 117.749L104.148 102.623C109.484 98.498 114.478 93.5276 117.16 87.2451C122.051 86.202 125.461 84.0571 127.326 82.8135L127.344 82.8016C127.352 82.796 127.359 82.7903 127.367 82.7844L139.578 73.3912C139.902 73.1421 139.963 72.6777 139.714 72.3539C139.464 72.0301 139 71.9695 138.676 72.2186L126.485 81.5964C124.801 82.7182 121.902 84.5362 117.806 85.5753C120.49 77.9044 120.717 70.979 119.417 64.8979L141.273 49.2176C141.605 48.9795 141.681 48.5173 141.442 48.1854C141.204 47.8534 140.742 47.7774 140.41 48.0156L119.047 63.3425C118.183 60.0464 116.872 57.0133 115.275 54.2602C110.595 46.195 103.465 40.5462 97.9212 37.674C98.7142 36.8494 99.4936 36.2005 100.173 35.7573C100.187 35.7485 100.2 35.7392 100.213 35.7294L111.485 27.2756ZM72.5487 120.837C76.542 120.575 80.8548 118.3 83.7094 116.553L103.243 101.453C108.933 97.054 114.038 91.8176 116.375 85.1847C120.672 72.9919 118.533 62.8223 113.995 55.0027C109.442 47.1564 102.464 41.6625 97.1076 38.919C97.0409 38.8849 96.9816 38.842 96.9304 38.7924C95.4324 40.6246 94.0143 43.0443 93.2631 45.8466C91.9684 50.6769 92.6385 56.701 98.4768 62.9042C98.5145 62.9443 98.5469 62.9875 98.574 63.0329C101.924 68.2558 102.177 73.1581 100.977 77.2979C99.7833 81.4123 97.1696 84.7273 94.8526 86.8664C92.5596 88.9832 87.3369 92.841 82.7313 96.1419C80.4193 97.7988 78.2487 99.3254 76.6562 100.438C75.8598 100.994 75.2079 101.446 74.755 101.76C74.5285 101.917 74.3517 102.039 74.2315 102.122L74.0474 102.249C74.0363 102.257 74.025 102.264 74.0137 102.271C75.1341 108.701 74.5359 115.114 72.5487 120.837ZM150.319 47.2C150.557 47.5319 150.481 47.994 150.149 48.2322L127.958 64.1536C127.626 64.3918 127.164 64.3158 126.926 63.9838C126.687 63.6519 126.763 63.1897 127.095 62.9516L149.287 47.0301C149.619 46.792 150.081 46.868 150.319 47.2ZM0.849542 118.184C0.518004 118.423 0.442751 118.885 0.681458 119.216C0.920166 119.548 1.38244 119.623 1.71398 119.385L25.1969 102.477C25.5285 102.238 25.6037 101.776 25.365 101.444C25.1263 101.113 24.664 101.037 24.3325 101.276L0.849542 118.184Z" fill="#0085FB"/>
</svg>
