<?xml version="1.0" encoding="UTF-8"?>
<svg id="Layer_1" xmlns="http://www.w3.org/2000/svg" width="60" height="60" version="1.1" viewBox="0 0 60 60">
  <!-- Generator: Adobe Illustrator 29.1.0, SVG Export Plug-In . SVG Version: 2.1.0 Build 142)  -->
  <path d="M37.84,21.05v10.79c0,1.38,1.08,2.2,2.43,2.2,2.58,0,3.62-3.51,3.62-6.53,0-7.13-5.71-12.02-12.88-12.02-7.58,0-13.22,5.53-13.22,12.92s5.75,12.88,12.81,12.88c3.02,0,6.46-.97,9.04-2.84l1.31,2.05c-2.61,2.02-6.65,3.17-10.27,3.17-8.48,0-15.42-6.35-15.42-15.23s6.8-15.27,15.76-15.27,15.46,5.94,15.46,14.15c0,4.14-1.72,9.04-6.57,9.04-2.28,0-3.77-.97-4.37-2.58-1.2,1.57-3.1,2.46-5.45,2.46-4.22,0-7.5-3.06-7.5-7.69s3.36-7.8,7.5-7.8c2.13,0,3.92.86,5.19,2.28v-1.98h2.58ZM35.27,28.52c0-3.17-2.28-5.08-4.82-5.08s-4.85,1.87-4.85,5.08,2.31,5.11,4.85,5.11,4.82-1.94,4.82-5.11Z" fill="#fff"/>
</svg>