<svg width="36" height="36" viewBox="0 0 36 36" fill="none" xmlns="http://www.w3.org/2000/svg">
<path d="M18.1955 25.9999C16.8958 25.9999 15.7387 25.8234 14.7242 25.4704C13.7097 25.1215 12.852 24.6082 12.1512 23.9306C11.4505 23.2571 10.9167 22.4335 10.55 21.4597C10.1833 20.486 10 19.3783 10 18.1368C10 16.9115 10.1833 15.7998 10.55 14.8017C10.9208 13.8036 11.4606 12.9475 12.1696 12.2334C12.8785 11.5153 13.7443 10.9635 14.7669 10.578C15.7937 10.1926 16.963 9.99988 18.2749 9.99988C19.4891 9.99988 20.5728 10.1764 21.5262 10.5294C22.4837 10.8823 23.2945 11.3854 23.9586 12.0387C24.6268 12.6878 25.134 13.4608 25.4803 14.3574C25.8307 15.25 26.0039 16.238 25.9998 17.3213C26.0039 18.0678 25.9387 18.7535 25.8043 19.3783C25.6698 20.0032 25.4579 20.5489 25.1687 21.0155C24.8835 21.478 24.5086 21.8452 24.0442 22.117C23.5797 22.3848 23.0174 22.537 22.3574 22.5735C21.8848 22.61 21.5018 22.5755 21.2084 22.47C20.9151 22.3645 20.691 22.2083 20.5362 22.0014C20.3854 21.7904 20.2876 21.545 20.2428 21.265H20.1695C20.0717 21.5084 19.8802 21.7296 19.595 21.9284C19.3098 22.1231 18.9614 22.2753 18.5499 22.3848C18.1425 22.4903 17.7086 22.5288 17.2482 22.5004C16.7674 22.472 16.3111 22.3605 15.8792 22.1657C15.4514 21.971 15.0705 21.689 14.7364 21.3198C14.4064 20.9506 14.1456 20.4941 13.9541 19.9504C13.7667 19.4067 13.671 18.7779 13.6669 18.0638C13.671 17.3578 13.7708 16.7431 13.9663 16.2197C14.166 15.6963 14.4288 15.2561 14.7547 14.8991C15.0847 14.542 15.4514 14.2621 15.8548 14.0592C16.2581 13.8564 16.6635 13.7265 17.071 13.6697C17.5314 13.6007 17.9673 13.6007 18.3788 13.6697C18.7903 13.7387 19.1366 13.8503 19.4178 14.0044C19.703 14.1586 19.8802 14.325 19.9495 14.5035H20.035V13.8219H21.9479V19.7618C21.952 20.0417 22.0151 20.2588 22.1374 20.413C22.2596 20.5671 22.4246 20.6442 22.6324 20.6442C22.9135 20.6442 23.1478 20.5205 23.3352 20.273C23.5267 20.0255 23.6693 19.6461 23.763 19.1349C23.8608 18.6237 23.9097 17.9725 23.9097 17.1813C23.9097 16.4185 23.8078 15.7491 23.6041 15.1729C23.4045 14.5928 23.1234 14.0998 22.7607 13.6941C22.4022 13.2843 21.9846 12.9516 21.5079 12.696C21.0312 12.4403 20.5138 12.2537 19.9556 12.1361C19.4015 12.0184 18.8311 11.9596 18.2444 11.9596C17.2299 11.9596 16.3437 12.1137 15.5859 12.4221C14.8281 12.7264 14.1965 13.1544 13.6913 13.7062C13.1861 14.258 12.8072 14.9052 12.5546 15.6477C12.3061 16.3861 12.1798 17.1915 12.1757 18.0638C12.1798 19.0254 12.3142 19.8774 12.579 20.6199C12.8479 21.3583 13.2432 21.9791 13.7647 22.4822C14.2862 22.9853 14.9299 23.3667 15.6959 23.6264C16.4619 23.886 17.3419 24.0159 18.336 24.0159C18.8046 24.0159 19.2629 23.9814 19.7111 23.9124C20.1593 23.8475 20.5647 23.7663 20.9273 23.669C21.2899 23.5756 21.5812 23.4843 21.8012 23.3951L22.4063 25.16C22.1496 25.3061 21.8012 25.442 21.3612 25.5678C20.9253 25.6976 20.4323 25.8011 19.8822 25.8782C19.3363 25.9593 18.774 25.9999 18.1955 25.9999ZM17.9143 20.4982C18.4114 20.4982 18.8066 20.4028 19.1 20.2121C19.3974 20.0214 19.6093 19.7394 19.7356 19.3662C19.8659 18.9888 19.9271 18.5243 19.9189 17.9725C19.9148 17.4856 19.8517 17.0738 19.7295 16.737C19.6113 16.3962 19.4055 16.1386 19.1122 15.9641C18.8229 15.7856 18.4196 15.6963 17.9021 15.6963C17.4499 15.6963 17.0649 15.7917 16.7471 15.9824C16.4333 16.1731 16.193 16.4409 16.0259 16.7857C15.8629 17.1265 15.7794 17.5282 15.7753 17.9907C15.7794 18.4208 15.8487 18.8286 15.9831 19.214C16.1176 19.5954 16.3396 19.9058 16.6493 20.1452C16.9589 20.3805 17.3806 20.4982 17.9143 20.4982Z" fill="white"/>
</svg>
