<svg width="60" height="61" viewBox="0 0 60 61" fill="none" xmlns="http://www.w3.org/2000/svg">
<mask id="mask0_1858_7421" style="mask-type:alpha" maskUnits="userSpaceOnUse" x="0" y="0" width="60" height="61">
<rect y="0.947754" width="60" height="60" fill="#D9D9D9"/>
</mask>
<g mask="url(#mask0_1858_7421)">
<path d="M30 37.7608C29.75 37.7608 29.5105 37.7188 29.2815 37.6348C29.0525 37.5518 28.8335 37.4063 28.6245 37.1983L16.938 25.5103C16.646 25.2183 16.5105 24.8433 16.5315 24.3853C16.5525 23.9273 16.7085 23.5523 16.9995 23.2603C17.3335 22.9273 17.7085 22.7713 18.1245 22.7923C18.5415 22.8123 18.896 22.9893 19.188 23.3233L30 34.0723L40.812 23.2603C41.104 23.0103 41.469 22.8748 41.907 22.8538C42.344 22.8328 42.7085 22.9893 43.0005 23.3233C43.3335 23.6143 43.4895 23.9788 43.4685 24.4168C43.4475 24.8538 43.2915 25.2183 43.0005 25.5103L31.3755 37.1983C31.1665 37.4063 30.9475 37.5518 30.7185 37.6348C30.4895 37.7188 30.25 37.7608 30 37.7608Z" fill="white"/>
</g>
</svg>
