<svg width="36" height="36" viewBox="0 0 36 36" fill="none" xmlns="http://www.w3.org/2000/svg">
<path fill-rule="evenodd" clip-rule="evenodd" d="M17.9974 10C16.0981 10.001 14.2612 10.6737 12.815 11.8977C11.3688 13.1218 10.4076 14.8175 10.1034 16.6815C9.79911 18.5455 10.1716 20.4564 11.1543 22.0724C12.1369 23.6884 13.6656 24.9042 15.4671 25.5023C15.8645 25.5761 16.0142 25.3298 16.0142 25.1204C16.0142 24.9109 16.0062 24.3037 16.0036 23.6398C13.778 24.1206 13.3077 22.7006 13.3077 22.7006C12.9447 21.7786 12.4201 21.5362 12.4201 21.5362C11.6942 21.0436 12.4745 21.0528 12.4745 21.0528C13.2786 21.1094 13.7012 21.8734 13.7012 21.8734C14.4139 23.0892 15.5731 22.7375 16.0288 22.532C16.1003 22.017 16.3083 21.6666 16.5375 21.4677C14.7597 21.2675 12.8917 20.5852 12.8917 17.5371C12.8807 16.7466 13.1757 15.9822 13.7158 15.4019C13.6336 15.2017 13.3594 14.3929 13.7939 13.2944C13.7939 13.2944 14.4656 13.081 15.9943 14.1097C17.3056 13.7532 18.6891 13.7532 20.0004 14.1097C21.5278 13.081 22.1981 13.2944 22.1981 13.2944C22.634 14.3903 22.3598 15.1991 22.2776 15.4019C22.8193 15.9823 23.115 16.7481 23.103 17.5398C23.103 20.5944 21.2311 21.2675 19.4506 21.4638C19.7368 21.7114 19.9924 22.1948 19.9924 22.9377C19.9924 24.002 19.9832 24.8582 19.9832 25.1204C19.9832 25.3324 20.1276 25.5801 20.5329 25.5023C22.3346 24.9041 23.8634 23.6881 24.8461 22.0718C25.8287 20.4556 26.201 18.5444 25.8964 16.6802C25.5918 14.816 24.6302 13.1203 23.1835 11.8964C21.7368 10.6726 19.8995 10.0004 18 10H17.9974Z" fill="white"/>
<path d="M13.0277 21.4223C13.0104 21.462 12.9465 21.4739 12.8946 21.4461C12.8427 21.4183 12.8041 21.3667 12.8228 21.3257C12.8414 21.2847 12.9039 21.2741 12.9558 21.3019C13.0077 21.3297 13.0476 21.3826 13.0277 21.4223Z" fill="white"/>
<path d="M13.3519 21.7823C13.3243 21.7961 13.2928 21.7999 13.2627 21.7932C13.2326 21.7864 13.2058 21.7695 13.1869 21.7452C13.135 21.6897 13.1243 21.6129 13.1643 21.5785C13.2042 21.5441 13.276 21.56 13.3279 21.6156C13.3798 21.6711 13.3918 21.7479 13.3519 21.7823Z" fill="white"/>
<path d="M13.6665 22.2382C13.6175 22.2725 13.5341 22.2382 13.4877 22.1697C13.4749 22.1574 13.4647 22.1427 13.4577 22.1264C13.4507 22.1101 13.4471 22.0926 13.4471 22.0749C13.4471 22.0572 13.4507 22.0397 13.4577 22.0234C13.4647 22.0071 13.4749 21.9923 13.4877 21.9801C13.5367 21.9471 13.6202 21.9801 13.6665 22.0472C13.7129 22.1144 13.7142 22.204 13.6665 22.2382Z" fill="white"/>
<path d="M14.0949 22.6809C14.0512 22.7296 13.9625 22.7164 13.8896 22.6506C13.8167 22.5847 13.7995 22.4951 13.8432 22.4477C13.8869 22.4003 13.9757 22.4135 14.0512 22.478C14.1267 22.5426 14.1413 22.6335 14.0949 22.6809Z" fill="white"/>
<path d="M14.6939 22.939C14.674 23.0009 14.5839 23.0286 14.4938 23.0022C14.4038 22.9759 14.3441 22.9021 14.3614 22.8389C14.3786 22.7757 14.47 22.7467 14.5614 22.7757C14.6528 22.8047 14.7111 22.8745 14.6939 22.939Z" fill="white"/>
<path d="M15.3488 22.9837C15.3488 23.0483 15.2747 23.1036 15.1793 23.1049C15.0839 23.1062 15.0057 23.0536 15.0057 22.989C15.0057 22.9245 15.0799 22.8691 15.1753 22.8678C15.2707 22.8665 15.3488 22.9179 15.3488 22.9837Z" fill="white"/>
<path d="M15.9584 22.8826C15.9703 22.9471 15.9041 23.0143 15.8087 23.0301C15.7133 23.0459 15.6298 23.0077 15.6179 22.9445C15.606 22.8812 15.6749 22.8127 15.7676 22.7956C15.8604 22.7785 15.9465 22.818 15.9584 22.8826Z" fill="white"/>
</svg>
