<svg width="25" height="24" viewBox="0 0 25 24" fill="none" xmlns="http://www.w3.org/2000/svg">
<mask id="mask0_1622_16326" style="mask-type:alpha" maskUnits="userSpaceOnUse" x="0" y="0" width="25" height="24">
<rect x="0.5" width="24" height="24" fill="#D9D9D9"/>
</mask>
<g mask="url(#mask0_1622_16326)">
<path d="M18.5077 5.96021H15.702L17.3357 1.29142C17.4404 0.994806 17.3947 0.665965 17.2132 0.409224C17.0314 0.152252 16.7364 -0.000224296 16.4217 5.61423e-07H11.0588C10.8498 -0.0002247 10.6462 0.0673425 10.4785 0.192335C10.3109 0.317557 10.1884 0.493454 10.1291 0.694119L6.53875 12.9148C6.45339 13.2074 6.51082 13.5232 6.6937 13.7671C6.87658 14.011 7.16372 14.1547 7.46865 14.1547H9.7287L9.19921 22.972C9.18097 23.2702 9.30101 23.5598 9.52487 23.7575C9.74874 23.955 10.0512 24.0384 10.3447 23.9834C10.6379 23.9282 10.8897 23.7411 11.0266 23.4758L19.3666 7.37424C19.522 7.07425 19.5098 6.71477 19.3343 6.42586C19.1589 6.13713 18.8456 5.96056 18.5078 5.96011L18.5077 5.96021ZM11.4045 18.5171L11.7275 13.2445H11.7273C11.7433 12.9776 11.6484 12.7161 11.4649 12.5218C11.2816 12.3272 11.0259 12.2173 10.7586 12.2178H8.77623L11.7853 1.9406H15.056L13.4222 6.60939C13.3175 6.90578 13.3632 7.23485 13.5448 7.49159C13.7265 7.74833 14.0216 7.90104 14.336 7.90081H16.919L11.4045 18.5171Z" fill="white"/>
</g>
</svg>
