<svg width="152" height="147" viewBox="0 0 152 147" fill="none" xmlns="http://www.w3.org/2000/svg">
<path fill-rule="evenodd" clip-rule="evenodd" d="M128.49 0.310764C129.955 -0.759393 131.727 1.16924 130.537 2.53798L59.6534 84.0633C59.3643 84.3958 58.9454 84.5866 58.5049 84.5866H17.8373C16.3652 84.5866 15.7508 82.7047 16.9393 81.8361L128.49 0.310764ZM129.379 1.42606C129.373 1.42777 129.354 1.43349 129.326 1.45429L17.775 82.9796C17.7433 83.0028 17.7365 83.0207 17.7336 83.0307C17.7292 83.0459 17.728 83.0698 17.737 83.0975C17.746 83.1252 17.7612 83.1438 17.7737 83.1535C17.782 83.1598 17.798 83.1703 17.8373 83.1703H58.5049C58.5354 83.1703 58.5645 83.157 58.5845 83.134L129.468 1.60865C129.491 1.58204 129.498 1.56451 129.5 1.55791C129.503 1.55114 129.503 1.54622 129.503 1.54103C129.502 1.52821 129.494 1.49909 129.466 1.46808C129.437 1.43708 129.409 1.42688 129.396 1.42502C129.391 1.42427 129.386 1.42431 129.379 1.42606Z" fill="#0085FB"/>
<path fill-rule="evenodd" clip-rule="evenodd" d="M85.3476 21.5514C85.3409 21.553 85.3225 21.5589 85.2932 21.5804L1.96217 83.0371C1.93072 83.0603 1.92394 83.0782 1.92105 83.0883C1.91668 83.1035 1.91551 83.1273 1.92458 83.1549C1.93365 83.1825 1.94875 83.201 1.96132 83.2107C1.96962 83.2171 1.98569 83.2275 2.02477 83.2275H9.72896C10.1201 83.2275 10.4371 83.5445 10.4371 83.9356C10.4371 84.3268 10.1201 84.6438 9.72896 84.6438H2.02477C0.556037 84.6438 -0.0605222 82.7689 1.1215 81.8972L84.4526 20.4405C85.9315 19.3498 87.7179 21.3284 86.4823 22.6886L78.2129 31.792C77.9499 32.0815 77.502 32.103 77.2125 31.84C76.923 31.5771 76.9015 31.1292 77.1645 30.8397L85.4339 21.7362C85.4583 21.7093 85.466 21.6916 85.4684 21.6851C85.4708 21.6785 85.4713 21.6738 85.471 21.6689C85.4704 21.6564 85.4631 21.6267 85.4341 21.5946C85.4052 21.5626 85.3764 21.5522 85.364 21.5504C85.3591 21.5496 85.3544 21.5496 85.3476 21.5514Z" fill="#0085FB"/>
<path fill-rule="evenodd" clip-rule="evenodd" d="M90.2323 61.9362C90.5263 61.5963 90.9556 61.4037 91.405 61.4102L131.118 61.9802C132.576 62.0012 133.173 63.8642 131.997 64.7282L21.5997 145.864C20.1382 146.938 18.3608 145.013 19.5476 143.642L90.2323 61.9362ZM91.3847 62.8264C91.3536 62.826 91.3238 62.8393 91.3034 62.8629L20.6187 144.568C20.5956 144.595 20.5885 144.613 20.5862 144.619C20.5839 144.626 20.5834 144.631 20.5838 144.636C20.5846 144.649 20.5924 144.678 20.621 144.709C20.6496 144.74 20.678 144.75 20.6907 144.752C20.6958 144.753 20.7008 144.752 20.7077 144.751C20.7145 144.749 20.7325 144.743 20.761 144.722L131.158 63.5869C131.189 63.5641 131.196 63.5463 131.199 63.5361C131.204 63.5208 131.205 63.4971 131.196 63.4698C131.188 63.4424 131.173 63.4239 131.16 63.414C131.152 63.4074 131.136 63.397 131.097 63.3965L91.3847 62.8264Z" fill="#0085FB"/>
<path fill-rule="evenodd" clip-rule="evenodd" d="M141.135 63.254C141.135 62.8629 141.452 62.5458 141.843 62.5458H147.484C148.954 62.5458 149.57 64.4242 148.384 65.2944L65.26 126.322C63.8035 127.392 62.0289 125.483 63.2014 124.108L69.4388 116.794C69.6926 116.496 70.1396 116.46 70.4372 116.714C70.7348 116.968 70.7703 117.415 70.5166 117.713L64.2791 125.027C64.2564 125.054 64.2494 125.071 64.2472 125.078C64.2449 125.085 64.2444 125.09 64.2448 125.095C64.2457 125.108 64.2537 125.137 64.2821 125.168C64.3106 125.198 64.3389 125.208 64.3517 125.21C64.3569 125.211 64.3619 125.211 64.3689 125.209C64.3756 125.207 64.3936 125.201 64.4218 125.181L147.546 64.1527C147.578 64.1295 147.585 64.1116 147.587 64.1016C147.592 64.0864 147.593 64.0625 147.584 64.0348C147.575 64.0072 147.56 63.9887 147.547 63.979C147.539 63.9726 147.523 63.9622 147.484 63.9622H141.843C141.452 63.9622 141.135 63.6451 141.135 63.254Z" fill="#0085FB"/>
</svg>
