<svg width="80" height="29" viewBox="0 0 80 29" fill="none" xmlns="http://www.w3.org/2000/svg">
<path d="M16.7163 19.2226C16.7163 18.3213 15.9913 17.5848 15.091 17.5848H4.86602C3.97156 17.5848 3.24078 18.3154 3.24078 19.2226C3.24078 20.124 3.96571 20.8604 4.86602 20.8604H15.091C15.9855 20.8545 16.7163 20.124 16.7163 19.2226Z" fill="#7C92A6"/>
<path d="M78.4952 23.3216H72.9382C72.7274 23.3216 72.6045 23.0898 72.7099 22.9114L79.1861 12.3772C79.233 12.3059 79.2622 12.2286 79.2974 12.1513C79.2974 12.1453 79.3032 12.1394 79.3032 12.1335C79.3266 12.074 79.3442 12.0146 79.3559 11.9551C79.3676 11.9076 79.3852 11.86 79.3911 11.8124C79.3969 11.7946 79.3969 11.7708 79.3969 11.753C79.4086 11.6817 79.4203 11.6103 79.4203 11.533C79.4203 10.6889 78.7411 9.99927 77.9096 9.99927H69.9167C69.1262 9.99927 68.4236 10.5878 68.3475 11.3844C68.2596 12.2999 68.9681 13.0668 69.8523 13.0668H74.7125C74.9233 13.0668 75.0462 13.2986 74.9408 13.477L68.5056 23.9399C68.4646 24.0112 68.4353 24.0826 68.4002 24.1539C68.2948 24.362 68.2303 24.5938 68.2303 24.8435C68.2303 25.6877 68.9037 26.3773 69.7411 26.3773H78.4893C79.3208 26.3773 80 25.6877 80 24.8435C80.0059 24.0112 79.3266 23.3216 78.4952 23.3216Z" fill="#7C92A6"/>
<path d="M38.26 9.87071C38.2542 9.87071 38.2483 9.87071 38.2483 9.86474C38.2306 9.86474 38.2188 9.85877 38.2011 9.8528C38.1894 9.8528 38.1717 9.8528 38.1599 9.84683C38.1481 9.84683 38.1423 9.84683 38.1305 9.84683C37.7712 9.81698 36.9408 9.81698 36.505 9.87071V9.87668C35.6864 9.96622 34.7912 10.2468 34.1669 10.7244C33.896 10.9333 33.6486 11.1601 33.4248 11.4049C33.4013 10.5632 32.7299 9.88862 31.8936 9.88862C31.0455 9.88862 30.3623 10.5871 30.3623 11.4407V24.9855C30.3623 25.2005 30.4035 25.4034 30.486 25.5944C30.7216 26.1556 31.2693 26.5496 31.9053 26.5496C32.7534 26.5496 33.4425 25.8511 33.4425 24.9915V24.896V23.4394V17.6012C33.4425 16.2283 33.8076 15.094 34.532 14.2344C35.1269 13.53 35.7865 13.1241 36.5344 13.0047C36.9055 12.957 37.2824 12.9689 37.2824 12.9689H38.0362C38.8843 12.9689 39.5734 12.2705 39.5734 11.4108C39.5675 10.6229 39.0021 9.98413 38.26 9.87071Z" fill="#7C92A6"/>
<path d="M23.4398 12.5057C24.1926 11.4492 24.6396 10.1538 24.6396 8.74506C24.6396 5.18735 21.7989 2.30416 18.2936 2.30416H17.4231V1.60575C17.4231 0.716319 16.7115 0 15.8411 0C14.9647 0 14.259 0.722289 14.259 1.60575V2.30416H12.6475V2.31013H11.63C10.7831 2.31013 10.1008 3.00854 10.1008 3.86215C10.1008 4.72174 10.789 5.41418 11.63 5.41418H12.6475V5.42015H18.2701C20.0286 5.42015 21.4519 6.86473 21.4519 8.64955V8.65552C21.4519 10.3926 20.0992 11.8431 18.3994 11.879C18.0877 11.8849 17.1467 11.879 17.1467 11.879C17.1408 11.879 17.1291 11.879 17.1232 11.879H17.1114C16.1763 11.9028 15.4294 12.7206 15.5293 13.6996C15.6176 14.5532 16.3704 15.18 17.2173 15.18H20.4285C20.7579 15.18 21.0931 15.2039 21.4107 15.2874C23.1339 15.7471 24.4102 17.3349 24.4102 19.2332C24.4102 21.4836 22.6105 23.3102 20.3932 23.3102H10.7007H8.87751C8.01883 23.3102 7.25426 23.9489 7.17192 24.8145C7.07782 25.8054 7.84828 26.6411 8.80694 26.6411H14.259V27.3574C14.259 28.2469 14.9706 28.9632 15.8411 28.9632C16.7174 28.9632 17.4231 28.2409 17.4231 27.3574V26.6411H18.7994C18.7994 26.6411 18.7994 26.6411 18.8053 26.6411H20.5344C24.5514 26.6411 27.8038 23.3341 27.8038 19.263C27.8096 16.2425 26.0099 13.6399 23.4398 12.5057Z" fill="#7C92A6"/>
<path d="M10.5757 13.5334C10.5757 12.632 9.84674 11.8956 8.94142 11.8956H1.63426C0.734831 11.8956 0 12.6262 0 13.5334C0 14.4348 0.728952 15.1712 1.63426 15.1712H8.94142C9.84674 15.1712 10.5757 14.4348 10.5757 13.5334Z" fill="#7C92A6"/>
<path d="M7.43389 10.344H14.741C15.6405 10.344 16.3753 9.61343 16.3753 8.70616C16.3753 7.80478 15.6464 7.06836 14.741 7.06836H7.43389C6.53445 7.06836 5.79962 7.79889 5.79962 8.70616C5.79962 9.60754 6.52857 10.344 7.43389 10.344Z" fill="#7C92A6"/>
<path fill-rule="evenodd" clip-rule="evenodd" d="M50.8946 11.6544C51.9396 12.7081 52.5359 14 52.6776 15.5121V15.524C52.7485 16.2146 52.6717 17.4707 52.6717 17.4707C52.6717 18.4887 51.851 19.3162 50.8415 19.3162H43.5973C43.4497 19.3162 43.3316 19.4352 43.3316 19.5841V20.0306C43.3316 21.1855 43.6917 22.0844 44.4415 22.769C45.1913 23.4537 46.1773 23.7989 47.3758 23.7989C47.6946 23.7989 48.0371 23.7632 48.35 23.7037C48.9109 23.5727 49.5544 23.281 50.0031 22.9357C50.0297 22.9179 50.0548 22.9 50.0798 22.8822C50.1049 22.8643 50.13 22.8464 50.1566 22.8286C50.1625 22.8256 50.1684 22.8211 50.1743 22.8167C50.1802 22.8122 50.1861 22.8077 50.192 22.8048C50.2452 22.769 50.3042 22.7333 50.3573 22.7036C50.3603 22.7006 50.3647 22.6991 50.3691 22.6976C50.3736 22.6961 50.378 22.6946 50.381 22.6916L50.5404 22.6202C50.5522 22.6202 50.564 22.6143 50.5758 22.6083L50.5758 22.6083C50.6348 22.5845 50.6939 22.5666 50.7588 22.5547C50.7647 22.5547 50.7721 22.5532 50.7795 22.5517C50.7869 22.5503 50.7942 22.5488 50.8001 22.5488C50.8592 22.5369 50.9241 22.5309 50.9891 22.5309H51.0068H51.0127C51.6326 22.5309 52.1581 22.9357 52.347 23.5013C52.347 23.5132 52.3529 23.5251 52.3588 23.537C52.3647 23.5668 52.3706 23.5906 52.3765 23.6144C52.3883 23.6442 52.3942 23.668 52.4001 23.6977C52.4178 23.7751 52.4237 23.8585 52.4237 23.9359V23.9597V23.9894C52.4237 24.043 52.4178 24.1026 52.4119 24.1561C52.406 24.168 52.406 24.174 52.406 24.1859C52.3942 24.2514 52.3765 24.3169 52.3588 24.3764C52.3558 24.3853 52.3529 24.3928 52.3499 24.4002C52.347 24.4077 52.344 24.4151 52.3411 24.424C52.3293 24.4717 52.3116 24.5193 52.2879 24.561C52.2862 24.5646 52.2838 24.5687 52.2813 24.5732C52.2754 24.5837 52.2684 24.5961 52.2643 24.6086C52.2348 24.6681 52.1994 24.7217 52.164 24.7753C51.9337 25.1444 51.5086 25.5016 50.8533 25.8826C49.8968 26.4422 48.6983 26.722 47.2932 26.722C45.2386 26.722 43.5382 26.0909 42.2335 24.8527C40.9228 23.6144 40.2556 21.9594 40.2556 19.9472V16.4348C40.2556 14.6489 40.8814 13.0891 42.1154 11.7913C43.3493 10.4876 44.8548 9.82678 46.5906 9.82678C48.2378 9.82678 49.6902 10.44 50.8946 11.6544ZM49.1589 16.6789C49.4837 16.6789 49.7493 16.417 49.7493 16.0896V15.8812C49.7493 14.9347 49.4423 14.3155 48.8165 13.6011C48.1966 12.8987 47.4586 12.5593 46.5612 12.5593C45.6756 12.5593 44.9376 12.8748 44.294 13.5297C43.6505 14.1845 43.3376 14.9704 43.3376 15.9288V16.0777C43.3376 16.4051 43.6033 16.673 43.928 16.673L49.1589 16.6789Z" fill="#7C92A6"/>
<path fill-rule="evenodd" clip-rule="evenodd" d="M65.2234 11.6544C66.2684 12.7081 66.8647 14 67.0064 15.5121V15.524C67.0772 16.2146 67.0005 17.4707 67.0005 17.4707C67.0005 18.4887 66.1798 19.3162 65.1703 19.3162H57.9261C57.7785 19.3162 57.6604 19.4352 57.6604 19.5841V20.0306C57.6604 21.1855 58.0205 22.0844 58.7703 22.769C59.5201 23.4537 60.5061 23.7989 61.7046 23.7989C62.0234 23.7989 62.3659 23.7632 62.6788 23.7037C63.2397 23.5727 63.8832 23.281 64.3319 22.9357C64.3585 22.9179 64.3835 22.9 64.4086 22.8822C64.4337 22.8643 64.4588 22.8464 64.4854 22.8286C64.4913 22.8256 64.4972 22.8211 64.5031 22.8167C64.509 22.8122 64.5149 22.8077 64.5208 22.8048C64.574 22.769 64.633 22.7333 64.6861 22.7036C64.6891 22.7006 64.6935 22.6991 64.6979 22.6976C64.7024 22.6961 64.7068 22.6946 64.7097 22.6916L64.8692 22.6202C64.881 22.6202 64.8928 22.6143 64.9046 22.6083L64.9046 22.6083C64.9636 22.5845 65.0227 22.5666 65.0876 22.5547C65.0935 22.5547 65.1009 22.5532 65.1083 22.5517C65.1156 22.5503 65.123 22.5488 65.1289 22.5488C65.188 22.5369 65.2529 22.5309 65.3179 22.5309H65.3356H65.3415C65.9614 22.5309 66.4868 22.9357 66.6758 23.5013C66.6758 23.5132 66.6817 23.5251 66.6876 23.537C66.6935 23.5668 66.6994 23.5906 66.7053 23.6144C66.7171 23.6442 66.723 23.668 66.7289 23.6977C66.7466 23.7751 66.7525 23.8585 66.7525 23.9359V23.9597V23.9894C66.7525 24.043 66.7466 24.1026 66.7407 24.1561C66.7348 24.168 66.7348 24.174 66.7348 24.1859C66.723 24.2514 66.7053 24.3169 66.6876 24.3764C66.6846 24.3853 66.6817 24.3928 66.6787 24.4002C66.6758 24.4077 66.6728 24.4151 66.6699 24.424C66.6581 24.4717 66.6403 24.5193 66.6167 24.561C66.6149 24.5646 66.6126 24.5687 66.6101 24.5732C66.6042 24.5837 66.5972 24.5961 66.5931 24.6086C66.5636 24.6681 66.5282 24.7217 66.4927 24.7753C66.2625 25.1444 65.8374 25.5016 65.1821 25.8826C64.2256 26.4422 63.0271 26.722 61.622 26.722C59.5674 26.722 57.867 26.0909 56.5622 24.8527C55.2516 23.6144 54.5844 21.9594 54.5844 19.9472V16.4348C54.5844 14.6489 55.2102 13.0891 56.4442 11.7913C57.6781 10.4876 59.1836 9.82678 60.9194 9.82678C62.5666 9.82678 64.019 10.44 65.2234 11.6544ZM63.4877 16.6789C63.8124 16.6789 64.0781 16.417 64.0781 16.0896V15.8812C64.0781 14.9347 63.771 14.3155 63.1452 13.6011C62.5253 12.8987 61.7873 12.5593 60.8899 12.5593C60.0043 12.5593 59.2663 12.8748 58.6228 13.5297C57.9792 14.1845 57.6663 14.9704 57.6663 15.9288V16.0777C57.6663 16.4051 57.932 16.673 58.2567 16.673L63.4877 16.6789Z" fill="#7C92A6"/>
</svg>
