<svg width="60" height="60" viewBox="0 0 81 81" fill="none" xmlns="http://www.w3.org/2000/svg">
<path d="M63.1087 49.1538C61.3383 54.8219 57.527 59.6262 52.4174 62.6323C47.3078 65.6384 41.265 66.6306 35.4664 65.4158C29.6671 64.2008 24.5265 60.8659 21.0443 56.0604L18.3716 58.7232C18.1415 58.9535 17.8488 59.111 17.5301 59.1761C17.2115 59.2411 16.8806 59.211 16.579 59.0891C16.2741 58.9755 16.0095 58.7745 15.8176 58.5111C15.6256 58.2477 15.5152 57.9338 15.5 57.608V48.6546C15.5 48.2129 15.6749 47.7898 15.9861 47.4777C16.2974 47.1657 16.7198 46.9903 17.16 46.9903H26.0744C26.4019 46.9918 26.7217 47.0907 26.9937 47.2742C27.2653 47.458 27.4769 47.7181 27.6014 48.022C27.7266 48.3266 27.7585 48.6617 27.6936 48.9845C27.6284 49.3077 27.4695 49.6037 27.2364 49.8359L23.4351 53.6637C26.3519 57.9372 30.7683 60.9507 35.8041 62.1022C40.8397 63.2538 46.1236 62.4596 50.5999 59.8771C55.0767 57.2949 58.4171 53.115 59.9548 48.1713C60.1434 47.6207 60.6055 47.2084 61.1732 47.085C61.7408 46.9613 62.3315 47.1445 62.7309 47.5672C63.13 47.9903 63.2801 48.5917 63.1255 49.1535L63.1087 49.1538ZM64.4701 22.8588C64.1678 22.7314 63.8347 22.6964 63.5126 22.7585C63.1907 22.8209 62.8942 22.9773 62.6608 23.208L59.8221 25.9875C56.3776 21.1259 51.2457 17.7298 45.4332 16.4651C39.6206 15.201 33.5466 16.159 28.4016 19.1521C23.2565 22.1451 19.4135 26.9573 17.6249 32.6448C17.4952 33.0664 17.5378 33.5223 17.7434 33.9123C17.9487 34.3024 18.3003 34.5947 18.7206 34.7251C18.8795 34.7849 19.0488 34.8131 19.2186 34.8083C19.5846 34.825 19.9463 34.7199 20.2464 34.5093C20.5469 34.2986 20.7689 33.994 20.8786 33.6433C22.4612 28.7179 25.837 24.5713 30.3336 22.0307C34.8301 19.4901 40.1162 18.7412 45.1389 19.9341C50.1615 21.1273 54.5509 24.1742 57.4324 28.4677L53.7971 32.0956C53.4828 32.4076 53.3061 32.833 53.3057 33.2762C53.3053 33.7193 53.4817 34.1447 53.7948 34.4571C54.1083 34.7699 54.5333 34.9441 54.9753 34.9415H63.84C64.2802 34.9415 64.7022 34.7662 65.0135 34.4541C65.3251 34.1421 65.5 33.719 65.5 33.2773V24.3238C65.4855 24.0066 65.3811 23.7005 65.1987 23.4408C65.0161 23.1815 64.7632 22.9788 64.4701 22.8588Z" fill="white"/>
<path fill-rule="evenodd" clip-rule="evenodd" d="M43.2457 40.4351C43.2573 40.1398 43.502 39.91 43.7923 39.9218C47.2991 40.0643 50.5 42.6458 50.5 46.3544C50.5 50.3311 47.2991 52.7785 43.7923 52.921C43.7854 52.9212 43.7784 52.9214 43.7713 52.9214C42.969 52.9214 42.1355 52.8875 41.3146 52.8542L41.3089 52.8539C40.482 52.8203 39.6679 52.7873 38.8885 52.7873C38.0239 52.7873 36.7323 52.7537 35.4511 52.7203L35.4438 52.7201C34.1541 52.6866 32.8755 52.6533 32.0261 52.6533C31.7355 52.6533 31.5 52.4137 31.5 52.1182C31.5 51.8227 31.7355 51.5832 32.0261 51.5832C32.8906 51.5832 34.1822 51.6168 35.4634 51.6502L35.4708 51.6504C36.7605 51.6839 38.0391 51.7172 38.8885 51.7172C39.6908 51.7172 40.5244 51.7511 41.3453 51.7844L41.3509 51.7847C42.174 51.8181 42.9845 51.8509 43.7607 51.8512C46.8479 51.7213 49.4478 49.6124 49.4478 46.3544C49.4478 43.3608 46.842 41.1167 43.7503 40.9911C43.46 40.9793 43.2341 40.7304 43.2457 40.4351Z" fill="white"/>
<path fill-rule="evenodd" clip-rule="evenodd" d="M42.2464 40.3959C42.2791 39.5642 42.9744 38.8878 43.8329 38.9227C47.7467 39.0817 51.5 41.9889 51.5 46.3544C51.5 50.988 47.7467 53.7612 43.8329 53.9202C43.8124 53.921 43.7918 53.9214 43.7713 53.9214C42.9487 53.9214 42.0983 53.8869 41.2844 53.8538L41.274 53.8534L41.2684 53.8531C40.4374 53.8194 39.644 53.7874 38.8885 53.7874C38.0108 53.7874 36.7095 53.7535 35.4383 53.7204L35.4179 53.7198C34.1222 53.6861 32.8593 53.6533 32.0261 53.6533C31.1674 53.6533 30.5 52.9501 30.5 52.1183C30.5 51.2865 31.1674 50.5832 32.0261 50.5832C32.9036 50.5832 34.2044 50.6171 35.4754 50.6502L35.4968 50.6507C35.4968 50.6507 35.4968 50.6507 35.4968 50.6507C36.7924 50.6845 38.0553 50.7172 38.8885 50.7172C39.7112 50.7172 40.5616 50.7518 41.3754 50.7849L41.3859 50.7853L41.3915 50.7855C42.2106 50.8188 42.9933 50.8504 43.7393 50.8513C46.4026 50.7305 48.4478 48.9558 48.4478 46.3544C48.4478 44.0116 46.3875 42.0991 43.7098 41.9903C42.8524 41.9555 42.2138 41.2266 42.2464 40.3959ZM43.7518 40.921C43.7522 40.921 43.7527 40.9211 43.7532 40.9211L43.7518 40.921Z" fill="white"/>
<path fill-rule="evenodd" clip-rule="evenodd" d="M32.5015 29.4185C32.5227 29.1221 32.7638 28.9002 33.0399 28.923C34.3413 29.0303 35.9254 29.0511 37.5851 29.0729C37.9852 29.0781 38.3898 29.0834 38.7959 29.09C40.8678 29.1237 42.9761 29.1909 44.6503 29.4669C47.3551 29.9023 49.7535 32.2508 49.4784 35.5655C49.3298 38.7555 46.3962 40.9214 43.6945 40.9214C43.4175 40.9214 43.193 40.6804 43.193 40.3831C43.193 40.0858 43.4175 39.8448 43.6945 39.8448C46.0214 39.8448 48.3675 37.9702 48.4771 35.5026C48.4773 35.499 48.4775 35.4953 48.4777 35.4916C48.4779 35.4876 48.4782 35.4835 48.4786 35.4795C48.7001 32.867 46.8244 30.9052 44.5008 30.5315L44.4989 30.5312C42.9024 30.2679 40.8598 30.2003 38.7807 30.1666C38.3839 30.1601 37.9857 30.1549 37.5894 30.1497C35.9272 30.128 34.3001 30.1067 32.9631 29.9965C32.687 29.9737 32.4803 29.7149 32.5015 29.4185Z" fill="white"/>
<path fill-rule="evenodd" clip-rule="evenodd" d="M31.5041 29.3472C31.5601 28.5636 32.2257 27.8525 33.1221 27.9264C34.3817 28.0303 35.9275 28.0511 37.5982 28.073L37.599 28.073C37.9987 28.0783 38.4045 28.0836 38.8121 28.0902C40.8763 28.1238 43.0543 28.1906 44.8111 28.48C47.9464 28.9856 50.7909 31.7283 50.4765 35.6303C50.2887 39.4337 46.8304 41.9214 43.6945 41.9214C42.7997 41.9214 42.193 41.1648 42.193 40.3831C42.193 39.6014 42.7997 38.8448 43.6945 38.8448C45.5733 38.8448 47.3959 37.3086 47.4781 35.4583L47.4781 35.4581L47.4797 35.4284L47.4797 35.4281C47.4804 35.4172 47.4812 35.4062 47.4822 35.3953L47.4822 35.395C47.6536 33.3739 46.2213 31.8211 44.342 31.5189L44.34 31.5186L44.3382 31.5183L44.3362 31.518C42.8228 31.2684 40.8508 31.2004 38.7645 31.1665C38.3695 31.1601 37.9729 31.1549 37.5764 31.1497L37.5505 31.1494C35.9076 31.1279 34.2525 31.1062 32.8809 30.9931C31.9951 30.9201 31.4484 30.1244 31.5041 29.3472ZM48.4812 35.4919L48.4777 35.4917L48.4812 35.4919L48.4804 35.5028L48.4771 35.5027" fill="white"/>
<path fill-rule="evenodd" clip-rule="evenodd" d="M36.1994 24.9215C36.369 24.9279 36.5036 25.1723 36.4999 25.4675L36.1145 56.3985C36.1108 56.6936 35.9703 56.9277 35.8006 56.9213C35.631 56.9149 35.4964 56.6704 35.5001 56.3753L35.8855 25.4443C35.8892 25.1492 36.0297 24.9151 36.1994 24.9215Z" fill="white"/>
<path fill-rule="evenodd" clip-rule="evenodd" d="M34.1942 24.7978C34.3905 24.4708 34.8954 23.8903 35.7559 23.9227C36.5948 23.9543 37.054 24.5457 37.2287 24.8629C37.4279 25.2248 37.5043 25.6238 37.4998 25.9863L37.1144 56.9171C37.1099 57.2781 37.0239 57.6817 36.8058 58.0449C36.6095 58.372 36.1046 58.9525 35.2441 58.9201C34.4052 58.8885 33.946 58.2971 33.7713 57.9799C33.5721 57.618 33.4957 57.219 33.5002 56.8565L33.8856 25.9257C33.8901 25.5646 33.9761 25.1611 34.1942 24.7978Z" fill="white"/>
<path fill-rule="evenodd" clip-rule="evenodd" d="M42.5049 23.9167C42.0828 23.923 41.6678 24.0595 41.3382 24.3171C41.0089 24.5744 40.7203 24.9971 40.7183 25.5392L40.6846 34.3197C40.6802 35.4535 41.7628 35.937 42.4963 35.9261C42.9183 35.9198 43.3334 35.7833 43.6629 35.5257C43.9922 35.2683 44.2808 34.8456 44.2829 34.3036L44.3166 25.5231C44.3209 24.3892 43.2383 23.9058 42.5049 23.9167Z" fill="white"/>
<path fill-rule="evenodd" clip-rule="evenodd" d="M42.1582 47.4277C40.8209 47.3883 40.2191 48.5863 40.2073 49.3843L40.1032 56.4036C40.0914 57.1976 40.643 58.3897 41.9513 58.4282C43.2886 58.4675 43.8904 57.2696 43.9022 56.4716L44.0063 49.4523C44.0181 48.6582 43.4665 47.4662 42.1582 47.4277Z" fill="white"/>
</svg>
