<svg width="60" height="60" viewBox="0 0 81 81" fill="none" xmlns="http://www.w3.org/2000/svg">
<path d="M19.1345 37.5679C22.4693 42.3466 22.4427 44.5023 22.4213 46.5944C22.262 61.8015 32.8018 66.5008 39.0617 66.877C39.5396 66.9036 40.0014 66.9197 40.4636 66.9197C43.3584 66.9538 46.2275 66.374 48.8819 65.2178C51.5363 64.062 53.9153 62.3562 55.8619 60.2134L59.3397 56.3799L59.3981 56.3107L61.1237 54.4044C61.942 53.5852 62.4379 52.4981 62.5195 51.3432C62.601 50.1879 62.263 49.042 61.5675 48.1161C60.8725 47.1902 59.8664 46.5459 58.7343 46.3018C59.07 45.082 58.8543 43.7763 58.1446 42.7296C57.4344 41.6823 56.3013 40.9986 55.044 40.8593C55.2166 40.3824 55.3062 39.8799 55.3095 39.3726C55.3124 38.2651 54.9307 37.1913 54.2296 36.3342C53.5284 35.4771 52.5513 34.8902 51.4652 34.6734L57.2263 28.891C58.1394 27.9812 58.6486 26.7424 58.6391 25.4529C58.6301 24.1639 58.103 22.9327 57.1771 22.0358C56.2512 21.1393 55.0034 20.652 53.7149 20.6841C52.4258 20.7159 51.2041 21.2644 50.3238 22.2059C44.0103 28.9441 36.1629 36.612 33.0668 37.8694C31.2615 38.6127 30.8263 38.0339 29.4296 35.7455C28.4596 33.9525 27.1716 32.3515 25.628 31.0197C23.7908 29.5278 21.6296 29.4851 19.8403 30.9031C17.8174 32.5012 17.5254 35.2519 19.1339 37.5668L19.1345 37.5679ZM57.7093 48.3253C58.4209 48.323 59.104 48.606 59.6052 49.1114C60.1105 49.6234 60.3907 50.316 60.3841 51.0356C60.377 51.7553 60.083 52.4427 59.5677 52.9447L57.8847 54.798C57.4339 55.0108 56.929 55.0805 56.4369 54.998C55.9452 54.9155 55.4906 54.6846 55.1341 54.3362L55.0383 54.2352H55.0388C54.6046 53.8095 54.3433 53.2377 54.3064 52.6304C54.2689 52.0236 54.4581 51.4243 54.8369 50.9484L57.4917 48.2935L57.7093 48.3253ZM56.1164 43.5784C56.5099 43.9685 56.7412 44.4924 56.7649 45.0457C56.7887 45.5989 56.6023 46.1408 56.2439 46.5627C56.1998 46.6035 56.1586 46.6476 56.1221 46.6955L53.0742 49.7433C52.6438 49.9007 52.1777 49.9344 51.7293 49.8405C51.2808 49.7467 50.8674 49.5291 50.536 49.2124L50.4085 49.0848C49.9908 48.6506 49.7452 48.0793 49.7177 47.4772C49.6902 46.8756 49.8832 46.284 50.2601 45.8142C50.6849 45.4851 52.4636 44.078 53.4089 43.2655H53.4084C53.8294 43.0104 54.3225 42.9033 54.8108 42.9597C55.2996 43.0166 55.7552 43.2342 56.106 43.5784L56.1164 43.5784ZM52.3996 37.467C52.905 37.9681 53.1885 38.6513 53.1856 39.3629C53.1164 40.2252 52.7167 41.0279 52.0706 41.6034C51.423 42.1661 50.0263 43.2864 48.9961 44.0938C48.5571 44.219 48.0921 44.2242 47.6502 44.1085C47.2083 43.9923 46.8058 43.76 46.4849 43.4353L46.4157 43.3661C45.9321 42.8825 45.6604 42.2264 45.6604 41.5423C45.6604 40.8582 45.9321 40.2026 46.4157 39.7186L48.9112 37.223C49.4227 36.8352 50.057 36.6456 50.6976 36.6892C51.3381 36.7333 51.9406 37.0078 52.3943 37.462L52.3996 37.467ZM21.1625 32.545C22.1818 31.7381 23.2068 31.7699 24.2901 32.646C25.6413 33.8241 26.7677 35.2382 27.6139 36.8194C28.1065 37.741 28.7247 38.5896 29.451 39.3415C29.471 39.3709 29.4923 39.3993 29.5146 39.4264C29.6047 39.5221 31.6385 41.7465 29.5677 44.9803C29.278 45.4729 29.4297 46.1067 29.9119 46.4143C30.394 46.7215 31.0326 46.5926 31.3573 46.1218C32.5439 44.4208 32.9028 42.276 32.3344 40.2811C32.8602 40.209 33.3745 40.0682 33.8634 39.8615C38.042 38.1463 47.8386 27.9782 51.8631 23.6835C52.3571 23.1506 53.0483 22.8434 53.7746 22.834C54.5019 22.8226 55.2031 23.1061 55.7179 23.62C56.2223 24.123 56.5058 24.8057 56.5058 25.5183C56.5058 26.2303 56.2223 26.9135 55.7179 27.4166L44.9074 38.2057C44.0204 39.0884 43.5216 40.2888 43.5216 41.5405C43.5216 42.7921 44.0204 43.9919 44.9074 44.8747L44.9657 44.9331C45.6972 45.6665 46.6521 46.1353 47.6793 46.2661C47.3029 47.824 47.7609 49.4657 48.8897 50.604L48.9323 50.641L48.975 50.6836H48.9745C49.8359 51.5375 51.0007 52.0149 52.2135 52.0111C52.0666 53.3855 52.5511 54.7528 53.5306 55.7279L53.6102 55.818C54.2246 56.431 54.9993 56.8582 55.8455 57.0501L54.2526 58.8075L54.2099 58.8554H54.2104C50.359 63.0012 44.8321 65.1716 39.189 64.7544C36.4531 64.5173 33.8186 63.6047 31.5216 62.0995H32.026H32.4774C35.1322 61.9298 37.5586 60.3208 39.7252 57.3207C40.0504 56.8443 39.9357 56.1952 39.4668 55.8591C38.998 55.523 38.3466 55.6225 37.9995 56.0834C36.2312 58.5472 34.3357 59.8637 32.3608 59.9964C29.6049 60.1771 27.4862 57.9735 27.4544 57.9417C27.4075 57.8929 27.3558 57.8483 27.3004 57.809C25.6383 55.1859 24.4966 51.5862 24.5497 46.6106C24.5815 43.8015 24.3269 41.2638 20.8808 36.3362C20.0792 35.2108 19.8616 33.5861 21.1625 32.5455L21.1625 32.545Z" fill="white" stroke="white" stroke-width="0.375083"/>
<path d="M34.7903 21.6342C35.5559 21.6342 36.2037 20.9865 36.2037 20.2209V16.3347C36.2037 15.5691 35.5559 14.9214 34.7903 14.9214C34.0247 14.9214 33.377 15.5691 33.377 16.3347V20.2213C33.3774 20.9865 34.0251 21.6343 34.7903 21.6343V21.6342Z" fill="white"/>
<path d="M27.6648 23.7549C27.9594 24.0494 28.3126 24.1673 28.6658 24.1673C29.0191 24.1673 29.3723 24.0494 29.6668 23.7549C30.1967 23.225 30.1967 22.3416 29.6668 21.7529L26.8992 18.9853C26.3694 18.4554 25.4271 18.4554 24.8972 18.9853C24.3673 19.5152 24.3673 20.3987 24.8972 20.9873L27.6648 23.7549Z" fill="white"/>
<path d="M40.914 24.1673C41.2673 24.1673 41.6205 24.0494 41.915 23.7549L44.6826 20.9873C45.2125 20.4574 45.2125 19.5739 44.6826 18.9853C44.1527 18.4554 43.2105 18.4554 42.6806 18.9853L39.913 21.7529C39.3831 22.2828 39.3831 23.1663 39.913 23.7549C40.2071 24.0494 40.5603 24.1673 40.914 24.1673Z" fill="white"/>
</svg>
