<svg width="60" height="60" viewBox="0 0 81 81" fill="none" xmlns="http://www.w3.org/2000/svg">
<path fill-rule="evenodd" clip-rule="evenodd" d="M36.3492 21.4408C38.0217 20.2265 39.5943 18.9505 40.6855 17.9937C41.8002 19.0767 43.2787 20.4593 44.7912 21.702C46.3918 23.017 48.2166 24.3346 49.7463 24.8445C53.0059 25.931 56.0168 26.0369 58.2069 25.9945C58.7689 25.9837 59.2363 26.4281 59.2435 26.9901L59.2451 27.1099C59.2957 31.0502 59.3588 35.9685 58.7411 39.6749C58.3564 41.9832 57.8964 43.4151 57.1815 44.6636C56.4516 45.9381 55.4036 47.1172 53.66 48.8608C50.8888 51.6321 42.2182 59.6389 38.2071 63.3158C37.5964 63.8755 37.5552 64.8244 38.1149 65.4351C38.6747 66.0457 39.6236 66.087 40.2343 65.5272C44.2232 61.8707 52.9526 53.8109 55.7813 50.9821C57.5378 49.2257 58.8397 47.8049 59.7848 46.1544C60.7449 44.4778 61.285 42.6598 61.7003 40.1681C62.3665 36.1706 62.2969 30.9379 62.2449 27.0348L62.2449 27.0337C62.2373 26.4599 62.23 25.9148 62.2256 25.4066C62.2135 24.0405 61.0941 22.8948 59.6677 22.9466L59.4778 22.9536C57.2923 23.0341 54.1494 23.1499 50.695 21.9985C49.7501 21.6835 48.3077 20.7084 46.6956 19.384C45.1384 18.1045 43.5949 16.646 42.4795 15.5526C41.4958 14.5883 39.9637 14.6144 38.9895 15.4882C37.9787 16.3947 36.3431 17.7379 34.5867 19.0131C32.81 20.303 31.0033 21.4541 29.6298 22.0428C28.6436 22.4654 27.2813 22.7337 25.8123 22.8763C24.3651 23.0168 22.9171 23.0262 21.8196 22.9839C20.4682 22.9318 19.2341 23.9639 19.1825 25.4085C19.1024 27.6483 19.0195 30.7251 19.003 33.5251C18.9869 36.2629 19.031 38.9062 19.2412 40.1679C19.7713 43.3505 21.1 46.9214 23.66 49.482C24.7381 50.5604 27.0253 52.4106 29.3615 54.23C31.7285 56.0732 34.2395 57.9564 35.831 59.1291C36.498 59.6205 37.437 59.4782 37.9284 58.8113C38.4198 58.1444 38.2776 57.2053 37.6106 56.7139C36.0355 55.5532 33.5463 53.6864 31.2048 51.863C28.8326 50.0157 26.7031 48.2826 25.7816 47.3609C23.8141 45.393 22.6694 42.4906 22.2004 39.675C22.0416 38.7213 21.9863 36.3655 22.003 33.5428C22.0159 31.3515 22.0702 28.981 22.1317 26.9854C22.1486 26.4372 22.6054 26.0081 23.1538 26.0057C24.065 26.0016 25.0788 25.9616 26.1022 25.8623C27.6908 25.708 29.4089 25.4013 30.8116 24.8002C32.5049 24.0745 34.5327 22.7596 36.3492 21.4408ZM40.5 25.9214C41.6046 25.9214 42.5 26.8168 42.5 27.9214V41.9214C42.5 43.026 41.6046 43.9214 40.5 43.9214C39.3954 43.9214 38.5 43.026 38.5 41.9214V27.9214C38.5 26.8168 39.3954 25.9214 40.5 25.9214ZM40.5 46.9214C41.6046 46.9214 42.5 47.8168 42.5 48.9214V49.9214C42.5 51.026 41.6046 51.9214 40.5 51.9214C39.3954 51.9214 38.5 51.026 38.5 49.9214V48.9214C38.5 47.8168 39.3954 46.9214 40.5 46.9214Z" fill="white"/>
</svg>
