<svg width="36" height="36" viewBox="0 0 36 36" fill="none" xmlns="http://www.w3.org/2000/svg">
<path d="M19.0252 17.5519C19.0252 20.0658 17.0048 22.1037 14.5127 22.1037C12.0205 22.1037 10 20.0654 10 17.5519C10 15.0385 12.0204 13 14.5127 13C17.005 13 19.0252 15.038 19.0252 17.5519Z" fill="white"/>
<path d="M23.9758 17.5518C23.9758 19.9181 22.9656 21.8371 21.7195 21.8371C20.4733 21.8371 19.4631 19.9181 19.4631 17.5518C19.4631 15.1855 20.4732 13.2665 21.7193 13.2665C22.9655 13.2665 23.9757 15.1849 23.9757 17.5518" fill="white"/>
<path d="M26.0001 17.5518C26.0001 19.6714 25.6448 21.3908 25.2065 21.3908C24.7682 21.3908 24.4131 19.6719 24.4131 17.5518C24.4131 15.4318 24.7683 13.7129 25.2065 13.7129C25.6447 13.7129 26.0001 15.4316 26.0001 17.5518Z" fill="white"/>
</svg>
