<svg width="60" height="60" viewBox="0 0 60 60" fill="none" xmlns="http://www.w3.org/2000/svg">
<path d="M35.82 16.8937C36.3213 16.8937 36.802 17.0933 37.1564 17.4484C37.5109 17.8036 37.71 18.2852 37.71 18.7875V41.5125C37.71 42.0148 37.5109 42.4964 37.1564 42.8516C36.802 43.2067 36.3213 43.4062 35.82 43.4062H24.48C23.9788 43.4062 23.498 43.2067 23.1436 42.8516C22.7891 42.4964 22.59 42.0148 22.59 41.5125V18.7875C22.59 18.2852 22.7891 17.8036 23.1436 17.4484C23.498 17.0933 23.9788 16.8937 24.48 16.8937H35.82ZM24.48 15C23.4775 15 22.516 15.399 21.8071 16.1093C21.0983 16.8196 20.7 17.783 20.7 18.7875V41.5125C20.7 42.517 21.0983 43.4804 21.8071 44.1907C22.516 44.901 23.4775 45.3 24.48 45.3H35.82C36.8225 45.3 37.784 44.901 38.4929 44.1907C39.2018 43.4804 39.6 42.517 39.6 41.5125V18.7875C39.6 17.783 39.2018 16.8196 38.4929 16.1093C37.784 15.399 36.8225 15 35.82 15H24.48Z" fill="white"/>
<path d="M30.15 41.7C30.6672 41.7 31.1632 41.4945 31.5289 41.1288C31.8946 40.7632 32.1 40.2672 32.1 39.75C32.1 39.2328 31.8946 38.7368 31.5289 38.3711C31.1632 38.0054 30.6672 37.8 30.15 37.8C29.6328 37.8 29.1368 38.0054 28.7712 38.3711C28.4055 38.7368 28.2 39.2328 28.2 39.75C28.2 40.2672 28.4055 40.7632 28.7712 41.1288C29.1368 41.4945 29.6328 41.7 30.15 41.7Z" fill="white"/>
</svg>
