<svg width="60" height="60" viewBox="0 0 60 60" fill="none" xmlns="http://www.w3.org/2000/svg">
<circle cx="30.4826" cy="29.9609" r="4.42609" stroke="white" stroke-width="2"/>
<path d="M43.3022 18C43.3022 18.9389 42.5411 19.7 41.6022 19.7C40.6633 19.7 39.9022 18.9389 39.9022 18C39.9022 17.0611 40.6633 16.3 41.6022 16.3C42.5411 16.3 43.3022 17.0611 43.3022 18Z" fill="white" stroke="white" stroke-width="2"/>
<path d="M20.8022 42.6C20.8022 43.3732 20.1754 44 19.4022 44C18.629 44 18.0022 43.3732 18.0022 42.6C18.0022 41.8268 18.629 41.2 19.4022 41.2C20.1754 41.2 20.8022 41.8268 20.8022 42.6Z" fill="white" stroke="white" stroke-width="2"/>
<path d="M42.1022 40.2C42.1022 40.6418 41.744 41 41.3022 41C40.8604 41 40.5022 40.6418 40.5022 40.2C40.5022 39.7582 40.8604 39.4 41.3022 39.4C41.744 39.4 42.1022 39.7582 42.1022 40.2Z" stroke="white" stroke-width="2"/>
<path d="M21.4022 20.7C21.4022 21.1418 21.044 21.5 20.6022 21.5C20.1604 21.5 19.8022 21.1418 19.8022 20.7C19.8022 20.2582 20.1604 19.9 20.6022 19.9C21.044 19.9 21.4022 20.2582 21.4022 20.7Z" fill="white" stroke="white" stroke-width="2"/>
<path d="M40.3174 19.9564L33.1957 27.4173" stroke="white" stroke-width="2"/>
<path d="M27.6 33.3523L20.4783 41.1523" stroke="white" stroke-width="2"/>
<path d="M21.1566 21.1436L27.6001 27.1879M40.3174 39.1175L34.0435 33.2322" stroke="white" stroke-width="2"/>
</svg>
