<svg width="60" height="60" viewBox="0 0 60 60" fill="none" xmlns="http://www.w3.org/2000/svg">
<path d="M35.4189 41.7978L31.882 39.6314C31.3957 39.3662 30.8209 39.6755 30.8209 40.2503V41.5323L6.23998 41.5326C5.75365 41.5326 5.3999 41.9304 5.3999 42.3726C5.3999 42.8149 5.79772 43.2127 6.23998 43.2127H30.8651V44.4947C30.8651 45.0251 31.484 45.3788 31.9262 45.1136L35.4631 42.9472C35.9047 42.7264 35.9047 42.0631 35.4184 41.7978L35.4189 41.7978Z" fill="white"/>
<path d="M48.8999 35.8043C45.5664 35.8043 42.8999 38.4709 42.8999 41.8043C42.8999 45.1378 45.5665 47.8043 48.8999 47.8043C52.2334 47.8043 54.8999 45.1377 54.8999 41.8043C54.8999 38.4712 52.2333 35.8043 48.8999 35.8043ZM51.7889 41.0266L48.6779 44.1376C48.5112 44.3043 48.2888 44.4155 48.0667 44.4155C47.8447 44.4155 47.6223 44.3043 47.4556 44.1376L45.9001 42.5821C45.5668 42.2488 45.5668 41.6377 45.9001 41.3044C46.2333 40.9711 46.8445 40.9711 47.1777 41.3044L48.0667 42.1934L50.5113 39.7488C50.8445 39.4156 51.4557 39.4156 51.7889 39.7488C52.1222 40.1375 52.1222 40.6932 51.7889 41.0265L51.7889 41.0266Z" fill="white"/>
<path d="M35.4189 21.3724L31.882 19.2061C31.3957 18.9408 30.8209 19.2502 30.8209 19.825V21.1069H28.92C28.2126 21.1069 27.6381 20.5321 27.6381 19.825V15.4925C27.6381 13.5471 26.0465 12 24.1456 12C22.2447 12 20.6532 13.5916 20.6532 15.4925V25.3956C20.6532 26.4123 19.8575 27.2083 18.8405 27.2083C17.8237 27.2083 17.0278 26.4126 17.0278 25.3956V18.8966C17.0278 16.9513 15.4362 15.4042 13.4909 15.4042C11.5455 15.4042 9.99842 16.9958 9.99842 18.8966V19.8693C9.99842 20.5767 9.42359 21.1512 8.71648 21.1512L6.24046 21.1515C5.75414 21.1515 5.40039 21.5493 5.40039 21.9916C5.40039 22.4779 5.79821 22.8317 6.24046 22.8317H8.76061C10.3963 22.8317 11.7227 21.5053 11.7227 19.8696V18.897C11.7227 17.8802 12.5183 17.0843 13.5795 17.0843C14.5963 17.0843 15.3922 17.8799 15.3922 18.897V25.44C15.3922 27.3853 16.9838 28.9324 18.8847 28.9324C20.83 28.9324 22.3771 27.3409 22.3771 25.44V15.4927C22.3771 14.4759 23.1728 13.68 24.1898 13.68C25.2066 13.68 26.0025 14.4756 26.0025 15.4927V19.8252C26.0025 21.4609 27.3289 22.7873 28.9646 22.7873H30.8655V24.0692C30.8655 24.5997 31.4844 24.9534 31.9266 24.6882L35.4635 22.5218C35.9055 22.3013 35.9055 21.638 35.4191 21.3727L35.4189 21.3724Z" fill="white"/>
<path d="M48.8999 27.6C52.2334 27.6 54.8999 24.9334 54.8999 21.6C54.8999 18.2666 52.2333 15.6 48.8999 15.6C45.5664 15.6 42.8999 18.2666 42.8999 21.6C42.8999 24.9334 45.5669 27.6 48.8999 27.6ZM46.5112 20.5444C46.1779 20.2111 46.1779 19.6 46.5112 19.2667C46.8445 18.9334 47.4556 18.9334 47.7889 19.2667L48.8999 20.3777L50.0109 19.2667C50.3442 18.9334 50.9553 18.9334 51.2886 19.2667C51.6219 19.5999 51.6219 20.2111 51.2886 20.5444L50.1776 21.6554L51.2886 22.7664C51.6219 23.0996 51.6219 23.7108 51.2886 24.0441C51.122 24.2107 50.8995 24.3219 50.622 24.3219C50.4 24.3219 50.1776 24.2107 49.9555 24.0441L48.8445 22.933L47.7335 24.0441C47.5668 24.2107 47.3444 24.3219 47.0669 24.3219C46.8449 24.3219 46.6224 24.2107 46.4004 24.0441C46.0671 23.7108 46.0671 23.0997 46.4004 22.7664L47.5114 21.6554L46.5112 20.5444Z" fill="white"/>
</svg>
