<svg width="60" height="60" viewBox="0 0 60 60" fill="none" xmlns="http://www.w3.org/2000/svg">
<path d="M45.0021 35.4334C43.8306 39.1744 41.3087 42.3452 37.9277 44.3292C34.5468 46.3132 30.5484 46.968 26.7115 46.1663C22.8742 45.3644 19.4727 43.1634 17.1686 39.9918L15.4001 41.7492C15.2479 41.9012 15.0542 42.0052 14.8433 42.0481C14.6325 42.091 14.4135 42.0711 14.214 41.9907C14.0122 41.9157 13.8371 41.783 13.7101 41.6092C13.5831 41.4354 13.5101 41.2282 13.5 41.0132V35.1039C13.5 34.8124 13.6157 34.5331 13.8217 34.3272C14.0276 34.1212 14.3071 34.0055 14.5984 34.0055H20.4969C20.7137 34.0065 20.9253 34.0717 21.1052 34.1928C21.2849 34.3142 21.4249 34.4858 21.5073 34.6864C21.5902 34.8874 21.6113 35.1086 21.5684 35.3216C21.5252 35.5349 21.42 35.7303 21.2658 35.8836L18.7505 38.4099H18.7503C20.6803 41.2305 23.6028 43.2193 26.9349 43.9793C30.2669 44.7394 33.7632 44.2152 36.7251 42.5108C39.6874 40.8065 41.8977 38.0478 42.9152 34.7849C43.04 34.4216 43.3457 34.1494 43.7213 34.068C44.0969 33.9864 44.4877 34.1072 44.7521 34.3863C45.0161 34.6655 45.1154 35.0624 45.0132 35.4332L45.0021 35.4334ZM45.9029 18.0787C45.7028 17.9946 45.4824 17.9715 45.2693 18.0125C45.0563 18.0537 44.8601 18.1569 44.7056 18.3092L42.8273 20.1436C40.5482 16.935 37.1524 14.6935 33.3064 13.8589C29.4603 13.0245 25.4412 13.6568 22.0368 15.6323C18.6324 17.6077 16.0895 20.7837 14.906 24.5375C14.8202 24.8157 14.8484 25.1166 14.9844 25.374C15.1203 25.6314 15.353 25.8244 15.631 25.9105C15.7362 25.9499 15.8482 25.9686 15.9605 25.9654C16.2028 25.9764 16.442 25.907 16.6406 25.768C16.8395 25.629 16.9863 25.4279 17.0589 25.1965C18.1061 21.9457 20.3399 19.209 23.3152 17.5322C26.2904 15.8554 29.7882 15.3611 33.1116 16.1484C36.435 16.9359 39.3394 18.9468 41.2461 21.7806L38.8406 24.175V24.1752C38.6327 24.3812 38.5158 24.6617 38.5155 24.9541C38.5153 25.2466 38.632 25.5274 38.8392 25.7336C39.0466 25.94 39.3278 26.055 39.6203 26.0533H45.4859C45.7772 26.0533 46.0564 25.9376 46.2624 25.7316C46.4686 25.5257 46.5843 25.2464 46.5843 24.9549V19.0456C46.5748 18.8362 46.5056 18.6342 46.385 18.4628C46.2641 18.2917 46.0971 18.1583 45.9032 18.0791L45.9029 18.0787Z" fill="white"/>
</svg>
