<svg width="60" height="60" viewBox="0 0 60 60" fill="none" xmlns="http://www.w3.org/2000/svg">
<path fill-rule="evenodd" clip-rule="evenodd" d="M15.8999 32.3741C15.8999 30.0687 17.7764 28.2 20.091 28.2H40.2088C42.5234 28.2 44.3999 30.0687 44.3999 32.3741V43.2258C44.3999 45.5312 42.5234 47.4 40.2088 47.4H20.091C17.7764 47.4 15.8999 45.5312 15.8999 43.2258V32.3741ZM20.091 29.8697C18.7023 29.8697 17.5763 30.9908 17.5763 32.3741V43.2258C17.5763 44.6091 18.7023 45.7302 20.091 45.7302H40.2088C41.5975 45.7302 42.7235 44.6091 42.7235 43.2258V32.3741C42.7235 30.9908 41.5975 29.8697 40.2088 29.8697H20.091Z" fill="white" stroke="white" stroke-width="0.5"/>
<path fill-rule="evenodd" clip-rule="evenodd" d="M21.0003 21.6315C21.0003 17.4721 24.3519 14.1 28.4866 14.1H31.8137C35.9484 14.1 39.3 17.4721 39.3 21.6315V29.163C39.3 29.6251 38.9276 30 38.4684 30H21.8316C21.3724 30 21 29.6251 21 29.163L21.0003 21.6315ZM28.4866 15.7736C25.2707 15.7736 22.6638 18.3964 22.6638 21.6315V28.3261H37.6365V21.6315C37.6365 18.3964 35.0297 15.7736 31.8137 15.7736H28.4866Z" fill="white" stroke="white" stroke-width="0.5"/>
<path d="M29.9999 34.2C29.443 34.2 28.9089 34.4167 28.5149 34.8024C28.1212 35.1883 27.8999 35.7116 27.8999 36.2571C27.9044 36.9877 28.304 37.6611 28.9499 38.0264V40.3714C28.9499 40.739 29.1501 41.0785 29.4749 41.2622C29.7997 41.4459 30.2001 41.4459 30.5249 41.2622C30.8497 41.0785 31.0499 40.739 31.0499 40.3714V38.0264C31.6959 37.6611 32.0955 36.9877 32.0999 36.2571C32.0999 35.7116 31.8787 35.1883 31.4849 34.8024C31.0909 34.4167 30.5568 34.2 29.9999 34.2Z" fill="white"/>
</svg>
