<svg width="60" height="60" viewBox="0 0 60 60" fill="none" xmlns="http://www.w3.org/2000/svg">
<mask id="mask0_2161_2234" style="mask-type:alpha" maskUnits="userSpaceOnUse" x="9" y="9" width="42" height="42">
<rect x="9" y="9" width="42" height="42" fill="#D9D9D9"/>
</mask>
<g mask="url(#mask0_2161_2234)">
<path d="M30 45.75C27.8417 45.75 25.8 45.3347 23.875 44.504C21.95 43.6722 20.2805 42.5487 18.8665 41.1335C17.4513 39.7195 16.3278 38.05 15.496 36.125C14.6653 34.2 14.25 32.1583 14.25 30C14.25 27.8125 14.6653 25.7633 15.496 23.8523C16.3278 21.9424 17.4513 20.2799 18.8665 18.8647C20.2805 17.4508 21.95 16.3278 23.875 15.496C25.8 14.6653 27.8417 14.25 30 14.25C32.1875 14.25 34.2367 14.6653 36.1477 15.496C38.0576 16.3278 39.7201 17.4508 41.1353 18.8647C42.5493 20.2799 43.6722 21.9424 44.504 23.8523C45.3347 25.7633 45.75 27.8125 45.75 30C45.75 32.1583 45.3347 34.2 44.504 36.125C43.6722 38.05 42.5493 39.7195 41.1353 41.1335C39.7201 42.5487 38.0576 43.6722 36.1477 44.504C34.2367 45.3347 32.1875 45.75 30 45.75ZM30 44C31.0208 42.6875 31.8667 41.3972 32.5375 40.129C33.2083 38.8597 33.7479 37.4375 34.1562 35.8625H25.8438C26.3104 37.525 26.8646 38.9903 27.5062 40.2585C28.1479 41.5278 28.9792 42.775 30 44ZM27.7688 43.7375C26.9521 42.775 26.2083 41.5862 25.5375 40.171C24.8667 38.757 24.3708 37.3208 24.05 35.8625H17.3125C18.3333 38.0208 19.7625 39.8 21.6 41.2C23.4375 42.6 25.4938 43.4458 27.7688 43.7375ZM32.2312 43.7375C34.5062 43.4458 36.5625 42.6 38.4 41.2C40.2375 39.8 41.6667 38.0208 42.6875 35.8625H35.95C35.5125 37.35 34.9583 38.8007 34.2875 40.2148C33.6167 41.6299 32.9312 42.8042 32.2312 43.7375ZM16.6125 34.1125H23.6562C23.5396 33.3833 23.4521 32.6833 23.3938 32.0125C23.3354 31.3417 23.3063 30.6708 23.3063 30C23.3063 29.3292 23.3354 28.6583 23.3938 27.9875C23.4521 27.3167 23.5396 26.6167 23.6562 25.8875H16.6125C16.4083 26.5 16.2555 27.1632 16.154 27.8772C16.0513 28.5924 16 29.3 16 30C16 30.7 16.0513 31.407 16.154 32.121C16.2555 32.8362 16.4083 33.5 16.6125 34.1125ZM25.4062 34.1125H34.5938C34.7104 33.3833 34.7979 32.6903 34.8562 32.0335C34.9146 31.3778 34.9438 30.7 34.9438 30C34.9438 29.3 34.9146 28.6216 34.8562 27.9648C34.7979 27.3091 34.7104 26.6167 34.5938 25.8875H25.4062C25.2896 26.6167 25.2021 27.3091 25.1438 27.9648C25.0854 28.6216 25.0563 29.3 25.0563 30C25.0563 30.7 25.0854 31.3778 25.1438 32.0335C25.2021 32.6903 25.2896 33.3833 25.4062 34.1125ZM36.3438 34.1125H43.3875C43.5917 33.5 43.7451 32.8362 43.8477 32.121C43.9492 31.407 44 30.7 44 30C44 29.3 43.9492 28.5924 43.8477 27.8772C43.7451 27.1632 43.5917 26.5 43.3875 25.8875H36.3438C36.4604 26.6167 36.5479 27.3167 36.6062 27.9875C36.6646 28.6583 36.6938 29.3292 36.6938 30C36.6938 30.6708 36.6646 31.3417 36.6062 32.0125C36.5479 32.6833 36.4604 33.3833 36.3438 34.1125ZM35.95 24.1375H42.6875C41.6667 21.9208 40.2591 20.1417 38.4648 18.8C36.6716 17.4583 34.5938 16.5979 32.2312 16.2188C33.0479 17.2979 33.7847 18.5305 34.4415 19.9165C35.0972 21.3013 35.6 22.7083 35.95 24.1375ZM25.8438 24.1375H34.1562C33.6896 22.5042 33.1208 21.0237 32.45 19.696C31.7792 18.3695 30.9625 17.1375 30 16C29.0375 17.1375 28.2208 18.3695 27.55 19.696C26.8792 21.0237 26.3104 22.5042 25.8438 24.1375ZM17.3125 24.1375H24.05C24.4 22.7083 24.9034 21.3013 25.5603 19.9165C26.2159 18.5305 26.9521 17.2979 27.7688 16.2188C25.3771 16.5979 23.2917 17.4653 21.5125 18.821C19.7333 20.1778 18.3333 21.95 17.3125 24.1375Z" fill="white"/>
</g>
</svg>
