<svg width="60" height="60" viewBox="0 0 60 60" fill="none" xmlns="http://www.w3.org/2000/svg">
<path d="M13.9764 27.4848C16.4774 31.0689 16.4575 32.6857 16.4415 34.2548C16.322 45.6601 24.2269 49.1846 28.9218 49.4667C29.2802 49.4866 29.6265 49.4987 29.9732 49.4987C32.1443 49.5243 34.2961 49.0895 36.2869 48.2223C38.2777 47.3554 40.062 46.0761 41.5219 44.469L44.1303 41.5939L44.174 41.542L45.4683 40.1123C46.082 39.4979 46.4539 38.6826 46.5151 37.8164C46.5762 36.9499 46.3227 36.0905 45.8011 35.3961C45.2798 34.7016 44.5253 34.2184 43.6762 34.0353C43.928 33.1205 43.7662 32.1412 43.2339 31.3561C42.7013 30.5707 41.8514 30.0579 40.9085 29.9534C41.0379 29.5957 41.1051 29.2189 41.1076 28.8384C41.1098 28.0078 40.8235 27.2024 40.2977 26.5596C39.7718 25.9168 39.039 25.4766 38.2244 25.314L42.5452 20.9772C43.23 20.2949 43.6119 19.3658 43.6048 18.3987C43.5981 17.4319 43.2027 16.5084 42.5083 15.8358C41.8139 15.1634 40.878 14.7979 39.9116 14.822C38.9449 14.8459 38.0285 15.2573 37.3683 15.9634C32.6332 21.0171 26.7476 26.768 24.4256 27.711C23.0716 28.2685 22.7452 27.8344 21.6977 26.1181C20.9702 24.7734 20.0042 23.5726 18.8465 22.5738C17.4686 21.4548 15.8477 21.4228 14.5057 22.4863C12.9885 23.6849 12.7695 25.7479 13.9759 27.4841L13.9764 27.4848ZM42.9075 35.553C43.4412 35.5512 43.9535 35.7635 44.3294 36.1425C44.7084 36.5265 44.9185 37.046 44.9136 37.5857C44.9082 38.1254 44.6878 38.641 44.3013 39.0175L43.039 40.4074C42.7009 40.5671 42.3222 40.6193 41.9531 40.5575C41.5844 40.4956 41.2434 40.3224 40.9761 40.0611L40.9042 39.9854H40.9046C40.5789 39.6661 40.383 39.2373 40.3553 38.7818C40.3272 38.3266 40.469 37.8772 40.7531 37.5203L42.7443 35.5291L42.9075 35.553ZM41.7128 31.9927C42.0079 32.2854 42.1814 32.6783 42.1992 33.0932C42.217 33.5082 42.0772 33.9146 41.8084 34.231C41.7754 34.2616 41.7444 34.2947 41.7171 34.3306L39.4312 36.6165C39.1083 36.7345 38.7588 36.7598 38.4224 36.6894C38.0861 36.619 37.776 36.4558 37.5275 36.2182L37.4318 36.1226C37.1186 35.7969 36.9344 35.3684 36.9138 34.9169C36.8932 34.4657 37.0379 34.0219 37.3206 33.6696C37.6391 33.4228 38.9732 32.3675 39.6822 31.7581H39.6818C39.9976 31.5668 40.3673 31.4864 40.7336 31.5287C41.1002 31.5714 41.4419 31.7346 41.705 31.9927L41.7128 31.9927ZM38.9252 27.4092C39.3042 27.785 39.5168 28.2974 39.5147 28.8311C39.4628 29.4779 39.163 30.0799 38.6784 30.5115C38.1927 30.9335 37.1452 31.7737 36.3726 32.3793C36.0433 32.4732 35.6945 32.4771 35.3631 32.3903C35.0317 32.3032 34.7299 32.129 34.4892 31.8854L34.4372 31.8335C34.0746 31.4708 33.8708 30.9787 33.8708 30.4657C33.8708 29.9526 34.0746 29.4609 34.4372 29.0979L36.3089 27.2262C36.6925 26.9354 37.1683 26.7932 37.6487 26.8259C38.129 26.8589 38.5809 27.0648 38.9212 27.4054L38.9252 27.4092ZM15.4974 23.7177C16.2618 23.1126 17.0306 23.1364 17.8431 23.7935C18.8564 24.677 19.7012 25.7376 20.3359 26.9235C20.7054 27.6147 21.169 28.2512 21.7138 28.8151C21.7287 28.8371 21.7447 28.8585 21.7614 28.8787C21.829 28.9506 23.3543 30.6188 21.8012 33.0442C21.584 33.4136 21.6978 33.889 22.0594 34.1197C22.421 34.3501 22.8999 34.2534 23.1435 33.9003C24.0334 32.6245 24.3026 31.016 23.8763 29.5198C24.2706 29.4657 24.6564 29.3601 25.023 29.2051C28.157 27.9187 35.5044 20.2926 38.5228 17.0716C38.8933 16.6719 39.4117 16.4415 39.9564 16.4344C40.5019 16.4259 41.0278 16.6385 41.4139 17.024C41.7922 17.4012 42.0049 17.9132 42.0049 18.4477C42.0049 18.9817 41.7922 19.4941 41.4139 19.8714L33.306 27.9632C32.6408 28.6253 32.2667 29.5256 32.2667 30.4643C32.2667 31.403 32.6408 32.3029 33.306 32.965L33.3498 33.0088C33.8984 33.5588 34.6145 33.9105 35.385 34.0086C35.1027 35.1769 35.4461 36.4082 36.2927 37.2619L36.3247 37.2897L36.3567 37.3217H36.3564C37.0024 37.9621 37.876 38.3201 38.7856 38.3173C38.6754 39.3481 39.0388 40.3735 39.7734 41.1049L39.8332 41.1725C40.294 41.6322 40.8749 41.9526 41.5096 42.0966L40.315 43.4146L40.2829 43.4505H40.2833C37.3947 46.5599 33.2496 48.1877 29.0172 47.8747C26.9653 47.6969 24.9894 47.0125 23.2667 45.8836H23.645H23.9835C25.9747 45.7563 27.7944 44.5495 29.4194 42.2995C29.6633 41.9422 29.5773 41.4554 29.2256 41.2033C28.874 40.9512 28.3854 41.0259 28.1251 41.3715C26.7989 43.2194 25.3773 44.2067 23.8961 44.3063C21.8292 44.4418 20.2402 42.7891 20.2163 42.7652C20.1811 42.7286 20.1424 42.6952 20.1008 42.6657C18.8542 40.6984 17.9979 37.9986 18.0378 34.2669C18.0616 32.1601 17.8707 30.2568 15.2861 26.5611C14.6849 25.717 14.5217 24.4985 15.4973 23.7181L15.4974 23.7177Z" fill="white" stroke="white" stroke-width="0.5"/>
<path d="M25.7177 15.5346C26.292 15.5346 26.7778 15.0488 26.7778 14.4746V11.56C26.7778 10.9858 26.2919 10.5 25.7177 10.5C25.1435 10.5 24.6577 10.9858 24.6577 11.56V14.4749C24.658 15.0489 25.1438 15.5347 25.7177 15.5347V15.5346Z" fill="white"/>
<path d="M20.3738 17.1251C20.5947 17.346 20.8596 17.4344 21.1245 17.4344C21.3895 17.4344 21.6544 17.346 21.8753 17.1251C22.2727 16.7277 22.2727 16.0651 21.8753 15.6236L19.7996 13.5479C19.4022 13.1505 18.6955 13.1505 18.2981 13.5479C17.9006 13.9453 17.9006 14.6079 18.2981 15.0494L20.3738 17.1251Z" fill="white"/>
<path d="M30.311 17.4344C30.576 17.4344 30.8409 17.346 31.0618 17.1251L33.1375 15.0494C33.5349 14.652 33.5349 13.9894 33.1375 13.5479C32.7401 13.1505 32.0334 13.1505 31.636 13.5479L29.5603 15.6236C29.1629 16.021 29.1629 16.6836 29.5603 17.1251C29.7808 17.346 30.0458 17.4344 30.311 17.4344Z" fill="white"/>
</svg>
