<svg width="60" height="60" viewBox="0 0 60 60" fill="none" xmlns="http://www.w3.org/2000/svg">
<path d="M41.5468 33.4813C40.7463 33.4813 40.0501 33.7945 39.4931 34.2471L34.7241 31.4972C34.8633 31.0446 34.9679 30.5573 34.9679 30.0352C34.9679 29.5131 34.8635 29.0258 34.7241 28.5732L39.4931 25.8233C40.0501 26.3106 40.781 26.5891 41.5468 26.5891C43.3221 26.5891 44.7494 25.1618 44.7494 23.3866C44.7494 21.6113 43.3221 20.184 41.5468 20.184C39.7716 20.184 38.3443 21.6113 38.3443 23.3866C38.3443 23.5954 38.379 23.7695 38.414 23.9436L33.645 26.6935C32.9836 25.9623 32.1133 25.4403 31.104 25.1967L31.1037 19.6962C32.3222 19.2436 33.2271 18.0948 33.2271 16.7025C33.2271 14.9273 31.7999 13.5 30.0246 13.5C28.2493 13.5 26.822 14.9273 26.822 16.7025C26.822 18.0948 27.7271 19.2436 28.9455 19.6962V25.1962C27.9361 25.4051 27.0658 25.9621 26.4044 26.6583L21.6354 23.9084C21.6702 23.7343 21.7051 23.5255 21.7051 23.3514C21.7051 21.5761 20.2779 20.1488 18.5026 20.1488C16.7273 20.1488 15.3 21.5761 15.3 23.3514C15.3 25.1266 16.7273 26.5539 18.5026 26.5539C19.3032 26.5539 19.9993 26.2407 20.5563 25.7881L25.3253 28.538C25.1861 28.9906 25.0815 29.4779 25.0815 30C25.0815 30.5221 25.1859 31.0094 25.3253 31.462L20.5563 34.2119C19.9993 33.7246 19.2684 33.4461 18.5026 33.4461C16.7273 33.4461 15.3 34.8734 15.3 36.6486C15.3 38.4239 16.7273 39.8512 18.5026 39.8512C20.2779 39.8512 21.7051 38.4239 21.7051 36.6486C21.7051 36.4398 21.6704 36.2657 21.6354 36.0916L26.4044 33.3417C27.0658 34.0729 27.9361 34.5949 28.9455 34.8038V40.3038C27.727 40.7564 26.822 41.9052 26.822 43.2975C26.822 45.0727 28.2493 46.5 30.0246 46.5C31.7999 46.5 33.2271 45.0727 33.2271 43.2975C33.2271 41.9052 32.3221 40.7564 31.1037 40.3038V34.8737C32.1131 34.6649 32.9833 34.1079 33.6448 33.377L38.4137 36.1269C38.379 36.301 38.344 36.5098 38.344 36.6839C38.344 38.4591 39.7713 39.8864 41.5466 39.8864C43.3218 39.8864 44.7491 38.4591 44.7491 36.6839C44.7494 34.9434 43.2873 33.4813 41.5468 33.4813ZM29.9898 32.8198C28.4581 32.8198 27.2049 31.5666 27.2049 30.0349C27.2049 28.5032 28.4581 27.2501 29.9898 27.2501C31.5215 27.2501 32.7747 28.5032 32.7747 30.0349C32.7747 31.5666 31.5215 32.8198 29.9898 32.8198Z" fill="white"/>
</svg>
