<?xml version="1.0" encoding="UTF-8"?>
<svg id="Layer_1" xmlns="http://www.w3.org/2000/svg" width="60" height="60" version="1.1" viewBox="0 0 60 60">
  <!-- Generator: Adobe Illustrator 29.1.0, SVG Export Plug-In . SVG Version: 2.1.0 Build 142)  -->
  <path d="M37.44,20.33h4.47c1.64,0,2.98,1.34,2.98,2.98v17.86c0,1.64-1.34,2.98-2.98,2.98h-23.81c-1.64,0-2.98-1.34-2.98-2.98v-17.86c0-1.64,1.34-2.98,2.98-2.98h4.47c0-2.47,1.99-4.47,4.47-4.47h5.95c2.47,0,4.47,1.99,4.47,4.47h-.02ZM33.25,17.23h-5.95c-.82,0-1.49,1.32-1.49,2.93h8.93c0-1.61-.67-2.93-1.49-2.93ZM41.91,22.76h-23.81v4.43h23.81v-4.43ZM18.09,41.16v-11.91h4.47v2.98h5.95v-2.98h2.98v2.98h5.95v-2.98h4.47v11.91h-23.82Z" fill="#fff" fill-rule="evenodd"/>
</svg>