<?xml version="1.0" encoding="UTF-8"?>
<svg id="Layer_1" xmlns="http://www.w3.org/2000/svg" version="1.1" width="152" height="147" viewBox="0 0 152 147">
  <!-- Generator: Adobe Illustrator 29.6.1, SVG Export Plug-In . SVG Version: 2.1.1 Build 9)  -->
  <path d="M49.5,135.1l-22.5-16.3,28.2-36.5-44.3-13.3,8.7-26.3,43.6,15.4-.9-45.9h27.8c0,0-1.2,46-1.2,46l43.7-15.1,8.5,26.3-44.4,13,28.1,36.9-22.9,15.7-26-37.6-26.4,37.7ZM28.8,118.5l20.4,14.7,26.7-38.1,26.3,38.1,20.8-14.2-28.5-37.3,44.9-13.2-7.7-23.9-44.2,15.3,1.3-46.5h-25.2s1,46.4,1,46.4l-44.1-15.6-7.9,23.8,44.8,13.5-28.6,36.9Z" fill="none" stroke="#0085FB" stroke-width="1"/>
</svg>