<svg width="60" height="60" viewBox="0 0 60 60" fill="none" xmlns="http://www.w3.org/2000/svg">
<path d="M24.5769 21.9643V30.5357C24.5769 30.8199 24.4627 31.0924 24.2593 31.2933C24.0559 31.4943 23.78 31.6071 23.4923 31.6071C23.2047 31.6071 22.9288 31.4943 22.7254 31.2933C22.522 31.0924 22.4077 30.8199 22.4077 30.5357V21.9643C22.4077 21.6801 22.522 21.4076 22.7254 21.2067C22.9288 21.0057 23.2047 20.8929 23.4923 20.8929C23.78 20.8929 24.0559 21.0057 24.2593 21.2067C24.4627 21.4076 24.5769 21.6801 24.5769 21.9643ZM30 39.6429C29.7124 39.6429 29.4365 39.7557 29.2331 39.9567C29.0297 40.1576 28.9154 40.4301 28.9154 40.7143V43.9286C28.9154 44.2127 29.0297 44.4853 29.2331 44.6862C29.4365 44.8871 29.7124 45 30 45C30.2877 45 30.5636 44.8871 30.767 44.6862C30.9704 44.4853 31.0846 44.2127 31.0846 43.9286V40.7143C31.0846 40.4301 30.9704 40.1576 30.767 39.9567C30.5636 39.7557 30.2877 39.6429 30 39.6429ZM30 22.5C29.7124 22.5 29.4365 22.6129 29.2331 22.8138C29.0297 23.0147 28.9154 23.2873 28.9154 23.5714V36.4286C28.9154 36.7127 29.0297 36.9853 29.2331 37.1862C29.4365 37.3871 29.7124 37.5 30 37.5C30.2877 37.5 30.5636 37.3871 30.767 37.1862C30.9704 36.9853 31.0846 36.7127 31.0846 36.4286V23.5714C31.0846 23.2873 30.9704 23.0147 30.767 22.8138C30.5636 22.6129 30.2877 22.5 30 22.5ZM23.4923 33.75C23.2047 33.75 22.9288 33.8629 22.7254 34.0638C22.522 34.2647 22.4077 34.5373 22.4077 34.8214V38.0357C22.4077 38.3199 22.522 38.5924 22.7254 38.7933C22.9288 38.9943 23.2047 39.1071 23.4923 39.1071C23.78 39.1071 24.0559 38.9943 24.2593 38.7933C24.4627 38.5924 24.5769 38.3199 24.5769 38.0357V34.8214C24.5769 34.5373 24.4627 34.2647 24.2593 34.0638C24.0559 33.8629 23.78 33.75 23.4923 33.75ZM16.9846 27.3214C16.697 27.3214 16.4211 27.4343 16.2177 27.6352C16.0143 27.8362 15.9 28.1087 15.9 28.3929V31.6071C15.9 31.8913 16.0143 32.1638 16.2177 32.3648C16.4211 32.5657 16.697 32.6786 16.9846 32.6786C17.2723 32.6786 17.5482 32.5657 17.7516 32.3648C17.955 32.1638 18.0693 31.8913 18.0693 31.6071V28.3929C18.0693 28.1087 17.955 27.8362 17.7516 27.6352C17.5482 27.4343 17.2723 27.3214 16.9846 27.3214ZM30 15C29.7124 15 29.4365 15.1129 29.2331 15.3138C29.0297 15.5147 28.9154 15.7873 28.9154 16.0714V19.2857C28.9154 19.5699 29.0297 19.8424 29.2331 20.0433C29.4365 20.2443 29.7124 20.3571 30 20.3571C30.2877 20.3571 30.5636 20.2443 30.767 20.0433C30.9704 19.8424 31.0846 19.5699 31.0846 19.2857V16.0714C31.0846 15.7873 30.9704 15.5147 30.767 15.3138C30.5636 15.1129 30.2877 15 30 15ZM36.5077 20.8929C36.2201 20.8929 35.9442 21.0057 35.7408 21.2067C35.5374 21.4076 35.4231 21.6801 35.4231 21.9643V25.1786C35.4231 25.4627 35.5374 25.7353 35.7408 25.9362C35.9442 26.1371 36.2201 26.25 36.5077 26.25C36.7954 26.25 37.0712 26.1371 37.2747 25.9362C37.4781 25.7353 37.5923 25.4627 37.5923 25.1786V21.9643C37.5923 21.6801 37.4781 21.4076 37.2747 21.2067C37.0712 21.0057 36.7954 20.8929 36.5077 20.8929ZM43.0154 27.3214C42.7277 27.3214 42.4519 27.4343 42.2485 27.6352C42.0451 27.8362 41.9308 28.1087 41.9308 28.3929V31.6071C41.9308 31.8913 42.0451 32.1638 42.2485 32.3648C42.4519 32.5657 42.7277 32.6786 43.0154 32.6786C43.3031 32.6786 43.5789 32.5657 43.7823 32.3648C43.9858 32.1638 44.1 31.8913 44.1 31.6071V28.3929C44.1 28.1087 43.9858 27.8362 43.7823 27.6352C43.5789 27.4343 43.3031 27.3214 43.0154 27.3214ZM36.5077 28.3929C36.2201 28.3929 35.9442 28.5057 35.7408 28.7067C35.5374 28.9076 35.4231 29.1801 35.4231 29.4643V38.0357C35.4231 38.3199 35.5374 38.5924 35.7408 38.7933C35.9442 38.9943 36.2201 39.1071 36.5077 39.1071C36.7954 39.1071 37.0712 38.9943 37.2747 38.7933C37.4781 38.5924 37.5923 38.3199 37.5923 38.0357V29.4643C37.5923 29.1801 37.4781 28.9076 37.2747 28.7067C37.0712 28.5057 36.7954 28.3929 36.5077 28.3929Z" fill="white"/>
</svg>
