<svg width="36" height="36" viewBox="0 0 36 36" fill="none" xmlns="http://www.w3.org/2000/svg">
<path fill-rule="evenodd" clip-rule="evenodd" d="M11.0999 16.7083C15.3949 14.8371 18.2589 13.6034 19.6919 13.0074C23.7834 11.3056 24.6335 11.01 25.1877 11.0002C25.3095 10.9981 25.5821 11.0283 25.7586 11.1715C25.9076 11.2925 25.9486 11.4558 25.9683 11.5705C25.9879 11.6852 26.0123 11.9464 25.9929 12.1505C25.7712 14.4801 24.8118 20.1335 24.3237 22.7427C24.1172 23.8468 23.7105 24.217 23.3169 24.2532C22.4613 24.3319 21.8116 23.6878 20.9829 23.1446C19.6862 22.2946 18.9537 21.7655 17.695 20.936C16.2404 19.9775 17.1834 19.4506 18.0124 18.5896C18.2293 18.3643 21.999 14.9355 22.0719 14.6244C22.0811 14.5855 22.0895 14.4405 22.0034 14.364C21.9172 14.2874 21.7901 14.3136 21.6983 14.3344C21.5683 14.3639 19.4968 15.7331 15.4839 18.4419C14.8959 18.8457 14.3633 19.0424 13.8862 19.0321C13.3601 19.0207 12.3482 18.7346 11.596 18.4901C10.6733 18.1902 9.94002 18.0316 10.0039 17.5223C10.0371 17.257 10.4025 16.9857 11.0999 16.7083Z" fill="white"/>
</svg>
