<svg width="36" height="36" viewBox="0 0 36 36" fill="none" xmlns="http://www.w3.org/2000/svg">
<path d="M15.02 24.0098C21.0617 24.0098 24.3653 19.0034 24.3653 14.6645C24.3653 14.5215 24.3653 14.3785 24.3584 14.2422C24.9987 13.7791 25.5573 13.2001 26 12.5394C25.4142 12.7982 24.7808 12.9753 24.1132 13.057C24.7944 12.6484 25.312 12.0081 25.5573 11.2384C24.9238 11.613 24.2222 11.8855 23.473 12.0353C22.8736 11.3951 22.0221 11 21.0754 11C19.2635 11 17.7923 12.4713 17.7923 14.2831C17.7923 14.5419 17.8195 14.794 17.8808 15.0324C15.1494 14.8961 12.7314 13.5883 11.1103 11.5994C10.831 12.083 10.6675 12.6484 10.6675 13.2478C10.6675 14.3853 11.2465 15.3934 12.132 15.9791C11.5939 15.9655 11.0898 15.8157 10.6471 15.5705C10.6471 15.5841 10.6471 15.5977 10.6471 15.6113C10.6471 17.2052 11.7778 18.5266 13.2831 18.8331C13.0106 18.908 12.7178 18.9489 12.4181 18.9489C12.2069 18.9489 12.0026 18.9285 11.7982 18.8876C12.2137 20.1954 13.4261 21.1422 14.8633 21.1694C13.7395 22.0481 12.3227 22.5726 10.7833 22.5726C10.5177 22.5726 10.2588 22.559 10 22.5249C11.4372 23.4649 13.1673 24.0098 15.02 24.0098Z" fill="white"/>
</svg>
