<svg id="Layer_1" data-name="Layer 1" xmlns="http://www.w3.org/2000/svg" viewBox="0 0 988.01 1012.04"><defs><style>.cls-1{fill:none;stroke:#fff;stroke-miterlimit:10;stroke-width:4px;}</style></defs><title>woman</title><path class="cls-1" d="M36,573c4.21,0,4.21,4,8.41,4s4.21-4,8.41-4,4.21,4,8.42,4,4.21-4,8.41-4,4.21,4,8.42,4,4.2-4,8.41-4,4.21,4,8.42,4,4.21-4,8.41-4,4.21,4,8.42,4,4.2-4,8.41-4,4.21,4,8.41,4,4.21-4,8.42-4,4.21,4,8.42,4,4.21-4,8.41-4,4.22,4,8.43,4,4.21-4,8.42-4" transform="translate(-26.63 -4.28)"/><path class="cls-1" d="M573.31,829.4s-47.44,4.32-47.44-15.09-5-218.5-5-218.5,1.08-12.94,17.25-15.09,94.67,5.09,128.66,6.47c8.7.35,21.2,1.07,20.12,33.42S684.71,700,684.71,700" transform="translate(-26.63 -4.28)"/><path class="cls-1" d="M774.92,852.4l-9.71-22.64-7.54-67.92-14.91-24.13a52.86,52.86,0,0,0-20.08-18.88c-4.5-2.4-9.62-5.23-14.25-8-11.49-6.93-19.82-13.66-24.07-11.5-16.17,8.21,3.57,27.33,20.48,39.53,7.94,5.73,21.66,16.9,25.42,25.94h0a.65.65,0,0,1-1,.73c-8.64-8-41-37.6-68.94-56.14-15.72-10.4-30.43-21.5-41.69-18.68-34.5,8.62,8.62,40.24,17.25,46.71s76.55,66.49,74.39,70.8S605.65,710.81,571.87,706.5c-32.1-4.1-22.08,22.59-9.34,30.54,14.37,9,39.19,34.32,49.59,46.36,13.66,15.82,48.52,43.13,48.52,43.13l12.93,15.09" transform="translate(-26.63 -4.28)"/><path class="cls-1" d="M546.71,720.15s-19.4-2.15-11.5,18,27.32,21.56,44.57,49.6,48.15,51.75,52.47,58.93,5,10.07,5,10.07" transform="translate(-26.63 -4.28)"/><path class="cls-1" d="M536.65,749.62s-10.06,0-7.19,9.35,27.32,22.28,32.35,28.75,47.44,70.43,47.44,70.43S622.9,883.31,633,883.31s28.75-.72,37.38,3.59,12.94,3.6,16.53-.72" transform="translate(-26.63 -4.28)"/><path class="cls-1" d="M699.09,874s5-1.44,15.09,0,19.41-11.5,19.41-11.5" transform="translate(-26.63 -4.28)"/><path class="cls-1" d="M775.28,840.18s15.09,12.94-1.44,26.6-54.63,51.75-86.25,47.44-28.75-25.88-28.75-25.88" transform="translate(-26.63 -4.28)"/><path class="cls-1" d="M699.09,1015.56s-40.25-97-40.25-124.34" transform="translate(-26.63 -4.28)"/><path class="cls-1" d="M778.15,841.62s30.91,79.78,37.38,87.69,9.34,14.37,5,23.72" transform="translate(-26.63 -4.28)"/><path class="cls-1" d="M853.62,991.84s-15.81-12.94-20.84-23.72a65.88,65.88,0,0,0-11.5-17.25" transform="translate(-26.63 -4.28)"/><path class="cls-1" d="M748,218.47s5.75,83.37-7.9,158.84c-7.46,41.24-61.81,97-86.25,112.13-17.49,10.8-53.19,10.78-74-2.88s-73.31-64.69-80.5-94.87-32.35-155.25-28.75-184S541.25,107.32,582.65,96.28c10.78-2.88,29.57,10.18,60.38,32.34C702,171,748,218.47,748,218.47Z" transform="translate(-26.63 -4.28)"/><path class="cls-1" d="M450.4,101,433.15,80.47s-74.39,73.31-62.53,143.39l10.78,5.39,14-12.94S391,166.24,450.4,101Z" transform="translate(-26.63 -4.28)"/><path class="cls-1" d="M447.53,91.25S564.68-13,758,66.81l5-5.75S607.81-75.5,441.78,82.62Z" transform="translate(-26.63 -4.28)"/><path class="cls-1" d="M753.12,78.35l14.67-22.41s82.66,63.85,79.3,134.85L837,197.43l-15.47-11.16S820,136,753.12,78.35Z" transform="translate(-26.63 -4.28)"/><path class="cls-1" d="M805.46,166.72s-18-14.38-28.75-7.91-26.59,173.94-24.43,176.81,25.15,7.19,28,2.16S812.65,239.31,805.46,166.72Z" transform="translate(-26.63 -4.28)"/><path class="cls-1" d="M794.68,168.15s4.32,83.38-25.15,163.16" transform="translate(-26.63 -4.28)"/><path class="cls-1" d="M787.5,336.34l11-.75a37.81,37.81,0,0,0,31.91-22.29,246.31,246.31,0,0,0,15.27-46.68c8.63-38.09,1.38-75.83,1.38-75.83" transform="translate(-26.63 -4.28)"/><path class="cls-1" d="M820.56,184.69s2.87,44.56-5,76.18,5,39.53,16.53,34.5" transform="translate(-26.63 -4.28)"/><path class="cls-1" d="M422.1,272.48c-6.93-24.25-12.4-50.53-13.43-75.06,0,0,15.78-16.75,27.36-11.85s50.69,168.49,49,171.64-23.9,10.64-27.45,6.06c-1.72-2.21-12.46-23.95-23.45-54.06" transform="translate(-26.63 -4.28)"/><path class="cls-1" d="M419.55,197.33c3.17-.77,11,82.29,47.76,158" transform="translate(-26.63 -4.28)"/><path class="cls-1" d="M395.44,330.29A266.12,266.12,0,0,1,382.81,302c-13.87-36.51-12-74.9-12-74.9" transform="translate(-26.63 -4.28)"/><line class="cls-1" x1="423.59" y1="358.57" x2="407" y2="360.33"/><path class="cls-1" d="M396.24,217.33s2.61,42.33,14.87,72.53" transform="translate(-26.63 -4.28)"/><path class="cls-1" d="M684,388.09c6.26-6.14-23.36,12.22-36.3,10.06-9.93-1.65-15.09,5-23,5s-13.92-3.86-23.72-.72c-9,2.87-32.31.3-38.45-.72-.68-.12,6.55,3.32,7.18,3.59,19.74,8.47,24.09,24.06,50,25.52C653.69,432.77,666.75,405,684,388.09Z" transform="translate(-26.63 -4.28)"/><path class="cls-1" d="M585.53,94.84s-16.53-33.06-15.1-46" transform="translate(-26.63 -4.28)"/><path class="cls-1" d="M592,367.28s18.68,2.87,21.56,7.9,15.81,7.19,19.4.72,11.5-4.31,19.41-7.9c0,0,12.94-3.6,10.78-16.53" transform="translate(-26.63 -4.28)"/><path class="cls-1" d="M507.18,252.25s16.53-12.94,64.69,2.15" transform="translate(-26.63 -4.28)"/><path class="cls-1" d="M727.12,235S684,225.65,649.5,250.81" transform="translate(-26.63 -4.28)"/><path class="cls-1" d="M602.06,268.78s13.65,15.81,15.09,54.62" transform="translate(-26.63 -4.28)"/><path class="cls-1" d="M635.84,294.65s-5.75-20.84,12.22-28S719.93,258,719.93,258" transform="translate(-26.63 -4.28)"/><path class="cls-1" d="M653.09,287.47s18.69-12.22,42.41-11.5l23.71.72s-2.15,26.59-28,31.62S653.09,287.47,653.09,287.47Z" transform="translate(-26.63 -4.28)"/><path class="cls-1" d="M655.25,289.62s46,.72,58.93-7.18" transform="translate(-26.63 -4.28)"/><path class="cls-1" d="M675,297.53c-1.44,3.59,1.11,8.34,6.11,9.34,10.78,2.16,21.56-1.43,19.41-12.22-1.63-8.11-14.66-4-21-1.48" transform="translate(-26.63 -4.28)"/><path class="cls-1" d="M577.55,286.5s-19.78-10.35-43.31-7.35l-23.54,3s4.71,26.26,30.95,28.77S577.55,286.5,577.55,286.5Z" transform="translate(-26.63 -4.28)"/><path class="cls-1" d="M575.62,288.86S529.9,294,516.26,287.4" transform="translate(-26.63 -4.28)"/><path class="cls-1" d="M533.34,294.18c4.28-2.93,13.39-.91,18.44.55a7.74,7.74,0,0,1,5.66,6.87c.15,2.61-1,5.45-5.91,6.93-10.53,3.18-21.6.65-20.5-10.29" transform="translate(-26.63 -4.28)"/><path class="cls-1" d="M679.68,392.4S664,402.59,649.42,408a70.76,70.76,0,0,1-20,4.52,144.11,144.11,0,0,1-25.45-1,344.5,344.5,0,0,1-34.56-6.2" transform="translate(-26.63 -4.28)"/><path class="cls-1" d="M805.11,452.78S959.28,511.72,997,582.62c42,79-14,283.89-14,283.89l-5.4,102.33" transform="translate(-26.63 -4.28)"/><path class="cls-1" d="M376,416.84S244.48,421.15,251,569.94,266,815.75,251,884.75s11.86,93.79,11.86,93.79" transform="translate(-26.63 -4.28)"/><path class="cls-1" d="M265,933.26s9.7-50.67,23.71-77.62-6.46-24.8,16.18-36.66c11.17-5.85,20.48-5.39,22.64-17.25s1.07-6.47,12.93-14,2.16-10.79,12.94-23.72,21.56-33.42,25.88-57.14,49.59-144.47,49.59-144.47l77.63,15.09" transform="translate(-26.63 -4.28)"/><path class="cls-1" d="M453,991c24-42.45,34.59-91.12,41-139.45s8.8-97.22,17.92-145.12" transform="translate(-26.63 -4.28)"/><path class="cls-1" d="M506.47,577.48c18.32-17.25,19.91-43.12,12.63-63.09s-19.78-37.52-31.57-55.21A982.39,982.39,0,0,1,428,356.94s8.41-44.68,7.33-65.16-16.17-21.56-19.41-12.94-30.18,73.31-28,78.71,24.8,60.37,24.8,60.37" transform="translate(-26.63 -4.28)"/><path class="cls-1" d="M431,559.15s12.93-39.89-21.57-116.43-59.29-80.86-60.37-110,2.16-100.27,8.62-104.58,10.79,4.31,10.79,4.31" transform="translate(-26.63 -4.28)"/><path class="cls-1" d="M365.23,200.14s-12.94-5.39-16.17,5.39-6.47,118.59-6.47,118.59" transform="translate(-26.63 -4.28)"/><path class="cls-1" d="M426.92,278.36s-3.83,13.9-9.1,13.9" transform="translate(-26.63 -4.28)"/><path class="cls-1" d="M691.9,707.22s11,4.31,12,7.66.48,9.59-5.75,7.67" transform="translate(-26.63 -4.28)"/><path class="cls-1" d="M535.21,756.09l4.32-1.92s10.06,8.63,10.06,13.9" transform="translate(-26.63 -4.28)"/><path class="cls-1" d="M559.56,722.52l7.89-8.1s11.71,6.15,11.85,12.92c.1,4.93-5.75,5.27-5.75,5.27" transform="translate(-26.63 -4.28)"/><path class="cls-1" d="M613.7,705.27l7.9-8.1s11.7,6.15,11.84,12.92c.11,4.93-5.75,5.27-5.75,5.27" transform="translate(-26.63 -4.28)"/><path class="cls-1" d="M538.9,737.09l8.69-7.24s11,7.31,10.45,14.07c-.4,4.91-6.26,4.65-6.26,4.65" transform="translate(-26.63 -4.28)"/><path class="cls-1" d="M784.93,350.79c3.35,28.89-2,58.5,3.57,87C794,466,810,492.48,807.88,521.05c-1.73,23.45-15.48,44.18-21.5,66.91-15.81,59.76,23.3,123.12,10.4,183.57" transform="translate(-26.63 -4.28)"/><path class="cls-1" d="M348.57,580.72c-1.08,21.25-1.15,43.94,10.14,62,8.15,13,22.05,23.38,24.25,38.58" transform="translate(-26.63 -4.28)"/><path class="cls-1" d="M330,614.66a150.16,150.16,0,0,0-20.68-12" transform="translate(-26.63 -4.28)"/><path class="cls-1" d="M835.42,811c.48-9.36-2.48-18.51-3.66-27.81-2.76-21.8,4.35-43.59,12.62-63.95s17.91-40.59,20.59-62.41" transform="translate(-26.63 -4.28)"/><path class="cls-1" d="M853,773.45a118.23,118.23,0,0,0,26.68-39.14" transform="translate(-26.63 -4.28)"/><path class="cls-1" d="M983.71,563.47c.12-33.75-38.44-74.68-71.31-82.31-5.61-1.3-11.54-2-16.36-5.16-10-6.47-11.48-20.19-16.61-30.95-8.7-18.22-28.22-28.06-44.56-39.93s-31.62-31.26-25.54-50.51" transform="translate(-26.63 -4.28)"/><path class="cls-1" d="M111.73,806.69c4.47-4,14-12,18.61-15.92h0c4.46-3.81,9.11-7.42,13.33-11.48,8.62-8.28,10.87-20.84,2.56-30.38-7.79-8.93-21.2-8.25-30.33-.79" transform="translate(-26.63 -4.28)"/><path class="cls-1" d="M115.31,748.7c6.94-6.44,9.53-17.93,3.35-25.9s-17.21-8.3-25.18-3.12c-10.36,6.73-23.81,19.92-33.39,27.64" transform="translate(-26.63 -4.28)"/><line class="cls-1" x1="34.7" y1="722.39" x2="105.48" y2="805.13"/><line class="cls-1" x1="47.06" y1="711.81" x2="64.52" y2="732.21"/><line class="cls-1" x1="100.39" y1="774.15" x2="117.84" y2="794.55"/><circle class="cls-1" cx="83.65" cy="752.16" r="71.95"/><path class="cls-1" d="M108,290a57.93,57.93,0,1,1,115.85,0c0,19.12-17.34,44.74-31.63,62.26-9.61,11.79-13.42,19.91-26.29,19.91-15,0-20.62-11.05-30.91-26.09C123.41,329.09,108,307,108,290Z" transform="translate(-26.63 -4.28)"/><rect class="cls-1" x="158" y="371.52" width="15.28" height="19.71" transform="translate(304.65 758.47) rotate(180)"/><path class="cls-1" d="M146.31,316.7" transform="translate(-26.63 -4.28)"/><line class="cls-1" x1="143.04" y1="367.2" x2="156.62" y2="308.63"/><line class="cls-1" x1="123.24" y1="309.21" x2="136.34" y2="366.84"/><path class="cls-1" d="M180.11,312A2.84,2.84,0,0,1,177,314a4.76,4.76,0,0,1-3.2-2.27,5.21,5.21,0,0,0-1-1.38,4.06,4.06,0,0,0-1.82-.68c-1.51-.29-3.38-.46-4.31.78s-.39,2.66-.82,4a3.21,3.21,0,0,1-4.68,1.53c-1.38-1-1.73-2.88-2.9-4.1a4.17,4.17,0,0,0-6.1.4" transform="translate(-26.63 -4.28)"/><path class="cls-1" d="M196.36,368c3.66,1,7.44,2,10.35,4.41,3.34,2.78,5.58,7.39,9.85,8.23" transform="translate(-26.63 -4.28)"/><path class="cls-1" d="M239.52,324.29l17.73,3.38" transform="translate(-26.63 -4.28)"/><path class="cls-1" d="M221.41,251a19.39,19.39,0,0,0,4.65-3.06,120.37,120.37,0,0,1,16.84-11.15" transform="translate(-26.63 -4.28)"/><path class="cls-1" d="M127.42,224.21l-2.7-6.31" transform="translate(-26.63 -4.28)"/><path class="cls-1" d="M93.84,270.71a77.68,77.68,0,0,1-18.14-9.22" transform="translate(-26.63 -4.28)"/><path class="cls-1" d="M108.05,339.34l-9.76,4.5" transform="translate(-26.63 -4.28)"/><path class="cls-1" d="M105.93,377.21A384,384,0,0,1,67.71,403.8" transform="translate(-26.63 -4.28)"/><path class="cls-1" d="M250,361.76a259.64,259.64,0,0,0,40.74,15.33" transform="translate(-26.63 -4.28)"/><path class="cls-1" d="M256.75,272.12a37,37,0,0,0,10.15-3.66" transform="translate(-26.63 -4.28)"/><polygon class="cls-1" points="892.88 301.67 929.5 310.44 866.74 351.51 959.34 312.75 923.35 300.63 966.34 265.25 892.88 301.67"/><polygon class="cls-1" points="64.37 110.11 64.8 72.45 118.76 124.54 60.43 42.85 56.6 80.63 12.57 46.56 64.37 110.11"/><path class="cls-1" d="M606.37,445.59a41.82,41.82,0,0,0,37.38-2.87" transform="translate(-26.63 -4.28)"/><path class="cls-1" d="M903.74,132.9c4,1.45,12.24,4.78,16.23,6.34h0c3.89,1.52,7.71,3.23,11.67,4.52,8.09,2.64,16.72-.16,19.92-8.58,3-7.88-1.92-16.07-9.66-19.3" transform="translate(-26.63 -4.28)"/><path class="cls-1" d="M941.34,115.7c6.36,2.21,14.44,0,17.37-6.57s-.55-13.59-6.48-16.85C944.54,88,931.75,84,923.7,80.58" transform="translate(-26.63 -4.28)"/><line class="cls-1" x1="910.44" y1="70.16" x2="882.23" y2="142.32"/><line class="cls-1" x1="921.22" y1="74.37" x2="914.26" y2="92.17"/><line class="cls-1" x1="899.97" y1="128.74" x2="893.01" y2="146.53"/><circle class="cls-1" cx="908.16" cy="110.86" r="51.2"/></svg>